<svg xmlns="http://www.w3.org/2000/svg" width="1030" height="316.75" viewBox="0 0 1030 316.75">
  <g id="Grupo_172838" data-name="Grupo 172838" transform="translate(-285 -5983.625)">
    <path id="Rectángulo_41682" data-name="Rectángulo 41682" d="M12,0H283a12,12,0,0,1,12,12V50a0,0,0,0,1,0,0H0a0,0,0,0,1,0,0V12A12,12,0,0,1,12,0Z" transform="translate(285 6250.375)" fill="#feca2e"/>
    <path id="Rectángulo_44995" data-name="Rectángulo 44995" d="M12,0H283a12,12,0,0,1,12,12V50a0,0,0,0,1,0,0H0a0,0,0,0,1,0,0V12A12,12,0,0,1,12,0Z" transform="translate(653 6250.375)" fill="#feca2e"/>
    <path id="Rectángulo_41684" data-name="Rectángulo 41684" d="M12,0H283a12,12,0,0,1,12,12V50a0,0,0,0,1,0,0H0a0,0,0,0,1,0,0V12A12,12,0,0,1,12,0Z" transform="translate(1020 6250.375)" fill="#feca2e"/>
    <text id="Datos_Estructurados" data-name="Datos Estructurados" transform="translate(350 6281.375)" fill="#12263f" font-size="18" font-family="Roboto-Black, Roboto" font-weight="800"><tspan x="0" y="0">Datos Estructurados</tspan></text>
    <text id="Datos_Semiestructurados" data-name="Datos Semiestructurados" transform="translate(698 6281.375)" fill="#12263f" font-size="18" font-family="Roboto-Black, Roboto" font-weight="800"><tspan x="0" y="0">Datos Semiestructurados</tspan></text>
    <text id="Datos_No_Estructurados" data-name="Datos No Estructurados" transform="translate(1072 6281.375)" fill="#12263f" font-size="18" font-family="Roboto-Black, Roboto" font-weight="800"><tspan x="0" y="0">Datos No Estructurados</tspan></text>
    <g id="Grupo_172762" data-name="Grupo 172762" transform="translate(714 5994)">
      <rect id="Rectángulo_44619" data-name="Rectángulo 44619" width="33.529" height="33.529" transform="translate(3.763)" fill="#d9000d" stroke="#b10009" stroke-miterlimit="10" stroke-width="0.75"/>
      <rect id="Rectángulo_44620" data-name="Rectángulo 44620" width="33.529" height="33.529" transform="translate(0 43.547)" fill="#de5d26" stroke="#b64f20" stroke-miterlimit="10" stroke-width="0.75"/>
      <rect id="Rectángulo_44621" data-name="Rectángulo 44621" width="33.529" height="33.529" transform="translate(95.705 90.935)" fill="#de5d26" stroke="#b64f20" stroke-miterlimit="10" stroke-width="0.75"/>
      <rect id="Rectángulo_44622" data-name="Rectángulo 44622" width="33.529" height="33.529" transform="translate(3.763 181.871)" fill="#d9000d" stroke="#b10009" stroke-miterlimit="10" stroke-width="0.75"/>
      <rect id="Rectángulo_44623" data-name="Rectángulo 44623" width="33.529" height="33.529" transform="translate(100.403 137.913)" fill="#d9000d" stroke="#b10009" stroke-miterlimit="10" stroke-width="0.75"/>
      <rect id="Rectángulo_44624" data-name="Rectángulo 44624" width="33.529" height="33.529" transform="translate(95.705)" fill="#4aa042" stroke="#3f8538" stroke-miterlimit="10" stroke-width="0.75"/>
      <rect id="Rectángulo_44625" data-name="Rectángulo 44625" width="33.529" height="33.529" transform="translate(140.328)" fill="#2f97a6" stroke="#297f8a" stroke-miterlimit="10" stroke-width="1"/>
      <rect id="Rectángulo_44626" data-name="Rectángulo 44626" width="33.529" height="33.529" transform="translate(49.734)" fill="#2f97a6" stroke="#297f8a" stroke-miterlimit="10" stroke-width="1"/>
      <rect id="Rectángulo_44627" data-name="Rectángulo 44627" width="33.529" height="33.529" transform="translate(49.734 45.832)" fill="#2f97a6" stroke="#297f8a" stroke-miterlimit="10" stroke-width="1"/>
      <rect id="Rectángulo_44628" data-name="Rectángulo 44628" width="33.529" height="33.529" transform="translate(49.734 90.935)" fill="#2f97a6" stroke="#297f8a" stroke-miterlimit="10" stroke-width="1"/>
      <rect id="Rectángulo_44629" data-name="Rectángulo 44629" width="33.529" height="33.529" transform="translate(49.734 136.039)" fill="#2f97a6" stroke="#297f8a" stroke-miterlimit="10" stroke-width="1"/>
      <rect id="Rectángulo_44630" data-name="Rectángulo 44630" width="33.529" height="33.529" transform="translate(49.734 181.142)" fill="#2f97a6" stroke="#297f8a" stroke-miterlimit="10" stroke-width="1"/>
      <rect id="Rectángulo_44631" data-name="Rectángulo 44631" width="33.529" height="33.529" transform="translate(9.984 136.039)" fill="#472478" stroke="#3c1e64" stroke-miterlimit="10" stroke-width="1"/>
      <rect id="Rectángulo_44632" data-name="Rectángulo 44632" width="33.529" height="33.529" transform="translate(89.821 44.643)" fill="#472478" stroke="#3c1e64" stroke-miterlimit="10" stroke-width="1"/>
      <rect id="Rectángulo_44633" data-name="Rectángulo 44633" width="33.529" height="33.529" transform="translate(95.705 181.871)" fill="#472478" stroke="#3c1e64" stroke-miterlimit="10" stroke-width="1"/>
      <rect id="Rectángulo_44634" data-name="Rectángulo 44634" width="33.529" height="33.529" transform="translate(140.328 45.832)" fill="#2f97a6" stroke="#297f8a" stroke-miterlimit="10" stroke-width="1"/>
      <rect id="Rectángulo_44635" data-name="Rectángulo 44635" width="33.529" height="33.529" transform="translate(140.328 91.664)" fill="#2f97a6" stroke="#297f8a" stroke-miterlimit="10" stroke-width="1"/>
      <rect id="Rectángulo_44636" data-name="Rectángulo 44636" width="33.529" height="33.529" transform="translate(140.328 137.496)" fill="#2f97a6" stroke="#297f8a" stroke-miterlimit="10" stroke-width="1"/>
      <rect id="Rectángulo_44637" data-name="Rectángulo 44637" width="33.529" height="33.529" transform="translate(140.328 183.328)" fill="#2f97a6" stroke="#297f8a" stroke-miterlimit="10" stroke-width="1"/>
      <rect id="Rectángulo_44638" data-name="Rectángulo 44638" width="33.529" height="33.529" transform="translate(5.336 90.935)" fill="#4aa042" stroke="#3f8538" stroke-miterlimit="10" stroke-width="0.75"/>
    </g>
    <g id="Grupo_172763" data-name="Grupo 172763" transform="translate(350 5996)">
      <rect id="Rectángulo_44639" data-name="Rectángulo 44639" width="33.529" height="33.529" fill="#f4fafe" stroke="#5d7282" stroke-miterlimit="10" stroke-width="0.75"/>
      <rect id="Rectángulo_44640" data-name="Rectángulo 44640" width="33.529" height="33.529" transform="translate(43.828)" fill="#f4fafe" stroke="#5d7282" stroke-miterlimit="10" stroke-width="0.75"/>
      <rect id="Rectángulo_44641" data-name="Rectángulo 44641" width="33.529" height="33.529" transform="translate(87.656)" fill="#f4fafe" stroke="#5d7282" stroke-miterlimit="10" stroke-width="0.75"/>
      <rect id="Rectángulo_44642" data-name="Rectángulo 44642" width="33.529" height="33.529" transform="translate(131.484)" fill="#f4fafe" stroke="#5d7282" stroke-miterlimit="10" stroke-width="0.75"/>
      <rect id="Rectángulo_44643" data-name="Rectángulo 44643" width="33.529" height="33.529" transform="translate(0 44.674)" fill="#f4fafe" stroke="#5d7282" stroke-miterlimit="10" stroke-width="0.75"/>
      <rect id="Rectángulo_44644" data-name="Rectángulo 44644" width="33.529" height="33.529" transform="translate(43.828 44.674)" fill="#add5f3" stroke="#5d7282" stroke-miterlimit="10" stroke-width="0.75"/>
      <rect id="Rectángulo_44645" data-name="Rectángulo 44645" width="33.529" height="33.529" transform="translate(87.656 44.674)" fill="#add5f3" stroke="#5d7282" stroke-miterlimit="10" stroke-width="0.75"/>
      <rect id="Rectángulo_44646" data-name="Rectángulo 44646" width="33.529" height="33.529" transform="translate(131.484 44.674)" fill="#f4fafe" stroke="#5d7282" stroke-miterlimit="10" stroke-width="0.75"/>
      <rect id="Rectángulo_44647" data-name="Rectángulo 44647" width="33.529" height="33.529" transform="translate(0 89.347)" fill="#add5f3" stroke="#5d7282" stroke-miterlimit="10" stroke-width="0.75"/>
      <rect id="Rectángulo_44648" data-name="Rectángulo 44648" width="33.529" height="33.529" transform="translate(43.828 89.347)" fill="#add5f3" stroke="#5d7282" stroke-miterlimit="10" stroke-width="0.75"/>
      <rect id="Rectángulo_44649" data-name="Rectángulo 44649" width="33.529" height="33.529" transform="translate(87.656 89.347)" fill="#83a1b9" stroke="#5d7282" stroke-miterlimit="10" stroke-width="0.75"/>
      <rect id="Rectángulo_44650" data-name="Rectángulo 44650" width="33.529" height="33.529" transform="translate(131.484 89.347)" fill="#f4fafe" stroke="#5d7282" stroke-miterlimit="10" stroke-width="0.75"/>
      <rect id="Rectángulo_44651" data-name="Rectángulo 44651" width="33.529" height="33.529" transform="translate(0 134.021)" fill="#add5f3" stroke="#5d7282" stroke-miterlimit="10" stroke-width="0.75"/>
      <rect id="Rectángulo_44652" data-name="Rectángulo 44652" width="33.529" height="33.529" transform="translate(43.828 134.021)" fill="#add5f3" stroke="#5d7282" stroke-miterlimit="10" stroke-width="0.75"/>
      <rect id="Rectángulo_44653" data-name="Rectángulo 44653" width="33.529" height="33.529" transform="translate(87.656 134.021)" fill="#83a1b9" stroke="#5d7282" stroke-miterlimit="10" stroke-width="0.75"/>
      <rect id="Rectángulo_44654" data-name="Rectángulo 44654" width="33.529" height="33.529" transform="translate(131.484 134.021)" fill="#f4fafe" stroke="#5d7282" stroke-miterlimit="10" stroke-width="0.75"/>
      <rect id="Rectángulo_44655" data-name="Rectángulo 44655" width="33.529" height="33.529" transform="translate(0 178.694)" fill="#83a1b9" stroke="#5d7282" stroke-miterlimit="10" stroke-width="0.75"/>
      <rect id="Rectángulo_44656" data-name="Rectángulo 44656" width="33.529" height="33.529" transform="translate(43.828 178.694)" fill="#83a1b9" stroke="#5d7282" stroke-miterlimit="10" stroke-width="0.75"/>
      <rect id="Rectángulo_44657" data-name="Rectángulo 44657" width="33.529" height="33.529" transform="translate(87.656 178.694)" fill="#83a1b9" stroke="#5d7282" stroke-miterlimit="10" stroke-width="0.75"/>
      <rect id="Rectángulo_44658" data-name="Rectángulo 44658" width="33.529" height="33.529" transform="translate(131.484 178.694)" fill="#f4fafe" stroke="#5d7282" stroke-miterlimit="10" stroke-width="0.75"/>
    </g>
    <g id="Modo_de_aislamiento" data-name="Modo de aislamiento" transform="translate(1083 5984)">
      <g id="Grupo_148866" data-name="Grupo 148866">
        <rect id="Rectángulo_44659" data-name="Rectángulo 44659" width="33.529" height="33.529" transform="translate(51.066 137.837)" fill="#d9000d" stroke="#b10009" stroke-miterlimit="10" stroke-width="0.75"/>
        <rect id="Rectángulo_44660" data-name="Rectángulo 44660" width="33.529" height="33.529" transform="translate(2.03 22.813)" fill="#de5d26" stroke="#b64f20" stroke-miterlimit="10" stroke-width="0.75"/>
        <rect id="Rectángulo_44661" data-name="Rectángulo 44661" width="33.529" height="33.529" transform="translate(131.25 18.45)" fill="#eb706f" stroke="#bf5e5d" stroke-miterlimit="10" stroke-width="0.75"/>
        <rect id="Rectángulo_44662" data-name="Rectángulo 44662" width="33.529" height="33.529" transform="translate(128.524 62.421)" fill="#de5d26" stroke="#b64f20" stroke-miterlimit="10" stroke-width="0.75"/>
        <rect id="Rectángulo_44663" data-name="Rectángulo 44663" width="33.529" height="33.529" transform="translate(40.801 43.843)" fill="#d9000d" stroke="#b10009" stroke-miterlimit="10" stroke-width="0.75"/>
        <rect id="Rectángulo_44664" data-name="Rectángulo 44664" width="33.529" height="33.529" transform="translate(131.25 200.475)" fill="#d9000d" stroke="#b10009" stroke-miterlimit="10" stroke-width="0.75"/>
        <rect id="Rectángulo_44665" data-name="Rectángulo 44665" width="33.529" height="33.529" transform="translate(2.03 202.847)" fill="#4aa042" stroke="#3f8538" stroke-miterlimit="10" stroke-width="0.75"/>
        <rect id="Rectángulo_44666" data-name="Rectángulo 44666" width="33.529" height="33.529" transform="translate(131.25 108.511)" fill="#4aa042" stroke="#3f8538" stroke-miterlimit="10" stroke-width="0.75"/>
        <rect id="Rectángulo_44667" data-name="Rectángulo 44667" width="33.529" height="33.529" transform="translate(93.667 157.269)" fill="#4aa042" stroke="#3f8538" stroke-miterlimit="10" stroke-width="0.75"/>
        <rect id="Rectángulo_44668" data-name="Rectángulo 44668" width="33.529" height="33.529" transform="translate(86.831 65.537)" fill="#315e94" stroke="#2c507d" stroke-miterlimit="10" stroke-width="1"/>
        <rect id="Rectángulo_44669" data-name="Rectángulo 44669" width="33.529" height="33.529" transform="translate(91.075 20.214)" fill="#472478" stroke="#3c1e64" stroke-miterlimit="10" stroke-width="1"/>
        <rect id="Rectángulo_44670" data-name="Rectángulo 44670" width="33.529" height="33.529" transform="translate(136.268 154.601)" fill="#472478" stroke="#3c1e64" stroke-miterlimit="10" stroke-width="1"/>
        <rect id="Rectángulo_44671" data-name="Rectángulo 44671" width="33.529" height="33.529" transform="translate(2.03 112.091)" fill="#472478" stroke="#3c1e64" stroke-miterlimit="10" stroke-width="1"/>
        <rect id="Rectángulo_44672" data-name="Rectángulo 44672" width="33.529" height="33.529" transform="translate(0 67.452)" fill="#4aa042" stroke="#3f8538" stroke-miterlimit="10" stroke-width="0.75"/>
        <rect id="Rectángulo_44673" data-name="Rectángulo 44673" width="33.529" height="33.529" transform="translate(45.138 91.747)" fill="#add5f3" stroke="#5d7282" stroke-miterlimit="10" stroke-width="0.75"/>
        <rect id="Rectángulo_44674" data-name="Rectángulo 44674" width="33.529" height="33.529" transform="translate(46.553)" fill="#add5f3" stroke="#5d7282" stroke-miterlimit="10" stroke-width="0.75"/>
        <rect id="Rectángulo_44675" data-name="Rectángulo 44675" width="33.529" height="33.529" transform="translate(7.272 157.269)" fill="#eca686" stroke="#c18a70" stroke-miterlimit="10" stroke-width="0.75"/>
        <rect id="Rectángulo_44676" data-name="Rectángulo 44676" width="33.529" height="33.529" transform="translate(91.075 202.847)" fill="#eca686" stroke="#c18a70" stroke-miterlimit="10" stroke-width="0.75"/>
        <rect id="Rectángulo_44677" data-name="Rectángulo 44677" width="33.529" height="33.529" transform="translate(91.075 110.861)" fill="#add5f3" stroke="#5d7282" stroke-miterlimit="10" stroke-width="0.75"/>
        <rect id="Rectángulo_44678" data-name="Rectángulo 44678" width="33.529" height="33.529" transform="translate(45.138 181.9)" fill="#add5f3" stroke="#5d7282" stroke-miterlimit="10" stroke-width="0.75"/>
      </g>
    </g>
  </g>
</svg>
