<svg xmlns="http://www.w3.org/2000/svg" width="1003.811" height="850.701" viewBox="0 0 1003.811 850.701">
  <g id="Capa_1" data-name="Capa 1" transform="translate(0.5 -10)">
    <g id="Grupo_148331" data-name="Grupo 148331" transform="translate(417.381 190.468)">
      <path id="Trazado_202979" data-name="Trazado 202979" d="M262.869,248.412V359.85H419.6v-91.6l-21.611-19.833Z" transform="translate(-256.931 -242.51)" fill="#4ab7ce"/>
      <path id="Trazado_202980" data-name="Trazado 202980" d="M259.529,245.093V356.531H416.259V265.375l-22.106-20.283Z" transform="translate(-259.529 -245.093)" fill="#fff" stroke="#4ab7ce" stroke-linecap="round" stroke-linejoin="round" stroke-width="1"/>
      <path id="Trazado_202981" data-name="Trazado 202981" d="M335.238,265.375h22.106l-22.106-20.283Z" transform="translate(-200.615 -245.093)" fill="#fff" stroke="#4ab7ce" stroke-linecap="round" stroke-linejoin="round" stroke-width="1"/>
    </g>
    <g id="Grupo_148332" data-name="Grupo 148332" transform="translate(0 190.468)">
      <path id="Trazado_202982" data-name="Trazado 202982" d="M28.145,248.412V359.85H184.875v-91.6l-21.611-19.833Z" transform="translate(-22.207 -242.51)" fill="#ffbc19"/>
      <path id="Trazado_202983" data-name="Trazado 202983" d="M24.806,245.093V356.531H181.535V265.375l-22.106-20.283Z" transform="translate(-24.806 -245.093)" fill="#fff" stroke="#ffbc19" stroke-linecap="round" stroke-linejoin="round" stroke-width="1"/>
      <path id="Trazado_202984" data-name="Trazado 202984" d="M100.514,265.375H122.62l-22.106-20.283Z" transform="translate(34.109 -245.093)" fill="#fff" stroke="#ffbc19" stroke-linecap="round" stroke-linejoin="round" stroke-width="1"/>
    </g>
    <circle id="Elipse_5051" data-name="Elipse 5051" cx="18.804" cy="18.804" r="18.804" transform="translate(430.448 171.665)" fill="#fff" stroke="#4ab7ce" stroke-linecap="round" stroke-linejoin="round" stroke-width="1"/>
    <text id="Conocimiento_del_negocio" data-name="Conocimiento
del negocio" transform="translate(432.178 226.874)" fill="#161615" font-size="12" font-family="Roboto-Bold, Roboto" font-weight="700"><tspan x="0" y="0">Conocimiento</tspan><tspan x="0" y="12">del negocio</tspan></text>
    <text id="División_de_datos_de_entrada" data-name="División de
datos de
entrada" transform="translate(15.403 232.772)" fill="#161615" font-size="13" font-family="Roboto-Bold, Roboto" font-weight="700"><tspan x="0" y="0">División de</tspan><tspan x="0" y="16">datos de</tspan><tspan x="0" y="32">entrada</tspan></text>
    <g id="Grupo_148333" data-name="Grupo 148333" transform="translate(0 318.506)">
      <path id="Trazado_202985" data-name="Trazado 202985" d="M28.145,320.417V431.854H184.875v-91.6l-21.611-19.833Z" transform="translate(-22.207 -314.514)" fill="#ffbc19"/>
      <path id="Trazado_202986" data-name="Trazado 202986" d="M24.806,317.1V428.535H181.535V337.38L159.429,317.1Z" transform="translate(-24.806 -317.097)" fill="#fff" stroke="#ffbc19" stroke-linecap="round" stroke-linejoin="round" stroke-width="1"/>
      <path id="Trazado_202987" data-name="Trazado 202987" d="M100.514,337.38H122.62L100.514,317.1Z" transform="translate(34.109 -317.097)" fill="#fff" stroke="#ffbc19" stroke-linecap="round" stroke-linejoin="round" stroke-width="1"/>
    </g>
    <text id="Compilación_o_aplicación_del_modelo" data-name="Compilación
o aplicación
del modelo" transform="translate(15.403 360.809)" fill="#161615" font-size="13" font-family="Roboto-Bold, Roboto" font-weight="700"><tspan x="0" y="0">Compilación</tspan><tspan x="0" y="16">o aplicación</tspan><tspan x="0" y="32">del modelo</tspan></text>
    <g id="Grupo_148334" data-name="Grupo 148334" transform="translate(0 444.265)">
      <path id="Trazado_202988" data-name="Trazado 202988" d="M28.145,391.14V502.578H184.875v-91.6L163.263,391.14Z" transform="translate(-22.207 -385.238)" fill="#ffbc19"/>
      <path id="Trazado_202989" data-name="Trazado 202989" d="M24.806,387.821V499.259H181.535V408.1l-22.106-20.283Z" transform="translate(-24.806 -387.821)" fill="#fff" stroke="#ffbc19" stroke-linecap="round" stroke-linejoin="round" stroke-width="1"/>
      <path id="Trazado_202990" data-name="Trazado 202990" d="M100.514,408.1H122.62l-22.106-20.283Z" transform="translate(34.109 -387.821)" fill="#fff" stroke="#ffbc19" stroke-linecap="round" stroke-linejoin="round" stroke-width="1"/>
    </g>
    <text id="Revisión_de_resultados" data-name="Revisión de
resultados" transform="translate(15.403 486.568)" fill="#161615" font-size="13" font-family="Roboto-Bold, Roboto" font-weight="700"><tspan x="0" y="0">Revisión de</tspan><tspan x="0" y="16">resultados</tspan></text>
    <g id="Grupo_148335" data-name="Grupo 148335" transform="translate(0 569.039)">
      <path id="Trazado_202991" data-name="Trazado 202991" d="M28.145,461.309V572.747H184.875v-91.6l-21.611-19.833Z" transform="translate(-22.207 -455.407)" fill="#ffbc19"/>
      <path id="Trazado_202992" data-name="Trazado 202992" d="M24.806,457.99V569.428H181.535V478.273L159.429,457.99Z" transform="translate(-24.806 -457.99)" fill="#fff" stroke="#ffbc19" stroke-linecap="round" stroke-linejoin="round" stroke-width="1"/>
      <path id="Trazado_202993" data-name="Trazado 202993" d="M100.514,478.273H122.62L100.514,457.99Z" transform="translate(34.109 -457.99)" fill="#fff" stroke="#ffbc19" stroke-linecap="round" stroke-linejoin="round" stroke-width="1"/>
    </g>
    <text id="Comparación_de_métricas_de_éxito" data-name="Comparación
de métricas 
de éxito" transform="translate(15.403 611.342)" fill="#161615" font-size="13" font-family="Roboto-Bold, Roboto" font-weight="700"><tspan x="0" y="0">Comparación</tspan><tspan x="0" y="16">de métricas </tspan><tspan x="0" y="32">de éxito</tspan></text>
    <g id="Grupo_148336" data-name="Grupo 148336" transform="translate(840.644 246.187)">
      <path id="Trazado_202994" data-name="Trazado 202994" d="M500.9,279.747V391.184H657.629v-91.6l-21.611-19.833Z" transform="translate(-494.962 -273.845)" fill="#ffbc19"/>
      <path id="Trazado_202995" data-name="Trazado 202995" d="M497.561,276.427V387.865H654.29V296.71l-22.106-20.283Z" transform="translate(-497.561 -276.427)" fill="#fff" stroke="#ffbc19" stroke-linecap="round" stroke-linejoin="round" stroke-width="1"/>
      <path id="Trazado_202996" data-name="Trazado 202996" d="M573.269,296.71h22.106l-22.106-20.283Z" transform="translate(-438.646 -276.427)" fill="#fff" stroke="#ffbc19" stroke-linecap="round" stroke-linejoin="round" stroke-width="1"/>
    </g>
    <text id="Recolección_de_datos" data-name="Recolección
de datos" transform="translate(856.047 288.491)" fill="#161615" font-size="13" font-family="Roboto-Bold, Roboto" font-weight="700"><tspan x="0" y="0">Recolección</tspan><tspan x="0" y="16">de datos</tspan></text>
    <g id="Grupo_148337" data-name="Grupo 148337" transform="translate(840.644 374.225)">
      <path id="Trazado_202997" data-name="Trazado 202997" d="M500.9,351.751V463.189H657.629v-91.6l-21.611-19.833Z" transform="translate(-494.962 -345.849)" fill="#ffbc19"/>
      <path id="Trazado_202998" data-name="Trazado 202998" d="M497.561,348.432V459.87H654.29V368.715l-22.106-20.282Z" transform="translate(-497.561 -348.432)" fill="#fff" stroke="#ffbc19" stroke-linecap="round" stroke-linejoin="round" stroke-width="1"/>
      <path id="Trazado_202999" data-name="Trazado 202999" d="M573.269,368.715h22.106l-22.106-20.282Z" transform="translate(-438.646 -348.432)" fill="#fff" stroke="#ffbc19" stroke-linecap="round" stroke-linejoin="round" stroke-width="1"/>
    </g>
    <text id="Exploración_de_datos" data-name="Exploración
de datos" transform="translate(856.047 416.528)" fill="#161615" font-size="13" font-family="Roboto-Bold, Roboto" font-weight="700"><tspan x="0" y="0">Exploración</tspan><tspan x="0" y="16">de datos</tspan></text>
    <g id="Grupo_148338" data-name="Grupo 148338" transform="translate(840.644 499.984)">
      <path id="Trazado_203000" data-name="Trazado 203000" d="M500.9,422.475V533.913H657.629v-91.6l-21.611-19.833Z" transform="translate(-494.962 -416.573)" fill="#ffbc19"/>
      <path id="Trazado_203001" data-name="Trazado 203001" d="M497.561,419.156V530.593H654.29V439.438l-22.106-20.282Z" transform="translate(-497.561 -419.156)" fill="#fff" stroke="#ffbc19" stroke-linecap="round" stroke-linejoin="round" stroke-width="1"/>
      <path id="Trazado_203002" data-name="Trazado 203002" d="M573.269,439.438h22.106l-22.106-20.282Z" transform="translate(-438.646 -419.156)" fill="#fff" stroke="#ffbc19" stroke-linecap="round" stroke-linejoin="round" stroke-width="1"/>
    </g>
    <text id="Limpieza_de_datos" data-name="Limpieza
de datos" transform="translate(856.047 542.287)" fill="#161615" font-size="13" font-family="Roboto-Bold, Roboto" font-weight="700"><tspan x="0" y="0">Limpieza</tspan><tspan x="0" y="16">de datos</tspan></text>
    <text id="Se_centra_en_conocer_los_objetivos_y_requerimientos_del_proyecto" data-name="Se centra en conocer los
objetivos y requerimientos
del proyecto" transform="translate(432.178 258.34)" fill="#161615" font-size="10" font-family="Roboto-Regular, Roboto"><tspan x="0" y="0">Se centra en conocer los</tspan><tspan x="0" y="12">objetivos y requerimientos</tspan><tspan x="0" y="24">del proyecto</tspan></text>
    <g id="Grupo_148339" data-name="Grupo 148339" transform="translate(184.326 366.07)">
      <path id="Trazado_203003" data-name="Trazado 203003" d="M131.8,347.165V458.6H288.534V367l-21.611-19.833Z" transform="translate(-125.867 -341.263)" fill="#4ab7ce"/>
      <path id="Trazado_203004" data-name="Trazado 203004" d="M128.466,343.846V455.284H285.195V364.129l-22.106-20.283Z" transform="translate(-128.466 -343.846)" fill="#fff" stroke="#4ab7ce" stroke-linecap="round" stroke-linejoin="round" stroke-width="1"/>
      <path id="Trazado_203005" data-name="Trazado 203005" d="M204.174,364.129H226.28l-22.106-20.283Z" transform="translate(-69.551 -343.846)" fill="#fff" stroke="#4ab7ce" stroke-linecap="round" stroke-linejoin="round" stroke-width="1"/>
    </g>
    <circle id="Elipse_5052" data-name="Elipse 5052" cx="18.804" cy="18.804" r="18.804" transform="translate(197.392 347.267)" fill="#fff" stroke="#4ab7ce" stroke-linecap="round" stroke-linejoin="round" stroke-width="1"/>
    <text id="Modelado" transform="translate(199.123 402.476)" fill="#161615" font-size="12" font-family="Roboto-Bold, Roboto" font-weight="700"><tspan x="0" y="0">Modelado</tspan></text>
    <text id="En_esta_fase_se_seleccionan_y_evalúan_los_modelos_a_aplicar" data-name="En esta fase se seleccionan
y evalúan los modelos
a aplicar" transform="translate(199.123 428.902)" fill="#161615" font-size="10" font-family="Roboto-Regular, Roboto"><tspan x="0" y="0">En esta fase se seleccionan</tspan><tspan x="0" y="12">y evalúan los modelos</tspan><tspan x="0" y="24">a aplicar</tspan></text>
    <g id="Grupo_148340" data-name="Grupo 148340" transform="translate(625.237 350.699)">
      <path id="Trazado_203006" data-name="Trazado 203006" d="M379.761,338.521V449.959H536.49v-91.6l-21.611-19.833Z" transform="translate(-373.823 -332.619)" fill="#4ab7ce"/>
      <path id="Trazado_203007" data-name="Trazado 203007" d="M376.422,335.2V446.64H533.151V355.484L511.045,335.2Z" transform="translate(-376.422 -335.202)" fill="#fff" stroke="#4ab7ce" stroke-linecap="round" stroke-linejoin="round" stroke-width="1"/>
      <path id="Trazado_203008" data-name="Trazado 203008" d="M452.13,355.484h22.106L452.13,335.2Z" transform="translate(-317.507 -335.202)" fill="#fff" stroke="#4ab7ce" stroke-linecap="round" stroke-linejoin="round" stroke-width="1"/>
    </g>
    <circle id="Elipse_5053" data-name="Elipse 5053" cx="18.804" cy="18.804" r="18.804" transform="translate(718.952 331.896)" fill="#fff" stroke="#4ab7ce" stroke-linecap="round" stroke-linejoin="round" stroke-width="1"/>
    <text id="Adquisición_y_comprensión_de_los_datos" data-name="Adquisición y
comprensión
de los datos" transform="translate(640.034 377.023)" fill="#161615" font-size="12" font-family="Roboto-Bold, Roboto" font-weight="700"><tspan x="0" y="0">Adquisición y</tspan><tspan x="0" y="12">comprensión</tspan><tspan x="0" y="24">de los datos</tspan></text>
    <text id="En_esta_fase_se_identifican_recolectan_y_analizan_los_conjuntos_de_datos_que_se_emplearán_en_la_ejecución" data-name="En esta fase se identifican,
recolectan y analizan los
conjuntos de datos que se
emplearán en la ejecución" transform="translate(640.034 413.53)" fill="#161615" font-size="10" font-family="Roboto-Regular, Roboto"><tspan x="0" y="0">En esta fase se identifican,</tspan><tspan x="0" y="12">recolectan y analizan los</tspan><tspan x="0" y="24">conjuntos de datos que se</tspan><tspan x="0" y="36">emplearán en la ejecución</tspan></text>
    <g id="Grupo_148341" data-name="Grupo 148341" transform="translate(418.681 536.113)">
      <path id="Trazado_203009" data-name="Trazado 203009" d="M263.6,442.793V554.231H420.329v-91.6l-21.611-19.833Z" transform="translate(-257.662 -436.891)" fill="#4ab7ce"/>
      <path id="Trazado_203010" data-name="Trazado 203010" d="M260.26,439.474V550.911H416.99V459.756l-22.106-20.283Z" transform="translate(-260.26 -439.474)" fill="#fff" stroke="#4ab7ce" stroke-linecap="round" stroke-linejoin="round" stroke-width="1"/>
      <path id="Trazado_203011" data-name="Trazado 203011" d="M335.969,459.756h22.106l-22.106-20.283Z" transform="translate(-201.345 -439.474)" fill="#fff" stroke="#4ab7ce" stroke-linecap="round" stroke-linejoin="round" stroke-width="1"/>
    </g>
    <circle id="Elipse_5054" data-name="Elipse 5054" cx="18.804" cy="18.804" r="18.804" transform="translate(509.902 517.31)" fill="#fff" stroke="#4ab7ce" stroke-linecap="round" stroke-linejoin="round" stroke-width="1"/>
    <text id="Implementación_y_despliegue" data-name="Implementación
y despliegue" transform="translate(433.478 562.438)" fill="#161615" font-size="12" font-family="Roboto-Bold, Roboto" font-weight="700"><tspan x="0" y="0">Implementación</tspan><tspan x="0" y="12">y despliegue</tspan></text>
    <text id="Cuando_ya_se_tienen_los_modelos_evaluados_y_seleccionados_se_publican_y_utilizan_para_procesar_otros_datos" data-name="Cuando ya se tienen los 
modelos evaluados y 
seleccionados se publican
y utilizan para procesar
otros datos" transform="translate(433.478 588.863)" fill="#161615" font-size="10" font-family="Roboto-Regular, Roboto"><tspan x="0" y="0">Cuando ya se tienen los </tspan><tspan x="0" y="12">modelos evaluados y </tspan><tspan x="0" y="24">seleccionados se publican</tspan><tspan x="0" y="36">y utilizan para procesar</tspan><tspan x="0" y="48">otros datos</tspan></text>
    <text id="Fases_de_un_proyecto_de" data-name="Fases de un proyecto de" transform="translate(498.145 44)" fill="#12263f" font-size="32" font-family="Roboto-Black, Roboto" font-weight="800"><tspan x="-174.813" y="0">Fases de un proyecto de</tspan></text>
    <rect id="Rectángulo_44594" data-name="Rectángulo 44594" width="300" height="43.584" rx="12.255" transform="translate(357.179 58.999)" fill="#161615"/>
    <text id="Ciencia_de_datos" data-name="Ciencia de datos" transform="translate(398 85.999)" fill="#fff" font-size="16" font-family="Roboto-Bold, Roboto" font-weight="700" letter-spacing="0.4em"><tspan x="0" y="0">Ciencia de datos</tspan></text>
    <g id="Grupo_148342" data-name="Grupo 148342" transform="translate(404.004 406.866)">
      <path id="Trazado_203012" data-name="Trazado 203012" d="M258.589,381.761l11.444-11.484-3.3-3.286-11.444,11.484-3.286,3.3,3.3,3.286L266.787,396.5l3.286-3.3Z" transform="translate(-252.006 -366.631)" fill="#161615"/>
      <path id="Trazado_203013" data-name="Trazado 203013" d="M349.3,378.233l-11.484-11.444-3.286,3.3,11.483,11.444-11.444,11.484,3.3,3.286,11.444-11.484,3.286-3.3Z" transform="translate(-187.787 -366.789)" fill="#161615"/>
    </g>
    <g id="Grupo_148343" data-name="Grupo 148343" transform="translate(421.04 419.281)">
      <circle id="Elipse_5055" data-name="Elipse 5055" cx="2.52" cy="2.52" r="2.52" fill="#161615"/>
      <circle id="Elipse_5056" data-name="Elipse 5056" cx="2.52" cy="2.52" r="2.52" transform="translate(7.856)" fill="#161615"/>
      <circle id="Elipse_5057" data-name="Elipse 5057" cx="2.52" cy="2.52" r="2.52" transform="translate(15.712)" fill="#161615"/>
      <circle id="Elipse_5058" data-name="Elipse 5058" cx="2.52" cy="2.52" r="2.52" transform="translate(23.568)" fill="#161615"/>
      <circle id="Elipse_5059" data-name="Elipse 5059" cx="2.52" cy="2.52" r="2.52" transform="translate(31.425)" fill="#161615"/>
      <circle id="Elipse_5060" data-name="Elipse 5060" cx="2.52" cy="2.52" r="2.52" transform="translate(39.281)" fill="#161615"/>
      <circle id="Elipse_5061" data-name="Elipse 5061" cx="2.52" cy="2.52" r="2.52" transform="translate(47.137)" fill="#161615"/>
      <circle id="Elipse_5062" data-name="Elipse 5062" cx="2.52" cy="2.52" r="2.52" transform="translate(54.993)" fill="#161615"/>
      <circle id="Elipse_5063" data-name="Elipse 5063" cx="2.52" cy="2.52" r="2.52" transform="translate(62.849)" fill="#161615"/>
      <circle id="Elipse_5064" data-name="Elipse 5064" cx="2.52" cy="2.52" r="2.52" transform="translate(70.705)" fill="#161615"/>
      <circle id="Elipse_5065" data-name="Elipse 5065" cx="2.52" cy="2.52" r="2.52" transform="translate(78.562)" fill="#161615"/>
      <circle id="Elipse_5066" data-name="Elipse 5066" cx="2.52" cy="2.52" r="2.52" transform="translate(86.418)" fill="#161615"/>
      <circle id="Elipse_5067" data-name="Elipse 5067" cx="2.52" cy="2.52" r="2.52" transform="translate(102.13)" fill="#161615"/>
      <circle id="Elipse_5068" data-name="Elipse 5068" cx="2.52" cy="2.52" r="2.52" transform="translate(94.274)" fill="#161615"/>
      <circle id="Elipse_5069" data-name="Elipse 5069" cx="2.52" cy="2.52" r="2.52" transform="translate(109.986)" fill="#161615"/>
      <circle id="Elipse_5070" data-name="Elipse 5070" cx="2.52" cy="2.52" r="2.52" transform="translate(117.842)" fill="#161615"/>
      <circle id="Elipse_5071" data-name="Elipse 5071" cx="2.52" cy="2.52" r="2.52" transform="translate(125.699)" fill="#161615"/>
    </g>
    <g id="Grupo_148345" data-name="Grupo 148345" transform="translate(301.472 236.503)">
      <path id="Trazado_203014" data-name="Trazado 203014" d="M199,329.042V312.83h-4.655V333.7h20.867v-4.655Z" transform="translate(-194.345 -238.415)" fill="#161615"/>
      <path id="Trazado_203015" data-name="Trazado 203015" d="M252.263,270.981H236.051v4.655h16.212v16.212h4.655V270.981Z" transform="translate(-161.891 -270.981)" fill="#161615"/>
      <g id="Grupo_148344" data-name="Grupo 148344" transform="translate(8.609 9.472)">
        <circle id="Elipse_5072" data-name="Elipse 5072" cx="2.52" cy="2.52" r="2.52" transform="translate(0 72.217)" fill="#161615"/>
        <circle id="Elipse_5073" data-name="Elipse 5073" cx="2.52" cy="2.52" r="2.52" transform="translate(5.555 66.662)" fill="#161615"/>
        <circle id="Elipse_5074" data-name="Elipse 5074" cx="2.52" cy="2.52" r="2.52" transform="translate(11.11 61.107)" fill="#161615"/>
        <circle id="Elipse_5075" data-name="Elipse 5075" cx="2.52" cy="2.52" r="2.52" transform="translate(16.665 55.551)" fill="#161615"/>
        <circle id="Elipse_5076" data-name="Elipse 5076" cx="2.52" cy="2.52" r="2.52" transform="translate(22.221 49.996)" fill="#161615"/>
        <circle id="Elipse_5077" data-name="Elipse 5077" cx="2.52" cy="2.52" r="2.52" transform="translate(27.776 44.441)" fill="#161615"/>
        <circle id="Elipse_5078" data-name="Elipse 5078" cx="2.52" cy="2.52" r="2.52" transform="translate(33.331 38.886)" fill="#161615"/>
        <circle id="Elipse_5079" data-name="Elipse 5079" cx="2.52" cy="2.52" r="2.52" transform="translate(38.886 33.331)" fill="#161615"/>
        <circle id="Elipse_5080" data-name="Elipse 5080" cx="2.52" cy="2.52" r="2.52" transform="translate(44.441 27.776)" fill="#161615"/>
        <circle id="Elipse_5081" data-name="Elipse 5081" cx="2.52" cy="2.52" r="2.52" transform="translate(49.996 22.221)" fill="#161615"/>
        <circle id="Elipse_5082" data-name="Elipse 5082" cx="2.52" cy="2.52" r="2.52" transform="translate(55.551 16.665)" fill="#161615"/>
        <circle id="Elipse_5083" data-name="Elipse 5083" cx="2.52" cy="2.52" r="2.52" transform="translate(61.107 11.11)" fill="#161615"/>
        <circle id="Elipse_5084" data-name="Elipse 5084" cx="2.52" cy="2.52" r="2.52" transform="translate(72.217)" fill="#161615"/>
        <circle id="Elipse_5085" data-name="Elipse 5085" cx="2.52" cy="2.52" r="2.52" transform="translate(66.662 5.555)" fill="#161615"/>
      </g>
    </g>
    <g id="Grupo_148347" data-name="Grupo 148347" transform="translate(602.149 236.503)">
      <path id="Trazado_203016" data-name="Trazado 203016" d="M421.356,329.042V312.83h4.655V333.7H405.143v-4.655Z" transform="translate(-330.983 -238.415)" fill="#161615"/>
      <path id="Trazado_203017" data-name="Trazado 203017" d="M368.093,270.981h16.212v4.655H368.093v16.212h-4.655V270.981Z" transform="translate(-363.438 -270.981)" fill="#161615"/>
      <g id="Grupo_148346" data-name="Grupo 148346" transform="translate(9.161 9.472)">
        <circle id="Elipse_5086" data-name="Elipse 5086" cx="2.52" cy="2.52" r="2.52" transform="translate(72.217 72.217)" fill="#161615"/>
        <circle id="Elipse_5087" data-name="Elipse 5087" cx="2.52" cy="2.52" r="2.52" transform="translate(66.662 66.662)" fill="#161615"/>
        <circle id="Elipse_5088" data-name="Elipse 5088" cx="2.52" cy="2.52" r="2.52" transform="translate(61.107 61.107)" fill="#161615"/>
        <circle id="Elipse_5089" data-name="Elipse 5089" cx="2.52" cy="2.52" r="2.52" transform="translate(55.551 55.551)" fill="#161615"/>
        <circle id="Elipse_5090" data-name="Elipse 5090" cx="2.52" cy="2.52" r="2.52" transform="translate(49.996 49.996)" fill="#161615"/>
        <circle id="Elipse_5091" data-name="Elipse 5091" cx="2.52" cy="2.52" r="2.52" transform="translate(44.441 44.441)" fill="#161615"/>
        <circle id="Elipse_5092" data-name="Elipse 5092" cx="2.52" cy="2.52" r="2.52" transform="translate(38.886 38.886)" fill="#161615"/>
        <circle id="Elipse_5093" data-name="Elipse 5093" cx="2.52" cy="2.52" r="2.52" transform="translate(33.331 33.331)" fill="#161615"/>
        <circle id="Elipse_5094" data-name="Elipse 5094" cx="2.52" cy="2.52" r="2.52" transform="translate(27.776 27.776)" fill="#161615"/>
        <circle id="Elipse_5095" data-name="Elipse 5095" cx="2.52" cy="2.52" r="2.52" transform="translate(22.221 22.221)" fill="#161615"/>
        <circle id="Elipse_5096" data-name="Elipse 5096" cx="2.52" cy="2.52" r="2.52" transform="translate(16.665 16.665)" fill="#161615"/>
        <circle id="Elipse_5097" data-name="Elipse 5097" cx="2.52" cy="2.52" r="2.52" transform="translate(11.11 11.11)" fill="#161615"/>
        <circle id="Elipse_5098" data-name="Elipse 5098" cx="2.52" cy="2.52" r="2.52" fill="#161615"/>
        <circle id="Elipse_5099" data-name="Elipse 5099" cx="2.52" cy="2.52" r="2.52" transform="translate(5.555 5.555)" fill="#161615"/>
      </g>
    </g>
    <g id="Grupo_148349" data-name="Grupo 148349" transform="translate(299.479 493.265)">
      <path id="Trazado_203018" data-name="Trazado 203018" d="M197.88,420.032v16.212h-4.655V415.377h20.867v4.655Z" transform="translate(-193.225 -415.377)" fill="#161615"/>
      <path id="Trazado_203019" data-name="Trazado 203019" d="M251.142,478.093H234.93v-4.655h16.212V457.225H255.8v20.867Z" transform="translate(-160.77 -382.811)" fill="#161615"/>
      <g id="Grupo_148348" data-name="Grupo 148348" transform="translate(8.609 8.553)">
        <circle id="Elipse_5100" data-name="Elipse 5100" cx="2.52" cy="2.52" r="2.52" fill="#161615"/>
        <circle id="Elipse_5101" data-name="Elipse 5101" cx="2.52" cy="2.52" r="2.52" transform="translate(5.555 5.555)" fill="#161615"/>
        <circle id="Elipse_5102" data-name="Elipse 5102" cx="2.52" cy="2.52" r="2.52" transform="translate(11.11 11.11)" fill="#161615"/>
        <circle id="Elipse_5103" data-name="Elipse 5103" cx="2.52" cy="2.52" r="2.52" transform="translate(16.665 16.665)" fill="#161615"/>
        <circle id="Elipse_5104" data-name="Elipse 5104" cx="2.52" cy="2.52" r="2.52" transform="translate(22.221 22.221)" fill="#161615"/>
        <circle id="Elipse_5105" data-name="Elipse 5105" cx="2.52" cy="2.52" r="2.52" transform="translate(27.776 27.776)" fill="#161615"/>
        <circle id="Elipse_5106" data-name="Elipse 5106" cx="2.52" cy="2.52" r="2.52" transform="translate(33.331 33.331)" fill="#161615"/>
        <circle id="Elipse_5107" data-name="Elipse 5107" cx="2.52" cy="2.52" r="2.52" transform="translate(38.886 38.886)" fill="#161615"/>
        <circle id="Elipse_5108" data-name="Elipse 5108" cx="2.52" cy="2.52" r="2.52" transform="translate(44.441 44.441)" fill="#161615"/>
        <circle id="Elipse_5109" data-name="Elipse 5109" cx="2.52" cy="2.52" r="2.52" transform="translate(49.996 49.996)" fill="#161615"/>
        <circle id="Elipse_5110" data-name="Elipse 5110" cx="2.52" cy="2.52" r="2.52" transform="translate(55.551 55.551)" fill="#161615"/>
        <circle id="Elipse_5111" data-name="Elipse 5111" cx="2.52" cy="2.52" r="2.52" transform="translate(61.107 61.107)" fill="#161615"/>
        <circle id="Elipse_5112" data-name="Elipse 5112" cx="2.52" cy="2.52" r="2.52" transform="translate(72.217 72.217)" fill="#161615"/>
        <circle id="Elipse_5113" data-name="Elipse 5113" cx="2.52" cy="2.52" r="2.52" transform="translate(66.662 66.662)" fill="#161615"/>
      </g>
    </g>
    <g id="Grupo_148351" data-name="Grupo 148351" transform="translate(616.313 504.577)">
      <path id="Trazado_203020" data-name="Trazado 203020" d="M429.321,426.393v16.212h4.655V421.738H413.108v4.655Z" transform="translate(-338.949 -421.738)" fill="#161615"/>
      <path id="Trazado_203021" data-name="Trazado 203021" d="M376.058,484.455h16.212V479.8H376.058V463.587H371.4v20.867Z" transform="translate(-371.403 -389.173)" fill="#161615"/>
      <g id="Grupo_148350" data-name="Grupo 148350" transform="translate(9.161 8.553)">
        <circle id="Elipse_5114" data-name="Elipse 5114" cx="2.52" cy="2.52" r="2.52" transform="translate(72.217)" fill="#161615"/>
        <circle id="Elipse_5115" data-name="Elipse 5115" cx="2.52" cy="2.52" r="2.52" transform="translate(66.662 5.555)" fill="#161615"/>
        <circle id="Elipse_5116" data-name="Elipse 5116" cx="2.52" cy="2.52" r="2.52" transform="translate(61.107 11.11)" fill="#161615"/>
        <circle id="Elipse_5117" data-name="Elipse 5117" cx="2.52" cy="2.52" r="2.52" transform="translate(55.551 16.665)" fill="#161615"/>
        <circle id="Elipse_5118" data-name="Elipse 5118" cx="2.52" cy="2.52" r="2.52" transform="translate(49.996 22.221)" fill="#161615"/>
        <circle id="Elipse_5119" data-name="Elipse 5119" cx="2.52" cy="2.52" r="2.52" transform="translate(44.441 27.776)" fill="#161615"/>
        <circle id="Elipse_5120" data-name="Elipse 5120" cx="2.52" cy="2.52" r="2.52" transform="translate(38.886 33.331)" fill="#161615"/>
        <circle id="Elipse_5121" data-name="Elipse 5121" cx="2.52" cy="2.52" r="2.52" transform="translate(33.331 38.886)" fill="#161615"/>
        <circle id="Elipse_5122" data-name="Elipse 5122" cx="2.52" cy="2.52" r="2.52" transform="translate(27.776 44.441)" fill="#161615"/>
        <circle id="Elipse_5123" data-name="Elipse 5123" cx="2.52" cy="2.52" r="2.52" transform="translate(22.221 49.996)" fill="#161615"/>
        <circle id="Elipse_5124" data-name="Elipse 5124" cx="2.52" cy="2.52" r="2.52" transform="translate(16.665 55.551)" fill="#161615"/>
        <circle id="Elipse_5125" data-name="Elipse 5125" cx="2.52" cy="2.52" r="2.52" transform="translate(11.11 61.107)" fill="#161615"/>
        <circle id="Elipse_5126" data-name="Elipse 5126" cx="2.52" cy="2.52" r="2.52" transform="translate(0 72.217)" fill="#161615"/>
        <circle id="Elipse_5127" data-name="Elipse 5127" cx="2.52" cy="2.52" r="2.52" transform="translate(5.555 66.662)" fill="#161615"/>
      </g>
    </g>
    <path id="Trazado_203022" data-name="Trazado 203022" d="M311.791,555.08l11.464-11.464-3.292-3.292L308.5,551.788l-11.464-11.464-3.292,3.292,11.464,11.464,3.292,3.292Z" transform="translate(184.477 175.12)" fill="#161615"/>
    <path id="Trazado_203023" data-name="Trazado 203023" d="M311.791,541.364,323.255,529.9l-3.292-3.292L308.5,538.073l-11.464-11.464-3.292,3.292,11.464,11.464,3.292,3.292Z" transform="translate(184.477 164.447)" fill="#161615"/>
    <path id="Trazado_203024" data-name="Trazado 203024" d="M311.791,527.648l11.464-11.464-3.292-3.292L308.5,524.357l-11.464-11.464-3.292,3.292,11.464,11.464,3.292,3.292Z" transform="translate(184.477 153.773)" fill="#161615"/>
    <g id="Grupo_148352" data-name="Grupo 148352" transform="translate(418.681 743.361)">
      <path id="Trazado_203025" data-name="Trazado 203025" d="M263.6,559.343V670.781H420.329v-91.6l-21.611-19.833Z" transform="translate(-257.662 -553.441)" fill="#4ab7ce"/>
      <path id="Trazado_203026" data-name="Trazado 203026" d="M260.26,556.024V667.462H416.99V576.306l-22.106-20.282Z" transform="translate(-260.26 -556.024)" fill="#fff" stroke="#4ab7ce" stroke-linecap="round" stroke-linejoin="round" stroke-width="1"/>
      <path id="Trazado_203027" data-name="Trazado 203027" d="M335.969,576.306h22.106l-22.106-20.282Z" transform="translate(-201.345 -556.024)" fill="#fff" stroke="#4ab7ce" stroke-linecap="round" stroke-linejoin="round" stroke-width="1"/>
    </g>
    <circle id="Elipse_5128" data-name="Elipse 5128" cx="18.804" cy="18.804" r="18.804" transform="translate(431.747 724.557)" fill="#fff" stroke="#4ab7ce" stroke-linecap="round" stroke-linejoin="round" stroke-width="1"/>
    <text id="Aceptación" transform="translate(433.478 779.766)" fill="#161615" font-size="12" font-family="Roboto-Bold, Roboto" font-weight="700"><tspan x="0" y="0">Aceptación</tspan></text>
    <text id="En_esta_fase_se_abordan_dos_tareas_principales:_la_validación_del_sistema_y_la_entrega_del_proyecto" data-name="En esta fase se abordan
dos tareas principales: 
la validación del sistema
y la entrega del proyecto" transform="translate(433.478 801.152)" fill="#161615" font-size="10" font-family="Roboto-Regular, Roboto"><tspan x="0" y="0">En esta fase se abordan</tspan><tspan x="0" y="12">dos tareas principales: </tspan><tspan x="0" y="24">la validación del sistema</tspan><tspan x="0" y="36">y la entrega del proyecto</tspan></text>
  </g>
</svg>
