<svg xmlns="http://www.w3.org/2000/svg" width="555" height="402" viewBox="0 0 555 402">
  <g id="Grupo_172850" data-name="Grupo 172850" transform="translate(-810 -9363)">
    <rect id="Rectángulo_42499" data-name="Rectángulo 42499" width="510" height="2" transform="translate(855 9363)" fill="#4dd0e1" opacity="0.2"/>
    <rect id="Rectángulo_42500" data-name="Rectángulo 42500" width="510" height="2" transform="translate(855 9763)" fill="#4dd0e1" opacity="0.2"/>
    <rect id="Rectángulo_42501" data-name="Rectángulo 42501" width="190" height="402" transform="translate(1175 9363)" fill="#4dd0e1"/>
    <rect id="true-false-photo-2048x1439" width="544" height="384" rx="15" transform="translate(810 9372)" fill="#fff"/>
    <g id="Grupo_149144" data-name="Grupo 149144" transform="translate(651.028 9204.039)">
      <path id="Trazado_205948" data-name="Trazado 205948" d="M202.771,504.092s-36.168-28.245-10.948-95.763c14.868-39.8,65.023-33.693,62.485-105.185S298,200.489,380.872,232.937c59.807,23.417,149.484-82.536,223.62,50.658,28.593,51.371,78.632,44.715,91.954,138.66,3.641,25.678-1.821,52.564-28.8,81.837Z" transform="translate(-8.112 0)" fill="#f5fafe"/>
      <path id="Trazado_205949" data-name="Trazado 205949" d="M1443.449,649.59l4.327-3.207a1.194,1.194,0,0,1,1.242-.1q.764.391,1.571.723a20.017,20.017,0,0,0,3.02.983,1.178,1.178,0,0,1,.9.975l.854,5.563a1.156,1.156,0,0,0,1.229.982l5.134-.338a1.143,1.143,0,0,0,1.064-1.087l.219-5.178a1.148,1.148,0,0,1,.862-1.075,20.814,20.814,0,0,0,5.973-2.713,1.185,1.185,0,0,1,1.439.116l2.327,2.128a1.2,1.2,0,0,0,1.582.016l3.823-3.389a1.048,1.048,0,0,0,.2-.228,1.148,1.148,0,0,0-.035-1.336l-2.392-3.235-.584-.787a20.565,20.565,0,0,0,1.3-2.605,20.906,20.906,0,0,0,1.141-3.712,1.148,1.148,0,0,1,.953-.91l4.482-.683a1.19,1.19,0,0,0,1.007-1.257l-.258-3.926-.077-1.125a1.205,1.205,0,0,0-1.149-1.128l-4.327-.187a1.146,1.146,0,0,1-1.072-.823,20.67,20.67,0,0,0-1.718-4.069,3.588,3.588,0,0,0-.177-.327.639.639,0,0,1-.056-.112,1.174,1.174,0,0,1,.212-1.285l3.446-3.785a.861.861,0,0,0,.106-.134,1.194,1.194,0,0,0-.092-1.442l-3.373-3.817a1.188,1.188,0,0,0-1.6-.168l-4.511,3.347a1.149,1.149,0,0,1-1.3.056,20.994,20.994,0,0,0-2.853-1.436q-.8-.329-1.608-.586a1.211,1.211,0,0,1-.827-.97l-.823-5.347a1.155,1.155,0,0,0-1.218-.978l-5.079.342a1.208,1.208,0,0,0-1.13,1.155l-.175,4.1a1.186,1.186,0,0,1-.949,1.115,20.752,20.752,0,0,0-6.014,2.181,1.179,1.179,0,0,1-1.377-.16l-3.41-3.108a1.219,1.219,0,0,0-1.621-.013l-3.8,3.358a1.165,1.165,0,0,0-.164,1.572l.138.19,2.781,3.757a1.192,1.192,0,0,1,.044,1.359l0,.005a20.641,20.641,0,0,0-1.686,3.246c-.253.614-.469,1.231-.663,1.856a1.168,1.168,0,0,1-.943.825l-4.55.694a1.209,1.209,0,0,0-1.027,1.274l.338,5.058a1.3,1.3,0,0,0,.1.4,1.2,1.2,0,0,0,1.032.7l3.457.14a1.2,1.2,0,0,1,1,.633,1.3,1.3,0,0,1,.113.313,20.68,20.68,0,0,0,3.16,7.542,1.163,1.163,0,0,1,.02,1.279,1.2,1.2,0,0,1-.123.159l-2.793,3.063a1.184,1.184,0,0,0-.014,1.577l.078.089,3.284,3.723A1.205,1.205,0,0,0,1443.449,649.59Zm21.99-30.325a13.838,13.838,0,0,1,1.869,1.774,10.872,10.872,0,0,1,2.278,5.47c.014.183.021.365.03.546.348,11.036-12.5,16.251-19.954,7.9a11.273,11.273,0,0,1-2.223-4.633,7.344,7.344,0,0,1-.153-1.08,12.785,12.785,0,0,1,.446-4.322A11.155,11.155,0,0,1,1465.439,619.265Z" transform="translate(-1030.37 -315.877)" fill="#c1eff5"/>
      <path id="Trazado_205950" data-name="Trazado 205950" d="M1655.619,412.966l3.715-2.014a.936.936,0,0,1,.976.06q.55.388,1.141.735a15.727,15.727,0,0,0,2.238,1.1.924.924,0,0,1,.593.857l.05,4.416a.907.907,0,0,0,.846.9l4.026.3a.9.9,0,0,0,.947-.727l.742-4a.9.9,0,0,1,.788-.74,16.332,16.332,0,0,0,4.939-1.449.93.93,0,0,1,1.105.249l1.573,1.91a.939.939,0,0,0,1.227.187l3.344-2.211a.823.823,0,0,0,.182-.155.9.9,0,0,0,.121-1.042l-1.5-2.777-.367-.676a16.149,16.149,0,0,0,1.294-1.881,16.41,16.41,0,0,0,1.3-2.758.9.9,0,0,1,.841-.6l3.557-.036a.933.933,0,0,0,.921-.865l.233-3.078.064-.882a.946.946,0,0,0-.769-1l-3.341-.623a.9.9,0,0,1-.742-.757,16.192,16.192,0,0,0-.885-3.351,2.78,2.78,0,0,0-.1-.273.5.5,0,0,1-.031-.093.922.922,0,0,1,.306-.975l3.1-2.56a.656.656,0,0,0,.1-.092.937.937,0,0,0,.087-1.131l-2.2-3.337a.933.933,0,0,0-1.221-.307l-3.874,2.1a.9.9,0,0,1-1.016-.1,16.5,16.5,0,0,0-2.058-1.43q-.584-.344-1.185-.633a.95.95,0,0,1-.536-.845l-.049-4.245a.907.907,0,0,0-.838-.894l-3.983-.295a.948.948,0,0,0-1.006.773l-.588,3.163a.93.93,0,0,1-.86.762,16.289,16.289,0,0,0-4.913,1.031.925.925,0,0,1-1.052-.276l-2.306-2.79a.957.957,0,0,0-1.258-.189l-3.326,2.189a.915.915,0,0,0-.3,1.2l.086.163,1.745,3.226a.935.935,0,0,1-.116,1.061l0,0a16.176,16.176,0,0,0-1.668,2.335c-.264.449-.5.9-.72,1.369a.917.917,0,0,1-.824.537l-3.611.037a.949.949,0,0,0-.938.876l-.3,3.967a1.021,1.021,0,0,0,.034.325.945.945,0,0,0,.724.661l2.67.49a.944.944,0,0,1,.7.6,1.016,1.016,0,0,1,.053.256,16.223,16.223,0,0,0,1.622,6.208.914.914,0,0,1-.126,1,.954.954,0,0,1-.113.11l-2.508,2.071a.929.929,0,0,0-.185,1.223l.051.078,2.14,3.255A.946.946,0,0,0,1655.619,412.966Zm20.43-21.132a10.875,10.875,0,0,1,1.256,1.584,8.532,8.532,0,0,1,1.166,4.5c-.01.144-.024.286-.037.427a8.816,8.816,0,0,1-17.589.089,5.772,5.772,0,0,1,0-.856,10.028,10.028,0,0,1,.823-3.309A8.753,8.753,0,0,1,1676.049,391.834Z" transform="translate(-1208.04 -132.545)" fill="#c1eff5"/>
      <path id="Trazado_205951" data-name="Trazado 205951" d="M2565.185,1283.743l4.587-2.487a1.157,1.157,0,0,1,1.2.075q.679.479,1.408.908a19.451,19.451,0,0,0,2.763,1.355,1.141,1.141,0,0,1,.732,1.058l.062,5.453a1.12,1.12,0,0,0,1.044,1.11l4.971.375a1.108,1.108,0,0,0,1.169-.9l.916-4.937a1.112,1.112,0,0,1,.973-.913,20.169,20.169,0,0,0,6.1-1.789,1.148,1.148,0,0,1,1.365.307l1.942,2.358a1.16,1.16,0,0,0,1.515.231l4.129-2.73a1.025,1.025,0,0,0,.225-.191,1.112,1.112,0,0,0,.149-1.286l-1.853-3.429-.453-.835a19.921,19.921,0,0,0,1.6-2.323,20.236,20.236,0,0,0,1.6-3.4,1.111,1.111,0,0,1,1.038-.743l4.393-.045a1.152,1.152,0,0,0,1.137-1.068l.288-3.8.08-1.089a1.168,1.168,0,0,0-.949-1.239l-4.125-.769a1.11,1.11,0,0,1-.916-.935,20.01,20.01,0,0,0-1.093-4.138,3.473,3.473,0,0,0-.125-.338.574.574,0,0,1-.038-.115,1.138,1.138,0,0,1,.378-1.2l3.822-3.161a.825.825,0,0,0,.12-.114,1.158,1.158,0,0,0,.108-1.4l-2.715-4.12a1.151,1.151,0,0,0-1.508-.379l-4.784,2.6a1.113,1.113,0,0,1-1.255-.124,20.407,20.407,0,0,0-2.541-1.766q-.721-.424-1.463-.781a1.173,1.173,0,0,1-.661-1.043l-.061-5.241a1.119,1.119,0,0,0-1.035-1.1l-4.918-.364a1.17,1.17,0,0,0-1.242.954l-.726,3.906a1.149,1.149,0,0,1-1.062.941,20.107,20.107,0,0,0-6.066,1.273,1.142,1.142,0,0,1-1.3-.341l-2.848-3.446a1.181,1.181,0,0,0-1.553-.234l-4.107,2.7a1.129,1.129,0,0,0-.372,1.485l.106.2,2.155,3.983a1.155,1.155,0,0,1-.143,1.31l0,0a20.03,20.03,0,0,0-2.06,2.883c-.326.555-.617,1.117-.888,1.69a1.133,1.133,0,0,1-1.018.663l-4.459.045a1.172,1.172,0,0,0-1.159,1.082l-.365,4.9a1.259,1.259,0,0,0,.042.4,1.167,1.167,0,0,0,.894.817l3.3.605a1.165,1.165,0,0,1,.871.743,1.24,1.24,0,0,1,.065.316,20.031,20.031,0,0,0,2,7.665,1.127,1.127,0,0,1-.156,1.229,1.158,1.158,0,0,1-.139.136l-3.1,2.558a1.146,1.146,0,0,0-.228,1.51l.062.1,2.643,4.019A1.167,1.167,0,0,0,2565.185,1283.743Zm25.226-26.092a13.387,13.387,0,0,1,1.551,1.956,10.538,10.538,0,0,1,1.44,5.557c-.012.178-.029.353-.046.528-1.17,10.634-14.2,13.886-20.216,4.857a10.925,10.925,0,0,1-1.5-4.747,7.113,7.113,0,0,1,0-1.056,12.4,12.4,0,0,1,1.016-4.085A10.808,10.808,0,0,1,2590.411,1257.651Z" transform="translate(-1951.097 -838.155)" fill="#c1eff5"/>
      <path id="Trazado_205952" data-name="Trazado 205952" d="M2730.817,1115.24l2.454-1.33a.619.619,0,0,1,.645.04q.363.256.753.486a10.417,10.417,0,0,0,1.478.725.61.61,0,0,1,.392.566l.033,2.917a.6.6,0,0,0,.559.594l2.659.2a.593.593,0,0,0,.625-.48l.49-2.641a.6.6,0,0,1,.521-.489,10.781,10.781,0,0,0,3.263-.957.614.614,0,0,1,.73.164l1.039,1.261a.621.621,0,0,0,.811.124l2.209-1.46a.539.539,0,0,0,.12-.1.6.6,0,0,0,.08-.688l-.991-1.834-.243-.447a10.668,10.668,0,0,0,.855-1.243,10.832,10.832,0,0,0,.856-1.822.6.6,0,0,1,.556-.4l2.35-.024a.617.617,0,0,0,.608-.572l.154-2.033.042-.583a.625.625,0,0,0-.507-.663l-2.207-.411a.594.594,0,0,1-.49-.5,10.714,10.714,0,0,0-.585-2.214,1.9,1.9,0,0,0-.067-.181.311.311,0,0,1-.021-.062.608.608,0,0,1,.2-.644l2.045-1.691a.441.441,0,0,0,.064-.061.619.619,0,0,0,.058-.747l-1.452-2.2a.616.616,0,0,0-.807-.2l-2.559,1.389a.6.6,0,0,1-.671-.067,10.908,10.908,0,0,0-1.359-.945q-.386-.227-.783-.418a.627.627,0,0,1-.354-.558l-.032-2.8a.6.6,0,0,0-.553-.591l-2.631-.195a.626.626,0,0,0-.664.51l-.388,2.09a.615.615,0,0,1-.568.5,10.756,10.756,0,0,0-3.245.681.611.611,0,0,1-.695-.183l-1.523-1.843a.632.632,0,0,0-.831-.125l-2.2,1.446a.6.6,0,0,0-.2.794l.057.108,1.153,2.131a.617.617,0,0,1-.077.7v0a10.715,10.715,0,0,0-1.1,1.543c-.175.3-.33.6-.475.9a.605.605,0,0,1-.544.355l-2.385.024a.627.627,0,0,0-.62.579l-.2,2.62a.688.688,0,0,0,.022.214.624.624,0,0,0,.478.437l1.764.324a.623.623,0,0,1,.466.4.664.664,0,0,1,.035.169,10.715,10.715,0,0,0,1.072,4.1.6.6,0,0,1-.083.658.613.613,0,0,1-.075.073l-1.656,1.368a.613.613,0,0,0-.122.808l.033.052,1.414,2.15A.624.624,0,0,0,2730.817,1115.24Zm13.5-13.959a7.168,7.168,0,0,1,.83,1.046,5.638,5.638,0,0,1,.771,2.973c-.007.1-.016.189-.025.282a5.824,5.824,0,0,1-11.618.059,3.825,3.825,0,0,1,0-.565,6.635,6.635,0,0,1,.544-2.186A5.782,5.782,0,0,1,2744.313,1101.281Z" transform="translate(-2089.592 -717.198)" fill="#bddcf6"/>
      <path id="Trazado_205953" data-name="Trazado 205953" d="M481.181,1107.649l2.691-1.458a.678.678,0,0,1,.707.044q.4.281.826.532a11.394,11.394,0,0,0,1.621.795.669.669,0,0,1,.429.621l.036,3.2a.657.657,0,0,0,.613.651l2.916.22a.65.65,0,0,0,.685-.526l.537-2.9a.653.653,0,0,1,.571-.536,11.825,11.825,0,0,0,3.577-1.049.673.673,0,0,1,.8.18l1.139,1.383a.68.68,0,0,0,.889.136l2.422-1.6a.6.6,0,0,0,.132-.112.653.653,0,0,0,.087-.754l-1.087-2.011-.266-.49a11.662,11.662,0,0,0,.937-1.363,11.857,11.857,0,0,0,.939-2,.652.652,0,0,1,.609-.436l2.576-.026a.676.676,0,0,0,.667-.627l.169-2.229.047-.639a.685.685,0,0,0-.557-.727l-2.42-.451a.652.652,0,0,1-.537-.548,11.738,11.738,0,0,0-.641-2.427,2.078,2.078,0,0,0-.073-.2.358.358,0,0,1-.022-.067.667.667,0,0,1,.222-.706l2.242-1.854a.5.5,0,0,0,.07-.067.679.679,0,0,0,.063-.819l-1.592-2.417a.675.675,0,0,0-.884-.222l-2.806,1.522a.652.652,0,0,1-.736-.073,11.919,11.919,0,0,0-1.491-1.036q-.423-.249-.858-.458a.688.688,0,0,1-.388-.612l-.036-3.074a.657.657,0,0,0-.607-.648l-2.885-.213a.686.686,0,0,0-.728.56l-.426,2.291a.674.674,0,0,1-.623.552,11.8,11.8,0,0,0-3.558.747.67.67,0,0,1-.762-.2l-1.67-2.021a.693.693,0,0,0-.911-.137l-2.409,1.585a.663.663,0,0,0-.218.871l.062.118,1.264,2.336a.678.678,0,0,1-.084.768l0,0a11.762,11.762,0,0,0-1.208,1.691c-.191.325-.362.655-.521.991a.664.664,0,0,1-.6.389l-2.616.026a.687.687,0,0,0-.679.635l-.214,2.873a.739.739,0,0,0,.024.235.684.684,0,0,0,.524.479l1.934.355a.683.683,0,0,1,.511.436.729.729,0,0,1,.038.185,11.752,11.752,0,0,0,1.175,4.5.662.662,0,0,1-.091.721.676.676,0,0,1-.082.08l-1.816,1.5a.673.673,0,0,0-.134.886l.037.057,1.55,2.357A.685.685,0,0,0,481.181,1107.649Zm14.8-15.3a7.855,7.855,0,0,1,.91,1.147,6.178,6.178,0,0,1,.845,3.259c-.007.1-.017.207-.027.309a6.385,6.385,0,0,1-12.739.065,4.138,4.138,0,0,1,0-.62,7.265,7.265,0,0,1,.6-2.4A6.34,6.34,0,0,1,495.978,1092.344Z" transform="translate(-248.459 -709.109)" fill="#c1eff5"/>
      <path id="Trazado_205954" data-name="Trazado 205954" d="M1775.181,633.9l6.916-4.95a1.885,1.885,0,0,1,1.963-.123q1.2.637,2.461,1.183a31.645,31.645,0,0,0,4.743,1.632,1.86,1.86,0,0,1,1.4,1.563l1.2,8.806a1.826,1.826,0,0,0,1.914,1.584l8.116-.4a1.805,1.805,0,0,0,1.709-1.688l.483-8.17a1.812,1.812,0,0,1,1.389-1.674,32.857,32.857,0,0,0,9.5-4.127,1.872,1.872,0,0,1,2.27.221l3.618,3.421a1.89,1.89,0,0,0,2.5.067l6.126-5.25a1.651,1.651,0,0,0,.325-.355,1.814,1.814,0,0,0-.019-2.11l-3.692-5.17-.9-1.259a32.539,32.539,0,0,0,2.114-4.08,32.979,32.979,0,0,0,1.9-5.831,1.813,1.813,0,0,1,1.529-1.412l7.095-.961a1.879,1.879,0,0,0,1.623-1.958l-.3-6.205-.092-1.778a1.9,1.9,0,0,0-1.785-1.811l-6.827-.409a1.81,1.81,0,0,1-1.671-1.327,32.615,32.615,0,0,0-2.6-6.47,5.78,5.78,0,0,0-.271-.521,1,1,0,0,1-.085-.178,1.855,1.855,0,0,1,.368-2.024l5.541-5.886a1.4,1.4,0,0,0,.171-.209,1.887,1.887,0,0,0-.108-2.28l-5.224-6.115a1.876,1.876,0,0,0-2.515-.307l-7.211,5.166a1.814,1.814,0,0,1-2.054.053,33.183,33.183,0,0,0-4.467-2.342q-1.252-.541-2.523-.967a1.912,1.912,0,0,1-1.281-1.553l-1.159-8.464a1.825,1.825,0,0,0-1.9-1.576l-8.028.407a1.907,1.907,0,0,0-1.815,1.794l-.384,6.464a1.873,1.873,0,0,1-1.527,1.736,32.766,32.766,0,0,0-9.553,3.286,1.861,1.861,0,0,1-2.169-.289l-5.3-5a1.926,1.926,0,0,0-2.56-.063l-6.095,5.2a1.84,1.84,0,0,0-.3,2.477l.213.3,4.291,6a1.882,1.882,0,0,1,.034,2.147l0,.009a32.588,32.588,0,0,0-2.748,5.08c-.415.963-.772,1.931-1.1,2.913a1.845,1.845,0,0,1-1.511,1.278l-7.2.976a1.909,1.909,0,0,0-1.654,1.984l.4,8a2.055,2.055,0,0,0,.148.64,1.9,1.9,0,0,0,1.61,1.139l5.454.312a1.9,1.9,0,0,1,1.558,1.026,2.032,2.032,0,0,1,.17.5,32.653,32.653,0,0,0,4.791,11.991,1.837,1.837,0,0,1,0,2.02,1.887,1.887,0,0,1-.2.248L1767.489,625a1.869,1.869,0,0,0-.063,2.489l.12.143,5.087,5.964A1.9,1.9,0,0,0,1775.181,633.9Zm35.517-47.3a21.853,21.853,0,0,1,2.9,2.85,17.172,17.172,0,0,1,3.454,8.7c.016.29.024.576.032.862.26,17.434-20.156,25.331-31.713,11.947a17.813,17.813,0,0,1-3.388-7.374,11.61,11.61,0,0,1-.213-1.709,20.2,20.2,0,0,1,.817-6.813A17.616,17.616,0,0,1,1810.7,586.591Z" transform="translate(-1297.013 -280.41)" fill="#c1eff5"/>
      <path id="Trazado_205955" data-name="Trazado 205955" d="M668.962,855.726c2.164-10.979,20.583-8.885,20.583-8.885s13.666,17.992,17.289,18.19-8.68-17.665-8.68-17.665c6.912-1.161,25.243,6.129,25.243,6.129s.417,22.078,3.977,21.378-1.367-19.53-1.367-19.53c6.876,1.549,13.711,8.966,13.711,8.966,8.752,12.246-7.424,22.852-7.424,22.852a35.9,35.9,0,0,0,5.636,16.073h0a26.035,26.035,0,0,1,2.451,4.214l-1.836.128q-.277-.723-.6-1.39a.011.011,0,0,0,0-.008l-.009-.019c-.146-.275-.355-.666-.614-1.142v0s0,0,0,0c-.638-1.059-1.073-1.843-1.354-2.412l0-.005c-1.922-3.329-4.657-7.651-6.338-8.48a3.569,3.569,0,0,0,.334-.87l-.334.87c-2.671,6.955-18.307,9.177-27.187,7.993s-5.237-3.92-.8-8.257,14.385-3.972,17.193-5.748-1.567-3.048-7.372-2.191-8.315,6.9-17.68,8.456-17.79-15.674-17.79-15.674c6.651,1.565,18.073-2.844,18.365-5.12s-16.978-.842-19.719-1.327S666.8,866.705,668.962,855.726Z" transform="translate(-405.425 -516.916)" fill="#c1eff5"/>
      <path id="Trazado_205956" data-name="Trazado 205956" d="M1443.4,1121.344l-9.742,115.835s-1.021,7.022,4.2,7.034c8.587.02,42.743,0,42.743,0s-6.463-1.462-6.385-4.75c.092-3.876,11.386-119.215,11.386-119.215Z" transform="translate(-1031.514 -740.766)" fill="#759be0"/>
      <path id="Trazado_205957" data-name="Trazado 205957" d="M1496.019,1232.649c-1.689,0-34.312.107-42.675,0-3.645-.046-4.284-3.241-4.314-5.309a10.364,10.364,0,0,1,.111-1.724l.253-3.011.646-7.674.57-6.779.733-8.712.617-7.353,6.922-82.309,42.205-1.1s-4.756,48.269-8.121,83.4c-.376,3.915-.733,7.668-1.063,11.172q-.161,1.678-.31,3.277c-.312,3.324-.6,6.377-.845,9.072-.131,1.421-.252,2.741-.36,3.95-.43,4.738-.681,7.764-.684,8.34a4.849,4.849,0,0,0,.082.938C1490.477,1232.528,1495.385,1232.649,1496.019,1232.649Z" transform="translate(-1044.155 -731.303)" fill="#bddcf6"/>
      <path id="Trazado_205958" data-name="Trazado 205958" d="M923.631,779.435l23.73,95.318,3.249,13.054,11.052,44.4h205.333l-40.737-152.768Z" transform="translate(-614.239 -461.89)" fill="#bddcf6"/>
      <path id="Trazado_205959" data-name="Trazado 205959" d="M908.821,779.434l-3.289,1.1,36.948,154.989,4.372-3.316Z" transform="translate(-599.43 -461.889)" fill="#759be0"/>
      <path id="Trazado_205960" data-name="Trazado 205960" d="M1108.842,1623.375h204.069l5.635-3.316H1113.215Z" transform="translate(-765.792 -1149.746)" fill="#759be0"/>
      <rect id="Rectángulo_44800" data-name="Rectángulo 44800" width="44.184" height="2.1" transform="translate(458.897 503.492) rotate(180)" fill="#bddcf6"/>
      <path id="Trazado_205961" data-name="Trazado 205961" d="M1496.373,1638.3l-.228,1.605-41.553,8.395.57-6.779.272-3.22Z" transform="translate(-1048.707 -1164.67)" fill="#759be0" opacity="0.7"/>
      <path id="Trazado_205962" data-name="Trazado 205962" d="M1496.025,1731.878c-1.689,0-34.312.107-42.675,0-3.645-.045-4.284-3.241-4.314-5.309l41.357-7.781c-.43,4.738-.681,7.764-.684,8.34a4.848,4.848,0,0,0,.082.938C1490.483,1731.757,1495.391,1731.878,1496.025,1731.878Z" transform="translate(-1044.161 -1230.532)" fill="#94b0ed"/>
      <path id="Trazado_205963" data-name="Trazado 205963" d="M1173.336,1389.232l-90.2,30.927-11.053-44.4Z" transform="translate(-735.714 -949.845)" fill="#94b0ed"/>
      <path id="Trazado_205964" data-name="Trazado 205964" d="M923.629,779.434h202.627l32.628,122.778H954.206Z" transform="translate(-614.238 -461.889)" fill="#e8f3fc"/>
      <path id="Trazado_205965" data-name="Trazado 205965" d="M968.566,803.435l29.107,111.844H1185.84l-29.428-110.556Z" transform="translate(-651.008 -481.529)" fill="#bddcf6"/>
      <rect id="Rectángulo_44801" data-name="Rectángulo 44801" width="71.174" height="44.908" transform="translate(385.672 388.838)" fill="#ed7d2b"/>
      <rect id="Rectángulo_44802" data-name="Rectángulo 44802" width="71.173" height="44.907" transform="translate(421.26 388.839)" fill="#feca2e"/>
      <path id="Trazado_205966" data-name="Trazado 205966" d="M1379.147,1178.363l-15,15H1343.6v-21.637h35.545Z" transform="translate(-957.888 -782.891)" fill="#e06d20"/>
      <path id="Trazado_205967" data-name="Trazado 205967" d="M1271.324,1171.729l-16,15.441h35.609l15.979-15.441Z" transform="translate(-885.651 -782.891)" fill="#feca2e"/>
      <path id="Trazado_205968" data-name="Trazado 205968" d="M1610.364,1173.327l-71.173-1.591v5.689h0v.93l13.233,14.51h57.94v-14.443l-.367-.431h.367Z" transform="translate(-1117.932 -782.897)" fill="#ed7d2b"/>
      <path id="Trazado_205969" data-name="Trazado 205969" d="M1539.191,1171.729l14.083,15.441h70.232l-13.141-15.441Z" transform="translate(-1117.932 -782.891)" fill="#feca2e"/>
      <path id="Trazado_205970" data-name="Trazado 205970" d="M769.79,1116.179s.495-5.393-5.531-5.393a7.08,7.08,0,0,1,2.771,1.486s-3.843-2.256-8.026,1.211-1.584,12.162-2.856,13.813-6.225,1.981-5.619,7.319,15.719,12.024,14.749,16.441c0,0,5.923-8.707,1.688-12.68a7.849,7.849,0,0,1,2.275,4.256s.56-4.513-2.311-5.956c-2.541-1.277-4.623-5.949-4.4-6.784S769.79,1116.179,769.79,1116.179Z" transform="translate(-472.554 -733.024)" fill="#2c3a64"/>
      <path id="Trazado_205971" data-name="Trazado 205971" d="M795.357,1282.945s4.5,18.624,8.921,22.347c2.656,2.238,10.554,7.373,10.554,7.373l-3.285,1.192s-10.954-3.7-13.407-6.583-9.167-17.332-9.167-17.332Z" transform="translate(-504.053 -873.896)" fill="#ffb27d"/>
      <g id="Grupo_149130" data-name="Grupo 149130" transform="translate(289.752 438.308)">
        <path id="Trazado_205972" data-name="Trazado 205972" d="M843.027,1451.212l-1.058-2.62a7.431,7.431,0,0,0-6.89-4.648H815.563v65.25h80.73v-52.867H850.609A8.177,8.177,0,0,1,843.027,1451.212Z" transform="translate(-815.563 -1443.944)" fill="#feca2e"/>
        <g id="Grupo_149129" data-name="Grupo 149129" transform="translate(12.177 22.125)">
          <path id="Trazado_205973" data-name="Trazado 205973" d="M882.569,1608.569v-4.7l16.5-7.226v4.806l-11.521,4.738,11.521,4.738v4.874Z" transform="translate(-882.569 -1591.015)" fill="#fff"/>
          <path id="Trazado_205974" data-name="Trazado 205974" d="M999.7,1565.691h4.4l-15.1,31.563h-4.4Z" transform="translate(-966.054 -1565.691)" fill="#fff"/>
          <path id="Trazado_205975" data-name="Trazado 205975" d="M1118.5,1603.865v4.7l-16.5,7.226v-4.806l11.521-4.738L1102,1601.513v-4.874Z" transform="translate(-1062.125 -1591.015)" fill="#fff"/>
        </g>
      </g>
      <path id="Trazado_205976" data-name="Trazado 205976" d="M578.656,1383.715c.04.071.082.145.124.219.985,1.712,3.245,5.908,5.734,10.5,1.177,2.178,2.41,4.446,3.579,6.579,2.015,3.682,3.848,6.962,4.918,8.695,1.088,1.762,1.889,3,2.212,3.5l0,0a.821.821,0,0,1,.105.511,26.7,26.7,0,0,0,.071,4.617,35.421,35.421,0,0,0,11.573,22.941l2.995.443s-4.238-15.7-5.486-24.577a17.05,17.05,0,0,1-.229-3.519,36.767,36.767,0,0,0-.967-9.606,215.208,215.208,0,0,0-6.124-22.235c-.14-.434-4.351-15.669-4.351-15.669-3.535,3.089-16.428,4.365-16.428,4.365S574.2,1375.79,578.656,1383.715Z" transform="translate(-329.662 -941.947)" fill="#2f539b"/>
      <path id="Trazado_205977" data-name="Trazado 205977" d="M741.6,1771.676H729.1a6.861,6.861,0,0,1,.353-3.35c.625-1.387,1.517-1.431.114-3.6.794.818,3.347,1.156,5.154.913.221.359,1.427,2.767,2.167,3.3C737.71,1769.519,741.352,1769.31,741.6,1771.676Z" transform="translate(-455.009 -1268.117)" fill="#233862"/>
      <path id="Trazado_205978" data-name="Trazado 205978" d="M591.293,1429.8c.04.071.082.145.124.219.985,1.712,6.313,11.552,8.8,16.143a66.561,66.561,0,0,1-.878-23.732Z" transform="translate(-342.298 -988.032)" fill="#233862"/>
      <path id="Trazado_205979" data-name="Trazado 205979" d="M803.479,1135.894c.082-.328-7.139,3.263-7.5,3.669-3.386,3.756-2.421,8.658-.483,8.705,1.243.03,1,2.1,1,2.1l13.844-5.857S808.67,1134.789,803.479,1135.894Z" transform="translate(-507.947 -753.497)" fill="#2c3a64"/>
      <path id="Trazado_205980" data-name="Trazado 205980" d="M788.965,1267.556s2.107,4.208,1.844,7.624c0,0-2.54,4.01-9.129,5.025C781.68,1280.2,787.344,1267.553,788.965,1267.556Z" transform="translate(-498.086 -861.304)" fill="#feca2e"/>
      <path id="Trazado_205981" data-name="Trazado 205981" d="M503.652,1359.66l.042-2.338c-4.657.587-16.059-5.566-16.059-5.566s-4.873,3.241-5.54,12.5c-.326,4.517-2.385,23.622-2.613,29.327-.083,2.068-.111,3.543-.12,4.133a.01.01,0,0,1,0,.006.813.813,0,0,1-.2.481,26.708,26.708,0,0,0-2.524,3.869c-7.107,13.223-3.391,31.191-3.391,31.191l1.65-.42s6.009-18.626,9.937-26.683a16.863,16.863,0,0,1,1.779-3.045,36.755,36.755,0,0,0,4.569-8.505C494.086,1387.675,503.652,1359.66,503.652,1359.66Z" transform="translate(-244.913 -930.202)" fill="#2f539b"/>
      <path id="Trazado_205982" data-name="Trazado 205982" d="M475.73,1771.27h-12.5a6.862,6.862,0,0,1,.353-3.35c.626-1.387,1.605-2.017,1.371-3.695a4.5,4.5,0,0,0,3.9,1.49,13.721,13.721,0,0,0,2.169,2.811C471.836,1769.113,475.478,1768.9,475.73,1771.27Z" transform="translate(-237.453 -1267.711)" fill="#233862"/>
      <path id="Trazado_205983" data-name="Trazado 205983" d="M594.567,1250.994c-1.679.286.274,1.621-2.035,1.872-3.286.359-6.68.6-8.457,1.313a1.91,1.91,0,0,0-1.217.986c-.77,2.317-5.65,6.3-5.65,6.3-21.764-.991-23.166-10.691-23.166-10.691,14.125-13.719,26.142-21.2,36.074-22.122a17.671,17.671,0,0,1,7.2.758c3.473,1.546,5.377,6.253,5.377,6.253S600.946,1249.905,594.567,1250.994Z" transform="translate(-311.816 -829.408)" fill="#feca2e"/>
      <path id="Trazado_205984" data-name="Trazado 205984" d="M727.442,1282.505c-3.286.359-6.68.6-8.457,1.313a34.66,34.66,0,0,1,4.4-19.019S726.722,1278.4,727.442,1282.505Z" transform="translate(-446.726 -859.047)" fill="#ed7d2b"/>
      <path id="Trazado_205985" data-name="Trazado 205985" d="M736.233,1254.644s-8.265-.452-9.733,4.737,2.755,25.9,3.665,28.038c1.657,3.892,9.725,15,9.725,15l2.967-.9s-5.379-16.969-6.58-18.648C734.391,1280.232,738.707,1256.9,736.233,1254.644Z" transform="translate(-452.682 -850.73)" fill="#ffb27d"/>
      <path id="Trazado_205986" data-name="Trazado 205986" d="M803.463,1510.978a4.672,4.672,0,0,0,.709,2c.556.679,2.174,2.323,2.2,3.285,0,0-.082.427-.428.349s-1.552-1.271-2.17-1.185a11.975,11.975,0,0,0,.657,2.471,7.074,7.074,0,0,1-.129,3.315c-.2.469-2.607-2.516-3.6-3.849s-.016-6.743-.016-6.743Z" transform="translate(-513.289 -1060.192)" fill="#ffb27d"/>
      <path id="Trazado_205987" data-name="Trazado 205987" d="M718.914,1259.419c.022.122,7.821,1.435,12.7-1.041,0,0,4.076-12.767-1.748-12.157s-9.273,2.445-9.419,5.234A53.653,53.653,0,0,1,718.914,1259.419Z" transform="translate(-446.726 -843.829)" fill="#feca2e"/>
      <path id="Trazado_205988" data-name="Trazado 205988" d="M790.957,1215.639c.621,1.946,2.692,7.491,5.563,5.357a7.081,7.081,0,0,1,1.217-2.839c.909-1.562,1.991-3.158,1.991-3.158l-4.678-4.1-.279-.245a11.92,11.92,0,0,1-3.48,3.951A.933.933,0,0,0,790.957,1215.639Z" transform="translate(-505.641 -814.743)" fill="#ffb27d"/>
      <path id="Trazado_205989" data-name="Trazado 205989" d="M817.968,1216.1s-1.081,1.593-1.99,3.157c-2.908-1.792-2.911-5.392-2.687-7.257Z" transform="translate(-523.881 -815.846)" fill="#ed985f"/>
      <path id="Trazado_205990" data-name="Trazado 205990" d="M817.225,1180.519s-7.06-3.928-4.546-8.287,3.3-7.8,7.91-5.478,4.522,4.488,4.037,6.146S819.127,1181.428,817.225,1180.519Z" transform="translate(-523.009 -778.209)" fill="#ffb27d"/>
      <path id="Trazado_205991" data-name="Trazado 205991" d="M822.478,1167.7c-.323-1.935-1.306-2.12-1.992-1.991a5.646,5.646,0,0,0-6.867-2.629,9.613,9.613,0,0,1-5.564,3.342s.819,1.524,4.195,2.468a5.769,5.769,0,0,0,3.33-.266,18.837,18.837,0,0,1-4.791,1.806c4.448.407,8.68-3.659,9.119-4.094a6.33,6.33,0,0,1,.35,2.914c-.293,1.311-1.456,3.685-.746,3.992C819.512,1173.242,822.963,1170.6,822.478,1167.7Z" transform="translate(-519.667 -775.55)" fill="#2c3a64"/>
      <path id="Trazado_205992" data-name="Trazado 205992" d="M933.693,1445.928s-1.97,1.478-.485,2.444,4.135,1.227,4.146.593C937.39,1446.838,936.329,1445.325,933.693,1445.928Z" transform="translate(-621.622 -1007.15)" fill="#ffb27d"/>
      <rect id="Rectángulo_44803" data-name="Rectángulo 44803" width="507.345" height="1.201" rx="0.6" transform="translate(172.972 503.492)" fill="#2e3552"/>
      <path id="Trazado_205993" data-name="Trazado 205993" d="M1094.995,992.65c-.229-.946.185-1.688,1.062-1.69a2.063,2.063,0,0,1,1.87,1.685c.229.946-.181,1.688-1.062,1.69A2.054,2.054,0,0,1,1094.995,992.65Zm2.187,0c-.143-.592-.544-1.039-.977-1.038s-.612.435-.465,1.041.539,1.039.977,1.038S1097.327,993.247,1097.182,992.646Z" transform="translate(-754.41 -634.974)" fill="#feca2e"/>
      <path id="Trazado_205994" data-name="Trazado 205994" d="M1021.807,862.056l-.541.141-.293-.587.879-.281h.495l.8,3.286h-.716Z" transform="translate(-693.891 -528.901)" fill="#94b0ed"/>
      <path id="Trazado_205995" data-name="Trazado 205995" d="M1039.431,862.81c-.229-.946.185-1.688,1.062-1.69a2.063,2.063,0,0,1,1.87,1.685c.229.946-.181,1.688-1.062,1.69A2.054,2.054,0,0,1,1039.431,862.81Zm2.187,0c-.143-.592-.544-1.039-.978-1.038s-.611.435-.464,1.041.539,1.039.977,1.038S1041.763,863.407,1041.618,862.806Z" transform="translate(-708.944 -528.73)" fill="#94b0ed"/>
      <path id="Trazado_205996" data-name="Trazado 205996" d="M1353.691,861.453l-.541.141-.293-.587.88-.281h.495l.8,3.286h-.716Z" transform="translate(-965.461 -528.407)" fill="#94b0ed"/>
      <path id="Trazado_205997" data-name="Trazado 205997" d="M1371.316,862.207c-.229-.946.185-1.688,1.062-1.69a2.063,2.063,0,0,1,1.869,1.685c.229.946-.181,1.688-1.062,1.69A2.054,2.054,0,0,1,1371.316,862.207Zm2.187,0c-.143-.592-.544-1.039-.977-1.038s-.611.435-.465,1.041.539,1.039.977,1.038S1373.648,862.8,1373.5,862.2Z" transform="translate(-980.514 -528.237)" fill="#94b0ed"/>
      <path id="Trazado_205998" data-name="Trazado 205998" d="M1395.431,862.166c-.229-.946.185-1.688,1.062-1.69a2.062,2.062,0,0,1,1.869,1.685c.229.946-.18,1.688-1.062,1.69A2.054,2.054,0,0,1,1395.431,862.166Zm2.187,0c-.143-.592-.544-1.039-.978-1.038s-.611.435-.464,1.041.539,1.039.977,1.038S1397.763,862.763,1397.617,862.162Z" transform="translate(-1000.247 -528.203)" fill="#94b0ed"/>
      <path id="Trazado_205999" data-name="Trazado 205999" d="M1518.764,862.207c-.229-.946.185-1.688,1.062-1.69a2.062,2.062,0,0,1,1.869,1.685c.229.946-.18,1.688-1.062,1.69A2.054,2.054,0,0,1,1518.764,862.207Zm2.186,0c-.143-.592-.544-1.039-.977-1.038s-.611.435-.464,1.041.539,1.039.977,1.038S1521.1,862.8,1520.95,862.2Z" transform="translate(-1101.166 -528.237)" fill="#94b0ed"/>
      <path id="Trazado_206000" data-name="Trazado 206000" d="M1542.878,862.166c-.229-.946.185-1.688,1.062-1.69a2.063,2.063,0,0,1,1.869,1.685c.229.946-.18,1.688-1.062,1.69A2.054,2.054,0,0,1,1542.878,862.166Zm2.187,0c-.143-.592-.544-1.039-.978-1.038s-.611.435-.464,1.041.539,1.039.978,1.038S1545.21,862.763,1545.065,862.162Z" transform="translate(-1120.898 -528.203)" fill="#94b0ed"/>
      <path id="Trazado_206001" data-name="Trazado 206001" d="M1566.994,862.125c-.229-.946.185-1.688,1.062-1.69a2.062,2.062,0,0,1,1.869,1.685c.229.946-.18,1.688-1.062,1.69A2.054,2.054,0,0,1,1566.994,862.125Zm2.187,0c-.143-.592-.544-1.039-.978-1.038s-.611.435-.465,1.041.539,1.039.977,1.038S1569.326,862.722,1569.18,862.121Z" transform="translate(-1140.631 -528.17)" fill="#94b0ed"/>
      <path id="Trazado_206002" data-name="Trazado 206002" d="M1734.646,861.715c-.229-.946.185-1.688,1.062-1.69a2.063,2.063,0,0,1,1.87,1.685c.229.946-.181,1.688-1.062,1.69A2.053,2.053,0,0,1,1734.646,861.715Zm2.186,0c-.143-.592-.544-1.039-.977-1.038s-.611.435-.465,1.041.539,1.039.977,1.038S1736.978,862.312,1736.832,861.711Z" transform="translate(-1277.815 -527.834)" fill="#94b0ed"/>
      <path id="Trazado_206003" data-name="Trazado 206003" d="M1757.724,861.676c-.229-.946.185-1.688,1.062-1.69a2.063,2.063,0,0,1,1.869,1.685c.229.946-.18,1.688-1.062,1.69A2.054,2.054,0,0,1,1757.724,861.676Zm2.187,0c-.143-.592-.544-1.039-.977-1.038s-.611.435-.464,1.041.539,1.039.977,1.038S1760.056,862.273,1759.911,861.672Z" transform="translate(-1296.699 -527.802)" fill="#94b0ed"/>
      <path id="Trazado_206004" data-name="Trazado 206004" d="M1782.825,861.634c-.229-.946.185-1.688,1.062-1.69a2.063,2.063,0,0,1,1.869,1.685c.229.946-.18,1.688-1.062,1.69A2.054,2.054,0,0,1,1782.825,861.634Zm2.187,0c-.143-.592-.544-1.039-.978-1.038s-.611.435-.464,1.041.539,1.039.977,1.038S1785.157,862.231,1785.011,861.63Z" transform="translate(-1317.239 -527.768)" fill="#94b0ed"/>
      <path id="Trazado_206005" data-name="Trazado 206005" d="M1823.821,861.565c-.229-.946.185-1.688,1.062-1.69a2.062,2.062,0,0,1,1.869,1.685c.229.946-.18,1.688-1.062,1.69A2.054,2.054,0,0,1,1823.821,861.565Zm2.187,0c-.143-.592-.544-1.039-.977-1.038s-.611.435-.465,1.041.539,1.039.977,1.038S1826.153,862.162,1826.008,861.561Z" transform="translate(-1350.785 -527.712)" fill="#94b0ed"/>
      <path id="Trazado_206006" data-name="Trazado 206006" d="M1846.312,860.744l-.541.141-.293-.587.879-.281h.495l.8,3.286h-.716Z" transform="translate(-1368.557 -527.827)" fill="#94b0ed"/>
      <path id="Trazado_206007" data-name="Trazado 206007" d="M1863.935,861.5c-.229-.946.185-1.688,1.062-1.69a2.063,2.063,0,0,1,1.869,1.685c.229.946-.181,1.688-1.062,1.69A2.054,2.054,0,0,1,1863.935,861.5Zm2.186,0c-.143-.592-.544-1.039-.977-1.038s-.611.435-.465,1.041.539,1.039.977,1.038S1866.268,862.1,1866.122,861.494Z" transform="translate(-1383.609 -527.657)" fill="#94b0ed"/>
      <path id="Trazado_206008" data-name="Trazado 206008" d="M1904.121,861.389c-.229-.946.185-1.688,1.062-1.69a2.062,2.062,0,0,1,1.869,1.685c.229.946-.181,1.688-1.062,1.69A2.054,2.054,0,0,1,1904.121,861.389Zm2.187,0c-.143-.592-.544-1.039-.978-1.038s-.612.435-.465,1.041.539,1.039.977,1.038S1906.453,861.986,1906.308,861.385Z" transform="translate(-1416.491 -527.568)" fill="#94b0ed"/>
      <path id="Trazado_206009" data-name="Trazado 206009" d="M1208.678,901.623c-.229-.946.185-1.688,1.062-1.69a2.062,2.062,0,0,1,1.869,1.685c.229.946-.181,1.688-1.062,1.69A2.054,2.054,0,0,1,1208.678,901.623Zm2.187,0c-.143-.592-.544-1.039-.977-1.038s-.611.435-.464,1.041.539,1.039.977,1.038S1211.01,902.22,1210.865,901.619Z" transform="translate(-847.433 -560.49)" fill="#94b0ed"/>
      <path id="Trazado_206010" data-name="Trazado 206010" d="M1232.794,901.583c-.229-.946.185-1.688,1.062-1.69a2.062,2.062,0,0,1,1.869,1.685c.229.946-.18,1.688-1.062,1.69A2.054,2.054,0,0,1,1232.794,901.583Zm2.187,0c-.143-.592-.544-1.039-.977-1.038s-.611.435-.465,1.041.539,1.039.977,1.038S1235.126,902.18,1234.98,901.579Z" transform="translate(-867.166 -560.457)" fill="#94b0ed"/>
      <path id="Trazado_206011" data-name="Trazado 206011" d="M1833.284,900.647c-.229-.946.185-1.688,1.062-1.69a2.063,2.063,0,0,1,1.869,1.685c.229.946-.181,1.688-1.062,1.69A2.053,2.053,0,0,1,1833.284,900.647Zm2.186,0c-.143-.592-.544-1.039-.977-1.038s-.611.434-.465,1.04.539,1.039.977,1.038S1835.616,901.244,1835.471,900.643Z" transform="translate(-1358.528 -559.691)" fill="#94b0ed"/>
      <path id="Trazado_206012" data-name="Trazado 206012" d="M1855.774,899.826l-.541.141-.293-.587.879-.281h.5l.8,3.286h-.716Z" transform="translate(-1376.299 -559.806)" fill="#94b0ed"/>
      <path id="Trazado_206013" data-name="Trazado 206013" d="M1873.4,900.58c-.229-.946.185-1.688,1.062-1.69a2.063,2.063,0,0,1,1.869,1.685c.229.946-.18,1.688-1.062,1.69A2.053,2.053,0,0,1,1873.4,900.58Zm2.186,0c-.143-.592-.544-1.039-.977-1.038s-.611.435-.465,1.041.539,1.039.978,1.038S1875.731,901.177,1875.585,900.576Z" transform="translate(-1391.352 -559.636)" fill="#94b0ed"/>
      <path id="Trazado_206014" data-name="Trazado 206014" d="M1961.815,900.39c-.229-.946.185-1.688,1.062-1.69a2.063,2.063,0,0,1,1.869,1.685c.229.946-.181,1.688-1.062,1.69A2.054,2.054,0,0,1,1961.815,900.39Zm2.187,0c-.143-.592-.544-1.039-.977-1.038s-.611.435-.465,1.041.539,1.039.977,1.038S1964.147,900.987,1964,900.386Z" transform="translate(-1463.701 -559.481)" fill="#94b0ed"/>
      <path id="Trazado_206015" data-name="Trazado 206015" d="M1984.306,899.569l-.541.141-.293-.587.879-.281h.495l.8,3.286h-.716Z" transform="translate(-1481.473 -559.596)" fill="#94b0ed"/>
      <path id="Trazado_206016" data-name="Trazado 206016" d="M1188.391,1112.625c-.229-.946.185-1.688,1.062-1.69a2.063,2.063,0,0,1,1.869,1.685c.229.946-.181,1.688-1.062,1.69A2.054,2.054,0,0,1,1188.391,1112.625Zm2.187,0c-.143-.592-.544-1.039-.977-1.038s-.611.435-.464,1.041.539,1.039.977,1.038S1190.723,1113.223,1190.578,1112.621Z" transform="translate(-830.833 -733.146)" fill="#94b0ed"/>
      <path id="Trazado_206017" data-name="Trazado 206017" d="M1212.506,1112.585c-.229-.946.185-1.688,1.062-1.69a2.062,2.062,0,0,1,1.87,1.685c.229.946-.181,1.688-1.062,1.69A2.054,2.054,0,0,1,1212.506,1112.585Zm2.187,0c-.143-.592-.544-1.039-.977-1.038s-.611.435-.465,1.041.539,1.039.977,1.038S1214.838,1113.182,1214.692,1112.581Z" transform="translate(-850.565 -733.113)" fill="#94b0ed"/>
      <path id="Trazado_206018" data-name="Trazado 206018" d="M1235,1111.763l-.541.141-.293-.587.88-.281h.495l.8,3.286h-.716Z" transform="translate(-868.337 -733.228)" fill="#94b0ed"/>
      <path id="Trazado_206019" data-name="Trazado 206019" d="M1276.736,1112.476c-.229-.946.185-1.688,1.062-1.69a2.063,2.063,0,0,1,1.87,1.685c.229.946-.181,1.688-1.062,1.69A2.054,2.054,0,0,1,1276.736,1112.476Zm2.187,0c-.143-.592-.544-1.039-.978-1.038s-.611.435-.464,1.04.539,1.039.977,1.038S1279.068,1113.073,1278.922,1112.472Z" transform="translate(-903.123 -733.024)" fill="#94b0ed"/>
      <path id="Trazado_206020" data-name="Trazado 206020" d="M1300.852,1112.435c-.229-.946.185-1.688,1.062-1.69a2.063,2.063,0,0,1,1.87,1.685c.229.946-.181,1.688-1.062,1.69A2.054,2.054,0,0,1,1300.852,1112.435Zm2.187,0c-.143-.592-.544-1.039-.978-1.038s-.611.435-.464,1.041.539,1.039.977,1.038S1303.184,1113.032,1303.038,1112.431Z" transform="translate(-922.856 -732.99)" fill="#94b0ed"/>
      <path id="Trazado_206021" data-name="Trazado 206021" d="M1324.968,1112.395c-.229-.946.185-1.688,1.062-1.69a2.062,2.062,0,0,1,1.869,1.685c.229.946-.18,1.688-1.062,1.689A2.053,2.053,0,0,1,1324.968,1112.395Zm2.186,0c-.143-.592-.544-1.039-.977-1.038s-.611.435-.465,1.041.539,1.039.978,1.038S1327.3,1112.992,1327.154,1112.391Z" transform="translate(-942.589 -732.957)" fill="#94b0ed"/>
      <path id="Trazado_206022" data-name="Trazado 206022" d="M1626.026,1112.625c-.229-.946.185-1.688,1.062-1.69a2.063,2.063,0,0,1,1.87,1.685c.229.946-.181,1.688-1.062,1.69A2.054,2.054,0,0,1,1626.026,1112.625Zm2.186,0c-.143-.592-.544-1.039-.977-1.038s-.611.435-.465,1.041.539,1.039.977,1.038S1628.358,1113.223,1628.212,1112.621Z" transform="translate(-1188.935 -733.146)" fill="#94b0ed"/>
      <path id="Trazado_206023" data-name="Trazado 206023" d="M1650.14,1112.585c-.229-.946.185-1.688,1.062-1.69a2.062,2.062,0,0,1,1.87,1.685c.229.946-.18,1.688-1.062,1.69A2.053,2.053,0,0,1,1650.14,1112.585Zm2.187,0c-.143-.592-.544-1.039-.978-1.038s-.611.435-.465,1.041.539,1.039.978,1.038S1652.472,1113.182,1652.326,1112.581Z" transform="translate(-1208.667 -733.113)" fill="#94b0ed"/>
      <path id="Trazado_206024" data-name="Trazado 206024" d="M1672.63,1111.763l-.541.141-.293-.587.879-.281h.495l.8,3.286h-.716Z" transform="translate(-1226.438 -733.228)" fill="#94b0ed"/>
      <path id="Trazado_206025" data-name="Trazado 206025" d="M1787.7,1112.625c-.229-.946.185-1.688,1.062-1.69a2.063,2.063,0,0,1,1.87,1.685c.229.946-.181,1.688-1.062,1.69A2.054,2.054,0,0,1,1787.7,1112.625Zm2.187,0c-.143-.592-.544-1.039-.977-1.038s-.611.435-.465,1.041.539,1.039.977,1.038S1790.032,1113.223,1789.886,1112.621Z" transform="translate(-1321.228 -733.146)" fill="#94b0ed"/>
      <path id="Trazado_206026" data-name="Trazado 206026" d="M1811.815,1112.585c-.229-.946.185-1.688,1.062-1.69a2.062,2.062,0,0,1,1.869,1.685c.229.946-.181,1.688-1.062,1.69A2.053,2.053,0,0,1,1811.815,1112.585Zm2.186,0c-.143-.592-.544-1.039-.978-1.038s-.611.435-.464,1.041.539,1.039.977,1.038S1814.147,1113.182,1814,1112.581Z" transform="translate(-1340.96 -733.113)" fill="#94b0ed"/>
      <path id="Trazado_206027" data-name="Trazado 206027" d="M1834.3,1111.763l-.541.141-.293-.587.879-.281h.495l.8,3.286h-.716Z" transform="translate(-1358.732 -733.228)" fill="#94b0ed"/>
      <path id="Trazado_206028" data-name="Trazado 206028" d="M1714.37,1112.476c-.229-.946.185-1.688,1.062-1.69a2.062,2.062,0,0,1,1.869,1.685c.229.946-.181,1.688-1.062,1.69A2.054,2.054,0,0,1,1714.37,1112.476Zm2.187,0c-.143-.592-.544-1.039-.977-1.038s-.611.435-.465,1.04.539,1.039.977,1.038S1716.7,1113.073,1716.557,1112.472Z" transform="translate(-1261.224 -733.024)" fill="#94b0ed"/>
      <path id="Trazado_206029" data-name="Trazado 206029" d="M1738.486,1112.435c-.229-.946.185-1.688,1.062-1.69a2.063,2.063,0,0,1,1.87,1.685c.229.946-.181,1.688-1.062,1.69A2.054,2.054,0,0,1,1738.486,1112.435Zm2.186,0c-.143-.592-.544-1.039-.977-1.038s-.611.435-.465,1.041.539,1.039.977,1.038S1740.818,1113.032,1740.672,1112.431Z" transform="translate(-1280.957 -732.99)" fill="#94b0ed"/>
      <path id="Trazado_206030" data-name="Trazado 206030" d="M1762.6,1112.395c-.229-.946.185-1.688,1.062-1.69a2.063,2.063,0,0,1,1.869,1.685c.229.946-.18,1.688-1.062,1.689A2.053,2.053,0,0,1,1762.6,1112.395Zm2.187,0c-.143-.592-.544-1.039-.978-1.038s-.611.435-.464,1.041.539,1.039.977,1.038S1764.933,1112.992,1764.787,1112.391Z" transform="translate(-1300.69 -732.957)" fill="#94b0ed"/>
      <path id="Trazado_206031" data-name="Trazado 206031" d="M1407.441,1111.989c-.229-.946.185-1.688,1.062-1.69a2.063,2.063,0,0,1,1.869,1.685c.229.946-.18,1.688-1.062,1.69A2.054,2.054,0,0,1,1407.441,1111.989Zm2.186,0c-.143-.592-.544-1.039-.977-1.038s-.611.435-.465,1.041.539,1.039.978,1.038S1409.773,1112.586,1409.627,1111.985Z" transform="translate(-1010.074 -732.625)" fill="#94b0ed"/>
      <path id="Trazado_206032" data-name="Trazado 206032" d="M1429.931,1111.168l-.541.141-.293-.587.879-.281h.495l.8,3.286h-.716Z" transform="translate(-1027.846 -732.741)" fill="#94b0ed"/>
      <path id="Trazado_206033" data-name="Trazado 206033" d="M1447.556,1111.921c-.229-.946.185-1.688,1.062-1.69a2.062,2.062,0,0,1,1.869,1.685c.229.946-.18,1.688-1.062,1.69A2.054,2.054,0,0,1,1447.556,1111.921Zm2.187,0c-.143-.592-.544-1.039-.978-1.038s-.611.435-.464,1.041.539,1.039.977,1.038S1449.888,1112.518,1449.742,1111.917Z" transform="translate(-1042.899 -732.57)" fill="#94b0ed"/>
      <path id="Trazado_206034" data-name="Trazado 206034" d="M1924.531,1111.42c-.229-.946.185-1.688,1.062-1.69a2.063,2.063,0,0,1,1.87,1.685c.229.946-.181,1.688-1.062,1.69A2.054,2.054,0,0,1,1924.531,1111.42Zm2.187,0c-.143-.592-.544-1.039-.977-1.038s-.611.435-.465,1.041.539,1.039.977,1.038S1926.863,1112.017,1926.718,1111.416Z" transform="translate(-1433.192 -732.16)" fill="#94b0ed"/>
      <path id="Trazado_206035" data-name="Trazado 206035" d="M1947.022,1110.6l-.541.141-.293-.587.879-.281h.495l.8,3.286h-.716Z" transform="translate(-1450.964 -732.275)" fill="#94b0ed"/>
      <path id="Trazado_206036" data-name="Trazado 206036" d="M1964.646,1111.353c-.229-.946.185-1.688,1.062-1.69a2.062,2.062,0,0,1,1.869,1.685c.229.946-.181,1.688-1.062,1.69A2.054,2.054,0,0,1,1964.646,1111.353Zm2.186,0c-.143-.592-.544-1.039-.977-1.038s-.611.435-.465,1.041.539,1.039.977,1.038S1966.978,1111.95,1966.832,1111.349Z" transform="translate(-1466.016 -732.105)" fill="#94b0ed"/>
      <path id="Trazado_206037" data-name="Trazado 206037" d="M1042.263,946.538l-.541.141-.293-.587.879-.281h.495l.8,3.286h-.716Z" transform="translate(-710.63 -598.029)" fill="#94b0ed"/>
      <path id="Trazado_206038" data-name="Trazado 206038" d="M1059.887,947.292c-.229-.946.185-1.688,1.062-1.69a2.063,2.063,0,0,1,1.869,1.685c.229.946-.181,1.688-1.062,1.69A2.054,2.054,0,0,1,1059.887,947.292Zm2.187,0c-.143-.592-.544-1.039-.978-1.038s-.611.435-.464,1.041.539,1.039.977,1.038S1062.219,947.889,1062.073,947.288Z" transform="translate(-725.682 -597.859)" fill="#94b0ed"/>
      <path id="Trazado_206039" data-name="Trazado 206039" d="M1196.464,947.062c-.229-.946.185-1.688,1.062-1.69a2.062,2.062,0,0,1,1.869,1.685c.229.946-.18,1.688-1.062,1.69A2.054,2.054,0,0,1,1196.464,947.062Zm2.187,0c-.143-.592-.544-1.039-.977-1.038s-.611.435-.465,1.041.539,1.039.978,1.038S1198.8,947.659,1198.65,947.058Z" transform="translate(-837.438 -597.671)" fill="#94b0ed"/>
      <path id="Trazado_206040" data-name="Trazado 206040" d="M1220.578,947.021c-.229-.946.185-1.688,1.062-1.69a2.062,2.062,0,0,1,1.869,1.685c.229.946-.181,1.688-1.062,1.69A2.054,2.054,0,0,1,1220.578,947.021Zm2.187,0c-.143-.592-.544-1.039-.977-1.038s-.611.435-.465,1.041.539,1.039.977,1.038S1222.91,947.618,1222.765,947.017Z" transform="translate(-857.17 -597.637)" fill="#94b0ed"/>
      <path id="Trazado_206041" data-name="Trazado 206041" d="M1244.694,946.98c-.229-.946.185-1.688,1.062-1.69a2.063,2.063,0,0,1,1.87,1.685c.229.946-.181,1.688-1.062,1.69A2.053,2.053,0,0,1,1244.694,946.98Zm2.187,0c-.143-.592-.544-1.039-.978-1.038s-.611.435-.464,1.041.539,1.039.977,1.038S1247.026,947.578,1246.88,946.976Z" transform="translate(-876.903 -597.604)" fill="#94b0ed"/>
      <path id="Trazado_206042" data-name="Trazado 206042" d="M1267.184,946.159l-.541.141-.293-.587.88-.281h.495l.8,3.286h-.716Z" transform="translate(-894.675 -597.719)" fill="#94b0ed"/>
      <path id="Trazado_206043" data-name="Trazado 206043" d="M1283.313,946.132l-.541.141-.293-.587.879-.281h.495l.8,3.286h-.716Z" transform="translate(-907.873 -597.697)" fill="#94b0ed"/>
      <path id="Trazado_206044" data-name="Trazado 206044" d="M1300.938,946.885c-.229-.946.185-1.688,1.062-1.69a2.063,2.063,0,0,1,1.869,1.685c.229.946-.18,1.688-1.062,1.69A2.054,2.054,0,0,1,1300.938,946.885Zm2.187,0c-.143-.592-.544-1.039-.978-1.038s-.611.435-.464,1.041.539,1.039.977,1.038S1303.27,947.482,1303.124,946.881Z" transform="translate(-922.926 -597.526)" fill="#94b0ed"/>
      <path id="Trazado_206045" data-name="Trazado 206045" d="M1924.576,945.871c-.229-.946.185-1.688,1.062-1.69a2.062,2.062,0,0,1,1.869,1.685c.229.946-.18,1.688-1.062,1.69A2.054,2.054,0,0,1,1924.576,945.871Zm2.187,0c-.143-.592-.544-1.039-.977-1.038s-.611.435-.465,1.041.539,1.039.977,1.038S1926.908,946.468,1926.763,945.867Z" transform="translate(-1433.229 -596.696)" fill="#feca2e"/>
      <path id="Trazado_206046" data-name="Trazado 206046" d="M1948.693,945.83c-.229-.946.185-1.688,1.062-1.69a2.063,2.063,0,0,1,1.87,1.685c.229.946-.181,1.688-1.062,1.69A2.054,2.054,0,0,1,1948.693,945.83Zm2.186,0c-.143-.592-.544-1.039-.977-1.038s-.611.435-.465,1.041.539,1.039.977,1.038S1951.025,946.427,1950.879,945.826Z" transform="translate(-1452.963 -596.663)" fill="#feca2e"/>
      <path id="Trazado_206047" data-name="Trazado 206047" d="M1972.808,945.79c-.229-.946.185-1.688,1.062-1.69a2.063,2.063,0,0,1,1.869,1.685c.229.946-.181,1.688-1.062,1.69A2.054,2.054,0,0,1,1972.808,945.79Zm2.187,0c-.143-.592-.544-1.039-.978-1.038s-.611.435-.464,1.041.539,1.039.978,1.038S1975.14,946.387,1974.994,945.786Z" transform="translate(-1472.695 -596.63)" fill="#94b0ed"/>
      <path id="Trazado_206048" data-name="Trazado 206048" d="M1995.3,944.968l-.541.141-.293-.587.879-.281h.495l.8,3.286h-.716Z" transform="translate(-1490.467 -596.745)" fill="#94b0ed"/>
      <path id="Trazado_206049" data-name="Trazado 206049" d="M1053.255,991.937l-.541.141-.293-.587.879-.281h.495l.8,3.286h-.716Z" transform="translate(-719.624 -635.178)" fill="#94b0ed"/>
      <path id="Trazado_206050" data-name="Trazado 206050" d="M1070.88,992.691c-.229-.946.185-1.688,1.062-1.69a2.062,2.062,0,0,1,1.869,1.685c.229.946-.18,1.688-1.062,1.69A2.054,2.054,0,0,1,1070.88,992.691Zm2.186,0c-.143-.592-.544-1.039-.977-1.038s-.611.435-.465,1.041.539,1.039.978,1.038S1073.212,993.288,1073.066,992.687Z" transform="translate(-734.677 -635.008)" fill="#94b0ed"/>
      <path id="Trazado_206051" data-name="Trazado 206051" d="M1183.341,992.5c-.229-.946.185-1.688,1.062-1.69a2.063,2.063,0,0,1,1.869,1.685c.229.946-.18,1.688-1.062,1.69A2.054,2.054,0,0,1,1183.341,992.5Zm2.187,0c-.143-.592-.544-1.039-.977-1.038s-.611.435-.464,1.041.539,1.039.977,1.038S1185.673,993.1,1185.527,992.5Z" transform="translate(-826.7 -634.852)" fill="#94b0ed"/>
      <path id="Trazado_206052" data-name="Trazado 206052" d="M1207.456,992.461c-.229-.946.185-1.688,1.062-1.69a2.062,2.062,0,0,1,1.869,1.685c.229.946-.181,1.688-1.062,1.69A2.054,2.054,0,0,1,1207.456,992.461Zm2.187,0c-.143-.592-.544-1.039-.977-1.038s-.611.435-.465,1.041.539,1.039.977,1.038S1209.788,993.058,1209.642,992.457Z" transform="translate(-846.433 -634.819)" fill="#94b0ed"/>
      <path id="Trazado_206053" data-name="Trazado 206053" d="M1116,1080.347c-.229-.946.185-1.688,1.062-1.69a2.063,2.063,0,0,1,1.869,1.685c.229.946-.181,1.688-1.062,1.69A2.054,2.054,0,0,1,1116,1080.347Zm2.187,0c-.143-.592-.544-1.039-.977-1.038s-.611.435-.465,1.041.539,1.039.977,1.038S1118.329,1080.944,1118.183,1080.343Z" transform="translate(-771.595 -706.734)" fill="#feca2e"/>
      <path id="Trazado_206054" data-name="Trazado 206054" d="M1138.487,1079.526l-.541.141-.293-.587.88-.281h.495l.8,3.286h-.716Z" transform="translate(-789.367 -706.849)" fill="#feca2e"/>
      <path id="Trazado_206055" data-name="Trazado 206055" d="M1063.265,1034.235l-.541.141-.293-.587.879-.281h.495l.8,3.286h-.716Z" transform="translate(-727.815 -669.789)" fill="#94b0ed"/>
      <path id="Trazado_206056" data-name="Trazado 206056" d="M1080.889,1034.989c-.229-.946.185-1.688,1.062-1.69a2.063,2.063,0,0,1,1.869,1.685c.229.946-.181,1.688-1.062,1.69A2.054,2.054,0,0,1,1080.889,1034.989Zm2.187,0c-.143-.592-.544-1.039-.977-1.038s-.612.435-.465,1.041.539,1.039.977,1.038S1083.221,1035.586,1083.075,1034.985Z" transform="translate(-742.867 -669.619)" fill="#94b0ed"/>
      <path id="Trazado_206057" data-name="Trazado 206057" d="M1105,1034.948c-.229-.946.185-1.688,1.062-1.69a2.063,2.063,0,0,1,1.869,1.685c.229.946-.181,1.688-1.062,1.69A2.054,2.054,0,0,1,1105,1034.948Zm2.187,0c-.143-.592-.544-1.039-.977-1.038s-.611.435-.464,1.041.539,1.039.977,1.038S1107.337,1035.545,1107.191,1034.944Z" transform="translate(-762.601 -669.585)" fill="#94b0ed"/>
      <path id="Trazado_206058" data-name="Trazado 206058" d="M1127.5,1034.126l-.541.141-.293-.587.879-.281h.495l.8,3.286h-.716Z" transform="translate(-780.372 -669.7)" fill="#94b0ed"/>
      <path id="Trazado_206059" data-name="Trazado 206059" d="M1145.12,1034.88c-.229-.946.185-1.688,1.062-1.69a2.063,2.063,0,0,1,1.869,1.685c.229.946-.181,1.688-1.062,1.69A2.054,2.054,0,0,1,1145.12,1034.88Zm2.187,0c-.143-.592-.544-1.039-.978-1.038s-.611.434-.464,1.04.539,1.039.977,1.038S1147.452,1035.477,1147.306,1034.876Z" transform="translate(-795.425 -669.529)" fill="#94b0ed"/>
      <path id="Trazado_206060" data-name="Trazado 206060" d="M1169.235,1034.839c-.229-.946.185-1.688,1.062-1.69a2.063,2.063,0,0,1,1.87,1.685c.229.946-.181,1.688-1.062,1.69A2.054,2.054,0,0,1,1169.235,1034.839Zm2.187,0c-.143-.592-.544-1.039-.978-1.038s-.611.434-.465,1.041.539,1.039.978,1.038S1171.567,1035.437,1171.421,1034.835Z" transform="translate(-815.158 -669.496)" fill="#94b0ed"/>
      <path id="Trazado_206061" data-name="Trazado 206061" d="M1193.35,1034.8c-.229-.946.185-1.688,1.062-1.69a2.062,2.062,0,0,1,1.869,1.685c.229.946-.18,1.688-1.062,1.69A2.054,2.054,0,0,1,1193.35,1034.8Zm2.187,0c-.143-.592-.544-1.039-.977-1.038s-.611.435-.465,1.041.539,1.039.977,1.038S1195.682,1035.4,1195.536,1034.8Z" transform="translate(-834.891 -669.463)" fill="#94b0ed"/>
      <path id="Trazado_206062" data-name="Trazado 206062" d="M1217.466,1034.758c-.229-.946.185-1.688,1.062-1.69a2.063,2.063,0,0,1,1.869,1.685c.229.946-.181,1.688-1.062,1.69A2.054,2.054,0,0,1,1217.466,1034.758Zm2.187,0c-.143-.592-.544-1.039-.978-1.038s-.611.434-.464,1.04.539,1.039.977,1.038S1219.8,1035.355,1219.652,1034.754Z" transform="translate(-854.624 -669.43)" fill="#94b0ed"/>
      <path id="Trazado_206063" data-name="Trazado 206063" d="M1241.581,1034.718c-.229-.946.185-1.688,1.062-1.69a2.063,2.063,0,0,1,1.869,1.685c.229.946-.181,1.688-1.062,1.69A2.054,2.054,0,0,1,1241.581,1034.718Zm2.187,0c-.143-.592-.544-1.039-.978-1.038s-.611.434-.464,1.041.539,1.039.977,1.038S1243.913,1035.315,1243.767,1034.714Z" transform="translate(-874.356 -669.397)" fill="#94b0ed"/>
      <path id="Trazado_206064" data-name="Trazado 206064" d="M1265.7,1034.677c-.229-.946.185-1.688,1.062-1.69a2.063,2.063,0,0,1,1.87,1.685c.229.946-.181,1.688-1.062,1.69A2.054,2.054,0,0,1,1265.7,1034.677Zm2.187,0c-.143-.592-.544-1.039-.977-1.038s-.611.434-.465,1.04.539,1.039.977,1.038S1268.029,1035.274,1267.883,1034.673Z" transform="translate(-894.089 -669.363)" fill="#94b0ed"/>
      <path id="Trazado_206065" data-name="Trazado 206065" d="M1288.187,1033.856l-.541.141-.293-.587.879-.281h.495l.8,3.286h-.716Z" transform="translate(-911.861 -669.479)" fill="#94b0ed"/>
      <path id="Trazado_206066" data-name="Trazado 206066" d="M1304.315,1033.829l-.541.141-.293-.587.879-.281h.495l.8,3.286h-.716Z" transform="translate(-925.058 -669.457)" fill="#94b0ed"/>
      <path id="Trazado_206067" data-name="Trazado 206067" d="M1321.94,1034.583c-.229-.946.185-1.688,1.062-1.69a2.063,2.063,0,0,1,1.869,1.685c.229.946-.181,1.688-1.062,1.69A2.054,2.054,0,0,1,1321.94,1034.583Zm2.187,0c-.143-.592-.544-1.039-.978-1.038s-.611.435-.464,1.041.539,1.039.977,1.038S1324.272,1035.18,1324.126,1034.579Z" transform="translate(-940.112 -669.286)" fill="#94b0ed"/>
      <path id="Trazado_206068" data-name="Trazado 206068" d="M1074.257,1079.634l-.541.141-.293-.587.88-.281h.495l.8,3.286h-.716Z" transform="translate(-736.809 -706.937)" fill="#94b0ed"/>
      <path id="Trazado_206069" data-name="Trazado 206069" d="M1091.882,1080.388c-.229-.946.185-1.688,1.062-1.69a2.063,2.063,0,0,1,1.869,1.685c.229.946-.181,1.688-1.062,1.69A2.054,2.054,0,0,1,1091.882,1080.388Zm2.187,0c-.143-.592-.544-1.039-.978-1.038s-.611.435-.464,1.041.539,1.039.977,1.038S1094.214,1080.985,1094.068,1080.384Z" transform="translate(-751.862 -706.767)" fill="#94b0ed"/>
      <path id="Trazado_206070" data-name="Trazado 206070" d="M1156.113,1080.28c-.229-.946.185-1.688,1.062-1.69a2.062,2.062,0,0,1,1.869,1.685c.229.946-.181,1.688-1.062,1.69A2.053,2.053,0,0,1,1156.113,1080.28Zm2.186,0c-.143-.592-.544-1.039-.977-1.038s-.611.435-.465,1.041.539,1.039.978,1.038S1158.445,1080.877,1158.3,1080.276Z" transform="translate(-804.42 -706.679)" fill="#94b0ed"/>
      <path id="Trazado_206071" data-name="Trazado 206071" d="M1180.227,1080.239c-.229-.946.185-1.688,1.062-1.69a2.063,2.063,0,0,1,1.869,1.685c.229.946-.18,1.688-1.062,1.69A2.054,2.054,0,0,1,1180.227,1080.239Zm2.187,0c-.143-.592-.544-1.039-.977-1.038s-.611.435-.465,1.041.539,1.039.977,1.038S1182.559,1080.836,1182.413,1080.235Z" transform="translate(-824.152 -706.645)" fill="#94b0ed"/>
      <path id="Trazado_206072" data-name="Trazado 206072" d="M1137.322,1181.011c-.229-.946.185-1.688,1.062-1.69a2.062,2.062,0,0,1,1.869,1.685c.229.946-.181,1.688-1.062,1.69A2.054,2.054,0,0,1,1137.322,1181.011Zm2.187,0c-.143-.592-.544-1.039-.978-1.038s-.611.435-.465,1.041.539,1.039.977,1.038S1139.654,1181.608,1139.508,1181.007Z" transform="translate(-789.045 -789.104)" fill="#94b0ed"/>
      <path id="Trazado_206073" data-name="Trazado 206073" d="M1159.813,1180.19l-.541.141-.293-.587.879-.281h.495l.8,3.286h-.716Z" transform="translate(-806.817 -789.219)" fill="#94b0ed"/>
      <path id="Trazado_206074" data-name="Trazado 206074" d="M1095.582,1180.3l-.541.141-.293-.587.879-.281h.495l.8,3.286h-.716Z" transform="translate(-754.259 -789.307)" fill="#94b0ed"/>
      <path id="Trazado_206075" data-name="Trazado 206075" d="M1113.206,1181.051c-.229-.946.185-1.688,1.062-1.69a2.063,2.063,0,0,1,1.869,1.685c.229.946-.181,1.688-1.062,1.69A2.054,2.054,0,0,1,1113.206,1181.051Zm2.187,0c-.143-.592-.544-1.039-.978-1.038s-.611.435-.465,1.041.539,1.039.978,1.038S1115.538,1181.648,1115.393,1181.047Z" transform="translate(-769.311 -789.136)" fill="#94b0ed"/>
      <path id="Trazado_206076" data-name="Trazado 206076" d="M1177.437,1180.944c-.229-.946.185-1.688,1.062-1.69a2.062,2.062,0,0,1,1.869,1.685c.229.946-.18,1.688-1.062,1.69A2.054,2.054,0,0,1,1177.437,1180.944Zm2.187,0c-.143-.592-.544-1.039-.977-1.038s-.611.435-.464,1.041.539,1.039.977,1.038S1179.769,1181.541,1179.624,1180.94Z" transform="translate(-821.87 -789.049)" fill="#feca2e"/>
      <path id="Trazado_206077" data-name="Trazado 206077" d="M1201.552,1180.9c-.229-.946.185-1.688,1.062-1.69a2.063,2.063,0,0,1,1.87,1.685c.229.946-.181,1.688-1.062,1.69A2.054,2.054,0,0,1,1201.552,1180.9Zm2.187,0c-.143-.592-.544-1.039-.978-1.038s-.611.435-.465,1.041.539,1.039.977,1.038S1203.884,1181.5,1203.738,1180.9Z" transform="translate(-841.602 -789.015)" fill="#feca2e"/>
      <path id="Trazado_206078" data-name="Trazado 206078" d="M1107.525,1213.391c-.229-.946.185-1.688,1.062-1.69a2.063,2.063,0,0,1,1.869,1.685c.229.946-.181,1.688-1.062,1.69A2.054,2.054,0,0,1,1107.525,1213.391Zm2.187,0c-.143-.592-.544-1.039-.978-1.038s-.611.435-.465,1.041.539,1.039.977,1.038S1109.857,1213.989,1109.711,1213.387Z" transform="translate(-764.663 -815.599)" fill="#94b0ed"/>
      <path id="Trazado_206079" data-name="Trazado 206079" d="M1130.015,1212.57l-.541.141-.293-.587.88-.281h.495l.8,3.286h-.716Z" transform="translate(-782.434 -815.715)" fill="#94b0ed"/>
      <path id="Trazado_206080" data-name="Trazado 206080" d="M1147.64,1213.324c-.229-.946.185-1.688,1.062-1.69a2.062,2.062,0,0,1,1.869,1.685c.229.946-.18,1.688-1.062,1.69A2.054,2.054,0,0,1,1147.64,1213.324Zm2.187,0c-.143-.592-.544-1.039-.977-1.038s-.611.435-.465,1.041.539,1.039.977,1.038S1149.972,1213.922,1149.827,1213.32Z" transform="translate(-797.488 -815.544)" fill="#94b0ed"/>
      <path id="Trazado_206081" data-name="Trazado 206081" d="M1171.755,1213.284c-.229-.946.185-1.688,1.062-1.69a2.062,2.062,0,0,1,1.87,1.685c.229.946-.181,1.688-1.062,1.69A2.054,2.054,0,0,1,1171.755,1213.284Zm2.187,0c-.143-.592-.544-1.039-.977-1.038s-.611.435-.465,1.041.539,1.039.977,1.038S1174.087,1213.881,1173.941,1213.28Z" transform="translate(-817.22 -815.512)" fill="#94b0ed"/>
      <path id="Trazado_206082" data-name="Trazado 206082" d="M1204.343,1080.2c-.229-.946.185-1.688,1.062-1.69a2.062,2.062,0,0,1,1.87,1.685c.229.946-.181,1.688-1.062,1.69A2.053,2.053,0,0,1,1204.343,1080.2Zm2.187,0c-.143-.592-.544-1.039-.978-1.038s-.611.435-.464,1.041.539,1.039.977,1.038S1206.675,1080.8,1206.529,1080.195Z" transform="translate(-843.886 -706.613)" fill="#94b0ed"/>
      <path id="Trazado_206083" data-name="Trazado 206083" d="M1228.458,1080.158c-.229-.946.185-1.688,1.062-1.69a2.062,2.062,0,0,1,1.869,1.685c.229.946-.181,1.688-1.062,1.69A2.054,2.054,0,0,1,1228.458,1080.158Zm2.187,0c-.144-.592-.544-1.039-.978-1.038s-.611.435-.465,1.041.539,1.039.978,1.038S1230.79,1080.755,1230.645,1080.154Z" transform="translate(-863.619 -706.579)" fill="#94b0ed"/>
      <path id="Trazado_206084" data-name="Trazado 206084" d="M1167.949,1298.141c-.229-.946.185-1.688,1.062-1.69a2.062,2.062,0,0,1,1.869,1.685c.229.946-.18,1.688-1.062,1.69A2.054,2.054,0,0,1,1167.949,1298.141Zm2.187,0c-.143-.592-.544-1.039-.977-1.038s-.611.435-.465,1.041.539,1.039.978,1.038S1170.282,1298.738,1170.136,1298.137Z" transform="translate(-814.106 -884.947)" fill="#feca2e"/>
      <path id="Trazado_206085" data-name="Trazado 206085" d="M1190.439,1297.32l-.541.141-.293-.587.88-.281h.495l.8,3.286h-.716Z" transform="translate(-831.877 -885.063)" fill="#feca2e"/>
      <path id="Trazado_206086" data-name="Trazado 206086" d="M1115.217,1252.028l-.541.141-.293-.587.879-.281h.495l.8,3.286h-.716Z" transform="translate(-770.326 -848.002)" fill="#94b0ed"/>
      <path id="Trazado_206087" data-name="Trazado 206087" d="M1132.841,1252.782c-.229-.946.185-1.688,1.062-1.69a2.063,2.063,0,0,1,1.869,1.685c.229.946-.181,1.688-1.062,1.69A2.054,2.054,0,0,1,1132.841,1252.782Zm2.187,0c-.143-.592-.544-1.039-.978-1.038s-.611.435-.464,1.041.539,1.039.978,1.038S1135.173,1253.379,1135.027,1252.778Z" transform="translate(-785.378 -847.832)" fill="#94b0ed"/>
      <path id="Trazado_206088" data-name="Trazado 206088" d="M1156.957,1252.742c-.229-.946.185-1.688,1.062-1.69a2.062,2.062,0,0,1,1.869,1.685c.229.946-.181,1.688-1.062,1.69A2.053,2.053,0,0,1,1156.957,1252.742Zm2.187,0c-.143-.592-.544-1.039-.978-1.038s-.611.435-.465,1.041.539,1.039.978,1.038S1159.289,1253.339,1159.143,1252.738Z" transform="translate(-805.111 -847.799)" fill="#94b0ed"/>
      <path id="Trazado_206089" data-name="Trazado 206089" d="M1179.447,1251.92l-.541.141-.293-.587.879-.281h.495l.8,3.286h-.716Z" transform="translate(-822.883 -847.913)" fill="#94b0ed"/>
      <path id="Trazado_206090" data-name="Trazado 206090" d="M1126.21,1297.427l-.541.141-.293-.587.879-.281h.495l.8,3.286h-.716Z" transform="translate(-779.321 -885.15)" fill="#94b0ed"/>
      <path id="Trazado_206091" data-name="Trazado 206091" d="M1143.834,1298.181c-.229-.946.185-1.688,1.062-1.69a2.063,2.063,0,0,1,1.87,1.685c.229.946-.181,1.688-1.062,1.69A2.054,2.054,0,0,1,1143.834,1298.181Zm2.187,0c-.143-.592-.544-1.039-.977-1.038s-.612.435-.465,1.041.539,1.039.977,1.038S1146.166,1298.778,1146.021,1298.177Z" transform="translate(-794.373 -884.98)" fill="#94b0ed"/>
      <path id="Trazado_206092" data-name="Trazado 206092" d="M1208.065,1298.073c-.229-.946.185-1.688,1.062-1.69a2.063,2.063,0,0,1,1.87,1.685c.229.946-.181,1.688-1.062,1.69A2.054,2.054,0,0,1,1208.065,1298.073Zm2.187,0c-.143-.592-.544-1.039-.978-1.038s-.611.435-.465,1.041.539,1.039.978,1.038S1210.4,1298.67,1210.251,1298.069Z" transform="translate(-846.931 -884.892)" fill="#94b0ed"/>
      <path id="Trazado_206093" data-name="Trazado 206093" d="M1232.18,1298.033c-.229-.946.185-1.688,1.062-1.69a2.062,2.062,0,0,1,1.869,1.685c.229.946-.18,1.688-1.062,1.69A2.054,2.054,0,0,1,1232.18,1298.033Zm2.186,0c-.143-.592-.544-1.039-.977-1.038s-.611.435-.464,1.041.539,1.039.977,1.038S1234.512,1298.63,1234.366,1298.029Z" transform="translate(-866.664 -884.859)" fill="#94b0ed"/>
      <path id="Trazado_206094" data-name="Trazado 206094" d="M1177.248,1330.195c-.229-.946.185-1.688,1.062-1.69a2.063,2.063,0,0,1,1.87,1.685c.229.946-.181,1.688-1.062,1.69A2.054,2.054,0,0,1,1177.248,1330.195Zm2.187,0c-.143-.592-.544-1.039-.977-1.038s-.611.435-.465,1.041.539,1.039.977,1.038S1179.58,1330.792,1179.435,1330.191Z" transform="translate(-821.715 -911.176)" fill="#feca2e"/>
      <path id="Trazado_206095" data-name="Trazado 206095" d="M1199.738,1329.374l-.541.141-.293-.587.879-.281h.5l.8,3.286h-.716Z" transform="translate(-839.486 -911.291)" fill="#feca2e"/>
      <path id="Trazado_206096" data-name="Trazado 206096" d="M1153.133,1330.235c-.229-.946.185-1.688,1.062-1.69a2.063,2.063,0,0,1,1.869,1.685c.229.946-.181,1.688-1.062,1.69A2.054,2.054,0,0,1,1153.133,1330.235Zm2.186,0c-.143-.592-.544-1.039-.977-1.038s-.611.435-.465,1.041.539,1.039.978,1.038S1155.465,1330.832,1155.319,1330.231Z" transform="translate(-801.982 -911.209)" fill="#94b0ed"/>
      <path id="Trazado_206097" data-name="Trazado 206097" d="M1217.364,1330.128c-.229-.946.185-1.688,1.062-1.69a2.062,2.062,0,0,1,1.87,1.685c.229.946-.181,1.688-1.062,1.69A2.054,2.054,0,0,1,1217.364,1330.128Zm2.187,0c-.143-.592-.544-1.039-.977-1.038s-.611.435-.465,1.041.539,1.039.978,1.038S1219.7,1330.725,1219.55,1330.124Z" transform="translate(-854.54 -911.121)" fill="#94b0ed"/>
      <path id="Trazado_206098" data-name="Trazado 206098" d="M1241.478,1330.087c-.229-.946.185-1.688,1.062-1.69a2.063,2.063,0,0,1,1.869,1.685c.229.946-.18,1.688-1.062,1.69A2.054,2.054,0,0,1,1241.478,1330.087Zm2.187,0c-.143-.592-.544-1.039-.977-1.038s-.611.435-.465,1.041.539,1.039.977,1.038S1243.81,1330.684,1243.665,1330.083Z" transform="translate(-874.272 -911.088)" fill="#94b0ed"/>
      <path id="Trazado_206099" data-name="Trazado 206099" d="M1256.295,1297.992c-.229-.946.185-1.688,1.062-1.69a2.063,2.063,0,0,1,1.87,1.685c.229.946-.181,1.688-1.062,1.69A2.054,2.054,0,0,1,1256.295,1297.992Zm2.187,0c-.143-.592-.544-1.039-.977-1.038s-.611.435-.465,1.041.539,1.039.977,1.038S1258.627,1298.589,1258.482,1297.988Z" transform="translate(-886.396 -884.825)" fill="#94b0ed"/>
      <path id="Trazado_206100" data-name="Trazado 206100" d="M1280.41,1297.952c-.229-.946.185-1.688,1.062-1.69a2.062,2.062,0,0,1,1.869,1.685c.229.946-.18,1.688-1.062,1.69A2.054,2.054,0,0,1,1280.41,1297.952Zm2.187,0c-.143-.592-.544-1.039-.978-1.038s-.611.435-.465,1.041.539,1.039.977,1.038S1282.742,1298.549,1282.6,1297.948Z" transform="translate(-906.129 -884.793)" fill="#94b0ed"/>
      <path id="Trazado_206101" data-name="Trazado 206101" d="M1917.945,990.517l-.541.141-.293-.587.879-.281h.495l.8,3.286h-.716Z" transform="translate(-1427.171 -634.016)" fill="#94b0ed"/>
      <path id="Trazado_206102" data-name="Trazado 206102" d="M1935.57,991.271c-.229-.946.185-1.688,1.062-1.69a2.063,2.063,0,0,1,1.87,1.685c.229.946-.181,1.688-1.062,1.69A2.054,2.054,0,0,1,1935.57,991.271Zm2.186,0c-.143-.592-.544-1.039-.977-1.038s-.611.435-.465,1.041.539,1.039.977,1.038S1937.9,991.868,1937.756,991.267Z" transform="translate(-1442.224 -633.846)" fill="#94b0ed"/>
      <path id="Trazado_206103" data-name="Trazado 206103" d="M1959.685,991.23c-.229-.946.185-1.688,1.062-1.69a2.063,2.063,0,0,1,1.869,1.685c.229.946-.18,1.688-1.062,1.69A2.053,2.053,0,0,1,1959.685,991.23Zm2.187,0c-.143-.592-.544-1.039-.977-1.038s-.611.435-.464,1.041.539,1.039.977,1.038S1962.017,991.827,1961.871,991.226Z" transform="translate(-1461.957 -633.812)" fill="#94b0ed"/>
      <path id="Trazado_206104" data-name="Trazado 206104" d="M1983.8,991.189c-.229-.946.185-1.688,1.062-1.69a2.062,2.062,0,0,1,1.869,1.685c.229.946-.18,1.688-1.062,1.69A2.054,2.054,0,0,1,1983.8,991.189Zm2.186,0c-.143-.592-.544-1.039-.977-1.038s-.611.435-.465,1.041.539,1.039.977,1.038S1986.133,991.786,1985.987,991.185Z" transform="translate(-1481.69 -633.779)" fill="#94b0ed"/>
      <path id="Trazado_206105" data-name="Trazado 206105" d="M2006.291,990.368l-.541.141-.293-.587.879-.281h.5l.8,3.286h-.716Z" transform="translate(-1499.462 -633.894)" fill="#94b0ed"/>
      <path id="Trazado_206106" data-name="Trazado 206106" d="M1895.455,1034.636c-.229-.946.185-1.688,1.062-1.69a2.063,2.063,0,0,1,1.869,1.685c.229.946-.18,1.688-1.062,1.69A2.054,2.054,0,0,1,1895.455,1034.636Zm2.187,0c-.143-.592-.544-1.039-.977-1.038s-.611.435-.465,1.041.539,1.039.977,1.038S1897.787,1035.234,1897.642,1034.632Z" transform="translate(-1409.4 -669.33)" fill="#94b0ed"/>
      <path id="Trazado_206107" data-name="Trazado 206107" d="M1917.945,1033.815l-.541.141-.293-.587.879-.281h.495l.8,3.286h-.716Z" transform="translate(-1427.171 -669.445)" fill="#94b0ed"/>
      <path id="Trazado_206108" data-name="Trazado 206108" d="M1935.57,1034.569c-.229-.946.185-1.688,1.062-1.69a2.063,2.063,0,0,1,1.87,1.685c.229.946-.181,1.688-1.062,1.69A2.054,2.054,0,0,1,1935.57,1034.569Zm2.186,0c-.143-.592-.544-1.039-.977-1.038s-.611.435-.465,1.041.539,1.039.977,1.038S1937.9,1035.166,1937.756,1034.565Z" transform="translate(-1442.224 -669.275)" fill="#feca2e"/>
      <path id="Trazado_206109" data-name="Trazado 206109" d="M1959.685,1034.528c-.229-.946.185-1.688,1.062-1.69a2.063,2.063,0,0,1,1.869,1.685c.229.946-.18,1.688-1.062,1.69A2.053,2.053,0,0,1,1959.685,1034.528Zm2.187,0c-.143-.592-.544-1.039-.977-1.038s-.611.435-.464,1.041.539,1.039.977,1.038S1962.017,1035.125,1961.871,1034.524Z" transform="translate(-1461.957 -669.242)" fill="#feca2e"/>
      <path id="Trazado_206110" data-name="Trazado 206110" d="M1983.8,1034.488c-.229-.946.185-1.688,1.062-1.69a2.062,2.062,0,0,1,1.869,1.685c.229.946-.18,1.688-1.062,1.69A2.054,2.054,0,0,1,1983.8,1034.488Zm2.186,0c-.143-.592-.544-1.039-.977-1.038s-.611.435-.465,1.041.539,1.039.977,1.038S1986.133,1035.085,1985.987,1034.484Z" transform="translate(-1481.69 -669.209)" fill="#feca2e"/>
      <path id="Trazado_206111" data-name="Trazado 206111" d="M2006.291,1033.667l-.541.141-.293-.587.879-.281h.5l.8,3.286h-.716Z" transform="translate(-1499.462 -669.324)" fill="#feca2e"/>
      <path id="Trazado_206112" data-name="Trazado 206112" d="M2001.388,1283.847l-.541.141-.293-.587.88-.281h.495l.8,3.286h-.716Z" transform="translate(-1495.45 -874.038)" fill="#94b0ed"/>
      <path id="Trazado_206113" data-name="Trazado 206113" d="M2019.012,1284.6c-.229-.946.185-1.688,1.062-1.69a2.063,2.063,0,0,1,1.869,1.685c.229.946-.181,1.688-1.062,1.69A2.054,2.054,0,0,1,2019.012,1284.6Zm2.187,0c-.143-.592-.544-1.039-.978-1.038s-.611.435-.464,1.04.539,1.039.978,1.038S2021.344,1285.2,2021.2,1284.6Z" transform="translate(-1510.502 -873.868)" fill="#94b0ed"/>
      <path id="Trazado_206114" data-name="Trazado 206114" d="M2043.128,1284.56c-.229-.946.185-1.688,1.062-1.69a2.063,2.063,0,0,1,1.869,1.685c.229.946-.18,1.688-1.062,1.69A2.054,2.054,0,0,1,2043.128,1284.56Zm2.187,0c-.144-.592-.544-1.039-.978-1.038s-.611.435-.465,1.041.539,1.039.977,1.038S2045.46,1285.157,2045.314,1284.556Z" transform="translate(-1530.236 -873.834)" fill="#94b0ed"/>
      <path id="Trazado_206115" data-name="Trazado 206115" d="M1977.694,1313.279l-.541.141-.293-.587.879-.281h.495l.8,3.286h-.716Z" transform="translate(-1476.062 -898.121)" fill="#94b0ed"/>
      <path id="Trazado_206116" data-name="Trazado 206116" d="M1995.319,1314.033c-.229-.946.185-1.688,1.061-1.69a2.063,2.063,0,0,1,1.87,1.685c.229.946-.181,1.688-1.062,1.69A2.054,2.054,0,0,1,1995.319,1314.033Zm2.186,0c-.143-.592-.544-1.039-.978-1.038s-.611.435-.465,1.041.539,1.039.978,1.038S1997.651,1314.63,1997.506,1314.029Z" transform="translate(-1491.116 -897.951)" fill="#94b0ed"/>
      <path id="Trazado_206117" data-name="Trazado 206117" d="M2019.434,1313.993c-.229-.946.185-1.688,1.062-1.69a2.062,2.062,0,0,1,1.869,1.685c.229.946-.181,1.688-1.062,1.69A2.054,2.054,0,0,1,2019.434,1313.993Zm2.186,0c-.143-.592-.544-1.039-.977-1.038s-.611.435-.465,1.041.539,1.039.978,1.038S2021.766,1314.59,2021.621,1313.989Z" transform="translate(-1510.848 -897.919)" fill="#94b0ed"/>
      <path id="Trazado_206118" data-name="Trazado 206118" d="M2067.243,1284.52c-.229-.946.185-1.688,1.062-1.69a2.063,2.063,0,0,1,1.87,1.685c.229.946-.181,1.688-1.062,1.689A2.053,2.053,0,0,1,2067.243,1284.52Zm2.187,0c-.143-.592-.544-1.039-.977-1.038s-.611.435-.465,1.041.539,1.039.978,1.038S2069.575,1285.117,2069.429,1284.516Z" transform="translate(-1549.969 -873.802)" fill="#94b0ed"/>
      <path id="Trazado_206119" data-name="Trazado 206119" d="M2089.733,1283.7l-.541.141-.293-.587.879-.281h.5l.8,3.286h-.717Z" transform="translate(-1567.74 -873.917)" fill="#94b0ed"/>
      <g id="Grupo_149134" data-name="Grupo 149134" transform="translate(545.722 305.89)">
        <g id="Grupo_149131" data-name="Grupo 149131" transform="translate(10.531 58.365)">
          <path id="Trazado_206120" data-name="Trazado 206120" d="M2373.807,1083.226a9,9,0,0,1,7.816,3.621c2.444,3.337.752,7.271,6.864,10.3s5.234,6.856,4.011,11.651-6.347,10.593-12.459,10.311-16.563-12.866-16.187-17.085,2.192-4.724.752-7.513C2362.348,1090.143,2366.532,1083.916,2373.807,1083.226Z" transform="translate(-2348.97 -1074.706)" fill="#163560"/>
          <path id="Trazado_206121" data-name="Trazado 206121" d="M2398.341,1169.083a.315.315,0,0,0,.044-.07c-.677-.242-.735-1.23-.108-5.346l-.324.015-5.456.261s-.127,1.686-.358,3.258c-.046.313-.1.621-.149.911C2387.882,1172.2,2396.72,1174.049,2398.341,1169.083Z" transform="translate(-2371.119 -1140.55)" fill="#ffb27d"/>
          <path id="Trazado_206122" data-name="Trazado 206122" d="M2370.432,1774.362h11.787a6.47,6.47,0,0,0-.333-3.159c-.59-1.308-1.508-2.115-1.592-3.117a3.541,3.541,0,0,1-3.375,1.038,12.934,12.934,0,0,1-2.045,2.651C2374.1,1772.329,2370.669,1772.131,2370.432,1774.362Z" transform="translate(-2354.362 -1635.126)" fill="#143d7a"/>
          <path id="Trazado_206123" data-name="Trazado 206123" d="M2367.976,1388.939c-1.1,2.71-1.943,5.173-1.677,7.345a.063.063,0,0,0,0,.011,5.982,5.982,0,0,0,.131.709c3.868,15.467-1.615,35.607-1.615,35.607a22.741,22.741,0,0,1-2.5.429c-1.858.166-2.129-.387-2.129-.387s-1.845-16.424-7.817-47.82a87.158,87.158,0,0,1-1.512-11.074c-.094-1.207-.185-2.55-.284-4.124-.271-4.231.37-11.352,3.547-13.223,1.444-.854,3.411-.619,6.055,1.463.209.165.406.361.64.528C2377.06,1370.093,2371.332,1380.67,2367.976,1388.939Z" transform="translate(-2338.07 -1297.886)" fill="#2f539b"/>
          <path id="Trazado_206124" data-name="Trazado 206124" d="M2409.746,1473.019c-.183-.637-6.025-21.048-6.123-22.6-.213-3.334,7.509,5.873,7.8,15.252C2410.325,1468.383,2409.48,1470.847,2409.746,1473.019Z" transform="translate(-2381.517 -1374.621)" fill="#233862"/>
          <path id="Trazado_206125" data-name="Trazado 206125" d="M2613.366,1617.86l-4.906-10.718a6.471,6.471,0,0,0-2.734,1.618c-.944,1.081-1.627.889-3.776-.6a11.808,11.808,0,0,1,1.419,3.631c.395.049,2.642,2.224,4.944,2.823C2609.231,1614.849,2611.239,1618.573,2613.366,1617.86Z" transform="translate(-2543.804 -1503.431)" fill="#143d7a"/>
          <path id="Trazado_206126" data-name="Trazado 206126" d="M2379.9,1372.141s10.563,36.719,14.433,39.083,23.006,7.065,28.656,8.193a10.9,10.9,0,0,0-.093-3.071,13.581,13.581,0,0,0-.649-1.576s-10.048-10.052-19.867-11.461c-2.056-.3.825-32.4-13.122-33.662C2376.521,1368.5,2379.9,1372.141,2379.9,1372.141Z" transform="translate(-2361.78 -1308.913)" fill="#2f539b"/>
          <path id="Trazado_206127" data-name="Trazado 206127" d="M2284.472,1041.906s.236-1.177.5-2.075c.117-.4-.7-3.008-1.27-3.329s-2.045,1.437-1.627,2.787c.215.693.568,2.95.568,2.95Z" transform="translate(-2282.004 -1036.462)" fill="#ffb27d"/>
          <path id="Trazado_206128" data-name="Trazado 206128" d="M2561.274,1065.236c.072.149.172.416.262.666,0-.068,0-.136,0-.2,0-.5,1.868-3.215,2.634-3.385s1.847,2.374.89,3.78c-.491.722-1.976,3.3-1.976,3.3l-1.644-.993a2.3,2.3,0,0,0-.454-1.254,8.826,8.826,0,0,1-.312-2.2S2561.007,1064.686,2561.274,1065.236Z" transform="translate(-2510.034 -1057.61)" fill="#ffb27d"/>
          <path id="Trazado_206129" data-name="Trazado 206129" d="M2398.021,1164.011s-.127,1.686-.358,3.258c2.978.358,4.948-2.115,5.814-3.519Z" transform="translate(-2376.644 -1140.618)" fill="#ed975d"/>
          <path id="Trazado_206130" data-name="Trazado 206130" d="M2394.358,1104.042a17.118,17.118,0,0,0,2.83-4.638c.531-1.586.6-7.746-5.6-7.779a8.334,8.334,0,0,0-3.61.784c-1.449.694-3.636,2.331-2.294,7.916l.287,1.862Z" transform="translate(-2366.503 -1081.599)" fill="#163560"/>
          <path id="Trazado_206131" data-name="Trazado 206131" d="M2384.946,1115.85s7.6,1.26,8.316-3.488,2.173-7.783-2.653-8.788-6.042.665-6.665,2.192S2382.986,1115.4,2384.946,1115.85Z" transform="translate(-2365.022 -1091.128)" fill="#ffb27d"/>
          <path id="Trazado_206132" data-name="Trazado 206132" d="M2399.6,1098.072s2.021,5.912,5.1,7.213,4.6.649,4.6.649a9.171,9.171,0,0,1-2.17-5.8S2401.565,1095.655,2399.6,1098.072Z" transform="translate(-2378.226 -1086.29)" fill="#163560"/>
          <path id="Trazado_206133" data-name="Trazado 206133" d="M2386.628,1099.325a5.725,5.725,0,0,0-2.646,1.874,9.685,9.685,0,0,0-1.472,3.715s-1.009-4.02,1.077-5.9C2385.8,1097.021,2386.628,1099.325,2386.628,1099.325Z" transform="translate(-2364.045 -1086.982)" fill="#163560"/>
          <path id="Trazado_206134" data-name="Trazado 206134" d="M2335.466,1070.546s-1.67,13.639-5.192,16.9c-2.444,2.263-11.094,5.913-13.162,9.277a10.928,10.928,0,0,0-.785,3.229,56.909,56.909,0,0,0,2.348,24.295c.15.449.306.9.47,1.347a2.279,2.279,0,0,1-1.354,2.951,38.869,38.869,0,0,1-6.37,1.666c-.5.088-1.018.165-1.544.231-7.256.922-12.166-.781-14.661-2.04a3.321,3.321,0,0,1-1.818-3.15c.149-2.692,1.5-5.354,2.1-11.826.46-4.91-2.891-11.834-2.711-14.447.071-1.033.582-5.62.062-6.33-3.452-4.739-9.255-9.279-10.147-13.607-1.029-4.989-.363-14.946-.363-14.946a5.7,5.7,0,0,1,1.61-.406,2.376,2.376,0,0,1,1.668.9s2.59,9.7,2.72,10.35c.688,3.479,7.3,8.52,9.309,9.531a15.741,15.741,0,0,0,5.329,1.833s-1.632,2.819.782,3.21c2.906.471,5.149-2.87,5.149-2.87a13.014,13.014,0,0,0,4.944.028c2.637-.387,12.022-3.561,13.378-5.969.988-1.751,6.2-11.464,6.2-11.464a1.358,1.358,0,0,1,1.262.124A1.423,1.423,0,0,1,2335.466,1070.546Z" transform="translate(-2282.108 -1058.742)" fill="#bddcf6"/>
          <path id="Trazado_206135" data-name="Trazado 206135" d="M2391.87,1156.769s-.325.656-.763.668a5.173,5.173,0,0,1-1.625-.206,6.316,6.316,0,0,1-.26-.8A7.386,7.386,0,0,1,2391.87,1156.769Z" transform="translate(-2369.738 -1134.625)" fill="#fff"/>
          <path id="Trazado_206136" data-name="Trazado 206136" d="M2451.742,1287.472s-6.527-1.119-6.961-5.765c-.462-4.95,4.608-18.54,4.608-18.54l0,.011A56.909,56.909,0,0,0,2451.742,1287.472Z" transform="translate(-2415.175 -1221.967)" fill="#94b0ed"/>
        </g>
        <g id="Grupo_149133" data-name="Grupo 149133" transform="translate(0)">
          <path id="Trazado_206137" data-name="Trazado 206137" d="M2255.247,724.857l-.68-2.5a6.8,6.8,0,0,0-5.764-4.965l-17.74-2.1-1.33,11.257-5.676,48.056,73.383,8.668,5.677-48.056-41.527-4.905A7.484,7.484,0,0,1,2255.247,724.857Z" transform="translate(-2224.057 -715.302)" fill="#feca2e"/>
          <g id="Grupo_149132" data-name="Grupo 149132" transform="translate(13.814 25.032)">
            <path id="Trazado_206138" data-name="Trazado 206138" d="M2300.072,880.115l.505-4.276,15.772-4.8-.516,4.369-10.981,3.07,9.964,5.544-.523,4.43Z" transform="translate(-2300.072 -867.771)" fill="#fff"/>
            <path id="Trazado_206139" data-name="Trazado 206139" d="M2401.654,853.041l4,.472-17.115,27.069-4-.472Z" transform="translate(-2369.189 -853.041)" fill="#fff"/>
            <path id="Trazado_206140" data-name="Trazado 206140" d="M2511.547,893.2l-.505,4.276-15.772,4.8.516-4.369,10.981-3.07-9.964-5.544.523-4.431Z" transform="translate(-2459.796 -879.074)" fill="#fff"/>
          </g>
        </g>
        <path id="Trazado_206141" data-name="Trazado 206141" d="M2559.675,1075.647a13.918,13.918,0,0,0-.4-2.243c-.188-.353.281-.455.682.353s1.2.564,1.6,1.363.047,1.011-.446.964A7.066,7.066,0,0,1,2559.675,1075.647Z" transform="translate(-2498.316 -1008.109)" fill="#ffb27d"/>
        <path id="Trazado_206142" data-name="Trazado 206142" d="M2294.4,1045.916s1.076-1.163,1.071-1.684.752-1.81.541-2.045-.587.141-.787.494-1.023.331-1.211,1.294A3.181,3.181,0,0,0,2294.4,1045.916Z" transform="translate(-2281.268 -982.721)" fill="#ffb27d"/>
      </g>
      <g id="Grupo_149138" data-name="Grupo 149138" transform="translate(388.481 331.36)">
        <g id="Grupo_149137" data-name="Grupo 149137" transform="translate(0 2.874)">
          <g id="Grupo_149136" data-name="Grupo 149136">
            <g id="Grupo_149135" data-name="Grupo 149135">
              <path id="Trazado_206143" data-name="Trazado 206143" d="M1358.827,934.01l27.866,12.206v-10.86l-14.519-5.971,14.519-5.971V912.655l-27.866,12.206Z" transform="translate(-1358.827 -905.134)" fill="#2c3a64"/>
              <path id="Trazado_206144" data-name="Trazado 206144" d="M1544.715,871.269,1520.637,921.6h10.177l24.078-50.331Z" transform="translate(-1491.231 -871.269)" fill="#2c3a64"/>
            </g>
            <path id="Trazado_206145" data-name="Trazado 206145" d="M1719.388,912.655v10.86l14.518,5.971-14.518,5.971v10.759l27.866-12.206v-9.149Z" transform="translate(-1653.862 -905.134)" fill="#2c3a64"/>
          </g>
        </g>
        <rect id="Rectángulo_44804" data-name="Rectángulo 44804" width="10.177" height="2.874" transform="translate(29.406 50.331)" fill="#2c3a64"/>
        <rect id="Rectángulo_44805" data-name="Rectángulo 44805" width="4.754" height="2.874" transform="translate(58.907 0)" fill="#2c3a64"/>
      </g>
      <g id="Grupo_149141" data-name="Grupo 149141" transform="translate(388.481 331.36)">
        <g id="Grupo_149140" data-name="Grupo 149140" transform="translate(0 0)">
          <g id="Grupo_149139" data-name="Grupo 149139">
            <path id="Trazado_206146" data-name="Trazado 206146" d="M1358.827,918.2l27.866,12.206v-10.86l-14.519-5.971,14.519-5.971V896.841l-27.866,12.206Z" transform="translate(-1358.827 -889.32)" fill="#2b478b"/>
            <path id="Trazado_206147" data-name="Trazado 206147" d="M1544.715,855.454l-24.078,50.331h10.177l24.078-50.331Z" transform="translate(-1491.231 -855.454)" fill="#2b478b"/>
          </g>
          <path id="Trazado_206148" data-name="Trazado 206148" d="M1719.388,896.841V907.7l14.518,5.971-14.518,5.971V930.4l27.866-12.206v-9.149Z" transform="translate(-1653.862 -889.32)" fill="#2b478b"/>
        </g>
      </g>
      <path id="Trazado_206149" data-name="Trazado 206149" d="M1159,901.422h-1.7l-13.89-53-17.855-68.132h-199.4l30.206,121.132-2.156.022-30.57-122.8,203.328-.176.178.678,17.849,68.5Z" transform="translate(-614.241 -461.1)" fill="#94b0ed"/>
      <path id="Trazado_206150" data-name="Trazado 206150" d="M2148.884,1214.074l-1.638.219-14.258-54.4,1.576-.777Z" transform="translate(-1603.817 -772.57)" fill="#bddcf6"/>
      <path id="Trazado_206151" data-name="Trazado 206151" d="M1092.763,892.152a1.321,1.321,0,0,0-.236,1.413.01.01,0,0,0,0,.007,8.78,8.78,0,0,0,2.774,3.044c.167.135.316.258.445.371.034.03.068.06.1.09l.077.069c1.219,1.124.76,1.382,2.952,3.663,2.5,2.6,4.218,2.646,4.708,2.409.414-.2-.427-1.58-1.359-3.13-.045-.075-.09-.15-.136-.226-.124-.206-.247-.415-.37-.622-1.092-1.865-.812-2.74-.553-5.515.21-2.255,3.509-12.6,3.509-12.6l-4.787-.825s-1.442,8.237-3.03,9.505c-.849.676-1.8.685-2.617,1.186q-.086.052-.17.107A6.293,6.293,0,0,0,1092.763,892.152Z" transform="translate(-752.356 -544.425)" fill="#ffb27d"/>
      <path id="Trazado_206152" data-name="Trazado 206152" d="M1092.763,940.29a1.321,1.321,0,0,0-.236,1.413.01.01,0,0,0,0,.007,10.168,10.168,0,0,0,2.779,3.034c.165.137.311.263.441.381.034.03.068.06.1.09l.077.069c1.219,1.124.76,1.382,2.952,3.663,2.5,2.6,4.218,2.646,4.708,2.409.414-.2-.427-1.58-1.359-3.13a10.643,10.643,0,0,1-4.453-3.281c-1.5-1.919-2.508-4.386-3.532-5.815q-.086.052-.17.107A6.293,6.293,0,0,0,1092.763,940.29Z" transform="translate(-752.356 -592.563)" fill="#233862"/>
      <path id="Trazado_206153" data-name="Trazado 206153" d="M1289.473,882.6c.3,1.478,2.4,1.231,4.756.656s1.794.109,5.144-.262,4.364-1.62,4.466-2.118c.092-.442-1.564-.6-3.339-.8-.223-.025-.448-.052-.672-.08-2-.251-3.472-1.545-5.292-2.607-1.724-1.006-4.3-5.105-4.3-5.105l-4.594.364s2.41,3.661,3.343,5.253a5.552,5.552,0,0,1,.451,3.13A5.9,5.9,0,0,0,1289.473,882.6Z" transform="translate(-910.463 -537.865)" fill="#ffb27d"/>
      <path id="Trazado_206154" data-name="Trazado 206154" d="M1311.152,918.343c2.354-.575,1.794.109,5.144-.262s4.364-1.62,4.466-2.118c.092-.442-1.564-.6-3.339-.8l-.017.034a9.443,9.443,0,0,1-4.8,1.491c-2.272.055-4.679-.6-6.248-.57a5.9,5.9,0,0,0,.035,1.571C1306.692,919.165,1308.8,918.918,1311.152,918.343Z" transform="translate(-927.387 -572.95)" fill="#233862"/>
      <path id="Trazado_206155" data-name="Trazado 206155" d="M1138.9,734.288l-4.294,11.555L1129,760.929a9.082,9.082,0,0,1-2.978-.272,12.91,12.91,0,0,1-2.88-1.4s1.557-16.2,4.46-25.5a16.561,16.561,0,0,1,2.5-5.4C1134.6,723.032,1138.9,734.288,1138.9,734.288Z" transform="translate(-777.489 -418.922)" fill="#2c3a64"/>
      <path id="Trazado_206156" data-name="Trazado 206156" d="M998.815,656.077c-2.813-.907-10.837.258-18.9,1.835l-1.688-2.783-17.409-1.359s-5.745,12.739-2.6,20.857a2.944,2.944,0,0,0,2.946,1.983h.254s10.362-.006,13.726-.006c8.658,0,18.323-5.951,19.573-6.2,2.046-.409,2.865,3.684,4.911,7.981s19.237,19.033,19.237,19.033a15.135,15.135,0,0,0,3.734-.383,3.679,3.679,0,0,0,1.6-1.012S1005.159,658.124,998.815,656.077Z" transform="translate(-641.774 -359.063)" fill="#2f539b"/>
      <path id="Trazado_206157" data-name="Trazado 206157" d="M940.794,368.373c-2.44-.628-5.779,0-6.332.052-6.624.652-8.85,8.042-7.847,13.774.925,5.291-1.758,6.755-4.868,10.933-6.236,8.379-2.16,15.444,2.761,17.266,2.952,1.093,7.051-1.664,7.051-1.664.074.03,12.879-8.389,18.129-13.135C958.429,392.178,947.011,369.972,940.794,368.373Z" transform="translate(-610.106 -125.304)" fill="#2b478b"/>
      <path id="Trazado_206158" data-name="Trazado 206158" d="M1005.99,466.352c.174.613-2.723,1.74-4.935,1.326-2.08-.388-4.413-2.825-3.932-3.053.8-.379,1.332-1.32.9-6.407l.4.045,6.657.76s.02,2.074.175,4.016A13.152,13.152,0,0,0,1005.99,466.352Z" transform="translate(-674.323 -199.048)" fill="#ffb27d"/>
      <path id="Trazado_206159" data-name="Trazado 206159" d="M1011.179,459.223s.02,2.074.175,4.016c-3.674.2-5.886-2.988-6.832-4.777Z" transform="translate(-680.43 -199.249)" fill="#ed975d"/>
      <path id="Trazado_206160" data-name="Trazado 206160" d="M1005.45,407.263s-8.662.854-9.111-4.548-1.869-8.931,3.642-9.7,6.758,1.2,7.347,2.965S1007.692,406.9,1005.45,407.263Z" transform="translate(-673.325 -145.55)" fill="#ffb27d"/>
      <path id="Trazado_206161" data-name="Trazado 206161" d="M992.95,385.244s-1.091,6.6-6.024,8.166c-3.6,1.143-5.229.389-5.229.389a14.669,14.669,0,0,0,2.348-5.491,2.641,2.641,0,0,1,1.762-2.015C988.364,385.452,991.463,383.151,992.95,385.244Z" transform="translate(-661.753 -138.637)" fill="#2b478b"/>
      <path id="Trazado_206162" data-name="Trazado 206162" d="M1034.634,390.03a5.731,5.731,0,0,1,3.079,2.47,11.055,11.055,0,0,1,1.55,5.337s1.516-6.108-.694-8.381C1036.224,387.048,1034.634,390.03,1034.634,390.03Z" transform="translate(-705.07 -142.015)" fill="#2b478b"/>
      <path id="Trazado_206163" data-name="Trazado 206163" d="M956.8,510.789c.154.656.287,1.26.394,1.816.176.9.3,1.673.383,2.357.265,2.13.185,3.393.364,4.774a11.9,11.9,0,0,0,.648,2.6c.358.99,9.771,1.871,15.126,1.516a7.345,7.345,0,0,0,3.456-.747c1.91-1.659,1.72,1.99,1.982-15.471.127-8.517-7.227-16.1-7.227-16.1s-.587,3.638-7.88-.692c-.259-.152-3.131,4.1-5.9,9.338C955.1,505.963,955.936,507.187,956.8,510.789Z" transform="translate(-640.726 -225.739)" fill="#feca2e"/>
      <path id="Trazado_206164" data-name="Trazado 206164" d="M1134.6,776.607,1129,791.693a9.082,9.082,0,0,1-2.978-.272,12.911,12.911,0,0,1-2.88-1.4s1.557-16.2,4.46-25.5Z" transform="translate(-777.489 -449.687)" fill="#2b478b"/>
      <path id="Trazado_206165" data-name="Trazado 206165" d="M1043.615,494.656s7.5,1.272,8.385,4.5,6.969,21.3,6.969,21.3-4.717,1.61-6.479-.153-6.132-16.35-6.132-16.35Z" transform="translate(-712.418 -228.865)" fill="#feca2e"/>
      <path id="Trazado_206166" data-name="Trazado 206166" d="M1211.941,610.059l1.778-.705a4.244,4.244,0,0,1,1.646-.056c.578.182,2.023.163,2.029.4s-1.647.974-1.647.974l-.052-.02c.628,1.423,3.771,2.236,3.922,2.758.184.633-1.278.96-2.075,1.157a4.4,4.4,0,0,1-3.71-.837c-.7-.742-1.893-1.762-1.893-1.762Z" transform="translate(-850.154 -322.617)" fill="#ffb27d"/>
      <path id="Trazado_206167" data-name="Trazado 206167" d="M1037.722,453.883a1.489,1.489,0,0,0,1.322.888c.959,0,1.218-.143,1.4-.347a3,3,0,0,0,.361-.594A8.142,8.142,0,0,0,1037.722,453.883Z" transform="translate(-707.596 -195.357)" fill="#fff"/>
      <path id="Trazado_206168" data-name="Trazado 206168" d="M1084.614,590.4l18.167,1.387a5.665,5.665,0,0,1-.791,3.76s-16.389,3.2-20.667,1.568-3.795-9.354-3.795-9.354Z" transform="translate(-740.154 -305.046)" fill="#feca2e"/>
      <path id="Trazado_206169" data-name="Trazado 206169" d="M964.656,621.4c.265,2.13.185,3.393.364,4.774,6.813.022,15.923-5.262,15.923-5.262Z" transform="translate(-647.809 -332.174)" fill="#ed7d2b"/>
      <path id="Trazado_206170" data-name="Trazado 206170" d="M979.664,557.042s-10.614-.316-12.4-6.35c-1.966-6.628-4.167,2.726-4.167,2.726l1.171,5.97h11.645Z" transform="translate(-646.531 -272.775)" fill="#ed7d2b"/>
      <g id="Grupo_149143" data-name="Grupo 149143" transform="translate(336.747 263.955)">
        <path id="Trazado_206171" data-name="Trazado 206171" d="M1089.048,488.5l-.573-1.421a4.029,4.029,0,0,0-3.736-2.52h-10.581v35.378h43.771V491.269h-24.769A4.434,4.434,0,0,1,1089.048,488.5Z" transform="translate(-1074.157 -484.555)" fill="#bddcf6"/>
        <g id="Grupo_149142" data-name="Grupo 149142" transform="translate(6.602 11.996)">
          <path id="Trazado_206172" data-name="Trazado 206172" d="M1110.487,573.813v-2.55l8.945-3.918v2.606l-6.247,2.569,6.247,2.569v2.643Z" transform="translate(-1110.487 -564.296)" fill="#fff"/>
          <path id="Trazado_206173" data-name="Trazado 206173" d="M1173.993,550.566h2.384l-8.187,17.113h-2.384Z" transform="translate(-1155.753 -550.566)" fill="#fff"/>
          <path id="Trazado_206174" data-name="Trazado 206174" d="M1238.408,571.263v2.55l-8.945,3.918v-2.606l6.246-2.569-6.246-2.569v-2.643Z" transform="translate(-1207.841 -564.296)" fill="#fff"/>
        </g>
      </g>
      <path id="Trazado_206175" data-name="Trazado 206175" d="M1054.267,587.466l.768-1.205a6.179,6.179,0,0,0,1.46-.8c1.014-.712.88-1.778,1.386-1.666l.006,2.344-.055.008c2.175.581,4.719-.05,4.77.491.14,1.49-1.012,2.161-1.978,2.627a3.5,3.5,0,0,1-2.914.478c-.976-.3-2.512-.613-2.512-.613Z" transform="translate(-721.135 -301.801)" fill="#ffb27d"/>
      <path id="Trazado_206176" data-name="Trazado 206176" d="M947.177,490.863s-6.89.451-8.613,3.138-3.859,16.331-2.963,21.016,22.96-.9,22.96-.9l-.7-4.066s-12.734.074-13.459-1.585C943.433,506.267,947.177,490.863,947.177,490.863Z" transform="translate(-623.861 -225.761)" fill="#feca2e"/>
      <path id="Trazado_206177" data-name="Trazado 206177" d="M1183.253,515.479a2.565,2.565,0,0,0,2.6,1.67c.975-.2,2.244-2.3,1.129-2.759A3.169,3.169,0,0,0,1183.253,515.479Z" transform="translate(-826.677 -244.824)" fill="#ffb27d"/>
    </g>
  </g>
</svg>
