<svg xmlns="http://www.w3.org/2000/svg" width="148" height="148" viewBox="0 0 148 148">
  <g id="Grupo_172853" data-name="Grupo 172853" transform="translate(-727 -10690)">
    <g id="Grupo_109237" data-name="Grupo 109237" transform="translate(-6003.135 6718.18)">
      <g id="Elipse_4811" data-name="Elipse 4811">
        <circle id="Elipse_4816" data-name="Elipse 4816" cx="74" cy="74" r="74" transform="translate(6730.134 3971.82)" fill="#4dcedf"/>
        <circle id="Elipse_4817" data-name="Elipse 4817" cx="73.5" cy="73.5" r="73.5" transform="translate(6730.634 3972.32)" fill="#4dcedf"/>
      </g>
    </g>
    <g id="Grupo_149146" data-name="Grupo 149146" transform="translate(23.505 -335)">
      <path id="Trazado_206197" data-name="Trazado 206197" d="M369.346,93.631a4.225,4.225,0,0,1,2.94-1.714c.518-.11.675-.3.658-.809-.036-1.032,0-2.066-.018-3.1a.73.73,0,0,1,.543-.855,39.373,39.373,0,0,1,8.823-2.026,42.193,42.193,0,0,1,6.623-.193,29.784,29.784,0,0,1,17.2,6.246c.349.271.7.545,1.075.842,7.193-6.055,15.569-7.868,24.906-6.9-.723.687-1.324,1.243-1.907,1.817-.256.252-.552.155-.834.145a32.671,32.671,0,0,0-11.333,1.4,28.026,28.026,0,0,0-8.866,4.794c-.391.31-.311.66-.311,1.023q-.008,12.179,0,24.358v.9l-1.2-1.141v17.136c10.193-3.928,20.52-6.637,31.472-3.006a1.816,1.816,0,0,0,.066-.911q.009-10.806-.008-21.612a1.148,1.148,0,0,1,.723-1.223,14.346,14.346,0,0,0,4.439-3.027V139.2c-.308.221-.672.106-1.011.106q-15.277.011-30.552,0a2.412,2.412,0,0,0-1.466.453,6.366,6.366,0,0,1-4.5,1.174V118.557c-.578.236-.724.808-1.29,1.012v-.907q0-12.091.013-24.181a1.706,1.706,0,0,0-.739-1.534,27.25,27.25,0,0,0-12.638-5.481A36.577,36.577,0,0,0,375.208,88.9v43.69l1.172-.347,3.376,7.1h-10.41Z" transform="translate(363.149 10994.508)" fill="#122654"/>
      <path id="Trazado_206198" data-name="Trazado 206198" d="M409.271,162.414h-2.836v2.868H393.2V162.5a9.485,9.485,0,0,0-2.329-.088.848.848,0,0,1-.9-.52q-4.286-8.784-8.594-17.558c-.049-.1-.075-.21-.151-.426,2.155,0,4.232.008,6.31-.007.4,0,.48.281.6.535.633,1.288,1.258,2.58,2.034,3.854V127.644h7.093c.211.277.1.613.1.924.008,4.37.016,8.739-.007,13.109a1.151,1.151,0,0,0,.716,1.22c3.553,1.826,7.079,3.706,10.612,5.57.271.143.585.2.583.65C409.264,153.512,409.271,157.907,409.271,162.414Z" transform="translate(358.833 10978.974)" fill="#122654"/>
      <path id="Trazado_206199" data-name="Trazado 206199" d="M409.972,53.979h5.994V52.464h-1.531a9.463,9.463,0,0,1-.046-2.144h3.138l-.8-5.3H428.56l-.786,5.279h3.1a7.016,7.016,0,0,1,.043,2.111h-1.366a4.67,4.67,0,0,0-.093,1.567h5.215c0,1.221.013,2.368,0,3.513-.039,3.039.124,6.082-.086,9.117a2.66,2.66,0,0,1-2.854,2.626q-9.341.011-18.683,0a2.765,2.765,0,0,1-3.061-2.989C409.947,62.2,409.972,58.158,409.972,53.979Zm1.567,5.119h21.544V55.475H427.85v-3h-10.3V55.52h-6.009V59.1Zm.029,6.257c-.09,2.1.114,2.32,2.119,2.321h9.737c2.685,0,5.37.006,8.055,0,1.112,0,1.428-.269,1.61-1.32.053-.311.046-.632.07-1Zm2.168-2.3c-.091.377-.127.667.39.647.5-.02,1,0,1.505,0q7.262,0,14.524,0c.716,0,.716-.005.658-.642Zm3.027-1.6c-.152.51-.027.691.474.688q5.217-.026,10.435,0c.546,0,.664-.2.446-.686Z" transform="translate(348.397 11008.983)" fill="#122654"/>
      <path id="Trazado_206200" data-name="Trazado 206200" d="M461.31,77.6c-1.815-1.579-.8-2.813-.025-4.011a43.94,43.94,0,0,1,5.683-6.648c6.634-6.818,13.8-13.056,20.992-19.272.131-.113.281-.2.57-.413-1.109,3.689-2.151,7.227-3.239,10.75-2.491,8.07-4.9,16.167-7.961,24.048a33.98,33.98,0,0,1-1.639,3.7c-.927,1.739-1.128,1.847-3.078,1.616.935,2.156-.643,3.1-2,4.053a13.707,13.707,0,0,1-7.979,2.678,3.525,3.525,0,0,1-1.479-.179c-1.216-.586-1.821.031-2.321,1a3.951,3.951,0,0,1-.267.389l1.227.875a3.622,3.622,0,0,1-.709,1.165l-1.365-.878c-1.733,2.408-3.492,4.8-5.192,7.241a5.334,5.334,0,0,1-2.133,1.9,27.883,27.883,0,0,1-2.753,1.418l8.553-11.607-1.825-1.278.767-1.142,1.9,1.249,1.1-1.46a7.7,7.7,0,0,1-2.6-3.138c-1.046-2.67-.436-5.2.639-7.689a16.105,16.105,0,0,1,1.147-2.186C458.165,78.456,459.023,77.094,461.31,77.6Zm12.763-6.746.324.221L461,91.922a1.485,1.485,0,0,0,.781.278,11.757,11.757,0,0,0,8.761-3.017,1.055,1.055,0,0,0,.32-1.314c-.334-1.048-.585-2.123-.9-3.287l3.83,1.119c3.635-8.039,6.054-16.475,8.822-24.995l-2.937.82-.651-3.553c-4.749,4.377-9.408,8.681-13.706,13.354a24.681,24.681,0,0,0-2.957,3.739.862.862,0,0,0,.073,1.167c.777.946,1.481,1.952,2.34,3.1-1.5,0-2.82.022-4.135-.011a1.276,1.276,0,0,0-1.192.571,12.55,12.55,0,0,0-2.587,6.644,4.878,4.878,0,0,0,2.4,4.724Zm6.571-10.9c.72-.2,1.363-.38,2-.562a.654.654,0,0,0,.5-.444q.894-3.02,1.793-6.039c-1.629,1.225-3.121,2.547-4.615,3.865a.477.477,0,0,0-.171.472C480.317,58.14,480.477,59.029,480.643,59.96Z" transform="translate(334.714 11008.168)" fill="#122654"/>
    </g>
  </g>
</svg>
