<svg xmlns="http://www.w3.org/2000/svg" width="148" height="148" viewBox="0 0 148 148">
  <g id="Grupo_172852" data-name="Grupo 172852" transform="translate(-376 -10690)">
    <g id="Elipse_4811" data-name="Elipse 4811" transform="translate(-6188.734 6710.587)">
      <circle id="Elipse_4814" data-name="Elipse 4814" cx="74" cy="74" r="74" transform="translate(6564.735 3979.413)" fill="#4dcedf"/>
      <circle id="Elipse_4815" data-name="Elipse 4815" cx="73.5" cy="73.5" r="73.5" transform="translate(6565.235 3979.913)" fill="#4dcedf"/>
    </g>
    <g id="Grupo_149145" data-name="Grupo 149145" transform="translate(-45 -356.02)">
      <path id="Trazado_206178" data-name="Trazado 206178" d="M164.316,145.637l-1.911,2.136-7.985-7.978-9.917,9.912,7.776,7.751-2.12,2.12c-2.936-2.924-5.94-5.892-8.91-8.892a1.454,1.454,0,0,1,.058-2.206c.593-.615,1.252-1.165,1.863-1.725l-3.9-3.864a35.638,35.638,0,0,1-25.342,6.4,34.956,34.956,0,0,1-20.208-9.5,35.758,35.758,0,0,1-10.031-35.482l2.845.764a32.7,32.7,0,0,0,3.6,25.475,32.033,32.033,0,0,0,15.7,13.5,32.913,32.913,0,0,0,39.7-48.991l2.581-1.769c8.428,14.01,8.242,27.753-.609,41.571.576.535,1.236,1.122,1.865,1.741.611.6,1.191,1.231,1.929,2,.527-.575.98-1.1,1.469-1.6,1.152-1.163,1.837-1.164,2.979-.024q4.02,4.011,8.035,8.026c.163.163.35.3.526.454ZM145.472,137.2a39.719,39.719,0,0,1-3.614,3.646l3.383,3.488,3.775-3.7Z" transform="translate(376.573 11006.236)" fill="#122654"/>
      <path id="Trazado_206179" data-name="Trazado 206179" d="M96.441,55.036a9.837,9.837,0,0,1,3.672,1.723,7.557,7.557,0,0,1,2.7,5.193c.039.411.023.828.023,1.242,0,6.237,0,12.474,0,18.763H99.9a1.8,1.8,0,0,1-.079-.944Q99.811,72.007,99.816,63c0-3.114-1.84-4.947-4.96-4.949q-6.036,0-12.07,0h-.935c1.592,2.058,1.56,4.356,1.555,6.664q-.025,10.6,0,21.206c0,2.6,1.1,4.194,3.3,4.834a4.411,4.411,0,0,0,5.5-3.366c.07-.377.1-.763.167-1.14a1.368,1.368,0,0,1,1.211-1.223,6.63,6.63,0,0,1,.969-.073q6.789-.007,13.578,0c1.807,0,2.261.49,2.149,2.286a7.407,7.407,0,0,1-6.714,6.652q-8.248.259-16.5,0a7.424,7.424,0,0,1-6.611-6.439c-.25-2.629-.106-5.258-.122-7.887q-.05-8.429,0-16.858a4.564,4.564,0,0,0-3.821-4.6c-2.13-.36-4.479,1.276-4.7,2.9h5.539v2.953c-.138.169-.359.11-.557.11-2.16,0-4.319.012-6.479,0-1.409-.008-1.989-.639-1.913-2.03a7.539,7.539,0,0,1,5.172-6.63c.293-.091.636-.083.851-.364ZM106.89,88.061h-11.7a9.124,9.124,0,0,1-1.233,2.853h8.277c.3,0,.591,0,.887-.013A4.1,4.1,0,0,0,106.89,88.061Z" transform="translate(381.603 11019.983)" fill="#122654"/>
      <path id="Trazado_206180" data-name="Trazado 206180" d="M105.508,139.627c.224-2.874-.375-5.725.539-8.5a7.5,7.5,0,0,1,6.163-4.895c1.348-.135,2.7-.026,4.2-.16a20.683,20.683,0,0,1-1.937-1.94c-.561-.694-.985-1.469-1.486-2.2-.466-.676-.384-1.7-1.407-2.229,0,.678.01,1.2,0,1.721a1.6,1.6,0,0,1-1.812,1.787c-1.769.02-3.538.005-5.37.005a5.792,5.792,0,0,0,2.109,3.251l-1.791,2.39a8.55,8.55,0,0,1-3.434-5.364c-.561-2.719-.09-3.486,2.785-3.344,1.416.07,2.839.007,4.259,0,.052,0,.1-.049.2-.1v-8.88a14.811,14.811,0,0,1,2.564.032,14.155,14.155,0,0,0,2.42-.044c2.248.034,4.5.019,6.744.01a7.459,7.459,0,0,0,7.535-5.739,15.676,15.676,0,0,0,.264-1.743,1.5,1.5,0,0,1,1.55-1.5,21.072,21.072,0,0,1,2.837,0c1.124.076,1.631.69,1.641,1.891.015,1.774,0,3.549.006,5.324.006,1.235.539,1.751,1.792,1.769a8.57,8.57,0,0,1,2.548.2c.494-5.307-4.395-14.3-14.835-13.7a5.089,5.089,0,0,1-.074-1.482c-.02-.466,0-.934,0-1.479a17,17,0,0,1,9.665,2.17,16.311,16.311,0,0,1,8.369,14.637c.035,2.573,0,5.146.01,7.719a1.629,1.629,0,0,0,.116.931c1.738,0,3.507,0,5.275,0s2.3.709,1.972,2.469a10.858,10.858,0,0,1-3.4,6.153l-2.037-2.218a8.017,8.017,0,0,0,2.133-3.349c-1.688,0-3.306,0-4.924,0-1.678,0-2.16-.481-2.165-2.147,0-.41,0-.82,0-1.224-.439-.079-.62.109-.756.469a13.661,13.661,0,0,1-4.2,5.8c1.108,0,2-.019,2.884,0a8.722,8.722,0,0,1,3.776.762,7.443,7.443,0,0,1,4.308,6.71c.094,1.976.018,3.96.018,6.015h-2.939c-.216-.252-.09-.59-.1-.9-.062-1.89.113-3.785-.106-5.671a4.247,4.247,0,0,0-3.923-3.777c-1.088-.071-2.185-.013-3.4-.013,0,1.22,0,2.479,0,3.736,0,1.985-.861,2.564-2.707,1.833-1-.4-2-.785-3.168-1.241l2.694,5.393-2.706,1.366-3.14-6.259-3.152,6.252-2.705-1.346c.864-1.747,1.71-3.461,2.557-5.174l-.161-.133c-1.023.414-2.044.836-3.07,1.242-1.519.6-2.486-.065-2.5-1.722-.012-1.3,0-2.594,0-3.971a16.719,16.719,0,0,0-3.987.1c-2.118.44-3.406,2.275-3.431,4.74-.019,1.83,0,3.661,0,5.555Zm25.575-34.094a1.363,1.363,0,0,0-.392.855,10.527,10.527,0,0,1-8.489,7.667,41.056,41.056,0,0,1-5.137.133c-1.331.027-2.662-.021-3.992.02a1.406,1.406,0,0,0-1.457,1.275,1.367,1.367,0,0,0,1.3,1.4c1.259.094,1.714.837,2.058,1.928a10.568,10.568,0,0,0,20.127-.1,2.126,2.126,0,0,1,2.047-1.82,1.4,1.4,0,0,0,1.343-1.459,1.467,1.467,0,0,0-1.505-1.233c-.56-.032-1.124,0-1.685-.014a4.364,4.364,0,0,1-4.207-4.008C131.018,108.66,131.082,107.132,131.082,105.533ZM119.121,131.39l5.362-2.142h-5.362Zm11.888-2.157H125.9l-.032.119,5.139,2.044Z" transform="translate(369.859 11005.731)" fill="#122654"/>
      <path id="Trazado_206181" data-name="Trazado 206181" d="M163.128,84.007c-1.42,0-2.773.005-4.124,0-1.264-.006-1.865-.555-1.872-1.822q-.034-5.676,0-11.352c.008-1.268.63-1.834,1.963-1.846,2.247-.019,4.494-.006,6.741-.006q8.028,0,16.055,0c1.77,0,2.259.488,2.26,2.257q0,5.276,0,10.553c0,1.753-.459,2.215-2.177,2.215-3.311,0-6.623.015-9.935-.013a1.642,1.642,0,0,0-1.308.555c-1.525,1.567-3.084,3.1-4.63,4.651-.563.564-1.156,1.042-2.024.665-.847-.368-.971-1.089-.956-1.907C163.145,86.665,163.128,85.372,163.128,84.007Zm17.919-11.879H160.238v8.785a.847.847,0,0,0,.2.069q1.818.008,3.637.008c1.631,0,2.073.452,2.077,2.111q0,.773,0,1.545A20.613,20.613,0,0,0,168.975,82a2.871,2.871,0,0,1,2.409-1.026c1.979.067,3.962.02,5.942.02h3.72Z" transform="translate(349.719 11014.974)" fill="#122654"/>
      <path id="Trazado_206182" data-name="Trazado 206182" d="M85.006,155.694l2.849-.91c3.646,10.266,10.4,17.536,20.75,21.079,10.315,3.532,20.09,2,29.306-3.891l1.643,2.375C122.932,186.8,93.7,181.293,85.006,155.694Z" transform="translate(375.634 10984.136)" fill="#122654"/>
      <path id="Trazado_206183" data-name="Trazado 206183" d="M123.835,70.284a36.234,36.234,0,0,1,20.347.45l-.9,2.886a33.663,33.663,0,0,0-18.654-.407Z" transform="translate(361.679 11014.95)" fill="#122654"/>
      <path id="Trazado_206184" data-name="Trazado 206184" d="M124.625,89.567l-.794-2.926a36.13,36.13,0,0,1,20.355.455l-.914,2.881A33.621,33.621,0,0,0,124.625,89.567Z" transform="translate(361.681 11009.072)" fill="#122654"/>
      <path id="Trazado_206185" data-name="Trazado 206185" d="M96.423,76.733v-2.97h10.451v2.97Z" transform="translate(371.531 11013.253)" fill="#122654"/>
      <path id="Trazado_206186" data-name="Trazado 206186" d="M96.5,83.072h10.395v2.946H96.5Z" transform="translate(371.503 11009.907)" fill="#122654"/>
      <path id="Trazado_206187" data-name="Trazado 206187" d="M96.431,95.434V92.5h10.455v2.937Z" transform="translate(371.528 11006.521)" fill="#122654"/>
      <path id="Trazado_206194" data-name="Trazado 206194" d="M188.279,78.4v2.955h-2.971V78.4Z" transform="translate(339.587 11011.588)" fill="#122654"/>
      <path id="Trazado_206195" data-name="Trazado 206195" d="M169.543,78.407v2.946H166.6V78.407Z" transform="translate(346.31 11011.584)" fill="#122654"/>
      <path id="Trazado_206196" data-name="Trazado 206196" d="M176,78.358h2.885v3H176Z" transform="translate(342.931 11011.602)" fill="#122654"/>
    </g>
  </g>
</svg>
