<svg xmlns="http://www.w3.org/2000/svg" width="432" height="408.088" viewBox="0 0 432 408.088">
  <g id="Grupo_172846" data-name="Grupo 172846" transform="translate(5714 4488.314)">
    <path id="Trazado_1383" data-name="Trazado 1383" d="M2869.75,4849.348c-97.489-10.762-131.359,84.24-106.4,151.586,25.164,67.893-16.55,83.631-4.631,179.1,12.067,96.666,163.038,47.586,163.038,47.586s131.278-15.381,191.786-33.6c60.184-18.125,38.409-191.608,36.614-233.812-1.781-41.959,1.662-78.421-64.421-114.928C3019.781,4808.84,2966.917,4860.07,2869.75,4849.348Z" transform="translate(-8437.455 -9320.306)" fill="#bddcf6"/>
    <g id="Grupo_148884" data-name="Grupo 148884" transform="translate(-5751.144 -4544.821)">
      <g id="Grupo_148873" data-name="Grupo 148873">
        <path id="Trazado_203298" data-name="Trazado 203298" d="M462.856,124.8q-.133-15.3-.272-30.594c-.011-1.083-.166-7.885-.44-8.622-.257-1.641-52.845-.1-63.174-.315-10.142-.216-60.675.453-60.963.469-1.349.075-1.108,4.839-1.139,4.838,0,.719-.094,136.4-.06,204.474.3.892,21.793.65,31.764.681,10.373.033,20.745-.116,31.117-.174,10.184-.057,56.383.479,61.409-1.04.149-.044.258-.184.393-.264a2.187,2.187,0,0,0,1.143-.964c.163-31.95.227-63.93.067-95.577C462.577,173.278,462.7,149.02,462.856,124.8Z" fill="#0f2771"/>
        <path id="Trazado_203299" data-name="Trazado 203299" d="M462.6,96.515q-.011-1.155-.02-2.308c-.011-1.083-.166-7.885-.44-8.622-.257-1.641-52.845-.1-63.174-.315-10.142-.216-60.675.453-60.963.469-1.349.075-1.108,4.839-1.139,4.838,0,.091,0,2.38,0,6.437,8.081.186,21.049.088,28.413.109,11.618.033,23.235-.115,34.852-.172C409.626,96.9,447.08,97.267,462.6,96.515Z" fill="#4dd0e1"/>
        <path id="Trazado_203300" data-name="Trazado 203300" d="M454.594,92.079a2.451,2.451,0,0,1-.149-2.209,2.807,2.807,0,0,1,.422-.644,2.594,2.594,0,0,1,.351-.328,2.5,2.5,0,0,1,.79-.389,2.839,2.839,0,0,1,.557-.126,3.339,3.339,0,0,1,.574.023,2.408,2.408,0,0,1,1.445.761,2.493,2.493,0,0,1-3.174,3.791A2.466,2.466,0,0,1,454.594,92.079Z" fill="#feca2e"/>
        <path id="Trazado_203301" data-name="Trazado 203301" d="M447.209,92.079a2.451,2.451,0,0,1-.149-2.209,2.807,2.807,0,0,1,.422-.644,2.594,2.594,0,0,1,.351-.328,2.5,2.5,0,0,1,.79-.389,2.839,2.839,0,0,1,.557-.126,3.339,3.339,0,0,1,.574.023,2.408,2.408,0,0,1,1.445.761,2.493,2.493,0,0,1-3.174,3.791A2.466,2.466,0,0,1,447.209,92.079Z" fill="#fff"/>
        <path id="Trazado_203302" data-name="Trazado 203302" d="M439.824,92.079a2.451,2.451,0,0,1-.149-2.209,2.809,2.809,0,0,1,.422-.644,2.594,2.594,0,0,1,.351-.328,2.51,2.51,0,0,1,.79-.389,2.838,2.838,0,0,1,.557-.126,3.338,3.338,0,0,1,.574.023,2.408,2.408,0,0,1,1.445.761,2.493,2.493,0,0,1-3.174,3.791A2.466,2.466,0,0,1,439.824,92.079Z" fill="#fff"/>
        <path id="Trazado_203303" data-name="Trazado 203303" d="M388.809,104.114c-5.659.16-18.765.078-22.119.088-4.15.013-8.3.045-12.45.037-2.487,0-6.76.014-9.659-.02a2.432,2.432,0,0,0-.11.85c0,.031,0,1.2,0,3.176,2.808.046,7.446.024,10.061.029,4.054.008,8.108-.025,12.162-.037,3.413-.01,17.171.079,22.265-.11-.011-.744-.02-1.489-.032-2.233C388.921,105.687,388.881,104.552,388.809,104.114Z" fill="#4dd0e1"/>
        <path id="Trazado_203304" data-name="Trazado 203304" d="M383.264,115.026c-2.714.16-9,.078-10.61.088-1.991.013-3.982.045-5.973.037-1.193,0-3.243.014-4.633-.02a5.069,5.069,0,0,0-.053.85c0,.031,0,1.2,0,3.176,1.347.046,3.572.024,4.826.029,1.945.008,3.889-.025,5.834-.037,1.637-.01,8.237.08,10.681-.11q-.008-1.116-.015-2.233C383.318,116.6,383.3,115.464,383.264,115.026Z" fill="#feca2e"/>
        <path id="Trazado_203305" data-name="Trazado 203305" d="M400.151,115.026c-1.831.16-6.072.078-7.158.088-1.343.013-2.686.045-4.029.037-.8,0-2.187.014-3.126-.02a7.451,7.451,0,0,0-.035.85c0,.031,0,1.2,0,3.176.909.046,2.41.024,3.256.029,1.312.008,2.624-.025,3.936-.037,1.1-.01,5.556.08,7.205-.11q-.006-1.116-.01-2.233C400.188,116.6,400.175,115.464,400.151,115.026Z" fill="#bddcf6"/>
        <path id="Trazado_203306" data-name="Trazado 203306" d="M446.9,123.4c-9.879.16-32.76.078-38.614.088-7.245.013-14.49.045-21.736.037-4.341,0-11.8.014-16.862-.02a1.484,1.484,0,0,0-.192.85c0,.031,0,1.2,0,3.176,4.9.046,13,.024,17.563.029,7.078.008,14.155-.025,21.232-.037,5.958-.01,29.977.079,38.87-.11-.019-.744-.036-1.489-.055-2.233A11.5,11.5,0,0,0,446.9,123.4Z" fill="#fff"/>
        <path id="Trazado_203307" data-name="Trazado 203307" d="M446.9,130.016c-9.879.161-32.76.079-38.614.089-7.245.012-14.49.045-21.736.037-4.341-.005-11.8.013-16.862-.021a1.485,1.485,0,0,0-.192.85c0,.032,0,1.2,0,3.177,4.9.045,13,.023,17.563.028,7.078.008,14.155-.024,21.232-.036,5.958-.011,29.977.079,38.87-.111-.019-.744-.036-1.488-.055-2.233A11.5,11.5,0,0,0,446.9,130.016Z" fill="#fff"/>
        <path id="Trazado_203308" data-name="Trazado 203308" d="M446.9,136.63c-9.879.16-32.76.078-38.614.088-7.245.012-14.49.045-21.736.037-4.341-.005-11.8.014-16.862-.02a1.483,1.483,0,0,0-.192.85c0,.031,0,1.2,0,3.176,4.9.046,13,.023,17.563.029,7.078.008,14.155-.025,21.232-.037,5.958-.01,29.977.079,38.87-.11-.019-.744-.036-1.489-.055-2.233A11.489,11.489,0,0,0,446.9,136.63Z" fill="#fff"/>
        <path id="Trazado_203309" data-name="Trazado 203309" d="M421.685,143.243c-6.662.161-22.09.079-26.037.089-4.886.012-9.771.045-14.657.036-2.927,0-7.957.014-11.37-.02a2.123,2.123,0,0,0-.129.85c0,.032,0,1.2,0,3.176,3.3.046,8.765.024,11.843.029,4.772.008,9.544-.025,14.316-.037,4.018-.01,20.214.08,26.21-.11-.013-.744-.024-1.489-.038-2.233A16.629,16.629,0,0,0,421.685,143.243Z" fill="#fff"/>
        <path id="Trazado_203310" data-name="Trazado 203310" d="M383.289,149.856c-1.761.161-5.84.079-6.884.089-1.292.012-2.583.045-3.875.037-.774,0-2.1.014-3.006-.02a7.619,7.619,0,0,0-.034.85c0,.031,0,1.2,0,3.176.874.045,2.317.023,3.131.028,1.262.009,2.524-.024,3.785-.036,1.062-.011,5.344.079,6.93-.11q-.006-1.117-.01-2.234C383.324,151.429,383.311,150.294,383.289,149.856Z" fill="#feca2e"/>
        <path id="Trazado_203311" data-name="Trazado 203311" d="M383.289,156.47c-1.761.16-5.84.078-6.884.088-1.292.012-2.583.045-3.875.037-.774-.005-2.1.014-3.006-.02a7.62,7.62,0,0,0-.034.85c0,.031,0,1.2,0,3.176.874.046,2.317.024,3.131.029,1.262.008,2.524-.025,3.785-.037,1.062-.01,5.344.079,6.93-.11q-.006-1.116-.01-2.233C383.324,158.043,383.311,156.908,383.289,156.47Z" fill="#bddcf6"/>
        <path id="Trazado_203312" data-name="Trazado 203312" d="M446.9,163.083c-9.879.161-32.76.079-38.614.089-7.245.012-14.49.045-21.736.037-4.341-.005-11.8.013-16.862-.021a1.485,1.485,0,0,0-.192.85c0,.032,0,1.2,0,3.177,4.9.045,13,.023,17.563.028,7.078.008,14.155-.024,21.232-.036,5.958-.011,29.977.079,38.87-.111-.019-.744-.036-1.488-.055-2.233A11.5,11.5,0,0,0,446.9,163.083Z" fill="#fff"/>
        <path id="Trazado_203313" data-name="Trazado 203313" d="M423.388,115.026c-2.631.16-8.723.078-10.282.088-1.929.013-3.858.045-5.787.037-1.157,0-3.143.014-4.49-.02a5.092,5.092,0,0,0-.051.85c0,.031,0,1.2,0,3.176,1.3.046,3.461.024,4.677.029,1.884.008,3.769-.025,5.653-.037,1.587-.01,7.982.08,10.35-.11q-.008-1.116-.015-2.233C423.44,116.6,423.421,115.464,423.388,115.026Z" fill="#bddcf6"/>
        <path id="Trazado_203314" data-name="Trazado 203314" d="M383.264,178.735c-2.714.16-9,.078-10.61.089-1.991.012-3.982.044-5.973.036-1.193-.005-3.243.014-4.633-.02a5.064,5.064,0,0,0-.053.85c0,.031,0,1.2,0,3.176,1.347.046,3.572.024,4.826.029,1.945.008,3.889-.025,5.834-.037,1.637-.01,8.237.08,10.681-.11q-.008-1.116-.015-2.233C383.318,180.308,383.3,179.173,383.264,178.735Z" fill="#feca2e"/>
        <path id="Trazado_203315" data-name="Trazado 203315" d="M383.264,187.773c-2.714.161-9,.079-10.61.089-1.991.012-3.982.045-5.973.037-1.193-.005-3.243.013-4.633-.021a5.073,5.073,0,0,0-.053.85c0,.032,0,1.2,0,3.177,1.347.045,3.572.023,4.826.028,1.945.008,3.889-.024,5.834-.037,1.637-.01,8.237.08,10.681-.109q-.008-1.117-.015-2.234C383.318,189.346,383.3,188.211,383.264,187.773Z" fill="#fff"/>
        <path id="Trazado_203316" data-name="Trazado 203316" d="M379.859,195.709c-2.28.161-7.561.079-8.912.089-1.672.012-3.344.045-5.016.037-1-.005-2.724.013-3.892-.021a5.954,5.954,0,0,0-.044.85c0,.032,0,1.2,0,3.177,1.131.045,3,.023,4.053.028,1.634.008,3.267-.024,4.9-.036,1.375-.011,6.919.079,8.971-.11q-.006-1.118-.013-2.234C379.9,197.282,379.887,196.147,379.859,195.709Z" fill="#feca2e"/>
        <path id="Trazado_203317" data-name="Trazado 203317" d="M400.151,178.735c-1.831.16-6.072.078-7.158.089-1.343.012-2.686.044-4.029.036-.8-.005-2.187.014-3.126-.02a7.445,7.445,0,0,0-.035.85c0,.031,0,1.2,0,3.176.909.046,2.41.024,3.256.029,1.312.008,2.624-.025,3.936-.037,1.1-.01,5.556.08,7.205-.11q-.006-1.116-.01-2.233C400.188,180.308,400.175,179.173,400.151,178.735Z" fill="#bddcf6"/>
        <path id="Trazado_203318" data-name="Trazado 203318" d="M446.9,210.479c-9.879.161-32.76.079-38.614.089-7.245.012-14.49.045-21.736.036-4.341,0-11.8.014-16.862-.02a1.485,1.485,0,0,0-.192.85c0,.032,0,1.2,0,3.176,4.9.046,13,.024,17.563.029,7.078.008,14.155-.024,21.232-.037,5.958-.01,29.977.08,38.87-.109-.019-.745-.036-1.489-.055-2.234A11.5,11.5,0,0,0,446.9,210.479Z" fill="#fff"/>
        <path id="Trazado_203319" data-name="Trazado 203319" d="M446.9,217.092c-9.879.161-32.76.079-38.614.089-7.245.012-14.49.045-21.736.037-4.341-.005-11.8.013-16.862-.02a1.483,1.483,0,0,0-.192.85c0,.031,0,1.2,0,3.176,4.9.045,13,.023,17.563.029,7.078.008,14.155-.025,21.232-.037,5.958-.011,29.977.079,38.87-.11-.019-.745-.036-1.489-.055-2.234A11.5,11.5,0,0,0,446.9,217.092Z" fill="#fff"/>
        <path id="Trazado_203320" data-name="Trazado 203320" d="M446.9,275.951c-9.879.161-32.76.079-38.614.089-7.245.012-14.49.045-21.736.037-4.341-.005-11.8.014-16.862-.02a1.483,1.483,0,0,0-.192.85c0,.031,0,1.2,0,3.176,4.9.046,13,.023,17.563.029,7.078.008,14.155-.025,21.232-.037,5.958-.01,29.977.079,38.87-.11-.019-.745-.036-1.489-.055-2.233A11.5,11.5,0,0,0,446.9,275.951Z" fill="#fff"/>
        <path id="Trazado_203321" data-name="Trazado 203321" d="M446.9,283.006c-9.879.16-32.76.078-38.614.088-7.245.013-14.49.045-21.736.037-4.341-.005-11.8.014-16.862-.02a1.484,1.484,0,0,0-.192.85c0,.032,0,1.2,0,3.176,4.9.046,13,.024,17.563.029,7.078.008,14.155-.025,21.232-.037,5.958-.01,29.977.08,38.87-.11-.019-.744-.036-1.489-.055-2.233A11.5,11.5,0,0,0,446.9,283.006Z" fill="#fff"/>
        <path id="Trazado_203322" data-name="Trazado 203322" d="M413.28,223.706c-5.589.161-18.532.078-21.844.088-4.1.013-8.2.045-12.3.037-2.456,0-6.676.014-9.539-.02a2.5,2.5,0,0,0-.109.85c0,.032,0,1.2,0,3.176,2.773.046,7.353.024,9.936.029,4,.008,8.008-.025,12.011-.037,3.371-.01,16.959.079,21.99-.11-.011-.744-.02-1.489-.032-2.233C413.391,225.279,413.351,224.144,413.28,223.706Z" fill="#fff"/>
        <path id="Trazado_203323" data-name="Trazado 203323" d="M397.021,230.319c-3.514.161-11.652.079-13.734.089-2.577.012-5.154.045-7.731.037-1.544-.005-4.2.013-6-.02a3.929,3.929,0,0,0-.069.85c0,.031,0,1.2,0,3.176,1.743.045,4.623.023,6.247.028,2.517.009,5.034-.024,7.552-.036,2.119-.011,10.662.079,13.825-.11q-.011-1.117-.02-2.234C397.091,231.892,397.066,230.757,397.021,230.319Z" fill="#fff"/>
        <path id="Trazado_203324" data-name="Trazado 203324" d="M390.649,236.932c-2.7.161-8.955.079-10.555.089-1.981.012-3.961.045-5.942.037-1.187-.005-3.226.014-4.609-.02a5.064,5.064,0,0,0-.053.85c0,.031,0,1.2,0,3.176,1.34.046,3.553.024,4.8.029,1.935.008,3.87-.025,5.8-.037,1.629-.01,8.2.079,10.626-.11l-.015-2.233C390.7,238.506,390.684,237.371,390.649,236.932Z" fill="#fff"/>
        <path id="Trazado_203325" data-name="Trazado 203325" d="M428.221,243.546c-7.5.161-24.856.079-29.3.089-5.5.012-11,.045-16.492.036-3.294,0-8.954.014-12.794-.02a1.891,1.891,0,0,0-.146.85c0,.032,0,1.2,0,3.176,3.719.046,9.862.024,13.326.029,5.37.008,10.74-.024,16.109-.037,4.521-.01,22.745.08,29.492-.11q-.021-1.116-.042-2.233A14.872,14.872,0,0,0,428.221,243.546Z" fill="#fff"/>
        <path id="Trazado_203326" data-name="Trazado 203326" d="M434.593,250.159c-8.309.161-27.553.079-32.476.089-6.093.012-12.187.045-18.281.037-3.652-.005-9.926.013-14.182-.02a1.738,1.738,0,0,0-.162.85c0,.031,0,1.2,0,3.176,4.122.045,10.932.023,14.771.029,5.953.008,11.9-.025,17.858-.037,5.01-.011,25.212.079,32.691-.11-.016-.745-.03-1.489-.047-2.234A13.415,13.415,0,0,0,434.593,250.159Z" fill="#fff"/>
        <path id="Trazado_203327" data-name="Trazado 203327" d="M423.388,178.735c-2.631.16-8.723.078-10.282.089-1.929.012-3.858.044-5.787.036-1.157-.005-3.143.014-4.49-.02a5.088,5.088,0,0,0-.051.85c0,.031,0,1.2,0,3.176,1.3.046,3.461.024,4.677.029,1.884.008,3.769-.025,5.653-.037,1.587-.01,7.982.08,10.35-.11q-.008-1.116-.015-2.233C423.44,180.308,423.421,179.173,423.388,178.735Z" fill="#bddcf6"/>
        <path id="Trazado_203328" data-name="Trazado 203328" d="M383.264,266.693c-2.714.16-9,.078-10.61.088-1.991.013-3.982.045-5.973.037-1.193-.005-3.243.014-4.633-.02a5.069,5.069,0,0,0-.053.85c0,.031,0,1.2,0,3.176,1.347.046,3.572.024,4.826.029,1.945.008,3.889-.025,5.834-.037,1.637-.01,8.237.08,10.681-.11q-.008-1.116-.015-2.233C383.318,268.266,383.3,267.131,383.264,266.693Z" fill="#feca2e"/>
        <path id="Trazado_203329" data-name="Trazado 203329" d="M400.151,266.693c-1.831.16-6.072.078-7.158.088-1.343.013-2.686.045-4.029.037-.8-.005-2.187.014-3.126-.02a7.451,7.451,0,0,0-.035.85c0,.031,0,1.2,0,3.176.909.046,2.41.024,3.256.029,1.312.008,2.624-.025,3.936-.037,1.1-.01,5.556.08,7.205-.11q-.006-1.116-.01-2.233C400.188,268.266,400.175,267.131,400.151,266.693Z" fill="#bddcf6"/>
        <path id="Trazado_203330" data-name="Trazado 203330" d="M444.371,266.693c-5.309.16-17.6.078-20.749.088-3.893.013-7.786.045-11.679.037-2.333-.005-6.342.014-9.061-.02a2.6,2.6,0,0,0-.1.85c0,.031,0,1.2,0,3.176,2.634.046,6.985.024,9.438.029,3.8.008,7.606-.025,11.409-.037,3.2-.01,16.107.08,20.886-.11q-.015-1.116-.03-2.233C444.476,268.266,444.438,267.131,444.371,266.693Z" fill="#bddcf6"/>
      </g>
      <g id="Grupo_148876" data-name="Grupo 148876">
        <path id="Trazado_203331" data-name="Trazado 203331" d="M384.377,396.379c1.617-49.041,2.133-97.666,1.852-147.785a46.68,46.68,0,0,0-.813-8.4c-.522-2.767-1.992-6.5-4.807-6.48l-98.152.561L257,234.422c-39.531.226-80.049.224-119.3.1-2.787-.009-4.406-.427-6.589.056a14.163,14.163,0,0,0-5.467,2.038c-3.112,2.293-4.723,7.707-4.6,11.57q2.44,74.44.554,148.938c10.908,2.76,22.241,1.1,33.492,1C232.425,397.508,308.026,400.141,384.377,396.379Z" fill="#313b59"/>
        <path id="Trazado_203332" data-name="Trazado 203332" d="M235.821,414.69c20.55-.633,104.116-.813,111.571-.633,22.6.546,33.005.828,55.6.16a2.838,2.838,0,0,0,1.593-.135,1.336,1.336,0,0,0,.828-1.251c-.28-4.442-.066-9.117-.212-13.554a3.262,3.262,0,0,0-.337-2.006,2.827,2.827,0,0,0-2.056-.894c-101.3-.039-193.7,1.131-304.473,0-1.825-.018-3.668.886-3.67,2.257-.006,4.7,0,9.027-.082,14.3a1.9,1.9,0,0,0,1.684,2.017c23.7.614,79.316-.193,85.882-.138C194.946,414.917,223.025,414.583,235.821,414.69Z" fill="#0f2771"/>
        <path id="Trazado_203333" data-name="Trazado 203333" d="M220.139,399c.358,1.593,2.364,2.087,3.994,2.152,2.722.11,51.833,1.26,71.293.12a16.573,16.573,0,0,0,3.678-.714,1.514,1.514,0,0,0,.247-1.076c-.025-.951-.063-1.9-.1-2.852-26.232.1-52.51.2-79.341.233A8.582,8.582,0,0,0,220.139,399Z" fill="#313b59"/>
        <path id="Trazado_203334" data-name="Trazado 203334" d="M377.673,389.235c1.168-48.51.687-146.64.687-147.059q-25.708-.048-51.418-.086l-26.23-.042c-57.371-.092-115.184.482-172.543,1.627q1.134,72.775-.618,145.56C210.169,388.272,295.052,388.732,377.673,389.235Z" fill="#fff"/>
        <g id="Grupo_148874" data-name="Grupo 148874">
          <path id="Trazado_203335" data-name="Trazado 203335" d="M267.918,281.174q-.144-8.343-.293-16.687c-.012-.59-.178-4.3-.469-4.7-.273-.895-56.161-.06-67.138-.181-10.778-.12-64.482.237-64.789.246-1.434.041-1.176,2.639-1.21,2.638,0,.392-.079,74.395-.032,111.523.323.486,23.16.357,33.757.376,11.024.019,22.047-.061,33.07-.09,10.823-.03,59.921.269,65.262-.558a2.858,2.858,0,0,0,.418-.145,2.584,2.584,0,0,0,1.214-.525c.168-17.426.232-34.868.057-52.129C267.63,307.613,267.755,294.383,267.918,281.174Z" fill="#0f2771"/>
          <path id="Trazado_203336" data-name="Trazado 203336" d="M267.72,269.9q-.048-2.706-.1-5.413c-.012-.59-.178-4.3-.469-4.7-.273-.9-56.161-.06-67.138-.181-10.778-.12-64.482.237-64.789.246-1.434.041-1.176,2.639-1.21,2.638,0,.076,0,2.915-.006,7.7,8.437.111,22.377.058,30.236.07,12.185.02,24.369-.059,36.553-.089C211.059,270.142,252.411,270.359,267.72,269.9Z" fill="#4dd0e1"/>
          <path id="Trazado_203337" data-name="Trazado 203337" d="M259.045,266.336a2.787,2.787,0,0,1-.169-2.513,3.2,3.2,0,0,1,.48-.732,2.93,2.93,0,0,1,.4-.373,2.827,2.827,0,0,1,.9-.443,3.223,3.223,0,0,1,.633-.143,3.66,3.66,0,0,1,.653.026,2.736,2.736,0,0,1,1.644.865,2.835,2.835,0,0,1-3.61,4.312A2.807,2.807,0,0,1,259.045,266.336Z" fill="#feca2e"/>
          <path id="Trazado_203338" data-name="Trazado 203338" d="M250.645,266.336a2.788,2.788,0,0,1-.169-2.513,3.23,3.23,0,0,1,.479-.732,3,3,0,0,1,.4-.373,2.827,2.827,0,0,1,.9-.443,3.223,3.223,0,0,1,.633-.143,3.659,3.659,0,0,1,.653.026,2.736,2.736,0,0,1,1.644.865,2.835,2.835,0,0,1-3.61,4.312A2.807,2.807,0,0,1,250.645,266.336Z" fill="#fff"/>
          <path id="Trazado_203339" data-name="Trazado 203339" d="M242.245,266.336a2.788,2.788,0,0,1-.169-2.513,3.2,3.2,0,0,1,.479-.732,3,3,0,0,1,.4-.373,2.832,2.832,0,0,1,.9-.443,3.248,3.248,0,0,1,.634-.143,3.659,3.659,0,0,1,.653.026,2.739,2.739,0,0,1,1.644.865,2.835,2.835,0,0,1-3.61,4.312A2.807,2.807,0,0,1,242.245,266.336Z" fill="#fff"/>
          <path id="Trazado_203340" data-name="Trazado 203340" d="M214.342,276.431c-9.268.182-30.732.089-36.224.1-6.8.014-13.593.051-20.39.042-4.073-.006-11.071.015-15.818-.024a2.011,2.011,0,0,0-.181.967c0,.036,0,1.368,0,3.613,4.6.052,12.193.027,16.476.033,6.639.009,13.278-.028,19.917-.042,5.589-.012,28.122.09,36.464-.125q-.027-1.271-.052-2.54A15.858,15.858,0,0,0,214.342,276.431Z" fill="#4dd0e1"/>
          <path id="Trazado_203341" data-name="Trazado 203341" d="M180.273,286.9c-3.158.128-10.471.063-12.342.071-2.316.009-4.632.035-6.947.029-1.388,0-3.773.011-5.39-.016a2.772,2.772,0,0,0-.062.672c0,.025,0,.951,0,2.512,1.567.037,4.155.019,5.614.023,2.262.007,4.524-.019,6.786-.029,1.9-.008,9.582.063,12.424-.087q-.009-.884-.017-1.766C180.336,288.144,180.313,287.246,180.273,286.9Z" fill="#feca2e"/>
          <path id="Trazado_203342" data-name="Trazado 203342" d="M231.31,294.422c-7.632.127-25.3.062-29.827.07-5.6.01-11.193.036-16.79.029-3.354,0-9.116.011-13.025-.016a1.21,1.21,0,0,0-.149.673c0,.024,0,.951,0,2.512,3.786.036,10.041.019,13.567.023,5.467.006,10.934-.02,16.4-.029,4.6-.009,23.156.062,30.025-.087-.014-.589-.027-1.178-.043-1.767A9.28,9.28,0,0,0,231.31,294.422Z" fill="#fff"/>
          <path id="Trazado_203343" data-name="Trazado 203343" d="M206.661,300.44c-4.485.127-14.873.062-17.531.07-3.29.01-6.579.036-9.869.029-1.971,0-5.358.011-7.655-.016a1.934,1.934,0,0,0-.088.673c0,.024,0,.951,0,2.512,2.226.036,5.9.019,7.974.023,3.214.006,6.427-.02,9.64-.029,2.705-.009,13.611.062,17.648-.087q-.012-.883-.025-1.767C206.75,301.684,206.718,300.787,206.661,300.44Z" fill="#bddcf6"/>
          <path id="Trazado_203344" data-name="Trazado 203344" d="M221.375,306.458c-6.363.127-21.1.062-24.871.07-4.667.01-9.333.036-14,.029-2.8,0-7.6.011-10.861-.016a1.406,1.406,0,0,0-.124.673c0,.024,0,.951,0,2.512,3.157.036,8.373.019,11.313.023,4.559.006,9.117-.02,13.676-.029,3.837-.009,19.308.062,25.036-.087q-.018-.883-.036-1.767A10.841,10.841,0,0,0,221.375,306.458Z" fill="#fff"/>
          <path id="Trazado_203345" data-name="Trazado 203345" d="M231.31,312.476c-7.632.127-25.3.062-29.827.07-5.6.01-11.193.036-16.79.029-3.354,0-9.116.011-13.025-.016a1.21,1.21,0,0,0-.149.673c0,.024,0,.951,0,2.512,3.786.036,10.041.019,13.567.023,5.467.006,10.934-.02,16.4-.029,4.6-.009,23.156.062,30.025-.087-.014-.589-.027-1.178-.043-1.767A9.266,9.266,0,0,0,231.31,312.476Z" fill="#fff"/>
          <path id="Trazado_203346" data-name="Trazado 203346" d="M221,318.494c-6.316.127-20.943.062-24.685.07-4.631.01-9.263.036-13.895.029-2.775,0-7.544.011-10.779-.016a1.413,1.413,0,0,0-.123.673c0,.024,0,.951,0,2.512,3.133.036,8.31.019,11.228.023,4.524.006,9.049-.02,13.573-.029,3.808-.009,19.163.062,24.848-.088q-.018-.882-.036-1.766A11.151,11.151,0,0,0,221,318.494Z" fill="#bddcf6"/>
          <path id="Trazado_203347" data-name="Trazado 203347" d="M180.273,330.53c-3.158.127-10.471.062-12.342.07-2.316.01-4.632.036-6.947.029-1.388,0-3.773.011-5.39-.016a2.779,2.779,0,0,0-.062.672c0,.025,0,.952,0,2.513,1.567.036,4.155.019,5.614.023,2.262.006,4.524-.02,6.786-.029,1.9-.009,9.582.062,12.424-.088q-.009-.882-.017-1.766C180.336,331.774,180.313,330.876,180.273,330.53Z" fill="#feca2e"/>
          <path id="Trazado_203348" data-name="Trazado 203348" d="M197.485,330.53c-1.8.127-5.976.062-7.044.07-1.322.01-2.643.036-3.965.029-.792,0-2.153.011-3.076-.016a4.675,4.675,0,0,0-.035.672c0,.025,0,.952,0,2.513.894.036,2.371.019,3.2.023,1.291.006,2.582-.02,3.873-.029,1.087-.009,5.468.062,7.091-.088q-.006-.882-.011-1.766C197.52,331.774,197.508,330.876,197.485,330.53Z" fill="#bddcf6"/>
          <path id="Trazado_203349" data-name="Trazado 203349" d="M231.31,338.052c-7.632.127-25.3.062-29.827.07-5.6.01-11.193.036-16.79.03-3.354,0-9.116.01-13.025-.016a1.206,1.206,0,0,0-.149.672c0,.025,0,.951,0,2.512,3.786.036,10.041.019,13.567.023,5.467.007,10.934-.019,16.4-.029,4.6-.008,23.156.063,30.025-.087-.014-.589-.027-1.178-.043-1.767A9.293,9.293,0,0,0,231.31,338.052Z" fill="#fff"/>
          <path id="Trazado_203350" data-name="Trazado 203350" d="M227.436,344.07c-7.137.127-23.666.062-27.9.07-5.233.01-10.467.036-15.7.03-3.136,0-8.525.01-12.181-.016a1.269,1.269,0,0,0-.139.672c0,.025,0,.951,0,2.512,3.541.036,9.39.019,12.688.023,5.113.007,10.226-.019,15.338-.029,4.3-.008,21.656.063,28.079-.087q-.02-.883-.039-1.767A10.1,10.1,0,0,0,227.436,344.07Z" fill="#fff"/>
          <path id="Trazado_203351" data-name="Trazado 203351" d="M227.561,350.088c-7.153.127-23.719.062-27.957.07-5.246.01-10.491.036-15.737.03-3.144,0-8.545.01-12.208-.016a1.264,1.264,0,0,0-.14.672c0,.025,0,.951,0,2.512,3.549.036,9.411.019,12.716.023,5.125.006,10.249-.019,15.373-.029,4.313-.008,21.7.063,28.142-.087-.014-.589-.026-1.178-.04-1.767A9.943,9.943,0,0,0,227.561,350.088Z" fill="#fff"/>
          <path id="Trazado_203352" data-name="Trazado 203352" d="M231.31,356.106c-7.632.127-25.3.062-29.827.07-5.6.01-11.193.036-16.79.03-3.354,0-9.116.01-13.025-.016a1.206,1.206,0,0,0-.149.672c0,.025,0,.951,0,2.512,3.786.036,10.041.019,13.567.023,5.467.006,10.934-.019,16.4-.029,4.6-.008,23.156.063,30.025-.087-.014-.589-.027-1.178-.043-1.767A9.28,9.28,0,0,0,231.31,356.106Z" fill="#bddcf6"/>
          <path id="Trazado_203353" data-name="Trazado 203353" d="M221,362.124c-6.316.127-20.943.062-24.685.07-4.631.01-9.263.036-13.895.03-2.775,0-7.544.01-10.779-.016a1.408,1.408,0,0,0-.123.672c0,.025,0,.951,0,2.512,3.133.036,8.31.019,11.228.023,4.524.006,9.049-.019,13.573-.029,3.808-.008,19.163.063,24.848-.087q-.018-.884-.036-1.767A11.167,11.167,0,0,0,221,362.124Z" fill="#fff"/>
        </g>
        <g id="Grupo_148875" data-name="Grupo 148875">
          <path id="Trazado_203354" data-name="Trazado 203354" d="M350.39,269.193l-.026.005c-.128-1.865-2.214-3.018-4.071-3.5a44.7,44.7,0,0,0-9.532-1.039c-12.451-.459-24.98-.914-37.314.843-2.244.319-4.631.788-6.232,2.392a2.861,2.861,0,0,0-.87,1.507c-.012.074-.012.144-.017.216l-.043.006q-.08,21.841-.16,43.683c-.02,5.693-.041,11.388.144,17.079.023.007.047.011.071.018-1.166,8.774,47.249,4.342,52.8,3.583,2.317-.317,5.229-1.324,5.253-3.661,0-.009,0-.016,0-.024l.02,0c.144-7.809.156-15.745.3-23.553C350.934,294.306,350.965,281.63,350.39,269.193Z" fill="#4dd0e1"/>
          <path id="Trazado_203355" data-name="Trazado 203355" d="M351.136,307.667q-.009-12.2-.235-24.4c-.088-4.671-.2-9.34-.365-14.009a.416.416,0,0,0-.237-.37c-.453-2.832-4.152-3.567-6.67-3.842-4.679-.511-9.372-.906-14.074-1.135a171.318,171.318,0,0,0-28.4.811c-3.368.4-7.019.729-9,3.776a1.308,1.308,0,0,0-.336.752c.148,8.037,0,16.088.014,24.127q.014,12.184.024,24.369c0,.565,0,1.13,0,1.7-.177,1.783-.212,3.612-.246,5.379-.022,1.159-.038,2.318-.033,3.477a31.477,31.477,0,0,0,.161,3.6c2.071,2.347,5.661,3.157,8.623,3.559a116.167,116.167,0,0,0,11.6.712,162.473,162.473,0,0,0,24.71-.774,97.894,97.894,0,0,0,13.486-2.535.466.466,0,0,0,.364-.418.381.381,0,0,0,.333-.373C351.243,323.951,351.143,315.79,351.136,307.667Zm-1.477-37.821q.2,9.906.337,19.812a.5.5,0,0,0-.055,0c-2.418.328-4.81.917-7.225,1.291q-3.555.552-7.14.9a133.9,133.9,0,0,1-14.189.615,127.914,127.914,0,0,1-14.173-.924c-4.823-.585-9.545-1.639-14.338-2.39-.014,0-.025,0-.039,0,0-2.048.006-4.1,0-6.145-.008-4.413-.075-8.831-.006-13.244a34.882,34.882,0,0,0,4.919,1.324c1.842.414,3.7.765,5.564,1.073a111.82,111.82,0,0,0,11.163,1.278,108.44,108.44,0,0,0,35.18-3.587Zm-56.827,37.525q.01-8.762.005-17.524a77.435,77.435,0,0,0,13.922,2.7,130.084,130.084,0,0,0,14.628.991,124.366,124.366,0,0,0,14.645-.7q3.487-.372,6.95-.931a58.2,58.2,0,0,0,7.027-1.377q.132,10.07.136,20.141c-.012,0-.022,0-.035,0a139.848,139.848,0,0,1-29.394,2.83c-4.8-.079-9.6-.335-14.372-.855a54.479,54.479,0,0,1-6.989-1.163c-2.234-.544-4.322-1.46-6.516-2.117C292.837,308.7,292.831,308.037,292.832,307.371Zm8.319-41.766c4.113-.488,8.249-.792,12.388-.946a209.817,209.817,0,0,1,24.374.632c2.245.179,4.5.35,6.736.625,1.927.237,4.32.986,5.017,2.892a108.579,108.579,0,0,1-43.176,2.845q-3.594-.494-7.148-1.231c-2.125-.44-4.259-1.1-6.407-1.416C294.839,266.547,298.226,265.952,301.151,265.605Zm1.932,69.178a30.232,30.232,0,0,1-5.647-.835,19,19,0,0,1-4.871-2.216.324.324,0,0,0,.105-.234c.322-7.093.2-14.221.172-21.328,2.8,1.915,6.6,2.6,9.869,3.115a104.589,104.589,0,0,0,10.991,1.064,147.571,147.571,0,0,0,23.594-.7c4.312-.469,8.6-1.151,12.848-2.008,0,2.139.007,4.277-.006,6.416-.029,4.594-.148,9.188-.084,13.782a.518.518,0,0,0-.178.01C334.743,335.84,318.608,335.861,303.083,334.783Z" fill="#3ea6b4"/>
        </g>
        <text id="SQL" transform="translate(293.639 370.404)" fill="#0f2771" font-size="31.6" font-family="Rubik-Bold, Rubik" font-weight="700"><tspan x="0" y="0">SQL</tspan></text>
      </g>
      <g id="Grupo_148877" data-name="Grupo 148877">
        <path id="Trazado_203356" data-name="Trazado 203356" d="M302.533,117.315q-.144-8.833-.292-17.669c-.011-.625-.177-4.553-.466-4.979-.272-.948-55.852-.062-66.769-.191-10.719-.126-64.127.253-64.432.262-1.426.044-1.17,2.795-1.2,2.794,0,.415-.08,78.776-.034,118.09.321.515,23.033.378,33.571.4,10.963.02,21.926-.065,32.888-.1,10.763-.032,59.591.285,64.9-.592a2.6,2.6,0,0,0,.416-.152,2.5,2.5,0,0,0,1.207-.557c.168-18.452.232-36.921.058-55.2C302.245,145.312,302.369,131.3,302.533,117.315Z" fill="#feca2e"/>
        <path id="Trazado_203357" data-name="Trazado 203357" d="M299.247,215.48c.634-.046,1.126-.1,1.451-.149a2.6,2.6,0,0,0,.416-.152,2.5,2.5,0,0,0,1.207-.557c.16-17.538.219-35.086.075-52.475-.488-.311-.968-.631-1.475-.922a44.376,44.376,0,0,0-6.65-3.055c-1.531-4.761-3.64-11.292-3.9-11.962-.419-1.065-1.04-7.4-1.92-7.9s-22.272-.751-23.3.059c-.809.634-4.166,14.429-5.591,20.414a51.344,51.344,0,0,0-15.313,9.664c-5.141-1.515-20.121-5.883-21.164-5.647-1.261.285-11.191,18.536-11.6,20.212s7.355,7.05,9.7,9.427c1.2,1.215,3.843,3.851,6.305,6.288q-.347,2.015-.53,4.063a47.6,47.6,0,0,0,.607,12.618l-.562.557q4.4-.02,8.8-.037c3.5-.01,11.024.017,19.767.027a24.051,24.051,0,0,1,1.947-21.559,23.544,23.544,0,0,1,43.347,14.48A22.266,22.266,0,0,1,299.247,215.48Z" fill="#98791c"/>
        <path id="Trazado_203358" data-name="Trazado 203358" d="M247.3,130.057c-.449-.667-1.866-2.346-1.866-2.346L231.522,114.7a46.412,46.412,0,0,0-.934-19.1c.37-.376.751-.761,1.136-1.15-6.606-.021-18.609.026-30.244.087a24.437,24.437,0,0,1,2.122,11.934,25.458,25.458,0,0,1-11.042,18.534c-3.738,3.289-9.741,4.563-14.394,4.441a24.143,24.143,0,0,1-8.819-1.951c-.01,14.383-.021,32.159-.023,49.206.38-.049.649-.1.649-.1s19.814.55,20.35-.008.863-.371,1.167-1.278c.274-.815,4.318-15.481,4.941-19.213a44.592,44.592,0,0,0,17.574-9.812c7.074,1.9,20.8,5.5,21.114,4.992.426-.68,1.548-2.635,1.548-2.635S247.751,130.724,247.3,130.057Z" fill="#c1eff5"/>
        <path id="Trazado_203359" data-name="Trazado 203359" d="M201.141,109.382c11.55.02,23.1-.064,34.649-.1,10.563-.029,55.915.243,66.6-.427q-.075-4.606-.152-9.213c-.011-.625-.177-4.553-.466-4.979-.272-.948-55.852-.062-66.769-.191-10.719-.126-64.127.253-64.432.262-1.426.044-1.17,2.795-1.2,2.794,0,.1,0,4.512-.01,11.714C176.517,109.443,192.61,109.367,201.141,109.382Z" fill="#4dd0e1"/>
        <path id="Trazado_203360" data-name="Trazado 203360" d="M292.666,102.674a3.119,3.119,0,0,1-.19-2.816,3.581,3.581,0,0,1,.537-.822,3.467,3.467,0,0,1,.448-.418,3.176,3.176,0,0,1,1.007-.5,3.646,3.646,0,0,1,.71-.161,4.164,4.164,0,0,1,.732.03,3.067,3.067,0,0,1,1.843.969,3.178,3.178,0,0,1-4.047,4.834A3.138,3.138,0,0,1,292.666,102.674Z" fill="#feca2e"/>
        <path id="Trazado_203361" data-name="Trazado 203361" d="M283.25,102.674a3.12,3.12,0,0,1-.19-2.816,3.554,3.554,0,0,1,.538-.822,3.344,3.344,0,0,1,.448-.418,3.166,3.166,0,0,1,1.007-.5,3.645,3.645,0,0,1,.71-.161,4.157,4.157,0,0,1,.731.03,3.067,3.067,0,0,1,1.843.969,3.178,3.178,0,0,1-4.047,4.834A3.147,3.147,0,0,1,283.25,102.674Z" fill="#fff"/>
        <path id="Trazado_203362" data-name="Trazado 203362" d="M273.834,102.674a3.126,3.126,0,0,1-.19-2.816,3.553,3.553,0,0,1,.538-.822,3.34,3.34,0,0,1,.448-.418,3.166,3.166,0,0,1,1.007-.5,3.645,3.645,0,0,1,.71-.161,4.173,4.173,0,0,1,.732.03,3.065,3.065,0,0,1,1.842.969,3.178,3.178,0,0,1-4.046,4.834A3.141,3.141,0,0,1,273.834,102.674Z" fill="#fff"/>
      </g>
      <g id="Grupo_148878" data-name="Grupo 148878">
        <path id="Trazado_203363" data-name="Trazado 203363" d="M146.168,169.311q-.117-4.334-.24-8.667a8.542,8.542,0,0,0-.38-2.442c-.222-.465-45.515-.036-54.411-.1-8.735-.063-52.258.118-52.506.122-1.163.021-.954,1.371-.981,1.371,0,.2-.058,38.641-.017,57.925.262.253,18.771.188,27.359.2,8.934.011,17.867-.029,26.8-.044,8.772-.015,48.562.145,52.89-.284a3.2,3.2,0,0,0,.339-.075,2.8,2.8,0,0,0,.984-.273c.135-9.051.185-18.11.042-27.076C145.936,183.044,146.036,176.172,146.168,169.311Z" fill="#fff"/>
        <path id="Trazado_203364" data-name="Trazado 203364" d="M145.548,158.2c-.222-.465-45.515-.036-54.411-.1-8.735-.063-52.258.118-52.506.122-1.162.021-.954,1.371-.981,1.371,0,.066-.005,4.251-.012,10.508,5.836.026,18.955.02,25.911.023q14.127.007,28.252-.005c8.63,0,45.731.042,54.353-.041,0-.256.009-.513.014-.769q-.117-4.334-.24-8.667A8.542,8.542,0,0,0,145.548,158.2Z" fill="#4dd0e1"/>
        <path id="Trazado_203365" data-name="Trazado 203365" d="M136.579,165.6a3.125,3.125,0,0,1-.19-2.816,3.634,3.634,0,0,1,.538-.821,3.34,3.34,0,0,1,.448-.418,3.189,3.189,0,0,1,1.007-.5,3.718,3.718,0,0,1,.71-.16,4.074,4.074,0,0,1,.732.03,3.062,3.062,0,0,1,1.843.969,3.178,3.178,0,0,1-4.047,4.834A3.144,3.144,0,0,1,136.579,165.6Z" fill="#feca2e"/>
        <path id="Trazado_203366" data-name="Trazado 203366" d="M127.163,165.6a3.122,3.122,0,0,1-.189-2.816,3.6,3.6,0,0,1,.537-.821,3.341,3.341,0,0,1,.448-.418,3.189,3.189,0,0,1,1.007-.5,3.718,3.718,0,0,1,.71-.16,4.074,4.074,0,0,1,.732.03,3.062,3.062,0,0,1,1.843.969,3.178,3.178,0,0,1-4.047,4.834A3.153,3.153,0,0,1,127.163,165.6Z" fill="#fff"/>
        <path id="Trazado_203367" data-name="Trazado 203367" d="M117.748,165.6a3.119,3.119,0,0,1-.19-2.816,3.6,3.6,0,0,1,.537-.821,3.466,3.466,0,0,1,.448-.418,3.2,3.2,0,0,1,1.007-.5,3.718,3.718,0,0,1,.71-.16,4.073,4.073,0,0,1,.732.03,3.062,3.062,0,0,1,1.843.969,3.178,3.178,0,0,1-4.047,4.834A3.141,3.141,0,0,1,117.748,165.6Z" fill="#fff"/>
        <path id="Trazado_203368" data-name="Trazado 203368" d="M45.859,217.414c-2.488-.167-4.976-.309-7.465-.444.206-7.266.033-14.558.018-21.827-.015-7.453.106-14.924-.1-22.375a.549.549,0,0,0-1.1,0c-.155,7.452.015,14.922.048,22.375.033,7.35-.1,14.724.167,22.069a.587.587,0,0,0,.475.853c2.65.172,5.3.335,7.952.472C46.583,218.574,46.576,217.462,45.859,217.414Z" fill="#d5dfe9"/>
        <path id="Trazado_203369" data-name="Trazado 203369" d="M139.878,182.1c-.069-1.806-.136-3.612-.212-5.419-.008-.192-.128-1.4-.336-1.527-.2-.291-40.242-.026-48.108-.067-7.723-.04-46.2.07-46.423.073-1.028.013-.843.857-.867.857,0,.127-.048,24.16-.01,36.218.231.158,16.595.119,24.188.126,7.9.008,15.8-.017,23.7-.025,7.755-.009,42.936.094,46.763-.174.114-.008.2-.033.3-.047a3.305,3.305,0,0,0,.87-.17c.119-5.66.162-11.324.035-16.93C139.675,190.682,139.763,186.385,139.878,182.1Z" fill="#bddcf6"/>
        <text id="_..._..._" data-name="&lt;...&gt;/&lt;...&gt;" transform="translate(90.385 199.803)" fill="#fff" font-size="19.224" font-family="Rubik-SemiBold, Rubik" font-weight="600"><tspan x="-40.534" y="0">&lt;...&gt;/&lt;...&gt;</tspan></text>
      </g>
      <g id="Grupo_148879" data-name="Grupo 148879">
        <path id="Trazado_203370" data-name="Trazado 203370" d="M147.571,96.753q-.072-3.784-.149-7.568a10.148,10.148,0,0,0-.237-2.133c-.138-.406-28.424-.028-33.979-.083-5.455-.054-32.636.107-32.791.111-.725.018-.6,1.2-.612,1.2,0,.178-.039,33.742-.015,50.581.164.221,11.722.163,17.085.171,5.58.009,11.159-.027,16.737-.04,5.478-.013,30.327.123,33.03-.252a1.5,1.5,0,0,0,.212-.066,1.381,1.381,0,0,0,.614-.238c.085-7.9.117-15.814.028-23.643C147.426,108.745,147.489,102.744,147.571,96.753Z" fill="#fff"/>
        <path id="Trazado_203371" data-name="Trazado 203371" d="M143.338,109.683c-.043-1.488-.084-2.975-.131-4.463a4.166,4.166,0,0,0-.208-1.258c-.121-.24-24.876-.019-29.739-.052-4.774-.033-28.562.06-28.7.062-.635.011-.521.706-.536.706,0,.1-.031,19.9-.009,29.833.144.13,10.259.1,14.954.1,4.882.006,9.765-.015,14.648-.022,4.794-.008,26.542.075,28.908-.146.07-.007.121-.027.185-.039a1.6,1.6,0,0,0,.537-.14c.074-4.662.1-9.328.023-13.945C143.211,116.756,143.266,113.217,143.338,109.683Z" fill="#4dd0e1"/>
        <path id="Trazado_203372" data-name="Trazado 203372" d="M147.185,87.052c-.138-.406-28.424-.028-33.979-.083-5.455-.054-32.636.107-32.791.111-.725.018-.6,1.2-.612,1.2,0,.062,0,4.125-.009,10.106,4.285.049,11.306.026,15.272.031,6.18.009,12.359-.026,18.538-.04,5.208-.011,26.208.088,33.951-.12.007-.5.009-1,.016-1.5q-.072-3.784-.149-7.568A10.214,10.214,0,0,0,147.185,87.052Z" fill="#4dd0e1"/>
        <path id="Trazado_203373" data-name="Trazado 203373" d="M138.259,93.989a3.123,3.123,0,0,1-.19-2.816,3.553,3.553,0,0,1,.538-.822,3.4,3.4,0,0,1,.447-.418,3.181,3.181,0,0,1,1.008-.5,3.63,3.63,0,0,1,.71-.161,4.157,4.157,0,0,1,.731.03,3.067,3.067,0,0,1,1.843.969,3.178,3.178,0,0,1-4.047,4.834A3.147,3.147,0,0,1,138.259,93.989Z" fill="#feca2e"/>
        <path id="Trazado_203374" data-name="Trazado 203374" d="M128.843,93.989a3.126,3.126,0,0,1-.19-2.816,3.553,3.553,0,0,1,.538-.822,3.342,3.342,0,0,1,.448-.418,3.166,3.166,0,0,1,1.007-.5,3.646,3.646,0,0,1,.71-.161,4.172,4.172,0,0,1,.732.03,3.065,3.065,0,0,1,1.842.969,3.178,3.178,0,0,1-4.046,4.834A3.141,3.141,0,0,1,128.843,93.989Z" fill="#fff"/>
        <path id="Trazado_203375" data-name="Trazado 203375" d="M119.427,93.989a3.126,3.126,0,0,1-.19-2.816,3.619,3.619,0,0,1,.538-.822,3.342,3.342,0,0,1,.448-.418,3.166,3.166,0,0,1,1.007-.5,3.646,3.646,0,0,1,.71-.161,4.168,4.168,0,0,1,.732.03,3.067,3.067,0,0,1,1.843.969,3.178,3.178,0,0,1-4.047,4.834A3.141,3.141,0,0,1,119.427,93.989Z" fill="#fff"/>
        <path id="Trazado_203376" data-name="Trazado 203376" d="M79.2,100.258c-.019,6.558-.078,13.118,0,19.675a.574.574,0,0,0,1.148,0c.11-6.557.089-13.117.108-19.675A.626.626,0,0,0,79.2,100.258Z" fill="#d5dfe9"/>
        <text id="CSS" transform="translate(112.425 126.39)" fill="#feca2e" font-size="21.675" font-family="Rubik-SemiBold, Rubik" font-weight="600"><tspan x="-21.643" y="0">CSS</tspan></text>
      </g>
      <g id="Grupo_148881" data-name="Grupo 148881">
        <g id="Grupo_148880" data-name="Grupo 148880">
          <path id="Trazado_203377" data-name="Trazado 203377" d="M37.626,255.152v-7.9c0-.521.574-.8,1.1-.811l11.76-.144,11.071-.134a20.77,20.77,0,0,1,5.4,8.677c-7.382.721-14.8.908-22.218,1.094a23.186,23.186,0,0,1-6.872-.513C37.8,255.226,37.626,255.351,37.626,255.152Z" fill="#ffbb39"/>
          <path id="Trazado_203378" data-name="Trazado 203378" d="M109.029,290.218c.2-11.015.059-21.84-.071-32.779a5.966,5.966,0,0,0-.554-3.1c-.553-.889-1.808-1.025-2.795-1.043q-32.975-.591-65.95.523a3.441,3.441,0,0,0-2.006.419c-.6.425-.516.863-.491,2.006q.285,17.626.568,35.252c.028,1.729,1.888,2.864,3.48,2.862,21.472-.026,43.073-1.153,64.545-1.179a4.013,4.013,0,0,0,2.453-.539A2.4,2.4,0,0,0,109.029,290.218Z" fill="#ffbb39"/>
        </g>
        <path id="Trazado_203379" data-name="Trazado 203379" d="M63.655,252.958l-11.982.151-5.991.076c-1.731.022-3.917-.272-5.568.278a.154.154,0,0,0,0,.295c1.671.513,3.834.165,5.573.145l5.991-.068,11.982-.136A.371.371,0,0,0,63.655,252.958Z" fill="#fff"/>
      </g>
      <g id="Grupo_148883" data-name="Grupo 148883">
        <g id="Grupo_148882" data-name="Grupo 148882">
          <path id="Trazado_203380" data-name="Trazado 203380" d="M37.626,323.005v-7.9c0-.52.574-.8,1.1-.811l11.76-.143,11.071-.135a20.77,20.77,0,0,1,5.4,8.677c-7.382.721-14.8.908-22.218,1.094a23.219,23.219,0,0,1-6.872-.512C37.8,323.079,37.626,323.2,37.626,323.005Z" fill="#bddcf6"/>
          <path id="Trazado_203381" data-name="Trazado 203381" d="M109.029,358.071c.2-11.015.059-21.84-.071-32.779a5.962,5.962,0,0,0-.554-3.1c-.553-.889-1.808-1.025-2.795-1.043q-32.975-.591-65.95.522a3.449,3.449,0,0,0-2.006.419c-.6.425-.516.863-.491,2.007q.285,17.625.568,35.252c.028,1.728,1.888,2.863,3.48,2.861,21.472-.026,43.073-1.152,64.545-1.179a4.012,4.012,0,0,0,2.453-.539A2.4,2.4,0,0,0,109.029,358.071Z" fill="#bddcf6"/>
        </g>
        <path id="Trazado_203382" data-name="Trazado 203382" d="M63.655,320.812l-11.982.15-5.991.076c-1.731.022-3.917-.272-5.568.278a.155.155,0,0,0,0,.3c1.671.512,3.834.164,5.573.144l5.991-.068,11.982-.136A.37.37,0,0,0,63.655,320.812Z" fill="#fff"/>
      </g>
    </g>
  </g>
</svg>
