<svg xmlns="http://www.w3.org/2000/svg" width="190" height="115" viewBox="0 0 190 115">
  <g id="Grupo_172849" data-name="Grupo 172849" transform="translate(-180 -7729)">
    <g id="Grupo_172773" data-name="Grupo 172773" transform="translate(0 7330)">
      <rect id="Rectángulo_43992" data-name="Rectángulo 43992" width="190" height="115" transform="translate(180 399)" fill="none"/>
      <rect id="Rectángulo_41430" data-name="Rectángulo 41430" width="85" height="28" rx="14" transform="translate(285 407)" fill="#feca2e" opacity="0.2"/>
      <rect id="Rectángulo_41431" data-name="Rectángulo 41431" width="85" height="28" rx="14" transform="translate(180 468)" fill="#4dd0e1" opacity="0.2"/>
      <path id="analisis" d="M101.1,93.686h-1.59V38.036A7.916,7.916,0,0,0,91.6,30.129H82.685V10.065a1.641,1.641,0,0,0-1.641-1.641H70.922a1.641,1.641,0,0,0-1.641,1.641V30.129H66.676V23.684a1.641,1.641,0,0,0-1.641-1.641H54.913a1.641,1.641,0,0,0-1.641,1.641v6.445H50.666V15.75a1.641,1.641,0,0,0-1.641-1.641H38.9a1.641,1.641,0,0,0-1.641,1.641V30.129H34.656V29.055a1.641,1.641,0,0,0-1.641-1.641H22.893a1.641,1.641,0,0,0-1.641,1.641v1.074H12.338a7.916,7.916,0,0,0-7.907,7.907V93.686H3.9a3.907,3.907,0,0,0-3.9,3.9v5.562a6.827,6.827,0,0,0,6.819,6.819H98.181A6.827,6.827,0,0,0,105,103.15V97.588a3.907,3.907,0,0,0-3.9-3.9ZM79.4,11.705V46.771H72.563V11.705ZM69.282,33.411V46.771H66.676V33.411Zm-5.887-8.086V46.771H56.553V25.325ZM53.272,33.411V46.771H50.666V33.411Zm-5.887-16.02v29.38H40.544V17.391ZM37.263,33.411V46.771H34.656V33.411ZM31.375,30.7V46.771H24.534V30.7ZM7.711,38.036a4.631,4.631,0,0,1,4.626-4.626h8.915V46.771H12.833a1.641,1.641,0,1,0,0,3.281H91.1a1.641,1.641,0,0,0,0-3.281h-8.42V33.411H91.6a4.631,4.631,0,0,1,4.626,4.626V93.686H7.711ZM36.7,96.967H68.3v3.318a.526.526,0,0,1-.519.519H37.218a.526.526,0,0,1-.519-.519Zm65.02,6.183a3.542,3.542,0,0,1-3.538,3.538H6.819a3.541,3.541,0,0,1-3.538-3.538V97.588a.622.622,0,0,1,.621-.621H33.417v3.318a3.805,3.805,0,0,0,3.8,3.8H67.782a3.805,3.805,0,0,0,3.8-3.8V96.967H101.1a.63.63,0,0,1,.621.621Zm-87.144-2.791a1.641,1.641,0,1,1-1.643-1.641h0A1.641,1.641,0,0,1,14.575,100.359Zm4.663,0A1.641,1.641,0,1,1,17.6,98.718h0A1.641,1.641,0,0,1,19.238,100.359Zm4.663,0a1.641,1.641,0,1,1-1.643-1.641h0A1.641,1.641,0,0,1,23.9,100.359Zm60.48,0a1.641,1.641,0,1,1-1.643-1.641h0A1.641,1.641,0,0,1,84.382,100.359Zm4.663,0A1.641,1.641,0,1,1,87.4,98.718h0A1.641,1.641,0,0,1,89.045,100.359Zm4.663,0a1.641,1.641,0,1,1-1.643-1.641h0A1.641,1.641,0,0,1,93.708,100.359ZM88.1,51.448a4.694,4.694,0,0,0-4.669,5.188L67.215,64.713a4.683,4.683,0,0,0-6.406,0L44.6,56.637a4.7,4.7,0,1,0-9.179.808L18.394,70.06a4.7,4.7,0,1,0,1.955,2.635L37.371,60.08a4.681,4.681,0,0,0,5.758-.508l16.214,8.076a4.773,4.773,0,0,0-.026.492,4.7,4.7,0,1,0,9.39,0,4.771,4.771,0,0,0-.026-.492l16.214-8.076a4.694,4.694,0,1,0,3.2-8.123ZM15.84,75.409a1.414,1.414,0,1,1,1.414-1.414,1.414,1.414,0,0,1-1.414,1.414ZM39.926,57.557a1.414,1.414,0,1,1,1.414-1.414A1.414,1.414,0,0,1,39.926,57.557Zm24.086,12a1.414,1.414,0,1,1,1.414-1.414,1.414,1.414,0,0,1-1.414,1.414Zm24.086-12a1.414,1.414,0,1,1,1.414-1.414A1.414,1.414,0,0,1,88.1,57.557Zm4.695,14.652a1.641,1.641,0,0,1-1.641,1.641H77.863a1.641,1.641,0,0,1,0-3.281H91.152a1.641,1.641,0,0,1,1.641,1.641Zm0,6.7a1.641,1.641,0,0,1-1.641,1.641H71.7a1.641,1.641,0,0,1,0-3.281H91.152A1.641,1.641,0,0,1,92.793,78.91ZM41.164,69.19A10.045,10.045,0,1,0,51.209,79.236,10.045,10.045,0,0,0,41.164,69.19Zm6.563,8.4H42.8V72.673A6.788,6.788,0,0,1,47.726,77.6Zm-8.2-4.921v5.781L35.039,82.1a6.76,6.76,0,0,1,4.484-9.428ZM41.164,86a6.729,6.729,0,0,1-4.053-1.354l4.636-3.771h5.979A6.775,6.775,0,0,1,41.164,86Z" transform="translate(222.5 396.505)" fill="#0f2771"/>
    </g>
  </g>
</svg>
