<svg xmlns="http://www.w3.org/2000/svg" width="400" height="365.658" viewBox="0 0 400 365.658">
  <g id="Grupo_172819" data-name="Grupo 172819" transform="translate(-285 -7222)">
    <path id="Trazado_1383" data-name="Trazado 1383" d="M2869.75,4847.5c-97.489-9.616-131.359,75.276-106.4,135.454,25.164,60.667-16.551,74.731-4.631,160.04,12.067,86.378,163.038,42.521,163.038,42.521s131.279-13.743,191.786-30.027c60.185-16.2,38.41-171.216,36.614-208.929-1.781-37.493,1.661-70.075-64.421-102.7C3019.781,4811.3,2966.917,4857.082,2869.75,4847.5Z" transform="translate(-2470.455 2391.01)" fill="#bddcf6"/>
    <path id="Trazado_115567" data-name="Trazado 115567" d="M887.409,118.476h326.855v42.178H887.409Z" transform="translate(-571.409 7104.524)" fill="#4cb7cd"/>
    <path id="Rectángulo_42487" data-name="Rectángulo 42487" d="M0,0H326.855V31.355H0Z" transform="translate(316 7327.888)" fill="#f4f3f3"/>
    <path id="Rectángulo_42488" data-name="Rectángulo 42488" d="M0,0H326.855V31.355H0Z" transform="translate(316 7265.179)" fill="#f4f3f3"/>
    <path id="Rectángulo_42489" data-name="Rectángulo 42489" d="M0,0H326.855V31.355H0Z" transform="translate(316 7296.532)" fill="#fff"/>
    <path id="Rectángulo_42489-2" data-name="Rectángulo 42489" d="M0,0H326.855V31.355H0Z" transform="translate(316 7359.242)" fill="#fff"/>
    <path id="Trazado_222047" data-name="Trazado 222047" d="M1.079,0V-12.086H5.313a5.559,5.559,0,0,1,3.337.843A2.881,2.881,0,0,1,9.787-8.774,2.731,2.731,0,0,1,9.33-7.209a2.637,2.637,0,0,1-1.27.992,2.551,2.551,0,0,1,1.465.938,2.773,2.773,0,0,1,.535,1.727A3.19,3.19,0,0,1,8.948-.913,5.007,5.007,0,0,1,5.777,0Zm2.49-5.263V-2H5.7A2.059,2.059,0,0,0,7.076-2.42,1.437,1.437,0,0,0,7.57-3.578,1.518,1.518,0,0,0,5.852-5.263Zm0-1.76H5.412Q7.3-7.056,7.3-8.525a1.388,1.388,0,0,0-.477-1.183,2.51,2.51,0,0,0-1.507-.361H3.569ZM15.124-3.4l1.66-5.586h2.573L15.747,1.395l-.2.473a2.738,2.738,0,0,1-2.656,1.76,3.775,3.775,0,0,1-1.062-.158V1.652l.365.008a1.973,1.973,0,0,0,1.017-.208,1.363,1.363,0,0,0,.527-.689L14.02.025,10.874-8.981h2.582Zm8.052-7.794v2.208h1.536v1.76H23.176v4.482a1.07,1.07,0,0,0,.191.714.959.959,0,0,0,.73.216,3.826,3.826,0,0,0,.706-.058V-.05A4.939,4.939,0,0,1,23.35.166a2.29,2.29,0,0,1-2.573-2.548V-7.222H19.465v-1.76h1.312v-2.208ZM30.182.166a4.409,4.409,0,0,1-3.217-1.212,4.308,4.308,0,0,1-1.241-3.229v-.232a5.426,5.426,0,0,1,.523-2.42,3.838,3.838,0,0,1,1.482-1.644,4.159,4.159,0,0,1,2.187-.577,3.727,3.727,0,0,1,2.9,1.162,4.722,4.722,0,0,1,1.058,3.3v.979H28.156a2.229,2.229,0,0,0,.7,1.411,2.12,2.12,0,0,0,1.482.531,2.589,2.589,0,0,0,2.167-1l1.179,1.32A3.6,3.6,0,0,1,32.224-.261,4.793,4.793,0,0,1,30.182.166Zm-.274-7.379a1.5,1.5,0,0,0-1.158.484,2.5,2.5,0,0,0-.569,1.384h3.337v-.192a1.786,1.786,0,0,0-.432-1.238A1.547,1.547,0,0,0,29.908-7.213Z" transform="translate(325.868 7285.314)" fill="#0c1d30"/>
    <path id="Trazado_222048" data-name="Trazado 222048" d="M4.333-12.086l3.1,8.766,3.088-8.766H13.8V0H11.3V-3.3l.249-5.7L8.284,0H6.574L3.32-9,3.569-3.3V0H1.079V-12.086ZM19.947.166A4.409,4.409,0,0,1,16.73-1.046a4.308,4.308,0,0,1-1.241-3.229v-.232a5.426,5.426,0,0,1,.523-2.42,3.838,3.838,0,0,1,1.482-1.644,4.159,4.159,0,0,1,2.187-.577,3.727,3.727,0,0,1,2.9,1.162,4.722,4.722,0,0,1,1.058,3.3v.979H17.921a2.229,2.229,0,0,0,.7,1.411,2.12,2.12,0,0,0,1.482.531,2.589,2.589,0,0,0,2.167-1l1.179,1.32A3.6,3.6,0,0,1,21.989-.261,4.793,4.793,0,0,1,19.947.166Zm-.274-7.379a1.5,1.5,0,0,0-1.158.484,2.5,2.5,0,0,0-.569,1.384h3.337v-.192a1.786,1.786,0,0,0-.432-1.238A1.547,1.547,0,0,0,19.673-7.213Zm4.98,2.656a5.264,5.264,0,0,1,.984-3.329,3.187,3.187,0,0,1,2.652-1.262,2.8,2.8,0,0,1,2.3,1.013l.1-.847h2.175V-.3a3.839,3.839,0,0,1-.535,2.05A3.439,3.439,0,0,1,30.821,3.08a5.3,5.3,0,0,1-2.274.457,4.925,4.925,0,0,1-1.926-.394A3.418,3.418,0,0,1,25.2,2.125L26.264.664a2.81,2.81,0,0,0,2.175,1,2.057,2.057,0,0,0,1.486-.51,1.915,1.915,0,0,0,.531-1.448V-.772a2.775,2.775,0,0,1-2.183.938A3.179,3.179,0,0,1,25.654-1.1a5.262,5.262,0,0,1-1-3.358Zm2.4.171a3.3,3.3,0,0,0,.49,1.922,1.557,1.557,0,0,0,1.345.7,1.665,1.665,0,0,0,1.569-.826V-6.388A1.661,1.661,0,0,0,28.9-7.213a1.566,1.566,0,0,0-1.357.709A3.715,3.715,0,0,0,27.052-4.386ZM39.91,0a2.664,2.664,0,0,1-.241-.805A2.9,2.9,0,0,1,37.4.166,3.189,3.189,0,0,1,35.216-.6a2.456,2.456,0,0,1-.867-1.926,2.538,2.538,0,0,1,1.058-2.191,5.222,5.222,0,0,1,3.059-.772h1.1V-6a1.48,1.48,0,0,0-.32-1,1.257,1.257,0,0,0-1.009-.374,1.429,1.429,0,0,0-.95.291.987.987,0,0,0-.344.8h-2.4a2.41,2.41,0,0,1,.481-1.444A3.182,3.182,0,0,1,36.391-8.77a4.961,4.961,0,0,1,1.976-.378A3.92,3.92,0,0,1,41-8.313a2.918,2.918,0,0,1,.975,2.345v3.893a4.294,4.294,0,0,0,.357,1.934V0ZM37.926-1.668a2.066,2.066,0,0,0,.979-.237,1.554,1.554,0,0,0,.664-.635V-4.084h-.9q-1.8,0-1.917,1.245l-.008.141a.96.96,0,0,0,.315.739A1.225,1.225,0,0,0,37.926-1.668ZM51.913-4.408a5.439,5.439,0,0,1-.921,3.366A3.052,3.052,0,0,1,48.418.166,2.8,2.8,0,0,1,46.086-.955L45.978,0H43.82V-12.75h2.4v4.574A2.732,2.732,0,0,1,48.4-9.147,3.077,3.077,0,0,1,50.979-7.94a5.446,5.446,0,0,1,.934,3.4Zm-2.4-.183a3.593,3.593,0,0,0-.432-1.994A1.458,1.458,0,0,0,47.8-7.213a1.582,1.582,0,0,0-1.577.941v3.555a1.6,1.6,0,0,0,1.594.949A1.482,1.482,0,0,0,49.34-2.917,5.944,5.944,0,0,0,49.514-4.591Zm7.139,1.2,1.66-5.586h2.573L57.275,1.395l-.2.473a2.738,2.738,0,0,1-2.656,1.76,3.775,3.775,0,0,1-1.062-.158V1.652l.365.008a1.973,1.973,0,0,0,1.017-.208,1.363,1.363,0,0,0,.527-.689l.282-.739L52.4-8.981h2.582ZM64.7-11.189v2.208H66.24v1.76H64.7v4.482a1.07,1.07,0,0,0,.191.714.959.959,0,0,0,.73.216,3.826,3.826,0,0,0,.706-.058V-.05a4.939,4.939,0,0,1-1.453.216,2.29,2.29,0,0,1-2.573-2.548V-7.222H60.994v-1.76h1.312v-2.208ZM71.71.166a4.409,4.409,0,0,1-3.217-1.212,4.308,4.308,0,0,1-1.241-3.229v-.232a5.426,5.426,0,0,1,.523-2.42,3.838,3.838,0,0,1,1.482-1.644,4.159,4.159,0,0,1,2.187-.577,3.727,3.727,0,0,1,2.9,1.162A4.722,4.722,0,0,1,75.4-4.69v.979H69.685a2.229,2.229,0,0,0,.7,1.411,2.12,2.12,0,0,0,1.482.531,2.589,2.589,0,0,0,2.167-1l1.179,1.32A3.6,3.6,0,0,1,73.752-.261,4.793,4.793,0,0,1,71.71.166Zm-.274-7.379a1.5,1.5,0,0,0-1.158.484,2.5,2.5,0,0,0-.569,1.384h3.337v-.192a1.786,1.786,0,0,0-.432-1.238A1.547,1.547,0,0,0,71.437-7.213Z" transform="translate(325.868 7347.314)" fill="#0c1d30"/>
    <path id="Trazado_222049" data-name="Trazado 222049" d="M1.65,0V-14.219H6.3a5.4,5.4,0,0,1,3.481.957,3.449,3.449,0,0,1,1.167,2.832,2.888,2.888,0,0,1-.566,1.763A3.672,3.672,0,0,1,8.838-7.48a3.3,3.3,0,0,1,1.821,1.226A3.517,3.517,0,0,1,11.328-4.1a3.8,3.8,0,0,1-1.24,3.008A5.129,5.129,0,0,1,6.582,0ZM3.525-6.65v5.117h3.1a2.981,2.981,0,0,0,2.065-.679,2.384,2.384,0,0,0,.757-1.87q0-2.568-2.793-2.568Zm0-1.5H6.357a2.969,2.969,0,0,0,1.968-.617,2.067,2.067,0,0,0,.737-1.674,2.033,2.033,0,0,0-.684-1.708,3.357,3.357,0,0,0-2.08-.533H3.525Z" transform="translate(424.632 7288.654)" fill="#0c1d30"/>
    <path id="Trazado_222050" data-name="Trazado 222050" d="M11.541-1.772A4.115,4.115,0,0,1,9.625-.3,7.738,7.738,0,0,1,6.763.186,5.55,5.55,0,0,1,3.832-.589a5.161,5.161,0,0,1-1.981-2.2A7.61,7.61,0,0,1,1.132-6.1V-7.283a7.1,7.1,0,0,1,1.424-4.731,4.962,4.962,0,0,1,4-1.679,5.125,5.125,0,0,1,3.4,1.081,4.708,4.708,0,0,1,1.577,3.066H9.76a2.945,2.945,0,0,0-3.191-2.69,3.153,3.153,0,0,0-2.714,1.258,6.143,6.143,0,0,0-.932,3.644v1.1A5.757,5.757,0,0,0,3.961-2.613,3.368,3.368,0,0,0,6.772-1.271a6.209,6.209,0,0,0,1.753-.222,2.712,2.712,0,0,0,1.243-.75V-5.27H6.643V-6.726h4.9ZM14.51,0V-13.508h4.416a5.126,5.126,0,0,1,3.307.909,3.277,3.277,0,0,1,1.109,2.69A2.744,2.744,0,0,1,22.8-8.234a3.488,3.488,0,0,1-1.466,1.127,3.133,3.133,0,0,1,1.73,1.164A3.342,3.342,0,0,1,23.7-3.9a3.613,3.613,0,0,1-1.178,2.857A4.872,4.872,0,0,1,19.195,0Zm1.781-6.318v4.861h2.941A2.832,2.832,0,0,0,21.194-2.1a2.265,2.265,0,0,0,.719-1.777q0-2.44-2.653-2.44Zm0-1.429h2.69a2.82,2.82,0,0,0,1.869-.586,1.964,1.964,0,0,0,.7-1.59,1.931,1.931,0,0,0-.649-1.622,3.189,3.189,0,0,0-1.976-.507H16.291Z" transform="translate(424.632 7380.569)" fill="#0c1d30"/>
    <path id="Trazado_222051" data-name="Trazado 222051" d="M5-6.281,3.349-4.564V0H1.568V-13.508H3.349v6.68l6-6.68H11.5L6.188-7.542,11.921,0H9.788ZM13.48,0V-13.508H17.9A5.126,5.126,0,0,1,21.2-12.6a3.277,3.277,0,0,1,1.109,2.69,2.744,2.744,0,0,1-.538,1.675,3.488,3.488,0,0,1-1.466,1.127,3.133,3.133,0,0,1,1.73,1.164A3.342,3.342,0,0,1,22.674-3.9,3.613,3.613,0,0,1,21.5-1.039,4.872,4.872,0,0,1,18.165,0Zm1.781-6.318v4.861H18.2A2.832,2.832,0,0,0,20.164-2.1a2.265,2.265,0,0,0,.719-1.777q0-2.44-2.653-2.44Zm0-1.429h2.69a2.82,2.82,0,0,0,1.869-.586,1.964,1.964,0,0,0,.7-1.59,1.931,1.931,0,0,0-.649-1.622,3.189,3.189,0,0,0-1.976-.507H15.261Z" transform="translate(424.632 7317.861)" fill="#0c1d30"/>
    <path id="Trazado_222052" data-name="Trazado 222052" d="M3.869-13.508,8.285-2.486,12.7-13.508h2.31V0H13.229V-5.26l.167-5.678L8.962,0H7.6L3.173-10.91l.176,5.65V0H1.568V-13.508ZM18.156,0V-13.508h4.416a5.126,5.126,0,0,1,3.307.909,3.277,3.277,0,0,1,1.109,2.69,2.744,2.744,0,0,1-.538,1.675,3.488,3.488,0,0,1-1.466,1.127,3.133,3.133,0,0,1,1.73,1.164A3.342,3.342,0,0,1,27.35-3.9a3.613,3.613,0,0,1-1.178,2.857A4.872,4.872,0,0,1,22.841,0Zm1.781-6.318v4.861h2.941A2.832,2.832,0,0,0,24.84-2.1a2.265,2.265,0,0,0,.719-1.777q0-2.44-2.653-2.44Zm0-1.429h2.69A2.82,2.82,0,0,0,24.5-8.332a1.964,1.964,0,0,0,.7-1.59,1.931,1.931,0,0,0-.649-1.622,3.189,3.189,0,0,0-1.976-.507H19.937Z" transform="translate(424.632 7350.363)" fill="#0c1d30"/>
    <path id="Trazado_222053" data-name="Trazado 222053" d="M6.051,0H4.507V-10.235L1.411-9.1v-1.395l4.4-1.652h.241ZM18.129-5.155a7.023,7.023,0,0,1-.921,4.009A3.277,3.277,0,0,1,14.327.166a3.3,3.3,0,0,1-2.864-1.282A6.666,6.666,0,0,1,10.5-4.947V-7a6.867,6.867,0,0,1,.921-3.959,3.3,3.3,0,0,1,2.889-1.295A3.332,3.332,0,0,1,17.183-11a6.627,6.627,0,0,1,.946,3.856Zm-1.536-2.1a5.627,5.627,0,0,0-.548-2.843,1.886,1.886,0,0,0-1.735-.892,1.861,1.861,0,0,0-1.718.888,5.494,5.494,0,0,0-.556,2.731v2.457A5.717,5.717,0,0,0,12.6-2.021a1.882,1.882,0,0,0,1.722.934,1.856,1.856,0,0,0,1.689-.88,5.51,5.51,0,0,0,.577-2.772ZM28.015,0H20.1V-1.1L24.28-5.752a9.939,9.939,0,0,0,1.282-1.714,2.861,2.861,0,0,0,.353-1.365,2.169,2.169,0,0,0-.573-1.552,2,2,0,0,0-1.527-.606,2.372,2.372,0,0,0-1.781.652A2.489,2.489,0,0,0,21.4-8.525H19.864a3.565,3.565,0,0,1,1.075-2.7,3.985,3.985,0,0,1,2.876-1.029,3.829,3.829,0,0,1,2.665.884,3.015,3.015,0,0,1,.979,2.353q0,1.785-2.274,4.25L21.947-1.253h6.068Zm8.11-4.059H37.8v1.253H36.125V0H34.581V-2.806h-5.5v-.9l5.412-8.375h1.635Zm-5.3,0h3.76V-9.986l-.183.332Zm15.033-8.027L49.8-2.225l3.951-9.861h2.067V0H54.229V-4.707l.149-5.08L50.411,0H49.19L45.231-9.762l.158,5.055V0H43.795V-12.086ZM58.637,0V-12.086h3.951a4.587,4.587,0,0,1,2.959.813,2.932,2.932,0,0,1,.992,2.407,2.455,2.455,0,0,1-.481,1.5,3.121,3.121,0,0,1-1.312,1.009,2.8,2.8,0,0,1,1.548,1.042,2.99,2.99,0,0,1,.569,1.83A3.232,3.232,0,0,1,65.809-.93a4.36,4.36,0,0,1-2.98.93ZM60.23-5.653V-1.3h2.631a2.534,2.534,0,0,0,1.756-.577,2.026,2.026,0,0,0,.643-1.59q0-2.183-2.374-2.183Zm0-1.278h2.407a2.523,2.523,0,0,0,1.673-.524,1.757,1.757,0,0,0,.627-1.422,1.728,1.728,0,0,0-.581-1.452,2.853,2.853,0,0,0-1.768-.453H60.23Z" transform="translate(531.888 7378.57)" fill="#0c1d30"/>
    <path id="Trazado_222054" data-name="Trazado 222054" d="M6.051,0H4.507V-10.235L1.411-9.1v-1.395l4.4-1.652h.241ZM18.129-5.155a7.023,7.023,0,0,1-.921,4.009A3.277,3.277,0,0,1,14.327.166a3.3,3.3,0,0,1-2.864-1.282A6.666,6.666,0,0,1,10.5-4.947V-7a6.867,6.867,0,0,1,.921-3.959,3.3,3.3,0,0,1,2.889-1.295A3.332,3.332,0,0,1,17.183-11a6.627,6.627,0,0,1,.946,3.856Zm-1.536-2.1a5.627,5.627,0,0,0-.548-2.843,1.886,1.886,0,0,0-1.735-.892,1.861,1.861,0,0,0-1.718.888,5.494,5.494,0,0,0-.556,2.731v2.457A5.717,5.717,0,0,0,12.6-2.021a1.882,1.882,0,0,0,1.722.934,1.856,1.856,0,0,0,1.689-.88,5.51,5.51,0,0,0,.577-2.772ZM28.015,0H20.1V-1.1L24.28-5.752a9.939,9.939,0,0,0,1.282-1.714,2.861,2.861,0,0,0,.353-1.365,2.169,2.169,0,0,0-.573-1.552,2,2,0,0,0-1.527-.606,2.372,2.372,0,0,0-1.781.652A2.489,2.489,0,0,0,21.4-8.525H19.864a3.565,3.565,0,0,1,1.075-2.7,3.985,3.985,0,0,1,2.876-1.029,3.829,3.829,0,0,1,2.665.884,3.015,3.015,0,0,1,.979,2.353q0,1.785-2.274,4.25L21.947-1.253h6.068Zm8.11-4.059H37.8v1.253H36.125V0H34.581V-2.806h-5.5v-.9l5.412-8.375h1.635Zm-5.3,0h3.76V-9.986l-.183.332Zm20.337-.332a5.34,5.34,0,0,1-.946,3.308A3.024,3.024,0,0,1,47.671.166a3.131,3.131,0,0,1-2.631-1.2L44.965,0H43.554V-12.75H45.09v4.756a3.113,3.113,0,0,1,2.565-1.154,3.042,3.042,0,0,1,2.569,1.237,5.5,5.5,0,0,1,.934,3.387Zm-1.536-.174a4.15,4.15,0,0,0-.606-2.424,2.006,2.006,0,0,0-1.743-.855A2.255,2.255,0,0,0,45.09-6.433v3.885a2.318,2.318,0,0,0,2.2,1.411,2,2,0,0,0,1.718-.855A4.413,4.413,0,0,0,49.622-4.565ZM55.939-2.25l2.092-6.732h1.644L56.063,1.386Q55.225,3.627,53.4,3.627L53.108,3.6l-.573-.108V2.25l.415.033a2.043,2.043,0,0,0,1.216-.315A2.283,2.283,0,0,0,54.885.813l.34-.913-3.2-8.882H53.7Zm7.188-8.907v2.175H64.8v1.187H63.127v5.577a1.247,1.247,0,0,0,.224.81.943.943,0,0,0,.764.27,3.718,3.718,0,0,0,.73-.1V0a4.478,4.478,0,0,1-1.179.165,1.912,1.912,0,0,1-1.552-.623,2.675,2.675,0,0,1-.523-1.768v-5.57H59.957V-8.981h1.635v-2.175ZM70.324.166a3.924,3.924,0,0,1-2.972-1.2,4.452,4.452,0,0,1-1.146-3.208v-.282a5.39,5.39,0,0,1,.51-2.386,3.982,3.982,0,0,1,1.428-1.644,3.59,3.59,0,0,1,1.988-.594,3.364,3.364,0,0,1,2.723,1.154,5,5,0,0,1,.971,3.3v.639H67.743a3.193,3.193,0,0,0,.776,2.146,2.44,2.44,0,0,0,1.888.818,2.675,2.675,0,0,0,1.378-.332,3.462,3.462,0,0,0,.988-.88l.938.73A3.772,3.772,0,0,1,70.324.166Zm-.191-8.052a2.048,2.048,0,0,0-1.561.677,3.288,3.288,0,0,0-.78,1.9h4.5v-.116a2.925,2.925,0,0,0-.631-1.814A1.928,1.928,0,0,0,70.133-7.886Zm10.7,5.5a1.131,1.131,0,0,0-.469-.967,4.514,4.514,0,0,0-1.635-.594,7.731,7.731,0,0,1-1.851-.6,2.633,2.633,0,0,1-1.013-.83,1.986,1.986,0,0,1-.328-1.146,2.33,2.33,0,0,1,.934-1.868,3.647,3.647,0,0,1,2.386-.764,3.753,3.753,0,0,1,2.478.789,2.5,2.5,0,0,1,.95,2.017H80.742a1.386,1.386,0,0,0-.535-1.087,2.006,2.006,0,0,0-1.349-.457,2.1,2.1,0,0,0-1.312.365,1.15,1.15,0,0,0-.473.955.932.932,0,0,0,.44.838,5.413,5.413,0,0,0,1.59.54,8.283,8.283,0,0,1,1.864.614,2.718,2.718,0,0,1,1.058.859,2.112,2.112,0,0,1,.344,1.224,2.3,2.3,0,0,1-.963,1.93,4.039,4.039,0,0,1-2.5.726A4.523,4.523,0,0,1,77-.216a3.105,3.105,0,0,1-1.3-1.067,2.571,2.571,0,0,1-.469-1.482h1.536a1.59,1.59,0,0,0,.618,1.224,2.4,2.4,0,0,0,1.523.452,2.476,2.476,0,0,0,1.4-.353A1.084,1.084,0,0,0,80.833-2.382Z" transform="translate(531.888 7315.861)" fill="#0c1d30"/>
    <path id="Trazado_222055" data-name="Trazado 222055" d="M6.051,0H4.507V-10.235L1.411-9.1v-1.395l4.4-1.652h.241ZM18.129-5.155a7.023,7.023,0,0,1-.921,4.009A3.277,3.277,0,0,1,14.327.166a3.3,3.3,0,0,1-2.864-1.282A6.666,6.666,0,0,1,10.5-4.947V-7a6.867,6.867,0,0,1,.921-3.959,3.3,3.3,0,0,1,2.889-1.295A3.332,3.332,0,0,1,17.183-11a6.627,6.627,0,0,1,.946,3.856Zm-1.536-2.1a5.627,5.627,0,0,0-.548-2.843,1.886,1.886,0,0,0-1.735-.892,1.861,1.861,0,0,0-1.718.888,5.494,5.494,0,0,0-.556,2.731v2.457A5.717,5.717,0,0,0,12.6-2.021a1.882,1.882,0,0,0,1.722.934,1.856,1.856,0,0,0,1.689-.88,5.51,5.51,0,0,0,.577-2.772ZM28.015,0H20.1V-1.1L24.28-5.752a9.939,9.939,0,0,0,1.282-1.714,2.861,2.861,0,0,0,.353-1.365,2.169,2.169,0,0,0-.573-1.552,2,2,0,0,0-1.527-.606,2.372,2.372,0,0,0-1.781.652A2.489,2.489,0,0,0,21.4-8.525H19.864a3.565,3.565,0,0,1,1.075-2.7,3.985,3.985,0,0,1,2.876-1.029,3.829,3.829,0,0,1,2.665.884,3.015,3.015,0,0,1,.979,2.353q0,1.785-2.274,4.25L21.947-1.253h6.068Zm8.11-4.059H37.8v1.253H36.125V0H34.581V-2.806h-5.5v-.9l5.412-8.375h1.635Zm-5.3,0h3.76V-9.986l-.183.332ZM46.866-5.62,45.389-4.084V0H43.795V-12.086h1.594v5.977l5.371-5.977h1.926L47.929-6.749,53.059,0H51.149ZM54.453,0V-12.086H58.4a4.587,4.587,0,0,1,2.959.813,2.932,2.932,0,0,1,.992,2.407,2.455,2.455,0,0,1-.481,1.5,3.121,3.121,0,0,1-1.312,1.009,2.8,2.8,0,0,1,1.548,1.042,2.99,2.99,0,0,1,.569,1.83A3.232,3.232,0,0,1,61.625-.93a4.36,4.36,0,0,1-2.98.93Zm1.594-5.653V-1.3h2.631a2.534,2.534,0,0,0,1.756-.577,2.026,2.026,0,0,0,.643-1.59q0-2.183-2.374-2.183Zm0-1.278h2.407a2.523,2.523,0,0,0,1.673-.524,1.757,1.757,0,0,0,.627-1.422,1.728,1.728,0,0,0-.581-1.452,2.853,2.853,0,0,0-1.768-.453H56.047Z" transform="translate(531.888 7347.216)" fill="#0c1d30"/>
    <path id="Trazado_222056" data-name="Trazado 222056" d="M4.333-12.086l3.1,8.766,3.088-8.766H13.8V0H11.3V-3.3l.249-5.7L8.284,0H6.574L3.32-9,3.569-3.3V0H1.079V-12.086ZM19.947.166A4.409,4.409,0,0,1,16.73-1.046a4.308,4.308,0,0,1-1.241-3.229v-.232a5.426,5.426,0,0,1,.523-2.42,3.838,3.838,0,0,1,1.482-1.644,4.159,4.159,0,0,1,2.187-.577,3.727,3.727,0,0,1,2.9,1.162,4.722,4.722,0,0,1,1.058,3.3v.979H17.921a2.229,2.229,0,0,0,.7,1.411,2.12,2.12,0,0,0,1.482.531,2.589,2.589,0,0,0,2.167-1l1.179,1.32A3.6,3.6,0,0,1,21.989-.261,4.793,4.793,0,0,1,19.947.166Zm-.274-7.379a1.5,1.5,0,0,0-1.158.484,2.5,2.5,0,0,0-.569,1.384h3.337v-.192a1.786,1.786,0,0,0-.432-1.238A1.547,1.547,0,0,0,19.673-7.213Zm4.956,2.656A5.413,5.413,0,0,1,25.571-7.9a3.057,3.057,0,0,1,2.577-1.245,2.751,2.751,0,0,1,2.167.979V-12.75h2.407V0H30.555l-.116-.955A2.823,2.823,0,0,1,28.131.166a3.049,3.049,0,0,1-2.544-1.249A5.587,5.587,0,0,1,24.628-4.557Zm2.4.171a3.565,3.565,0,0,0,.44,1.943,1.432,1.432,0,0,0,1.278.675,1.6,1.6,0,0,0,1.569-.942V-6.271a1.582,1.582,0,0,0-1.552-.942Q27.027-7.213,27.027-4.386ZM37.113,0H34.706V-8.981h2.407ZM34.564-11.306a1.181,1.181,0,0,1,.361-.888,1.356,1.356,0,0,1,.984-.349,1.36,1.36,0,0,1,.979.349,1.175,1.175,0,0,1,.365.888,1.178,1.178,0,0,1-.369.9,1.363,1.363,0,0,1-.975.349,1.363,1.363,0,0,1-.975-.349A1.178,1.178,0,0,1,34.564-11.306Zm4.15,6.749A5.413,5.413,0,0,1,39.657-7.9a3.057,3.057,0,0,1,2.577-1.245,2.751,2.751,0,0,1,2.167.979V-12.75h2.407V0H44.642l-.116-.955A2.823,2.823,0,0,1,42.218.166a3.049,3.049,0,0,1-2.544-1.249A5.587,5.587,0,0,1,38.715-4.557Zm2.4.171a3.565,3.565,0,0,0,.44,1.943,1.432,1.432,0,0,0,1.278.675A1.6,1.6,0,0,0,44.4-2.71V-6.271a1.582,1.582,0,0,0-1.552-.942Q41.114-7.213,41.114-4.386ZM53.872,0a2.664,2.664,0,0,1-.241-.805,2.9,2.9,0,0,1-2.266.971A3.189,3.189,0,0,1,49.178-.6a2.456,2.456,0,0,1-.867-1.926,2.538,2.538,0,0,1,1.058-2.191,5.222,5.222,0,0,1,3.059-.772h1.1V-6a1.48,1.48,0,0,0-.32-1A1.257,1.257,0,0,0,52.2-7.371a1.429,1.429,0,0,0-.95.291.987.987,0,0,0-.344.8h-2.4a2.41,2.41,0,0,1,.481-1.444A3.182,3.182,0,0,1,50.353-8.77a4.961,4.961,0,0,1,1.976-.378,3.92,3.92,0,0,1,2.635.834,2.918,2.918,0,0,1,.975,2.345v3.893A4.294,4.294,0,0,0,56.3-.141V0ZM51.888-1.668a2.066,2.066,0,0,0,.979-.237,1.554,1.554,0,0,0,.664-.635V-4.084h-.9q-1.8,0-1.917,1.245l-.008.141a.96.96,0,0,0,.315.739A1.225,1.225,0,0,0,51.888-1.668Z" transform="translate(324.914 7250.036)" fill="#fff"/>
    <path id="Trazado_222057" data-name="Trazado 222057" d="M7.346-3.171a1.278,1.278,0,0,0-.5-1.083,6.533,6.533,0,0,0-1.793-.8A12.71,12.71,0,0,1,3-5.877a3.35,3.35,0,0,1-2.059-3A2.919,2.919,0,0,1,1.5-10.621a3.6,3.6,0,0,1,1.585-1.2,5.967,5.967,0,0,1,2.32-.432,5.432,5.432,0,0,1,2.308.469,3.674,3.674,0,0,1,1.573,1.324,3.464,3.464,0,0,1,.56,1.942H7.354a1.63,1.63,0,0,0-.523-1.291,2.15,2.15,0,0,0-1.469-.461,2.3,2.3,0,0,0-1.419.386,1.217,1.217,0,0,0-.506,1.017,1.166,1.166,0,0,0,.594.988,6.705,6.705,0,0,0,1.747.747,7.55,7.55,0,0,1,3.1,1.585,3.157,3.157,0,0,1,.971,2.357A2.909,2.909,0,0,1,8.658-.726a5.2,5.2,0,0,1-3.2.892,6.171,6.171,0,0,1-2.54-.51,4.019,4.019,0,0,1-1.747-1.4A3.582,3.582,0,0,1,.573-3.8h2.5q0,2,2.391,2a2.326,2.326,0,0,0,1.386-.361A1.175,1.175,0,0,0,7.346-3.171ZM13.9,0H11.5V-8.981H13.9ZM11.355-11.306a1.181,1.181,0,0,1,.361-.888,1.356,1.356,0,0,1,.984-.349,1.36,1.36,0,0,1,.979.349,1.175,1.175,0,0,1,.365.888,1.178,1.178,0,0,1-.369.9,1.363,1.363,0,0,1-.975.349,1.363,1.363,0,0,1-.975-.349A1.178,1.178,0,0,1,11.355-11.306Zm6.773,2.324.075,1a3.156,3.156,0,0,1,2.582-1.17,2.4,2.4,0,0,1,2.382,1.37,3.084,3.084,0,0,1,2.7-1.37A2.679,2.679,0,0,1,28.04-8.3a3.911,3.911,0,0,1,.714,2.561V0H26.347V-5.741a1.717,1.717,0,0,0-.3-1.119,1.322,1.322,0,0,0-1.054-.354A1.5,1.5,0,0,0,23.5-6.182L23.508,0h-2.4V-5.732A1.7,1.7,0,0,0,20.8-6.864a1.335,1.335,0,0,0-1.046-.349,1.554,1.554,0,0,0-1.478.849V0h-2.4V-8.981ZM38.69-4.408a5.439,5.439,0,0,1-.921,3.366A3.052,3.052,0,0,1,35.2.166,2.8,2.8,0,0,1,32.863-.955L32.755,0H30.6V-12.75H33v4.574a2.732,2.732,0,0,1,2.183-.971A3.077,3.077,0,0,1,37.756-7.94a5.446,5.446,0,0,1,.934,3.4Zm-2.4-.183a3.593,3.593,0,0,0-.432-1.994,1.458,1.458,0,0,0-1.287-.629A1.582,1.582,0,0,0,33-6.273v3.555a1.6,1.6,0,0,0,1.594.949,1.482,1.482,0,0,0,1.527-1.149A5.944,5.944,0,0,0,36.291-4.591Zm3.5.017a5.327,5.327,0,0,1,.515-2.382A3.767,3.767,0,0,1,41.79-8.575a4.323,4.323,0,0,1,2.245-.573A4.09,4.09,0,0,1,47-8.035a4.464,4.464,0,0,1,1.282,3.021L48.3-4.4a4.694,4.694,0,0,1-1.154,3.316,4.011,4.011,0,0,1-3.1,1.249,4.031,4.031,0,0,1-3.1-1.245,4.777,4.777,0,0,1-1.158-3.387Zm2.4.17a3.357,3.357,0,0,0,.481,1.958,1.588,1.588,0,0,0,1.378.678,1.592,1.592,0,0,0,1.361-.669,3.674,3.674,0,0,0,.49-2.141,3.324,3.324,0,0,0-.49-1.945,1.592,1.592,0,0,0-1.378-.69,1.566,1.566,0,0,0-1.361.686A3.735,3.735,0,0,0,42.193-4.4ZM52.312,0H49.9V-12.75h2.407Zm1.6-4.574a5.327,5.327,0,0,1,.515-2.382A3.767,3.767,0,0,1,55.91-8.575a4.323,4.323,0,0,1,2.245-.573,4.09,4.09,0,0,1,2.968,1.112,4.464,4.464,0,0,1,1.282,3.021l.017.614a4.694,4.694,0,0,1-1.154,3.316,4.011,4.011,0,0,1-3.1,1.249,4.031,4.031,0,0,1-3.1-1.245,4.777,4.777,0,0,1-1.158-3.387Zm2.4.17a3.357,3.357,0,0,0,.481,1.958,1.588,1.588,0,0,0,1.378.678,1.592,1.592,0,0,0,1.361-.669,3.674,3.674,0,0,0,.49-2.141,3.324,3.324,0,0,0-.49-1.945,1.592,1.592,0,0,0-1.378-.69,1.566,1.566,0,0,0-1.361.686A3.735,3.735,0,0,0,56.313-4.4Zm7.238-.154a5.264,5.264,0,0,1,.984-3.329,3.187,3.187,0,0,1,2.652-1.262,2.8,2.8,0,0,1,2.3,1.013l.1-.847H71.76V-.3a3.839,3.839,0,0,1-.535,2.05A3.439,3.439,0,0,1,69.718,3.08a5.3,5.3,0,0,1-2.274.457,4.925,4.925,0,0,1-1.926-.394A3.418,3.418,0,0,1,64.1,2.125L65.161.664a2.81,2.81,0,0,0,2.175,1,2.057,2.057,0,0,0,1.486-.51,1.915,1.915,0,0,0,.531-1.448V-.772A2.775,2.775,0,0,1,67.17.166,3.179,3.179,0,0,1,64.551-1.1a5.262,5.262,0,0,1-1-3.358Zm2.4.171a3.3,3.3,0,0,0,.49,1.922,1.557,1.557,0,0,0,1.345.7,1.665,1.665,0,0,0,1.569-.826V-6.388A1.661,1.661,0,0,0,67.8-7.213a1.566,1.566,0,0,0-1.357.709A3.715,3.715,0,0,0,65.95-4.386ZM76.193,0h-2.4V-8.981h2.4Zm-.706-12.625H78.1l-2.3,2.573H73.852ZM83.464,0a2.664,2.664,0,0,1-.241-.805,2.9,2.9,0,0,1-2.266.971A3.189,3.189,0,0,1,78.77-.6,2.456,2.456,0,0,1,77.9-2.523a2.538,2.538,0,0,1,1.058-2.191,5.222,5.222,0,0,1,3.059-.772h1.1V-6a1.48,1.48,0,0,0-.32-1A1.257,1.257,0,0,0,81.8-7.371a1.429,1.429,0,0,0-.95.291.987.987,0,0,0-.344.8H78.1a2.41,2.41,0,0,1,.481-1.444A3.182,3.182,0,0,1,79.945-8.77a4.961,4.961,0,0,1,1.976-.378,3.92,3.92,0,0,1,2.635.834,2.918,2.918,0,0,1,.975,2.345v3.893a4.294,4.294,0,0,0,.357,1.934V0ZM81.48-1.668a2.066,2.066,0,0,0,.979-.237,1.554,1.554,0,0,0,.664-.635V-4.084h-.9q-1.8,0-1.917,1.245L80.3-2.7a.96.96,0,0,0,.315.739A1.225,1.225,0,0,0,81.48-1.668Z" transform="translate(424.632 7248.938)" fill="#fff"/>
    <path id="Trazado_222058" data-name="Trazado 222058" d="M8.334-8.932a2.807,2.807,0,0,1-.477,1.61,3.248,3.248,0,0,1-1.291,1.1,3.464,3.464,0,0,1,1.5,1.187,2.987,2.987,0,0,1,.552,1.768,3.158,3.158,0,0,1-1.058,2.5,4.066,4.066,0,0,1-2.785.93A4.048,4.048,0,0,1,1.98-.768,3.173,3.173,0,0,1,.93-3.262,3.076,3.076,0,0,1,1.465-5.03a3.332,3.332,0,0,1,1.482-1.2,3.167,3.167,0,0,1-1.27-1.1,2.846,2.846,0,0,1-.465-1.6,3.124,3.124,0,0,1,.979-2.424,3.674,3.674,0,0,1,2.582-.9,3.678,3.678,0,0,1,2.577.9A3.117,3.117,0,0,1,8.334-8.932ZM7.081-3.3a2.228,2.228,0,0,0-.643-1.652,2.281,2.281,0,0,0-1.681-.639,2.241,2.241,0,0,0-1.664.631A2.253,2.253,0,0,0,2.465-3.3a2.145,2.145,0,0,0,.61,1.619,2.342,2.342,0,0,0,1.7.589,2.335,2.335,0,0,0,1.693-.594A2.14,2.14,0,0,0,7.081-3.3ZM4.773-10.99a1.981,1.981,0,0,0-1.465.56,2.058,2.058,0,0,0-.56,1.523A2.048,2.048,0,0,0,3.3-7.417a1.959,1.959,0,0,0,1.473.569,1.959,1.959,0,0,0,1.473-.569A2.048,2.048,0,0,0,6.8-8.907a2.049,2.049,0,0,0-.573-1.5A1.953,1.953,0,0,0,4.773-10.99Zm17.747,6.6a5.34,5.34,0,0,1-.946,3.308A3.024,3.024,0,0,1,19.034.166a3.131,3.131,0,0,1-2.631-1.2L16.328,0H14.917V-12.75h1.536v4.756a3.113,3.113,0,0,1,2.565-1.154,3.042,3.042,0,0,1,2.569,1.237,5.5,5.5,0,0,1,.934,3.387Zm-1.536-.174a4.15,4.15,0,0,0-.606-2.424,2.006,2.006,0,0,0-1.743-.855,2.255,2.255,0,0,0-2.183,1.411v3.885a2.318,2.318,0,0,0,2.2,1.411,2,2,0,0,0,1.718-.855A4.413,4.413,0,0,0,20.984-4.565ZM26.123,0H24.587V-8.981h1.536Zm-1.66-11.364a.917.917,0,0,1,.228-.631.857.857,0,0,1,.677-.257.87.87,0,0,1,.681.257.907.907,0,0,1,.232.631.877.877,0,0,1-.232.623.886.886,0,0,1-.681.249.872.872,0,0,1-.677-.249A.886.886,0,0,1,24.462-11.364Zm6.2.208v2.175H32.34v1.187H30.663v5.577a1.247,1.247,0,0,0,.224.81.943.943,0,0,0,.764.27,3.718,3.718,0,0,0,.73-.1V0A4.478,4.478,0,0,1,31.2.166,1.912,1.912,0,0,1,29.65-.457a2.675,2.675,0,0,1-.523-1.768v-5.57H27.492V-8.981h1.635v-2.175Zm8.7,8.774a1.13,1.13,0,0,0-.469-.967,4.514,4.514,0,0,0-1.635-.594,7.731,7.731,0,0,1-1.851-.6,2.633,2.633,0,0,1-1.013-.83,1.986,1.986,0,0,1-.328-1.146A2.33,2.33,0,0,1,35-8.384a3.647,3.647,0,0,1,2.386-.764,3.753,3.753,0,0,1,2.478.789,2.5,2.5,0,0,1,.95,2.017H39.271a1.386,1.386,0,0,0-.535-1.087,2.006,2.006,0,0,0-1.349-.457,2.1,2.1,0,0,0-1.312.365,1.15,1.15,0,0,0-.473.955.932.932,0,0,0,.44.838,5.413,5.413,0,0,0,1.59.54,8.283,8.283,0,0,1,1.864.614,2.718,2.718,0,0,1,1.058.859A2.112,2.112,0,0,1,40.9-2.49a2.3,2.3,0,0,1-.963,1.93,4.039,4.039,0,0,1-2.5.726,4.523,4.523,0,0,1-1.909-.382,3.105,3.105,0,0,1-1.3-1.067,2.571,2.571,0,0,1-.469-1.482h1.536a1.59,1.59,0,0,0,.618,1.224,2.4,2.4,0,0,0,1.523.452,2.476,2.476,0,0,0,1.4-.353A1.084,1.084,0,0,0,39.362-2.382Z" transform="translate(531.888 7285.654)" fill="#0c1d30"/>
    <path id="Trazado_222059" data-name="Trazado 222059" d="M8.351-5.254H3.569V-2H9.181V0h-8.1V-12.086H9.164v2.017H3.569v2.88H8.351Zm1.6.681a5.369,5.369,0,0,1,.942-3.345A3.08,3.08,0,0,1,13.48-9.147a2.758,2.758,0,0,1,2.3,1.1l.158-.938h2.108V3.453H15.639V-.772a2.765,2.765,0,0,1-2.175.938,3.057,3.057,0,0,1-2.557-1.245A5.632,5.632,0,0,1,9.953-4.574Zm2.4.17A3.522,3.522,0,0,0,12.8-2.441a1.448,1.448,0,0,0,1.274.673,1.613,1.613,0,0,0,1.561-.881V-6.365a1.6,1.6,0,0,0-1.544-.848,1.466,1.466,0,0,0-1.287.673A3.889,3.889,0,0,0,12.352-4.4ZM25.309-.913A3.008,3.008,0,0,1,22.852.166a2.837,2.837,0,0,1-2.2-.83A3.543,3.543,0,0,1,19.872-3.1V-8.981h2.4v5.809q0,1.4,1.278,1.4a1.732,1.732,0,0,0,1.677-.848V-8.981h2.407V0H25.375ZM31.975,0H29.567V-8.981h2.407ZM29.426-11.306a1.181,1.181,0,0,1,.361-.888,1.356,1.356,0,0,1,.984-.349,1.36,1.36,0,0,1,.979.349,1.175,1.175,0,0,1,.365.888,1.178,1.178,0,0,1-.369.9,1.363,1.363,0,0,1-.975.349,1.363,1.363,0,0,1-.975-.349A1.178,1.178,0,0,1,29.426-11.306ZM37.312-2.93,38.98-8.981h2.507L38.458,0H36.167l-3.03-8.981h2.507ZM47.622,0a2.664,2.664,0,0,1-.241-.805,2.9,2.9,0,0,1-2.266.971A3.189,3.189,0,0,1,42.927-.6a2.456,2.456,0,0,1-.867-1.926,2.538,2.538,0,0,1,1.058-2.191,5.222,5.222,0,0,1,3.059-.772h1.1V-6a1.48,1.48,0,0,0-.32-1,1.257,1.257,0,0,0-1.009-.374,1.429,1.429,0,0,0-.95.291.987.987,0,0,0-.344.8h-2.4a2.41,2.41,0,0,1,.481-1.444A3.182,3.182,0,0,1,44.1-8.77a4.961,4.961,0,0,1,1.976-.378,3.92,3.92,0,0,1,2.635.834,2.918,2.918,0,0,1,.975,2.345v3.893a4.294,4.294,0,0,0,.357,1.934V0ZM45.638-1.668a2.066,2.066,0,0,0,.979-.237,1.554,1.554,0,0,0,.664-.635V-4.084h-.9q-1.8,0-1.917,1.245l-.008.141a.96.96,0,0,0,.315.739A1.225,1.225,0,0,0,45.638-1.668ZM54.063,0H51.656V-12.75h2.407Zm6.109.166a4.409,4.409,0,0,1-3.217-1.212,4.308,4.308,0,0,1-1.241-3.229v-.232a5.426,5.426,0,0,1,.523-2.42,3.838,3.838,0,0,1,1.482-1.644,4.159,4.159,0,0,1,2.187-.577,3.727,3.727,0,0,1,2.9,1.162,4.722,4.722,0,0,1,1.058,3.3v.979H58.147a2.229,2.229,0,0,0,.7,1.411,2.12,2.12,0,0,0,1.482.531,2.589,2.589,0,0,0,2.167-1l1.179,1.32A3.6,3.6,0,0,1,62.214-.261,4.793,4.793,0,0,1,60.172.166ZM59.9-7.213a1.5,1.5,0,0,0-1.158.484,2.5,2.5,0,0,0-.569,1.384h3.337v-.192a1.786,1.786,0,0,0-.432-1.238A1.547,1.547,0,0,0,59.9-7.213Zm7.537-1.768.075,1.038a3.136,3.136,0,0,1,2.582-1.2,2.606,2.606,0,0,1,2.125.838A3.912,3.912,0,0,1,72.931-5.8V0h-2.4V-5.757A1.562,1.562,0,0,0,70.2-6.868a1.484,1.484,0,0,0-1.1-.345,1.65,1.65,0,0,0-1.519.865V0h-2.4V-8.981ZM78.484-1.768a1.573,1.573,0,0,0,1.079-.365,1.28,1.28,0,0,0,.432-.971h2.25a3.077,3.077,0,0,1-.5,1.673A3.286,3.286,0,0,1,80.406-.253a4.2,4.2,0,0,1-1.88.419,3.9,3.9,0,0,1-3.038-1.224,4.845,4.845,0,0,1-1.112-3.383V-4.6a4.79,4.79,0,0,1,1.1-3.312,3.854,3.854,0,0,1,3.03-1.237,3.778,3.778,0,0,1,2.7.959,3.4,3.4,0,0,1,1.033,2.552h-2.25a1.648,1.648,0,0,0-.432-1.139,1.439,1.439,0,0,0-1.1-.438A1.445,1.445,0,0,0,77.2-6.6a3.541,3.541,0,0,0-.427,1.983v.249a3.586,3.586,0,0,0,.423,2A1.463,1.463,0,0,0,78.484-1.768ZM86.146,0H83.738V-8.981h2.407ZM83.6-11.306a1.181,1.181,0,0,1,.361-.888,1.356,1.356,0,0,1,.984-.349,1.36,1.36,0,0,1,.979.349,1.175,1.175,0,0,1,.365.888,1.178,1.178,0,0,1-.369.9,1.363,1.363,0,0,1-.975.349,1.363,1.363,0,0,1-.975-.349A1.178,1.178,0,0,1,83.6-11.306ZM93.326,0a2.664,2.664,0,0,1-.241-.805,2.9,2.9,0,0,1-2.266.971A3.189,3.189,0,0,1,88.632-.6a2.456,2.456,0,0,1-.867-1.926,2.538,2.538,0,0,1,1.058-2.191,5.222,5.222,0,0,1,3.059-.772h1.1V-6a1.48,1.48,0,0,0-.32-1,1.257,1.257,0,0,0-1.009-.374,1.429,1.429,0,0,0-.95.291.987.987,0,0,0-.344.8h-2.4a2.41,2.41,0,0,1,.481-1.444A3.182,3.182,0,0,1,89.806-8.77a4.961,4.961,0,0,1,1.976-.378,3.92,3.92,0,0,1,2.635.834,2.918,2.918,0,0,1,.975,2.345v3.893A4.294,4.294,0,0,0,95.75-.141V0ZM91.342-1.668a2.066,2.066,0,0,0,.979-.237,1.554,1.554,0,0,0,.664-.635V-4.084h-.9q-1.8,0-1.917,1.245l-.008.141a.96.96,0,0,0,.315.739A1.225,1.225,0,0,0,91.342-1.668Z" transform="translate(531.888 7248.938)" fill="#fff"/>
    <path id="Trazado_222060" data-name="Trazado 222060" d="M4.864-4.848,3.569-3.453V0H1.079V-12.086h2.49v5.479l1.1-1.5,3.08-3.976h3.063L6.516-6.715,10.932,0H7.969ZM14.734-3.4l1.66-5.586h2.573L15.356,1.395l-.2.473A2.738,2.738,0,0,1,12.5,3.627a3.775,3.775,0,0,1-1.062-.158V1.652l.365.008a1.973,1.973,0,0,0,1.017-.208,1.363,1.363,0,0,0,.527-.689L13.63.025,10.484-8.981h2.582ZM22.445,0H20.038V-12.75h2.407Zm1.6-4.574a5.327,5.327,0,0,1,.515-2.382,3.768,3.768,0,0,1,1.482-1.619,4.323,4.323,0,0,1,2.245-.573,4.09,4.09,0,0,1,2.968,1.112,4.464,4.464,0,0,1,1.282,3.021l.017.614A4.694,4.694,0,0,1,31.4-1.083a4.011,4.011,0,0,1-3.1,1.249,4.031,4.031,0,0,1-3.1-1.245,4.777,4.777,0,0,1-1.158-3.387Zm2.4.17a3.357,3.357,0,0,0,.481,1.958,1.588,1.588,0,0,0,1.378.678,1.592,1.592,0,0,0,1.361-.669,3.674,3.674,0,0,0,.49-2.141,3.324,3.324,0,0,0-.49-1.945,1.592,1.592,0,0,0-1.378-.69,1.566,1.566,0,0,0-1.361.686A3.735,3.735,0,0,0,26.446-4.4Zm15.68,0a5.439,5.439,0,0,1-.921,3.366A3.052,3.052,0,0,1,38.632.166,2.8,2.8,0,0,1,36.3-.955L36.191,0H34.033V-12.75h2.4v4.574a2.732,2.732,0,0,1,2.183-.971A3.077,3.077,0,0,1,41.193-7.94a5.446,5.446,0,0,1,.934,3.4Zm-2.4-.183A3.593,3.593,0,0,0,39.3-6.585a1.458,1.458,0,0,0-1.287-.629,1.582,1.582,0,0,0-1.577.941v3.555a1.6,1.6,0,0,0,1.594.949,1.482,1.482,0,0,0,1.527-1.149A5.944,5.944,0,0,0,39.728-4.591Zm7.139,1.2,1.66-5.586H51.1L47.489,1.395l-.2.473a2.738,2.738,0,0,1-2.656,1.76,3.775,3.775,0,0,1-1.062-.158V1.652l.365.008a1.973,1.973,0,0,0,1.017-.208A1.363,1.363,0,0,0,45.48.764l.282-.739L42.616-8.981H45.2Zm8.052-7.794v2.208h1.536v1.76H54.918v4.482a1.07,1.07,0,0,0,.191.714.959.959,0,0,0,.73.216,3.826,3.826,0,0,0,.706-.058V-.05a4.939,4.939,0,0,1-1.453.216,2.29,2.29,0,0,1-2.573-2.548V-7.222H51.208v-1.76h1.312v-2.208ZM61.924.166a4.409,4.409,0,0,1-3.217-1.212,4.308,4.308,0,0,1-1.241-3.229v-.232a5.426,5.426,0,0,1,.523-2.42,3.838,3.838,0,0,1,1.482-1.644,4.159,4.159,0,0,1,2.187-.577,3.727,3.727,0,0,1,2.9,1.162,4.722,4.722,0,0,1,1.058,3.3v.979H59.9A2.229,2.229,0,0,0,60.6-2.3a2.12,2.12,0,0,0,1.482.531,2.589,2.589,0,0,0,2.167-1l1.179,1.32A3.6,3.6,0,0,1,63.966-.261,4.793,4.793,0,0,1,61.924.166ZM61.65-7.213a1.5,1.5,0,0,0-1.158.484,2.5,2.5,0,0,0-.569,1.384H63.26v-.192a1.786,1.786,0,0,0-.432-1.238A1.547,1.547,0,0,0,61.65-7.213Z" transform="translate(325.868 7316.314)" fill="#0c1d30"/>
    <path id="Rectángulo_42487-2" data-name="Rectángulo 42487" d="M0,0H326.855V31.355H0Z" transform="translate(316 7453.306)" fill="#f4f3f3"/>
    <path id="Rectángulo_42488-2" data-name="Rectángulo 42488" d="M0,0H326.855V31.355H0Z" transform="translate(316 7390.597)" fill="#f4f3f3"/>
    <path id="Rectángulo_42489-3" data-name="Rectángulo 42489" d="M0,0H326.855V31.355H0Z" transform="translate(316 7421.951)" fill="#fff"/>
    <path id="Rectángulo_42489-4" data-name="Rectángulo 42489" d="M0,0H326.855V31.355H0Z" transform="translate(316 7484.66)" fill="#fff"/>
    <path id="Trazado_222061" data-name="Trazado 222061" d="M11.475-12.686H6.9V0H5.039V-12.686H.479v-1.533h11ZM13.584,0V-14.219h4.648a5.4,5.4,0,0,1,3.481.957,3.449,3.449,0,0,1,1.167,2.832,2.888,2.888,0,0,1-.566,1.763A3.672,3.672,0,0,1,20.771-7.48a3.3,3.3,0,0,1,1.821,1.226A3.517,3.517,0,0,1,23.262-4.1a3.8,3.8,0,0,1-1.24,3.008A5.129,5.129,0,0,1,18.516,0Zm1.875-6.65v5.117h3.1a2.981,2.981,0,0,0,2.065-.679,2.384,2.384,0,0,0,.757-1.87q0-2.568-2.793-2.568Zm0-1.5h2.832a2.969,2.969,0,0,0,1.968-.617A2.067,2.067,0,0,0,21-10.444a2.033,2.033,0,0,0-.684-1.708,3.357,3.357,0,0,0-2.08-.533H15.459Z" transform="translate(424.632 7412.924)" fill="#0c1d30"/>
    <path id="Trazado_222062" data-name="Trazado 222062" d="M3.057-1.533h8.135V0H.84V-1.406L8.633-12.686H.967v-1.533h9.912v1.368ZM13.623,0V-14.219h4.648a5.4,5.4,0,0,1,3.481.957A3.449,3.449,0,0,1,22.92-10.43a2.888,2.888,0,0,1-.566,1.763A3.672,3.672,0,0,1,20.811-7.48a3.3,3.3,0,0,1,1.821,1.226A3.517,3.517,0,0,1,23.3-4.1a3.8,3.8,0,0,1-1.24,3.008A5.129,5.129,0,0,1,18.555,0ZM15.5-6.65v5.117h3.1a2.981,2.981,0,0,0,2.065-.679,2.384,2.384,0,0,0,.757-1.87q0-2.568-2.793-2.568Zm0-1.5H18.33A2.969,2.969,0,0,0,20.3-8.771a2.067,2.067,0,0,0,.737-1.674,2.033,2.033,0,0,0-.684-1.708,3.357,3.357,0,0,0-2.08-.533H15.5Z" transform="translate(424.632 7506.987)" fill="#0c1d30"/>
    <path id="Trazado_222063" data-name="Trazado 222063" d="M3.525-5.566V0H1.65V-14.219H6.895a5.269,5.269,0,0,1,3.657,1.191,4.039,4.039,0,0,1,1.323,3.154,3.986,3.986,0,0,1-1.294,3.188A5.5,5.5,0,0,1,6.875-5.566Zm0-1.533H6.895a3.369,3.369,0,0,0,2.3-.709,2.593,2.593,0,0,0,.8-2.05,2.679,2.679,0,0,0-.8-2.035A3.156,3.156,0,0,0,7-12.686H3.525ZM14.268,0V-14.219h4.648a5.4,5.4,0,0,1,3.481.957,3.449,3.449,0,0,1,1.167,2.832A2.888,2.888,0,0,1,23-8.667,3.672,3.672,0,0,1,21.455-7.48a3.3,3.3,0,0,1,1.821,1.226A3.517,3.517,0,0,1,23.945-4.1a3.8,3.8,0,0,1-1.24,3.008A5.129,5.129,0,0,1,19.2,0Zm1.875-6.65v5.117h3.1A2.981,2.981,0,0,0,21.3-2.212a2.384,2.384,0,0,0,.757-1.87q0-2.568-2.793-2.568Zm0-1.5h2.832a2.969,2.969,0,0,0,1.968-.617,2.067,2.067,0,0,0,.737-1.674A2.033,2.033,0,0,0,21-12.152a3.357,3.357,0,0,0-2.08-.533H16.143Z" transform="translate(424.632 7445.427)" fill="#0c1d30"/>
    <path id="Trazado_222064" data-name="Trazado 222064" d="M9.2-6.244H3.349v4.787h6.8V0H1.568V-13.508h8.489v1.457H3.349V-7.7H9.2ZM12.367,0V-13.508h4.416a5.126,5.126,0,0,1,3.307.909A3.277,3.277,0,0,1,21.2-9.908a2.744,2.744,0,0,1-.538,1.675,3.488,3.488,0,0,1-1.466,1.127,3.133,3.133,0,0,1,1.73,1.164A3.342,3.342,0,0,1,21.561-3.9a3.613,3.613,0,0,1-1.178,2.857A4.872,4.872,0,0,1,17.052,0Zm1.781-6.318v4.861h2.941A2.832,2.832,0,0,0,19.051-2.1a2.265,2.265,0,0,0,.719-1.777q0-2.44-2.653-2.44Zm0-1.429h2.69a2.82,2.82,0,0,0,1.869-.586,1.964,1.964,0,0,0,.7-1.59,1.931,1.931,0,0,0-.649-1.622,3.189,3.189,0,0,0-1.976-.507H14.148Z" transform="translate(424.632 7474.634)" fill="#0c1d30"/>
    <path id="Trazado_222065" data-name="Trazado 222065" d="M6.051,0H4.507V-10.235L1.411-9.1v-1.395l4.4-1.652h.241ZM18.129-5.155a7.023,7.023,0,0,1-.921,4.009A3.277,3.277,0,0,1,14.327.166a3.3,3.3,0,0,1-2.864-1.282A6.666,6.666,0,0,1,10.5-4.947V-7a6.867,6.867,0,0,1,.921-3.959,3.3,3.3,0,0,1,2.889-1.295A3.332,3.332,0,0,1,17.183-11a6.627,6.627,0,0,1,.946,3.856Zm-1.536-2.1a5.627,5.627,0,0,0-.548-2.843,1.886,1.886,0,0,0-1.735-.892,1.861,1.861,0,0,0-1.718.888,5.494,5.494,0,0,0-.556,2.731v2.457A5.717,5.717,0,0,0,12.6-2.021a1.882,1.882,0,0,0,1.722.934,1.856,1.856,0,0,0,1.689-.88,5.51,5.51,0,0,0,.577-2.772ZM28.015,0H20.1V-1.1L24.28-5.752a9.939,9.939,0,0,0,1.282-1.714,2.861,2.861,0,0,0,.353-1.365,2.169,2.169,0,0,0-.573-1.552,2,2,0,0,0-1.527-.606,2.372,2.372,0,0,0-1.781.652A2.489,2.489,0,0,0,21.4-8.525H19.864a3.565,3.565,0,0,1,1.075-2.7,3.985,3.985,0,0,1,2.876-1.029,3.829,3.829,0,0,1,2.665.884,3.015,3.015,0,0,1,.979,2.353q0,1.785-2.274,4.25L21.947-1.253h6.068Zm8.11-4.059H37.8v1.253H36.125V0H34.581V-2.806h-5.5v-.9l5.412-8.375h1.635Zm-5.3,0h3.76V-9.986l-.183.332ZM50.626-5.586H45.389V-1.3h6.084V0H43.795V-12.086h7.6v1.3h-6V-6.89h5.238ZM53.457,0V-12.086h3.951a4.587,4.587,0,0,1,2.959.813,2.932,2.932,0,0,1,.992,2.407,2.455,2.455,0,0,1-.481,1.5,3.121,3.121,0,0,1-1.312,1.009,2.8,2.8,0,0,1,1.548,1.042,2.99,2.99,0,0,1,.569,1.83A3.232,3.232,0,0,1,60.629-.93a4.36,4.36,0,0,1-2.98.93Zm1.594-5.653V-1.3h2.631a2.534,2.534,0,0,0,1.756-.577,2.026,2.026,0,0,0,.643-1.59q0-2.183-2.374-2.183Zm0-1.278h2.407a2.523,2.523,0,0,0,1.673-.524,1.757,1.757,0,0,0,.627-1.422,1.728,1.728,0,0,0-.581-1.452,2.853,2.853,0,0,0-1.768-.453H55.051Z" transform="translate(531.888 7503.988)" fill="#0c1d30"/>
    <path id="Trazado_222066" data-name="Trazado 222066" d="M6.051,0H4.507V-10.235L1.411-9.1v-1.395l4.4-1.652h.241ZM18.129-5.155a7.023,7.023,0,0,1-.921,4.009A3.277,3.277,0,0,1,14.327.166a3.3,3.3,0,0,1-2.864-1.282A6.666,6.666,0,0,1,10.5-4.947V-7a6.867,6.867,0,0,1,.921-3.959,3.3,3.3,0,0,1,2.889-1.295A3.332,3.332,0,0,1,17.183-11a6.627,6.627,0,0,1,.946,3.856Zm-1.536-2.1a5.627,5.627,0,0,0-.548-2.843,1.886,1.886,0,0,0-1.735-.892,1.861,1.861,0,0,0-1.718.888,5.494,5.494,0,0,0-.556,2.731v2.457A5.717,5.717,0,0,0,12.6-2.021a1.882,1.882,0,0,0,1.722.934,1.856,1.856,0,0,0,1.689-.88,5.51,5.51,0,0,0,.577-2.772ZM28.015,0H20.1V-1.1L24.28-5.752a9.939,9.939,0,0,0,1.282-1.714,2.861,2.861,0,0,0,.353-1.365,2.169,2.169,0,0,0-.573-1.552,2,2,0,0,0-1.527-.606,2.372,2.372,0,0,0-1.781.652A2.489,2.489,0,0,0,21.4-8.525H19.864a3.565,3.565,0,0,1,1.075-2.7,3.985,3.985,0,0,1,2.876-1.029,3.829,3.829,0,0,1,2.665.884,3.015,3.015,0,0,1,.979,2.353q0,1.785-2.274,4.25L21.947-1.253h6.068Zm8.11-4.059H37.8v1.253H36.125V0H34.581V-2.806h-5.5v-.9l5.412-8.375h1.635Zm-5.3,0h3.76V-9.986l-.183.332Zm20.993-6.724H47.929V0H46.343V-10.783H42.467v-1.3h9.347ZM53.606,0V-12.086h3.951a4.587,4.587,0,0,1,2.959.813,2.932,2.932,0,0,1,.992,2.407,2.455,2.455,0,0,1-.481,1.5,3.121,3.121,0,0,1-1.312,1.009,2.8,2.8,0,0,1,1.548,1.042,2.99,2.99,0,0,1,.569,1.83A3.232,3.232,0,0,1,60.778-.93,4.36,4.36,0,0,1,57.8,0ZM55.2-5.653V-1.3h2.631a2.534,2.534,0,0,0,1.756-.577,2.026,2.026,0,0,0,.643-1.59q0-2.183-2.374-2.183Zm0-1.278h2.407a2.523,2.523,0,0,0,1.673-.524,1.757,1.757,0,0,0,.627-1.422,1.728,1.728,0,0,0-.581-1.452,2.853,2.853,0,0,0-1.768-.453H55.2Z" transform="translate(531.888 7441.279)" fill="#0c1d30"/>
    <path id="Trazado_222067" data-name="Trazado 222067" d="M6.051,0H4.507V-10.235L1.411-9.1v-1.395l4.4-1.652h.241ZM18.129-5.155a7.023,7.023,0,0,1-.921,4.009A3.277,3.277,0,0,1,14.327.166a3.3,3.3,0,0,1-2.864-1.282A6.666,6.666,0,0,1,10.5-4.947V-7a6.867,6.867,0,0,1,.921-3.959,3.3,3.3,0,0,1,2.889-1.295A3.332,3.332,0,0,1,17.183-11a6.627,6.627,0,0,1,.946,3.856Zm-1.536-2.1a5.627,5.627,0,0,0-.548-2.843,1.886,1.886,0,0,0-1.735-.892,1.861,1.861,0,0,0-1.718.888,5.494,5.494,0,0,0-.556,2.731v2.457A5.717,5.717,0,0,0,12.6-2.021a1.882,1.882,0,0,0,1.722.934,1.856,1.856,0,0,0,1.689-.88,5.51,5.51,0,0,0,.577-2.772ZM28.015,0H20.1V-1.1L24.28-5.752a9.939,9.939,0,0,0,1.282-1.714,2.861,2.861,0,0,0,.353-1.365,2.169,2.169,0,0,0-.573-1.552,2,2,0,0,0-1.527-.606,2.372,2.372,0,0,0-1.781.652A2.489,2.489,0,0,0,21.4-8.525H19.864a3.565,3.565,0,0,1,1.075-2.7,3.985,3.985,0,0,1,2.876-1.029,3.829,3.829,0,0,1,2.665.884,3.015,3.015,0,0,1,.979,2.353q0,1.785-2.274,4.25L21.947-1.253h6.068Zm8.11-4.059H37.8v1.253H36.125V0H34.581V-2.806h-5.5v-.9l5.412-8.375h1.635Zm-5.3,0h3.76V-9.986l-.183.332Zm14.568-.672V0H43.795V-12.086h4.458a4.478,4.478,0,0,1,3.109,1.013,3.433,3.433,0,0,1,1.125,2.681,3.388,3.388,0,0,1-1.1,2.71,4.678,4.678,0,0,1-3.15.95Zm0-1.3h2.864a2.863,2.863,0,0,0,1.959-.6,2.2,2.2,0,0,0,.681-1.742,2.277,2.277,0,0,0-.681-1.73,2.682,2.682,0,0,0-1.868-.674H45.389ZM54.52,0V-12.086h3.951a4.587,4.587,0,0,1,2.959.813,2.932,2.932,0,0,1,.992,2.407,2.455,2.455,0,0,1-.481,1.5,3.121,3.121,0,0,1-1.312,1.009,2.8,2.8,0,0,1,1.548,1.042,2.99,2.99,0,0,1,.569,1.83A3.232,3.232,0,0,1,61.691-.93a4.36,4.36,0,0,1-2.98.93Zm1.594-5.653V-1.3h2.631A2.534,2.534,0,0,0,60.5-1.88a2.026,2.026,0,0,0,.643-1.59q0-2.183-2.374-2.183Zm0-1.278h2.407a2.523,2.523,0,0,0,1.673-.524,1.757,1.757,0,0,0,.627-1.422,1.728,1.728,0,0,0-.581-1.452,2.853,2.853,0,0,0-1.768-.453H56.113Z" transform="translate(531.888 7472.634)" fill="#0c1d30"/>
    <path id="Trazado_222068" data-name="Trazado 222068" d="M6.051,0H4.507V-10.235L1.411-9.1v-1.395l4.4-1.652h.241ZM18.129-5.155a7.023,7.023,0,0,1-.921,4.009A3.277,3.277,0,0,1,14.327.166a3.3,3.3,0,0,1-2.864-1.282A6.666,6.666,0,0,1,10.5-4.947V-7a6.867,6.867,0,0,1,.921-3.959,3.3,3.3,0,0,1,2.889-1.295A3.332,3.332,0,0,1,17.183-11a6.627,6.627,0,0,1,.946,3.856Zm-1.536-2.1a5.627,5.627,0,0,0-.548-2.843,1.886,1.886,0,0,0-1.735-.892,1.861,1.861,0,0,0-1.718.888,5.494,5.494,0,0,0-.556,2.731v2.457A5.717,5.717,0,0,0,12.6-2.021a1.882,1.882,0,0,0,1.722.934,1.856,1.856,0,0,0,1.689-.88,5.51,5.51,0,0,0,.577-2.772ZM28.015,0H20.1V-1.1L24.28-5.752a9.939,9.939,0,0,0,1.282-1.714,2.861,2.861,0,0,0,.353-1.365,2.169,2.169,0,0,0-.573-1.552,2,2,0,0,0-1.527-.606,2.372,2.372,0,0,0-1.781.652A2.489,2.489,0,0,0,21.4-8.525H19.864a3.565,3.565,0,0,1,1.075-2.7,3.985,3.985,0,0,1,2.876-1.029,3.829,3.829,0,0,1,2.665.884,3.015,3.015,0,0,1,.979,2.353q0,1.785-2.274,4.25L21.947-1.253h6.068Zm8.11-4.059H37.8v1.253H36.125V0H34.581V-2.806h-5.5v-.9l5.412-8.375h1.635Zm-5.3,0h3.76V-9.986l-.183.332Zm21.9,2.474A3.682,3.682,0,0,1,51-.27a6.924,6.924,0,0,1-2.561.436A4.966,4.966,0,0,1,45.82-.527,4.618,4.618,0,0,1,44.048-2.5,6.809,6.809,0,0,1,43.4-5.462V-6.516a6.356,6.356,0,0,1,1.274-4.233,4.44,4.44,0,0,1,3.582-1.5,4.586,4.586,0,0,1,3.046.967,4.213,4.213,0,0,1,1.411,2.743H51.125a2.635,2.635,0,0,0-2.855-2.407,2.821,2.821,0,0,0-2.428,1.126,5.5,5.5,0,0,0-.834,3.261v.989a5.151,5.151,0,0,0,.93,3.236,3.014,3.014,0,0,0,2.515,1.2,5.555,5.555,0,0,0,1.569-.2,2.426,2.426,0,0,0,1.112-.671V-4.715h-2.8v-1.3h4.383ZM55.375,0V-12.086h3.951a4.587,4.587,0,0,1,2.959.813,2.932,2.932,0,0,1,.992,2.407,2.455,2.455,0,0,1-.481,1.5,3.121,3.121,0,0,1-1.312,1.009,2.8,2.8,0,0,1,1.548,1.042,2.99,2.99,0,0,1,.569,1.83A3.232,3.232,0,0,1,62.546-.93a4.36,4.36,0,0,1-2.98.93Zm1.594-5.653V-1.3H59.6a2.534,2.534,0,0,0,1.756-.577A2.026,2.026,0,0,0,62-3.47q0-2.183-2.374-2.183Zm0-1.278h2.407a2.523,2.523,0,0,0,1.673-.524,1.757,1.757,0,0,0,.627-1.422,1.728,1.728,0,0,0-.581-1.452,2.853,2.853,0,0,0-1.768-.453H56.968Z" transform="translate(531.888 7409.925)" fill="#0c1d30"/>
    <path id="Rectángulo_42488-3" data-name="Rectángulo 42488" d="M0,0H326.855V31.355H0Z" transform="translate(316 7516.015)" fill="#f4f3f3"/>
    <path id="Rectángulo_42489-5" data-name="Rectángulo 42489" d="M0,0H326.855V31.355H0Z" transform="translate(316 7547.369)" fill="#fff"/>
    <path id="Trazado_222069" data-name="Trazado 222069" d="M5.986-7.08,9.7-14.219h2.129L6.924-5.3V0H5.049V-5.3l-4.9-8.916H2.295ZM13.662,0V-14.219h4.648a5.4,5.4,0,0,1,3.481.957,3.449,3.449,0,0,1,1.167,2.832,2.888,2.888,0,0,1-.566,1.763A3.672,3.672,0,0,1,20.85-7.48a3.3,3.3,0,0,1,1.821,1.226A3.517,3.517,0,0,1,23.34-4.1,3.8,3.8,0,0,1,22.1-1.094,5.129,5.129,0,0,1,18.594,0Zm1.875-6.65v5.117h3.1A2.981,2.981,0,0,0,20.7-2.212a2.384,2.384,0,0,0,.757-1.87q0-2.568-2.793-2.568Zm0-1.5h2.832a2.969,2.969,0,0,0,1.968-.617,2.067,2.067,0,0,0,.737-1.674,2.033,2.033,0,0,0-.684-1.708,3.357,3.357,0,0,0-2.08-.533H15.537Z" transform="translate(424.632 7538.343)" fill="#0c1d30"/>
    <path id="Trazado_222070" data-name="Trazado 222070" d="M1.568,0V-13.508H5.984a5.126,5.126,0,0,1,3.307.909A3.277,3.277,0,0,1,10.4-9.908a2.744,2.744,0,0,1-.538,1.675A3.488,3.488,0,0,1,8.4-7.106a3.133,3.133,0,0,1,1.73,1.164A3.342,3.342,0,0,1,10.762-3.9,3.613,3.613,0,0,1,9.583-1.039,4.872,4.872,0,0,1,6.253,0ZM3.349-6.318v4.861H6.29A2.832,2.832,0,0,0,8.252-2.1a2.265,2.265,0,0,0,.719-1.777q0-2.44-2.653-2.44Zm0-1.429H6.04a2.82,2.82,0,0,0,1.869-.586,1.964,1.964,0,0,0,.7-1.59,1.931,1.931,0,0,0-.649-1.622,3.189,3.189,0,0,0-1.976-.507H3.349ZM13.4,0V-13.508h4.416a5.126,5.126,0,0,1,3.307.909,3.277,3.277,0,0,1,1.109,2.69,2.744,2.744,0,0,1-.538,1.675,3.488,3.488,0,0,1-1.466,1.127,3.133,3.133,0,0,1,1.73,1.164A3.342,3.342,0,0,1,22.59-3.9a3.613,3.613,0,0,1-1.178,2.857A4.872,4.872,0,0,1,18.082,0Zm1.781-6.318v4.861h2.941A2.832,2.832,0,0,0,20.081-2.1,2.265,2.265,0,0,0,20.8-3.878q0-2.44-2.653-2.44Zm0-1.429h2.69a2.82,2.82,0,0,0,1.869-.586,1.964,1.964,0,0,0,.7-1.59,1.931,1.931,0,0,0-.649-1.622,3.189,3.189,0,0,0-1.976-.507H15.178Z" transform="translate(424.632 7568.697)" fill="#0c1d30"/>
    <path id="Trazado_222071" data-name="Trazado 222071" d="M6.051,0H4.507V-10.235L1.411-9.1v-1.395l4.4-1.652h.241ZM18.129-5.155a7.023,7.023,0,0,1-.921,4.009A3.277,3.277,0,0,1,14.327.166a3.3,3.3,0,0,1-2.864-1.282A6.666,6.666,0,0,1,10.5-4.947V-7a6.867,6.867,0,0,1,.921-3.959,3.3,3.3,0,0,1,2.889-1.295A3.332,3.332,0,0,1,17.183-11a6.627,6.627,0,0,1,.946,3.856Zm-1.536-2.1a5.627,5.627,0,0,0-.548-2.843,1.886,1.886,0,0,0-1.735-.892,1.861,1.861,0,0,0-1.718.888,5.494,5.494,0,0,0-.556,2.731v2.457A5.717,5.717,0,0,0,12.6-2.021a1.882,1.882,0,0,0,1.722.934,1.856,1.856,0,0,0,1.689-.88,5.51,5.51,0,0,0,.577-2.772ZM28.015,0H20.1V-1.1L24.28-5.752a9.939,9.939,0,0,0,1.282-1.714,2.861,2.861,0,0,0,.353-1.365,2.169,2.169,0,0,0-.573-1.552,2,2,0,0,0-1.527-.606,2.372,2.372,0,0,0-1.781.652A2.489,2.489,0,0,0,21.4-8.525H19.864a3.565,3.565,0,0,1,1.075-2.7,3.985,3.985,0,0,1,2.876-1.029,3.829,3.829,0,0,1,2.665.884,3.015,3.015,0,0,1,.979,2.353q0,1.785-2.274,4.25L21.947-1.253h6.068Zm8.11-4.059H37.8v1.253H36.125V0H34.581V-2.806h-5.5v-.9l5.412-8.375h1.635Zm-5.3,0h3.76V-9.986l-.183.332ZM47.48-6.018l3.154-6.068h1.81L48.277-4.507V0H46.684V-4.507l-4.167-7.579h1.826ZM54,0V-12.086h3.951a4.587,4.587,0,0,1,2.959.813,2.932,2.932,0,0,1,.992,2.407,2.455,2.455,0,0,1-.481,1.5,3.121,3.121,0,0,1-1.312,1.009,2.8,2.8,0,0,1,1.548,1.042,2.99,2.99,0,0,1,.569,1.83A3.232,3.232,0,0,1,61.177-.93,4.36,4.36,0,0,1,58.2,0ZM55.6-5.653V-1.3H58.23a2.534,2.534,0,0,0,1.756-.577,2.026,2.026,0,0,0,.643-1.59q0-2.183-2.374-2.183Zm0-1.278h2.407a2.523,2.523,0,0,0,1.673-.524,1.757,1.757,0,0,0,.627-1.422,1.728,1.728,0,0,0-.581-1.452,2.853,2.853,0,0,0-1.768-.453H55.6Z" transform="translate(531.888 7566.697)" fill="#0c1d30"/>
    <path id="Trazado_222072" data-name="Trazado 222072" d="M6.051,0H4.507V-10.235L1.411-9.1v-1.395l4.4-1.652h.241ZM18.129-5.155a7.023,7.023,0,0,1-.921,4.009A3.277,3.277,0,0,1,14.327.166a3.3,3.3,0,0,1-2.864-1.282A6.666,6.666,0,0,1,10.5-4.947V-7a6.867,6.867,0,0,1,.921-3.959,3.3,3.3,0,0,1,2.889-1.295A3.332,3.332,0,0,1,17.183-11a6.627,6.627,0,0,1,.946,3.856Zm-1.536-2.1a5.627,5.627,0,0,0-.548-2.843,1.886,1.886,0,0,0-1.735-.892,1.861,1.861,0,0,0-1.718.888,5.494,5.494,0,0,0-.556,2.731v2.457A5.717,5.717,0,0,0,12.6-2.021a1.882,1.882,0,0,0,1.722.934,1.856,1.856,0,0,0,1.689-.88,5.51,5.51,0,0,0,.577-2.772ZM28.015,0H20.1V-1.1L24.28-5.752a9.939,9.939,0,0,0,1.282-1.714,2.861,2.861,0,0,0,.353-1.365,2.169,2.169,0,0,0-.573-1.552,2,2,0,0,0-1.527-.606,2.372,2.372,0,0,0-1.781.652A2.489,2.489,0,0,0,21.4-8.525H19.864a3.565,3.565,0,0,1,1.075-2.7,3.985,3.985,0,0,1,2.876-1.029,3.829,3.829,0,0,1,2.665.884,3.015,3.015,0,0,1,.979,2.353q0,1.785-2.274,4.25L21.947-1.253h6.068Zm8.11-4.059H37.8v1.253H36.125V0H34.581V-2.806h-5.5v-.9l5.412-8.375h1.635Zm-5.3,0h3.76V-9.986l-.183.332ZM44.99-1.3H51.9V0h-8.8V-1.2l6.624-9.587H43.214v-1.3h8.425v1.163ZM53.972,0V-12.086h3.951a4.587,4.587,0,0,1,2.959.813,2.932,2.932,0,0,1,.992,2.407,2.455,2.455,0,0,1-.481,1.5,3.121,3.121,0,0,1-1.312,1.009,2.8,2.8,0,0,1,1.548,1.042,2.99,2.99,0,0,1,.569,1.83A3.232,3.232,0,0,1,61.144-.93a4.36,4.36,0,0,1-2.98.93Zm1.594-5.653V-1.3H58.2a2.534,2.534,0,0,0,1.756-.577A2.026,2.026,0,0,0,60.6-3.47q0-2.183-2.374-2.183Zm0-1.278h2.407a2.523,2.523,0,0,0,1.673-.524,1.757,1.757,0,0,0,.627-1.422,1.728,1.728,0,0,0-.581-1.452,2.853,2.853,0,0,0-1.768-.453H55.565Z" transform="translate(531.888 7535.343)" fill="#0c1d30"/>
    <path id="Línea_175" data-name="Línea 175" d="M0,0V355.723" transform="translate(419.176 7223)" fill="none" stroke="#4cb7cd" stroke-linecap="round" stroke-width="2"/>
    <path id="Línea_175-2" data-name="Línea 175" d="M0,0V355.723" transform="translate(520.818 7223)" fill="none" stroke="#4cb7cd" stroke-linecap="round" stroke-width="2"/>
    <path id="Trazado_222073" data-name="Trazado 222073" d="M10.177-10.069h-3.7V0H3.984V-10.069H.332v-2.017h9.845ZM14.833.166a4.409,4.409,0,0,1-3.217-1.212,4.308,4.308,0,0,1-1.241-3.229v-.232a5.426,5.426,0,0,1,.523-2.42,3.838,3.838,0,0,1,1.482-1.644,4.159,4.159,0,0,1,2.187-.577,3.727,3.727,0,0,1,2.9,1.162,4.722,4.722,0,0,1,1.058,3.3v.979H12.808a2.229,2.229,0,0,0,.7,1.411,2.12,2.12,0,0,0,1.482.531,2.589,2.589,0,0,0,2.167-1l1.179,1.32A3.6,3.6,0,0,1,16.875-.261,4.793,4.793,0,0,1,14.833.166ZM14.56-7.213A1.5,1.5,0,0,0,13.4-6.73a2.5,2.5,0,0,0-.569,1.384H16.17v-.192a1.786,1.786,0,0,0-.432-1.238A1.547,1.547,0,0,0,14.56-7.213Zm10.376.481a6.517,6.517,0,0,0-.863-.066,1.757,1.757,0,0,0-1.785.921V0h-2.4V-8.981h2.266l.066,1.071a2.223,2.223,0,0,1,2-1.237,2.514,2.514,0,0,1,.747.108ZM31.045,0A2.664,2.664,0,0,1,30.8-.805a2.9,2.9,0,0,1-2.266.971A3.189,3.189,0,0,1,26.351-.6a2.456,2.456,0,0,1-.867-1.926,2.538,2.538,0,0,1,1.058-2.191A5.222,5.222,0,0,1,29.6-5.487h1.1V-6a1.48,1.48,0,0,0-.32-1,1.257,1.257,0,0,0-1.009-.374,1.429,1.429,0,0,0-.95.291.987.987,0,0,0-.344.8h-2.4a2.41,2.41,0,0,1,.481-1.444A3.182,3.182,0,0,1,27.525-8.77,4.961,4.961,0,0,1,29.5-9.147a3.92,3.92,0,0,1,2.635.834,2.918,2.918,0,0,1,.975,2.345v3.893a4.294,4.294,0,0,0,.357,1.934V0ZM29.061-1.668a2.066,2.066,0,0,0,.979-.237A1.554,1.554,0,0,0,30.7-2.54V-4.084h-.9q-1.8,0-1.917,1.245l-.008.141a.96.96,0,0,0,.315.739A1.225,1.225,0,0,0,29.061-1.668ZM43.048-4.408a5.439,5.439,0,0,1-.921,3.366A3.052,3.052,0,0,1,39.553.166,2.8,2.8,0,0,1,37.221-.955L37.113,0H34.955V-12.75h2.4v4.574a2.732,2.732,0,0,1,2.183-.971A3.077,3.077,0,0,1,42.114-7.94a5.446,5.446,0,0,1,.934,3.4Zm-2.4-.183a3.593,3.593,0,0,0-.432-1.994,1.458,1.458,0,0,0-1.287-.629,1.582,1.582,0,0,0-1.577.941v3.555a1.6,1.6,0,0,0,1.594.949,1.482,1.482,0,0,0,1.527-1.149A5.944,5.944,0,0,0,40.649-4.591Zm7.139,1.2,1.66-5.586h2.573L48.41,1.395l-.2.473a2.738,2.738,0,0,1-2.656,1.76,3.775,3.775,0,0,1-1.062-.158V1.652l.365.008a1.973,1.973,0,0,0,1.017-.208A1.363,1.363,0,0,0,46.4.764l.282-.739L43.538-8.981h2.582Zm8.052-7.794v2.208h1.536v1.76H55.839v4.482a1.07,1.07,0,0,0,.191.714.959.959,0,0,0,.73.216,3.826,3.826,0,0,0,.706-.058V-.05a4.939,4.939,0,0,1-1.453.216A2.29,2.29,0,0,1,53.44-2.382V-7.222H52.129v-1.76H53.44v-2.208ZM62.845.166a4.409,4.409,0,0,1-3.217-1.212,4.308,4.308,0,0,1-1.241-3.229v-.232a5.426,5.426,0,0,1,.523-2.42,3.838,3.838,0,0,1,1.482-1.644,4.159,4.159,0,0,1,2.187-.577,3.727,3.727,0,0,1,2.9,1.162,4.722,4.722,0,0,1,1.058,3.3v.979H60.82a2.229,2.229,0,0,0,.7,1.411A2.12,2.12,0,0,0,63-1.768a2.589,2.589,0,0,0,2.167-1l1.179,1.32A3.6,3.6,0,0,1,64.887-.261,4.793,4.793,0,0,1,62.845.166Zm-.274-7.379a1.5,1.5,0,0,0-1.158.484,2.5,2.5,0,0,0-.569,1.384h3.337v-.192a1.786,1.786,0,0,0-.432-1.238A1.547,1.547,0,0,0,62.571-7.213Z" transform="translate(325.868 7411.314)" fill="#0c1d30"/>
    <path id="Trazado_222074" data-name="Trazado 222074" d="M10.642-1.527a4.322,4.322,0,0,1-1.9,1.249A7.961,7.961,0,0,1,6.018.166,5.393,5.393,0,0,1,3.266-.519,4.568,4.568,0,0,1,1.44-2.507,7,7,0,0,1,.78-5.57v-.822a7.431,7.431,0,0,1,.61-3.134,4.513,4.513,0,0,1,1.76-2.025,5.069,5.069,0,0,1,2.694-.7,5.048,5.048,0,0,1,3.362,1.025,4.381,4.381,0,0,1,1.436,2.984H8.218a2.41,2.41,0,0,0-.735-1.519,2.346,2.346,0,0,0-1.565-.481,2.208,2.208,0,0,0-1.934.955A5.02,5.02,0,0,0,3.312-6.45v.772a4.778,4.778,0,0,0,.722,2.872,2.473,2.473,0,0,0,2.117.971,2.762,2.762,0,0,0,2-.6V-4.516H5.885V-6.35h4.756ZM15.033,0H12.625V-8.981h2.407ZM12.484-11.306a1.181,1.181,0,0,1,.361-.888,1.356,1.356,0,0,1,.984-.349,1.36,1.36,0,0,1,.979.349,1.175,1.175,0,0,1,.365.888,1.178,1.178,0,0,1-.369.9,1.363,1.363,0,0,1-.975.349,1.363,1.363,0,0,1-.975-.349A1.178,1.178,0,0,1,12.484-11.306ZM16.66-4.557a5.264,5.264,0,0,1,.984-3.329A3.187,3.187,0,0,1,20.3-9.147a2.8,2.8,0,0,1,2.3,1.013l.1-.847h2.175V-.3a3.839,3.839,0,0,1-.535,2.05A3.439,3.439,0,0,1,22.827,3.08a5.3,5.3,0,0,1-2.274.457,4.925,4.925,0,0,1-1.926-.394,3.418,3.418,0,0,1-1.419-1.017L18.27.664a2.81,2.81,0,0,0,2.175,1,2.057,2.057,0,0,0,1.486-.51,1.915,1.915,0,0,0,.531-1.448V-.772a2.775,2.775,0,0,1-2.183.938A3.179,3.179,0,0,1,17.66-1.1a5.262,5.262,0,0,1-1-3.358Zm2.4.171a3.3,3.3,0,0,0,.49,1.922,1.557,1.557,0,0,0,1.345.7,1.665,1.665,0,0,0,1.569-.826V-6.388a1.661,1.661,0,0,0-1.552-.826,1.566,1.566,0,0,0-1.357.709A3.715,3.715,0,0,0,19.059-4.386ZM31.917,0a2.664,2.664,0,0,1-.241-.805A2.9,2.9,0,0,1,29.41.166,3.189,3.189,0,0,1,27.222-.6a2.456,2.456,0,0,1-.867-1.926,2.538,2.538,0,0,1,1.058-2.191,5.222,5.222,0,0,1,3.059-.772h1.1V-6a1.48,1.48,0,0,0-.32-1,1.257,1.257,0,0,0-1.009-.374,1.429,1.429,0,0,0-.95.291.987.987,0,0,0-.344.8h-2.4a2.41,2.41,0,0,1,.481-1.444A3.182,3.182,0,0,1,28.4-8.77a4.961,4.961,0,0,1,1.976-.378,3.92,3.92,0,0,1,2.635.834,2.918,2.918,0,0,1,.975,2.345v3.893A4.294,4.294,0,0,0,34.34-.141V0ZM29.933-1.668a2.066,2.066,0,0,0,.979-.237,1.554,1.554,0,0,0,.664-.635V-4.084h-.9q-1.8,0-1.917,1.245l-.008.141a.96.96,0,0,0,.315.739A1.225,1.225,0,0,0,29.933-1.668ZM43.919-4.408A5.439,5.439,0,0,1,43-1.042,3.052,3.052,0,0,1,40.425.166,2.8,2.8,0,0,1,38.092-.955L37.984,0H35.826V-12.75h2.4v4.574a2.732,2.732,0,0,1,2.183-.971A3.077,3.077,0,0,1,42.986-7.94a5.446,5.446,0,0,1,.934,3.4Zm-2.4-.183a3.593,3.593,0,0,0-.432-1.994A1.458,1.458,0,0,0,39.8-7.213a1.582,1.582,0,0,0-1.577.941v3.555a1.6,1.6,0,0,0,1.594.949,1.482,1.482,0,0,0,1.527-1.149A5.944,5.944,0,0,0,41.521-4.591Zm7.139,1.2,1.66-5.586h2.573L49.282,1.395l-.2.473a2.738,2.738,0,0,1-2.656,1.76,3.775,3.775,0,0,1-1.062-.158V1.652l.365.008a1.973,1.973,0,0,0,1.017-.208,1.363,1.363,0,0,0,.527-.689l.282-.739L44.409-8.981h2.582Zm8.052-7.794v2.208h1.536v1.76H56.711v4.482a1.07,1.07,0,0,0,.191.714.959.959,0,0,0,.73.216,3.826,3.826,0,0,0,.706-.058V-.05a4.939,4.939,0,0,1-1.453.216,2.29,2.29,0,0,1-2.573-2.548V-7.222H53v-1.76h1.312v-2.208ZM63.717.166A4.409,4.409,0,0,1,60.5-1.046a4.308,4.308,0,0,1-1.241-3.229v-.232a5.426,5.426,0,0,1,.523-2.42,3.838,3.838,0,0,1,1.482-1.644,4.159,4.159,0,0,1,2.187-.577,3.727,3.727,0,0,1,2.9,1.162,4.722,4.722,0,0,1,1.058,3.3v.979H61.691a2.229,2.229,0,0,0,.7,1.411,2.12,2.12,0,0,0,1.482.531,2.589,2.589,0,0,0,2.167-1l1.179,1.32A3.6,3.6,0,0,1,65.759-.261,4.793,4.793,0,0,1,63.717.166Zm-.274-7.379a1.5,1.5,0,0,0-1.158.484,2.5,2.5,0,0,0-.569,1.384h3.337v-.192a1.786,1.786,0,0,0-.432-1.238A1.547,1.547,0,0,0,63.443-7.213Z" transform="translate(325.868 7380.314)" fill="#0c1d30"/>
    <path id="Trazado_222075" data-name="Trazado 222075" d="M3.569-4.258V0H1.079V-12.086H5.794a5.455,5.455,0,0,1,2.395.5,3.67,3.67,0,0,1,1.59,1.415,3.946,3.946,0,0,1,.556,2.088,3.47,3.47,0,0,1-1.216,2.8A5.065,5.065,0,0,1,5.752-4.258Zm0-2.017H5.794A2.187,2.187,0,0,0,7.3-6.74a1.691,1.691,0,0,0,.519-1.328A1.994,1.994,0,0,0,7.3-9.5a1.953,1.953,0,0,0-1.444-.564H3.569ZM15.913.166A4.409,4.409,0,0,1,12.7-1.046a4.308,4.308,0,0,1-1.241-3.229v-.232a5.426,5.426,0,0,1,.523-2.42A3.838,3.838,0,0,1,13.46-8.571a4.159,4.159,0,0,1,2.187-.577,3.727,3.727,0,0,1,2.9,1.162,4.722,4.722,0,0,1,1.058,3.3v.979H13.887a2.229,2.229,0,0,0,.7,1.411,2.12,2.12,0,0,0,1.482.531,2.589,2.589,0,0,0,2.167-1l1.179,1.32A3.6,3.6,0,0,1,17.955-.261,4.793,4.793,0,0,1,15.913.166Zm-.274-7.379a1.5,1.5,0,0,0-1.158.484,2.5,2.5,0,0,0-.569,1.384h3.337v-.192a1.786,1.786,0,0,0-.432-1.238A1.547,1.547,0,0,0,15.639-7.213Zm8.2-3.976v2.208h1.536v1.76H23.84v4.482a1.07,1.07,0,0,0,.191.714.959.959,0,0,0,.73.216,3.826,3.826,0,0,0,.706-.058V-.05a4.939,4.939,0,0,1-1.453.216,2.29,2.29,0,0,1-2.573-2.548V-7.222H20.129v-1.76h1.312v-2.208ZM31.917,0a2.664,2.664,0,0,1-.241-.805A2.9,2.9,0,0,1,29.41.166,3.189,3.189,0,0,1,27.222-.6a2.456,2.456,0,0,1-.867-1.926,2.538,2.538,0,0,1,1.058-2.191,5.222,5.222,0,0,1,3.059-.772h1.1V-6a1.48,1.48,0,0,0-.32-1,1.257,1.257,0,0,0-1.009-.374,1.429,1.429,0,0,0-.95.291.987.987,0,0,0-.344.8h-2.4a2.41,2.41,0,0,1,.481-1.444A3.182,3.182,0,0,1,28.4-8.77a4.961,4.961,0,0,1,1.976-.378,3.92,3.92,0,0,1,2.635.834,2.918,2.918,0,0,1,.975,2.345v3.893A4.294,4.294,0,0,0,34.34-.141V0ZM29.933-1.668a2.066,2.066,0,0,0,.979-.237,1.554,1.554,0,0,0,.664-.635V-4.084h-.9q-1.8,0-1.917,1.245l-.008.141a.96.96,0,0,0,.315.739A1.225,1.225,0,0,0,29.933-1.668ZM43.919-4.408A5.439,5.439,0,0,1,43-1.042,3.052,3.052,0,0,1,40.425.166,2.8,2.8,0,0,1,38.092-.955L37.984,0H35.826V-12.75h2.4v4.574a2.732,2.732,0,0,1,2.183-.971A3.077,3.077,0,0,1,42.986-7.94a5.446,5.446,0,0,1,.934,3.4Zm-2.4-.183a3.593,3.593,0,0,0-.432-1.994A1.458,1.458,0,0,0,39.8-7.213a1.582,1.582,0,0,0-1.577.941v3.555a1.6,1.6,0,0,0,1.594.949,1.482,1.482,0,0,0,1.527-1.149A5.944,5.944,0,0,0,41.521-4.591Zm7.139,1.2,1.66-5.586h2.573L49.282,1.395l-.2.473a2.738,2.738,0,0,1-2.656,1.76,3.775,3.775,0,0,1-1.062-.158V1.652l.365.008a1.973,1.973,0,0,0,1.017-.208,1.363,1.363,0,0,0,.527-.689l.282-.739L44.409-8.981h2.582Zm8.052-7.794v2.208h1.536v1.76H56.711v4.482a1.07,1.07,0,0,0,.191.714.959.959,0,0,0,.73.216,3.826,3.826,0,0,0,.706-.058V-.05a4.939,4.939,0,0,1-1.453.216,2.29,2.29,0,0,1-2.573-2.548V-7.222H53v-1.76h1.312v-2.208ZM63.717.166A4.409,4.409,0,0,1,60.5-1.046a4.308,4.308,0,0,1-1.241-3.229v-.232a5.426,5.426,0,0,1,.523-2.42,3.838,3.838,0,0,1,1.482-1.644,4.159,4.159,0,0,1,2.187-.577,3.727,3.727,0,0,1,2.9,1.162,4.722,4.722,0,0,1,1.058,3.3v.979H61.691a2.229,2.229,0,0,0,.7,1.411,2.12,2.12,0,0,0,1.482.531,2.589,2.589,0,0,0,2.167-1l1.179,1.32A3.6,3.6,0,0,1,65.759-.261,4.793,4.793,0,0,1,63.717.166Zm-.274-7.379a1.5,1.5,0,0,0-1.158.484,2.5,2.5,0,0,0-.569,1.384h3.337v-.192a1.786,1.786,0,0,0-.432-1.238A1.547,1.547,0,0,0,63.443-7.213Z" transform="translate(325.868 7442.314)" fill="#0c1d30"/>
    <path id="Trazado_222076" data-name="Trazado 222076" d="M3.719-2H9.812V0H.606V-1.461l5.977-8.608H.614v-2.017H9.679v1.428ZM15.182.166a4.409,4.409,0,0,1-3.217-1.212,4.308,4.308,0,0,1-1.241-3.229v-.232a5.426,5.426,0,0,1,.523-2.42,3.838,3.838,0,0,1,1.482-1.644,4.159,4.159,0,0,1,2.187-.577,3.727,3.727,0,0,1,2.9,1.162,4.722,4.722,0,0,1,1.058,3.3v.979H13.157a2.229,2.229,0,0,0,.7,1.411,2.12,2.12,0,0,0,1.482.531,2.589,2.589,0,0,0,2.167-1l1.179,1.32A3.6,3.6,0,0,1,17.224-.261,4.793,4.793,0,0,1,15.182.166Zm-.274-7.379a1.5,1.5,0,0,0-1.158.484,2.5,2.5,0,0,0-.569,1.384h3.337v-.192a1.786,1.786,0,0,0-.432-1.238A1.547,1.547,0,0,0,14.908-7.213Zm8.2-3.976v2.208h1.536v1.76H23.109v4.482a1.07,1.07,0,0,0,.191.714.959.959,0,0,0,.73.216,3.826,3.826,0,0,0,.706-.058V-.05a4.939,4.939,0,0,1-1.453.216A2.29,2.29,0,0,1,20.71-2.382V-7.222H19.4v-1.76H20.71v-2.208ZM31.186,0a2.664,2.664,0,0,1-.241-.805,2.9,2.9,0,0,1-2.266.971A3.189,3.189,0,0,1,26.492-.6a2.456,2.456,0,0,1-.867-1.926,2.538,2.538,0,0,1,1.058-2.191,5.222,5.222,0,0,1,3.059-.772h1.1V-6a1.48,1.48,0,0,0-.32-1,1.257,1.257,0,0,0-1.009-.374,1.429,1.429,0,0,0-.95.291.987.987,0,0,0-.344.8h-2.4a2.41,2.41,0,0,1,.481-1.444A3.182,3.182,0,0,1,27.667-8.77a4.961,4.961,0,0,1,1.976-.378,3.92,3.92,0,0,1,2.635.834,2.918,2.918,0,0,1,.975,2.345v3.893A4.294,4.294,0,0,0,33.61-.141V0ZM29.2-1.668a2.066,2.066,0,0,0,.979-.237,1.554,1.554,0,0,0,.664-.635V-4.084h-.9q-1.8,0-1.917,1.245l-.008.141a.96.96,0,0,0,.315.739A1.225,1.225,0,0,0,29.2-1.668ZM43.189-4.408a5.439,5.439,0,0,1-.921,3.366A3.052,3.052,0,0,1,39.694.166,2.8,2.8,0,0,1,37.362-.955L37.254,0H35.1V-12.75h2.4v4.574a2.732,2.732,0,0,1,2.183-.971A3.077,3.077,0,0,1,42.255-7.94a5.446,5.446,0,0,1,.934,3.4Zm-2.4-.183a3.593,3.593,0,0,0-.432-1.994,1.458,1.458,0,0,0-1.287-.629,1.582,1.582,0,0,0-1.577.941v3.555a1.6,1.6,0,0,0,1.594.949,1.482,1.482,0,0,0,1.527-1.149A5.944,5.944,0,0,0,40.79-4.591Zm7.139,1.2,1.66-5.586h2.573L48.551,1.395l-.2.473A2.738,2.738,0,0,1,45.7,3.627a3.775,3.775,0,0,1-1.062-.158V1.652L45,1.66a1.973,1.973,0,0,0,1.017-.208,1.363,1.363,0,0,0,.527-.689l.282-.739L43.679-8.981H46.26Zm8.052-7.794v2.208h1.536v1.76H55.98v4.482a1.07,1.07,0,0,0,.191.714.959.959,0,0,0,.73.216,3.826,3.826,0,0,0,.706-.058V-.05a4.939,4.939,0,0,1-1.453.216,2.29,2.29,0,0,1-2.573-2.548V-7.222H52.27v-1.76h1.312v-2.208ZM62.986.166A4.409,4.409,0,0,1,59.77-1.046a4.308,4.308,0,0,1-1.241-3.229v-.232a5.426,5.426,0,0,1,.523-2.42,3.838,3.838,0,0,1,1.482-1.644,4.159,4.159,0,0,1,2.187-.577,3.727,3.727,0,0,1,2.9,1.162,4.722,4.722,0,0,1,1.058,3.3v.979H60.961a2.229,2.229,0,0,0,.7,1.411,2.12,2.12,0,0,0,1.482.531,2.589,2.589,0,0,0,2.167-1l1.179,1.32A3.6,3.6,0,0,1,65.028-.261,4.793,4.793,0,0,1,62.986.166Zm-.274-7.379a1.5,1.5,0,0,0-1.158.484,2.5,2.5,0,0,0-.569,1.384h3.337v-.192a1.786,1.786,0,0,0-.432-1.238A1.547,1.547,0,0,0,62.712-7.213Z" transform="translate(325.868 7504.314)" fill="#0c1d30"/>
    <path id="Trazado_222077" data-name="Trazado 222077" d="M5.246-6.641l2.515-5.445h2.723l-3.968,7.7V0H3.984V-4.383l-3.968-7.7H2.748Zm5.271,2.067a5.327,5.327,0,0,1,.515-2.382,3.768,3.768,0,0,1,1.482-1.619,4.323,4.323,0,0,1,2.245-.573,4.09,4.09,0,0,1,2.968,1.112,4.464,4.464,0,0,1,1.282,3.021l.017.614a4.694,4.694,0,0,1-1.154,3.316,4.011,4.011,0,0,1-3.1,1.249,4.031,4.031,0,0,1-3.1-1.245,4.777,4.777,0,0,1-1.158-3.387Zm2.4.17A3.357,3.357,0,0,0,13.4-2.446a1.588,1.588,0,0,0,1.378.678,1.592,1.592,0,0,0,1.361-.669,3.674,3.674,0,0,0,.49-2.141,3.324,3.324,0,0,0-.49-1.945,1.592,1.592,0,0,0-1.378-.69,1.566,1.566,0,0,0-1.361.686A3.735,3.735,0,0,0,12.916-4.4Zm10.459-6.786v2.208h1.536v1.76H23.375v4.482a1.07,1.07,0,0,0,.191.714.959.959,0,0,0,.73.216A3.826,3.826,0,0,0,25-1.868V-.05a4.939,4.939,0,0,1-1.453.216,2.29,2.29,0,0,1-2.573-2.548V-7.222H19.665v-1.76h1.312v-2.208Zm5.744,0v2.208h1.536v1.76H29.119v4.482a1.07,1.07,0,0,0,.191.714.959.959,0,0,0,.73.216,3.826,3.826,0,0,0,.706-.058V-.05a4.939,4.939,0,0,1-1.453.216A2.29,2.29,0,0,1,26.72-2.382V-7.222H25.409v-1.76H26.72v-2.208ZM37.2,0a2.664,2.664,0,0,1-.241-.805,2.9,2.9,0,0,1-2.266.971A3.189,3.189,0,0,1,32.5-.6a2.456,2.456,0,0,1-.867-1.926,2.538,2.538,0,0,1,1.058-2.191,5.222,5.222,0,0,1,3.059-.772h1.1V-6a1.48,1.48,0,0,0-.32-1,1.257,1.257,0,0,0-1.009-.374,1.429,1.429,0,0,0-.95.291.987.987,0,0,0-.344.8h-2.4a2.41,2.41,0,0,1,.481-1.444A3.182,3.182,0,0,1,33.676-8.77a4.961,4.961,0,0,1,1.976-.378,3.92,3.92,0,0,1,2.635.834,2.918,2.918,0,0,1,.975,2.345v3.893A4.294,4.294,0,0,0,39.62-.141V0ZM35.212-1.668a2.066,2.066,0,0,0,.979-.237,1.554,1.554,0,0,0,.664-.635V-4.084h-.9q-1.8,0-1.917,1.245l-.008.141a.96.96,0,0,0,.315.739A1.225,1.225,0,0,0,35.212-1.668ZM49.2-4.408a5.439,5.439,0,0,1-.921,3.366A3.052,3.052,0,0,1,45.7.166,2.8,2.8,0,0,1,43.372-.955L43.264,0H41.105V-12.75h2.4v4.574a2.732,2.732,0,0,1,2.183-.971A3.077,3.077,0,0,1,48.265-7.94a5.446,5.446,0,0,1,.934,3.4Zm-2.4-.183a3.593,3.593,0,0,0-.432-1.994,1.458,1.458,0,0,0-1.287-.629,1.582,1.582,0,0,0-1.577.941v3.555a1.6,1.6,0,0,0,1.594.949,1.482,1.482,0,0,0,1.527-1.149A5.944,5.944,0,0,0,46.8-4.591Zm7.139,1.2L55.6-8.981h2.573L54.561,1.395l-.2.473a2.738,2.738,0,0,1-2.656,1.76,3.775,3.775,0,0,1-1.062-.158V1.652l.365.008a1.973,1.973,0,0,0,1.017-.208,1.363,1.363,0,0,0,.527-.689l.282-.739L49.688-8.981H52.27Zm8.052-7.794v2.208h1.536v1.76H61.99v4.482a1.07,1.07,0,0,0,.191.714.959.959,0,0,0,.73.216,3.826,3.826,0,0,0,.706-.058V-.05a4.939,4.939,0,0,1-1.453.216,2.29,2.29,0,0,1-2.573-2.548V-7.222H58.28v-1.76h1.312v-2.208ZM69,.166A4.409,4.409,0,0,1,65.78-1.046a4.308,4.308,0,0,1-1.241-3.229v-.232a5.426,5.426,0,0,1,.523-2.42,3.838,3.838,0,0,1,1.482-1.644,4.159,4.159,0,0,1,2.187-.577,3.727,3.727,0,0,1,2.9,1.162,4.722,4.722,0,0,1,1.058,3.3v.979H66.971a2.229,2.229,0,0,0,.7,1.411,2.12,2.12,0,0,0,1.482.531,2.589,2.589,0,0,0,2.167-1L72.5-1.453A3.6,3.6,0,0,1,71.038-.261,4.793,4.793,0,0,1,69,.166Zm-.274-7.379a1.5,1.5,0,0,0-1.158.484A2.5,2.5,0,0,0,67-5.346h3.337v-.192A1.786,1.786,0,0,0,69.9-6.776,1.547,1.547,0,0,0,68.722-7.213Z" transform="translate(325.868 7536.314)" fill="#0c1d30"/>
    <path id="Trazado_222078" data-name="Trazado 222078" d="M8.351-5.254H3.569V-2H9.181V0h-8.1V-12.086H9.164v2.017H3.569v2.88H8.351ZM13.9-6.3l1.511-2.681h2.565l-2.557,4.4L18.087,0H15.514l-1.6-2.822L12.318,0H9.737L12.4-4.582l-2.548-4.4h2.573ZM24.338,0A2.664,2.664,0,0,1,24.1-.805a2.9,2.9,0,0,1-2.266.971A3.189,3.189,0,0,1,19.644-.6a2.456,2.456,0,0,1-.867-1.926,2.538,2.538,0,0,1,1.058-2.191,5.222,5.222,0,0,1,3.059-.772H24V-6a1.48,1.48,0,0,0-.32-1,1.257,1.257,0,0,0-1.009-.374,1.429,1.429,0,0,0-.95.291.987.987,0,0,0-.344.8h-2.4a2.41,2.41,0,0,1,.481-1.444A3.182,3.182,0,0,1,20.818-8.77a4.961,4.961,0,0,1,1.976-.378,3.92,3.92,0,0,1,2.635.834A2.918,2.918,0,0,1,26.4-5.968v3.893a4.294,4.294,0,0,0,.357,1.934V0ZM22.354-1.668a2.066,2.066,0,0,0,.979-.237A1.554,1.554,0,0,0,24-2.54V-4.084h-.9q-1.8,0-1.917,1.245l-.008.141a.96.96,0,0,0,.315.739A1.225,1.225,0,0,0,22.354-1.668ZM36.341-4.408a5.439,5.439,0,0,1-.921,3.366A3.052,3.052,0,0,1,32.846.166,2.8,2.8,0,0,1,30.514-.955L30.406,0H28.248V-12.75h2.4v4.574a2.732,2.732,0,0,1,2.183-.971A3.077,3.077,0,0,1,35.407-7.94a5.446,5.446,0,0,1,.934,3.4Zm-2.4-.183a3.593,3.593,0,0,0-.432-1.994,1.458,1.458,0,0,0-1.287-.629,1.582,1.582,0,0,0-1.577.941v3.555a1.6,1.6,0,0,0,1.594.949,1.482,1.482,0,0,0,1.527-1.149A5.944,5.944,0,0,0,33.942-4.591Zm7.139,1.2,1.66-5.586h2.573L41.7,1.395l-.2.473a2.738,2.738,0,0,1-2.656,1.76,3.775,3.775,0,0,1-1.062-.158V1.652l.365.008a1.973,1.973,0,0,0,1.017-.208,1.363,1.363,0,0,0,.527-.689l.282-.739L36.831-8.981h2.582Zm8.052-7.794v2.208h1.536v1.76H49.132v4.482a1.07,1.07,0,0,0,.191.714.959.959,0,0,0,.73.216,3.826,3.826,0,0,0,.706-.058V-.05a4.939,4.939,0,0,1-1.453.216,2.29,2.29,0,0,1-2.573-2.548V-7.222H45.422v-1.76h1.312v-2.208ZM56.138.166a4.409,4.409,0,0,1-3.217-1.212,4.308,4.308,0,0,1-1.241-3.229v-.232a5.426,5.426,0,0,1,.523-2.42,3.838,3.838,0,0,1,1.482-1.644,4.159,4.159,0,0,1,2.187-.577,3.727,3.727,0,0,1,2.9,1.162,4.722,4.722,0,0,1,1.058,3.3v.979H54.113a2.229,2.229,0,0,0,.7,1.411,2.12,2.12,0,0,0,1.482.531,2.589,2.589,0,0,0,2.167-1l1.179,1.32A3.6,3.6,0,0,1,58.18-.261,4.793,4.793,0,0,1,56.138.166Zm-.274-7.379a1.5,1.5,0,0,0-1.158.484,2.5,2.5,0,0,0-.569,1.384h3.337v-.192a1.786,1.786,0,0,0-.432-1.238A1.547,1.547,0,0,0,55.864-7.213Z" transform="translate(325.868 7473.314)" fill="#0c1d30"/>
    <path id="Trazado_222079" data-name="Trazado 222079" d="M1.079,0V-12.086H5.313a5.559,5.559,0,0,1,3.337.843A2.881,2.881,0,0,1,9.787-8.774,2.731,2.731,0,0,1,9.33-7.209a2.637,2.637,0,0,1-1.27.992,2.551,2.551,0,0,1,1.465.938,2.773,2.773,0,0,1,.535,1.727A3.19,3.19,0,0,1,8.948-.913,5.007,5.007,0,0,1,5.777,0Zm2.49-5.263V-2H5.7A2.059,2.059,0,0,0,7.076-2.42,1.437,1.437,0,0,0,7.57-3.578,1.518,1.518,0,0,0,5.852-5.263Zm0-1.76H5.412Q7.3-7.056,7.3-8.525a1.388,1.388,0,0,0-.477-1.183,2.51,2.51,0,0,0-1.507-.361H3.569Zm13.248.291a6.517,6.517,0,0,0-.863-.066,1.757,1.757,0,0,0-1.785.921V0h-2.4V-8.981h2.266L14.1-7.911a2.223,2.223,0,0,1,2-1.237,2.514,2.514,0,0,1,.747.108ZM17.3-4.574a5.327,5.327,0,0,1,.515-2.382A3.768,3.768,0,0,1,19.3-8.575a4.323,4.323,0,0,1,2.245-.573,4.09,4.09,0,0,1,2.968,1.112,4.464,4.464,0,0,1,1.282,3.021l.017.614a4.694,4.694,0,0,1-1.154,3.316,4.011,4.011,0,0,1-3.1,1.249,4.031,4.031,0,0,1-3.1-1.245A4.777,4.777,0,0,1,17.3-4.466Zm2.4.17a3.357,3.357,0,0,0,.481,1.958,1.588,1.588,0,0,0,1.378.678,1.592,1.592,0,0,0,1.361-.669,3.674,3.674,0,0,0,.49-2.141,3.324,3.324,0,0,0-.49-1.945,1.592,1.592,0,0,0-1.378-.69,1.566,1.566,0,0,0-1.361.686A3.735,3.735,0,0,0,19.7-4.4Zm9.795-4.578.075,1.038a3.136,3.136,0,0,1,2.582-1.2,2.606,2.606,0,0,1,2.125.838A3.912,3.912,0,0,1,34.988-5.8V0h-2.4V-5.757a1.562,1.562,0,0,0-.332-1.111,1.484,1.484,0,0,0-1.1-.345,1.65,1.65,0,0,0-1.519.865V0h-2.4V-8.981Zm10.185-2.208v2.208h1.536v1.76H39.678v4.482a1.07,1.07,0,0,0,.191.714.959.959,0,0,0,.73.216,3.826,3.826,0,0,0,.706-.058V-.05a4.939,4.939,0,0,1-1.453.216,2.29,2.29,0,0,1-2.573-2.548V-7.222H35.967v-1.76h1.312v-2.208Zm2.25,6.616a5.327,5.327,0,0,1,.515-2.382,3.767,3.767,0,0,1,1.482-1.619,4.323,4.323,0,0,1,2.245-.573,4.09,4.09,0,0,1,2.968,1.112,4.464,4.464,0,0,1,1.282,3.021l.017.614a4.694,4.694,0,0,1-1.154,3.316,4.011,4.011,0,0,1-3.1,1.249,4.031,4.031,0,0,1-3.1-1.245,4.777,4.777,0,0,1-1.158-3.387Zm2.4.17a3.357,3.357,0,0,0,.481,1.958,1.588,1.588,0,0,0,1.378.678,1.592,1.592,0,0,0,1.361-.669,3.674,3.674,0,0,0,.49-2.141,3.324,3.324,0,0,0-.49-1.945,1.592,1.592,0,0,0-1.378-.69,1.566,1.566,0,0,0-1.361.686A3.735,3.735,0,0,0,44.326-4.4Zm15.68,0a5.439,5.439,0,0,1-.921,3.366A3.052,3.052,0,0,1,56.512.166,2.8,2.8,0,0,1,54.179-.955L54.071,0H51.913V-12.75h2.4v4.574A2.732,2.732,0,0,1,56.5-9.147,3.077,3.077,0,0,1,59.073-7.94a5.446,5.446,0,0,1,.934,3.4Zm-2.4-.183a3.593,3.593,0,0,0-.432-1.994,1.458,1.458,0,0,0-1.287-.629,1.582,1.582,0,0,0-1.577.941v3.555a1.6,1.6,0,0,0,1.594.949,1.482,1.482,0,0,0,1.527-1.149A5.944,5.944,0,0,0,57.607-4.591Zm7.139,1.2,1.66-5.586h2.573L65.369,1.395l-.2.473a2.738,2.738,0,0,1-2.656,1.76,3.775,3.775,0,0,1-1.062-.158V1.652l.365.008a1.973,1.973,0,0,0,1.017-.208A1.363,1.363,0,0,0,63.36.764l.282-.739L60.5-8.981h2.582ZM72.8-11.189v2.208h1.536v1.76H72.8v4.482a1.07,1.07,0,0,0,.191.714.959.959,0,0,0,.73.216,3.826,3.826,0,0,0,.706-.058V-.05a4.939,4.939,0,0,1-1.453.216A2.29,2.29,0,0,1,70.4-2.382V-7.222H69.087v-1.76H70.4v-2.208ZM79.8.166a4.409,4.409,0,0,1-3.217-1.212,4.308,4.308,0,0,1-1.241-3.229v-.232a5.426,5.426,0,0,1,.523-2.42,3.838,3.838,0,0,1,1.482-1.644,4.159,4.159,0,0,1,2.187-.577,3.727,3.727,0,0,1,2.9,1.162A4.722,4.722,0,0,1,83.5-4.69v.979H77.778a2.229,2.229,0,0,0,.7,1.411,2.12,2.12,0,0,0,1.482.531,2.589,2.589,0,0,0,2.167-1l1.179,1.32A3.6,3.6,0,0,1,81.846-.261,4.793,4.793,0,0,1,79.8.166ZM79.53-7.213a1.5,1.5,0,0,0-1.158.484A2.5,2.5,0,0,0,77.8-5.346H81.14v-.192a1.786,1.786,0,0,0-.432-1.238A1.547,1.547,0,0,0,79.53-7.213Z" transform="translate(325.868 7566.314)" fill="#0c1d30"/>
  </g>
</svg>
