<svg id="Grupo_139909" data-name="Grupo 139909" xmlns="http://www.w3.org/2000/svg" width="400" height="342.289" viewBox="0 0 400 342.289">
  <ellipse id="Elipse_4882" data-name="Elipse 4882" cx="169.431" cy="169.431" rx="169.431" ry="169.431" transform="translate(11.079 2.809)" fill="#bddcf6" opacity="0.74"/>
  <g id="Grupo_138530" data-name="Grupo 138530" transform="translate(0)">
    <g id="Grupo_138524" data-name="Grupo 138524" transform="translate(49.792 105.104)">
      <g id="Grupo_138511" data-name="Grupo 138511" transform="translate(0.182 0.331)">
        <g id="Grupo_138510" data-name="Grupo 138510">
          <g id="Grupo_138509" data-name="Grupo 138509">
            <g id="Grupo_138508" data-name="Grupo 138508">
              <g id="Grupo_138507" data-name="Grupo 138507">
                <path id="Trazado_195073" data-name="Trazado 195073" d="M-2906.334,1625.743a23.227,23.227,0,0,0,4.26,4.476l-1.109,5.622,8.666,3.844,3.424-4.594a23.261,23.261,0,0,0,6.179.156l3.19,4.758,8.845-3.41-.826-5.667a23.221,23.221,0,0,0,4.476-4.264l5.621,1.109,3.844-8.665-4.595-3.424a23.238,23.238,0,0,0,.156-6.179l4.758-3.189-3.408-8.848-5.669.829a23.14,23.14,0,0,0-4.262-4.477l1.109-5.622-8.666-3.845-3.422,4.6a23.252,23.252,0,0,0-6.179-.155l-3.191-4.758-8.847,3.41.829,5.668a23.177,23.177,0,0,0-4.476,4.262l-5.622-1.109-3.845,8.666,4.6,3.424a23.205,23.205,0,0,0-.154,6.179l-4.759,3.189,3.409,8.845,5.669-.827Zm9.572-9.665a10.17,10.17,0,0,1,5.832-13.148,10.171,10.171,0,0,1,13.148,5.832,10.171,10.171,0,0,1-5.832,13.148A10.169,10.169,0,0,1-2896.763,1616.078Z" transform="translate(2915.412 -1584.035)" fill="none"/>
              </g>
            </g>
          </g>
        </g>
      </g>
      <g id="Grupo_138517" data-name="Grupo 138517" transform="translate(18.017 18.283)">
        <g id="Grupo_138516" data-name="Grupo 138516">
          <g id="Grupo_138515" data-name="Grupo 138515">
            <g id="Grupo_138514" data-name="Grupo 138514">
              <g id="Grupo_138513" data-name="Grupo 138513">
                <g id="Grupo_138512" data-name="Grupo 138512">
                  <path id="Trazado_195074" data-name="Trazado 195074" d="M-2902.471,1610.657a7.681,7.681,0,0,0,1.1,2.268,10.124,10.124,0,0,0,5.5,4.029,10.241,10.241,0,0,0,4.778.281,10.409,10.409,0,0,0,4.958-2.364,9.813,9.813,0,0,0,1.964-2.269,9.8,9.8,0,0,0,1.272-2.863,10.464,10.464,0,0,0-.318-6.5,10.465,10.465,0,0,0-4.127-5.034,9.853,9.853,0,0,0-2.864-1.268,9.727,9.727,0,0,0-2.978-.364,10.416,10.416,0,0,0-5.266,1.574,10.246,10.246,0,0,0-3.352,3.414,10.118,10.118,0,0,0-1.374,6.679,7.666,7.666,0,0,0,.709,2.417c.069-.022-.307-.854-.485-2.444a10.15,10.15,0,0,1,1.5-6.435,9.92,9.92,0,0,1,3.256-3.218,9.978,9.978,0,0,1,5.02-1.45,9.325,9.325,0,0,1,2.82.364,9.257,9.257,0,0,1,2.7,1.214,9.94,9.94,0,0,1,3.891,4.762,9.949,9.949,0,0,1,.311,6.139,9.292,9.292,0,0,1-1.192,2.713,9.313,9.313,0,0,1-1.845,2.162,10,10,0,0,1-4.695,2.295,9.932,9.932,0,0,1-4.574-.2,10.143,10.143,0,0,1-5.43-3.764C-2902.125,1611.495-2902.407,1610.627-2902.471,1610.657Z" transform="translate(2903.285 -1596.565)" fill="#e1e1e1"/>
                </g>
              </g>
            </g>
          </g>
        </g>
      </g>
      <g id="Grupo_138523" data-name="Grupo 138523">
        <g id="Grupo_138522" data-name="Grupo 138522">
          <g id="Grupo_138521" data-name="Grupo 138521">
            <g id="Grupo_138520" data-name="Grupo 138520">
              <g id="Grupo_138519" data-name="Grupo 138519">
                <g id="Grupo_138518" data-name="Grupo 138518">
                  <path id="Trazado_195075" data-name="Trazado 195075" d="M-2906.4,1625.842a2.329,2.329,0,0,0-.356.03l-1.076.135-4.249.57.1.059c-.859-2.271-1.99-5.255-3.358-8.865l-.056.176,4.771-3.17.086-.057-.012-.1a23.216,23.216,0,0,1,.175-6.131l.018-.115-.093-.07-4.586-3.437.066.25,3.864-8.656-.254.133,5.619,1.119.143.028.092-.113a23.02,23.02,0,0,1,4.437-4.211l.123-.088-.023-.152c-.253-1.756-.535-3.695-.82-5.668l-.163.279c2.779-1.067,5.778-2.218,8.849-3.4l-.322-.1c.991,1.483,2.082,3.111,3.184,4.76l.094.14.168-.019a23.11,23.11,0,0,1,6.1.159l.169.028.1-.138,3.426-4.593-.345.09,8.664,3.848-.166-.322c-.351,1.776-.729,3.693-1.11,5.623l-.034.173.138.111a23.057,23.057,0,0,1,4.205,4.415v0h0c.125.053-.278-.116.279.119h.017l.022,0,.044-.006.091-.014.178-.026.356-.052.714-.1,1.421-.208,2.825-.413-.314-.185q1.73,4.485,3.411,8.846l.109-.344-4.756,3.192-.145.1.019.173a22.916,22.916,0,0,1-.149,6.1l-.026.169.135.1,4.6,3.421-.087-.336-3.835,8.669.3-.155-5.624-1.1-.156-.03-.1.123a22.921,22.921,0,0,1-4.419,4.222l-.123.091.021.15c.289,1.944.566,3.827.838,5.666l.153-.261c-3.11,1.205-6.045,2.344-8.839,3.429l.265.083c-1.125-1.671-2.182-3.238-3.2-4.75l-.072-.106-.126.014a23.181,23.181,0,0,1-6.125-.137l-.115-.017-.069.092c-1.239,1.675-2.354,3.182-3.408,4.606l.208-.054c-3.364-1.474-6.229-2.731-8.683-3.8l.076.145c.428-2.248.779-4.093,1.073-5.629l.01-.056-.043-.036a24.131,24.131,0,0,1-3.344-3.223l-.732-.887a2.538,2.538,0,0,0-.245-.292,2.807,2.807,0,0,0,.206.321c.148.208.372.52.7.92a22.444,22.444,0,0,0,3.3,3.308l-.033-.09c-.313,1.532-.688,3.371-1.145,5.613l-.021.1.1.043c2.444,1.1,5.3,2.378,8.651,3.883l.125.056.083-.112,3.44-4.583-.185.074a23.409,23.409,0,0,0,6.232.175l-.2-.09c1.012,1.515,2.06,3.088,3.178,4.765l.1.149.167-.064,8.853-3.392.182-.071-.029-.192c-.265-1.84-.537-3.725-.818-5.669l-.1.242a23.532,23.532,0,0,0,4.532-4.3l-.254.092,5.62,1.115.21.043.088-.2q1.878-4.224,3.852-8.661l.09-.2-.179-.134q-2.266-1.689-4.592-3.427l.11.271a23.517,23.517,0,0,0,.16-6.255l-.125.27,4.759-3.188.192-.127-.083-.216q-1.681-4.36-3.407-8.848l-.084-.218-.231.034-2.826.413-1.421.207-.713.1-.357.052-.177.026-.091.013-.044.007-.021,0h-.012l-.005,0a2.839,2.839,0,1,0,.277.116h0v0a23.546,23.546,0,0,0-4.312-4.527l.1.283c.379-1.931.758-3.848,1.107-5.623l.045-.227-.211-.095-8.669-3.84-.209-.093-.137.183c-1.18,1.588-2.35,3.157-3.419,4.6l.271-.11a23.675,23.675,0,0,0-6.253-.154l.26.122-3.195-4.754-.122-.181-.2.078-8.843,3.42-.194.075.031.205c.291,1.973.577,3.91.836,5.666l.1-.239a23.418,23.418,0,0,0-4.516,4.315l.234-.086-5.624-1.1-.181-.036-.073.167q-2.014,4.567-3.824,8.675l-.068.152.134.1c1.617,1.2,3.169,2.348,4.6,3.411l-.074-.184a23.387,23.387,0,0,0-.136,6.228l.075-.16-4.746,3.208-.1.067.043.109,3.462,8.827.027.07.073-.012,4.2-.662,1.084-.182A2.743,2.743,0,0,0-2906.4,1625.842Z" transform="translate(2915.659 -1583.804)" fill="#e1e1e1"/>
                </g>
              </g>
            </g>
          </g>
        </g>
      </g>
    </g>
    <g id="Grupo_138529" data-name="Grupo 138529">
      <g id="Grupo_138528" data-name="Grupo 138528">
        <g id="Grupo_138527" data-name="Grupo 138527">
          <g id="Grupo_138526" data-name="Grupo 138526">
            <g id="Grupo_138525" data-name="Grupo 138525">
              <path id="Trazado_195076" data-name="Trazado 195076" d="M-2888.77,1576.232a36.691,36.691,0,0,0,6.722,7.06l-1.75,8.868,13.67,6.064,5.4-7.248a36.632,36.632,0,0,0,9.746.245l5.032,7.505,13.954-5.379-1.3-8.94a36.567,36.567,0,0,0,7.06-6.725l8.87,1.75,6.063-13.668-7.248-5.4a36.626,36.626,0,0,0,.243-9.746l7.507-5.031-5.378-13.957-8.942,1.308a36.565,36.565,0,0,0-6.723-7.062l1.75-8.869-13.671-6.063-5.4,7.249a36.688,36.688,0,0,0-9.746-.245l-5.031-7.5-13.956,5.378,1.306,8.94a36.57,36.57,0,0,0-7.06,6.725l-8.869-1.751-6.065,13.669,7.249,5.4a36.7,36.7,0,0,0-.245,9.746l-7.5,5.031,5.378,13.954,8.941-1.305Zm15.1-15.245a16.044,16.044,0,0,1,9.2-20.74,16.043,16.043,0,0,1,20.74,9.2,16.044,16.044,0,0,1-9.2,20.741A16.044,16.044,0,0,1-2873.673,1560.987Z" transform="translate(2903.089 -1510.441)" fill="#ececec" fill-rule="evenodd"/>
            </g>
          </g>
        </g>
      </g>
    </g>
  </g>
  <g id="Grupo_138534" data-name="Grupo 138534" transform="translate(322.787 57.287)">
    <g id="Grupo_138531" data-name="Grupo 138531" transform="translate(0)">
      <ellipse id="Elipse_5087" data-name="Elipse 5087" cx="3.189" cy="3.189" rx="3.189" ry="3.189" fill="#e1e1e1"/>
    </g>
    <g id="Grupo_138533" data-name="Grupo 138533" transform="translate(2.912 5.505)">
      <g id="Grupo_138532" data-name="Grupo 138532" transform="translate(0)">
        <path id="Trazado_195077" data-name="Trazado 195077" d="M-3229.136,1693.073c.153,0,.278-22.138.278-49.439s-.125-49.445-.278-49.445-.276,22.133-.276,49.445S-3229.288,1693.073-3229.136,1693.073Z" transform="translate(3229.413 -1594.189)" fill="#e1e1e1"/>
      </g>
    </g>
  </g>
  <g id="Grupo_138542" data-name="Grupo 138542" transform="translate(376.854 22.672)">
    <g id="Grupo_138539" data-name="Grupo 138539" transform="translate(0.223)">
      <path id="Trazado_195080" data-name="Trazado 195080" d="M-3283.646,1559.865a3.415,3.415,0,0,0,3.415,3.416,3.415,3.415,0,0,0,3.416-3.416,3.415,3.415,0,0,0-3.416-3.415A3.415,3.415,0,0,0-3283.646,1559.865Z" transform="translate(3283.646 -1556.45)" fill="#e1e1e1"/>
    </g>
    <g id="Grupo_138541" data-name="Grupo 138541" transform="translate(0 3.415)">
      <g id="Grupo_138540" data-name="Grupo 138540">
        <path id="Trazado_195081" data-name="Trazado 195081" d="M-3291.281,1559.662s-.015.181-.022.534c-.005.369-.013.89-.022,1.571-.01,1.4-.023,3.446-.042,6.1-.017,5.339-.042,13.1-.076,22.866-.024,19.568-.059,47.154-.1,79.3v.085l.049.068c4.838,6.708,9.9,13.727,15.1,20.943l-.052-.159c0,8.894,0,18.176,0,27.646.008,24.207.017,47.186.024,67.715l.057-.161-18.307,22.208-.051.062v.081c.041,20.471.073,37.3.1,49.035.026,5.847.046,10.42.061,13.551.015,1.546.025,2.731.033,3.549.011.8.034,1.214.034,1.214s.022-.413.034-1.214c.007-.817.018-2,.033-3.549.014-3.131.034-7.7.061-13.551.022-11.733.055-28.565.1-49.035l-.051.141,18.352-22.169.058-.07v-.091c.007-20.529.016-43.508.024-67.715,0-9.47,0-18.752,0-27.646v-.088l-.052-.071c-5.209-7.213-10.278-14.227-15.12-20.931l.049.153c-.04-32.143-.074-59.729-.1-79.3-.032-9.766-.057-17.527-.074-22.866-.019-2.65-.033-4.695-.042-6.1-.01-.681-.017-1.2-.022-1.571C-3291.266,1559.843-3291.281,1559.662-3291.281,1559.662Z" transform="translate(3294.722 -1559.662)" fill="#e1e1e1"/>
      </g>
    </g>
  </g>
  <g id="Grupo_138561" data-name="Grupo 138561" transform="translate(198.19 159.863)">
    <g id="Grupo_138548" data-name="Grupo 138548" transform="translate(0 0.263)">
      <path id="Trazado_195083" data-name="Trazado 195083" d="M-3225.571,1722.174c4.161-7.136,8.605-14.294,15.159-20.2,16.607-14.963,45.113-19.413,69.345-14.039,18.7,4.147,36.358,14.668,41.263,29.539,2.213,6.712,1.718,13.776,1.022,20.689-4.554,45.221-27.189,127.28-28.073,129.181l-152.6-.623C-3270.477,1816.812-3252.263,1767.948-3225.571,1722.174Z" transform="translate(3279.452 -1685.744)" fill="#375a64"/>
    </g>
    <g id="Grupo_138550" data-name="Grupo 138550">
      <g id="Grupo_138549" data-name="Grupo 138549">
        <path id="Trazado_195084" data-name="Trazado 195084" d="M-3279.691,1866.737s.095-.391.251-1.161.385-1.922.682-3.416.645-3.364,1.111-5.552,1.03-4.712,1.651-7.55a440.915,440.915,0,0,1,13.621-47.3,459.014,459.014,0,0,1,29.624-66.66l2.479-4.553q1.292-2.266,2.6-4.559c1.735-3.062,3.5-6.151,5.414-9.192,3.805-6.065,8.277-12.013,14.184-16.581a23.424,23.424,0,0,1,2.242-1.668c.773-.525,1.526-1.085,2.319-1.586,1.635-.92,3.205-1.978,4.934-2.761l2.554-1.255,2.642-1.092,1.324-.549,1.358-.469,2.727-.931a90.732,90.732,0,0,1,23.044-3.809,97.659,97.659,0,0,1,23.287,2.067,78.884,78.884,0,0,1,21.253,7.872,53.526,53.526,0,0,1,9.125,6.233,40.771,40.771,0,0,1,7.293,7.965c.47.758.983,1.489,1.416,2.263q.607,1.183,1.211,2.361.481,1.233.959,2.458a25.534,25.534,0,0,1,.739,2.516,39.733,39.733,0,0,1,.946,10.3c-.1,3.421-.406,6.8-.813,10.124s-.734,6.608-1.252,9.823c-.907,6.447-1.989,12.677-3.076,18.692-2.186,12.028-4.6,23.161-6.855,33.31-4.553,20.291-8.711,36.6-11.646,47.853-1.465,5.628-2.655,9.984-3.461,12.937-.413,1.465-.729,2.584-.945,3.351-.233.746-.339,1.137-.339,1.137s.141-.375.393-1.12c.227-.763.561-1.879,1-3.338.842-2.944,2.064-7.291,3.563-12.911,3-11.237,7.216-27.536,11.819-47.823,2.28-10.147,4.717-21.28,6.924-33.313,1.1-6.017,2.19-12.25,3.107-18.705.524-3.217.854-6.51,1.266-9.838s.726-6.716.827-10.166a40.236,40.236,0,0,0-.949-10.432,25.847,25.847,0,0,0-.751-2.563l-.975-2.5q-.613-1.2-1.23-2.4c-.44-.788-.96-1.531-1.437-2.3a41.291,41.291,0,0,0-7.384-8.078,54.105,54.105,0,0,0-9.208-6.3,79.42,79.42,0,0,0-21.4-7.936,98.092,98.092,0,0,0-23.423-2.082,91.155,91.155,0,0,0-23.189,3.837l-2.746.938-1.368.473-1.335.552-2.662,1.1-2.576,1.267c-1.743.79-3.329,1.857-4.979,2.788-.8.506-1.561,1.072-2.341,1.6a23.507,23.507,0,0,0-2.265,1.686c-5.972,4.624-10.479,10.633-14.293,16.725-1.918,3.056-3.685,6.149-5.418,9.215l-2.6,4.566-2.478,4.561a455.621,455.621,0,0,0-29.545,66.773,429.1,429.1,0,0,0-13.461,47.378c-.6,2.844-1.139,5.371-1.6,7.563s-.771,4.062-1.059,5.566-.485,2.643-.628,3.426S-3279.691,1866.737-3279.691,1866.737Z" transform="translate(3279.691 -1685.497)" fill="#1a2e35"/>
      </g>
    </g>
    <g id="Grupo_138552" data-name="Grupo 138552" transform="translate(137.617 21.369)">
      <g id="Grupo_138551" data-name="Grupo 138551" transform="translate(0)">
        <path id="Trazado_195085" data-name="Trazado 195085" d="M-3237.218,1705.6a2.407,2.407,0,0,0,.041.427c.042.306.1.719.173,1.244.152,1.093.329,2.711.456,4.8a82.987,82.987,0,0,1-1.282,17.656c-2.569,14.776-5.717,35.274-10.323,57.688-2.313,11.207-4.846,21.816-7.525,31.36s-5.491,18.022-8.049,25.067c-2.64,7.017-4.985,12.615-6.7,16.441l-2,4.4-.507,1.15a2.611,2.611,0,0,0-.155.4,213.513,213.513,0,0,0,9.725-22.251c2.61-7.038,5.477-15.512,8.174-25.066s5.26-20.169,7.576-31.387c4.609-22.437,7.7-42.941,10.167-57.74a80.185,80.185,0,0,0,1.111-17.729A42.776,42.776,0,0,0-3237.218,1705.6Z" transform="translate(3273.086 -1705.598)" fill="#1a2e35"/>
      </g>
    </g>
    <g id="Grupo_138554" data-name="Grupo 138554" transform="translate(153.724 57.436)">
      <g id="Grupo_138553" data-name="Grupo 138553" transform="translate(0)">
        <path id="Trazado_195086" data-name="Trazado 195086" d="M-3268.124,1739.539c-.019.091,1.056.325,2.713.922a25.564,25.564,0,0,1,6.059,3.177c4.425,3.118,6.566,7.1,6.717,6.973a9.455,9.455,0,0,0-1.439-2.506,21.748,21.748,0,0,0-4.957-4.918,21.76,21.76,0,0,0-6.256-3.1A9.37,9.37,0,0,0-3268.124,1739.539Z" transform="translate(3268.124 -1739.524)" fill="#1a2e35"/>
      </g>
    </g>
    <g id="Grupo_138556" data-name="Grupo 138556" transform="translate(159.73 67.42)">
      <g id="Grupo_138555" data-name="Grupo 138555" transform="translate(0)">
        <path id="Trazado_195087" data-name="Trazado 195087" d="M-3267.335,1749.13c.008.167,2.019.1,4.4.656,2.387.535,4.167,1.469,4.248,1.323a8.859,8.859,0,0,0-4.125-1.863A8.873,8.873,0,0,0-3267.335,1749.13Z" transform="translate(3267.335 -1748.916)" fill="#1a2e35"/>
      </g>
    </g>
    <g id="Grupo_138558" data-name="Grupo 138558" transform="translate(160.392 117.321)">
      <g id="Grupo_138557" data-name="Grupo 138557" transform="translate(0)">
        <path id="Trazado_195088" data-name="Trazado 195088" d="M-3259.632,1797.657c.063-.027.037-.295-.192-.653a2.6,2.6,0,0,0-1.3-.989,2.615,2.615,0,0,0-1.63-.057c-.4.133-.594.323-.562.384.065.141.967-.2,2.005.195C-3260.255,1796.892-3259.772,1797.725-3259.632,1797.657Z" transform="translate(3263.316 -1795.855)" fill="#1a2e35"/>
      </g>
    </g>
    <g id="Grupo_138560" data-name="Grupo 138560" transform="translate(159.065 120.987)">
      <g id="Grupo_138559" data-name="Grupo 138559" transform="translate(0)">
        <path id="Trazado_195089" data-name="Trazado 195089" d="M-3258.455,1801.782c.153,0,.063-1.092-.92-1.871s-2.065-.638-2.029-.489c0,.158.881.261,1.682.921C-3258.9,1800.98-3258.608,1801.821-3258.455,1801.782Z" transform="translate(3261.405 -1799.303)" fill="#1a2e35"/>
      </g>
    </g>
  </g>
  <g id="Grupo_138578" data-name="Grupo 138578" transform="translate(102.557 172.488)">
    <path id="Trazado_195090" data-name="Trazado 195090" d="M-3082.718,1824.768s3.4-83.434,6.544-97.892c4-18.393,19.481-29.5,19.481-29.5l5.933,143.489-6.168,3.69-3.632,1.914c-1.634,6.1,1.737,7.591-14.951,11.88-1.34.343-27.991,4.554-27.991,4.554l-2.614-27.074Z" transform="translate(3143.376 -1697.373)" fill="#b78876"/>
    <g id="Grupo_138577" data-name="Grupo 138577" transform="translate(0 127.395)">
      <g id="Grupo_138564" data-name="Grupo 138564" transform="translate(0 8.506)">
        <g id="Grupo_138563" data-name="Grupo 138563">
          <g id="Grupo_138562" data-name="Grupo 138562">
            <path id="Trazado_195091" data-name="Trazado 195091" d="M-3064.619,1853.886s9.636.659,13.569,2.25c4.27,1.725,9.535.721,13.113-1.6a37.237,37.237,0,0,0,5.68-4.433l13.135.068a15.766,15.766,0,0,0,2.9-16.217,17.63,17.63,0,0,0-2.9-5.188c-1.525-1.719-2.219-2.74-6.46-3.563l-17.41,2.642s-24.134-2.234-28.471-.292c0,0-5.468,3.09-7.167,4.4-.64.492-2.682,6.6,1.181,9.882,0,0-3.479,2.65-1.677,5.13l.865,1.1s-2.364,2.931-1.211,4.251,11.369,7.6,15.1,6.233,1.129-4.439-.486-5.1" transform="translate(3079.787 -1825.207)" fill="#b78876"/>
          </g>
        </g>
      </g>
      <g id="Grupo_138566" data-name="Grupo 138566" transform="translate(2.254 19.872)">
        <g id="Grupo_138565" data-name="Grupo 138565">
          <path id="Trazado_195092" data-name="Trazado 195092" d="M-3033.819,1835.9a9.437,9.437,0,0,1,1.27.482c.809.327,1.983.793,3.456,1.3.737.252,1.55.509,2.43.761s1.834.469,2.828.814a6.106,6.106,0,0,1,2.8,1.769,3.5,3.5,0,0,1,.685,3.467,2.725,2.725,0,0,1-1.305,1.346,4.8,4.8,0,0,1-1.729.442,14.228,14.228,0,0,1-3.276-.241,28.935,28.935,0,0,1-5.3-1.5c-1.467-.553-2.623-1.072-3.419-1.432a7.936,7.936,0,0,1-1.216-.607,8.608,8.608,0,0,1,1.281.453c.815.313,1.987.788,3.457,1.3a30.8,30.8,0,0,0,5.265,1.4,14.242,14.242,0,0,0,3.175.214,4.409,4.409,0,0,0,1.573-.405,2.3,2.3,0,0,0,1.1-1.134,3.1,3.1,0,0,0-.618-3.033,5.775,5.775,0,0,0-2.6-1.659c-.956-.344-1.916-.569-2.8-.845s-1.7-.545-2.43-.817c-1.47-.543-2.631-1.053-3.422-1.429A7.293,7.293,0,0,1-3033.819,1835.9Z" transform="translate(3036.602 -1835.899)" fill="#aa6550"/>
        </g>
      </g>
      <g id="Grupo_138568" data-name="Grupo 138568" transform="translate(3.629 12.451)">
        <g id="Grupo_138567" data-name="Grupo 138567">
          <path id="Trazado_195093" data-name="Trazado 195093" d="M-3035.253,1828.921a9.165,9.165,0,0,1,1.263.488c.8.328,1.968.8,3.43,1.325s3.22,1.091,5.2,1.611a7.18,7.18,0,0,1,3.027,1.3,2.6,2.6,0,0,1,.863,1.6,3.3,3.3,0,0,1-.3,1.831,4.424,4.424,0,0,1-2.742,2.236,7.118,7.118,0,0,1-3.287.191,31.551,31.551,0,0,1-5.243-1.638l-3.453-1.291a8.245,8.245,0,0,1-1.246-.528,8.154,8.154,0,0,1,1.3.371l3.5,1.162a34.246,34.246,0,0,0,5.2,1.533,6.8,6.8,0,0,0,3.1-.2,4.023,4.023,0,0,0,2.481-2.018,2.43,2.43,0,0,0-.453-2.934,6.934,6.934,0,0,0-2.845-1.228,54.49,54.49,0,0,1-5.207-1.708c-1.456-.561-2.607-1.081-3.393-1.458A7.527,7.527,0,0,1-3035.253,1828.921Z" transform="translate(3037.743 -1828.918)" fill="#aa6550"/>
        </g>
      </g>
      <g id="Grupo_138570" data-name="Grupo 138570" transform="translate(10.109 10.537)">
        <g id="Grupo_138569" data-name="Grupo 138569">
          <path id="Trazado_195094" data-name="Trazado 195094" d="M-3028.584,1831.264a12.587,12.587,0,0,1-.424-2.078,12.588,12.588,0,0,1-.481-2.066,3.585,3.585,0,0,1,.9,1.974A3.591,3.591,0,0,1-3028.584,1831.264Z" transform="translate(3029.51 -1827.118)" fill="#aa6550"/>
        </g>
      </g>
      <g id="Grupo_138574" data-name="Grupo 138574" transform="translate(10.749)">
        <g id="Grupo_138571" data-name="Grupo 138571" transform="translate(0.211 0.212)">
          <path id="Trazado_195095" data-name="Trazado 195095" d="M-3027.145,1832.948l-9.1-3.729s-25.229-12.424-25.674-11.79-1.823.536-1.587,3.648,14.954,9.686,15.4,10.773-.45,6.51,4.952,10.524,9.357,4.179,9.357,4.179" transform="translate(3063.534 -1817.406)" fill="#b78876"/>
        </g>
        <g id="Grupo_138573" data-name="Grupo 138573">
          <g id="Grupo_138572" data-name="Grupo 138572">
            <path id="Trazado_195096" data-name="Trazado 195096" d="M-3033.587,1846.566a.672.672,0,0,1-.218,0,6.245,6.245,0,0,1-.633-.076,14.17,14.17,0,0,1-2.371-.622,21.029,21.029,0,0,1-3.524-1.622,20.984,20.984,0,0,1-4.164-3.018,11.061,11.061,0,0,1-3.015-5.429,25.082,25.082,0,0,1-.47-3.437,1.951,1.951,0,0,0-.082-.4.747.747,0,0,0-.235-.25,8.5,8.5,0,0,0-.735-.5c-.515-.319-1.052-.624-1.6-.931-2.184-1.224-4.511-2.463-6.855-3.876-1.171-.707-2.35-1.456-3.49-2.3a13.362,13.362,0,0,1-1.632-1.421,4.575,4.575,0,0,1-.682-.9,1.9,1.9,0,0,1-.2-.576,4.659,4.659,0,0,1-.043-.566,4.044,4.044,0,0,1,.44-2.208,2.623,2.623,0,0,1,.826-.8,1.505,1.505,0,0,0,.358-.3.44.44,0,0,1,.09-.086.276.276,0,0,1,.181-.052.907.907,0,0,1,.18.017c.1.021.189.045.276.071,1.372.454,2.623,1.036,3.879,1.583,2.5,1.115,4.878,2.238,7.146,3.313,4.531,2.157,8.589,4.145,11.99,5.827.852.414,1.656.842,2.427,1.188l2.226.929,3.561,1.5,2.246.963.579.26a.86.86,0,0,1,.192.1.785.785,0,0,1-.209-.062l-.6-.221-2.277-.889-3.594-1.433-2.241-.9c-.792-.344-1.589-.757-2.448-1.163l-12.026-5.742c-2.271-1.065-4.656-2.18-7.148-3.287-1.245-.54-2.522-1.127-3.83-1.557-.081-.026-.161-.045-.236-.062a.491.491,0,0,0-.083-.01c0-.015,0,.031-.013-.035s.007-.067-.014-.1a.091.091,0,0,0-.029-.031c.284.2.071.065.13.115l-.025.032a1.928,1.928,0,0,1-.452.385,2.2,2.2,0,0,0-.706.67,3.655,3.655,0,0,0-.375,1.969,1.9,1.9,0,0,0,.193.951,4.185,4.185,0,0,0,.614.809,13.157,13.157,0,0,0,1.577,1.372c1.119.836,2.287,1.581,3.451,2.286,2.329,1.411,4.647,2.656,6.833,3.892.546.311,1.084.62,1.607.947a8.8,8.8,0,0,1,.77.527,1.065,1.065,0,0,1,.351.415,2.229,2.229,0,0,1,.1.477,25.139,25.139,0,0,0,.443,3.409,10.785,10.785,0,0,0,2.884,5.3,21.122,21.122,0,0,0,4.068,3.024,22,22,0,0,0,3.459,1.673,16.4,16.4,0,0,0,2.33.693c.272.06.481.094.622.118A1.04,1.04,0,0,1-3033.587,1846.566Z" transform="translate(3063.534 -1817.206)" fill="#aa6550"/>
          </g>
        </g>
      </g>
      <g id="Grupo_138576" data-name="Grupo 138576" transform="translate(2.046 29.963)">
        <g id="Grupo_138575" data-name="Grupo 138575">
          <path id="Trazado_195097" data-name="Trazado 195097" d="M-3025.394,1845.4a3.2,3.2,0,0,1,.969.3,9.662,9.662,0,0,1,2.373,1.438,8.75,8.75,0,0,1,1.36,1.376,2.921,2.921,0,0,1,.7,2.16,2.378,2.378,0,0,1-1.736,1.8,4.593,4.593,0,0,1-2.668-.14,48.994,48.994,0,0,1-8.376-3.569,27.2,27.2,0,0,1-2.346-1.454,4.22,4.22,0,0,1-.8-.627,4.986,4.986,0,0,1,.887.486c.558.331,1.371.8,2.4,1.327a58.714,58.714,0,0,0,8.356,3.426,4.239,4.239,0,0,0,2.42.149,1.989,1.989,0,0,0,1.47-1.462,2.587,2.587,0,0,0-.592-1.885,8.869,8.869,0,0,0-1.269-1.355A14.484,14.484,0,0,0-3025.394,1845.4Z" transform="translate(3035.921 -1845.391)" fill="#aa6550"/>
        </g>
      </g>
    </g>
  </g>
  <g id="Grupo_138756" data-name="Grupo 138756" transform="translate(162.299 6.546)">
    <g id="Grupo_138581" data-name="Grupo 138581">
      <g id="Grupo_138579" data-name="Grupo 138579" transform="translate(1.792)">
        <path id="Trazado_195098" data-name="Trazado 195098" d="M-3073.6,1619.816c2.352-.5,3.225-4.106,1.366-5.63,1.722-.945,1.236-3.667-.113-5.1s-3.276-2.307-4.326-3.968a4.032,4.032,0,0,0,4.817-3.485,3.388,3.388,0,0,0,3.4-2.2,3.389,3.389,0,0,0-1.314-3.83c1.84-.156,1.684-3.2.146-4.223s-3.564-.948-5.236-1.735a21.738,21.738,0,0,0-11.542-6.771q3.765-2.807,7.532-5.611a4.352,4.352,0,0,0,1.517-1.6c.656-1.5-.517-3.148-1.757-4.211a17.63,17.63,0,0,0-9.362-4.092c-1.1-.128-2.512.039-2.863,1.091-2.34-1.1-5.047-.989-7.631-.85-1.449.078-3.037.214-4.07,1.231a12.1,12.1,0,0,1,2.687-3.366,5.163,5.163,0,0,0,1.747-3.82c-.145-1.437-1.88-2.681-3.075-1.869,1.337-.63,1.161-2.779.023-3.723s-2.741-1.022-4.22-1.055c-1.03-.023-2.343.148-2.625,1.14-.47-2.307-4.41-2.628-5.247-.427a3.566,3.566,0,0,0-5.142.4,4.587,4.587,0,0,0-6.492,2.414q2-3.359,4-6.717c.756-1.268.887-3.643-.582-3.491,2.108.007,3.313-2.873,2.286-4.713s-3.413-2.536-5.5-2.279l-1.831,2.648a4.282,4.282,0,0,0-4.844.047,4.282,4.282,0,0,0-1.531,4.6c-.847-.907-2.494-.411-3.166.633a6.216,6.216,0,0,0-.607,3.614c-2.045-1.723-5.815.282-5.53,2.942a11.626,11.626,0,0,0-6.051-1.253,4.219,4.219,0,0,0-.458-4.936,4.221,4.221,0,0,0-4.878-.886,4.043,4.043,0,0,0-5.219-3.286c-.652-2.447-3.86-4.256-5.812-2.643-2.017,1.667-.93,4.9.306,7.207l4.021,7.5-13.092-7.02a2.289,2.289,0,0,0-1.311-.388c-.633.078-1.074.653-1.643.938-.792.394-1.752.2-2.6.456-2.312.707-2.272,4.236-.689,6.063s4,2.7,5.8,4.322l-5.819,1.1a5.949,5.949,0,0,0-7.675-4.024c-.792-2.148-3.671-2.422-5.958-2.326-2.049.085-4.3.256-5.756,1.7-1.856,1.853-1.506,5.108.056,7.214s4,3.339,6.357,4.5c-.391,1.741-2.651,2.277-4.417,2.017s-3.6-.95-5.272-.322c-2.269.852-3.229,3.786-5.506,4.615a9.67,9.67,0,0,0-2.081.691,4.126,4.126,0,0,0-1.4,2.707q-.426,1.891-.851,3.781a4.573,4.573,0,0,0-.156,1.9c.416,2.054,3.282,2.5,5.221,1.707s3.6-2.324,5.674-2.63c-2.732,1.364-5.616,2.867-7.145,5.511s-.9,6.752,1.974,7.782c2.91,1.043,5.775-1.473,7.893-3.723s5.16-4.648,7.971-3.363" transform="translate(3212.847 -1541.281)" fill="#1a2e35"/>
      </g>
      <g id="Grupo_138580" data-name="Grupo 138580" transform="translate(0 37.009)">
        <path id="Trazado_195099" data-name="Trazado 195099" d="M-3077.705,1615.815c2.2-1.647,5.959.525,5.631,3.256a7.964,7.964,0,0,1,5.51,5.852,7.968,7.968,0,0,1-2.593,7.61c-1.719,1.449-5.133,1.5-5.5-.717a6.061,6.061,0,0,1-4.3,3.737,5.879,5.879,0,0,1-2.369,8.328c3.5,2.406,2.837,8.747-1.084,10.378a4.985,4.985,0,0,1-2.419,6.346,4.985,4.985,0,0,1-6.34-2.433c-.75,1.8-1.582,3.694-3.194,4.788s-4.242.9-5.057-.867a6.587,6.587,0,0,1-9.379,3.955,4.419,4.419,0,0,1-3.5,4.672,4.418,4.418,0,0,1-4.881-3.2l-10.973.839a39.322,39.322,0,0,1-7.292.1,19.7,19.7,0,0,1-8.687-3.148,6.7,6.7,0,0,0-2.664-1.322,6.832,6.832,0,0,0-3.308.806,17.808,17.808,0,0,1-17.193-2.533,8.925,8.925,0,0,0-2.376-1.582,8,8,0,0,0-3.273-.169,32.144,32.144,0,0,1-8.067-.461c-2.28-.422-4.713-1.237-5.939-3.2s-.267-5.247,2.045-5.41a4.978,4.978,0,0,0-1.582-4.059,3,3,0,0,0-4.063.18c-.955,1.164-.217,3.346,1.288,3.415-2.333,1.923-6.391-.145-6.713-3.151s2.457-5.764,5.467-6.044a13.68,13.68,0,0,1-.743-6.616,4.892,4.892,0,0,1-6.575,1.326,8.437,8.437,0,0,1-5.1,4.378c-2.24.557-4.925-.429-5.819-2.557s.735-5.037,3.042-4.965c-1.835-2.435.26-6.612,3.31-6.6a6.765,6.765,0,0,1,3.5-7.509,3.558,3.558,0,0,1-5.212-1.514c-1.208,2.322-4.652,2.075-7.014.95-1.853-.882-3.67-2.212-3.379-4.9a5.377,5.377,0,0,1,1.677-3.29c2.17-2.05,5.19-2.426,8.06-2.746a35.145,35.145,0,0,0,2.43-11.221c-3.2.381-6.665-1.722-7.336-4.874l15.889-9.875s36.779-5.679,38.1-5.679,78.19,39.589,78.19,39.589c1.777,1.861,5.25,1.02,6.556-1.2s.782-5.142-.618-7.3a20.972,20.972,0,0,0-5.621-5.222c2.46-.17,5.086-.4,6.907-2.186a3.916,3.916,0,0,0,1.053-4.252c-.886-2.119-3.339-1.973-4.91-3.18a8.868,8.868,0,0,1-2.022-2.8" transform="translate(3214.533 -1576.093)" fill="#1a2e35"/>
      </g>
    </g>
    <g id="Grupo_138691" data-name="Grupo 138691" transform="translate(33.058 40.552)">
      <g id="Grupo_138690" data-name="Grupo 138690">
        <g id="Grupo_138689" data-name="Grupo 138689">
          <g id="Grupo_138584" data-name="Grupo 138584">
            <g id="Grupo_138583" data-name="Grupo 138583">
              <g id="Grupo_138582" data-name="Grupo 138582">
                <path id="Trazado_195100" data-name="Trazado 195100" d="M-3177.5,1607.239c.918-13.132,9.733-29.193,22.814-27.719l40.806,10.611a7.7,7.7,0,0,1,6.839,7.859l-4.515,88.167,9.832,4.7c.1.022-10.177,5.715-10.081,5.737,0,0-9.439,27.758-36.416,19.14-5.35-1.709-7.768-7.58-8.8-13.611l-.277.033c-.007-.715-8.924-7.543-8.928-8.225,0,.682,8.79-4.983,8.79-4.983l.021-2.392c-.039-7.958-.016-11.222-.021-11.147,0,0-16.766-2.9-20.094-24.824C-3179.191,1639.682-3178.523,1621.829-3177.5,1607.239Z" transform="translate(3178.539 -1579.425)" fill="#b78876"/>
              </g>
            </g>
          </g>
          <g id="Grupo_138688" data-name="Grupo 138688" transform="translate(4.802 25.295)">
            <g id="Grupo_138687" data-name="Grupo 138687" transform="translate(0)">
              <g id="Grupo_138686" data-name="Grupo 138686">
                <g id="Grupo_138685" data-name="Grupo 138685">
                  <g id="Grupo_138684" data-name="Grupo 138684">
                    <g id="Grupo_138663" data-name="Grupo 138663" transform="translate(0 8.918)">
                      <g id="Grupo_138662" data-name="Grupo 138662">
                        <g id="Grupo_138661" data-name="Grupo 138661">
                          <g id="Grupo_138606" data-name="Grupo 138606">
                            <g id="Grupo_138594" data-name="Grupo 138594" transform="translate(1.739 6.897)">
                              <g id="Grupo_138593" data-name="Grupo 138593">
                                <g id="Grupo_138592" data-name="Grupo 138592">
                                  <g id="Grupo_138591" data-name="Grupo 138591">
                                    <g id="Grupo_138590" data-name="Grupo 138590">
                                      <g id="Grupo_138589" data-name="Grupo 138589">
                                        <g id="Grupo_138588" data-name="Grupo 138588">
                                          <g id="Grupo_138587" data-name="Grupo 138587">
                                            <g id="Grupo_138586" data-name="Grupo 138586">
                                              <g id="Grupo_138585" data-name="Grupo 138585">
                                                <path id="Trazado_195101" data-name="Trazado 195101" d="M-3117.71,1620.615a2.809,2.809,0,0,0,2.688,2.852,2.686,2.686,0,0,0,2.913-2.512,2.809,2.809,0,0,0-2.685-2.853A2.688,2.688,0,0,0-3117.71,1620.615Z" transform="translate(3117.712 -1618.096)" fill="#1a2e35"/>
                                              </g>
                                            </g>
                                          </g>
                                        </g>
                                      </g>
                                    </g>
                                  </g>
                                </g>
                              </g>
                            </g>
                            <g id="Grupo_138605" data-name="Grupo 138605">
                              <g id="Grupo_138604" data-name="Grupo 138604">
                                <g id="Grupo_138603" data-name="Grupo 138603">
                                  <g id="Grupo_138602" data-name="Grupo 138602">
                                    <g id="Grupo_138601" data-name="Grupo 138601">
                                      <g id="Grupo_138600" data-name="Grupo 138600">
                                        <g id="Grupo_138599" data-name="Grupo 138599">
                                          <g id="Grupo_138598" data-name="Grupo 138598">
                                            <g id="Grupo_138597" data-name="Grupo 138597">
                                              <g id="Grupo_138596" data-name="Grupo 138596">
                                                <g id="Grupo_138595" data-name="Grupo 138595">
                                                  <path id="Trazado_195102" data-name="Trazado 195102" d="M-3121.244,1614.523c.346.369,2.483-1.191,5.506-1.163,3.019-.015,5.227,1.555,5.558,1.188.162-.163-.189-.826-1.149-1.536a7.717,7.717,0,0,0-4.446-1.4,7.405,7.405,0,0,0-4.385,1.383C-3121.094,1613.7-3121.415,1614.358-3121.244,1614.523Z" transform="translate(3121.288 -1611.608)" fill="#1a2e35"/>
                                                </g>
                                              </g>
                                            </g>
                                          </g>
                                        </g>
                                      </g>
                                    </g>
                                  </g>
                                </g>
                              </g>
                            </g>
                          </g>
                          <g id="Grupo_138628" data-name="Grupo 138628" transform="translate(29.705 0.766)">
                            <g id="Grupo_138616" data-name="Grupo 138616" transform="translate(0.898 6.25)">
                              <g id="Grupo_138615" data-name="Grupo 138615">
                                <g id="Grupo_138614" data-name="Grupo 138614">
                                  <g id="Grupo_138613" data-name="Grupo 138613">
                                    <g id="Grupo_138612" data-name="Grupo 138612">
                                      <g id="Grupo_138611" data-name="Grupo 138611">
                                        <g id="Grupo_138610" data-name="Grupo 138610">
                                          <g id="Grupo_138609" data-name="Grupo 138609">
                                            <g id="Grupo_138608" data-name="Grupo 138608">
                                              <g id="Grupo_138607" data-name="Grupo 138607">
                                                <path id="Trazado_195103" data-name="Trazado 195103" d="M-3144.86,1620.728a2.808,2.808,0,0,0,2.688,2.852,2.688,2.688,0,0,0,2.913-2.512,2.81,2.81,0,0,0-2.686-2.854A2.689,2.689,0,0,0-3144.86,1620.728Z" transform="translate(3144.862 -1618.208)" fill="#1a2e35"/>
                                              </g>
                                            </g>
                                          </g>
                                        </g>
                                      </g>
                                    </g>
                                  </g>
                                </g>
                              </g>
                            </g>
                            <g id="Grupo_138627" data-name="Grupo 138627">
                              <g id="Grupo_138626" data-name="Grupo 138626">
                                <g id="Grupo_138625" data-name="Grupo 138625">
                                  <g id="Grupo_138624" data-name="Grupo 138624">
                                    <g id="Grupo_138623" data-name="Grupo 138623">
                                      <g id="Grupo_138622" data-name="Grupo 138622">
                                        <g id="Grupo_138621" data-name="Grupo 138621">
                                          <g id="Grupo_138620" data-name="Grupo 138620">
                                            <g id="Grupo_138619" data-name="Grupo 138619">
                                              <g id="Grupo_138618" data-name="Grupo 138618">
                                                <g id="Grupo_138617" data-name="Grupo 138617">
                                                  <path id="Trazado_195104" data-name="Trazado 195104" d="M-3149.186,1615.244c.347.369,2.488-1.191,5.508-1.162,3.019-.015,5.227,1.554,5.557,1.187.162-.163-.185-.826-1.149-1.535a7.708,7.708,0,0,0-4.446-1.4,7.407,7.407,0,0,0-4.385,1.383C-3149.034,1614.419-3149.355,1615.079-3149.186,1615.244Z" transform="translate(3149.229 -1612.329)" fill="#1a2e35"/>
                                                </g>
                                              </g>
                                            </g>
                                          </g>
                                        </g>
                                      </g>
                                    </g>
                                  </g>
                                </g>
                              </g>
                            </g>
                          </g>
                          <g id="Grupo_138639" data-name="Grupo 138639" transform="translate(10.941 0.848)">
                            <g id="Grupo_138638" data-name="Grupo 138638">
                              <g id="Grupo_138637" data-name="Grupo 138637">
                                <g id="Grupo_138636" data-name="Grupo 138636">
                                  <g id="Grupo_138635" data-name="Grupo 138635">
                                    <g id="Grupo_138634" data-name="Grupo 138634">
                                      <g id="Grupo_138633" data-name="Grupo 138633">
                                        <g id="Grupo_138632" data-name="Grupo 138632">
                                          <g id="Grupo_138631" data-name="Grupo 138631">
                                            <g id="Grupo_138630" data-name="Grupo 138630">
                                              <g id="Grupo_138629" data-name="Grupo 138629">
                                                <path id="Trazado_195105" data-name="Trazado 195105" d="M-3122.131,1637.578c.015-.171-1.861-.509-4.9-.919-.772-.085-1.5-.242-1.628-.771a3.936,3.936,0,0,1,.531-2.284q1.108-2.794,2.323-5.861c3.226-8.345,5.567-15.21,5.23-15.336s-3.227,6.534-6.453,14.879q-1.165,3.087-2.227,5.9a4.465,4.465,0,0,0-.42,3.027,1.938,1.938,0,0,0,1.26,1.136,5.254,5.254,0,0,0,1.31.192C-3124.044,1637.723-3122.144,1637.75-3122.131,1637.578Z" transform="translate(3129.817 -1612.406)" fill="#1a2e35"/>
                                              </g>
                                            </g>
                                          </g>
                                        </g>
                                      </g>
                                    </g>
                                  </g>
                                </g>
                              </g>
                            </g>
                          </g>
                          <g id="Grupo_138649" data-name="Grupo 138649" transform="translate(16.295 54.147)">
                            <g id="Grupo_138648" data-name="Grupo 138648">
                              <g id="Grupo_138647" data-name="Grupo 138647">
                                <g id="Grupo_138646" data-name="Grupo 138646">
                                  <g id="Grupo_138645" data-name="Grupo 138645">
                                    <g id="Grupo_138644" data-name="Grupo 138644">
                                      <g id="Grupo_138643" data-name="Grupo 138643">
                                        <g id="Grupo_138642" data-name="Grupo 138642">
                                          <g id="Grupo_138641" data-name="Grupo 138641">
                                            <g id="Grupo_138640" data-name="Grupo 138640">
                                              <path id="Trazado_195106" data-name="Trazado 195106" d="M-3153.771,1670.165a55.719,55.719,0,0,0,29.383-7.624s-7.218,14.995-29.123,12.8Z" transform="translate(3153.771 -1662.541)" fill="#aa6550"/>
                                            </g>
                                          </g>
                                        </g>
                                      </g>
                                    </g>
                                  </g>
                                </g>
                              </g>
                            </g>
                          </g>
                          <g id="Grupo_138660" data-name="Grupo 138660" transform="translate(17.82 28.171)">
                            <g id="Grupo_138659" data-name="Grupo 138659">
                              <g id="Grupo_138658" data-name="Grupo 138658">
                                <g id="Grupo_138657" data-name="Grupo 138657">
                                  <g id="Grupo_138656" data-name="Grupo 138656">
                                    <g id="Grupo_138655" data-name="Grupo 138655">
                                      <g id="Grupo_138654" data-name="Grupo 138654">
                                        <g id="Grupo_138653" data-name="Grupo 138653">
                                          <g id="Grupo_138652" data-name="Grupo 138652">
                                            <g id="Grupo_138651" data-name="Grupo 138651">
                                              <g id="Grupo_138650" data-name="Grupo 138650">
                                                <path id="Trazado_195107" data-name="Trazado 195107" d="M-3127.442,1638.107c-.491-.031-.52,3.249-3.343,5.558s-6.314,1.926-6.341,2.384c-.048.206.774.643,2.249.693a8.17,8.17,0,0,0,5.293-1.8,7.114,7.114,0,0,0,2.593-4.662C-3126.857,1638.905-3127.218,1638.09-3127.442,1638.107Z" transform="translate(3137.129 -1638.107)" fill="#1a2e35"/>
                                              </g>
                                            </g>
                                          </g>
                                        </g>
                                      </g>
                                    </g>
                                  </g>
                                </g>
                              </g>
                            </g>
                          </g>
                        </g>
                      </g>
                    </g>
                    <g id="Grupo_138673" data-name="Grupo 138673" transform="translate(28.41 3.398)">
                      <g id="Grupo_138672" data-name="Grupo 138672">
                        <g id="Grupo_138671" data-name="Grupo 138671">
                          <g id="Grupo_138670" data-name="Grupo 138670">
                            <g id="Grupo_138669" data-name="Grupo 138669">
                              <g id="Grupo_138668" data-name="Grupo 138668">
                                <g id="Grupo_138667" data-name="Grupo 138667">
                                  <g id="Grupo_138666" data-name="Grupo 138666">
                                    <g id="Grupo_138665" data-name="Grupo 138665">
                                      <g id="Grupo_138664" data-name="Grupo 138664">
                                        <path id="Trazado_195108" data-name="Trazado 195108" d="M-3150.491,1608.642c.291.824,3.312.455,6.855.907,3.553.379,6.4,1.437,6.88.7.211-.352-.281-1.128-1.432-1.932a11.509,11.509,0,0,0-5.091-1.821,11.5,11.5,0,0,0-5.373.594C-3149.958,1607.61-3150.616,1608.251-3150.491,1608.642Z" transform="translate(3150.506 -1606.416)" fill="#1a2e35"/>
                                      </g>
                                    </g>
                                  </g>
                                </g>
                              </g>
                            </g>
                          </g>
                        </g>
                      </g>
                    </g>
                    <g id="Grupo_138683" data-name="Grupo 138683" transform="translate(1.139)">
                      <g id="Grupo_138682" data-name="Grupo 138682">
                        <g id="Grupo_138681" data-name="Grupo 138681">
                          <g id="Grupo_138680" data-name="Grupo 138680">
                            <g id="Grupo_138679" data-name="Grupo 138679">
                              <g id="Grupo_138678" data-name="Grupo 138678">
                                <g id="Grupo_138677" data-name="Grupo 138677">
                                  <g id="Grupo_138676" data-name="Grupo 138676">
                                    <g id="Grupo_138675" data-name="Grupo 138675">
                                      <g id="Grupo_138674" data-name="Grupo 138674">
                                        <path id="Trazado_195109" data-name="Trazado 195109" d="M-3121.554,1606.314c.527.69,2.614-.008,5.118-.025,2.5-.1,4.62.493,5.114-.221.216-.348-.114-1.037-1.036-1.694a7.079,7.079,0,0,0-4.153-1.153,7.075,7.075,0,0,0-4.091,1.351C-3121.492,1605.272-3121.786,1605.977-3121.554,1606.314Z" transform="translate(3121.63 -1603.219)" fill="#1a2e35"/>
                                      </g>
                                    </g>
                                  </g>
                                </g>
                              </g>
                            </g>
                          </g>
                        </g>
                      </g>
                    </g>
                  </g>
                </g>
              </g>
            </g>
          </g>
        </g>
      </g>
    </g>
    <g id="Grupo_138692" data-name="Grupo 138692" transform="translate(27.81 27.752)">
      <path id="Trazado_195110" data-name="Trazado 195110" d="M-3111.341,1621.206a3.662,3.662,0,0,1-1.044,4.2,2.525,2.525,0,0,1-3.589-.993c-.953,1.289-3.151-.019-2.851-1.7-1.184.666-2.739-.924-2.361-2.413-1.375.532-2.2-1.689-2.919-3.176a23.775,23.775,0,0,0-1.413-2.259,15.389,15.389,0,0,1-2.278-8.261c-1.794-2.034-2.254-5.174-2.619-8.087q-.342-2.727-.683-5.453l-1.019-1.264a2.965,2.965,0,0,1-1.956,2.836,6.329,6.329,0,0,1-3.305-.04l-3.26-.624-2.031.6c.6,1.691.01,3.616-.582,5.313-.408,1.172-.9,2.447-1.873,2.969a1.54,1.54,0,0,1-2.154-1.641,1.707,1.707,0,0,1-2.645-.407,5.614,5.614,0,0,1-.748-3.356,14.352,14.352,0,0,1,2.582-7.915l-5.638,5.33a2.645,2.645,0,0,1-1.383.855,1.5,1.5,0,0,1-1.586,1.659,3.888,3.888,0,0,1-2.1-1.411c-1.385-1.443-2.856-3.9-1.634-5.539a1.226,1.226,0,0,1-.552-1.792l-6.4,4.917c.639-.375,1.353.62,1.215,1.45a3.408,3.408,0,0,1-1.331,1.91,5.031,5.031,0,0,1,.753,3.045c1.151-1.044,2.9.873,2.531,2.536a3.638,3.638,0,0,1-3.386,2.667,2.53,2.53,0,0,1-2.873-1.862c-1.408.305-2.776-1.63-2.279-3.224-1.017.687-1.92-1.143-1.983-2.528a19.927,19.927,0,0,1,1.088-7.47c.042.356-.355.657-.61.464a.549.549,0,0,1,.1-.853q-1.8,4.425-3.592,8.851a20.591,20.591,0,0,0-1.954,7.36c-.016,1.053-.131,2.5-1.015,2.6a1.3,1.3,0,0,1-.7-.181c-2.556-1.24-4.536-3.812-5.821-6.714a10,10,0,0,1-.9-3.1c-.209-2.261.726-4.447.879-6.714a22.179,22.179,0,0,1,.184-2.994,9.01,9.01,0,0,1,2.309-3.917c3.448-4.019,7.091-8.181,11.724-9.812,2.83-1,5.859-.976,8.7-1.945a50.9,50.9,0,0,0,5.1-2.365c7-3.3,14.73-3.75,22.241-3.13a35.652,35.652,0,0,1,12.339,2.861c4.3,2.014,8.062,5.343,11.6,8.864,5.287,5.257,10.275,11.135,13.654,18.272,2.595,5.483,4.2,11.883,3.294,18.08s-4.729,12.016-9.915,13.31q-1.022-1.169-2.046-2.338" transform="translate(3188.178 -1567.385)" fill="#1a2e35"/>
    </g>
    <g id="Grupo_138714" data-name="Grupo 138714" transform="translate(98.366 85.113)">
      <g id="Grupo_138702" data-name="Grupo 138702" transform="translate(0)">
        <g id="Grupo_138701" data-name="Grupo 138701">
          <g id="Grupo_138700" data-name="Grupo 138700">
            <g id="Grupo_138699" data-name="Grupo 138699">
              <g id="Grupo_138698" data-name="Grupo 138698">
                <g id="Grupo_138697" data-name="Grupo 138697">
                  <g id="Grupo_138696" data-name="Grupo 138696">
                    <g id="Grupo_138695" data-name="Grupo 138695">
                      <g id="Grupo_138694" data-name="Grupo 138694">
                        <g id="Grupo_138693" data-name="Grupo 138693">
                          <path id="Trazado_195111" data-name="Trazado 195111" d="M-3179.07,1622c.3-.138,12.192-3.914,12.085,8.31s-12.358,9.594-12.377,9.244S-3179.07,1622-3179.07,1622Z" transform="translate(3179.362 -1621.341)" fill="#b78876"/>
                        </g>
                      </g>
                    </g>
                  </g>
                </g>
              </g>
            </g>
          </g>
        </g>
      </g>
      <g id="Grupo_138713" data-name="Grupo 138713" transform="translate(3.764 3.961)">
        <g id="Grupo_138712" data-name="Grupo 138712">
          <g id="Grupo_138711" data-name="Grupo 138711">
            <g id="Grupo_138710" data-name="Grupo 138710">
              <g id="Grupo_138709" data-name="Grupo 138709">
                <g id="Grupo_138708" data-name="Grupo 138708">
                  <g id="Grupo_138707" data-name="Grupo 138707">
                    <g id="Grupo_138706" data-name="Grupo 138706">
                      <g id="Grupo_138705" data-name="Grupo 138705">
                        <g id="Grupo_138704" data-name="Grupo 138704">
                          <g id="Grupo_138703" data-name="Grupo 138703">
                            <path id="Trazado_195112" data-name="Trazado 195112" d="M-3176.431,1634.718c.055-.038.212.151.57.319a2.129,2.129,0,0,0,1.592.048c1.3-.463,2.4-2.5,2.48-4.706a7.022,7.022,0,0,0-.569-3.054,2.457,2.457,0,0,0-1.587-1.649,1.084,1.084,0,0,0-1.262.573c-.167.34-.091.585-.156.6-.034.03-.26-.207-.157-.711a1.36,1.36,0,0,1,.488-.761,1.607,1.607,0,0,1,1.181-.3,2.994,2.994,0,0,1,2.208,1.915,7.238,7.238,0,0,1,.708,3.414c-.1,2.462-1.382,4.756-3.153,5.252a2.275,2.275,0,0,1-1.944-.341C-3176.411,1635.014-3176.473,1634.74-3176.431,1634.718Z" transform="translate(3176.442 -1625.067)" fill="#aa6550"/>
                          </g>
                        </g>
                      </g>
                    </g>
                  </g>
                </g>
              </g>
            </g>
          </g>
        </g>
      </g>
    </g>
    <g id="Grupo_138727" data-name="Grupo 138727" transform="translate(24.174 67.323)">
      <g id="Grupo_138716" data-name="Grupo 138716" transform="translate(34.488)">
        <g id="Grupo_138715" data-name="Grupo 138715">
          <path id="Trazado_195113" data-name="Trazado 195113" d="M-3157.889,1619.319a26.123,26.123,0,0,1,.559-3.511,14.431,14.431,0,0,1,5.283-7.85,14.2,14.2,0,0,1,6.015-2.645,14.326,14.326,0,0,1,7.481.638,13.379,13.379,0,0,1,3.6,1.942,13.352,13.352,0,0,1,3,3.022,14.292,14.292,0,0,1,2.762,8.4,14.291,14.291,0,0,1-2.761,8.4,13.357,13.357,0,0,1-3,3.024,13.347,13.347,0,0,1-3.6,1.942,14.325,14.325,0,0,1-7.481.639,14.221,14.221,0,0,1-6.016-2.646,14.437,14.437,0,0,1-5.282-7.85,26.125,26.125,0,0,1-.559-3.51,5.845,5.845,0,0,0-.008.927,6.572,6.572,0,0,0,.087,1.122,10.115,10.115,0,0,0,.27,1.515,14.43,14.43,0,0,0,5.255,8.108,14.526,14.526,0,0,0,6.168,2.785,14.722,14.722,0,0,0,7.739-.61,13.816,13.816,0,0,0,3.739-2,13.849,13.849,0,0,0,3.126-3.128,14.786,14.786,0,0,0,2.878-8.725,14.791,14.791,0,0,0-2.879-8.723,13.876,13.876,0,0,0-3.127-3.127,13.828,13.828,0,0,0-3.738-2,14.727,14.727,0,0,0-7.738-.61,14.533,14.533,0,0,0-6.168,2.785,14.424,14.424,0,0,0-5.256,8.109,10.137,10.137,0,0,0-.27,1.515,6.59,6.59,0,0,0-.087,1.123A5.843,5.843,0,0,0-3157.889,1619.319Z" transform="translate(3157.905 -1604.608)" fill="#375a64"/>
        </g>
      </g>
      <g id="Grupo_138718" data-name="Grupo 138718" transform="translate(0)">
        <g id="Grupo_138717" data-name="Grupo 138717">
          <path id="Trazado_195114" data-name="Trazado 195114" d="M-3125.448,1619.319a25.874,25.874,0,0,1,.558-3.511,14.434,14.434,0,0,1,5.283-7.85,14.207,14.207,0,0,1,6.017-2.645,14.32,14.32,0,0,1,7.479.638,13.381,13.381,0,0,1,3.6,1.942,13.352,13.352,0,0,1,3,3.022,14.3,14.3,0,0,1,2.762,8.4,14.293,14.293,0,0,1-2.761,8.4,13.365,13.365,0,0,1-3,3.024,13.339,13.339,0,0,1-3.6,1.942,14.322,14.322,0,0,1-7.48.639,14.223,14.223,0,0,1-6.017-2.646,14.44,14.44,0,0,1-5.282-7.85,25.876,25.876,0,0,1-.558-3.51,5.8,5.8,0,0,0-.009.927,6.547,6.547,0,0,0,.087,1.122,10.115,10.115,0,0,0,.27,1.515,14.432,14.432,0,0,0,5.255,8.108,14.525,14.525,0,0,0,6.169,2.785,14.718,14.718,0,0,0,7.738-.61,13.8,13.8,0,0,0,3.739-2,13.848,13.848,0,0,0,3.127-3.128,14.786,14.786,0,0,0,2.878-8.725,14.791,14.791,0,0,0-2.879-8.723,13.86,13.86,0,0,0-3.126-3.127,13.816,13.816,0,0,0-3.738-2,14.727,14.727,0,0,0-7.738-.61,14.533,14.533,0,0,0-6.167,2.785,14.427,14.427,0,0,0-5.256,8.109,10.137,10.137,0,0,0-.27,1.515,6.565,6.565,0,0,0-.087,1.123A5.793,5.793,0,0,0-3125.448,1619.319Z" transform="translate(3125.464 -1604.608)" fill="#375a64"/>
        </g>
      </g>
      <g id="Grupo_138720" data-name="Grupo 138720" transform="translate(28.36 10.282)">
        <g id="Grupo_138719" data-name="Grupo 138719">
          <path id="Trazado_195115" data-name="Trazado 195115" d="M-3130.793,1615.308c.066.152,1.463-.42,3.274-.47,1.813-.075,3.245.4,3.3.243a4.985,4.985,0,0,0-3.319-.8A5,5,0,0,0-3130.793,1615.308Z" transform="translate(3130.796 -1614.28)" fill="#375a64"/>
        </g>
      </g>
      <g id="Grupo_138722" data-name="Grupo 138722" transform="translate(63.59 16.124)">
        <g id="Grupo_138721" data-name="Grupo 138721">
          <path id="Trazado_195116" data-name="Trazado 195116" d="M-3169.4,1619.8a23.924,23.924,0,0,0,6.1,1.55,23.982,23.982,0,0,0,6.283.447c.01-.16-2.784-.439-6.195-.993S-3169.356,1619.644-3169.4,1619.8Z" transform="translate(3169.397 -1619.775)" fill="#375a64"/>
        </g>
      </g>
      <g id="Grupo_138724" data-name="Grupo 138724" transform="translate(35.976 12.431)">
        <g id="Grupo_138723" data-name="Grupo 138723" transform="translate(0)">
          <path id="Trazado_195117" data-name="Trazado 195117" d="M-3141.019,1616.3a7.751,7.751,0,0,0,.145,2.733,17.188,17.188,0,0,0,2.4,6.159,14.814,14.814,0,0,0,4.616,4.741,3.461,3.461,0,0,0,2.671.589,6.507,6.507,0,0,1-2.468-.924,16.422,16.422,0,0,1-4.352-4.7,19.6,19.6,0,0,1-2.487-5.939C-3140.866,1617.337-3140.926,1616.3-3141.019,1616.3Z" transform="translate(3141.076 -1616.301)" fill="#fff"/>
        </g>
      </g>
      <g id="Grupo_138726" data-name="Grupo 138726" transform="translate(1.634 5.676)">
        <g id="Grupo_138725" data-name="Grupo 138725">
          <path id="Trazado_195118" data-name="Trazado 195118" d="M-3100.2,1626.009a18.366,18.366,0,0,0-1.17-2.284,11.173,11.173,0,0,1-.963-2.545,8.861,8.861,0,0,1-.054-3.295,17.389,17.389,0,0,1,1.727-5.828c.742-1.376,1.49-2.036,1.418-2.107-.022-.024-.234.111-.562.42a7.415,7.415,0,0,0-1.194,1.491,15.316,15.316,0,0,0-1.937,5.948,8.8,8.8,0,0,0,.106,3.49,10.206,10.206,0,0,0,1.115,2.613A8.8,8.8,0,0,0-3100.2,1626.009Z" transform="translate(3103.061 -1609.947)" fill="#fff"/>
        </g>
      </g>
    </g>
    <g id="Grupo_138729" data-name="Grupo 138729" transform="translate(101.178 101.225)">
      <g id="Grupo_138728" data-name="Grupo 138728" transform="translate(0)">
        <path id="Trazado_195119" data-name="Trazado 195119" d="M-3172.638,1638.179c-.017.049.317.153.8.512a3.968,3.968,0,0,1,1.4,2.047,3.461,3.461,0,0,1-.734,3.405,4.115,4.115,0,0,1-4.068,1.193,4.407,4.407,0,0,1-2.887-3.169,4.385,4.385,0,0,1,.681-3.522,5.388,5.388,0,0,1,1.86-1.7,8.47,8.47,0,0,0,.851-.436,2.056,2.056,0,0,0-.945.242,5.092,5.092,0,0,0-2.086,1.67,4.717,4.717,0,0,0-.858,3.864,4.861,4.861,0,0,0,3.228,3.583,4.574,4.574,0,0,0,4.606-1.384,3.786,3.786,0,0,0,.924-1.982,4.087,4.087,0,0,0-.2-1.883,3.95,3.95,0,0,0-1.648-2.106A1.794,1.794,0,0,0-3172.638,1638.179Z" transform="translate(3178.744 -1636.497)" fill="#375a64"/>
      </g>
    </g>
    <g id="Grupo_138731" data-name="Grupo 138731" transform="translate(55.428 35.762)">
      <g id="Grupo_138730" data-name="Grupo 138730" transform="translate(0)">
        <path id="Trazado_195120" data-name="Trazado 195120" d="M-3144.084,1586.129a3.067,3.067,0,0,1-.822-1.573,2.156,2.156,0,0,1,.55-1.84,2.306,2.306,0,0,1,2.338-.6l.508.171-.219-.492a2.413,2.413,0,0,1,.642-2.709,2.367,2.367,0,0,1,3.039.106l.4-.377a1.025,1.025,0,0,1-.169-.307,1.365,1.365,0,0,1,.2-1.15,1.562,1.562,0,0,1,.993-.629,2.606,2.606,0,0,1,1.223.054,3.309,3.309,0,0,0,1.371.3c.585-.105.843-.539,1.144-.734a4.558,4.558,0,0,1,.946-.587,5.2,5.2,0,0,1,1.962-.45,5.356,5.356,0,0,1,2.85.683c.612.353.891.646.929.608a2.464,2.464,0,0,0-.815-.791,5.232,5.232,0,0,0-2.97-.893,5.509,5.509,0,0,0-2.14.421,4.968,4.968,0,0,0-1.062.625c-.355.254-.619.588-.916.612a3.232,3.232,0,0,1-1.152-.306,3.1,3.1,0,0,0-1.482-.077,2.106,2.106,0,0,0-1.338.852,1.905,1.905,0,0,0-.266,1.632,1.635,1.635,0,0,0,.271.489l.4-.378a2.887,2.887,0,0,0-3.764-.109,2.887,2.887,0,0,0-.728,3.306l.29-.321a2.7,2.7,0,0,0-2.769.79,2.434,2.434,0,0,0-.538,2.151,2.448,2.448,0,0,0,.676,1.247C-3144.259,1586.079-3144.093,1586.146-3144.084,1586.129Z" transform="translate(3145.236 -1574.92)" fill="#375a64"/>
      </g>
    </g>
    <g id="Grupo_138733" data-name="Grupo 138733" transform="translate(41.454 31.489)">
      <g id="Grupo_138732" data-name="Grupo 138732">
        <path id="Trazado_195121" data-name="Trazado 195121" d="M-3134.121,1589.925a3.746,3.746,0,0,1-1.042-1.53,2.742,2.742,0,0,1,.124-2.07,2.857,2.857,0,0,1,2.15-1.563l.393-.052-.267-.3a3.417,3.417,0,0,1-.937-2.986,1.834,1.834,0,0,1,1.1-1.234,1.455,1.455,0,0,1,1.62.215l1.558,1.655-1.136-1.973a2.832,2.832,0,0,1-.154-2.386,2.608,2.608,0,0,1,1.889-1.619,2.765,2.765,0,0,1,1.829.182l.64.311-.264-.663c-.373-.94.583-2.031,1.534-2.157a4.66,4.66,0,0,1,2.9.723l.527.283-.167-.57a2.016,2.016,0,0,1,.659-1.953,3.747,3.747,0,0,1,1.874-.836,9.518,9.518,0,0,1,3.513.082,15.253,15.253,0,0,1,2.947,1.057,2.563,2.563,0,0,0-.688-.477,8.94,8.94,0,0,0-2.192-.869,9.384,9.384,0,0,0-3.648-.2,4.115,4.115,0,0,0-2.115.9,2.476,2.476,0,0,0-.829,2.43l.36-.287a5.1,5.1,0,0,0-3.228-.811,2.57,2.57,0,0,0-1.6.961,1.963,1.963,0,0,0-.353,1.93l.376-.352a3.3,3.3,0,0,0-2.2-.225,3.16,3.16,0,0,0-2.275,1.963,3.355,3.355,0,0,0,.206,2.849l.422-.318a1.97,1.97,0,0,0-2.206-.318,2.328,2.328,0,0,0-1.368,1.584,3.82,3.82,0,0,0,1.1,3.392l.126-.351a3.2,3.2,0,0,0-2.4,1.838,2.946,2.946,0,0,0-.041,2.292,2.92,2.92,0,0,0,.832,1.186C-3134.293,1589.873-3134.129,1589.939-3134.121,1589.925Z" transform="translate(3135.596 -1570.901)" fill="#375a64"/>
      </g>
    </g>
    <g id="Grupo_138735" data-name="Grupo 138735" transform="translate(13.439 34.576)">
      <g id="Grupo_138734" data-name="Grupo 138734">
        <path id="Trazado_195122" data-name="Trazado 195122" d="M-3112.465,1592.3a2.06,2.06,0,0,1,.709-1.5,2.624,2.624,0,0,1,1.821-.656,7.826,7.826,0,0,1,2.613.618l.3.112-.042-.324a2.369,2.369,0,0,1,1.925-2.307,6.874,6.874,0,0,1,3.889.624l1.709.636-1.465-1.087a1.946,1.946,0,0,1,.148-2.8,4.418,4.418,0,0,1,3.416-.81l.165.015,1.08.1-.9-.6a2.087,2.087,0,0,1,.232-3.3,3.161,3.161,0,0,1,3.515.339l1.126.889-.753-1.221a4.733,4.733,0,0,1,.013-4.811,4.411,4.411,0,0,1,3.242-2.07,5,5,0,0,1,2.583.333c.568.241.837.453.86.42.009-.011-.052-.07-.179-.176a3.231,3.231,0,0,0-.612-.392,4.868,4.868,0,0,0-2.687-.49,4.7,4.7,0,0,0-3.569,2.153,5.149,5.149,0,0,0-.081,5.3l.374-.334a3.663,3.663,0,0,0-4.125-.4,2.659,2.659,0,0,0-1.187,2,2.339,2.339,0,0,0,.943,2.216l.18-.507-.174-.016a4.906,4.906,0,0,0-3.841.968,2.821,2.821,0,0,0-.828,1.81,2.034,2.034,0,0,0,.743,1.793l.246-.452a7.222,7.222,0,0,0-4.187-.586,2.777,2.777,0,0,0-2.2,2.809l.262-.213a7.911,7.911,0,0,0-2.749-.557,2.829,2.829,0,0,0-1.966.812,1.97,1.97,0,0,0-.608,1.2A.816.816,0,0,0-3112.465,1592.3Z" transform="translate(3112.521 -1573.805)" fill="#375a64"/>
      </g>
    </g>
    <g id="Grupo_138737" data-name="Grupo 138737" transform="translate(28.914 25.034)">
      <g id="Grupo_138736" data-name="Grupo 138736">
        <path id="Trazado_195123" data-name="Trazado 195123" d="M-3125.346,1564.837a1.632,1.632,0,0,0,.725.259,9.4,9.4,0,0,0,2.139.112,6.355,6.355,0,0,1,3.077.46,1.954,1.954,0,0,1,1.075,1.337,1.416,1.416,0,0,1-.561,1.613l.377.268c.113-.707.988-1.155,1.778-1.622a9.166,9.166,0,0,1,2.577-1.109,3.323,3.323,0,0,1,2.621.4,2.207,2.207,0,0,1,1.133,2.033l-.086.676.514-.452a6.115,6.115,0,0,1,3.594-1.481,6.871,6.871,0,0,1,3.081.443,8.728,8.728,0,0,1,2.361,1.509,2.134,2.134,0,0,0-.469-.6,5.874,5.874,0,0,0-1.771-1.2,6.92,6.92,0,0,0-3.231-.586,6.466,6.466,0,0,0-3.909,1.53l.429.225a2.719,2.719,0,0,0-1.349-2.552,3.858,3.858,0,0,0-3.033-.487,9.5,9.5,0,0,0-2.736,1.18,11.6,11.6,0,0,0-1.2.77,2.008,2.008,0,0,0-.819,1.245l-.076.52.453-.252a1.9,1.9,0,0,0,.788-2.182,2.406,2.406,0,0,0-1.344-1.614,6.411,6.411,0,0,0-3.293-.39,11.9,11.9,0,0,1-2.1.038A7.148,7.148,0,0,0-3125.346,1564.837Z" transform="translate(3125.346 -1564.828)" fill="#375a64"/>
      </g>
    </g>
    <g id="Grupo_138739" data-name="Grupo 138739" transform="translate(56.223 14.307)">
      <g id="Grupo_138738" data-name="Grupo 138738" transform="translate(0)">
        <path id="Trazado_195124" data-name="Trazado 195124" d="M-3139.338,1554.891a5.752,5.752,0,0,1,1.445.2,3.487,3.487,0,0,1,1.379.873,3.016,3.016,0,0,1,.88,1.853l.025.3.282-.1a1.819,1.819,0,0,1,2.015,1.131,5.525,5.525,0,0,1,.106,3.041l-.167,1.08.671-.887.1-.138a2.336,2.336,0,0,1,1.893-.783,2.613,2.613,0,0,1,1.8.782,4.166,4.166,0,0,1,1.107,3.253,7.68,7.68,0,0,1-.615,2.382,4.275,4.275,0,0,0-.339.863c.03.018.242-.241.534-.77a6.8,6.8,0,0,0,.811-2.439,4.492,4.492,0,0,0-1.137-3.651,3.073,3.073,0,0,0-4.486.013l-.136.181.5.193a5.856,5.856,0,0,0-.175-3.348,2.285,2.285,0,0,0-2.643-1.347l.308.2a3.352,3.352,0,0,0-1.081-2.085,3.582,3.582,0,0,0-1.568-.86,2.886,2.886,0,0,0-1.139-.065C-3139.214,1554.818-3139.343,1554.87-3139.338,1554.891Z" transform="translate(3139.338 -1554.738)" fill="#375a64"/>
      </g>
    </g>
    <g id="Grupo_138741" data-name="Grupo 138741" transform="translate(80.304 16.21)">
      <g id="Grupo_138740" data-name="Grupo 138740" transform="translate(0)">
        <path id="Trazado_195125" data-name="Trazado 195125" d="M-3157.758,1571.5c.007.03.275.009.726-.164a4.6,4.6,0,0,0,1.661-1.177,4.9,4.9,0,0,0,1.259-2.765,2.518,2.518,0,0,1,.362-1.5c.315-.388.987-.633,1.4-1.271a2.766,2.766,0,0,0-.711-3.721l.024.4a8.838,8.838,0,0,0,2.352-3.273,3.564,3.564,0,0,0,.385-1.506c-.062-.017-.226.526-.663,1.378a9.685,9.685,0,0,1-2.4,3.017l-.262.217.286.187a2.279,2.279,0,0,1,.527,2.993c-.281.474-.881.69-1.352,1.226a2.878,2.878,0,0,0-.458,1.807,4.7,4.7,0,0,1-1.047,2.555A6.987,6.987,0,0,1-3157.758,1571.5Z" transform="translate(3157.76 -1556.529)" fill="#375a64"/>
      </g>
    </g>
    <g id="Grupo_138743" data-name="Grupo 138743" transform="translate(87.4 26.878)">
      <g id="Grupo_138742" data-name="Grupo 138742" transform="translate(0)">
        <path id="Trazado_195126" data-name="Trazado 195126" d="M-3178.9,1575.717c0,.024.157.05.46.065a6.2,6.2,0,0,0,1.309-.114,7.354,7.354,0,0,0,4.072-2.313l-.356-.006a4.731,4.731,0,0,0,3.241,1.712,4.893,4.893,0,0,0,2.057-.243,3.01,3.01,0,0,0,1.756-1.376,6.264,6.264,0,0,0,.219-.794,1.081,1.081,0,0,1,.344-.511,3.41,3.41,0,0,1,1.271-.564,4.412,4.412,0,0,0,1.419-.582,1.573,1.573,0,0,0,.783-1.359l-.35.243a4.871,4.871,0,0,0,3.367.078,5.271,5.271,0,0,0,2.21-1.387,4.347,4.347,0,0,0,.911-1.418,1.456,1.456,0,0,0,.136-.583,6.867,6.867,0,0,1-1.26,1.788,5.173,5.173,0,0,1-2.121,1.2,4.512,4.512,0,0,1-3.046-.139l-.37-.156.021.4a1.072,1.072,0,0,1-.575.9,3.96,3.96,0,0,1-1.27.494,3.838,3.838,0,0,0-1.484.667,1.638,1.638,0,0,0-.517.766,7.173,7.173,0,0,1-.2.734,2.537,2.537,0,0,1-1.434,1.085,4.453,4.453,0,0,1-1.824.232,4.314,4.314,0,0,1-2.927-1.476l-.177-.217-.18.21a7.474,7.474,0,0,1-3.781,2.356C-3178.26,1575.682-3178.906,1575.654-3178.9,1575.717Z" transform="translate(3178.904 -1566.563)" fill="#375a64"/>
      </g>
    </g>
    <g id="Grupo_138745" data-name="Grupo 138745" transform="translate(97.775 37.412)">
      <g id="Grupo_138744" data-name="Grupo 138744" transform="translate(0)">
        <path id="Trazado_195127" data-name="Trazado 195127" d="M-3165.354,1592.048c.012,0,.033-.062.064-.189a3.035,3.035,0,0,0,.092-.574,5.837,5.837,0,0,0-.265-2.193,13.021,13.021,0,0,0-1.484-3.1,12.132,12.132,0,0,0-1.226-1.746,3.249,3.249,0,0,0-.961-.741,1.461,1.461,0,0,0-1.352,0l.346.225a3.753,3.753,0,0,0-1.727-3.482,3.756,3.756,0,0,0-4.255.29l.445.218a2.534,2.534,0,0,0-1.025-2.068,2.428,2.428,0,0,0-2.355-.287,2.489,2.489,0,0,0-1.083.822l.5.185a1.576,1.576,0,0,0-.582-1.3,2.165,2.165,0,0,0-1.247-.52,4.974,4.974,0,0,0-2.359.6l.336.105a3.938,3.938,0,0,0-2.389-1.669,5.534,5.534,0,0,0-2.705,0,13.933,13.933,0,0,0-4.159,2.073l.292.248a.973.973,0,0,0-.112-.96,1.673,1.673,0,0,0-.683-.519,2.845,2.845,0,0,0-1.471-.222,7.977,7.977,0,0,0-2.2.666,7.142,7.142,0,0,0-1.243.734c-.264.2-.387.321-.376.335.031.046.572-.4,1.708-.866a8.357,8.357,0,0,1,2.146-.553,2.526,2.526,0,0,1,1.282.234c.421.187.78.584.579.993l-.3.608.591-.36a13.937,13.937,0,0,1,4.055-1.94,5.06,5.06,0,0,1,2.463.023,3.434,3.434,0,0,1,2.065,1.452l.122.2.215-.094a4.542,4.542,0,0,1,2.1-.549c.657.036,1.375.6,1.319,1.228l-.086.972.585-.787a1.945,1.945,0,0,1,.84-.634,1.877,1.877,0,0,1,1.823.215,1.994,1.994,0,0,1,.811,1.61l-.018.6.462-.381a3.242,3.242,0,0,1,3.639-.272,3.284,3.284,0,0,1,1.533,3l-.04.456.387-.23c.59-.35,1.309.131,1.775.624a12.237,12.237,0,0,1,1.215,1.655,13.578,13.578,0,0,1,1.548,2.976A7.372,7.372,0,0,1-3165.354,1592.048Z" transform="translate(3198.538 -1576.472)" fill="#375a64"/>
      </g>
    </g>
    <g id="Grupo_138747" data-name="Grupo 138747" transform="translate(100.484 48.301)">
      <g id="Grupo_138746" data-name="Grupo 138746" transform="translate(0)">
        <path id="Trazado_195128" data-name="Trazado 195128" d="M-3169.377,1607.566c.016.01.112-.11.277-.35a8.627,8.627,0,0,0,.648-1.109,3.933,3.933,0,0,0,.439-2.022,2.854,2.854,0,0,0-.418-1.264,2.064,2.064,0,0,0-1.209-.928l.114.3a2.628,2.628,0,0,0,.106-2.735,2.64,2.64,0,0,0-2.859-1.216l.255.39a2.074,2.074,0,0,0-.083-2.456,3.068,3.068,0,0,0-2.355-1.1,12.13,12.13,0,0,1-1.233,0,1.059,1.059,0,0,1-.764-.661,4.469,4.469,0,0,0-.714-1.192,2.384,2.384,0,0,0-1.3-.717,13.658,13.658,0,0,0-2.942-.07,3.187,3.187,0,0,1-2.381-.69,12.141,12.141,0,0,1-.758-1.056,2.773,2.773,0,0,0-1.116-.86,2.908,2.908,0,0,0-2.583.141l.324.341a2.189,2.189,0,0,0-.3-2.542,3.092,3.092,0,0,0-2.066-1.023,9.83,9.83,0,0,0-3.61.45,12.016,12.016,0,0,0-2.163.865,2.842,2.842,0,0,0-.7.437,27.965,27.965,0,0,1,2.937-1.028,9.982,9.982,0,0,1,3.483-.331,2.7,2.7,0,0,1,1.775.91,1.74,1.74,0,0,1,.242,1.993l-.586.867.91-.524a2.419,2.419,0,0,1,2.135-.085,2.251,2.251,0,0,1,.9.706,10.89,10.89,0,0,0,.79,1.108,2.864,2.864,0,0,0,1.312.728,6.4,6.4,0,0,0,1.459.14,13.678,13.678,0,0,1,2.815.062,1.834,1.834,0,0,1,1.019.553,4.117,4.117,0,0,1,.634,1.075,1.609,1.609,0,0,0,1.154.938,10.314,10.314,0,0,0,1.307,0,2.564,2.564,0,0,1,1.96.872,1.579,1.579,0,0,1,.107,1.843l-.435.565.691-.176a2.184,2.184,0,0,1,2.352.962,2.233,2.233,0,0,1-.042,2.294l-.152.231.267.067a2.1,2.1,0,0,1,1.416,1.847,3.846,3.846,0,0,1-.33,1.9C-3169.083,1607.023-3169.424,1607.541-3169.377,1607.566Z" transform="translate(3196.771 -1586.714)" fill="#375a64"/>
      </g>
    </g>
    <g id="Grupo_138749" data-name="Grupo 138749" transform="translate(117.963 77.262)">
      <g id="Grupo_138748" data-name="Grupo 138748" transform="translate(0)">
        <path id="Trazado_195129" data-name="Trazado 195129" d="M-3188.557,1639.453a1.245,1.245,0,0,0,.536-.175,3.793,3.793,0,0,0,1.26-.993,3.939,3.939,0,0,0,.93-2.338,4.2,4.2,0,0,0-1.134-3.082l.024.295a7.641,7.641,0,0,0,1.435-2.746,3.115,3.115,0,0,0-.127-1.767,2.273,2.273,0,0,0-1.309-1.366l.055.487a3.207,3.207,0,0,0,1.377-2.882,3.589,3.589,0,0,0-.568-1.8,3.014,3.014,0,0,0-1.43-1.141c-.527-.232-.77-.479-.786-1.012a4.388,4.388,0,0,0-.371-1.617,5.58,5.58,0,0,0-2.059-2.2c-.743-.536-1.428-1.044-2.078-1.486a9.2,9.2,0,0,0-3.372-1.583,4.3,4.3,0,0,0-1.016-.084c-.232.02-.353.039-.352.058,0,.055.491.007,1.319.235a9.891,9.891,0,0,1,3.195,1.693l2.031,1.535a5.179,5.179,0,0,1,1.865,2.041,3.878,3.878,0,0,1,.311,1.455,1.583,1.583,0,0,0,.306.91,2.128,2.128,0,0,0,.772.545,2.667,2.667,0,0,1,1.68,2.475,2.677,2.677,0,0,1-1.116,2.4l-.471.293.526.193a2.193,2.193,0,0,1,1.115,2.516,7.368,7.368,0,0,1-1.311,2.583l-.109.161.133.134a3.843,3.843,0,0,1,1.089,2.745,3.75,3.75,0,0,1-.762,2.186A5.484,5.484,0,0,1-3188.557,1639.453Z" transform="translate(3197.542 -1613.957)" fill="#375a64"/>
      </g>
    </g>
    <g id="Grupo_138751" data-name="Grupo 138751" transform="translate(97.787 64.876)">
      <g id="Grupo_138750" data-name="Grupo 138750" transform="translate(0)">
        <path id="Trazado_195130" data-name="Trazado 195130" d="M-3171.5,1625.828a2.185,2.185,0,0,0,.757-.161,6.926,6.926,0,0,0,1.938-1.009,7.348,7.348,0,0,0,2.2-2.578,2.956,2.956,0,0,0,.373-2.125,1.459,1.459,0,0,0-.846-.941,1.164,1.164,0,0,0-1.344.228l.416.251a3.745,3.745,0,0,0,.377-2.125,1.771,1.771,0,0,0-.662-1.041,1.477,1.477,0,0,0-1.266-.18,2.194,2.194,0,0,1-.953.13c-.2-.062-.242-.317-.22-.729a3.37,3.37,0,0,0-.936-2.337,3.635,3.635,0,0,0-3.75-1.072l.352.324a3.127,3.127,0,0,0-.573-3.043,1.9,1.9,0,0,0-1.5-.472,1.416,1.416,0,0,0-1.229.9l.469.1a7.492,7.492,0,0,0-.943-4.026,7.8,7.8,0,0,0-2.063-2.426,6.857,6.857,0,0,0-1.782-1,2.262,2.262,0,0,0-.7-.178,11.087,11.087,0,0,1,2.3,1.4,7.806,7.806,0,0,1,1.893,2.392,7.2,7.2,0,0,1,.811,3.806l-.133,2,.6-1.907c.207-.658,1.361-.759,1.912-.212a2.639,2.639,0,0,1,.406,2.531l-.133.492.485-.168a3.108,3.108,0,0,1,3.166.936,2.827,2.827,0,0,1,.792,1.952,2.333,2.333,0,0,0,.048.653.87.87,0,0,0,.534.6,2.382,2.382,0,0,0,1.259-.116.937.937,0,0,1,.841.085,1.259,1.259,0,0,1,.464.727,3.335,3.335,0,0,1-.332,1.83l-.511,1.344.926-1.093c.366-.432,1.272-.044,1.386.523a2.584,2.584,0,0,1-.3,1.813,7.31,7.31,0,0,1-2.015,2.527A10.558,10.558,0,0,1-3171.5,1625.828Z" transform="translate(3183.379 -1602.306)" fill="#375a64"/>
      </g>
    </g>
    <g id="Grupo_138753" data-name="Grupo 138753" transform="translate(82.002 45.271)">
      <g id="Grupo_138752" data-name="Grupo 138752" transform="translate(0)">
        <path id="Trazado_195131" data-name="Trazado 195131" d="M-3156.764,1592.944a4.163,4.163,0,0,0,1.634-.655,4.626,4.626,0,0,0,1.484-1.288,3.043,3.043,0,0,0,.537-2.4,2.281,2.281,0,0,0-.225-.576l-.116.38a2.638,2.638,0,0,0,1.358-1.824,2.411,2.411,0,0,0-.355-1.792c-.6-.882-1.318-.968-1.312-.914-.045.078.558.3.99,1.1a2.126,2.126,0,0,1,.193,1.5,2.21,2.21,0,0,1-1.123,1.436l-.245.123.127.258a1.786,1.786,0,0,1,.168.437,2.647,2.647,0,0,1-.422,1.983,4.829,4.829,0,0,1-1.271,1.244C-3156.207,1592.55-3156.807,1592.865-3156.764,1592.944Z" transform="translate(3156.766 -1583.864)" fill="#375a64"/>
      </g>
    </g>
    <g id="Grupo_138755" data-name="Grupo 138755" transform="translate(68.435 39.845)">
      <g id="Grupo_138754" data-name="Grupo 138754" transform="translate(0)">
        <path id="Trazado_195132" data-name="Trazado 195132" d="M-3153.006,1587.321a3.248,3.248,0,0,1-.39-2.019,2.293,2.293,0,0,1,1.3-1.731,2.477,2.477,0,0,1,2.638.411l.346.325.09-.469a4.561,4.561,0,0,1,.628-1.628,2.087,2.087,0,0,1,1.379-.985c.881-.121,1.871.7,1.631,1.428l.521.105a4.213,4.213,0,0,1,1.513-2.752,4.112,4.112,0,0,1,2.366-.908,6.364,6.364,0,0,1,2.313.416c.014-.022-.159-.177-.543-.363a4.173,4.173,0,0,0-1.78-.39,4.326,4.326,0,0,0-2.642.885,4.6,4.6,0,0,0-1.758,3.052l.522.1a1.552,1.552,0,0,0-.548-1.6,2.2,2.2,0,0,0-1.66-.524,2.589,2.589,0,0,0-1.77,1.236,4.94,4.94,0,0,0-.686,1.833l.436-.142a2.911,2.911,0,0,0-3.184-.431,2.607,2.607,0,0,0-1.431,2.086,2.665,2.665,0,0,0,.32,1.62C-3153.2,1587.212-3153.022,1587.336-3153.006,1587.321Z" transform="translate(3153.731 -1578.76)" fill="#375a64"/>
      </g>
    </g>
  </g>
  <g id="Grupo_138757" data-name="Grupo 138757" transform="translate(161.255 154.257)">
    <path id="Trazado_195133" data-name="Trazado 195133" d="M-3195.7,1770.14l-16.108-6.659a216.969,216.969,0,0,1,9.646-39.69c5.793-16.009,15.305-23.208,18.284-25.146l.058-.19,4.8-2.906,20.694-13.318c-3.639,16.543,25.973,33.519,51.163-2.007l41.634,16.835-10.893,117.9,10.326,52.154-104.161-.3-.015,1-22.161-.21,4.744-23.145c-2.067-22.258-8.691-49.284-7.92-67.141C-3195.717,1775.073-3195.74,1772.664-3195.7,1770.14Z" transform="translate(3211.807 -1680.224)" fill="#0f2771"/>
  </g>
  <g id="Grupo_138768" data-name="Grupo 138768" transform="translate(176.684 205.395)">
    <g id="Grupo_138764" data-name="Grupo 138764" transform="translate(0)">
      <g id="Grupo_138763" data-name="Grupo 138763">
        <g id="Grupo_138762" data-name="Grupo 138762">
          <g id="Grupo_138761" data-name="Grupo 138761">
            <g id="Grupo_138760" data-name="Grupo 138760">
              <g id="Grupo_138759" data-name="Grupo 138759">
                <g id="Grupo_138758" data-name="Grupo 138758">
                  <path id="Trazado_195134" data-name="Trazado 195134" d="M-3088.559,1813.465a5.371,5.371,0,0,1-.249-.839q-.228-.907-.609-2.431c-.266-1.054-.572-2.351-.87-3.869s-.693-3.235-1-5.157c-.337-1.918-.7-4.021-.985-6.292-.345-2.264-.58-4.7-.854-7.26-.463-5.128-.774-10.785-.78-16.73.028-5.945.361-11.6.842-16.73.284-2.559.529-4.994.882-7.257.3-2.271.664-4.372,1.009-6.288.312-1.922.706-3.639,1.016-5.154s.614-2.811.885-3.865q.388-1.523.618-2.428a5.135,5.135,0,0,1,.253-.838,5.256,5.256,0,0,1-.143.864q-.193.915-.516,2.45c-.237,1.06-.516,2.36-.791,3.879s-.647,3.237-.933,5.158c-.319,1.917-.663,4.016-.94,6.283-.333,2.26-.559,4.69-.827,7.244-.453,5.115-.769,10.755-.8,16.682.005,5.926.3,11.566.733,16.682.26,2.554.476,4.985.8,7.245.269,2.269.6,4.37.917,6.286.279,1.923.639,3.644.914,5.162s.543,2.822.776,3.884l.507,2.453A5.065,5.065,0,0,1-3088.559,1813.465Z" transform="translate(3093.903 -1728.327)" fill="#1a2e35"/>
                </g>
              </g>
            </g>
          </g>
        </g>
      </g>
    </g>
    <g id="Grupo_138767" data-name="Grupo 138767" transform="translate(3.961 84.298)">
      <g id="Grupo_138766" data-name="Grupo 138766">
        <g id="Grupo_138765" data-name="Grupo 138765">
          <path id="Trazado_195135" data-name="Trazado 195135" d="M-3095.762,1807.622a2.074,2.074,0,0,0,.059.537c.074.409.165.909.274,1.514.26,1.31.6,3.212,1.008,5.562a114.175,114.175,0,0,1,1.7,18.522,86.361,86.361,0,0,1-.623,10.217,80.1,80.1,0,0,1-1.511,8.224c-.246,1.166-.564,2.2-.8,3.114s-.479,1.7-.679,2.333c-.174.589-.319,1.076-.438,1.474a1.948,1.948,0,0,0-.117.526,1.958,1.958,0,0,0,.222-.49c.146-.389.323-.866.538-1.444.233-.627.507-1.4.771-2.312s.615-1.94.886-3.107a72.157,72.157,0,0,0,1.636-8.253,80.606,80.606,0,0,0,.672-10.282,102.338,102.338,0,0,0-1.87-18.591c-.454-2.348-.857-4.242-1.182-5.539l-.375-1.494A1.966,1.966,0,0,0-3095.762,1807.622Z" transform="translate(3096.897 -1807.622)" fill="#1a2e35"/>
        </g>
      </g>
    </g>
  </g>
  <g id="Grupo_138769" data-name="Grupo 138769" transform="translate(292.987 170.19)">
    <path id="Trazado_195136" data-name="Trazado 195136" d="M-3194.8,1778.774l-21.354-61.111s-5.643-18-22.565-22.451l-12.1,61.123,5.615,33.428Z" transform="translate(3250.82 -1695.212)" fill="#0f2771"/>
  </g>
  <g id="Grupo_138771" data-name="Grupo 138771" transform="translate(288.809 215.291)">
    <g id="Grupo_138770" data-name="Grupo 138770" transform="translate(0)">
      <path id="Trazado_195137" data-name="Trazado 195137" d="M-3203.4,1737.636a1.8,1.8,0,0,0,.013.514c.04.4.088.882.146,1.464.135,1.271.38,3.1.74,5.357.7,4.515,1.962,10.7,3.5,17.489s2.9,12.941,3.828,17.407c.449,2.169.817,3.955,1.094,5.289.125.571.23,1.044.315,1.435a1.875,1.875,0,0,0,.147.494,1.8,1.8,0,0,0-.038-.513c-.057-.4-.128-.876-.213-1.454-.19-1.263-.51-3.082-.92-5.327-.828-4.489-2.142-10.658-3.672-17.451s-2.855-12.946-3.651-17.434c-.41-2.241-.711-4.061-.913-5.321-.1-.575-.181-1.054-.249-1.448A1.838,1.838,0,0,0-3203.4,1737.636Z" transform="translate(3203.41 -1737.636)" fill="#1a2e35"/>
    </g>
  </g>
  <g id="Grupo_138773" data-name="Grupo 138773" transform="translate(210.189 156.878)">
    <g id="Grupo_138772" data-name="Grupo 138772" transform="translate(0)">
      <path id="Trazado_195138" data-name="Trazado 195138" d="M-3178.53,1685.783a4.656,4.656,0,0,0,.024.81c.022.265.025.6.083.981s.146.836.23,1.327c.122.491.275,1.034.449,1.628a17.187,17.187,0,0,0,.771,1.856,16.315,16.315,0,0,0,2.752,4.043,28.311,28.311,0,0,0,10.6,6.885,30.278,30.278,0,0,0,15.353,1.78,36.937,36.937,0,0,0,14.575-5.255,52.609,52.609,0,0,0,9.72-8.138,80.857,80.857,0,0,0,5.571-6.474c.615-.8,1.084-1.426,1.39-1.86a4.426,4.426,0,0,0,.448-.675,4.441,4.441,0,0,0-.536.607l-1.469,1.793c-1.287,1.547-3.161,3.778-5.685,6.336a53.868,53.868,0,0,1-9.709,7.979,36.93,36.93,0,0,1-14.377,5.139,30.076,30.076,0,0,1-15.092-1.705,28.362,28.362,0,0,1-10.5-6.675,16.274,16.274,0,0,1-2.763-3.917,17.535,17.535,0,0,1-.8-1.805c-.185-.578-.353-1.109-.488-1.59q-.154-.723-.276-1.3c-.075-.38-.095-.706-.136-.968A4.365,4.365,0,0,0-3178.53,1685.783Z" transform="translate(3178.54 -1682.689)" fill="#fafafa"/>
    </g>
  </g>
  <g id="Grupo_138775" data-name="Grupo 138775" transform="translate(291.416 230.536)" opacity="0.3">
    <g id="Grupo_138774" data-name="Grupo 138774" transform="translate(0)">
      <path id="Trazado_195139" data-name="Trazado 195139" d="M-3196.915,1818.961c-6.316-7.49-6.917-18.1-7.219-27.892-.383-12.394-.115-26.7-.5-39.094,2.3,10.985,5.763,27.855,7.476,34.207,0,0-.831,6.478-.878,9.015-.042,2.315.16,4.848-.057,7.153-.561,5.958-1.495,12.544,1.952,17.437" transform="translate(3204.632 -1751.975)"/>
    </g>
  </g>
  <g id="Grupo_138777" data-name="Grupo 138777" transform="translate(180.121 218.002)">
    <g id="Grupo_138776" data-name="Grupo 138776">
      <path id="Trazado_195140" data-name="Trazado 195140" d="M-3195.461,1740.187a1.067,1.067,0,0,0,.267.108l.8.263,3.1.959c1.346.419,3,.914,4.937,1.412s4.128,1.142,6.59,1.683c2.453.58,5.141,1.211,8.055,1.76,2.9.62,6.028,1.117,9.316,1.666,6.591,1,13.879,1.836,21.562,2.288,7.688.409,15.025.389,21.687.128,3.329-.183,6.494-.332,9.444-.632,2.958-.226,5.7-.562,8.2-.873,2.507-.27,4.753-.671,6.733-.965s3.676-.6,5.059-.88l3.184-.626.825-.177a1.108,1.108,0,0,0,.278-.079,1.189,1.189,0,0,0-.288.023l-.835.123-3.2.523c-1.386.243-3.084.529-5.068.787s-4.228.638-6.733.883c-2.5.286-5.238.6-8.19.8-2.946.281-6.1.412-9.427.581-6.648.233-13.967.237-21.635-.171-7.664-.451-14.936-1.271-21.515-2.239-3.283-.534-6.408-1.013-9.305-1.613-2.912-.527-5.6-1.135-8.055-1.69-2.463-.516-4.657-1.124-6.6-1.6s-3.6-.934-4.956-1.321l-3.128-.859-.817-.209A1.176,1.176,0,0,0-3195.461,1740.187Z" transform="translate(3195.461 -1740.185)" fill="#fafafa"/>
    </g>
  </g>
  <g id="Grupo_138779" data-name="Grupo 138779" transform="translate(168.566 204.789)">
    <g id="Grupo_138778" data-name="Grupo 138778" transform="translate(0)">
      <path id="Trazado_195141" data-name="Trazado 195141" d="M-3092.036,1727.764a42.379,42.379,0,0,0,5.675,3.828,42.549,42.549,0,0,0,5.965,3.358,42.508,42.508,0,0,0-5.675-3.829A42.508,42.508,0,0,0-3092.036,1727.764Z" transform="translate(3092.038 -1727.756)" fill="#fafafa"/>
    </g>
  </g>
  <g id="Grupo_138781" data-name="Grupo 138781" transform="translate(289.943 209.703)">
    <g id="Grupo_138780" data-name="Grupo 138780" transform="translate(0)">
      <path id="Trazado_195142" data-name="Trazado 195142" d="M-3236.216,1743.813a11.086,11.086,0,0,0,1.776-.1c1.141-.092,2.788-.28,4.816-.555a135.562,135.562,0,0,0,15.684-3.132,135.481,135.481,0,0,0,15.2-4.975c1.9-.756,3.428-1.4,4.467-1.882a10.99,10.99,0,0,0,1.6-.788,10.9,10.9,0,0,0-1.679.589c-1.063.418-2.609,1.008-4.523,1.715-3.83,1.415-9.179,3.22-15.2,4.8s-11.57,2.632-15.6,3.281c-2.016.324-3.65.57-4.783.728A10.927,10.927,0,0,0-3236.216,1743.813Z" transform="translate(3236.216 -1732.38)" fill="#fafafa"/>
    </g>
  </g>
  <g id="Grupo_138791" data-name="Grupo 138791" transform="translate(189.008 255.103)">
    <g id="Grupo_138790" data-name="Grupo 138790" transform="translate(0 41.994)">
      <g id="Grupo_138783" data-name="Grupo 138783">
        <g id="Grupo_138782" data-name="Grupo 138782">
          <path id="Trazado_195143" data-name="Trazado 195143" d="M-3102.838,1822.243l-16.195.335s-24.285-8.775-29.278-7.936c-4.5.755-20.961,11.693-24.188,13.858a2.046,2.046,0,0,0-.78.995h0a3.53,3.53,0,0,0,1.964,4.487l.34.141-.147.49a5.843,5.843,0,0,0-.247,1.964,2.373,2.373,0,0,0,4.411,1.026l-.621,1.1a2.69,2.69,0,0,0-.343,1.475l.055,1a2.7,2.7,0,0,0,1.86,2.418h0a2.688,2.688,0,0,0,2.827-.742c2.088-2.3,6.6-6.9,9.65-7.405a71.654,71.654,0,0,1,9.967-.5,3.379,3.379,0,0,1,3.133,2.157h0c-1.811.13-14.429,6.71-18.894,9.065a4.777,4.777,0,0,0-2.6,3.594c-.163,1.4.543,2.862,3.308,2.216,5.933-1.385,16.609-6.294,16.609-6.294s5.507-1.573,9.074.944c5.019,3.54,7.318,4.839,11.629,3.409a36.5,36.5,0,0,0,7.487-3.479l15.571.907S-3090.141,1833.363-3102.838,1822.243Z" transform="translate(3173.498 -1814.585)" fill="#b78876"/>
        </g>
      </g>
      <g id="Grupo_138786" data-name="Grupo 138786" transform="translate(6.268 11.044)">
        <g id="Grupo_138785" data-name="Grupo 138785">
          <g id="Grupo_138784" data-name="Grupo 138784">
            <path id="Trazado_195144" data-name="Trazado 195144" d="M-3104.614,1826.022c-.02.093-1.723-.454-4.562-.634a24.075,24.075,0,0,0-10.816,1.837,24.1,24.1,0,0,0-8.812,6.539c-1.835,2.174-2.618,3.78-2.7,3.731a5.591,5.591,0,0,1,.54-1.123,20.566,20.566,0,0,1,1.91-2.814,23.141,23.141,0,0,1,8.882-6.755,23.129,23.129,0,0,1,11.02-1.738,20.5,20.5,0,0,1,3.353.569A5.482,5.482,0,0,1-3104.614,1826.022Z" transform="translate(3131.505 -1824.973)" fill="#aa6550"/>
          </g>
        </g>
      </g>
      <g id="Grupo_138789" data-name="Grupo 138789" transform="translate(2.522 5.012)">
        <g id="Grupo_138788" data-name="Grupo 138788">
          <g id="Grupo_138787" data-name="Grupo 138787">
            <path id="Trazado_195145" data-name="Trazado 195145" d="M-3101.02,1820.482a19.891,19.891,0,0,0-4.749-.828,20.716,20.716,0,0,0-11.045,3.127,44.488,44.488,0,0,0-8.9,7.53l-2.44,2.592a7.15,7.15,0,0,1-.931.921,7.158,7.158,0,0,1,.8-1.039c.537-.647,1.326-1.575,2.335-2.694a40.846,40.846,0,0,1,8.9-7.7,20.193,20.193,0,0,1,11.294-3.059,13.491,13.491,0,0,1,3.524.645,8.059,8.059,0,0,1,.909.349C-3101.118,1820.414-3101.014,1820.468-3101.02,1820.482Z" transform="translate(3129.086 -1819.299)" fill="#aa6550"/>
          </g>
        </g>
      </g>
    </g>
    <path id="Trazado_195146" data-name="Trazado 195146" d="M-3155.389,1775.084c0-.106,8.425,37.88,9.521,44.559,1.282,7.808,3.416,26.8-13.991,30.5s-89.658-1.084-89.658-1.084l-5.22-23.988,66.194-9.4-7.23-31.782Z" transform="translate(3309.202 -1775.084)" fill="#b78876"/>
  </g>
  <g id="Grupo_138912" data-name="Grupo 138912" transform="translate(32.939 231.254)">
    <g id="Grupo_138908" data-name="Grupo 138908" transform="translate(0 0.059)">
      <g id="Grupo_138906" data-name="Grupo 138906">
        <path id="Trazado_195218" data-name="Trazado 195218" d="M-3091.8,1863.118h148.244l-19.129-104.041a7.774,7.774,0,0,0-7.647-6.37h-133.2a7.775,7.775,0,0,0-7.637,9.238Z" transform="translate(3111.309 -1752.707)" fill="#375a64"/>
      </g>
      <g id="Grupo_138907" data-name="Grupo 138907" transform="translate(166.212 102.992)">
        <path id="Trazado_195219" data-name="Trazado 195219" d="M-3162.655,1857.005h56.229l-.226-.17a30.4,30.4,0,0,0-17.338-6.067l-40.209-1.182Z" transform="translate(3164.2 -1849.586)" fill="#375a64"/>
      </g>
    </g>
    <g id="Grupo_138910" data-name="Grupo 138910" transform="translate(132.151)">
      <g id="Grupo_138909" data-name="Grupo 138909" transform="translate(0)">
        <path id="Trazado_195220" data-name="Trazado 195220" d="M-3106.257,1752.853c.007.037.413-.076,1.2-.083a7.366,7.366,0,0,1,3.292.818,10.14,10.14,0,0,1,3.952,3.594,19.121,19.121,0,0,1,2.421,6.725c.484,2.631.909,5.554,1.434,8.671s1.108,6.447,1.764,9.941c1.292,6.993,2.823,14.659,4.487,22.693,3.348,16.068,6.445,30.595,8.472,41.154,1.019,5.277,1.806,9.555,2.339,12.514.264,1.449.471,2.589.62,3.406l.174.883a1.3,1.3,0,0,0,.079.3,1.25,1.25,0,0,0-.022-.307c-.031-.232-.071-.526-.121-.893-.123-.822-.3-1.968-.517-3.423-.468-2.971-1.2-7.262-2.167-12.552-1.928-10.582-4.968-25.128-8.314-41.193-1.664-8.031-3.21-15.69-4.527-22.674-.669-3.49-1.256-6.814-1.812-9.925s-.99-6.017-1.5-8.669a19.229,19.229,0,0,0-2.545-6.817,10.273,10.273,0,0,0-4.117-3.621,7.215,7.215,0,0,0-3.388-.735A4.342,4.342,0,0,0-3106.257,1752.853Z" transform="translate(3106.257 -1752.651)" fill="#1a2e35"/>
      </g>
    </g>
    <g id="Grupo_138911" data-name="Grupo 138911" transform="translate(69.543 45.757)">
      <path id="Trazado_195221" data-name="Trazado 195221" d="M-3032.409,1802.858a7.167,7.167,0,0,0,7.167,7.167,7.168,7.168,0,0,0,7.168-7.167,7.167,7.167,0,0,0-7.168-7.166A7.167,7.167,0,0,0-3032.409,1802.858Z" transform="translate(3032.409 -1795.692)" fill="#f5f5f5"/>
    </g>
  </g>
  <g id="Grupo_138914" data-name="Grupo 138914" transform="translate(11.365 341.448)">
    <g id="Grupo_138913" data-name="Grupo 138913">
      <path id="Trazado_195222" data-name="Trazado 195222" d="M-3298.782,1856.581c0,.152,87.006.277,194.308.277,107.34,0,194.327-.124,194.327-.277s-86.987-.277-194.327-.277C-3211.776,1856.3-3298.782,1856.428-3298.782,1856.581Z" transform="translate(3298.782 -1856.304)" fill="#1a2e35"/>
    </g>
  </g>
</svg>
