<svg xmlns="http://www.w3.org/2000/svg" width="1240" height="584" viewBox="0 0 1240 584">
  <g id="Grupo_172802" data-name="Grupo 172802" transform="translate(-180 -13503)">
    <rect id="Rectángulo_45058" data-name="Rectángulo 45058" width="1240" height="584" transform="translate(180 13503)" fill="none"/>
    <text id="Principios_datos_abiertos" data-name="Principios datos abiertos" transform="translate(800 13553)" fill="#12263f" font-size="32" font-family="Roboto-Black, Roboto" font-weight="800"><tspan x="-180.594" y="0">Principios datos abiertos</tspan></text>
    <text id="Los_datos_abiertos_son_relevantes_solo_si_aportan_valor_para_el_usuario_de_la_información." data-name="Los datos abiertos son relevantes solo si aportan valor para el usuario de la información." transform="translate(586 13992.371)" fill="#161615" font-size="16" font-family="Roboto-Regular, Roboto"><tspan x="31.182" y="17">Los datos abiertos son </tspan><tspan x="1.572" y="36.2">relevantes solo si aportan valor </tspan><tspan x="41.053" y="55.4">para el usuario de la </tspan><tspan x="67.471" y="74.6">información.</tspan></text>
    <text id="Oportunos_y_completos" data-name="Oportunos y completos" transform="translate(698 13974.578)" fill="#040506" font-size="18" font-family="Roboto-Black, Roboto" font-weight="800"><tspan x="-94.557" y="0">Oportunos y completos</tspan></text>
    <text id="La_información_estará_abierta_para_consulta_ciudadana_desde_el_momento_de_su_generación." data-name="La información estará abierta para consulta ciudadana desde el momento de su generación." transform="translate(180 13992.371)" fill="#161615" font-size="16" font-family="Roboto-Regular, Roboto"><tspan x="7.705" y="17">La información estará abierta </tspan><tspan x="1.502" y="36.2">para consulta ciudadana desde </tspan><tspan x="5.233" y="55.4">el momento de su generación.</tspan></text>
    <text id="Abiertos_por_defecto" data-name="Abiertos por defecto" transform="translate(292 13974.578)" fill="#040506" font-size="18" font-family="Roboto-Black, Roboto" font-weight="800"><tspan x="-83.646" y="0">Abiertos por defecto</tspan></text>
    <text id="Son_gratuitos_y_bajo_licencia_abierta_facilitando_los_datos_a_la_mayor_cantidad_de_usuarios_y_máquinas." data-name="Son gratuitos y bajo licencia abierta, facilitando los datos a la mayor cantidad de usuarios y máquinas." transform="translate(992 13992.371)" fill="#161615" font-size="16" font-family="Roboto-Regular, Roboto"><tspan x="12.924" y="17">Son gratuitos y bajo licencia </tspan><tspan x="5.408" y="36.2">abierta, facilitando los datos a </tspan><tspan x="5.549" y="55.4">la mayor cantidad de usuarios </tspan><tspan x="69.424" y="74.6">y máquinas.</tspan></text>
    <text id="Accesibles_y_utilizables" data-name="Accesibles y utilizables" transform="translate(1104 13974.578)" fill="#040506" font-size="18" font-family="Roboto-Black, Roboto" font-weight="800"><tspan x="-95.708" y="0">Accesibles y utilizables</tspan></text>
    <text id="Publicar_los_datos_fortalece_la_gobernanza_y_favorece_la_transparencia_y_participación_ciudadana." data-name="Publicar los datos fortalece la gobernanza y favorece la transparencia y participación ciudadana." transform="translate(789 13650.393)" fill="#161615" font-size="16" font-family="Roboto-Regular, Roboto"><tspan x="6.631" y="17">Publicar los datos fortalece la </tspan><tspan x="23.627" y="36.2">gobernanza y favorece la </tspan><tspan x="9.596" y="55.4">transparencia y participación </tspan><tspan x="73.311" y="74.6">ciudadana.</tspan></text>
    <text id="Mejorar_la_gobernanza_y_participación" data-name="Mejorar la gobernanza
y participación" transform="translate(901 13611)" fill="#040506" font-size="18" font-family="Roboto-Black, Roboto" font-weight="800"><tspan x="-91.415" y="0">Mejorar la gobernanza</tspan><tspan x="-60.214" y="21.6">y participación</tspan></text>
    <text id="Los_datos_pueden_ser_comparados_desde_distintos_sectores_territorios_y_periodos_de_tiempo." data-name="Los datos pueden ser comparados desde distintos sectores, territorios y periodos de tiempo." transform="translate(393 13650.393)" fill="#161615" font-size="16" font-family="Roboto-Regular, Roboto"><tspan x="36.057" y="17">Los datos pueden ser </tspan><tspan x="11.389" y="36.2">comparados desde distintos </tspan><tspan x="4.654" y="55.4">sectores, territorios y periodos </tspan><tspan x="74.756" y="74.6">de tiempo.</tspan></text>
    <text id="Comparables_e_interoperables" data-name="Comparables e interoperables" transform="translate(505 13632.6)" fill="#040506" font-size="18" font-family="Roboto-Black, Roboto" font-weight="800"><tspan x="-121.961" y="0">Comparables e interoperables</tspan></text>
    <text id="Permiten_la_construcción_de_nuevo_conocimiento_que_puede_ser_usado_en_la_generación_de_valor_social_y_económico." data-name="Permiten la construcción de nuevo conocimiento que puede ser usado en la generación de valor social y económico." transform="translate(1195 13650.393)" fill="#161615" font-size="16" font-family="Roboto-Regular, Roboto"><tspan x="12.94" y="17">Permiten la construcción de </tspan><tspan x="1.475" y="36.2">nuevo conocimiento que puede </tspan><tspan x="6.432" y="55.4">ser usado en la generación de </tspan><tspan x="22.459" y="74.6">valor social y económico.</tspan></text>
    <text id="Apoyar_el_desarrollo_y_la_innovación" data-name="Apoyar el desarrollo y
la innovación" transform="translate(1308 13611)" fill="#040506" font-size="18" font-family="Roboto-Black, Roboto" font-weight="800"><tspan x="-88.928" y="0">Apoyar el desarrollo y</tspan><tspan x="-53.745" y="21.6">la innovación</tspan></text>
    <path id="Trazado_221987" data-name="Trazado 221987" d="M1373.075,481.07c-3.3-41.375-36.968-74.8-78.364-77.832a84.693,84.693,0,0,0-62.076,20.629,37.532,37.532,0,0,1-39.947,5.72h0a38.244,38.244,0,0,1-22.379-34.326q-.053-2.365-.236-4.756c-3.21-41.788-37.391-75.49-79.217-78.152a85.1,85.1,0,0,0-90.536,84.83v.219a34.159,34.159,0,0,1-20.209,31.224l-4.515,2.019c-12.022,5.379-26.282,3.518-36-5.368a85.286,85.286,0,0,0-21.47-14.326c-.084-.039-.165-.081-.249-.119-.874-.4-1.76-.789-2.651-1.165-.336-.142-.671-.289-1.01-.428-.7-.283-1.4-.549-2.1-.814-.548-.207-1.095-.414-1.648-.61s-1.1-.374-1.649-.555c-.724-.24-1.449-.474-2.181-.694-.426-.127-.855-.248-1.283-.369q-1.293-.366-2.6-.694c-.342-.085-.685-.165-1.028-.245q-1.43-.338-2.876-.626c-.3-.061-.612-.118-.918-.175q-1.479-.277-2.972-.5c-.326-.049-.653-.1-.979-.14q-1.426-.2-2.865-.344-.621-.064-1.243-.12c-.393-.034-.781-.085-1.175-.114s-.807-.033-1.211-.057q-1.074-.066-2.153-.1c-.673-.023-1.345-.041-2.014-.048-.341,0-.677-.024-1.018-.024-.457,0-.907.024-1.363.031-.585.009-1.17.019-1.753.041-.865.031-1.724.082-2.583.139-.509.034-1.019.063-1.526.107-.966.081-1.924.187-2.88.3-.4.047-.791.086-1.184.138-1.176.157-2.342.343-3.5.547-.168.03-.339.052-.507.083a84.161,84.161,0,0,0-12.094,3.153l-.043.016q-1.91.652-3.775,1.4c-.1.039-.2.081-.3.122q-1.743.7-3.447,1.47c-.128.058-.255.119-.383.178q-1.672.768-3.3,1.6l-.347.18q-1.663.864-3.283,1.8c-.08.046-.161.092-.24.139q-1.7.987-3.352,2.049l-.051.032a85.489,85.489,0,0,0-10.061,7.568c-.432.378-.882.726-1.327,1.081a37.582,37.582,0,0,1-38.325,4.41h0a38.244,38.244,0,0,1-22.379-34.326q-.054-2.365-.236-4.756a84.6,84.6,0,0,0-24.468-53.069l-.039-.041q-1.191-1.2-2.43-2.348c-.1-.1-.206-.2-.311-.294-.742-.684-1.5-1.35-2.265-2.008-.2-.17-.39-.342-.589-.51-.687-.58-1.388-1.143-2.092-1.7-.29-.23-.577-.463-.87-.689-.632-.488-1.276-.96-1.922-1.43-.379-.276-.756-.556-1.139-.826-.581-.408-1.173-.8-1.764-1.2-.462-.308-.922-.619-1.39-.919-.538-.343-1.084-.673-1.629-1s-1.068-.651-1.61-.965c-.5-.29-1.013-.569-1.522-.849-.6-.329-1.191-.657-1.794-.972-.48-.249-.965-.486-1.449-.726-.645-.321-1.291-.64-1.946-.945-.462-.215-.93-.419-1.4-.625-.686-.3-1.372-.606-2.067-.892-.459-.189-.922-.367-1.385-.548-.709-.277-1.419-.552-2.137-.811-.472-.169-.947-.327-1.422-.489-.718-.244-1.437-.485-2.163-.71-.491-.152-.988-.293-1.483-.437-.716-.207-1.433-.412-2.157-.6-.526-.137-1.056-.262-1.585-.389-.7-.168-1.4-.334-2.1-.484-.569-.121-1.143-.229-1.716-.338-.674-.129-1.347-.257-2.026-.369-.62-.1-1.243-.191-1.867-.28s-1.275-.181-1.916-.258c-.677-.08-1.357-.144-2.038-.209-.4-.037-.8-.091-1.2-.123-.173-.014-.344-.014-.518-.027-.27-.019-.535-.053-.8-.07-.693-.044-1.376-.049-2.065-.077-.662-.026-1.326-.062-1.984-.074-.892-.015-1.776,0-2.66.013-.69.009-1.382.006-2.067.032-.822.031-1.636.094-2.451.148-.738.049-1.48.084-2.213.152-.7.065-1.393.161-2.089.243-.833.1-1.669.182-2.495.3-.337.049-.667.119-1,.173a84.214,84.214,0,0,0-11.457,2.656c-.14.043-.282.078-.421.121-1.142.358-2.266.753-3.387,1.157-.259.093-.522.176-.78.272-1.078.4-2.14.835-3.2,1.277-.286.121-.577.231-.862.354-1.045.452-2.074.934-3.1,1.425-.281.135-.566.263-.845.4-1.018.5-2.02,1.034-3.015,1.576-.271.148-.545.291-.814.442-.995.556-1.974,1.138-2.944,1.732-.252.155-.506.306-.756.463q-1.465.921-2.888,1.9c-.226.156-.454.31-.679.467q-1.441,1.01-2.837,2.077-.294.223-.587.451-1.422,1.1-2.795,2.266l-.479.41q-1.407,1.209-2.761,2.475l-.351.333q-1.4,1.328-2.739,2.712c-.068.07-.133.141-.2.211q-1.4,1.461-2.73,2.985l-.025.029A84.617,84.617,0,0,0,594.3,397.443,34.156,34.156,0,0,1,574.1,428.626l-4.516,2.019c-12.021,5.379-26.281,3.518-36-5.368A84.832,84.832,0,0,0,420.309,424.1a36.461,36.461,0,0,1-38.935,5.827l-.628-.281a38.289,38.289,0,0,1-22.5-34.378q-.047-2.111-.2-4.243c-2.942-41.5-36.426-75.288-77.9-78.571a85.1,85.1,0,0,0-91.615,91.663c3.3,41.374,36.96,74.8,78.355,77.839a84.689,84.689,0,0,0,62.088-20.629,37.535,37.535,0,0,1,39.947-5.719,38.246,38.246,0,0,1,22.38,34.325,87.74,87.74,0,0,0,.656,8.931,85.012,85.012,0,0,0,169.33-10.852v-.219A34.154,34.154,0,0,1,581.5,456.566l4.515-2.02c12.022-5.378,26.282-3.518,36,5.368a85.3,85.3,0,0,0,21.458,14.321c.085.04.168.082.254.121.879.407,1.769.793,2.664,1.17.33.141.658.284.99.42.7.286,1.412.555,2.123.823.543.2,1.087.411,1.636.6s1.1.376,1.658.558c.719.238,1.44.471,2.167.69.432.129.866.251,1.3.374q1.285.365,2.585.691c.345.085.693.166,1.04.248q1.423.334,2.862.623c.31.061.62.119.931.177q1.476.276,2.968.5c.324.049.648.1.974.14q1.425.2,2.865.344.623.064,1.249.12c.389.035.773.084,1.164.113s.806.034,1.21.058q1.078.066,2.165.1,1,.036,2,.048c.343,0,.683.025,1.027.025.464,0,.922-.024,1.384-.032.565-.009,1.13-.018,1.692-.038.884-.032,1.763-.084,2.64-.142.486-.033.974-.06,1.457-.1,1.008-.085,2.008-.2,3.005-.315.347-.042.7-.074,1.042-.12a84.478,84.478,0,0,0,12.161-2.533l.192-.059q1.861-.538,3.687-1.16c.159-.054.315-.112.472-.167q1.692-.585,3.352-1.239c.178-.07.354-.144.531-.215q1.64-.66,3.245-1.384c.16-.072.319-.145.479-.219q1.654-.759,3.272-1.588c.107-.055.214-.108.32-.164q1.752-.906,3.456-1.89l.021-.012a85.376,85.376,0,0,0,12.948-9.175,37.8,37.8,0,0,1,62.653,28.295,87.74,87.74,0,0,0,.656,8.931c.09.729.255,1.434.364,2.157q.192,1.24.418,2.47.546,2.991,1.306,5.9c.052.2.1.4.156.6a85.388,85.388,0,0,0,49.221,56.374c.116.049.229.1.345.15q1.925.8,3.891,1.507c1.11.4,2.229.783,3.359,1.138q1.382.43,2.779.816,2.31.637,4.669,1.149c.668.142,1.34.27,2.014.4,1.849.351,3.714.649,5.6.876.147.017.289.051.436.068.437.049.868.068,1.3.11.532.053,1.06.122,1.6.164.287.023.57.024.857.044.882.061,1.761.1,2.638.136.742.029,1.483.057,2.222.067.826.011,1.648,0,2.469-.011.777-.012,1.552-.024,2.323-.056s1.529-.085,2.29-.138c.816-.056,1.63-.112,2.44-.191.7-.069,1.387-.157,2.079-.243.86-.1,1.721-.211,2.573-.342.624-.1,1.241-.212,1.86-.322.905-.16,1.81-.321,2.705-.51.543-.114,1.079-.247,1.619-.373.957-.221,1.913-.445,2.858-.7.452-.121.9-.259,1.346-.388,1.017-.291,2.032-.587,3.032-.915.348-.114.689-.243,1.035-.361,1.089-.372,2.173-.753,3.241-1.168.222-.086.438-.183.658-.27,1.181-.471,2.353-.956,3.506-1.477.065-.029.127-.061.191-.091A85.087,85.087,0,0,0,967.3,487.743a34.156,34.156,0,0,1,20.208-31.177l4.515-2.02c12.022-5.378,26.282-3.518,36,5.368a84.83,84.83,0,0,0,112.652,1.72,37.986,37.986,0,0,1,40.3-6.03h0a38.247,38.247,0,0,1,22.38,34.326q.052,2.376.237,4.778c3.181,41.271,36.579,74.754,77.842,78.028A85.1,85.1,0,0,0,1373.075,481.07Z" transform="translate(19.187 13379.526)" fill="#feca2e"/>
    <circle id="Elipse_5321" data-name="Elipse 5321" cx="62.816" cy="62.816" r="62.816" transform="translate(224.744 13834.224) rotate(-85.348)" fill="#fff"/>
    <line id="Línea_421" data-name="Línea 421" y1="24.332" transform="translate(495.472 13738.601)" fill="none" stroke="#242525" stroke-linecap="round" stroke-miterlimit="10" stroke-width="2" stroke-dasharray="0 4"/>
    <line id="Línea_422" data-name="Línea 422" y1="24.332" transform="translate(901.521 13738.601)" fill="none" stroke="#242525" stroke-linecap="round" stroke-miterlimit="10" stroke-width="2" stroke-dasharray="0 4"/>
    <line id="Línea_423" data-name="Línea 423" y1="24.332" transform="translate(1307.569 13738.601)" fill="none" stroke="#242525" stroke-linecap="round" stroke-miterlimit="10" stroke-width="2" stroke-dasharray="0 4"/>
    <line id="Línea_424" data-name="Línea 424" y2="24.332" transform="translate(292.448 13881.308)" fill="none" stroke="#242525" stroke-linecap="round" stroke-miterlimit="10" stroke-width="2" stroke-dasharray="0 4"/>
    <line id="Línea_425" data-name="Línea 425" y2="24.332" transform="translate(698.497 13881.308)" fill="none" stroke="#242525" stroke-linecap="round" stroke-miterlimit="10" stroke-width="2" stroke-dasharray="0 4"/>
    <line id="Línea_426" data-name="Línea 426" y2="24.332" transform="translate(1104.545 13881.308)" fill="none" stroke="#242525" stroke-linecap="round" stroke-miterlimit="10" stroke-width="2" stroke-dasharray="0 4"/>
    <circle id="Elipse_5322" data-name="Elipse 5322" cx="62.816" cy="62.816" r="62.816" transform="translate(432.656 13804.718)" fill="#fff"/>
    <circle id="Elipse_5323" data-name="Elipse 5323" cx="62.816" cy="62.816" r="62.816" transform="translate(626.339 13828.524) rotate(-80.682)" fill="#fff"/>
    <circle id="Elipse_5324" data-name="Elipse 5324" cx="62.816" cy="62.816" r="62.816" transform="translate(1032.37 13828.525) rotate(-80.682)" fill="#fff"/>
    <circle id="Elipse_5325" data-name="Elipse 5325" cx="62.816" cy="62.816" r="62.816" transform="translate(838.705 13804.718)" fill="#fff"/>
    <circle id="Elipse_5326" data-name="Elipse 5326" cx="62.816" cy="62.816" r="62.816" transform="translate(1244.736 13804.718)" fill="#fff"/>
    <g id="Capa_1" data-name="Capa 1" transform="translate(19.187 13379.526)">
      <g id="Grupo_172734" data-name="Grupo 172734">
        <path id="Trazado_221988" data-name="Trazado 221988" d="M302.042,432.628c-2.187-.633-3.549-2.351-5.063-3.862q-7.832-7.815-15.65-15.643c-.863-.863-.933-1.252-.446-2.265l-3.8-3.8a24.987,24.987,0,0,1-6.277,3.208,24.983,24.983,0,0,1-27.2-7.663,24.032,24.032,0,0,1-5.509-12.347,1.924,1.924,0,0,0-.267-1.089V384.19a5.087,5.087,0,0,0,.376-1.771,24.54,24.54,0,0,1,14.784-18.649,23.289,23.289,0,0,1,13.974-1.619,24.5,24.5,0,0,1,17.623,12.579,24.771,24.771,0,0,1-1.2,25.892c-.1.151-.2.309-.262.417l3.781,3.786c1.041-.481,1.418-.414,2.272.44q8.829,8.829,17.655,17.663a5.554,5.554,0,0,1-.44,8.661,8.146,8.146,0,0,1-2.409,1.039Zm-17.207-45.1a22.111,22.111,0,1,0-22.657,21.254A22.137,22.137,0,0,0,284.835,387.531ZM301.188,421.4,287.88,408.091l-3.784,3.774,13.32,13.32Zm2.264,2.083-3.945,3.854c.539.538,1.077,1.107,1.647,1.641a2.746,2.746,0,1,0,3.862-3.9C304.482,424.5,303.922,423.958,303.452,423.48Zm-23.9-18.267,3.435,3.434,1.764-1.74-3.465-3.468Z" fill="#09090b"/>
        <path id="Trazado_221989" data-name="Trazado 221989" d="M262.734,406.021a19.357,19.357,0,0,1-17.392-27.9c.375-.8.969-1.183,1.584-1.08a1.4,1.4,0,0,1,1.054,2.044,27.359,27.359,0,0,0-1.18,3.078,16.6,16.6,0,0,0,12.651,20.765,16.656,16.656,0,0,0,17.188-7.231,16.381,16.381,0,0,0-.985-19.376,15.9,15.9,0,0,0-10.3-5.994,16.3,16.3,0,0,0-9.738,1.394,2.331,2.331,0,0,1-1.171.349,1.318,1.318,0,0,1-1.267-.984,1.258,1.258,0,0,1,.514-1.507,9.119,9.119,0,0,1,2.3-1.066c6.913-2.37,13.307-1.356,19.011,3.2a18.421,18.421,0,0,1,6.838,11.845,19.367,19.367,0,0,1-15.947,22.224c-.567.093-1.137.186-1.709.232C263.7,406.051,263.218,406.021,262.734,406.021Z" fill="#09090b"/>
        <path id="Trazado_221990" data-name="Trazado 221990" d="M261.334,390.28c1.12-1.13,2.153-2.179,3.193-3.221q2.613-2.622,5.235-5.235a1.793,1.793,0,0,1,1.233-.679,1.339,1.339,0,0,1,1.249.714,1.219,1.219,0,0,1-.025,1.37,4.2,4.2,0,0,1-.528.633q-4.5,4.5-9,9c-1.007,1.007-1.653,1.016-2.64.031q-3.183-3.176-6.362-6.358a1.5,1.5,0,0,1-.522-1.785c.449-1.008,1.559-1.132,2.445-.259,1.641,1.62,3.266,3.256,4.9,4.89C260.766,389.644,261.006,389.924,261.334,390.28Z" fill="#09090b"/>
        <path id="Trazado_221991" data-name="Trazado 221991" d="M250.015,375.333a1.378,1.378,0,0,1-1.388-1.392,1.416,1.416,0,0,1,1.426-1.372,1.38,1.38,0,0,1,1.337,1.375A1.346,1.346,0,0,1,250.015,375.333Z" fill="#09090b"/>
      </g>
      <g id="Grupo_172735" data-name="Grupo 172735">
        <path id="Trazado_221992" data-name="Trazado 221992" d="M511.718,520.166a5,5,0,0,1-2.969,3.046,4.75,4.75,0,0,1-5.222-1.369q-5.064-5.079-10.142-10.147c-.179-.179-.345-.37-.525-.565a18.12,18.12,0,0,1-24.879-7.046h-.741c-7.554,0-15.109-.039-22.664.025a3.668,3.668,0,0,1-3.724-3.719c.049-12.892.024-25.783.025-38.675a3.4,3.4,0,0,1,3.666-3.657c.92,0,1.84,0,2.814,0,0-.8-.03-1.542.007-2.278a3.348,3.348,0,0,1,2.267-3.09c.1-.041.237-.022.257-.177h25.231c3.186,3.006,6.213,6.171,9.327,9.249a1.785,1.785,0,0,1,.478,1.327q.01,2.6,0,5.2a1.545,1.545,0,0,1-.882,1.585c-.969.428-1.932-.294-1.957-1.51-.028-1.362-.007-2.724-.007-4.179-1.106,0-2.183.007-3.259,0a10.04,10.04,0,0,1-2.345-.1,4.2,4.2,0,0,1-3.279-4.24c-.018-1.5,0-2.993,0-4.554H451.334c-1.082,0-1.18.1-1.18,1.184q0,8.213,0,16.426a3.971,3.971,0,0,1-.03.691,1.388,1.388,0,0,1-1.418,1.245,1.348,1.348,0,0,1-1.343-1.312,6.215,6.215,0,0,1-.032-.76c0-3.95,0-7.9,0-11.926-1.006,0-1.992-.015-2.978.007a.683.683,0,0,0-.7.714c-.013.184,0,.37,0,.555v37.912c0,1.171.12,1.288,1.314,1.288h21.768l-.685-2.771h-.721q-7.14,0-14.278,0a3.38,3.38,0,0,1-3.7-3.557c-.054-3.3-.025-6.607-.008-9.911.005-1.011.579-1.636,1.4-1.636.843,0,1.412.67,1.414,1.707.007,3.235.013,6.469-.006,9.7,0,.656.26.925.9.924,4.9-.006,9.794,0,14.654,0,.685-9.391,5.261-15.774,14.58-17.884,6.928-1.569,12.919.768,17.505,6.2a17.9,17.9,0,0,1,1.733,20.4q2.316,2.313,4.647,4.642c1.813,1.813,3.614,3.639,5.445,5.434a8.933,8.933,0,0,1,2.111,2.837Zm-27.862-39.922a15.231,15.231,0,1,0,15.227,15.23A15.278,15.278,0,0,0,483.856,480.244Zm11.314,29.28,10.261,10.248.246.244a1.908,1.908,0,0,0,1.8.649,1.843,1.843,0,0,0,1.5-1.356,1.894,1.894,0,0,0-.6-2q-4.283-4.287-8.569-8.569c-.631-.631-1.259-1.266-1.922-1.934A23.379,23.379,0,0,1,495.17,509.524Zm-19.116-51.967c0,.8-.041,1.689.013,2.574a1.226,1.226,0,0,0,1.242,1.237c.882.052,1.771.012,2.586.012Z" fill="#09090a"/>
        <path id="Trazado_221993" data-name="Trazado 221993" d="M484.92,473.5a1.42,1.42,0,1,1-1.455-1.434A1.455,1.455,0,0,1,484.92,473.5Z" fill="#09090a"/>
        <path id="Trazado_221994" data-name="Trazado 221994" d="M448.7,480.657a1.367,1.367,0,0,1-1.344-1.378,1.39,1.39,0,0,1,1.412-1.391,1.456,1.456,0,0,1,1.371,1.391A1.427,1.427,0,0,1,448.7,480.657Z" fill="#09090a"/>
        <path id="Trazado_221995" data-name="Trazado 221995" d="M496.053,495.507a12.2,12.2,0,1,1-12.13-12.218A12.192,12.192,0,0,1,496.053,495.507Zm-12.21-9.441a9.423,9.423,0,1,0,9.433,9.413A9.505,9.505,0,0,0,483.843,486.066Z" fill="#09090a"/>
        <path id="Trazado_221996" data-name="Trazado 221996" d="M484.12,489.256a6.262,6.262,0,0,1,5.967,6,1.416,1.416,0,0,1-1.247,1.611,1.39,1.39,0,0,1-1.526-1.41,3.5,3.5,0,0,0-3.395-3.428c-.974-.116-1.5-.662-1.448-1.494A1.419,1.419,0,0,1,484.12,489.256Z" fill="#09090a"/>
      </g>
      <g id="Grupo_172736" data-name="Grupo 172736">
        <path id="Trazado_221997" data-name="Trazado 221997" d="M651.579,399.746c-.093-.233-.153-.421-.24-.6a7.591,7.591,0,0,1-.5-5.654,5.9,5.9,0,0,0-1.105-5.115,1.348,1.348,0,0,0-1.514-.671,1.321,1.321,0,0,0-.922,1.289,68.95,68.95,0,0,0-.448,14.622c.069.844.178,1.685.22,2.53a5.73,5.73,0,0,0,1.849,4.033c2.744,2.61,5.4,5.314,8.21,7.852a7.217,7.217,0,0,1,2.4,6.449c-.229,2.53-.4,5.065-.6,7.6-.02.253-.056.506-.1.756a1.4,1.4,0,0,1-1.48,1.306,1.432,1.432,0,0,1-1.253-1.627c.107-1.577.254-3.151.4-4.725.135-1.491.278-2.978.3-4.478a3.834,3.834,0,0,0-1.295-2.993c-2.665-2.529-5.238-5.158-7.967-7.615a10.084,10.084,0,0,1-3.331-7.139,78.676,78.676,0,0,1-.144-12.106,45.749,45.749,0,0,1,.632-5.373,3.724,3.724,0,0,1,2.918-3.061,3.767,3.767,0,0,1,4.031,1.329,8.85,8.85,0,0,1,1.78,8.33c-.471,1.722.388,3.056.972,4.5.061.15.206.175.347.2a5.139,5.139,0,0,1,2.659,1.545c1.332,1.265,2.7,2.487,4.028,3.76a2.184,2.184,0,0,0,1.422.628,10.94,10.94,0,0,1,10.133,10.678c.09,5.624.177,11.246.378,16.867.039,1.087-.528,1.711-1.445,1.67a1.219,1.219,0,0,1-1.251-1.044,7.888,7.888,0,0,1-.121-1.348c-.119-5.227-.333-10.455-.312-15.682a8.391,8.391,0,0,0-7.965-8.433,3.783,3.783,0,0,1-2.492-1.11c-1.5-1.415-3.027-2.8-4.525-4.223a2.059,2.059,0,0,0-1.924-.607.869.869,0,0,0-.76,1.172,2.883,2.883,0,0,0,.764,1.292q2.795,3.072,5.567,6.167a1.765,1.765,0,0,1,.565.92,1.33,1.33,0,0,1-.713,1.489,1.293,1.293,0,0,1-1.683-.329c-2.089-2.3-4.2-4.586-6.23-6.937A4.029,4.029,0,0,1,651.579,399.746Z" fill="#0c0c0e"/>
        <path id="Trazado_221998" data-name="Trazado 221998" d="M706.385,399.787a4.029,4.029,0,0,1,.649,6.16c-2.005,2.3-4.066,4.551-6.123,6.806a1.349,1.349,0,0,1-2.024.166,1.391,1.391,0,0,1,.013-2.036c1.843-2.067,3.7-4.117,5.557-6.175a4.5,4.5,0,0,0,.5-.575c.348-.556.762-1.2.2-1.767a1.556,1.556,0,0,0-1.892-.1,3.082,3.082,0,0,0-.659.52c-1.474,1.362-2.95,2.721-4.41,4.1a4.016,4.016,0,0,1-2.651,1.149,8.209,8.209,0,0,0-7.8,7.956c-.12,4.831-.206,9.662-.314,14.493-.021.932-.049,1.866-.129,2.794a1.28,1.28,0,0,1-1.41,1.253,1.334,1.334,0,0,1-1.315-1.372c-.019-.508,0-1.018.022-1.526.215-5.139.313-10.281.336-15.425a11.01,11.01,0,0,1,10.1-10.888,2.272,2.272,0,0,0,1.5-.656c1.446-1.389,2.935-2.735,4.4-4.106a3.818,3.818,0,0,1,1.883-1.079c.608-.108.8-.467,1.033-.936a6.559,6.559,0,0,0,.494-4.636,8.456,8.456,0,0,1,1.755-7.314,3.967,3.967,0,0,1,4.341-1.549,4.145,4.145,0,0,1,2.939,3.654,73,73,0,0,1,.505,14.708c-.1,1.294-.186,2.593-.372,3.876a8.161,8.161,0,0,1-2.546,4.842c-2.823,2.691-5.6,5.43-8.44,8.1a4.091,4.091,0,0,0-1.393,3.291c.074,2.77.469,5.513.63,8.274.013.225.062.449.072.674a1.485,1.485,0,0,1-1.205,1.675,1.342,1.342,0,0,1-1.529-1.332c-.233-3.543-.911-7.059-.646-10.633a5.657,5.657,0,0,1,1.955-3.722c2.591-2.484,5.082-5.081,7.787-7.433a8.517,8.517,0,0,0,2.844-6.411,80.942,80.942,0,0,0-.025-12.022c-.111-1.263-.295-2.52-.442-3.78a1.179,1.179,0,0,0-.9-1.1,1.277,1.277,0,0,0-1.4.569,5.848,5.848,0,0,0-1.208,5.172,7.743,7.743,0,0,1-.5,5.733,3.513,3.513,0,0,0-.159.391A1.247,1.247,0,0,0,706.385,399.787Z" fill="#0c0c0e"/>
        <path id="Trazado_221999" data-name="Trazado 221999" d="M680.319,359.83a18.329,18.329,0,1,1-18.342,18.916A18.321,18.321,0,0,1,680.319,359.83Zm-.059,33.879a15.568,15.568,0,1,0-15.524-15.834A15.515,15.515,0,0,0,680.26,393.709Z" fill="#0c0c0e"/>
        <path id="Trazado_222000" data-name="Trazado 222000" d="M673.337,403.99c.394,0,.791-.026,1.183.005a1.456,1.456,0,0,1,1.36,1.364,1.358,1.358,0,0,1-1.243,1.363,10.81,10.81,0,0,1-2.611,0,1.28,1.28,0,0,1-1.2-1.37,1.339,1.339,0,0,1,1.245-1.35,12.142,12.142,0,0,1,1.266-.008Z" fill="#0c0c0e"/>
        <path id="Trazado_222001" data-name="Trazado 222001" d="M680.512,403.994a12.427,12.427,0,0,1,1.266.007,1.362,1.362,0,0,1,1.26,1.344,1.3,1.3,0,0,1-1.2,1.375,10.767,10.767,0,0,1-2.612,0,1.356,1.356,0,0,1-1.248-1.357,1.45,1.45,0,0,1,1.352-1.37c.392-.033.788-.006,1.183-.006Z" fill="#0c0c0e"/>
        <path id="Trazado_222002" data-name="Trazado 222002" d="M654.754,370.036c-.394,0-.79.023-1.183-.005a1.448,1.448,0,0,1-1.372-1.348,1.344,1.344,0,0,1,1.31-1.378,20.55,20.55,0,0,1,2.531.01,1.265,1.265,0,0,1,1.218,1.349,1.346,1.346,0,0,1-1.237,1.36,12.445,12.445,0,0,1-1.267.008Z" fill="#0c0c0e"/>
        <path id="Trazado_222003" data-name="Trazado 222003" d="M647.491,370.033c-.4,0-.792.031-1.182-.007a1.348,1.348,0,0,1-1.264-1.417,1.276,1.276,0,0,1,1.27-1.3,21.359,21.359,0,0,1,2.53.008,1.332,1.332,0,0,1,1.257,1.341,1.44,1.44,0,0,1-1.261,1.367,13.21,13.21,0,0,1-1.35.008Z" fill="#0c0c0e"/>
        <path id="Trazado_222004" data-name="Trazado 222004" d="M709.991,379.46a11.862,11.862,0,0,1-.008,1.266,1.33,1.33,0,0,1-1.375,1.211,1.257,1.257,0,0,1-1.334-1.229,23.715,23.715,0,0,1,0-2.529,1.336,1.336,0,0,1,1.309-1.291,1.43,1.43,0,0,1,1.408,1.307c.037.419.006.843.006,1.265Z" fill="#0c0c0e"/>
        <path id="Trazado_222005" data-name="Trazado 222005" d="M649.8,372.188c0-.423-.03-.849.007-1.268a1.31,1.31,0,0,1,1.383-1.2,1.246,1.246,0,0,1,1.3,1.186,21.216,21.216,0,0,1,0,2.7,1.338,1.338,0,0,1-1.334,1.172,1.352,1.352,0,0,1-1.355-1.244C649.77,373.092,649.8,372.639,649.8,372.188Z" fill="#0c0c0e"/>
        <path id="Trazado_222006" data-name="Trazado 222006" d="M712.242,377.187c-.423,0-.847.023-1.267-.006a1.354,1.354,0,0,1-.111-2.7,21.382,21.382,0,0,1,2.7,0,1.325,1.325,0,0,1,1.169,1.419,1.278,1.278,0,0,1-1.227,1.269c-.419.036-.845.006-1.267.006Z" fill="#0c0c0e"/>
        <path id="Trazado_222007" data-name="Trazado 222007" d="M678.287,401.765c0,.422.024.847,0,1.268a1.333,1.333,0,0,1-1.4,1.274,1.307,1.307,0,0,1-1.3-1.28c-.031-.844-.034-1.692,0-2.536a1.343,1.343,0,0,1,1.346-1.25,1.373,1.373,0,0,1,1.35,1.256C678.312,400.917,678.286,401.342,678.287,401.765Z" fill="#0c0c0e"/>
        <path id="Trazado_222008" data-name="Trazado 222008" d="M707.259,372.2c0-.4-.025-.791.006-1.183a1.327,1.327,0,0,1,1.29-1.3,1.358,1.358,0,0,1,1.426,1.265,21.639,21.639,0,0,1,0,2.534,1.4,1.4,0,0,1-1.35,1.269,1.35,1.35,0,0,1-1.366-1.321C707.232,373.043,707.259,372.618,707.259,372.2Z" fill="#0c0c0e"/>
        <path id="Trazado_222009" data-name="Trazado 222009" d="M649.795,365.011c0-.394-.018-.788,0-1.18a1.307,1.307,0,0,1,1.374-1.285,1.285,1.285,0,0,1,1.327,1.244c.034.841.034,1.686,0,2.528a1.317,1.317,0,0,1-1.327,1.256,1.343,1.343,0,0,1-1.373-1.3C649.776,365.854,649.795,365.432,649.795,365.011Z" fill="#0c0c0e"/>
        <path id="Trazado_222010" data-name="Trazado 222010" d="M705.033,377.184c-.422,0-.845.026-1.265-.005a1.234,1.234,0,0,1-1.248-1.224,1.268,1.268,0,0,1,1.09-1.462,19.391,19.391,0,0,1,2.78-.005,1.306,1.306,0,0,1,1.14,1.435,1.262,1.262,0,0,1-1.233,1.254C705.878,377.208,705.455,377.183,705.033,377.184Z" fill="#0c0c0e"/>
        <path id="Trazado_222011" data-name="Trazado 222011" d="M678.289,409.014c0,.393.019.787,0,1.179a1.327,1.327,0,0,1-1.373,1.3,1.308,1.308,0,0,1-1.333-1.328q-.034-1.179,0-2.359a1.305,1.305,0,0,1,1.324-1.335,1.327,1.327,0,0,1,1.384,1.368C678.3,408.226,678.29,408.62,678.289,409.014Z" fill="#0c0c0e"/>
        <path id="Trazado_222012" data-name="Trazado 222012" d="M666.065,378.407a14.071,14.071,0,0,1,2.277-8.008,1.388,1.388,0,0,1,1.5-.712,1.329,1.329,0,0,1,1.071.96,1.217,1.217,0,0,1-.18,1.125,11.589,11.589,0,0,0-1.714,8.644,1.354,1.354,0,0,1-1.132,1.616,1.406,1.406,0,0,1-1.585-1.2A9.345,9.345,0,0,1,666.065,378.407Z" fill="#0c0c0e"/>
        <path id="Trazado_222013" data-name="Trazado 222013" d="M675.225,367.014c-.008,1.1-2.19,2.533-3.186,2.088a1.357,1.357,0,0,1-.4-2.242,5.78,5.78,0,0,1,1.686-1.11A1.368,1.368,0,0,1,675.225,367.014Z" fill="#0c0c0e"/>
      </g>
      <g id="Grupo_172737" data-name="Grupo 172737">
        <path id="Trazado_222014" data-name="Trazado 222014" d="M846.9,521.677v-6.225c.867-1.876,2.592-1.51,4.188-1.518v-1.3c0-.415-.009-.83,0-1.245a2.253,2.253,0,0,1,1.594-2.247,7.506,7.506,0,0,1,1.167-.115V483.117c-2.148-.168-2.763-.836-2.763-2.959v-1.941c-1.665-.005-3.406.351-4.188-1.637v-6.225a2.693,2.693,0,0,1,2.777-1.476,1.268,1.268,0,0,0,.708-.237q15.1-7.737,30.188-15.487a3.429,3.429,0,0,1,3.451-.02q14.472,7.572,28.966,15.1a4.954,4.954,0,0,0,2.475.668,2.136,2.136,0,0,1,2.277,2.362c0,1.5-.065,3,.02,4.493a2.312,2.312,0,0,1-2.5,2.466c-.563-.03-1.129-.005-1.7-.005,0,.91.016,1.717,0,2.523a2.218,2.218,0,0,1-2.343,2.337c-.151,0-.324-.058-.424.081v26.076a1.388,1.388,0,0,0,.218.073,2.2,2.2,0,0,1,2.175,2.55v2.072c.841,0,1.6-.009,2.357,0a2.155,2.155,0,0,1,2.208,2.227q.009,2.385,0,4.77a2.147,2.147,0,0,1-1.931,2.287l-14.68.005c-.718-.213-1.041-.624-.951-1.212.087-.569.536-.887,1.274-.888q6.708,0,13.415,0a1.332,1.332,0,0,0,.734-.067v-4.936H849.026v5.007h2.783q22.129,0,44.258,0c.8,0,1.252.3,1.331.9.082.608-.227,1-.956,1.2-.16-.009-.321-.025-.481-.025q-23.222,0-46.443,0c-.184,0-.367.019-.55.029A2.429,2.429,0,0,1,846.9,521.677ZM849.011,476h66.6v-4.965H867.015a6.117,6.117,0,0,1-.691-.008,1.08,1.08,0,0,1-1-1.05,1.022,1.022,0,0,1,.906-1.052,4.83,4.83,0,0,1,.826-.04h42.317c-.036-.243-.206-.249-.31-.3q-13.068-6.809-26.134-13.621a1.279,1.279,0,0,0-1.337.063q-13.124,6.742-26.251,13.479c-.166.085-.4.1-.488.382,2.055,0,4.079,0,6.1,0a3.881,3.881,0,0,1,.821.071.924.924,0,0,1,.769.93,1,1,0,0,1-.629,1.044,1.785,1.785,0,0,1-.812.1q-5.673,0-11.345,0a1.218,1.218,0,0,0-.749.086Zm14.693,7.121v25.886a1.218,1.218,0,0,0,.219.059c1.906.116,2.551.8,2.553,2.73v2.1H870.7V513.1q0-9.2,0-18.4a15.378,15.378,0,0,1,.114-1.927,11.613,11.613,0,0,1,23.119,1.718q.009,9.334.006,18.67a1.44,1.44,0,0,0,.058.736h4.514v-1.2c0-.415-.01-.83,0-1.245a2.25,2.25,0,0,1,1.558-2.065c.282-.081.6,0,.851-.163V483.11c-2.154-.139-2.76-.8-2.76-2.949v-1.9H866.476v1.284c0,.415.011.83,0,1.244a2.209,2.209,0,0,1-1.56,2.2A11.628,11.628,0,0,1,863.7,483.119Zm28.07,30.783a2.485,2.485,0,0,0,.037-.291c0-6.432.017-12.863-.007-19.294a9.488,9.488,0,1,0-18.971.36q-.012,9.266,0,18.533a1.279,1.279,0,0,0,.071.692Zm11.338-30.8v26.179h5.457V483.1Zm-47.032,0V509.04h5.438V483.1Zm8.237-4.847H853.3v2.677h11.018Zm47.036,2.683v-2.69H900.345v2.69ZM853.275,513.9H864.3v-2.681H853.275Zm57.766-2.415h-10.35v2.4h10.35Z" fill="#0a0a0c"/>
        <path id="Trazado_222015" data-name="Trazado 222015" d="M896.442,523.225a.611.611,0,0,1-.007.112H848.976a.152.152,0,0,1-.008-.107c.183-.01.366-.029.55-.029q23.222,0,46.443,0C896.121,523.2,896.282,523.216,896.442,523.225Z" fill="#c4c2c6"/>
        <path id="Trazado_222016" data-name="Trazado 222016" d="M901.139,523.337a.855.855,0,0,1-.007-.113l14.68-.005a.462.462,0,0,0-.006.118Z" fill="#c4c2c6"/>
        <path id="Trazado_222017" data-name="Trazado 222017" d="M886.458,461.764a4.136,4.136,0,1,1-4.152-4.12A4.188,4.188,0,0,1,886.458,461.764Zm-4.137,1.989a1.971,1.971,0,1,0-1.969-1.957A1.932,1.932,0,0,0,882.321,463.753Z" fill="#0a0a0c"/>
      </g>
      <g id="Grupo_172738" data-name="Grupo 172738">
        <path id="Trazado_222018" data-name="Trazado 222018" d="M1295.869,447.273a21.259,21.259,0,0,0,3,.448,29.635,29.635,0,0,1,18.812,11.5,28.538,28.538,0,0,1,5.857,14.168c1.409,12-2.865,21.589-12.514,28.792a16.376,16.376,0,0,0-4.881,5.019c-.074.133-.146.266-.264.483h3.492v2.643h-4.507a11.282,11.282,0,0,0-.592,2.613h2.5v2.648h-2.616c0,1.181,0,2.261,0,3.342,0,1.534-.4,1.934-1.907,1.945h-.656A8.116,8.116,0,0,1,1298,527.4a7.49,7.49,0,0,1-5.125,1.291,8.052,8.052,0,0,1-7.183-7.773c-.459-.035-.929-.044-1.391-.113a1.248,1.248,0,0,1-1.16-1.363c-.005-1.242,0-2.485,0-3.829h-2.636V513.02c.788-.165,1.607,0,2.459-.1a10.216,10.216,0,0,0-.526-2.556h-4.5v-2.642h3.434a12.343,12.343,0,0,0-3.488-4.3,48.293,48.293,0,0,1-6.377-5.355,29.926,29.926,0,0,1-7.593-15.151,27.592,27.592,0,0,1-.463-6.343h2.648c.05,1.3.016,2.59.159,3.872A27.2,27.2,0,0,0,1273.238,496a29.027,29.027,0,0,0,5.229,4.5,16.124,16.124,0,0,1,5.564,6.591.925.925,0,0,0,1.005.622q8.589-.028,17.178,0a.882.882,0,0,0,.979-.562,15.871,15.871,0,0,1,5.681-6.687,27.459,27.459,0,0,0,9.587-10.995,27.642,27.642,0,0,0-10.4-35.448,25.752,25.752,0,0,0-11.668-3.919c-1.482-.136-2.961-.063-4.469-.138a12.116,12.116,0,0,1-.192-2.681Zm-7.428,73.645a5.238,5.238,0,0,0,5.84,5.1,5.152,5.152,0,0,0,4.515-5.1Zm-2.734-8.005h15.872l.367-2.5H1285.29Zm15.766,2.739h-15.6v2.5h15.6Z" fill="#0d0c0e"/>
        <path id="Trazado_222019" data-name="Trazado 222019" d="M1269.147,447.273a2.02,2.02,0,0,1,.946,1.793,5.182,5.182,0,0,0,4.735,4.727c.159.012.32,0,.476.026a1.432,1.432,0,0,1,1.294,1.374,1.383,1.383,0,0,1-1.368,1.294,5.447,5.447,0,0,0-3.4,1.319,4.981,4.981,0,0,0-1.741,3.436,4.582,4.582,0,0,1-.136.779,1.189,1.189,0,0,1-1.321,1,1.21,1.21,0,0,1-1.229-1.117,8.021,8.021,0,0,0-.543-2.382,5.261,5.261,0,0,0-4.517-3.021c-.994-.086-1.551-.579-1.541-1.358s.584-1.269,1.568-1.342a5.127,5.127,0,0,0,4.906-4.636,2.268,2.268,0,0,1,.92-1.89Zm-.454,5.677a10.132,10.132,0,0,1-2.185,2.222,10.277,10.277,0,0,1,2.2,2.174,9.707,9.707,0,0,1,2.166-2.194A9.339,9.339,0,0,1,1268.693,452.95Z" fill="#0d0c0e"/>
        <path id="Trazado_222020" data-name="Trazado 222020" d="M1311.787,463.454a6.594,6.594,0,0,1,3.484,9.087,5.32,5.32,0,0,1,.009,9.864,6.5,6.5,0,0,1,.246,5.354,6.584,6.584,0,0,1-3.743,3.737,5.313,5.313,0,0,1-6.825,6.7,5.771,5.771,0,0,1-2,2.171,5.039,5.039,0,0,1-5.272.1,5.139,5.139,0,0,1-2.747-4.764c-.033-4.186-.01-8.372-.01-12.558q0-11.843,0-23.685a5.229,5.229,0,0,1,4.747-5.57,4.917,4.917,0,0,1,4.973,2.438c.221.337.4.449.8.342a5.209,5.209,0,0,1,6.339,6.58A.843.843,0,0,0,1311.787,463.454Zm-5,24.547a4.774,4.774,0,0,1,2.9.9,1,1,0,0,0,.876.206,3.99,3.99,0,0,0,2.766-3.915,3.923,3.923,0,0,0-3.739-3.722,3.833,3.833,0,0,0-4.024,3.455c-.046.3-.1.5-.462.5-.733-.015-1.468-.005-2.252-.005a6.368,6.368,0,0,1,3.133-5.631,6.2,6.2,0,0,1,6.755-.046,1.6,1.6,0,0,0,1.26.277,2.6,2.6,0,0,0,1.932-2.423,2.577,2.577,0,0,0-1.812-2.588,1.374,1.374,0,0,0-1.211.124,6.449,6.449,0,0,1-9.97-5.563c.648,0,1.307.027,1.962-.009.472-.026.625.132.681.611a3.864,3.864,0,0,0,3.729,3.354,3.919,3.919,0,0,0,1.442-7.593,1.107,1.107,0,0,0-1.1.159,4.4,4.4,0,0,1-2.862.873v-2.585c1.7-.32,2.643-1.324,2.6-2.726a2.592,2.592,0,0,0-2.171-2.464c-1.613-.21-2.471.485-3.12,2.527h-2.54a4.57,4.57,0,0,1,.9-2.912.719.719,0,0,0,.065-.851,2.589,2.589,0,0,0-3.071-1.311,2.553,2.553,0,0,0-1.83,2.654q0,18.205,0,36.413c0,.132,0,.266.008.4a2.577,2.577,0,0,0,4.864.977.753.753,0,0,0-.042-.921,4.545,4.545,0,0,1-.889-2.915h2.543c.6,2.016,1.472,2.736,3.068,2.559a2.6,2.6,0,0,0,2.221-2.425c.074-1.395-.819-2.365-2.6-2.8Z" fill="#0d0c0e"/>
        <path id="Trazado_222021" data-name="Trazado 222021" d="M1282.337,498.206a5.315,5.315,0,0,1-6.845-6.639c-4.088-2.791-5.045-5.267-3.495-9.159a5.31,5.31,0,0,1-.014-9.83,6.7,6.7,0,0,1,3.543-9.154,5.14,5.14,0,0,1,1.311-5.448,5.219,5.219,0,0,1,5.516-1.205,5.275,5.275,0,0,1,10,2.41c.034,2.067.006,4.135.006,6.2q0,15.068,0,30.136a5.314,5.314,0,0,1-3.667,5.352C1286.171,501.661,1283.986,500.757,1282.337,498.206Zm-1.813-31.224a4.577,4.577,0,0,1-2.822-.861,1.22,1.22,0,0,0-1.378-.092,3.912,3.912,0,0,0-2.239,4.51,3.978,3.978,0,0,0,3.994,2.978,3.887,3.887,0,0,0,3.657-3.438c.024-.182.019-.373.182-.478h2.466a1.477,1.477,0,0,1,.039.26,6.53,6.53,0,0,1-9.842,5.38,1.658,1.658,0,0,0-1.415-.238,2.61,2.61,0,0,0,.147,5.008,1.335,1.335,0,0,0,1.06-.149,6.315,6.315,0,0,1,7.958.693,6.018,6.018,0,0,1,2.075,4.858c-.745,0-1.406-.027-2.064.01-.466.025-.566-.186-.62-.6a3.834,3.834,0,0,0-3.63-3.358,3.9,3.9,0,0,0-1.707,7.5,1.2,1.2,0,0,0,1.31-.117,4.289,4.289,0,0,1,2.865-.828c0,.468.017.889-.005,1.307a3.475,3.475,0,0,1-.085,1.3,2.693,2.693,0,0,0-2.573,2.659,2.619,2.619,0,0,0,2.225,2.511c1.607.183,2.528-.575,3.057-2.522h2.6a4.969,4.969,0,0,1-1,2.989.558.558,0,0,0-.082.568,2.652,2.652,0,0,0,2.8,1.61,2.619,2.619,0,0,0,2.175-2.792q0-18.167,0-36.335c0-.159,0-.318-.009-.476a2.645,2.645,0,0,0-2.166-2.323,2.7,2.7,0,0,0-2.706,1.408.7.7,0,0,0,.033.852,4.9,4.9,0,0,1,.945,2.966h-2.583c-.518-1.968-1.4-2.718-2.983-2.572a2.586,2.586,0,0,0-2.3,2.43c-.088,1.379.863,2.4,2.622,2.791Z" fill="#0d0c0e"/>
        <path id="Trazado_222022" data-name="Trazado 222022" d="M1260.773,460.4c.786-.024,1.285.524,1.378,1.512a5.19,5.19,0,0,0,3.9,4.835c.505.14,1.044.153,1.56.255a1.2,1.2,0,0,1,1.066,1.192,1.179,1.179,0,0,1-.967,1.342c-.509.123-1.049.124-1.553.262a5.193,5.193,0,0,0-4,4.834c-.093.982-.6,1.569-1.347,1.565s-1.282-.61-1.356-1.572a5.142,5.142,0,0,0-4.844-4.95,3.878,3.878,0,0,1-.7-.135,1.3,1.3,0,0,1,.109-2.538,8.344,8.344,0,0,0,2.386-.528,5.18,5.18,0,0,0,3.045-4.49C1259.523,460.992,1259.994,460.427,1260.773,460.4Zm.028,5.679a10.671,10.671,0,0,1-2.167,2.234,9.3,9.3,0,0,1,2.181,2.165,9.246,9.246,0,0,1,2.192-2.18A10.03,10.03,0,0,1,1260.8,466.083Z" fill="#0d0c0e"/>
      </g>
      <g id="Grupo_172739" data-name="Grupo 172739">
        <path id="Trazado_222023" data-name="Trazado 222023" d="M1097.934,435.984c-1.01-.236-2.034-.424-3.028-.716a20.248,20.248,0,0,1-14.167-13.663.808.808,0,0,0-.947-.662q-12.885.018-25.771.008c-2.779,0-4.113-1.343-4.113-4.141V386.831a20.56,20.56,0,0,1,2.189-.109c.165-.258.076-.541.081-.808.067-3.307-.143-6.618.125-9.921a18.987,18.987,0,0,1,4.584-10.875.934.934,0,0,1,.215-.133l1.672,1.476a17.6,17.6,0,0,0-3.19,5.368,15.745,15.745,0,0,0-1.03,5.384c-.005,3.152,0,6.3,0,9.5h2.177c0-1.659-.019-3.294.005-4.929a42.949,42.949,0,0,1,.251-6.648,14.8,14.8,0,0,1,29.063-.458,27.883,27.883,0,0,1,.331,6.035c0,.1,0,.2,0,.353h2.095c1.21-9.886-4.236-17.816-13.091-19.929-5.593-1.335-10.61.111-15.082,3.779l-1.513-1.7a18.651,18.651,0,0,1,7.864-4.207,19.343,19.343,0,0,1,23.8,14.509,18.373,18.373,0,0,1,.415,3.068c.137,2.242.014,4.484.074,6.77h-6.924c0-1.923.009-3.835,0-5.746a12.476,12.476,0,0,0-16.377-11.713,12.077,12.077,0,0,0-8.393,9.815,7.73,7.73,0,0,0-.139,1.428c0,3.178,0,6.356,0,9.617h34.074v9.521c6.606-2.174,12.83-1.541,18.58,2.309a19.713,19.713,0,0,1,8.431,12.122,20.364,20.364,0,0,1-11.721,23.543l-.907-2.048a16.879,16.879,0,0,0,2.754-1.553c.5-.389,1.294-.5,1.305-1.4.015-1.331.062-2.642-1.2-3.543a8.745,8.745,0,0,0-3.267-1.291c-.827-.188-1.645-.415-2.457-.621a4.682,4.682,0,0,1-8.815,0,25.431,25.431,0,0,0-5.084,1.5,3.637,3.637,0,0,0-1.832,4.315c.068.216.248.314.4.427a17.97,17.97,0,0,0,12.485,3.572,20.838,20.838,0,0,0,3.6-.661,20.279,20.279,0,0,1,.742,2.16,16.429,16.429,0,0,1-3.338.733c-.178.022-.413-.118-.528.146Zm-17.9-17.393a18.3,18.3,0,0,1,.061-6.608,20.3,20.3,0,0,1,10.218-14.335.925.925,0,0,0,.533-.947c-.02-2.323-.007-4.646-.013-6.97,0-.192.07-.4-.075-.572H1052.27v.794q0,13.483,0,26.969c0,1.421.245,1.669,1.662,1.669q12.654,0,25.308,0Zm6.608,8.806a5.791,5.791,0,0,1,4.01-4.592c1.356-.548,2.812-.75,4.2-1.17.3-.092.83.039.809-.464-.024-.582.279-1.215-.379-1.731a7.5,7.5,0,0,1-2.854-4.826,30.647,30.647,0,0,1-.1-4.838,7.952,7.952,0,0,1,15.435-2.666c.846,2.4.55,4.9.368,7.348a7.064,7.064,0,0,1-2.909,5.031c-.62.489-.3,1.115-.33,1.676-.025.5.5.384.8.467,1.114.3,2.247.537,3.349.876,2.462.759,4.393,2.088,4.882,4.866,5.347-5.585,6.695-16.376-.1-23.922a18.115,18.115,0,0,0-27.188,23.945Zm13.661-16.42c-1.111,0-2.223-.019-3.334.005a2.331,2.331,0,0,0-2.344,2.709,8.31,8.31,0,0,0,.2,1.037,5.663,5.663,0,0,0,6,4.151,5.722,5.722,0,0,0,5.08-4.991,2.355,2.355,0,0,0-2.419-2.909C1102.429,410.967,1101.368,410.977,1100.307,410.977Zm5.51-2.03c-.1-2.572-2.985-5-5.845-4.776-2.805.216-5.467,2.777-5.193,4.776A52.551,52.551,0,0,1,1105.817,408.947Zm-3.333,11.965a8.444,8.444,0,0,1-4.414.032c-.024,1.283-.232,2.532,1.041,3.309a2.109,2.109,0,0,0,2.346,0C1102.721,423.471,1102.54,422.23,1102.484,420.912Z" fill="#0e0e10"/>
        <path id="Trazado_222024" data-name="Trazado 222024" d="M1080.259,401.432l-9.541,9.539-7.868-7.873,4.8-4.8,3.059,3.119,4.745-4.79Zm-9.541,6.29,6.32-6.317-1.576-1.563-4.8,4.808-3.067-3.093-1.538,1.509Z" fill="#0e0e10"/>
        <path id="Trazado_222025" data-name="Trazado 222025" d="M1084.065,391.344V393.6h-2.278a13.717,13.717,0,0,1-.007-2.25A12.029,12.029,0,0,1,1084.065,391.344Z" fill="#0e0e10"/>
        <path id="Trazado_222026" data-name="Trazado 222026" d="M1086.36,391.323h2.231v2.284h-2.231Z" fill="#0e0e10"/>
      </g>
    </g>
  </g>
</svg>
