<svg xmlns="http://www.w3.org/2000/svg" width="190" height="115" viewBox="0 0 190 115">
  <g id="Grupo_141006" data-name="Grupo 141006" transform="translate(-180 -399)">
    <rect id="Rectángulo_43992" data-name="Rectángulo 43992" width="190" height="115" transform="translate(180 399)" fill="none"/>
    <rect id="Rectángulo_41430" data-name="Rectángulo 41430" width="85" height="28" rx="14" transform="translate(285 407)" fill="#feca2e" opacity="0.2"/>
    <rect id="Rectángulo_41431" data-name="Rectángulo 41431" width="85" height="28" rx="14" transform="translate(180 468)" fill="#4dd0e1" opacity="0.2"/>
    <g id="Grupo_146417" data-name="Grupo 146417" transform="translate(-164.989 -849.182)">
      <g id="Grupo_146398" data-name="Grupo 146398" transform="translate(431.03 1294.496)">
        <path id="Trazado_202497" data-name="Trazado 202497" d="M456.4,1345.3v5.794h18.154V1345.3Zm15.909,3.863h-5.15v-1.931h5.15Z" transform="translate(-456.402 -1328.723)" fill="#0f2771"/>
        <path id="Trazado_202498" data-name="Trazado 202498" d="M456.4,1331.888v5.793h18.154v-5.793Zm15.909,3.862h-5.15v-1.931h5.15Z" transform="translate(-456.402 -1323.599)" fill="#0f2771"/>
        <path id="Trazado_202499" data-name="Trazado 202499" d="M456.4,1318.475v5.793h18.154v-5.793Zm15.909,3.862h-5.15v-1.931h5.15Z" transform="translate(-456.402 -1318.475)" fill="#0f2771"/>
      </g>
      <g id="Grupo_146400" data-name="Grupo 146400" transform="translate(410.671 1276.246)">
        <g id="Grupo_146399" data-name="Grupo 146399" transform="translate(0 0)">
          <path id="Trazado_202500" data-name="Trazado 202500" d="M475.279,1309.145l-1.559-3.781,3.894-2.929a29.553,29.553,0,0,0-8.7-8.733l-2.943,3.888-3.776-1.571-3.776-1.571.684-4.838a29.221,29.221,0,0,0-12.331-.023l.67,4.844-3.781,1.56-3.781,1.559-2.929-3.9a29.555,29.555,0,0,0-8.732,8.7l3.888,2.943-1.571,3.776-1.571,3.776-4.838-.684a29.211,29.211,0,0,0-.022,12.331l4.844-.67,1.56,3.781,1.559,3.781-3.9,2.929a29.551,29.551,0,0,0,8.7,8.732l2.942-3.887,3.776,1.571,3.776,1.571-.685,4.838a29.213,29.213,0,0,0,12.332.022l-.671-4.844,3.781-1.559,3.781-1.56,2.93,3.9a29.569,29.569,0,0,0,8.732-8.7l-3.888-2.943,1.571-3.776,1.571-3.776,4.838.685a29.227,29.227,0,0,0,.023-12.332l-4.844.671Zm-22.387,27.448a18.216,18.216,0,1,1,18.216-18.215A18.215,18.215,0,0,1,452.892,1336.594Z" transform="translate(-423.456 -1288.942)" fill="#0f2771"/>
        </g>
      </g>
      <g id="Grupo_146401" data-name="Grupo 146401" transform="translate(461.508 1275.175)">
        <path id="Trazado_202501" data-name="Trazado 202501" d="M507.793,1296l-2.072-2.072,6.722-6.722h14.038v2.93H513.657Z" transform="translate(-505.721 -1287.209)" fill="#0f2771"/>
      </g>
      <g id="Grupo_146402" data-name="Grupo 146402" transform="translate(480.573 1271.958)">
        <path id="Trazado_202502" data-name="Trazado 202502" d="M541.254,1291.368a4.682,4.682,0,1,1,4.682-4.682A4.688,4.688,0,0,1,541.254,1291.368Zm0-6.434a1.752,1.752,0,1,0,1.752,1.752A1.754,1.754,0,0,0,541.254,1284.933Z" transform="translate(-536.572 -1282.003)" fill="#0f2771"/>
      </g>
      <g id="Grupo_146403" data-name="Grupo 146403" transform="translate(397.659 1275.175)">
        <path id="Trazado_202503" data-name="Trazado 202503" d="M421.087,1296l-5.863-5.864H402.4v-2.93h14.038l6.722,6.722Z" transform="translate(-402.4 -1287.209)" fill="#0f2771"/>
      </g>
      <g id="Grupo_146404" data-name="Grupo 146404" transform="translate(389.989 1271.958)">
        <path id="Trazado_202504" data-name="Trazado 202504" d="M394.671,1291.368a4.682,4.682,0,1,1,4.682-4.682A4.688,4.688,0,0,1,394.671,1291.368Zm0-6.434a1.752,1.752,0,1,0,1.752,1.752A1.754,1.754,0,0,0,394.671,1284.933Z" transform="translate(-389.989 -1282.003)" fill="#0f2771"/>
      </g>
      <g id="Grupo_146405" data-name="Grupo 146405" transform="translate(461.508 1327.395)">
        <path id="Trazado_202505" data-name="Trazado 202505" d="M526.481,1380.506H512.443l-6.722-6.722,2.072-2.072,5.863,5.863h12.824Z" transform="translate(-505.721 -1371.713)" fill="#0f2771"/>
      </g>
      <g id="Grupo_146406" data-name="Grupo 146406" transform="translate(480.573 1330.042)">
        <path id="Trazado_202506" data-name="Trazado 202506" d="M541.254,1385.359a4.682,4.682,0,1,1,4.682-4.682A4.687,4.687,0,0,1,541.254,1385.359Zm0-6.434a1.752,1.752,0,1,0,1.752,1.753A1.754,1.754,0,0,0,541.254,1378.925Z" transform="translate(-536.572 -1375.995)" fill="#0f2771"/>
      </g>
      <g id="Grupo_146407" data-name="Grupo 146407" transform="translate(397.659 1327.395)">
        <path id="Trazado_202507" data-name="Trazado 202507" d="M416.438,1380.506H402.4v-2.93h12.824l5.863-5.863,2.072,2.072Z" transform="translate(-402.4 -1371.713)" fill="#0f2771"/>
      </g>
      <g id="Grupo_146408" data-name="Grupo 146408" transform="translate(389.989 1330.042)">
        <path id="Trazado_202508" data-name="Trazado 202508" d="M394.671,1385.359a4.682,4.682,0,1,1,4.682-4.682A4.688,4.688,0,0,1,394.671,1385.359Zm0-6.434a1.752,1.752,0,1,0,1.752,1.753A1.754,1.754,0,0,0,394.671,1378.925Z" transform="translate(-389.989 -1375.995)" fill="#0f2771"/>
      </g>
      <g id="Grupo_146409" data-name="Grupo 146409" transform="translate(480.573 1301)">
        <path id="Trazado_202509" data-name="Trazado 202509" d="M541.254,1338.364a4.682,4.682,0,1,1,4.682-4.682A4.688,4.688,0,0,1,541.254,1338.364Zm0-6.435a1.752,1.752,0,1,0,1.752,1.753A1.754,1.754,0,0,0,541.254,1331.929Z" transform="translate(-536.572 -1328.999)" fill="#0f2771"/>
      </g>
      <g id="Grupo_146410" data-name="Grupo 146410" transform="translate(471.928 1304.216)">
        <rect id="Rectángulo_44526" data-name="Rectángulo 44526" width="10.11" height="2.93" fill="#0f2771"/>
      </g>
      <g id="Grupo_146411" data-name="Grupo 146411" transform="translate(435.281 1255.708)">
        <path id="Trazado_202510" data-name="Trazado 202510" d="M467.962,1265.072a4.682,4.682,0,1,1,4.682-4.682A4.688,4.688,0,0,1,467.962,1265.072Zm0-6.434a1.752,1.752,0,1,0,1.752,1.752A1.754,1.754,0,0,0,467.962,1258.638Z" transform="translate(-463.28 -1255.708)" fill="#0f2771"/>
      </g>
      <g id="Grupo_146412" data-name="Grupo 146412" transform="translate(438.498 1263.607)">
        <rect id="Rectángulo_44527" data-name="Rectángulo 44527" width="2.93" height="10.11" transform="translate(0 0)" fill="#0f2771"/>
      </g>
      <g id="Grupo_146413" data-name="Grupo 146413" transform="translate(389.989 1301)">
        <path id="Trazado_202511" data-name="Trazado 202511" d="M394.671,1338.364a4.682,4.682,0,1,1,4.682-4.682A4.688,4.688,0,0,1,394.671,1338.364Zm0-6.434a1.752,1.752,0,1,0,1.752,1.752A1.754,1.754,0,0,0,394.671,1331.93Z" transform="translate(-389.989 -1328.999)" fill="#0f2771"/>
      </g>
      <g id="Grupo_146414" data-name="Grupo 146414" transform="translate(397.888 1304.217)">
        <rect id="Rectángulo_44528" data-name="Rectángulo 44528" width="10.11" height="2.93" transform="translate(0 0)" fill="#0f2771"/>
      </g>
      <g id="Grupo_146415" data-name="Grupo 146415" transform="translate(435.281 1346.291)">
        <path id="Trazado_202512" data-name="Trazado 202512" d="M467.962,1411.655a4.682,4.682,0,1,1,4.682-4.682A4.688,4.688,0,0,1,467.962,1411.655Zm0-6.434a1.752,1.752,0,1,0,1.752,1.752A1.754,1.754,0,0,0,467.962,1405.221Z" transform="translate(-463.28 -1402.29)" fill="#0f2771"/>
      </g>
      <g id="Grupo_146416" data-name="Grupo 146416" transform="translate(438.498 1337.646)">
        <rect id="Rectángulo_44529" data-name="Rectángulo 44529" width="2.93" height="10.11" fill="#0f2771"/>
      </g>
    </g>
  </g>
</svg>
