<svg xmlns="http://www.w3.org/2000/svg" width="1240.001" height="451" viewBox="0 0 1240.001 451">
  <g id="Grupo_172812" data-name="Grupo 172812" transform="translate(-180 -444)">
    <g id="Rectángulo_44446" data-name="Rectángulo 44446" transform="translate(505 444)" fill="none" stroke="#0f2771" stroke-width="3">
      <rect width="210" height="61" rx="30.5" stroke="none"/>
      <rect x="1.5" y="1.5" width="207" height="58" rx="29" fill="none"/>
    </g>
    <text id="Ciencias_de_datos" data-name="Ciencias de datos" transform="translate(610 482)" fill="#12263f" font-size="20" font-family="Roboto-Black, Roboto" font-weight="800"><tspan x="-79.775" y="0">Ciencias de datos</tspan></text>
    <text id="Combina" transform="translate(582 534)" fill="#0f2771" font-size="14" font-family="Roboto-Regular, Roboto"><tspan x="0" y="0">Combina</tspan></text>
    <line id="Línea_385" data-name="Línea 385" y2="12.026" transform="translate(610.041 505.641)" fill="none" stroke="#707070" stroke-width="1.5"/>
    <line id="Línea_386" data-name="Línea 386" y2="12.235" transform="translate(609.619 541)" fill="none" stroke="#707070" stroke-width="1.5"/>
    <rect id="Rectángulo_44447" data-name="Rectángulo 44447" width="231" height="62" rx="21" transform="translate(180 569)" fill="#0f2771"/>
    <text id="Matemáticas_y_estadísticas" data-name="Matemáticas y estadísticas" transform="translate(198 606)" fill="#fff" font-size="16" font-family="Roboto-Regular, Roboto"><tspan x="0" y="0">Matemáticas y estadísticas</tspan></text>
    <path id="Trazado_200676" data-name="Trazado 200676" d="M-12419.085-9612.073V-9629h638.532v16.938" transform="translate(12709.438 10182.235)" fill="none" stroke="#707070" stroke-width="1.5"/>
    <rect id="Rectángulo_44449" data-name="Rectángulo 44449" width="231" height="61" rx="21" transform="translate(491 570)" fill="#0f2771"/>
    <text id="Ciencias_de_la_computación" data-name="Ciencias de la computación" transform="translate(509 604)" fill="#fff" font-size="16" font-family="Roboto-Regular, Roboto"><tspan x="0" y="0">Ciencias de la computación</tspan></text>
    <rect id="Rectángulo_44450" data-name="Rectángulo 44450" width="238" height="62" rx="21" transform="translate(805 570)" fill="#0f2771"/>
    <text id="Inteligencia_artificial" data-name="Inteligencia artificial" transform="translate(919 605)" fill="#fff" font-size="16" font-family="Roboto-Regular, Roboto"><tspan x="-71.586" y="0">Inteligencia artificial</tspan></text>
    <text id="para" transform="translate(597 784)" fill="#0f2771" font-size="14" font-family="Roboto-Regular, Roboto"><tspan x="0" y="0">para</tspan></text>
    <line id="Línea_387" data-name="Línea 387" y2="11.521" transform="translate(610.883 759.729)" fill="none" stroke="#707070" stroke-width="1.5"/>
    <line id="Línea_406" data-name="Línea 406" x2="10" transform="translate(699 730.98)" fill="none" stroke="#707070" stroke-width="1.5"/>
    <line id="Línea_412" data-name="Línea 412" x2="14.321" transform="translate(968 730.98)" fill="none" stroke="#707070" stroke-width="1.5"/>
    <line id="Línea_414" data-name="Línea 414" x2="7.119" transform="translate(1222.881 641.614)" fill="none" stroke="#707070" stroke-width="1.5"/>
    <line id="Línea_418" data-name="Línea 418" x2="7.119" transform="translate(1222.881 805.953)" fill="none" stroke="#707070" stroke-width="1.5"/>
    <line id="Línea_407" data-name="Línea 407" x2="8.506" transform="translate(807.5 730.98)" fill="none" stroke="#707070" stroke-width="1.5"/>
    <line id="Línea_413" data-name="Línea 413" y1="85.082" x2="24.429" transform="translate(1072.514 645.899)" fill="none" stroke="#707070" stroke-width="1.5"/>
    <line id="Línea_415" data-name="Línea 415" y1="40.362" x2="33.729" transform="translate(1260.333 601.252)" fill="none" stroke="#707070" stroke-width="1.5"/>
    <line id="Línea_419" data-name="Línea 419" y1="40.362" x2="33.729" transform="translate(1260.333 765.592)" fill="none" stroke="#707070" stroke-width="1.5"/>
    <line id="Línea_388" data-name="Línea 388" y2="42.541" transform="translate(610.883 792.055)" fill="none" stroke="#707070" stroke-width="1.5"/>
    <rect id="Rectángulo_44451" data-name="Rectángulo 44451" width="178" height="61" rx="21" transform="translate(521 700)" fill="#4dd0e1"/>
    <rect id="Rectángulo_44902" data-name="Rectángulo 44902" width="152" height="61" rx="21" transform="translate(816 700)" fill="#bddcf6"/>
    <g id="Grupo_171798" data-name="Grupo 171798" transform="translate(1293.806 573.853)">
      <rect id="Rectángulo_44909" data-name="Rectángulo 44909" width="126" height="60" rx="21" transform="translate(0.195 0.148)" fill="#f9f7ec"/>
      <rect id="Rectángulo_44912" data-name="Rectángulo 44912" width="126" height="62" rx="21" transform="translate(0.195 70.148)" fill="#f9f7ec"/>
    </g>
    <g id="Grupo_171799" data-name="Grupo 171799" transform="translate(1293.806 740.283)">
      <rect id="Rectángulo_44909-2" data-name="Rectángulo 44909" width="126" height="61" rx="21" transform="translate(0.195 -0.283)" fill="#f9f7ec"/>
      <rect id="Rectángulo_44912-2" data-name="Rectángulo 44912" width="126" height="60" rx="21" transform="translate(0.195 70.717)" fill="#f9f7ec"/>
    </g>
    <rect id="Rectángulo_44910" data-name="Rectángulo 44910" width="126" height="60" rx="21" transform="translate(1096 610)" fill="#feca2e"/>
    <rect id="Rectángulo_44911" data-name="Rectángulo 44911" width="126" height="61" rx="21" transform="translate(1096 775)" fill="#feca2e"/>
    <rect id="Rectángulo_44904" data-name="Rectángulo 44904" width="126" height="61" rx="21" transform="translate(547 834)" fill="#bddcf6"/>
    <rect id="Rectángulo_44907" data-name="Rectángulo 44907" width="127" height="61" rx="21" transform="translate(411 834)" fill="#bddcf6"/>
    <rect id="Rectángulo_44908" data-name="Rectángulo 44908" width="126" height="61" rx="21" transform="translate(277 834)" fill="#bddcf6"/>
    <rect id="Rectángulo_44905" data-name="Rectángulo 44905" width="126" height="61" rx="21" transform="translate(681 834)" fill="#bddcf6"/>
    <rect id="Rectángulo_44906" data-name="Rectángulo 44906" width="127" height="61" rx="21" transform="translate(816 834)" fill="#bddcf6"/>
    <text id="Proyectos" transform="translate(608 735)" fill="#12263f" font-size="14" font-family="Roboto-Regular, Roboto"><tspan x="-31.213" y="0">Proyectos</tspan></text>
    <text id="aprovechando" transform="translate(759 735)" fill="#12263f" font-size="14" font-family="Roboto-Regular, Roboto"><tspan x="-44.205" y="0">aprovechando</tspan></text>
    <text id="clasificadas_según" data-name="clasificadas
según" transform="translate(1026 729)" fill="#12263f" font-size="14" font-family="Roboto-Regular, Roboto"><tspan x="-37.191" y="0">clasificadas</tspan><tspan x="-18.966" y="14">según</tspan></text>
    <text id="en" transform="translate(1245 644)" fill="#12263f" font-size="14" font-family="Roboto-Regular, Roboto"><tspan x="-7.571" y="0">en</tspan></text>
    <text id="Interna" transform="translate(1356 608)" fill="#12263f" font-size="14" font-family="Roboto-Regular, Roboto"><tspan x="-21.8" y="0">Interna</tspan></text>
    <text id="Externa" transform="translate(1356 682)" fill="#12263f" font-size="14" font-family="Roboto-Regular, Roboto"><tspan x="-23.481" y="0">Externa</tspan></text>
    <text id="Física" transform="translate(1355 778)" fill="#12263f" font-size="14" font-family="Roboto-Regular, Roboto"><tspan x="-18.378" y="0">Física</tspan></text>
    <text id="Digital" transform="translate(1355 847)" fill="#12263f" font-size="14" font-family="Roboto-Regular, Roboto"><tspan x="-19.708" y="0">Digital</tspan></text>
    <text id="en-2" data-name="en" transform="translate(1244.887 808.024)" fill="#12263f" font-size="14" font-family="Roboto-Regular, Roboto"><tspan x="-7.571" y="0">en</tspan></text>
    <text id="Fuentes_de_información" data-name="Fuentes de
información" transform="translate(892 727)" fill="#12263f" font-size="14" font-family="Roboto-Regular, Roboto"><tspan x="-34.217" y="0">Fuentes de</tspan><tspan x="-37.512" y="16">información</tspan></text>
    <text id="Origen" transform="translate(1158 643)" fill="#12263f" font-size="14" font-family="Roboto-Regular, Roboto"><tspan x="-20.378" y="0">Origen</tspan></text>
    <text id="Formato" transform="translate(1158 810)" fill="#12263f" font-size="14" font-family="Roboto-Regular, Roboto"><tspan x="-26.312" y="0">Formato</tspan></text>
    <text id="Ciberseguridad" transform="translate(610 868)" fill="#12263f" font-size="14" font-family="Roboto-Regular, Roboto"><tspan x="-47.134" y="0">Ciberseguridad</tspan></text>
    <text id="Sector_salud" data-name="Sector salud" transform="translate(475 869)" fill="#12263f" font-size="14" font-family="Roboto-Regular, Roboto"><tspan x="-38.76" y="0">Sector salud</tspan></text>
    <text id="Sector_bancario" data-name="Sector bancario" transform="translate(340 868)" fill="#12263f" font-size="14" font-family="Roboto-Regular, Roboto"><tspan x="-48.966" y="0">Sector bancario</tspan></text>
    <text id="Industria" transform="translate(744 869)" fill="#12263f" font-size="14" font-family="Roboto-Regular, Roboto"><tspan x="-27.344" y="0">Industria</tspan></text>
    <text id="Automatización" transform="translate(880 868)" fill="#12263f" font-size="14" font-family="Roboto-Regular, Roboto"><tspan x="-49.021" y="0">Automatización</tspan></text>
    <text id="para_desarrollar" data-name="para desarrollar" transform="translate(560 670)" fill="#0f2771" font-size="14" font-family="Roboto-Regular, Roboto"><tspan x="0" y="0">para desarrollar</tspan></text>
    <line id="Línea_389" data-name="Línea 389" y2="16.848" transform="translate(609.339 631.158)" fill="none" stroke="#707070" stroke-width="1.5"/>
    <line id="Línea_390" data-name="Línea 390" y2="16.848" transform="translate(609.339 685.07)" fill="none" stroke="#707070" stroke-width="1.5"/>
    <line id="Línea_391" data-name="Línea 391" x1="295" y2="16" transform="translate(634 632)" fill="none" stroke="#707070" stroke-width="1.5"/>
    <line id="Línea_405" data-name="Línea 405" x2="295" y2="16" transform="translate(290 632)" fill="none" stroke="#707070" stroke-width="1.5"/>
    <line id="Línea_393" data-name="Línea 393" y2="16.848" transform="translate(609.619 553.236)" fill="none" stroke="#707070" stroke-width="1.5"/>
    <line id="Línea_408" data-name="Línea 408" y1="41.277" x2="269.565" transform="translate(340.475 793.318)" fill="none" stroke="#707070" stroke-width="1"/>
    <line id="Línea_411" data-name="Línea 411" x1="269.565" y1="41.277" transform="translate(609.619 793.318)" fill="none" stroke="#707070" stroke-width="1"/>
    <line id="Línea_409" data-name="Línea 409" y1="41.277" x2="133.94" transform="translate(476.101 793.318)" fill="none" stroke="#707070" stroke-width="1"/>
    <line id="Línea_410" data-name="Línea 410" x1="133.94" y1="41.277" transform="translate(609.619 793.318)" fill="none" stroke="#707070" stroke-width="1"/>
    <line id="Línea_416" data-name="Línea 416" x2="24.429" y2="85.082" transform="translate(1072.514 728.875)" fill="none" stroke="#707070" stroke-width="1.5"/>
    <line id="Línea_417" data-name="Línea 417" x2="33.729" y2="40.362" transform="translate(1260.333 641.614)" fill="none" stroke="#707070" stroke-width="1.5"/>
    <line id="Línea_420" data-name="Línea 420" x2="33.729" y2="40.362" transform="translate(1260.333 805.953)" fill="none" stroke="#707070" stroke-width="1.5"/>
  </g>
</svg>
