<svg xmlns="http://www.w3.org/2000/svg" width="123.104" height="90.916" viewBox="0 0 123.104 90.916">
  <g id="Grupo_172818" data-name="Grupo 172818" transform="translate(-1497.508 -531.6)">
    <g id="Grupo_171845" data-name="Grupo 171845" transform="translate(1497.508 550.702)" opacity="0.3" style="mix-blend-mode: multiply;isolation: isolate">
      <path id="Trazado_221426" data-name="Trazado 221426" d="M487.151,657.041l.253-5.442a1.357,1.357,0,0,1,.045-.55,18.329,18.329,0,0,0,3.492-1.782,1.385,1.385,0,0,1,1.22.218l4.851,2.482a1.148,1.148,0,0,0,1.608-.217h0l3.333-4.364a1.149,1.149,0,0,0-.217-1.608l-3.668-4.027a1.353,1.353,0,0,1-.359-.423,18.409,18.409,0,0,0,1.21-3.727,1.38,1.38,0,0,1,1.017-.708l5.184-1.676a1.148,1.148,0,0,0,.985-1.291h0l-.729-5.442a1.148,1.148,0,0,0-1.289-.985l-5.442-.252a1.392,1.392,0,0,1-.552-.045,18.272,18.272,0,0,0-1.781-3.491,1.38,1.38,0,0,1,.218-1.22l2.48-4.852a1.147,1.147,0,0,0-.215-1.608h0l-4.364-3.332a1.147,1.147,0,0,0-1.608.215l-4.027,3.67a1.373,1.373,0,0,1-.423.359,18.407,18.407,0,0,0-3.727-1.212,1.378,1.378,0,0,1-.708-1.017l-1.677-5.185a1.147,1.147,0,0,0-1.289-.985h0l-5.442.73a1.148,1.148,0,0,0-.985,1.289l-.253,5.442a1.384,1.384,0,0,1-.044.55,18.294,18.294,0,0,0-3.493,1.782,1.381,1.381,0,0,1-1.22-.22l-4.851-2.48a1.147,1.147,0,0,0-1.608.215h0l-3.332,4.364a1.147,1.147,0,0,0,.215,1.608l3.669,4.027a1.382,1.382,0,0,1,.36.424A18.41,18.41,0,0,0,462.779,630a1.38,1.38,0,0,1-1.017.708l-5.184,1.675a1.148,1.148,0,0,0-.985,1.289h0l.729,5.442a1.147,1.147,0,0,0,1.291.985l5.442.253a1.385,1.385,0,0,1,.55.045,18.364,18.364,0,0,0,1.781,3.491,1.376,1.376,0,0,1-.218,1.22l-2.48,4.852a1.145,1.145,0,0,0,.215,1.607h0l4.364,3.333a1.147,1.147,0,0,0,1.608-.215l4.027-3.67a1.375,1.375,0,0,1,.423-.359,18.308,18.308,0,0,0,3.727,1.21,1.383,1.383,0,0,1,.708,1.017l1.677,5.184a1.145,1.145,0,0,0,1.289.985h0l5.442-.729A1.146,1.146,0,0,0,487.151,657.041ZM473.029,634.85a7.89,7.89,0,1,1,8.869,6.773A7.892,7.892,0,0,1,473.029,634.85Z" transform="translate(-455.582 -608.534)" fill="#0f2771"/>
    </g>
    <g id="Grupo_171846" data-name="Grupo 171846" transform="translate(1578.941 543.822)" opacity="0.3" style="mix-blend-mode: multiply;isolation: isolate">
      <path id="Trazado_221427" data-name="Trazado 221427" d="M537.264,643.831l.209-4.488a1.119,1.119,0,0,1,.037-.454,15.243,15.243,0,0,0,2.88-1.469,1.137,1.137,0,0,1,1.007.18l4,2.046a.948.948,0,0,0,1.327-.179h0l2.748-3.6a.947.947,0,0,0-.179-1.326l-3.026-3.32a1.162,1.162,0,0,1-.3-.35,15.161,15.161,0,0,0,1-3.073,1.135,1.135,0,0,1,.838-.584l4.274-1.383a.945.945,0,0,0,.812-1.062h0l-.6-4.488a.945.945,0,0,0-1.062-.812l-4.488-.209a1.119,1.119,0,0,1-.454-.037,15.158,15.158,0,0,0-1.469-2.88,1.138,1.138,0,0,1,.18-1.005l2.046-4a.946.946,0,0,0-.178-1.326h0l-3.6-2.748a.945.945,0,0,0-1.326.177l-3.32,3.026a1.123,1.123,0,0,1-.35.3,15.146,15.146,0,0,0-3.073-1,1.137,1.137,0,0,1-.584-.838l-1.383-4.276a.945.945,0,0,0-1.062-.812h0l-4.488.6a.947.947,0,0,0-.812,1.064l-.208,4.486a1.145,1.145,0,0,1-.038.454,15.286,15.286,0,0,0-2.88,1.469,1.129,1.129,0,0,1-1.005-.18l-4-2.044a.945.945,0,0,0-1.326.177h0l-2.748,3.6a.946.946,0,0,0,.177,1.326l3.026,3.32a1.139,1.139,0,0,1,.3.35,15.187,15.187,0,0,0-1,3.073,1.138,1.138,0,0,1-.838.584l-4.276,1.383a.946.946,0,0,0-.812,1.062h0l.6,4.488a.946.946,0,0,0,1.064.812l4.487.209a1.128,1.128,0,0,1,.455.037,15.062,15.062,0,0,0,1.469,2.88,1.138,1.138,0,0,1-.18,1.005l-2.046,4a.945.945,0,0,0,.177,1.326h0l3.6,2.748a.945.945,0,0,0,1.326-.177l3.322-3.026a1.139,1.139,0,0,1,.348-.3,15.187,15.187,0,0,0,3.073,1,1.136,1.136,0,0,1,.584.84l1.383,4.274a.947.947,0,0,0,1.064.812h0l4.486-.6A.945.945,0,0,0,537.264,643.831Zm-11.645-18.3a6.506,6.506,0,1,1,7.314,5.585A6.506,6.506,0,0,1,525.619,625.531Z" transform="translate(-511.232 -603.832)" fill="#0f2771"/>
    </g>
    <g id="Grupo_171848" data-name="Grupo 171848" transform="translate(1527.755 531.599)">
      <g id="Grupo_171847" data-name="Grupo 171847" transform="translate(0 0)">
        <path id="Trazado_221428" data-name="Trazado 221428" d="M525.556,686.4h-49.3V595.479h68.164v72.055Z" transform="translate(-476.253 -595.479)" fill="#fff"/>
        <path id="Trazado_221429" data-name="Trazado 221429" d="M509.943,644.718h18.865l-18.865,18.866Z" transform="translate(-460.644 -572.667)" fill="#fff"/>
      </g>
      <rect id="Rectángulo_44918" data-name="Rectángulo 44918" width="31.538" height="6.01" transform="translate(18.313 7.163)" fill="#4dd0e1"/>
      <rect id="Rectángulo_44919" data-name="Rectángulo 44919" width="31.538" height="4.997" transform="translate(18.313 30.103)" fill="#4dd0e1"/>
      <rect id="Rectángulo_44920" data-name="Rectángulo 44920" width="31.538" height="4.997" transform="translate(18.313 18.886)" fill="#4dd0e1"/>
      <rect id="Rectángulo_44921" data-name="Rectángulo 44921" width="12.624" height="5.795" transform="translate(7.152 61.025)" fill="#4dd0e1"/>
      <rect id="Rectángulo_44922" data-name="Rectángulo 44922" width="12.624" height="5.795" transform="translate(7.152 75.294)" fill="#4dd0e1"/>
      <rect id="Rectángulo_44923" data-name="Rectángulo 44923" width="12.624" height="5.795" transform="translate(47.435 61.025)" fill="#4dd0e1"/>
      <rect id="Rectángulo_44924" data-name="Rectángulo 44924" width="12.615" height="12.615" transform="translate(25.162 49.615) rotate(-45)" fill="#4dd0e1"/>
      <path id="Trazado_221430" data-name="Trazado 221430" d="M499.674,639.215a.564.564,0,0,1-.565-.565V602.606a.565.565,0,1,1,1.13,0V638.65A.563.563,0,0,1,499.674,639.215Z" transform="translate(-465.663 -592.439)" fill="#4dd0e1"/>
      <path id="Trazado_221431" data-name="Trazado 221431" d="M526.727,630.13H485.633a.566.566,0,0,1,0-1.131h41.094a.566.566,0,0,1,0,1.131Z" transform="translate(-472.169 -579.95)" fill="#4dd0e1"/>
      <path id="Trazado_221432" data-name="Trazado 221432" d="M485.633,658.705a.564.564,0,0,1-.565-.565V629.564a.565.565,0,1,1,1.13,0v28.577A.565.565,0,0,1,485.633,658.705Z" transform="translate(-472.169 -579.95)" fill="#4dd0e1"/>
      <path id="Trazado_221433" data-name="Trazado 221433" d="M513.716,644.95a.564.564,0,0,1-.565-.565V629.564a.565.565,0,1,1,1.13,0v14.822A.563.563,0,0,1,513.716,644.95Z" transform="translate(-459.158 -579.95)" fill="#4dd0e1"/>
    </g>
  </g>
</svg>
