<svg xmlns="http://www.w3.org/2000/svg" xmlns:xlink="http://www.w3.org/1999/xlink" width="167.148" height="105.534" viewBox="0 0 167.148 105.534">
  <defs>
    <linearGradient id="linear-gradient" x1="0.5" y1="1" x2="0.5" gradientUnits="objectBoundingBox">
      <stop offset="0" stop-color="#fff"/>
      <stop offset="1" stop-color="#fff"/>
    </linearGradient>
    <linearGradient id="linear-gradient-2" x1="0.5" y1="1" x2="0.5" gradientUnits="objectBoundingBox">
      <stop offset="0" stop-color="#ffa700"/>
      <stop offset="1" stop-color="#ffd328"/>
    </linearGradient>
    <linearGradient id="linear-gradient-3" x1="0.597" y1="1.012" x2="0.3" y2="0.046" xlink:href="#linear-gradient-2"/>
    <radialGradient id="radial-gradient" cx="0.093" cy="0.336" r="0.771" gradientTransform="translate(-0.034) scale(1.069 1)" gradientUnits="objectBoundingBox">
      <stop offset="0" stop-color="#bddcf6"/>
      <stop offset="0.994" stop-color="#97b0c4"/>
      <stop offset="1" stop-color="#bddcf6"/>
    </radialGradient>
    <linearGradient id="linear-gradient-4" y1="0.5" x2="1" y2="0.5" gradientUnits="objectBoundingBox">
      <stop offset="0" stop-color="#ff3363"/>
      <stop offset="0.002" stop-color="#abb3cd"/>
      <stop offset="1" stop-color="#0f2771"/>
    </linearGradient>
  </defs>
  <g id="Grupo_172816" data-name="Grupo 172816" transform="translate(44.319 -838.335)">
    <g id="Grupo_140000" data-name="Grupo 140000" transform="translate(-44.319 838.335)">
      <path id="Trazado_197499" data-name="Trazado 197499" d="M5.677,1310.172,3.393,1205.926l167.148-1.289-3.418,105.309Z" transform="translate(-3.393 -1204.637)" fill-rule="evenodd" fill="url(#linear-gradient)"/>
      <path id="Trazado_197500" data-name="Trazado 197500" d="M3.393,1205.926v10.139H170.17l.371-11.427Z" transform="translate(-3.393 -1204.637)" fill="#4dd0e1" fill-rule="evenodd" style="mix-blend-mode: multiply;isolation: isolate"/>
      <g id="Grupo_139992" data-name="Grupo 139992" transform="translate(50.45 17.868)">
        <g id="Grupo_139991" data-name="Grupo 139991" transform="translate(0 10.732)" opacity="0.2" style="mix-blend-mode: multiply;isolation: isolate">
          <rect id="Rectángulo_43864" data-name="Rectángulo 43864" width="69.302" height="1.573" transform="translate(0 7.399)" fill="#4dd0e1"/>
          <rect id="Rectángulo_43865" data-name="Rectángulo 43865" width="45.853" height="1.573" fill="#4dd0e1"/>
          <g id="Grupo_139990" data-name="Grupo 139990" transform="translate(0 3.653)">
            <rect id="Rectángulo_43866" data-name="Rectángulo 43866" width="45.853" height="1.573" transform="translate(0 0.094)" fill="#4dd0e1"/>
            <rect id="Rectángulo_43867" data-name="Rectángulo 43867" width="5.901" height="1.573" transform="translate(48.796)" fill="#4dd0e1"/>
          </g>
        </g>
        <rect id="Rectángulo_43868" data-name="Rectángulo 43868" width="39.852" height="8.859" fill="#4dd0e1" opacity="0.2" style="mix-blend-mode: multiply;isolation: isolate"/>
      </g>
      <g id="Grupo_139993" data-name="Grupo 139993" transform="translate(156.633 2.689)" style="isolation: isolate">
        <path id="Trazado_197501" data-name="Trazado 197501" d="M883.321,1218.858l1.362-1.362,4.58,5.368-.681.681Z" transform="translate(-883.321 -1217.496)" fill="#fff"/>
        <path id="Trazado_197502" data-name="Trazado 197502" d="M889.379,1217.5l1.362,1.362-5.368,4.58-.681-.681Z" transform="translate(-884.406 -1217.496)" fill="#fff"/>
      </g>
      <g id="Grupo_139994" data-name="Grupo 139994" transform="translate(17.312 29.131)">
        <path id="Trazado_197503" data-name="Trazado 197503" d="M254.514,1389.855l-.488.955,25.371-10.046,20.936,7.073,18.813-28.575,24.395,31.113L378,1350.52l2.449,2.446.728-9.3-8.451,2.824,2.477,1.791-31.415,36.15-24.646-29.5-19.588,30.449-20.3-5.891Z" transform="translate(-252.395 -1343.671)" fill-rule="evenodd" fill="url(#linear-gradient-2)"/>
        <path id="Trazado_197504" data-name="Trazado 197504" d="M263.911,1585.46h-5.945v-19.515l5.945-2.493Z" transform="translate(-255.511 -1517.529)" fill="#4dd0e1" opacity="0.2" style="mix-blend-mode: multiply;isolation: isolate"/>
        <path id="Trazado_197505" data-name="Trazado 197505" d="M324.32,1567.99h-5.945V1543.86l5.945-2.493Z" transform="translate(-303.298 -1500.058)" fill="#4dd0e1" opacity="0.2" style="mix-blend-mode: multiply;isolation: isolate"/>
        <path id="Trazado_197506" data-name="Trazado 197506" d="M384.729,1560.984h-5.945v-28.473l5.945,2.239Z" transform="translate(-351.085 -1493.053)" fill="#4dd0e1" opacity="0.2" style="mix-blend-mode: multiply;isolation: isolate"/>
        <path id="Trazado_197507" data-name="Trazado 197507" d="M445.138,1575.332h-5.945v-24.683l5.945,2.006Z" transform="translate(-398.871 -1507.401)" fill="#4dd0e1" opacity="0.2" style="mix-blend-mode: multiply;isolation: isolate"/>
        <path id="Trazado_197508" data-name="Trazado 197508" d="M505.547,1526.4H499.6v-28.473l5.945-9.136Z" transform="translate(-446.658 -1458.466)" fill="#4dd0e1" opacity="0.2" style="mix-blend-mode: multiply;isolation: isolate"/>
        <path id="Trazado_197509" data-name="Trazado 197509" d="M565.957,1480.242h-5.945v-47.571l1.167-2.229,4.778,6.279Z" transform="translate(-494.445 -1412.311)" fill="#4dd0e1" opacity="0.2" style="mix-blend-mode: multiply;isolation: isolate"/>
        <path id="Trazado_197510" data-name="Trazado 197510" d="M626.366,1534.257h-5.945v-35.532l5.945,8.323Z" transform="translate(-542.231 -1466.326)" fill="#4dd0e1" opacity="0.2" style="mix-blend-mode: multiply;isolation: isolate"/>
        <path id="Trazado_197511" data-name="Trazado 197511" d="M686.775,1574.51H680.83v-18.8l5.945-6.1Z" transform="translate(-590.018 -1506.579)" fill="#4dd0e1" opacity="0.2" style="mix-blend-mode: multiply;isolation: isolate"/>
        <path id="Trazado_197512" data-name="Trazado 197512" d="M747.184,1520.159h-5.945v-31.725l5.945-7.531Z" transform="translate(-637.805 -1452.228)" fill="#4dd0e1" opacity="0.2" style="mix-blend-mode: multiply;isolation: isolate"/>
        <path id="Trazado_197513" data-name="Trazado 197513" d="M807.594,1463.925h-5.945v-46.976l5.945-7.134Z" transform="translate(-685.592 -1395.994)" fill="#4dd0e1" opacity="0.2" style="mix-blend-mode: multiply;isolation: isolate"/>
        <rect id="Rectángulo_43869" data-name="Rectángulo 43869" width="126.454" height="1.632" transform="translate(0 67.931)" fill="#4dd0e1" opacity="0.2" style="mix-blend-mode: multiply;isolation: isolate"/>
      </g>
      <g id="Grupo_139999" data-name="Grupo 139999" transform="translate(19.455 14.094)">
        <path id="Trazado_197609" data-name="Trazado 197609" d="M71.491,1298.339a13.152,13.152,0,1,1-6.5-21.383l-3.385,12.71Z" transform="translate(-48.438 -1275.578)" fill-rule="evenodd" fill="url(#linear-gradient-3)"/>
        <path id="Trazado_197610" data-name="Trazado 197610" d="M136.882,1317.742a13.066,13.066,0,0,1-3.263,8.673l-9.889-8.673,12-5.387A13.032,13.032,0,0,1,136.882,1317.742Z" transform="translate(-107.984 -1303.923)" fill-rule="evenodd" fill="url(#radial-gradient)"/>
        <path id="Trazado_197611" data-name="Trazado 197611" d="M133.638,1279.359l-12,5.387,3.385-12.71A13.171,13.171,0,0,1,133.638,1279.359Z" transform="translate(-106.329 -1272.036)" fill-rule="evenodd" fill="url(#linear-gradient-4)"/>
      </g>
    </g>
  </g>
</svg>
