<svg xmlns="http://www.w3.org/2000/svg" width="99.091" height="98.332" viewBox="0 0 99.091 98.332">
  <g id="Grupo_172817" data-name="Grupo 172817" transform="translate(-1286.53 -165.317)">
    <g id="Grupo_171986" data-name="Grupo 171986" transform="translate(1286.53 165.317)">
      <g id="Grupo_171975" data-name="Grupo 171975" transform="translate(0 21.129)">
        <g id="Grupo_171874" data-name="Grupo 171874" transform="translate(0 20.905)">
          <g id="Grupo_171873" data-name="Grupo 171873" style="isolation: isolate">
            <g id="Grupo_171850" data-name="Grupo 171850" transform="translate(1.384 0)">
              <path id="Trazado_221434" data-name="Trazado 221434" d="M463.451,513.97l0-2.241,11.677-5.512,0,2.211Z" transform="translate(-463.448 -506.217)" fill="#fff"/>
            </g>
            <g id="Grupo_171851" data-name="Grupo 171851" transform="translate(1.384 5.502)">
              <rect id="Rectángulo_44925" data-name="Rectángulo 44925" width="11.545" height="2.241" transform="translate(0 0.019) rotate(-0.093)" fill="#024563"/>
            </g>
            <g id="Grupo_171852" data-name="Grupo 171852" transform="translate(1.384 0)">
              <path id="Trazado_221435" data-name="Trazado 221435" d="M474.994,511.729H463.448l11.677-5.512Z" transform="translate(-463.448 -506.217)" fill="#6372a3"/>
            </g>
            <g id="Grupo_171853" data-name="Grupo 171853" transform="translate(3.963 6.894)">
              <path id="Trazado_221436" data-name="Trazado 221436" d="M465.372,513.6l0-2.249h36.561l0,2.249Z" transform="translate(-465.368 -511.351)" fill="#fff"/>
            </g>
            <g id="Grupo_171854" data-name="Grupo 171854" transform="translate(3.888 8.52)">
              <path id="Trazado_221437" data-name="Trazado 221437" d="M465.315,514.82l0-2.258h36.712l0,2.258Z" transform="translate(-465.312 -512.562)" fill="#024563"/>
            </g>
            <g id="Grupo_171855" data-name="Grupo 171855" transform="translate(3.888 6.894)">
              <path id="Trazado_221438" data-name="Trazado 221438" d="M502.024,512.978H465.312l.076-1.627h36.561Z" transform="translate(-465.312 -511.351)" fill="#6372a3"/>
            </g>
            <g id="Grupo_171856" data-name="Grupo 171856" transform="translate(3.805 10.302)">
              <path id="Trazado_221439" data-name="Trazado 221439" d="M465.254,516.157l0-2.268h36.878l0,2.268Z" transform="translate(-465.25 -513.889)" fill="#fff"/>
            </g>
            <g id="Grupo_171857" data-name="Grupo 171857" transform="translate(3.728 10.302)">
              <path id="Trazado_221440" data-name="Trazado 221440" d="M502.225,515.544H465.193l.077-1.655h36.878Z" transform="translate(-465.193 -513.889)" fill="#6372a3"/>
            </g>
            <g id="Grupo_171858" data-name="Grupo 171858" transform="translate(3.728 11.957)">
              <path id="Trazado_221441" data-name="Trazado 221441" d="M465.2,517.4l0-2.277h37.032l0,2.277Z" transform="translate(-465.193 -515.122)" fill="#024563"/>
            </g>
            <g id="Grupo_171859" data-name="Grupo 171859" transform="translate(3.644 13.767)">
              <path id="Trazado_221442" data-name="Trazado 221442" d="M465.134,518.757l0-2.287h37.2l0,2.287Z" transform="translate(-465.13 -516.47)" fill="#fff"/>
            </g>
            <g id="Grupo_171860" data-name="Grupo 171860" transform="translate(3.565 15.455)">
              <path id="Trazado_221443" data-name="Trazado 221443" d="M465.075,520.023l0-2.3h37.357l0,2.3Z" transform="translate(-465.072 -517.726)" fill="#024563"/>
            </g>
            <g id="Grupo_171861" data-name="Grupo 171861" transform="translate(3.565 13.767)">
              <path id="Trazado_221444" data-name="Trazado 221444" d="M502.429,518.157H465.072l.079-1.688h37.2Z" transform="translate(-465.072 -516.47)" fill="#6372a3"/>
            </g>
            <g id="Grupo_171862" data-name="Grupo 171862" transform="translate(3.479 17.296)">
              <path id="Trazado_221445" data-name="Trazado 221445" d="M465.012,521.4l0-2.307h37.528l0,2.307Z" transform="translate(-465.008 -519.098)" fill="#fff"/>
            </g>
            <g id="Grupo_171863" data-name="Grupo 171863" transform="translate(3.399 17.296)">
              <path id="Trazado_221446" data-name="Trazado 221446" d="M502.637,520.816H464.949l.08-1.718h37.528Z" transform="translate(-464.949 -519.098)" fill="#6372a3"/>
            </g>
            <g id="Grupo_171864" data-name="Grupo 171864" transform="translate(3.399 19.014)">
              <path id="Trazado_221447" data-name="Trazado 221447" d="M464.952,522.693l0-2.316h37.688l0,2.316Z" transform="translate(-464.949 -520.377)" fill="#024563"/>
            </g>
            <g id="Grupo_171865" data-name="Grupo 171865" transform="translate(3.312 20.889)">
              <path id="Trazado_221448" data-name="Trazado 221448" d="M464.887,524.1l0-2.326h37.862l0,2.326Z" transform="translate(-464.884 -521.773)" fill="#fff"/>
            </g>
            <g id="Grupo_171866" data-name="Grupo 171866" transform="translate(3.231 22.637)">
              <path id="Trazado_221449" data-name="Trazado 221449" d="M464.827,525.412l0-2.336h38.025l0,2.336Z" transform="translate(-464.823 -523.076)" fill="#024463"/>
            </g>
            <g id="Grupo_171867" data-name="Grupo 171867" transform="translate(3.231 20.889)">
              <path id="Trazado_221450" data-name="Trazado 221450" d="M502.848,523.522H464.823l.081-1.749h37.862Z" transform="translate(-464.823 -521.773)" fill="#6372a3"/>
            </g>
            <g id="Grupo_171868" data-name="Grupo 171868" transform="translate(3.142 24.546)">
              <path id="Trazado_221451" data-name="Trazado 221451" d="M464.76,526.843l0-2.347h38.2l0,2.347Z" transform="translate(-464.757 -524.497)" fill="#fff"/>
            </g>
            <g id="Grupo_171869" data-name="Grupo 171869" transform="translate(3.06 24.546)">
              <path id="Trazado_221452" data-name="Trazado 221452" d="M503.063,526.273H464.7l.083-1.776h38.2Z" transform="translate(-464.695 -524.497)" fill="#6372a3"/>
            </g>
            <g id="Grupo_171870" data-name="Grupo 171870" transform="translate(3.06 26.322)">
              <path id="Trazado_221453" data-name="Trazado 221453" d="M464.7,528.176l0-2.357h38.368l0,2.357Z" transform="translate(-464.695 -525.82)" fill="#024463"/>
            </g>
            <g id="Grupo_171871" data-name="Grupo 171871">
              <path id="Trazado_221454" data-name="Trazado 221454" d="M462.417,537.7l1.384-25.973h11.545l.132-5.512h29.748L506.9,537.7Zm41.175-10.6H465.73l-.082,1.75h38.025l-.081-1.75Zm-.168-3.592H465.9l-.079,1.717H503.5l-.081-1.717Zm-.164-3.529h-37.2l-.078,1.687H503.34l-.079-1.687Zm-.161-3.466H466.221l-.077,1.656h37.031l-.077-1.656Zm.662,14.244h-38.2l-.082,1.777h38.367l-.083-1.777Zm-.82-17.652H466.38l-.075,1.626h36.712l-.075-1.626Z" transform="translate(-462.417 -506.217)" fill="#4dd0e1"/>
            </g>
            <g id="Grupo_171872" data-name="Grupo 171872" transform="translate(0 31.485)">
              <path id="Trazado_221455" data-name="Trazado 221455" d="M462.422,532.05l0-2.385H506.9l0,2.385Z" transform="translate(-462.417 -529.665)" fill="#fff"/>
            </g>
          </g>
        </g>
        <g id="Grupo_171899" data-name="Grupo 171899" transform="translate(0 15.679)">
          <g id="Grupo_171898" data-name="Grupo 171898" style="isolation: isolate">
            <g id="Grupo_171875" data-name="Grupo 171875" transform="translate(1.384)">
              <path id="Trazado_221456" data-name="Trazado 221456" d="M463.451,510.078l0-2.241,11.677-5.512,0,2.211Z" transform="translate(-463.448 -502.325)" fill="#fff"/>
            </g>
            <g id="Grupo_171876" data-name="Grupo 171876" transform="translate(1.384 5.503)">
              <rect id="Rectángulo_44926" data-name="Rectángulo 44926" width="11.545" height="2.241" transform="translate(0 0.019) rotate(-0.093)" fill="#024563"/>
            </g>
            <g id="Grupo_171877" data-name="Grupo 171877" transform="translate(1.384)">
              <path id="Trazado_221457" data-name="Trazado 221457" d="M474.994,507.837H463.448l11.677-5.512Z" transform="translate(-463.448 -502.325)" fill="#6372a3"/>
            </g>
            <g id="Grupo_171878" data-name="Grupo 171878" transform="translate(3.963 6.894)">
              <path id="Trazado_221458" data-name="Trazado 221458" d="M465.372,509.708l0-2.249h36.561l0,2.249Z" transform="translate(-465.368 -507.459)" fill="#fff"/>
            </g>
            <g id="Grupo_171879" data-name="Grupo 171879" transform="translate(3.888 8.52)">
              <path id="Trazado_221459" data-name="Trazado 221459" d="M465.315,510.928l0-2.258h36.712l0,2.258Z" transform="translate(-465.312 -508.67)" fill="#024563"/>
            </g>
            <g id="Grupo_171880" data-name="Grupo 171880" transform="translate(3.888 6.894)">
              <path id="Trazado_221460" data-name="Trazado 221460" d="M502.024,509.085H465.312l.076-1.627h36.561Z" transform="translate(-465.312 -507.459)" fill="#6372a3"/>
            </g>
            <g id="Grupo_171881" data-name="Grupo 171881" transform="translate(3.805 10.302)">
              <path id="Trazado_221461" data-name="Trazado 221461" d="M465.254,512.265l0-2.268h36.878l0,2.268Z" transform="translate(-465.25 -509.997)" fill="#fff"/>
            </g>
            <g id="Grupo_171882" data-name="Grupo 171882" transform="translate(3.728 10.302)">
              <path id="Trazado_221462" data-name="Trazado 221462" d="M502.225,511.652H465.193L465.27,510h36.878Z" transform="translate(-465.193 -509.997)" fill="#6372a3"/>
            </g>
            <g id="Grupo_171883" data-name="Grupo 171883" transform="translate(3.728 11.957)">
              <path id="Trazado_221463" data-name="Trazado 221463" d="M465.2,513.507l0-2.277h37.032l0,2.277Z" transform="translate(-465.193 -511.23)" fill="#024563"/>
            </g>
            <g id="Grupo_171884" data-name="Grupo 171884" transform="translate(3.644 13.767)">
              <path id="Trazado_221464" data-name="Trazado 221464" d="M465.134,514.865l0-2.287h37.2l0,2.287Z" transform="translate(-465.13 -512.577)" fill="#fff"/>
            </g>
            <g id="Grupo_171885" data-name="Grupo 171885" transform="translate(3.565 15.455)">
              <path id="Trazado_221465" data-name="Trazado 221465" d="M465.075,516.131l0-2.3h37.357l0,2.3Z" transform="translate(-465.072 -513.834)" fill="#024563"/>
            </g>
            <g id="Grupo_171886" data-name="Grupo 171886" transform="translate(3.565 13.767)">
              <path id="Trazado_221466" data-name="Trazado 221466" d="M502.429,514.265H465.072l.079-1.688h37.2Z" transform="translate(-465.072 -512.577)" fill="#6372a3"/>
            </g>
            <g id="Grupo_171887" data-name="Grupo 171887" transform="translate(3.479 17.296)">
              <path id="Trazado_221467" data-name="Trazado 221467" d="M465.012,517.513l0-2.307h37.528l0,2.307Z" transform="translate(-465.008 -515.206)" fill="#fff"/>
            </g>
            <g id="Grupo_171888" data-name="Grupo 171888" transform="translate(3.399 17.296)">
              <path id="Trazado_221468" data-name="Trazado 221468" d="M502.637,516.924H464.949l.08-1.718h37.528Z" transform="translate(-464.949 -515.206)" fill="#6372a3"/>
            </g>
            <g id="Grupo_171889" data-name="Grupo 171889" transform="translate(3.399 19.014)">
              <path id="Trazado_221469" data-name="Trazado 221469" d="M464.952,518.8l0-2.316h37.688l0,2.316Z" transform="translate(-464.949 -516.485)" fill="#024563"/>
            </g>
            <g id="Grupo_171890" data-name="Grupo 171890" transform="translate(3.312 20.889)">
              <path id="Trazado_221470" data-name="Trazado 221470" d="M464.887,520.208l0-2.327h37.862l0,2.327Z" transform="translate(-464.884 -517.881)" fill="#fff"/>
            </g>
            <g id="Grupo_171891" data-name="Grupo 171891" transform="translate(3.231 22.637)">
              <path id="Trazado_221471" data-name="Trazado 221471" d="M464.827,521.52l0-2.336h38.025l0,2.336Z" transform="translate(-464.823 -519.183)" fill="#024463"/>
            </g>
            <g id="Grupo_171892" data-name="Grupo 171892" transform="translate(3.231 20.889)">
              <path id="Trazado_221472" data-name="Trazado 221472" d="M502.848,519.63H464.823l.081-1.749h37.862Z" transform="translate(-464.823 -517.881)" fill="#6372a3"/>
            </g>
            <g id="Grupo_171893" data-name="Grupo 171893" transform="translate(3.142 24.546)">
              <path id="Trazado_221473" data-name="Trazado 221473" d="M464.76,522.951l0-2.347h38.2l0,2.347Z" transform="translate(-464.757 -520.604)" fill="#fff"/>
            </g>
            <g id="Grupo_171894" data-name="Grupo 171894" transform="translate(3.06 24.546)">
              <path id="Trazado_221474" data-name="Trazado 221474" d="M503.063,522.381H464.7l.083-1.776h38.2Z" transform="translate(-464.695 -520.604)" fill="#6372a3"/>
            </g>
            <g id="Grupo_171895" data-name="Grupo 171895" transform="translate(3.06 26.322)">
              <path id="Trazado_221475" data-name="Trazado 221475" d="M464.7,524.284l0-2.356h38.368l0,2.356Z" transform="translate(-464.695 -521.928)" fill="#024463"/>
            </g>
            <g id="Grupo_171896" data-name="Grupo 171896" transform="translate(0 0)">
              <path id="Trazado_221476" data-name="Trazado 221476" d="M462.417,533.809l1.384-25.972h11.545l.132-5.512h29.748l1.677,31.484Zm41.175-10.6H465.73l-.082,1.748h38.025l-.081-1.748Zm-.168-3.592H465.9l-.079,1.717H503.5l-.081-1.717Zm-.164-3.53h-37.2l-.078,1.688H503.34l-.079-1.688Zm-.161-3.464H466.221l-.077,1.656h37.031l-.077-1.656Zm.662,14.244h-38.2l-.082,1.777h38.367l-.083-1.777Zm-.82-17.652H466.38l-.075,1.626h36.712l-.075-1.626Z" transform="translate(-462.417 -502.325)" fill="#4dd0e1"/>
            </g>
            <g id="Grupo_171897" data-name="Grupo 171897" transform="translate(0 31.485)">
              <path id="Trazado_221477" data-name="Trazado 221477" d="M462.422,528.158l0-2.385H506.9l0,2.385Z" transform="translate(-462.417 -525.772)" fill="#fff"/>
            </g>
          </g>
        </g>
        <g id="Grupo_171924" data-name="Grupo 171924" transform="translate(0 10.452)">
          <g id="Grupo_171923" data-name="Grupo 171923" style="isolation: isolate">
            <g id="Grupo_171900" data-name="Grupo 171900" transform="translate(1.384 0)">
              <path id="Trazado_221478" data-name="Trazado 221478" d="M463.451,506.186l0-2.241,11.677-5.512,0,2.211Z" transform="translate(-463.448 -498.433)" fill="#fff"/>
            </g>
            <g id="Grupo_171901" data-name="Grupo 171901" transform="translate(1.384 5.503)">
              <rect id="Rectángulo_44927" data-name="Rectángulo 44927" width="11.545" height="2.241" transform="translate(0 0.019) rotate(-0.093)" fill="#024563"/>
            </g>
            <g id="Grupo_171902" data-name="Grupo 171902" transform="translate(1.384)">
              <path id="Trazado_221479" data-name="Trazado 221479" d="M474.994,503.945H463.448l11.677-5.512Z" transform="translate(-463.448 -498.433)" fill="#6372a3"/>
            </g>
            <g id="Grupo_171903" data-name="Grupo 171903" transform="translate(3.963 6.894)">
              <path id="Trazado_221480" data-name="Trazado 221480" d="M465.372,505.816l0-2.249h36.561l0,2.249Z" transform="translate(-465.368 -503.567)" fill="#fff"/>
            </g>
            <g id="Grupo_171904" data-name="Grupo 171904" transform="translate(3.888 8.52)">
              <path id="Trazado_221481" data-name="Trazado 221481" d="M465.315,507.036l0-2.258h36.712l0,2.258Z" transform="translate(-465.312 -504.778)" fill="#024563"/>
            </g>
            <g id="Grupo_171905" data-name="Grupo 171905" transform="translate(3.888 6.894)">
              <path id="Trazado_221482" data-name="Trazado 221482" d="M502.024,505.193H465.312l.076-1.627h36.561Z" transform="translate(-465.312 -503.567)" fill="#6372a3"/>
            </g>
            <g id="Grupo_171906" data-name="Grupo 171906" transform="translate(3.805 10.302)">
              <path id="Trazado_221483" data-name="Trazado 221483" d="M465.254,508.373l0-2.268h36.878l0,2.268Z" transform="translate(-465.25 -506.105)" fill="#fff"/>
            </g>
            <g id="Grupo_171907" data-name="Grupo 171907" transform="translate(3.728 10.302)">
              <path id="Trazado_221484" data-name="Trazado 221484" d="M502.225,507.76H465.193l.077-1.655h36.878Z" transform="translate(-465.193 -506.105)" fill="#6372a3"/>
            </g>
            <g id="Grupo_171908" data-name="Grupo 171908" transform="translate(3.728 11.957)">
              <path id="Trazado_221485" data-name="Trazado 221485" d="M465.2,509.615l0-2.277h37.032l0,2.277Z" transform="translate(-465.193 -507.338)" fill="#024563"/>
            </g>
            <g id="Grupo_171909" data-name="Grupo 171909" transform="translate(3.644 13.767)">
              <path id="Trazado_221486" data-name="Trazado 221486" d="M465.134,510.972l0-2.287h37.2l0,2.287Z" transform="translate(-465.13 -508.685)" fill="#fff"/>
            </g>
            <g id="Grupo_171910" data-name="Grupo 171910" transform="translate(3.565 15.455)">
              <path id="Trazado_221487" data-name="Trazado 221487" d="M465.075,512.239l0-2.3h37.357l0,2.3Z" transform="translate(-465.072 -509.942)" fill="#024563"/>
            </g>
            <g id="Grupo_171911" data-name="Grupo 171911" transform="translate(3.565 13.767)">
              <path id="Trazado_221488" data-name="Trazado 221488" d="M502.429,510.373H465.072l.079-1.688h37.2Z" transform="translate(-465.072 -508.685)" fill="#6372a3"/>
            </g>
            <g id="Grupo_171912" data-name="Grupo 171912" transform="translate(3.479 17.296)">
              <path id="Trazado_221489" data-name="Trazado 221489" d="M465.012,513.62l0-2.307h37.528l0,2.307Z" transform="translate(-465.008 -511.314)" fill="#fff"/>
            </g>
            <g id="Grupo_171913" data-name="Grupo 171913" transform="translate(3.399 17.296)">
              <path id="Trazado_221490" data-name="Trazado 221490" d="M502.637,513.032H464.949l.08-1.718h37.528Z" transform="translate(-464.949 -511.314)" fill="#6372a3"/>
            </g>
            <g id="Grupo_171914" data-name="Grupo 171914" transform="translate(3.399 19.014)">
              <path id="Trazado_221491" data-name="Trazado 221491" d="M464.952,514.909l0-2.316h37.688l0,2.316Z" transform="translate(-464.949 -512.593)" fill="#024563"/>
            </g>
            <g id="Grupo_171915" data-name="Grupo 171915" transform="translate(3.312 20.889)">
              <path id="Trazado_221492" data-name="Trazado 221492" d="M464.887,516.316l0-2.326h37.862l0,2.326Z" transform="translate(-464.884 -513.989)" fill="#fff"/>
            </g>
            <g id="Grupo_171916" data-name="Grupo 171916" transform="translate(3.231 22.637)">
              <path id="Trazado_221493" data-name="Trazado 221493" d="M464.827,517.628l0-2.336h38.025l0,2.336Z" transform="translate(-464.823 -515.291)" fill="#024463"/>
            </g>
            <g id="Grupo_171917" data-name="Grupo 171917" transform="translate(3.231 20.889)">
              <path id="Trazado_221494" data-name="Trazado 221494" d="M502.848,515.738H464.823l.081-1.749h37.862Z" transform="translate(-464.823 -513.989)" fill="#6372a3"/>
            </g>
            <g id="Grupo_171918" data-name="Grupo 171918" transform="translate(3.142 24.546)">
              <path id="Trazado_221495" data-name="Trazado 221495" d="M464.76,519.059l0-2.347h38.2l0,2.347Z" transform="translate(-464.757 -516.712)" fill="#fff"/>
            </g>
            <g id="Grupo_171919" data-name="Grupo 171919" transform="translate(3.06 24.546)">
              <path id="Trazado_221496" data-name="Trazado 221496" d="M503.063,518.489H464.7l.083-1.776h38.2Z" transform="translate(-464.695 -516.712)" fill="#6372a3"/>
            </g>
            <g id="Grupo_171920" data-name="Grupo 171920" transform="translate(3.06 26.322)">
              <path id="Trazado_221497" data-name="Trazado 221497" d="M464.7,520.392l0-2.357h38.368l0,2.357Z" transform="translate(-464.695 -518.035)" fill="#024463"/>
            </g>
            <g id="Grupo_171921" data-name="Grupo 171921" transform="translate(0 0)">
              <path id="Trazado_221498" data-name="Trazado 221498" d="M462.417,529.917l1.384-25.972h11.545l.132-5.512h29.748l1.677,31.484Zm41.175-10.6H465.73l-.082,1.748h38.025l-.081-1.748Zm-.168-3.592H465.9l-.079,1.717H503.5l-.081-1.717Zm-.164-3.53h-37.2l-.078,1.688H503.34l-.079-1.688Zm-.161-3.464H466.221l-.077,1.656h37.031l-.077-1.656Zm.662,14.243h-38.2l-.082,1.777h38.367l-.083-1.777Zm-.82-17.651H466.38l-.075,1.626h36.712l-.075-1.626Z" transform="translate(-462.417 -498.433)" fill="#4dd0e1"/>
            </g>
            <g id="Grupo_171922" data-name="Grupo 171922" transform="translate(0 31.485)">
              <path id="Trazado_221499" data-name="Trazado 221499" d="M462.422,524.266l0-2.385H506.9l0,2.385Z" transform="translate(-462.417 -521.88)" fill="#fff"/>
            </g>
          </g>
        </g>
        <g id="Grupo_171949" data-name="Grupo 171949" transform="translate(0 5.226)">
          <g id="Grupo_171948" data-name="Grupo 171948" style="isolation: isolate">
            <g id="Grupo_171925" data-name="Grupo 171925" transform="translate(1.384)">
              <path id="Trazado_221500" data-name="Trazado 221500" d="M463.451,502.294l0-2.241,11.677-5.512,0,2.211Z" transform="translate(-463.448 -494.541)" fill="#fff"/>
            </g>
            <g id="Grupo_171926" data-name="Grupo 171926" transform="translate(1.384 5.502)">
              <rect id="Rectángulo_44928" data-name="Rectángulo 44928" width="11.545" height="2.241" transform="translate(0 0.019) rotate(-0.093)" fill="#024563"/>
            </g>
            <g id="Grupo_171927" data-name="Grupo 171927" transform="translate(1.384)">
              <path id="Trazado_221501" data-name="Trazado 221501" d="M474.994,500.053H463.448l11.677-5.512Z" transform="translate(-463.448 -494.541)" fill="#6372a3"/>
            </g>
            <g id="Grupo_171928" data-name="Grupo 171928" transform="translate(3.963 6.893)">
              <path id="Trazado_221502" data-name="Trazado 221502" d="M465.372,501.924l0-2.249h36.561l0,2.249Z" transform="translate(-465.368 -499.675)" fill="#fff"/>
            </g>
            <g id="Grupo_171929" data-name="Grupo 171929" transform="translate(3.888 8.52)">
              <path id="Trazado_221503" data-name="Trazado 221503" d="M465.315,503.144l0-2.258h36.712l0,2.258Z" transform="translate(-465.312 -500.886)" fill="#024563"/>
            </g>
            <g id="Grupo_171930" data-name="Grupo 171930" transform="translate(3.888 6.893)">
              <path id="Trazado_221504" data-name="Trazado 221504" d="M502.024,501.3H465.312l.076-1.627h36.561Z" transform="translate(-465.312 -499.675)" fill="#6372a3"/>
            </g>
            <g id="Grupo_171931" data-name="Grupo 171931" transform="translate(3.805 10.302)">
              <path id="Trazado_221505" data-name="Trazado 221505" d="M465.254,504.481l0-2.268h36.878l0,2.268Z" transform="translate(-465.25 -502.213)" fill="#fff"/>
            </g>
            <g id="Grupo_171932" data-name="Grupo 171932" transform="translate(3.728 10.302)">
              <path id="Trazado_221506" data-name="Trazado 221506" d="M502.225,503.868H465.193l.077-1.655h36.878Z" transform="translate(-465.193 -502.213)" fill="#6372a3"/>
            </g>
            <g id="Grupo_171933" data-name="Grupo 171933" transform="translate(3.728 11.957)">
              <path id="Trazado_221507" data-name="Trazado 221507" d="M465.2,505.723l0-2.277h37.032l0,2.277Z" transform="translate(-465.193 -503.446)" fill="#024563"/>
            </g>
            <g id="Grupo_171934" data-name="Grupo 171934" transform="translate(3.644 13.767)">
              <path id="Trazado_221508" data-name="Trazado 221508" d="M465.134,507.08l0-2.287h37.2l0,2.287Z" transform="translate(-465.13 -504.793)" fill="#fff"/>
            </g>
            <g id="Grupo_171935" data-name="Grupo 171935" transform="translate(3.565 15.455)">
              <path id="Trazado_221509" data-name="Trazado 221509" d="M465.075,508.347l0-2.3h37.357l0,2.3Z" transform="translate(-465.072 -506.05)" fill="#024563"/>
            </g>
            <g id="Grupo_171936" data-name="Grupo 171936" transform="translate(3.565 13.767)">
              <path id="Trazado_221510" data-name="Trazado 221510" d="M502.429,506.481H465.072l.079-1.688h37.2Z" transform="translate(-465.072 -504.793)" fill="#6372a3"/>
            </g>
            <g id="Grupo_171937" data-name="Grupo 171937" transform="translate(3.479 17.296)">
              <path id="Trazado_221511" data-name="Trazado 221511" d="M465.012,509.728l0-2.306h37.528l0,2.306Z" transform="translate(-465.008 -507.422)" fill="#fff"/>
            </g>
            <g id="Grupo_171938" data-name="Grupo 171938" transform="translate(3.399 17.296)">
              <path id="Trazado_221512" data-name="Trazado 221512" d="M502.637,509.14H464.949l.08-1.718h37.528Z" transform="translate(-464.949 -507.422)" fill="#6372a3"/>
            </g>
            <g id="Grupo_171939" data-name="Grupo 171939" transform="translate(3.399 19.014)">
              <path id="Trazado_221513" data-name="Trazado 221513" d="M464.952,511.017l0-2.316h37.688l0,2.316Z" transform="translate(-464.949 -508.701)" fill="#024563"/>
            </g>
            <g id="Grupo_171940" data-name="Grupo 171940" transform="translate(3.312 20.889)">
              <path id="Trazado_221514" data-name="Trazado 221514" d="M464.887,512.424l0-2.326h37.862l0,2.326Z" transform="translate(-464.884 -510.097)" fill="#fff"/>
            </g>
            <g id="Grupo_171941" data-name="Grupo 171941" transform="translate(3.231 22.637)">
              <path id="Trazado_221515" data-name="Trazado 221515" d="M464.827,513.735l0-2.336h38.025l0,2.336Z" transform="translate(-464.823 -511.399)" fill="#024463"/>
            </g>
            <g id="Grupo_171942" data-name="Grupo 171942" transform="translate(3.231 20.889)">
              <path id="Trazado_221516" data-name="Trazado 221516" d="M502.848,511.846H464.823l.081-1.749h37.862Z" transform="translate(-464.823 -510.097)" fill="#6372a3"/>
            </g>
            <g id="Grupo_171943" data-name="Grupo 171943" transform="translate(3.142 24.545)">
              <path id="Trazado_221517" data-name="Trazado 221517" d="M464.76,515.167l0-2.347h38.2l0,2.347Z" transform="translate(-464.757 -512.82)" fill="#fff"/>
            </g>
            <g id="Grupo_171944" data-name="Grupo 171944" transform="translate(3.06 24.545)">
              <path id="Trazado_221518" data-name="Trazado 221518" d="M503.063,514.6H464.7l.083-1.776h38.2Z" transform="translate(-464.695 -512.82)" fill="#6372a3"/>
            </g>
            <g id="Grupo_171945" data-name="Grupo 171945" transform="translate(3.06 26.322)">
              <path id="Trazado_221519" data-name="Trazado 221519" d="M464.7,516.5l0-2.357h38.368l0,2.357Z" transform="translate(-464.695 -514.143)" fill="#024463"/>
            </g>
            <g id="Grupo_171946" data-name="Grupo 171946" transform="translate(0 0)">
              <path id="Trazado_221520" data-name="Trazado 221520" d="M462.417,526.025l1.384-25.972h11.545l.132-5.512h29.748l1.677,31.484Zm41.175-10.6H465.73l-.082,1.748h38.025l-.081-1.748Zm-.168-3.592H465.9l-.079,1.717H503.5l-.081-1.717Zm-.164-3.53h-37.2L465.982,510H503.34l-.079-1.688Zm-.161-3.464H466.221l-.077,1.656h37.031l-.077-1.656Zm.662,14.243h-38.2l-.082,1.776h38.367l-.083-1.776Zm-.82-17.651H466.38l-.075,1.626h36.712l-.075-1.626Z" transform="translate(-462.417 -494.541)" fill="#4dd0e1"/>
            </g>
            <g id="Grupo_171947" data-name="Grupo 171947" transform="translate(0 31.485)">
              <path id="Trazado_221521" data-name="Trazado 221521" d="M462.422,520.373l0-2.385H506.9l0,2.385Z" transform="translate(-462.417 -517.988)" fill="#fff"/>
            </g>
          </g>
        </g>
        <g id="Grupo_171974" data-name="Grupo 171974">
          <g id="Grupo_171973" data-name="Grupo 171973" style="isolation: isolate">
            <g id="Grupo_171950" data-name="Grupo 171950" transform="translate(1.384)">
              <path id="Trazado_221522" data-name="Trazado 221522" d="M463.451,498.4l0-2.241,11.677-5.512,0,2.211Z" transform="translate(-463.448 -490.649)" fill="#fff"/>
            </g>
            <g id="Grupo_171951" data-name="Grupo 171951" transform="translate(1.384 5.503)">
              <rect id="Rectángulo_44929" data-name="Rectángulo 44929" width="11.545" height="2.241" transform="translate(0 0.019) rotate(-0.093)" fill="#024563"/>
            </g>
            <g id="Grupo_171952" data-name="Grupo 171952" transform="translate(1.384)">
              <path id="Trazado_221523" data-name="Trazado 221523" d="M474.994,496.161H463.448l11.677-5.512Z" transform="translate(-463.448 -490.649)" fill="#6372a3"/>
            </g>
            <g id="Grupo_171953" data-name="Grupo 171953" transform="translate(3.963 6.894)">
              <path id="Trazado_221524" data-name="Trazado 221524" d="M465.372,498.031l0-2.249h36.561l0,2.249Z" transform="translate(-465.368 -495.783)" fill="#fff"/>
            </g>
            <g id="Grupo_171954" data-name="Grupo 171954" transform="translate(3.888 8.52)">
              <path id="Trazado_221525" data-name="Trazado 221525" d="M465.315,499.252l0-2.258h36.712l0,2.258Z" transform="translate(-465.312 -496.994)" fill="#024563"/>
            </g>
            <g id="Grupo_171955" data-name="Grupo 171955" transform="translate(3.888 6.894)">
              <path id="Trazado_221526" data-name="Trazado 221526" d="M502.024,497.409H465.312l.076-1.627h36.561Z" transform="translate(-465.312 -495.783)" fill="#6372a3"/>
            </g>
            <g id="Grupo_171956" data-name="Grupo 171956" transform="translate(3.805 10.302)">
              <path id="Trazado_221527" data-name="Trazado 221527" d="M465.254,500.589l0-2.268h36.878l0,2.268Z" transform="translate(-465.25 -498.321)" fill="#fff"/>
            </g>
            <g id="Grupo_171957" data-name="Grupo 171957" transform="translate(3.728 10.302)">
              <path id="Trazado_221528" data-name="Trazado 221528" d="M502.225,499.976H465.193l.077-1.655h36.878Z" transform="translate(-465.193 -498.321)" fill="#6372a3"/>
            </g>
            <g id="Grupo_171958" data-name="Grupo 171958" transform="translate(3.728 11.957)">
              <path id="Trazado_221529" data-name="Trazado 221529" d="M465.2,501.831l0-2.277h37.032l0,2.277Z" transform="translate(-465.193 -499.554)" fill="#024563"/>
            </g>
            <g id="Grupo_171959" data-name="Grupo 171959" transform="translate(3.644 13.767)">
              <path id="Trazado_221530" data-name="Trazado 221530" d="M465.134,503.188l0-2.287h37.2l0,2.287Z" transform="translate(-465.13 -500.901)" fill="#fff"/>
            </g>
            <g id="Grupo_171960" data-name="Grupo 171960" transform="translate(3.565 15.455)">
              <path id="Trazado_221531" data-name="Trazado 221531" d="M465.075,504.455l0-2.3h37.357l0,2.3Z" transform="translate(-465.072 -502.158)" fill="#024563"/>
            </g>
            <g id="Grupo_171961" data-name="Grupo 171961" transform="translate(3.565 13.767)">
              <path id="Trazado_221532" data-name="Trazado 221532" d="M502.429,502.589H465.072l.079-1.688h37.2Z" transform="translate(-465.072 -500.901)" fill="#6372a3"/>
            </g>
            <g id="Grupo_171962" data-name="Grupo 171962" transform="translate(3.479 17.296)">
              <path id="Trazado_221533" data-name="Trazado 221533" d="M465.012,505.836l0-2.307h37.528l0,2.307Z" transform="translate(-465.008 -503.53)" fill="#fff"/>
            </g>
            <g id="Grupo_171963" data-name="Grupo 171963" transform="translate(3.399 17.296)">
              <path id="Trazado_221534" data-name="Trazado 221534" d="M502.637,505.247H464.949l.08-1.718h37.528Z" transform="translate(-464.949 -503.53)" fill="#6372a3"/>
            </g>
            <g id="Grupo_171964" data-name="Grupo 171964" transform="translate(3.399 19.014)">
              <path id="Trazado_221535" data-name="Trazado 221535" d="M464.952,507.125l0-2.316h37.688l0,2.316Z" transform="translate(-464.949 -504.809)" fill="#024563"/>
            </g>
            <g id="Grupo_171965" data-name="Grupo 171965" transform="translate(3.312 20.889)">
              <path id="Trazado_221536" data-name="Trazado 221536" d="M464.887,508.531l0-2.326h37.862l0,2.326Z" transform="translate(-464.884 -506.205)" fill="#fff"/>
            </g>
            <g id="Grupo_171966" data-name="Grupo 171966" transform="translate(3.231 22.637)">
              <path id="Trazado_221537" data-name="Trazado 221537" d="M464.827,509.843l0-2.336h38.025l0,2.336Z" transform="translate(-464.823 -507.507)" fill="#024463"/>
            </g>
            <g id="Grupo_171967" data-name="Grupo 171967" transform="translate(3.231 20.889)">
              <path id="Trazado_221538" data-name="Trazado 221538" d="M502.848,507.954H464.823l.081-1.749h37.862Z" transform="translate(-464.823 -506.205)" fill="#6372a3"/>
            </g>
            <g id="Grupo_171968" data-name="Grupo 171968" transform="translate(3.142 24.546)">
              <path id="Trazado_221539" data-name="Trazado 221539" d="M464.76,511.275l0-2.347h38.2l0,2.347Z" transform="translate(-464.757 -508.928)" fill="#fff"/>
            </g>
            <g id="Grupo_171969" data-name="Grupo 171969" transform="translate(3.06 24.546)">
              <path id="Trazado_221540" data-name="Trazado 221540" d="M503.063,510.7H464.7l.083-1.777h38.2Z" transform="translate(-464.695 -508.928)" fill="#6372a3"/>
            </g>
            <g id="Grupo_171970" data-name="Grupo 171970" transform="translate(3.06 26.322)">
              <path id="Trazado_221541" data-name="Trazado 221541" d="M464.7,512.608l0-2.357h38.368l0,2.357Z" transform="translate(-464.695 -510.251)" fill="#024463"/>
            </g>
            <g id="Grupo_171971" data-name="Grupo 171971" transform="translate(0 0)">
              <path id="Trazado_221542" data-name="Trazado 221542" d="M462.417,522.133l1.384-25.972h11.545l.132-5.512h29.748l1.677,31.484Zm41.175-10.6H465.73l-.082,1.748h38.025l-.081-1.748Zm-.168-3.592H465.9l-.079,1.717H503.5l-.081-1.717Zm-.164-3.53h-37.2l-.078,1.688H503.34l-.079-1.688Zm-.161-3.464H466.221l-.077,1.656h37.031l-.077-1.656Zm.662,14.243h-38.2l-.082,1.777h38.367l-.083-1.777Zm-.82-17.651H466.38l-.075,1.626h36.712l-.075-1.626Z" transform="translate(-462.417 -490.649)" fill="#4dd0e1"/>
            </g>
            <g id="Grupo_171972" data-name="Grupo 171972" transform="translate(0 31.485)">
              <path id="Trazado_221543" data-name="Trazado 221543" d="M462.422,516.481l0-2.385H506.9l0,2.385Z" transform="translate(-462.417 -514.096)" fill="#fff"/>
            </g>
          </g>
        </g>
      </g>
      <g id="Grupo_171977" data-name="Grupo 171977" transform="translate(21.573 73.879)">
        <rect id="Rectángulo_44930" data-name="Rectángulo 44930" width="1.343" height="2.014" fill="#fff"/>
        <path id="Trazado_221544" data-name="Trazado 221544" d="M479.826,546.228h-1.343v-3.952h1.343Zm0-7.9h-1.343v-3.952h1.343Z" transform="translate(-478.483 -528.411)" fill="#fff"/>
        <path id="Trazado_221545" data-name="Trazado 221545" d="M481.168,548.83h-2.686v-2.686h1.343v1.343h1.343Z" transform="translate(-478.483 -524.376)" fill="#fff"/>
        <path id="Trazado_221546" data-name="Trazado 221546" d="M525.548,548.487H521.71v-1.343h3.838Zm-7.674,0h-3.838v-1.343h3.838Zm-7.674,0h-3.836v-1.343H510.2Zm-7.675,0h-3.836v-1.343h3.836Zm-7.674,0h-3.836v-1.343h3.836Zm-7.674,0H483.34v-1.343h3.836Z" transform="translate(-476.818 -524.033)" fill="#fff"/>
        <path id="Trazado_221547" data-name="Trazado 221547" d="M520.316,548.83H517.63v-1.343h1.343v-1.343h1.343Z" transform="translate(-465.064 -524.376)" fill="#fff"/>
        <rect id="Rectángulo_44931" data-name="Rectángulo 44931" width="1.343" height="3.335" transform="translate(53.909 15.099)" fill="#fff"/>
        <rect id="Rectángulo_44932" data-name="Rectángulo 44932" width="1.343" height="2.014" transform="translate(53.909 9.751)" fill="#fff"/>
        <g id="Grupo_171976" data-name="Grupo 171976" transform="translate(51.233 4.933)">
          <path id="Trazado_221548" data-name="Trazado 221548" d="M523.332,539.4l-3.347-5.8-3.348,5.8Z" transform="translate(-516.637 -533.607)" fill="#fff"/>
        </g>
      </g>
      <g id="Grupo_171979" data-name="Grupo 171979" transform="translate(18.896)">
        <rect id="Rectángulo_44933" data-name="Rectángulo 44933" width="1.343" height="2.014" transform="translate(56.586 15.622)" fill="#fff"/>
        <rect id="Rectángulo_44934" data-name="Rectángulo 44934" width="1.343" height="4.312" transform="translate(56.586 6.997)" fill="#fff"/>
        <path id="Trazado_221549" data-name="Trazado 221549" d="M520.316,477.6h-1.343v-1.343H517.63v-1.343h2.686Z" transform="translate(-462.387 -474.914)" fill="#fff"/>
        <path id="Trazado_221550" data-name="Trazado 221550" d="M525.548,476.257H521.71v-1.343h3.838Zm-7.674,0h-3.838v-1.343h3.838Zm-7.674,0h-3.836v-1.343H510.2Zm-7.675,0h-3.836v-1.343h3.836Zm-7.674,0h-3.836v-1.343h3.836Zm-7.674,0H483.34v-1.343h3.836Z" transform="translate(-474.141 -474.913)" fill="#fff"/>
        <path id="Trazado_221551" data-name="Trazado 221551" d="M479.825,477.6h-1.343v-2.686h2.686v1.343h-1.343Z" transform="translate(-475.806 -474.914)" fill="#fff"/>
        <rect id="Rectángulo_44935" data-name="Rectángulo 44935" width="1.343" height="3.335" transform="translate(2.677 6.019)" fill="#fff"/>
        <rect id="Rectángulo_44936" data-name="Rectángulo 44936" width="1.343" height="2.014" transform="translate(2.677 12.687)" fill="#fff"/>
        <g id="Grupo_171978" data-name="Grupo 171978" transform="translate(0 13.722)">
          <path id="Trazado_221552" data-name="Trazado 221552" d="M476.489,485.133l3.347,5.8,3.348-5.8Z" transform="translate(-476.489 -485.133)" fill="#fff"/>
        </g>
      </g>
      <g id="Grupo_171985" data-name="Grupo 171985" transform="translate(53.214 11.99)">
        <g id="Grupo_171980" data-name="Grupo 171980" transform="translate(0 36.027)">
          <path id="Trazado_221553" data-name="Trazado 221553" d="M502.047,518.978v7.436c0,6.154,10.268,11.149,22.941,11.149s22.935-5,22.935-11.149v-7.436Z" transform="translate(-502.047 -507.826)" fill="#6372a3"/>
          <path id="Trazado_221554" data-name="Trazado 221554" d="M547.923,521.825c0,6.159-10.266,11.15-22.935,11.15s-22.941-4.991-22.941-11.15,10.268-11.152,22.941-11.152S547.923,515.667,547.923,521.825Z" transform="translate(-502.047 -510.673)" fill="#023f61"/>
        </g>
        <g id="Grupo_171981" data-name="Grupo 171981" transform="translate(0 27.019)">
          <path id="Trazado_221555" data-name="Trazado 221555" d="M502.047,512.271v7.436c0,6.154,10.268,11.149,22.941,11.149s22.935-5,22.935-11.149v-7.436Z" transform="translate(-502.047 -501.118)" fill="#6372a3"/>
          <path id="Trazado_221556" data-name="Trazado 221556" d="M547.923,515.118c0,6.158-10.266,11.151-22.935,11.151s-22.941-4.992-22.941-11.151,10.268-11.153,22.941-11.153S547.923,508.96,547.923,515.118Z" transform="translate(-502.047 -503.965)" fill="#023f61"/>
        </g>
        <g id="Grupo_171982" data-name="Grupo 171982" transform="translate(0 18.013)">
          <path id="Trazado_221557" data-name="Trazado 221557" d="M502.047,505.563V513c0,6.155,10.268,11.149,22.941,11.149s22.935-4.994,22.935-11.149v-7.436Z" transform="translate(-502.047 -494.411)" fill="#6372a3"/>
          <path id="Trazado_221558" data-name="Trazado 221558" d="M547.923,508.41c0,6.159-10.266,11.15-22.935,11.15s-22.941-4.991-22.941-11.15,10.268-11.152,22.941-11.152S547.923,502.253,547.923,508.41Z" transform="translate(-502.047 -497.258)" fill="#023f61"/>
        </g>
        <g id="Grupo_171983" data-name="Grupo 171983" transform="translate(0 9.006)">
          <path id="Trazado_221559" data-name="Trazado 221559" d="M502.047,498.856v7.436c0,6.154,10.268,11.149,22.941,11.149s22.935-5,22.935-11.149v-7.436Z" transform="translate(-502.047 -487.703)" fill="#6372a3"/>
          <path id="Trazado_221560" data-name="Trazado 221560" d="M547.923,501.7c0,6.159-10.266,11.15-22.935,11.15s-22.941-4.991-22.941-11.15,10.268-11.153,22.941-11.153S547.923,495.545,547.923,501.7Z" transform="translate(-502.047 -490.55)" fill="#023f61"/>
        </g>
        <g id="Grupo_171984" data-name="Grupo 171984">
          <path id="Trazado_221561" data-name="Trazado 221561" d="M502.047,492.148v7.438c0,6.154,10.268,11.149,22.941,11.149s22.935-5,22.935-11.149v-7.438Z" transform="translate(-502.047 -480.996)" fill="#6372a3"/>
          <path id="Trazado_221562" data-name="Trazado 221562" d="M547.923,494.995c0,6.159-10.266,11.152-22.935,11.152s-22.941-4.992-22.941-11.152,10.268-11.152,22.941-11.152S547.923,488.838,547.923,494.995Z" transform="translate(-502.047 -483.843)" fill="#023f61"/>
        </g>
      </g>
    </g>
  </g>
</svg>
