<svg xmlns="http://www.w3.org/2000/svg" width="148" height="148" viewBox="0 0 148 148">
  <g id="Grupo_172839" data-name="Grupo 172839" transform="translate(-376 -6428)">
    <g id="Elipse_4811" data-name="Elipse 4811" transform="translate(-6188.734 2448.588)">
      <circle id="Elipse_4814" data-name="Elipse 4814" cx="74" cy="74" r="74" transform="translate(6564.735 3979.413)" fill="#4dcedf"/>
      <circle id="Elipse_4815" data-name="Elipse 4815" cx="73.5" cy="73.5" r="73.5" transform="translate(6565.235 3979.913)" fill="#4dcedf"/>
    </g>
    <g id="Grupo_172768" data-name="Grupo 172768" transform="translate(63 104)">
      <rect id="Rectángulo_45036" data-name="Rectángulo 45036" width="15.212" height="15.212" transform="translate(350 6350)" fill="#0f2771"/>
      <rect id="Rectángulo_45037" data-name="Rectángulo 45037" width="15.212" height="15.212" transform="translate(369.884 6350)" fill="#0f2771"/>
      <rect id="Rectángulo_45038" data-name="Rectángulo 45038" width="15.212" height="15.212" transform="translate(389.769 6350)" fill="#0f2771"/>
      <rect id="Rectángulo_45039" data-name="Rectángulo 45039" width="15.212" height="15.212" transform="translate(409.653 6350)" fill="#0f2771"/>
      <rect id="Rectángulo_45040" data-name="Rectángulo 45040" width="15.212" height="15.212" transform="translate(350 6370.268)" fill="#0f2771"/>
      <rect id="Rectángulo_45041" data-name="Rectángulo 45041" width="15.212" height="15.212" transform="translate(369.884 6370.268)" fill="#0f2771"/>
      <rect id="Rectángulo_45042" data-name="Rectángulo 45042" width="15.212" height="15.212" transform="translate(389.769 6370.268)" fill="#0f2771"/>
      <rect id="Rectángulo_45043" data-name="Rectángulo 45043" width="15.212" height="15.212" transform="translate(409.653 6370.268)" fill="#0f2771"/>
      <rect id="Rectángulo_45044" data-name="Rectángulo 45044" width="15.212" height="15.212" transform="translate(350 6390.536)" fill="#0f2771"/>
      <rect id="Rectángulo_45045" data-name="Rectángulo 45045" width="15.212" height="15.212" transform="translate(369.884 6390.536)" fill="#0f2771"/>
      <rect id="Rectángulo_45046" data-name="Rectángulo 45046" width="15.212" height="15.212" transform="translate(389.769 6390.536)" fill="#0f2771"/>
      <rect id="Rectángulo_45047" data-name="Rectángulo 45047" width="15.212" height="15.212" transform="translate(409.653 6390.536)" fill="#0f2771"/>
      <rect id="Rectángulo_45048" data-name="Rectángulo 45048" width="15.212" height="15.212" transform="translate(350 6410.804)" fill="#0f2771"/>
      <rect id="Rectángulo_45049" data-name="Rectángulo 45049" width="15.212" height="15.212" transform="translate(369.884 6410.804)" fill="#0f2771"/>
      <rect id="Rectángulo_45050" data-name="Rectángulo 45050" width="15.212" height="15.212" transform="translate(389.769 6410.804)" fill="#0f2771"/>
      <rect id="Rectángulo_45051" data-name="Rectángulo 45051" width="15.212" height="15.212" transform="translate(409.653 6410.804)" fill="#0f2771"/>
      <rect id="Rectángulo_45052" data-name="Rectángulo 45052" width="15.212" height="15.212" transform="translate(350 6431.071)" fill="#0f2771"/>
      <rect id="Rectángulo_45053" data-name="Rectángulo 45053" width="15.212" height="15.212" transform="translate(369.884 6431.071)" fill="#0f2771"/>
      <rect id="Rectángulo_45054" data-name="Rectángulo 45054" width="15.212" height="15.212" transform="translate(389.769 6431.071)" fill="#0f2771"/>
      <rect id="Rectángulo_45055" data-name="Rectángulo 45055" width="15.212" height="15.212" transform="translate(409.653 6431.071)" fill="#0f2771"/>
    </g>
  </g>
</svg>
