<svg xmlns="http://www.w3.org/2000/svg" xmlns:xlink="http://www.w3.org/1999/xlink" width="148" height="148" viewBox="0 0 148 148">
  <defs>
    <clipPath id="clip-path">
      <rect id="Rect치ngulo_44615" data-name="Rect치ngulo 44615" width="64.218" height="69.775" transform="translate(0 49.051) rotate(-49.803)" fill="none"/>
    </clipPath>
    <linearGradient id="linear-gradient" x1="5.195" y1="-3.843" x2="9.066" y2="7.04" gradientUnits="objectBoundingBox">
      <stop offset="0" stop-color="#aa80f9"/>
      <stop offset="0.996" stop-color="#6165d7"/>
    </linearGradient>
    <linearGradient id="linear-gradient-2" x1="7.229" y1="-5.299" x2="12.124" y2="4.242" xlink:href="#linear-gradient"/>
    <linearGradient id="linear-gradient-3" y1="0.5" x2="1" y2="0.5" gradientUnits="objectBoundingBox">
      <stop offset="0" stop-color="#4acedf"/>
      <stop offset="1" stop-color="#3ba5b2"/>
    </linearGradient>
    <linearGradient id="linear-gradient-4" x1="1.229" y1="-0.061" x2="2.506" y2="-0.061" xlink:href="#linear-gradient"/>
    <linearGradient id="linear-gradient-5" x1="0.116" y1="0.059" x2="2.641" y2="3.002" xlink:href="#linear-gradient-3"/>
    <clipPath id="clip-path-2">
      <rect id="Rect치ngulo_44616" data-name="Rect치ngulo 44616" width="64.051" height="34.065" transform="matrix(0.74, -0.672, 0.672, 0.74, 0, 43.063)" fill="none"/>
    </clipPath>
    <linearGradient id="linear-gradient-7" x1="8.827" y1="-8.986" x2="13.818" y2="0.746" xlink:href="#linear-gradient"/>
    <linearGradient id="linear-gradient-8" x1="8.682" y1="-12.594" x2="12.606" y2="-1.638" xlink:href="#linear-gradient"/>
    <linearGradient id="linear-gradient-9" x1="3.621" y1="-2.473" x2="3.867" y2="-1.441" xlink:href="#linear-gradient"/>
    <linearGradient id="linear-gradient-10" x1="1.551" y1="-0.081" x2="2.948" y2="-0.081" xlink:href="#linear-gradient"/>
    <linearGradient id="linear-gradient-11" x1="0.329" y1="0.554" x2="-0.255" y2="0.738" gradientUnits="objectBoundingBox">
      <stop offset="0" stop-color="#fcb148"/>
      <stop offset="0.052" stop-color="#fdb946"/>
      <stop offset="0.142" stop-color="#fec144"/>
      <stop offset="0.318" stop-color="#ffc444"/>
      <stop offset="0.485" stop-color="#fdb946"/>
      <stop offset="0.775" stop-color="#f99c4c"/>
      <stop offset="0.866" stop-color="#f8924f"/>
      <stop offset="1" stop-color="#f8924f"/>
    </linearGradient>
    <linearGradient id="linear-gradient-12" x1="0.727" y1="0.007" x2="0.207" y2="1.135" gradientUnits="objectBoundingBox">
      <stop offset="0" stop-color="#ffdb44"/>
      <stop offset="1" stop-color="#feef06"/>
    </linearGradient>
    <linearGradient id="linear-gradient-13" x1="0.636" y1="1.231" x2="0.531" y2="0.666" xlink:href="#linear-gradient-11"/>
    <linearGradient id="linear-gradient-14" x1="0.409" y1="0.31" x2="0.858" y2="1.247" xlink:href="#linear-gradient-11"/>
    <linearGradient id="linear-gradient-15" x1="0.253" y1="0.019" x2="0.711" y2="1.039" xlink:href="#linear-gradient-12"/>
    <linearGradient id="linear-gradient-16" x1="0.464" y1="0.369" x2="1.215" y2="1.306" xlink:href="#linear-gradient-11"/>
    <linearGradient id="linear-gradient-23" x1="-11.847" y1="0.914" x2="-11.732" y2="1.742" gradientUnits="objectBoundingBox">
      <stop offset="0" stop-color="#ffc444"/>
      <stop offset="0.098" stop-color="#febc46"/>
      <stop offset="0.996" stop-color="#f36f56"/>
    </linearGradient>
    <linearGradient id="linear-gradient-24" x1="-4.58" y1="-0.112" x2="-4.591" y2="0.524" gradientUnits="objectBoundingBox">
      <stop offset="0" stop-color="#893976"/>
      <stop offset="1" stop-color="#311944"/>
    </linearGradient>
    <linearGradient id="linear-gradient-25" x1="2.244" y1="0.612" x2="2.298" y2="1.109" gradientUnits="objectBoundingBox">
      <stop offset="0" stop-color="#ffc444"/>
      <stop offset="0.996" stop-color="#f36f56"/>
    </linearGradient>
    <linearGradient id="linear-gradient-26" x1="5.309" y1="0.879" x2="5.454" y2="1.7" xlink:href="#linear-gradient-23"/>
    <linearGradient id="linear-gradient-27" x1="-19.055" y1="-0.732" x2="-19.034" y2="1.065" gradientUnits="objectBoundingBox">
      <stop offset="0" stop-color="#311944"/>
      <stop offset="1" stop-color="#a03976"/>
    </linearGradient>
    <linearGradient id="linear-gradient-28" x1="12.024" y1="-10.089" x2="10.534" y2="-8.457" xlink:href="#linear-gradient-27"/>
    <linearGradient id="linear-gradient-29" x1="-7.18" y1="0.5" x2="-6.18" y2="0.5" xlink:href="#linear-gradient-24"/>
    <linearGradient id="linear-gradient-30" x1="-7.301" y1="0.5" x2="-6.284" y2="0.5" xlink:href="#linear-gradient-24"/>
    <linearGradient id="linear-gradient-31" x1="-41.559" y1="1.663" x2="-42.612" y2="-1.371" xlink:href="#linear-gradient"/>
    <linearGradient id="linear-gradient-32" x1="-92.35" y1="1.559" x2="-95.468" y2="-3.747" xlink:href="#linear-gradient-25"/>
    <linearGradient id="linear-gradient-33" x1="-7.64" y1="0.417" x2="-7.839" y2="1.221" xlink:href="#linear-gradient-24"/>
    <linearGradient id="linear-gradient-34" x1="-15.573" y1="1.661" x2="-15.014" y2="-0.454" gradientUnits="objectBoundingBox">
      <stop offset="0" stop-color="#ff9085"/>
      <stop offset="1" stop-color="#fb6fbb"/>
    </linearGradient>
    <linearGradient id="linear-gradient-35" x1="-20.46" y1="0.228" x2="-21.228" y2="0.443" xlink:href="#linear-gradient-34"/>
    <linearGradient id="linear-gradient-36" x1="25.697" y1="1.792" x2="26.587" y2="-0.607" xlink:href="#linear-gradient-27"/>
    <linearGradient id="linear-gradient-37" x1="57.499" y1="20.648" x2="58.442" y2="18.274" xlink:href="#linear-gradient-27"/>
  </defs>
  <g id="Grupo_172760" data-name="Grupo 172760" transform="translate(-378 -5533)">
    <g id="Grupo_109218" data-name="Grupo 109218" transform="translate(-6186.734 1553.588)">
      <g id="Elipse_4811" data-name="Elipse 4811">
        <circle id="Elipse_4814" data-name="Elipse 4814" cx="74" cy="74" r="74" transform="translate(6564.735 3979.413)" fill="#4dcedf"/>
        <circle id="Elipse_4815" data-name="Elipse 4815" cx="73.5" cy="73.5" r="73.5" transform="translate(6565.235 3979.913)" fill="#4dcedf"/>
      </g>
    </g>
    <g id="Grupo_148391" data-name="Grupo 148391" transform="translate(-44.582 5091.086)">
      <g id="Grupo_148384" data-name="Grupo 148384" transform="translate(435.582 456.913)">
        <g id="Grupo_148375" data-name="Grupo 148375" transform="translate(27.523 24.355)">
          <g id="Grupo_148374" data-name="Grupo 148374" clip-path="url(#clip-path)">
            <g id="Grupo_148373" data-name="Grupo 148373" transform="translate(-20.966 -16.208)">
              <path id="Trazado_203051" data-name="Trazado 203051" d="M1096.619,1201.541a17.174,17.174,0,0,1-1.259,2.251,47.946,47.946,0,0,1-5.152,6.45q-.382.4-.782.779a10.16,10.16,0,0,1,1.3,1.012,7.968,7.968,0,0,1,2.293,5.536,5.9,5.9,0,0,1-.674,3.016,5.834,5.834,0,0,1-1.356,2.26c-.667.984-1.282,2-1.948,2.988a37.667,37.667,0,0,1-4.128,5.127,90.838,90.838,0,0,1-7.382,6.41,7.821,7.821,0,0,1-3.455,2.014l-2.081.28a7.613,7.613,0,0,1-5.059-1.883,15.932,15.932,0,0,1-3.809,2.606c19.969,12.632,46.228,17.584,57.077,41.352l32.381-39.538C1141.935,1218.872,1116.44,1213.67,1096.619,1201.541Z" transform="translate(-1042.892 -1178.886)" fill="#4acedf"/>
              <path id="Trazado_203052" data-name="Trazado 203052" d="M773.1,925.624c-16.338-28.619-57.189-27.307-73.527-55.926l27.56-33.651c16.338,28.619,57.189,27.307,73.527,55.926Z" transform="translate(-695.274 -829.408)" fill="#fff"/>
              <g id="Grupo_148371" data-name="Grupo 148371">
                <g id="Grupo_148369" data-name="Grupo 148369">
                  <path id="Trazado_203053" data-name="Trazado 203053" d="M1193.71,697.135c-.121.148-.236.278-.364.413l-.033.034a6.27,6.27,0,0,1-5.093,2.1,5.666,5.666,0,0,1-4.148-2.567,8.148,8.148,0,0,1-.455-.745,10.644,10.644,0,0,1-1.108-3.351l6.916-8.444a45.122,45.122,0,0,0,5.892,9.569A8.7,8.7,0,0,1,1193.71,697.135Z" transform="translate(-1157.044 -684.571)" fill="url(#linear-gradient)"/>
                  <path id="Trazado_203054" data-name="Trazado 203054" d="M609.869,1405.744a7.789,7.789,0,0,1-2.607,2.062,45.1,45.1,0,0,1-5.857-9.525l7.076-8.641a11.124,11.124,0,0,1,1.809,2.494c.143.263.279.532.406.805,1.9,4.075,1.924,9.083-.545,12.438l-.029.039C610.043,1405.527,609.953,1405.641,609.869,1405.744Z" transform="translate(-601.405 -1358.743)" fill="url(#linear-gradient-2)"/>
                </g>
                <g id="Grupo_148370" data-name="Grupo 148370" transform="translate(71.453 53.746)">
                  <path id="Trazado_203055" data-name="Trazado 203055" d="M2875.27,1920.6l-6.916,8.444a11.108,11.108,0,0,1-1.809-2.494q-.215-.395-.406-.805c-1.877-4.033-1.934-8.968.459-12.322.111-.157.207-.285.328-.433a6.842,6.842,0,0,1,2.451-1.959A45.1,45.1,0,0,1,2875.27,1920.6Z" transform="translate(-2837.032 -1911.034)" fill="#4acedf"/>
                  <path id="Trazado_203056" data-name="Trazado 203056" d="M2244.874,2688.964l-7.076,8.641a45.113,45.113,0,0,0-5.857-9.525,9.942,9.942,0,0,1,1.692-3.187c.084-.1.178-.213.268-.311l.032-.035a6.448,6.448,0,0,1,4.794-2.251,5.6,5.6,0,0,1,4.574,2.584,8.01,8.01,0,0,1,.46.739A10.631,10.631,0,0,1,2244.874,2688.964Z" transform="translate(-2231.941 -2648.498)" fill="#4acedf"/>
                </g>
              </g>
              <path id="Trazado_203057" data-name="Trazado 203057" d="M1505.812,1574.349c-5.169,6.312-15.322,8.224-22.984,4.647s-9.4-11.943-4.182-18.31c5.169-6.311,15.322-8.224,22.984-4.647S1511.027,1567.982,1505.812,1574.349Z" transform="translate(-1437.343 -1516.14)" fill="url(#linear-gradient-3)"/>
              <g id="Grupo_148372" data-name="Grupo 148372" transform="translate(44.917 43.137)">
                <path id="Trazado_203058" data-name="Trazado 203058" d="M1640.8,1679.456a7.014,7.014,0,0,0-2.571-3.557l2.3-2.807.192.108a9.317,9.317,0,0,1,1.664,1.206,7.83,7.83,0,0,1,.754.8.772.772,0,0,0,1.1,0l1.153-1.158a.558.558,0,0,0,.015-.814c-.382-.376-.811-.745-1.232-1.084a17.06,17.06,0,0,0-1.826-1.284l.8-.981a.542.542,0,0,0-.122-.848.773.773,0,0,0-.978.191l-.82,1a8.466,8.466,0,0,0-4.583-.953,5.089,5.089,0,0,0-3.468,1.91,3.629,3.629,0,0,0-.915,3.261,6.852,6.852,0,0,0,2.528,3.386l-2.568,3.118a12.458,12.458,0,0,1-1.955-1.364,11.245,11.245,0,0,1-1.067-1.043.836.836,0,0,0-1.172.006l-1.463,1.5a.551.551,0,0,0,.012.822,14.23,14.23,0,0,0,1.319,1.058,19.479,19.479,0,0,0,2.12,1.3l.282.148-.874,1.067a.5.5,0,0,0,.141.821l.011.005a.83.83,0,0,0,.991-.22l.886-1.082a10.132,10.132,0,0,0,3.489.819,7.153,7.153,0,0,0,1.393-.076,5.581,5.581,0,0,0,3.583-2.036A3.587,3.587,0,0,0,1640.8,1679.456Zm-5-.8a2.781,2.781,0,0,1,.858,1.269,1.341,1.341,0,0,1-.339,1.149,2.015,2.015,0,0,1-1.258.74,2.665,2.665,0,0,1-1.607-.294Zm.639-4.722a1.14,1.14,0,0,1,.279-1.032,1.735,1.735,0,0,1,1.13-.632,3.159,3.159,0,0,1,1.523.226l-2.111,2.577A2.346,2.346,0,0,1,1636.441,1673.938Z" transform="translate(-1626.394 -1668.936)" fill="#fff"/>
              </g>
              <path id="Trazado_203059" data-name="Trazado 203059" d="M678.82,805.535l-.105.129c-15.408-33.757-61.9-29.558-77.31-63.315l31.7-38.7a49.354,49.354,0,0,1,.313,6.058,46.133,46.133,0,0,1-.833,8.213,55.625,55.625,0,0,1-3.355,10.938c-8.282,19.826-1.183,25.47,10.771,28.831,3.169.924,6.657,1.717,10.2,2.683,1.559.426,3.131.9,4.693,1.433a57.561,57.561,0,0,1,8.877,3.826c9.586,4.984,16.1,13.79,15.875,24.727a30.764,30.764,0,0,1-.674,6.1,15.891,15.891,0,0,0-.256,1.684A42.32,42.32,0,0,0,678.82,805.535Z" transform="translate(-601.405 -702.81)" opacity="0.2" fill="url(#linear-gradient-4)" style="mix-blend-mode: multiply;isolation: isolate"/>
            </g>
          </g>
        </g>
        <g id="Grupo_148376" data-name="Grupo 148376" transform="translate(10.461 37.996)">
          <path id="Trazado_203060" data-name="Trazado 203060" d="M866.026,1408.64l-.981.793-3.557,2.873a5.123,5.123,0,0,0-4.306-2.892,5.2,5.2,0,0,0-1.039,0l-4.852-7.5-17.07-26.371a4.523,4.523,0,0,1-.711-2.535l.105-6.944a.357.357,0,0,1,.65-.219Z" transform="translate(-827.241 -1365.7)" fill="#bfc8d6"/>
          <path id="Trazado_203061" data-name="Trazado 203061" d="M865.045,1457.391l-3.557,2.873a5.123,5.123,0,0,0-4.306-2.892l-5.892-7.495-17.07-26.371a4.523,4.523,0,0,1-.711-2.535l.078-5.117c.93,3.366,3,9.543,6.005,11a18.842,18.842,0,0,1,10.193,12.792c1.755,6.884,6.018,9.692,10.815,13.39A22.03,22.03,0,0,1,865.045,1457.391Z" transform="translate(-827.241 -1413.658)" fill="#bfc8d6" opacity="0.4" style="mix-blend-mode: multiply;isolation: isolate"/>
          <path id="Trazado_203062" data-name="Trazado 203062" d="M1473.185,2336.888a15.5,15.5,0,0,0-4.831-6.271,11.572,11.572,0,0,0-6.787-2.477,8.385,8.385,0,0,0-2.728.154l-4.335-5.814-4.838,3.337,1.979,2.87a6.489,6.489,0,0,1,.728,5.973q-.213.562-.375,1.161a15.047,15.047,0,0,0,.848,9.806,15.5,15.5,0,0,0,4.831,6.271,11.571,11.571,0,0,0,6.787,2.477,9.359,9.359,0,0,0,3.863-.756,10.141,10.141,0,0,0,5.707-6.924A15.049,15.049,0,0,0,1473.185,2336.888Zm-2.934,8.782a6.312,6.312,0,0,1-3.472,4.348,5.468,5.468,0,0,1-2.257.439c-3.213-.049-6.459-2.611-8.077-6.376a11.122,11.122,0,0,1-.666-7.235,6.312,6.312,0,0,1,3.472-4.348,5.469,5.469,0,0,1,2.257-.438c3.214.049,6.459,2.611,8.077,6.376A11.123,11.123,0,0,1,1470.251,2345.67Z" transform="translate(-1416.397 -2280.553)" fill="#0f2771"/>
          <path id="Trazado_203063" data-name="Trazado 203063" d="M1178.454,1382.184l-.105,6.944a4.532,4.532,0,0,1-.805,2.512l-22.954,33.188a5.348,5.348,0,0,0-5.43,2.726l-3.7-3.183-.78-.67,33.108-41.755a.375.375,0,0,1,.669.238Z" transform="translate(-1124.772 -1381.097)" fill="#d8dee8"/>
          <path id="Trazado_203064" data-name="Trazado 203064" d="M1178.454,1382.184l-33,42.187-.78-.67,33.108-41.755a.375.375,0,0,1,.669.238Z" transform="translate(-1124.772 -1381.097)" fill="#bfc8d6" opacity="0.4" style="mix-blend-mode: multiply;isolation: isolate"/>
          <path id="Trazado_203065" data-name="Trazado 203065" d="M706.738,2322.364a9.417,9.417,0,0,0-2.871-.487,11.574,11.574,0,0,0-6.859,2.27,15.5,15.5,0,0,0-5.019,6.121,15.047,15.047,0,0,0-1.144,9.776,10.141,10.141,0,0,0,5.495,7.094,9.357,9.357,0,0,0,3.838.873,11.576,11.576,0,0,0,6.859-2.27,15.5,15.5,0,0,0,5.019-6.122,15.047,15.047,0,0,0,1.144-9.776q-.144-.6-.34-1.172a6.48,6.48,0,0,1,.908-5.948l2.065-2.808-4.735-3.482Zm1.767,15.6c-1.731,3.714-5.053,6.177-8.266,6.129a5.471,5.471,0,0,1-2.243-.507,6.312,6.312,0,0,1-3.339-4.451,11.122,11.122,0,0,1,.885-7.211c1.731-3.715,5.053-6.177,8.266-6.129a5.47,5.47,0,0,1,2.243.507,6.312,6.312,0,0,1,3.339,4.451A11.123,11.123,0,0,1,708.5,2337.964Z" transform="translate(-690.482 -2274.77)" fill="#0f2771"/>
          <circle id="Elipse_5129" data-name="Elipse 5129" cx="1.796" cy="1.796" r="1.796" transform="translate(26.666 36.673) rotate(-25.646)" fill="#bfc8d6"/>
          <path id="Trazado_203066" data-name="Trazado 203066" d="M1346.616,2199.483a.294.294,0,0,1-.3.29h0a.294.294,0,0,1-.289-.3l.019-1.273a.294.294,0,0,1,.3-.289h0a.294.294,0,0,1,.289.3Z" transform="translate(-1317.301 -2161.442)" fill="#d8dee8"/>
        </g>
        <path id="Trazado_203067" data-name="Trazado 203067" d="M1014.676,1267.415l2.273.515,26.288-24.208,8.546-9.919-1.946-.936Z" transform="translate(-990.008 -1200.692)" fill="url(#linear-gradient-5)"/>
        <g id="Grupo_148383" data-name="Grupo 148383">
          <g id="Grupo_148382" data-name="Grupo 148382" clip-path="url(#clip-path-2)">
            <g id="Grupo_148381" data-name="Grupo 148381" transform="translate(5.175 5.42)">
              <path id="Trazado_203068" data-name="Trazado 203068" d="M675.471,695.267l-37.3,34.936c-10.835-35.49-57.477-37.442-68.313-72.932l37.3-34.937C617.993,657.825,664.635,659.777,675.471,695.267Z" transform="translate(-569.859 -622.335)" fill="url(#linear-gradient-3)"/>
              <path id="Trazado_203069" data-name="Trazado 203069" d="M730.457,865.782c-12.433-30.519-53.1-34.591-65.534-65.109l31.746-29.735c12.433,30.519,53.1,34.591,65.534,65.109Z" transform="translate(-660.757 -764.426)" fill="#fff"/>
              <g id="Grupo_148379" data-name="Grupo 148379">
                <g id="Grupo_148377" data-name="Grupo 148377">
                  <path id="Trazado_203070" data-name="Trazado 203070" d="M1249.787,635.354c-.14.131-.271.245-.415.361l-.037.03a6.27,6.27,0,0,1-5.324,1.408,5.667,5.667,0,0,1-3.774-3.09,8.171,8.171,0,0,1-.353-.8,10.648,10.648,0,0,1-.658-3.467l7.966-7.462a45.1,45.1,0,0,0,4.583,10.261A8.7,8.7,0,0,1,1249.787,635.354Z" transform="translate(-1209.892 -622.335)" fill="#4acedf"/>
                  <path id="Trazado_203071" data-name="Trazado 203071" d="M577.268,1261.491a7.79,7.79,0,0,1-2.855,1.7,45.105,45.105,0,0,1-4.553-10.212l8.151-7.635a11.12,11.12,0,0,1,1.466,2.71c.108.28.206.564.3.852,1.344,4.289.713,9.257-2.176,12.258l-.034.035C577.469,1261.3,577.365,1261.4,577.268,1261.491Z" transform="translate(-569.859 -1218.044)" fill="#4acedf"/>
                </g>
                <g id="Grupo_148378" data-name="Grupo 148378" transform="translate(63.759 62.671)">
                  <path id="Trazado_203072" data-name="Trazado 203072" d="M2752.8,2062.724l-7.966,7.461a11.12,11.12,0,0,1-1.466-2.71c-.108-.28-.207-.564-.3-.852-1.33-4.245-.738-9.144,2.076-12.154.13-.141.242-.255.383-.386a6.842,6.842,0,0,1,2.687-1.62A45.112,45.112,0,0,1,2752.8,2062.724Z" transform="translate(-2710.951 -2052.463)" fill="url(#linear-gradient-7)"/>
                  <path id="Trazado_203073" data-name="Trazado 203073" d="M2037.521,2746.521l-8.151,7.635a45.11,45.11,0,0,0-4.553-10.212,9.949,9.949,0,0,1,2.1-2.936c.1-.091.2-.187.306-.273l.036-.031a6.448,6.448,0,0,1,5.049-1.6,5.6,5.6,0,0,1,4.2,3.163,8.047,8.047,0,0,1,.359.794A10.63,10.63,0,0,1,2037.521,2746.521Z" transform="translate(-2024.817 -2708.959)" fill="url(#linear-gradient-8)"/>
                </g>
              </g>
              <path id="Trazado_203074" data-name="Trazado 203074" d="M1424.929,1572.816c-5.954,5.577-16.271,6.138-23.4,1.584s-7.745-13.075-1.738-18.7c5.954-5.577,16.271-6.138,23.4-1.584S1430.937,1567.189,1424.929,1572.816Z" transform="translate(-1359.51 -1510.367)" fill="url(#linear-gradient-9)"/>
              <g id="Grupo_148380" data-name="Grupo 148380" transform="translate(42.534 46.095)">
                <path id="Trazado_203075" data-name="Trazado 203075" d="M1554.883,1684.848a7.015,7.015,0,0,0-2.081-3.864l2.648-2.48.177.133a9.318,9.318,0,0,1,1.491,1.415,7.867,7.867,0,0,1,.642.889.772.772,0,0,0,1.094.146l1.3-1a.558.558,0,0,0,.122-.8c-.33-.423-.706-.845-1.079-1.237a17.02,17.02,0,0,0-1.641-1.512l.926-.867a.542.542,0,0,0-.01-.857.773.773,0,0,0-.995.06l-.945.885a8.465,8.465,0,0,0-4.418-1.547,5.088,5.088,0,0,0-3.689,1.437,3.629,3.629,0,0,0-1.336,3.113,6.853,6.853,0,0,0,2.061,3.689l-2.956,2.753a12.452,12.452,0,0,1-1.758-1.609,11.265,11.265,0,0,1-.921-1.174.836.836,0,0,0-1.163-.148l-1.647,1.293a.551.551,0,0,0-.1.816,14.182,14.182,0,0,0,1.168,1.222,19.463,19.463,0,0,0,1.931,1.566l.26.184-1.007.943a.5.5,0,0,0,.032.832l.01.006a.831.831,0,0,0,1.012-.088l1.021-.956a10.131,10.131,0,0,0,3.351,1.27,7.148,7.148,0,0,0,1.39.108,5.581,5.581,0,0,0,3.82-1.547A3.587,3.587,0,0,0,1554.883,1684.848Zm-4.848-1.446a2.783,2.783,0,0,1,.684,1.371,1.342,1.342,0,0,1-.487,1.095,2.015,2.015,0,0,1-1.345.568,2.665,2.665,0,0,1-1.554-.5Zm1.254-4.6a1.141,1.141,0,0,1,.412-.986,1.736,1.736,0,0,1,1.2-.478,3.163,3.163,0,0,1,1.48.424l-2.431,2.277A2.347,2.347,0,0,1,1551.289,1678.8Z" transform="translate(-1540.467 -1674.209)" fill="#fff"/>
              </g>
              <path id="Trazado_203076" data-name="Trazado 203076" d="M638.293,746.206l-.121.114c-10.835-35.49-57.477-37.442-68.313-72.932l36.51-34.2a49.32,49.32,0,0,1-.486,6.047,46.125,46.125,0,0,1-1.906,8.032,55.619,55.619,0,0,1-4.765,10.4c-10.817,18.564-4.522,25.093,6.886,30,3.02,1.333,6.373,2.578,9.762,4,1.49.627,2.986,1.306,4.464,2.038a57.569,57.569,0,0,1,8.3,4.96c8.847,6.2,14.15,15.787,12.486,26.6a30.764,30.764,0,0,1-1.47,5.957,15.886,15.886,0,0,0-.476,1.636A42.312,42.312,0,0,0,638.293,746.206Z" transform="translate(-569.859 -638.451)" opacity="0.2" fill="url(#linear-gradient-10)" style="mix-blend-mode: multiply;isolation: isolate"/>
            </g>
          </g>
        </g>
      </g>
      <g id="Grupo_148386" data-name="Grupo 148386" transform="translate(505.126 459.187)">
        <path id="Trazado_203077" data-name="Trazado 203077" d="M2064.246,577.949a11.878,11.878,0,0,1-12.289,12.113,13.908,13.908,0,0,1-13.209-13.832,11.845,11.845,0,0,1,13.209-12.051A14,14,0,0,1,2064.246,577.949Z" transform="translate(-2038.748 -563.515)" fill="url(#linear-gradient-11)"/>
        <path id="Trazado_203078" data-name="Trazado 203078" d="M2106.758,564.376a11.878,11.878,0,0,1-12.288,12.113,13.908,13.908,0,0,1-13.209-13.832,11.845,11.845,0,0,1,13.209-12.051A14,14,0,0,1,2106.758,564.376Z" transform="translate(-2079.397 -550.537)" fill="url(#linear-gradient-12)"/>
        <path id="Trazado_203079" data-name="Trazado 203079" d="M2119.815,577.318a11.335,11.335,0,0,1-11.747,11.56,13.275,13.275,0,0,1-12.586-13.2,11.3,11.3,0,0,1,12.586-11.5A13.358,13.358,0,0,1,2119.815,577.318Z" transform="translate(-2092.996 -563.515)" fill="url(#linear-gradient-13)"/>
        <path id="Trazado_203080" data-name="Trazado 203080" d="M2129.112,586.559a10.948,10.948,0,0,1-11.36,11.165,12.823,12.823,0,0,1-12.142-12.75,10.919,10.919,0,0,1,12.142-11.112A12.9,12.9,0,0,1,2129.112,586.559Z" transform="translate(-2102.68 -572.782)" fill="url(#linear-gradient-14)"/>
        <g id="Grupo_148385" data-name="Grupo 148385" transform="translate(9.18 3.247)">
          <path id="Trazado_203081" data-name="Trazado 203081" d="M2254.056,624.625h0a.694.694,0,0,1,.613.681v1.174a17.288,17.288,0,0,1,2.035.353q.751.177,1.492.42a.687.687,0,0,1,.468.7l-.144,1.472a.552.552,0,0,1-.788.458,8.527,8.527,0,0,0-1-.373,9.077,9.077,0,0,0-1.888-.353l-.173-.014v3.363a8.83,8.83,0,0,1,3.9,2,4.219,4.219,0,0,1,1.25,3.116,4.1,4.1,0,0,1-1.383,3.239,6.308,6.308,0,0,1-3.912,1.377v1.3a.589.589,0,0,1-.614.6h-.011a.652.652,0,0,1-.616-.65V642.2l-.273-.012a17.931,17.931,0,0,1-2.266-.242,14.723,14.723,0,0,1-1.566-.36.675.675,0,0,1-.491-.7l.17-1.893a.6.6,0,0,1,.836-.494,12.3,12.3,0,0,0,1.377.452,12.071,12.071,0,0,0,2.2.368l.011-3.74a8.1,8.1,0,0,1-3.8-1.865,4.27,4.27,0,0,1-1.259-3.173,3.71,3.71,0,0,1,1.365-3.082,6.052,6.052,0,0,1,3.847-1.074v-1.2A.555.555,0,0,1,2254.056,624.625Zm-.615,4.488a2.071,2.071,0,0,0-1.226.432,1.26,1.26,0,0,0-.44,1.009,1.356,1.356,0,0,0,.407,1,2.883,2.883,0,0,0,1.259.642Zm1.087,6.773v3.43a1.9,1.9,0,0,0,1.312-.408,1.469,1.469,0,0,0,.456-1.155,1.577,1.577,0,0,0-.424-1.129A3.113,3.113,0,0,0,2254.528,635.886Z" transform="translate(-2248.229 -624.622)" fill="url(#linear-gradient-15)"/>
        </g>
        <path id="Trazado_203082" data-name="Trazado 203082" d="M2115.7,589.48c.384-3.791,3.867-5.4,3.413-8.882-.28-2.149-1.909-3.96-3.726-5.374a10.921,10.921,0,0,0-9.773,11.111,12.823,12.823,0,0,0,12.142,12.75,11.471,11.471,0,0,0,1.876-.092C2117,596.382,2115.365,592.736,2115.7,589.48Z" transform="translate(-2102.679 -574.141)" opacity="0.3" fill="url(#linear-gradient-16)" style="mix-blend-mode: multiply;isolation: isolate"/>
      </g>
      <g id="Grupo_148388" data-name="Grupo 148388" transform="translate(527.069 484.204)">
        <path id="Trazado_203083" data-name="Trazado 203083" d="M2558.971,1142.388a9.082,9.082,0,0,1-9.4,9.262,10.634,10.634,0,0,1-10.1-10.576,9.057,9.057,0,0,1,10.1-9.215A10.7,10.7,0,0,1,2558.971,1142.388Z" transform="translate(-2539.475 -1131.351)" fill="url(#linear-gradient-11)"/>
        <path id="Trazado_203084" data-name="Trazado 203084" d="M2591.476,1132.009a9.082,9.082,0,0,1-9.4,9.262,10.634,10.634,0,0,1-10.1-10.577,9.057,9.057,0,0,1,10.1-9.215A10.7,10.7,0,0,1,2591.476,1132.009Z" transform="translate(-2570.555 -1121.427)" fill="url(#linear-gradient-12)"/>
        <path id="Trazado_203085" data-name="Trazado 203085" d="M2601.46,1141.9a8.667,8.667,0,0,1-8.982,8.839,10.15,10.15,0,0,1-9.624-10.094,8.644,8.644,0,0,1,9.624-8.8A10.214,10.214,0,0,1,2601.46,1141.9Z" transform="translate(-2580.953 -1131.351)" fill="url(#linear-gradient-13)"/>
        <path id="Trazado_203086" data-name="Trazado 203086" d="M2608.569,1148.971a8.371,8.371,0,0,1-8.686,8.537,9.8,9.8,0,0,1-9.284-9.749,8.349,8.349,0,0,1,9.284-8.5A9.864,9.864,0,0,1,2608.569,1148.971Z" transform="translate(-2588.359 -1138.437)" fill="url(#linear-gradient-14)"/>
        <g id="Grupo_148387" data-name="Grupo 148387" transform="translate(7.019 2.482)">
          <path id="Trazado_203087" data-name="Trazado 203087" d="M2704.1,1178.077h0a.531.531,0,0,1,.469.521v.9a13.149,13.149,0,0,1,1.556.27q.575.135,1.141.321a.524.524,0,0,1,.358.539l-.11,1.126a.422.422,0,0,1-.6.35,6.473,6.473,0,0,0-.766-.285,6.934,6.934,0,0,0-1.444-.27l-.132-.011v2.571a6.752,6.752,0,0,1,2.984,1.526,3.227,3.227,0,0,1,.956,2.382,3.137,3.137,0,0,1-1.057,2.477,4.825,4.825,0,0,1-2.991,1.053v.991a.451.451,0,0,1-.469.458h-.008a.5.5,0,0,1-.471-.5v-.977l-.209-.009a13.731,13.731,0,0,1-1.733-.185,11.231,11.231,0,0,1-1.2-.275.516.516,0,0,1-.376-.533l.13-1.447a.458.458,0,0,1,.64-.377,9.41,9.41,0,0,0,1.053.346,9.226,9.226,0,0,0,1.684.281l.008-2.86a6.2,6.2,0,0,1-2.906-1.426,3.266,3.266,0,0,1-.962-2.426,2.836,2.836,0,0,1,1.043-2.357,4.628,4.628,0,0,1,2.942-.822v-.918A.424.424,0,0,1,2704.1,1178.077Zm-.47,3.432a1.585,1.585,0,0,0-.937.33.963.963,0,0,0-.336.772,1.035,1.035,0,0,0,.311.767,2.2,2.2,0,0,0,.962.491Zm.831,5.179v2.623a1.451,1.451,0,0,0,1-.312,1.123,1.123,0,0,0,.349-.883,1.206,1.206,0,0,0-.324-.863A2.382,2.382,0,0,0,2704.465,1186.688Z" transform="translate(-2699.649 -1178.075)" fill="url(#linear-gradient-15)"/>
        </g>
        <path id="Trazado_203088" data-name="Trazado 203088" d="M2598.31,1151.2c.294-2.9,2.958-4.125,2.61-6.792a6.717,6.717,0,0,0-2.849-4.109,8.35,8.35,0,0,0-7.473,8.5,9.8,9.8,0,0,0,9.284,9.749,8.737,8.737,0,0,0,1.435-.07A9.489,9.489,0,0,1,2598.31,1151.2Z" transform="translate(-2588.358 -1139.476)" opacity="0.3" fill="url(#linear-gradient-16)" style="mix-blend-mode: multiply;isolation: isolate"/>
      </g>
      <g id="Grupo_148390" data-name="Grupo 148390" transform="translate(514.806 521.391)">
        <path id="Trazado_203089" data-name="Trazado 203089" d="M2348.677,2478.2s-5.931,6.255-4.77,10.228,10.463-2.754,10.463-2.754Z" transform="translate(-2340.07 -2455.928)" fill="url(#linear-gradient-23)"/>
        <path id="Trazado_203090" data-name="Trazado 203090" d="M2397.054,1988.5a3.386,3.386,0,0,1-2.348-1.96c-.269-.843.2-1.3-.152-2.163-.4-.977-1.189-.843-1.909-1.79a3.993,3.993,0,0,1-.332-4.074c.532-.946,1.16-.717,2.161-2,.885-1.13.618-1.593,1.24-2.17,1.212-1.123,2.784.113,4.949-.383,3.009-.688,2.95-3.753,5.321-3.944,2.18-.175,4.867,2.2,5.266,4.486.16.915-.1,1.4.339,2.2.674,1.231,1.87.907,2.834,2.132a3.264,3.264,0,0,1,.527,3.4c-.693,1.082-2.2.47-2.894,1.533-.752,1.145.619,2.42-.1,3.627-.68,1.14-2.612,1.274-3.731,1.218a36.4,36.4,0,0,1-3.989-.675C2401.766,1987.541,2399.481,1988.873,2397.054,1988.5Z" transform="translate(-2386.107 -1970.012)" fill="#0f2771"/>
        <path id="Trazado_203091" data-name="Trazado 203091" d="M2399.652,2888.42l-14.642-3.663-.732,3.557,13.4,6.186,10.613-2.622,6.4-6.286Z" transform="translate(-2378.816 -2844.672)" fill="url(#linear-gradient-24)"/>
        <path id="Trazado_203092" data-name="Trazado 203092" d="M2355.41,2408.605c-.491-1.193,2.876-4.462,7.1-5.671a14.89,14.89,0,0,1,7.012-.149,16.474,16.474,0,0,1,8.14,3.886,9.807,9.807,0,0,0-4.313,4.491,8.609,8.609,0,0,0,.1,6.264,8.177,8.177,0,0,0,2.529,4.3,12.566,12.566,0,0,0,3.692,1.74c2.23.825,3.612,1.053,3.6,1.5-.013.57-2.278,1.034-2.2,1.389.006.026.022.029.025.048.031.248-2.513.857-5.729,1.34-3.76.566-5.64.848-7.437.541-2.8-.479-2.331-1.342-5.138-1.825-3.266-.562-4.75.459-7.707-.676-.5-.191-2.491-.96-2.434-1.758.071-.987,3.358-.65,6.22-3.178a8.721,8.721,0,0,0,2.081-2.719,9.307,9.307,0,0,0,.27-6.685,2.029,2.029,0,0,0-.194-.4C2359.635,2408.668,2355.874,2409.732,2355.41,2408.605Z" transform="translate(-2348.57 -2383.482)" fill="url(#linear-gradient-25)"/>
        <path id="Trazado_203093" data-name="Trazado 203093" d="M2740.929,2440.893c-.707,1.362,1.768,5.308,5.216,5.645a5.641,5.641,0,0,0,4.817-2.1,6.759,6.759,0,0,0,.993-5.674c-1.089-5.443-7.489-7.709-8.076-7.907-1.557,2.413-1.532,3.935-1.2,4.887a12.931,12.931,0,0,0,2.4,3.3c1.263,1.495,1.89,2.027,1.7,2.483-.223.541-1.433.581-2.2.425a3.885,3.885,0,0,1-2.4-1.751A1.666,1.666,0,0,0,2740.929,2440.893Z" transform="translate(-2719.722 -2410.665)" fill="url(#linear-gradient-26)"/>
        <path id="Trazado_203094" data-name="Trazado 203094" d="M2602.7,2333.451s.28,2.234,1.1,2.747,2.158,1.181,2.305,1.362-5.109.746-7.714-.568h0c.858-.179,1.092-.245,1.092-.245a4.844,4.844,0,0,0,1.1-.437,3.753,3.753,0,0,0,1.213-1.122l-.01-1.237Z" transform="translate(-2583.552 -2317.525)" fill="url(#linear-gradient-27)"/>
        <path id="Trazado_203095" data-name="Trazado 203095" d="M2577.057,2260.626a3.212,3.212,0,0,1-3.1,2.12c-2.084-.109-2.449-5.293-1.132-6.3a2.749,2.749,0,0,1,2.1-.341,3.05,3.05,0,0,1,1.921,3c.431-.282.886-.285,1.063-.083.223.257-.053.785-.116.9A1.663,1.663,0,0,1,2577.057,2260.626Z" transform="translate(-2558.362 -2243.494)" fill="url(#linear-gradient-28)"/>
        <g id="Grupo_148389" data-name="Grupo 148389" transform="translate(0 39.163)">
          <path id="Trazado_203096" data-name="Trazado 203096" d="M2277.975,2873.206a39.726,39.726,0,0,1-6.518-4.35c-2.87-2.363-4.187-4.146-7.093-4.85-.519-.126-3.478-.843-4.433.47-1.057,1.455,1,4.5,1.248,4.867,3.712,5.5,13.167,5.239,16.132,5.061Z" transform="translate(-2259.63 -2863.697)" fill="url(#linear-gradient-29)"/>
          <path id="Trazado_203097" data-name="Trazado 203097" d="M2259.931,2866.338a1.945,1.945,0,0,1,1.241-.693,2.356,2.356,0,0,0,.027,1.622c.58,1.318,2.3.912,3.5,2.458,1.185,1.519.365,2.982,1.412,3.609,1.2.718,2.689-.96,3.975-.157.875.545.6,1.581,1.622,2.145a3.349,3.349,0,0,0,2.2.1,11.348,11.348,0,0,1,3.761.19l-.36.648c-2.966.178-12.42.435-16.132-5.061C2260.929,2870.835,2258.873,2867.793,2259.931,2866.338Z" transform="translate(-2259.63 -2865.56)" opacity="0.3" fill="url(#linear-gradient-30)" style="mix-blend-mode: multiply;isolation: isolate"/>
          <path id="Trazado_203098" data-name="Trazado 203098" d="M2555.865,3094.785a1.507,1.507,0,0,0-1.307-.122c-.774.261-2,.471-2,.849s1.231.615,2.081.46C2555.451,3095.823,2556.09,3095.117,2555.865,3094.785Z" transform="translate(-2539.721 -3084.455)" fill="url(#linear-gradient-31)"/>
          <path id="Trazado_203099" data-name="Trazado 203099" d="M2612.994,3084.689l-1.424.458a.493.493,0,0,0,.081.63c.312.244,1.4-.272,1.4-.272Z" transform="translate(-2596.068 -3075.005)" fill="url(#linear-gradient-32)"/>
          <path id="Trazado_203100" data-name="Trazado 203100" d="M2653.854,2884.844c.421,2.448-4.863,5.1-6.073,5.7a25.145,25.145,0,0,1-13.987,2.313l-.274-1.648a32.6,32.6,0,0,0,3.821-1.587c2.669-1.313,3.682-2.25,7.385-4.489,4.1-2.478,5.292-2.8,6.513-2.489C2652.283,2882.909,2653.659,2883.706,2653.854,2884.844Z" transform="translate(-2617.135 -2881.724)" fill="url(#linear-gradient-33)"/>
        </g>
        <path id="Trazado_203101" data-name="Trazado 203101" d="M2563.019,2494.287l-1.708-9.74-7.721,2.959,1.963,9.762Z" transform="translate(-2540.708 -2461.999)" fill="url(#linear-gradient-34)"/>
        <path id="Trazado_203102" data-name="Trazado 203102" d="M2456.034,2478.2l4.275,3.238,1.964,9.762-3.147-2.076Z" transform="translate(-2447.427 -2455.928)" fill="url(#linear-gradient-35)"/>
        <path id="Trazado_203103" data-name="Trazado 203103" d="M2483.753,2567.743a3.55,3.55,0,0,1-1.043-1.889,1.959,1.959,0,0,1,1.3-2.034c.688-.207,1.055.1.593,1.1S2483.4,2566.566,2483.753,2567.743Z" transform="translate(-2472.925 -2537.739)" fill="url(#linear-gradient-36)"/>
        <path id="Trazado_203104" data-name="Trazado 203104" d="M2746.825,2621a3.547,3.547,0,0,0,1.211-1.789,1.958,1.958,0,0,0-1.117-2.141c-.67-.268-1.064,0-.691,1.041S2747.278,2619.861,2746.825,2621Z" transform="translate(-2724.767 -2588.625)" fill="url(#linear-gradient-37)"/>
      </g>
    </g>
  </g>
</svg>
