<svg xmlns="http://www.w3.org/2000/svg" width="1030" height="316.75" viewBox="0 0 1030 316.75">
  <g id="Grupo_172838" data-name="Grupo 172838" transform="translate(-285 -5983.625)">
    <path id="Rectángulo_41682" data-name="Rectángulo 41682" d="M12,0H283a12,12,0,0,1,12,12V50a0,0,0,0,1,0,0H0a0,0,0,0,1,0,0V12A12,12,0,0,1,12,0Z" transform="translate(285 6250.375)" fill="#feca2e"/>
    <path id="Rectángulo_44995" data-name="Rectángulo 44995" d="M12,0H283a12,12,0,0,1,12,12V50a0,0,0,0,1,0,0H0a0,0,0,0,1,0,0V12A12,12,0,0,1,12,0Z" transform="translate(653 6250.375)" fill="#feca2e"/>
    <path id="Rectángulo_41684" data-name="Rectángulo 41684" d="M12,0H283a12,12,0,0,1,12,12V50a0,0,0,0,1,0,0H0a0,0,0,0,1,0,0V12A12,12,0,0,1,12,0Z" transform="translate(1020 6250.375)" fill="#feca2e"/>
    <path id="Trazado_222106" data-name="Trazado 222106" d="M.967,0V-12.8H5.089a6.064,6.064,0,0,1,3.05.769,5.406,5.406,0,0,1,2.114,2.171,6.554,6.554,0,0,1,.769,3.142v.589a6.592,6.592,0,0,1-.743,3.151A5.429,5.429,0,0,1,8.187-.8a5.93,5.93,0,0,1-3.01.8ZM4.052-10.415v8.042H5.124a2.4,2.4,0,0,0,2.039-.945,4.63,4.63,0,0,0,.712-2.808V-6.68a4.592,4.592,0,0,0-.712-2.795,2.442,2.442,0,0,0-2.074-.94ZM17.824,0a3.344,3.344,0,0,1-.281-.853A2.754,2.754,0,0,1,15.258.176a3.374,3.374,0,0,1-2.285-.813,2.588,2.588,0,0,1-.94-2.043,2.66,2.66,0,0,1,1.143-2.338A5.821,5.821,0,0,1,16.5-5.81h.914v-.5q0-1.316-1.134-1.316a.927.927,0,0,0-1.055,1.042H12.261a2.655,2.655,0,0,1,1.173-2.239,4.931,4.931,0,0,1,2.993-.86A4.323,4.323,0,0,1,19.3-8.8a3.086,3.086,0,0,1,1.081,2.435v4.21a4.311,4.311,0,0,0,.4,2V0ZM15.97-1.934a1.652,1.652,0,0,0,.918-.237,1.487,1.487,0,0,0,.523-.536V-4.228H16.55Q15-4.228,15-2.839a.848.848,0,0,0,.272.655A.986.986,0,0,0,15.97-1.934Zm9.5-9.94V-9.51h1.564v2.057H25.471V-3.1a1.111,1.111,0,0,0,.193.747,1.037,1.037,0,0,0,.765.211,4.345,4.345,0,0,0,.738-.053V-.079A5.466,5.466,0,0,1,25.5.176a3.1,3.1,0,0,1-2.259-.721,2.954,2.954,0,0,1-.729-2.188v-4.72H21.3V-9.51h1.213v-2.364Zm2.092,7.031a5.613,5.613,0,0,1,.554-2.536,3.96,3.96,0,0,1,1.591-1.709,4.791,4.791,0,0,1,2.435-.6,4.373,4.373,0,0,1,3.366,1.323,5.076,5.076,0,0,1,1.23,3.6v.105A4.925,4.925,0,0,1,35.5-1.129,4.384,4.384,0,0,1,32.159.176,4.434,4.434,0,0,1,28.9-1.042a4.761,4.761,0,0,1-1.327-3.3Zm2.962.185a3.538,3.538,0,0,0,.413,1.934,1.376,1.376,0,0,0,1.222.615q1.582,0,1.617-2.435v-.3q0-2.558-1.635-2.558-1.485,0-1.608,2.206Zm12.5,1.986a.684.684,0,0,0-.4-.606,6.016,6.016,0,0,0-1.5-.475A6.853,6.853,0,0,1,39.3-4.4a3.062,3.062,0,0,1-1.1-.971,2.319,2.319,0,0,1-.378-1.31A2.628,2.628,0,0,1,38.9-8.837a4.453,4.453,0,0,1,2.83-.848,4.934,4.934,0,0,1,3.023.853A2.666,2.666,0,0,1,45.9-6.592H42.926q0-1.143-1.2-1.143a1.194,1.194,0,0,0-.782.259.8.8,0,0,0-.316.646.737.737,0,0,0,.387.642,3.654,3.654,0,0,0,1.235.4,10.671,10.671,0,0,1,1.49.378A2.706,2.706,0,0,1,45.879-2.76,2.491,2.491,0,0,1,44.723-.642,5.068,5.068,0,0,1,41.73.176a5.172,5.172,0,0,1-2.18-.439,3.645,3.645,0,0,1-1.494-1.2,2.707,2.707,0,0,1-.536-1.591h2.769a1.145,1.145,0,0,0,.439.962,1.808,1.808,0,0,0,1.081.3,1.422,1.422,0,0,0,.91-.246A.787.787,0,0,0,43.022-2.672Zm16.8-2.76H54.967v3.059H60.7V0H51.882V-12.8h8.833v2.382H54.967v2.7h4.852ZM66.8-2.672a.684.684,0,0,0-.4-.606,6.016,6.016,0,0,0-1.5-.475A6.853,6.853,0,0,1,63.07-4.4a3.062,3.062,0,0,1-1.1-.971,2.319,2.319,0,0,1-.378-1.31,2.628,2.628,0,0,1,1.081-2.158,4.453,4.453,0,0,1,2.83-.848,4.934,4.934,0,0,1,3.023.853,2.666,2.666,0,0,1,1.143,2.241H66.7q0-1.143-1.2-1.143a1.194,1.194,0,0,0-.782.259.8.8,0,0,0-.316.646.737.737,0,0,0,.387.642,3.654,3.654,0,0,0,1.235.4,10.671,10.671,0,0,1,1.49.378A2.706,2.706,0,0,1,69.653-2.76,2.491,2.491,0,0,1,68.5-.642,5.068,5.068,0,0,1,65.5.176a5.172,5.172,0,0,1-2.18-.439,3.645,3.645,0,0,1-1.494-1.2,2.707,2.707,0,0,1-.536-1.591h2.769a1.145,1.145,0,0,0,.439.962,1.808,1.808,0,0,0,1.081.3,1.422,1.422,0,0,0,.91-.246A.787.787,0,0,0,66.8-2.672Zm7.69-9.2V-9.51h1.564v2.057H74.487V-3.1a1.111,1.111,0,0,0,.193.747,1.037,1.037,0,0,0,.765.211,4.345,4.345,0,0,0,.738-.053V-.079a5.466,5.466,0,0,1-1.67.255,3.1,3.1,0,0,1-2.259-.721,2.954,2.954,0,0,1-.729-2.188v-4.72H70.313V-9.51h1.213v-2.364Zm8.481,5.045-.976-.07a1.752,1.752,0,0,0-1.793.879V0H77.238V-9.51h2.777l.1,1.222a2.294,2.294,0,0,1,2.083-1.4,2.888,2.888,0,0,1,.826.105Zm6.732,5.8a3.054,3.054,0,0,1-2.54,1.2,3,3,0,0,1-2.369-.91,3.826,3.826,0,0,1-.8-2.615V-9.51H86.95v6.179a1.065,1.065,0,0,0,1.187,1.222,1.548,1.548,0,0,0,1.45-.729V-9.51h2.979V0H89.789Zm8.508-1.081a1.317,1.317,0,0,0,.967-.338,1.241,1.241,0,0,0,.334-.945h2.777a3.288,3.288,0,0,1-1.121,2.566,4.168,4.168,0,0,1-2.887,1,4.22,4.22,0,0,1-3.27-1.3,5.125,5.125,0,0,1-1.2-3.6v-.123A5.792,5.792,0,0,1,94.346-7.4a3.872,3.872,0,0,1,1.534-1.7,4.573,4.573,0,0,1,2.373-.593A4.116,4.116,0,0,1,101.2-8.657a3.647,3.647,0,0,1,1.09,2.786H99.51A1.626,1.626,0,0,0,99.149-7a1.244,1.244,0,0,0-.967-.4q-1.151,0-1.345,1.468a10.357,10.357,0,0,0-.062,1.283,4.068,4.068,0,0,0,.343,1.986A1.187,1.187,0,0,0,98.209-2.109Zm8.78-9.765V-9.51h1.564v2.057h-1.564V-3.1a1.111,1.111,0,0,0,.193.747,1.037,1.037,0,0,0,.765.211,4.345,4.345,0,0,0,.738-.053V-.079a5.466,5.466,0,0,1-1.67.255,3.1,3.1,0,0,1-2.259-.721,2.954,2.954,0,0,1-.729-2.188v-4.72h-1.213V-9.51h1.213v-2.364Zm8.394,10.846a3.054,3.054,0,0,1-2.54,1.2,3,3,0,0,1-2.369-.91,3.826,3.826,0,0,1-.8-2.615V-9.51h2.962v6.179a1.065,1.065,0,0,0,1.187,1.222,1.548,1.548,0,0,0,1.45-.729V-9.51h2.979V0h-2.777Zm10.239-5.8-.976-.07a1.752,1.752,0,0,0-1.793.879V0h-2.962V-9.51h2.777l.1,1.222a2.294,2.294,0,0,1,2.083-1.4,2.888,2.888,0,0,1,.826.105ZM131.783,0a3.344,3.344,0,0,1-.281-.853A2.754,2.754,0,0,1,129.217.176a3.374,3.374,0,0,1-2.285-.813,2.588,2.588,0,0,1-.94-2.043,2.66,2.66,0,0,1,1.143-2.338,5.821,5.821,0,0,1,3.322-.791h.914v-.5q0-1.316-1.134-1.316a.927.927,0,0,0-1.055,1.042H126.22a2.655,2.655,0,0,1,1.173-2.239,4.931,4.931,0,0,1,2.993-.86,4.323,4.323,0,0,1,2.874.888,3.086,3.086,0,0,1,1.081,2.435v4.21a4.311,4.311,0,0,0,.4,2V0Zm-1.854-1.934a1.652,1.652,0,0,0,.918-.237,1.487,1.487,0,0,0,.523-.536V-4.228h-.861q-1.547,0-1.547,1.389a.848.848,0,0,0,.272.655A.986.986,0,0,0,129.929-1.934Zm5.678-2.892a5.809,5.809,0,0,1,.976-3.56,3.211,3.211,0,0,1,2.725-1.3,2.731,2.731,0,0,1,2.145,1V-13.5h2.971V0h-2.663l-.149-1.02a2.8,2.8,0,0,1-2.32,1.2,3.205,3.205,0,0,1-2.689-1.3A5.993,5.993,0,0,1,135.606-4.825Zm2.962.185q0,2.531,1.477,2.531a1.458,1.458,0,0,0,1.406-.826V-6.557a1.419,1.419,0,0,0-1.389-.844q-1.371,0-1.485,2.215Zm7.163-.2a5.613,5.613,0,0,1,.554-2.536,3.96,3.96,0,0,1,1.591-1.709,4.791,4.791,0,0,1,2.435-.6,4.373,4.373,0,0,1,3.366,1.323,5.076,5.076,0,0,1,1.23,3.6v.105a4.925,4.925,0,0,1-1.235,3.529A4.384,4.384,0,0,1,150.328.176a4.434,4.434,0,0,1-3.261-1.217,4.761,4.761,0,0,1-1.327-3.3Zm2.962.185a3.538,3.538,0,0,0,.413,1.934,1.376,1.376,0,0,0,1.222.615q1.582,0,1.617-2.435v-.3q0-2.558-1.635-2.558-1.485,0-1.608,2.206Zm12.5,1.986a.684.684,0,0,0-.4-.606,6.016,6.016,0,0,0-1.5-.475,6.853,6.853,0,0,1-1.828-.646,3.062,3.062,0,0,1-1.1-.971,2.319,2.319,0,0,1-.378-1.31,2.628,2.628,0,0,1,1.081-2.158,4.453,4.453,0,0,1,2.83-.848,4.934,4.934,0,0,1,3.023.853,2.666,2.666,0,0,1,1.143,2.241h-2.971q0-1.143-1.2-1.143a1.194,1.194,0,0,0-.782.259.8.8,0,0,0-.316.646.737.737,0,0,0,.387.642,3.654,3.654,0,0,0,1.235.4,10.671,10.671,0,0,1,1.49.378,2.706,2.706,0,0,1,2.145,2.646,2.491,2.491,0,0,1-1.156,2.118A5.068,5.068,0,0,1,159.9.176a5.172,5.172,0,0,1-2.18-.439,3.645,3.645,0,0,1-1.494-1.2,2.707,2.707,0,0,1-.536-1.591h2.769a1.145,1.145,0,0,0,.439.962,1.808,1.808,0,0,0,1.081.3,1.422,1.422,0,0,0,.91-.246A.787.787,0,0,0,161.191-2.672Z" transform="translate(350 6281.375)" fill="#12263f"/>
    <path id="Trazado_222107" data-name="Trazado 222107" d="M.967,0V-12.8H5.089a6.064,6.064,0,0,1,3.05.769,5.406,5.406,0,0,1,2.114,2.171,6.554,6.554,0,0,1,.769,3.142v.589a6.592,6.592,0,0,1-.743,3.151A5.429,5.429,0,0,1,8.187-.8a5.93,5.93,0,0,1-3.01.8ZM4.052-10.415v8.042H5.124a2.4,2.4,0,0,0,2.039-.945,4.63,4.63,0,0,0,.712-2.808V-6.68a4.592,4.592,0,0,0-.712-2.795,2.442,2.442,0,0,0-2.074-.94ZM17.824,0a3.344,3.344,0,0,1-.281-.853A2.754,2.754,0,0,1,15.258.176a3.374,3.374,0,0,1-2.285-.813,2.588,2.588,0,0,1-.94-2.043,2.66,2.66,0,0,1,1.143-2.338A5.821,5.821,0,0,1,16.5-5.81h.914v-.5q0-1.316-1.134-1.316a.927.927,0,0,0-1.055,1.042H12.261a2.655,2.655,0,0,1,1.173-2.239,4.931,4.931,0,0,1,2.993-.86A4.323,4.323,0,0,1,19.3-8.8a3.086,3.086,0,0,1,1.081,2.435v4.21a4.311,4.311,0,0,0,.4,2V0ZM15.97-1.934a1.652,1.652,0,0,0,.918-.237,1.487,1.487,0,0,0,.523-.536V-4.228H16.55Q15-4.228,15-2.839a.848.848,0,0,0,.272.655A.986.986,0,0,0,15.97-1.934Zm9.5-9.94V-9.51h1.564v2.057H25.471V-3.1a1.111,1.111,0,0,0,.193.747,1.037,1.037,0,0,0,.765.211,4.345,4.345,0,0,0,.738-.053V-.079A5.466,5.466,0,0,1,25.5.176a3.1,3.1,0,0,1-2.259-.721,2.954,2.954,0,0,1-.729-2.188v-4.72H21.3V-9.51h1.213v-2.364Zm2.092,7.031a5.613,5.613,0,0,1,.554-2.536,3.96,3.96,0,0,1,1.591-1.709,4.791,4.791,0,0,1,2.435-.6,4.373,4.373,0,0,1,3.366,1.323,5.076,5.076,0,0,1,1.23,3.6v.105A4.925,4.925,0,0,1,35.5-1.129,4.384,4.384,0,0,1,32.159.176,4.434,4.434,0,0,1,28.9-1.042a4.761,4.761,0,0,1-1.327-3.3Zm2.962.185a3.538,3.538,0,0,0,.413,1.934,1.376,1.376,0,0,0,1.222.615q1.582,0,1.617-2.435v-.3q0-2.558-1.635-2.558-1.485,0-1.608,2.206Zm12.5,1.986a.684.684,0,0,0-.4-.606,6.016,6.016,0,0,0-1.5-.475A6.853,6.853,0,0,1,39.3-4.4a3.062,3.062,0,0,1-1.1-.971,2.319,2.319,0,0,1-.378-1.31A2.628,2.628,0,0,1,38.9-8.837a4.453,4.453,0,0,1,2.83-.848,4.934,4.934,0,0,1,3.023.853A2.666,2.666,0,0,1,45.9-6.592H42.926q0-1.143-1.2-1.143a1.194,1.194,0,0,0-.782.259.8.8,0,0,0-.316.646.737.737,0,0,0,.387.642,3.654,3.654,0,0,0,1.235.4,10.671,10.671,0,0,1,1.49.378A2.706,2.706,0,0,1,45.879-2.76,2.491,2.491,0,0,1,44.723-.642,5.068,5.068,0,0,1,41.73.176a5.172,5.172,0,0,1-2.18-.439,3.645,3.645,0,0,1-1.494-1.2,2.707,2.707,0,0,1-.536-1.591h2.769a1.145,1.145,0,0,0,.439.962,1.808,1.808,0,0,0,1.081.3,1.422,1.422,0,0,0,.91-.246A.787.787,0,0,0,43.022-2.672ZM58.482-3.4A1.268,1.268,0,0,0,58-4.456a5.954,5.954,0,0,0-1.683-.782,16.147,16.147,0,0,1-1.969-.782q-2.487-1.222-2.487-3.357a3.011,3.011,0,0,1,.62-1.876,4.008,4.008,0,0,1,1.753-1.266,6.823,6.823,0,0,1,2.549-.453,5.969,5.969,0,0,1,2.474.492,3.917,3.917,0,0,1,1.7,1.4A3.661,3.661,0,0,1,61.567-9H58.491a1.547,1.547,0,0,0-.479-1.213,1.867,1.867,0,0,0-1.3-.431,2.106,2.106,0,0,0-1.305.365,1.119,1.119,0,0,0-.479.927,1.127,1.127,0,0,0,.527.892,6.65,6.65,0,0,0,1.854.826,11.36,11.36,0,0,1,2.18.918,3.663,3.663,0,0,1,2.074,3.3A3.125,3.125,0,0,1,60.3-.782,5.629,5.629,0,0,1,56.83.176a6.888,6.888,0,0,1-2.817-.558,4.247,4.247,0,0,1-1.9-1.529,3.985,3.985,0,0,1-.637-2.237h3.094A1.963,1.963,0,0,0,55.1-2.632a2.513,2.513,0,0,0,1.727.488,1.985,1.985,0,0,0,1.208-.33A1.088,1.088,0,0,0,58.482-3.4ZM67.614.176a4.889,4.889,0,0,1-3.542-1.305,4.507,4.507,0,0,1-1.354-3.4v-.246a5.84,5.84,0,0,1,.541-2.575,3.955,3.955,0,0,1,1.578-1.727A4.763,4.763,0,0,1,67.3-9.686a4.117,4.117,0,0,1,3.164,1.244,4.887,4.887,0,0,1,1.16,3.467v1.151H65.733a2.135,2.135,0,0,0,.694,1.257,2.066,2.066,0,0,0,1.389.457,2.662,2.662,0,0,0,2.2-.984l1.354,1.6A3.784,3.784,0,0,1,69.8-.277,5.3,5.3,0,0,1,67.614.176ZM67.28-7.4q-1.3,0-1.547,1.723h2.988v-.229a1.467,1.467,0,0,0-.36-1.1A1.434,1.434,0,0,0,67.28-7.4ZM75.612-9.51l.1,1.116a3.27,3.27,0,0,1,2.716-1.292,2.407,2.407,0,0,1,2.435,1.433,3.165,3.165,0,0,1,2.795-1.433q2.892,0,2.971,3.5V0H83.654V-6a1.813,1.813,0,0,0-.246-1.063,1.048,1.048,0,0,0-.9-.334,1.4,1.4,0,0,0-1.31.782l.009.123V0H78.24V-5.985A1.906,1.906,0,0,0,78-7.066,1.045,1.045,0,0,0,77.1-7.4a1.42,1.42,0,0,0-1.3.782V0H72.835V-9.51ZM91.441,0H88.471V-9.51h2.971ZM88.295-11.962A1.322,1.322,0,0,1,88.752-13a1.724,1.724,0,0,1,1.187-.4,1.724,1.724,0,0,1,1.187.4,1.322,1.322,0,0,1,.457,1.037,1.322,1.322,0,0,1-.457,1.037,1.724,1.724,0,0,1-1.187.4,1.724,1.724,0,0,1-1.187-.4A1.322,1.322,0,0,1,88.295-11.962ZM97.866.176a4.889,4.889,0,0,1-3.542-1.305,4.507,4.507,0,0,1-1.354-3.4v-.246a5.84,5.84,0,0,1,.541-2.575,3.955,3.955,0,0,1,1.578-1.727,4.763,4.763,0,0,1,2.461-.611,4.117,4.117,0,0,1,3.164,1.244,4.887,4.887,0,0,1,1.16,3.467v1.151H95.985a2.135,2.135,0,0,0,.694,1.257,2.066,2.066,0,0,0,1.389.457,2.662,2.662,0,0,0,2.2-.984l1.354,1.6A3.784,3.784,0,0,1,100.05-.277,5.3,5.3,0,0,1,97.866.176ZM97.532-7.4q-1.3,0-1.547,1.723h2.988v-.229a1.467,1.467,0,0,0-.36-1.1A1.434,1.434,0,0,0,97.532-7.4Zm10.512,4.729a.684.684,0,0,0-.4-.606,6.016,6.016,0,0,0-1.5-.475,6.853,6.853,0,0,1-1.828-.646,3.062,3.062,0,0,1-1.1-.971,2.319,2.319,0,0,1-.378-1.31,2.628,2.628,0,0,1,1.081-2.158,4.453,4.453,0,0,1,2.83-.848,4.934,4.934,0,0,1,3.023.853,2.666,2.666,0,0,1,1.143,2.241h-2.971q0-1.143-1.2-1.143a1.194,1.194,0,0,0-.782.259.8.8,0,0,0-.316.646.737.737,0,0,0,.387.642,3.654,3.654,0,0,0,1.235.4,10.671,10.671,0,0,1,1.49.378A2.706,2.706,0,0,1,110.9-2.76a2.491,2.491,0,0,1-1.156,2.118,5.068,5.068,0,0,1-2.993.817,5.172,5.172,0,0,1-2.18-.439,3.645,3.645,0,0,1-1.494-1.2,2.707,2.707,0,0,1-.536-1.591h2.769a1.145,1.145,0,0,0,.439.962,1.808,1.808,0,0,0,1.081.3,1.422,1.422,0,0,0,.91-.246A.787.787,0,0,0,108.044-2.672Zm7.69-9.2V-9.51H117.3v2.057h-1.564V-3.1a1.111,1.111,0,0,0,.193.747,1.037,1.037,0,0,0,.765.211,4.345,4.345,0,0,0,.738-.053V-.079a5.466,5.466,0,0,1-1.67.255A3.1,3.1,0,0,1,113.5-.545a2.954,2.954,0,0,1-.729-2.188v-4.72H111.56V-9.51h1.213v-2.364Zm8.481,5.045-.976-.07a1.752,1.752,0,0,0-1.793.879V0h-2.962V-9.51h2.777l.1,1.222a2.294,2.294,0,0,1,2.083-1.4,2.888,2.888,0,0,1,.826.105Zm6.732,5.8a3.054,3.054,0,0,1-2.54,1.2,3,3,0,0,1-2.369-.91,3.826,3.826,0,0,1-.8-2.615V-9.51H128.2v6.179a1.065,1.065,0,0,0,1.187,1.222,1.548,1.548,0,0,0,1.45-.729V-9.51h2.979V0h-2.777Zm8.508-1.081a1.317,1.317,0,0,0,.967-.338,1.241,1.241,0,0,0,.334-.945h2.777a3.288,3.288,0,0,1-1.121,2.566,4.168,4.168,0,0,1-2.887,1,4.22,4.22,0,0,1-3.27-1.3,5.125,5.125,0,0,1-1.2-3.6v-.123a5.792,5.792,0,0,1,.532-2.544,3.872,3.872,0,0,1,1.534-1.7,4.573,4.573,0,0,1,2.373-.593,4.116,4.116,0,0,1,2.944,1.028,3.647,3.647,0,0,1,1.09,2.786h-2.777A1.626,1.626,0,0,0,140.4-7a1.244,1.244,0,0,0-.967-.4q-1.151,0-1.345,1.468a10.357,10.357,0,0,0-.062,1.283,4.068,4.068,0,0,0,.343,1.986A1.187,1.187,0,0,0,139.456-2.109Zm8.78-9.765V-9.51H149.8v2.057h-1.564V-3.1a1.111,1.111,0,0,0,.193.747,1.037,1.037,0,0,0,.765.211,4.345,4.345,0,0,0,.738-.053V-.079a5.466,5.466,0,0,1-1.67.255A3.1,3.1,0,0,1,146-.545a2.954,2.954,0,0,1-.729-2.188v-4.72h-1.213V-9.51h1.213v-2.364ZM156.63-1.028a3.054,3.054,0,0,1-2.54,1.2,3,3,0,0,1-2.369-.91,3.826,3.826,0,0,1-.8-2.615V-9.51h2.962v6.179a1.065,1.065,0,0,0,1.187,1.222,1.548,1.548,0,0,0,1.45-.729V-9.51H159.5V0h-2.777Zm10.239-5.8-.976-.07a1.752,1.752,0,0,0-1.793.879V0h-2.962V-9.51h2.777l.1,1.222a2.294,2.294,0,0,1,2.083-1.4,2.888,2.888,0,0,1,.826.105ZM173.03,0a3.344,3.344,0,0,1-.281-.853A2.754,2.754,0,0,1,170.464.176a3.374,3.374,0,0,1-2.285-.813,2.588,2.588,0,0,1-.94-2.043,2.66,2.66,0,0,1,1.143-2.338A5.821,5.821,0,0,1,171.7-5.81h.914v-.5q0-1.316-1.134-1.316a.927.927,0,0,0-1.055,1.042h-2.962a2.655,2.655,0,0,1,1.173-2.239,4.931,4.931,0,0,1,2.993-.86,4.323,4.323,0,0,1,2.874.888,3.086,3.086,0,0,1,1.081,2.435v4.21a4.311,4.311,0,0,0,.4,2V0Zm-1.854-1.934a1.652,1.652,0,0,0,.918-.237,1.487,1.487,0,0,0,.523-.536V-4.228h-.861q-1.547,0-1.547,1.389a.848.848,0,0,0,.272.655A.986.986,0,0,0,171.176-1.934Zm5.678-2.892a5.809,5.809,0,0,1,.976-3.56,3.211,3.211,0,0,1,2.725-1.3,2.731,2.731,0,0,1,2.145,1V-13.5h2.971V0h-2.663l-.149-1.02a2.8,2.8,0,0,1-2.32,1.2,3.205,3.205,0,0,1-2.689-1.3A5.993,5.993,0,0,1,176.854-4.825Zm2.962.185q0,2.531,1.477,2.531a1.458,1.458,0,0,0,1.406-.826V-6.557A1.419,1.419,0,0,0,181.31-7.4q-1.371,0-1.485,2.215Zm7.163-.2a5.613,5.613,0,0,1,.554-2.536,3.96,3.96,0,0,1,1.591-1.709,4.791,4.791,0,0,1,2.435-.6,4.373,4.373,0,0,1,3.366,1.323,5.076,5.076,0,0,1,1.23,3.6v.105a4.925,4.925,0,0,1-1.235,3.529A4.384,4.384,0,0,1,191.575.176a4.434,4.434,0,0,1-3.261-1.217,4.761,4.761,0,0,1-1.327-3.3Zm2.962.185a3.538,3.538,0,0,0,.413,1.934,1.376,1.376,0,0,0,1.222.615q1.582,0,1.617-2.435v-.3q0-2.558-1.635-2.558-1.485,0-1.608,2.206Zm12.5,1.986a.684.684,0,0,0-.4-.606,6.016,6.016,0,0,0-1.5-.475,6.853,6.853,0,0,1-1.828-.646,3.062,3.062,0,0,1-1.1-.971,2.319,2.319,0,0,1-.378-1.31,2.628,2.628,0,0,1,1.081-2.158,4.453,4.453,0,0,1,2.83-.848,4.934,4.934,0,0,1,3.023.853,2.666,2.666,0,0,1,1.143,2.241h-2.971q0-1.143-1.2-1.143a1.194,1.194,0,0,0-.782.259.8.8,0,0,0-.316.646.737.737,0,0,0,.387.642,3.654,3.654,0,0,0,1.235.4,10.671,10.671,0,0,1,1.49.378,2.706,2.706,0,0,1,2.145,2.646,2.491,2.491,0,0,1-1.156,2.118,5.068,5.068,0,0,1-2.993.817,5.172,5.172,0,0,1-2.18-.439,3.645,3.645,0,0,1-1.494-1.2,2.707,2.707,0,0,1-.536-1.591h2.769a1.145,1.145,0,0,0,.439.962,1.808,1.808,0,0,0,1.081.3,1.422,1.422,0,0,0,.91-.246A.787.787,0,0,0,202.438-2.672Z" transform="translate(698 6281.375)" fill="#12263f"/>
    <path id="Trazado_222108" data-name="Trazado 222108" d="M.967,0V-12.8H5.089a6.064,6.064,0,0,1,3.05.769,5.406,5.406,0,0,1,2.114,2.171,6.554,6.554,0,0,1,.769,3.142v.589a6.592,6.592,0,0,1-.743,3.151A5.429,5.429,0,0,1,8.187-.8a5.93,5.93,0,0,1-3.01.8ZM4.052-10.415v8.042H5.124a2.4,2.4,0,0,0,2.039-.945,4.63,4.63,0,0,0,.712-2.808V-6.68a4.592,4.592,0,0,0-.712-2.795,2.442,2.442,0,0,0-2.074-.94ZM17.824,0a3.344,3.344,0,0,1-.281-.853A2.754,2.754,0,0,1,15.258.176a3.374,3.374,0,0,1-2.285-.813,2.588,2.588,0,0,1-.94-2.043,2.66,2.66,0,0,1,1.143-2.338A5.821,5.821,0,0,1,16.5-5.81h.914v-.5q0-1.316-1.134-1.316a.927.927,0,0,0-1.055,1.042H12.261a2.655,2.655,0,0,1,1.173-2.239,4.931,4.931,0,0,1,2.993-.86A4.323,4.323,0,0,1,19.3-8.8a3.086,3.086,0,0,1,1.081,2.435v4.21a4.311,4.311,0,0,0,.4,2V0ZM15.97-1.934a1.652,1.652,0,0,0,.918-.237,1.487,1.487,0,0,0,.523-.536V-4.228H16.55Q15-4.228,15-2.839a.848.848,0,0,0,.272.655A.986.986,0,0,0,15.97-1.934Zm9.5-9.94V-9.51h1.564v2.057H25.471V-3.1a1.111,1.111,0,0,0,.193.747,1.037,1.037,0,0,0,.765.211,4.345,4.345,0,0,0,.738-.053V-.079A5.466,5.466,0,0,1,25.5.176a3.1,3.1,0,0,1-2.259-.721,2.954,2.954,0,0,1-.729-2.188v-4.72H21.3V-9.51h1.213v-2.364Zm2.092,7.031a5.613,5.613,0,0,1,.554-2.536,3.96,3.96,0,0,1,1.591-1.709,4.791,4.791,0,0,1,2.435-.6,4.373,4.373,0,0,1,3.366,1.323,5.076,5.076,0,0,1,1.23,3.6v.105A4.925,4.925,0,0,1,35.5-1.129,4.384,4.384,0,0,1,32.159.176,4.434,4.434,0,0,1,28.9-1.042a4.761,4.761,0,0,1-1.327-3.3Zm2.962.185a3.538,3.538,0,0,0,.413,1.934,1.376,1.376,0,0,0,1.222.615q1.582,0,1.617-2.435v-.3q0-2.558-1.635-2.558-1.485,0-1.608,2.206Zm12.5,1.986a.684.684,0,0,0-.4-.606,6.016,6.016,0,0,0-1.5-.475A6.853,6.853,0,0,1,39.3-4.4a3.062,3.062,0,0,1-1.1-.971,2.319,2.319,0,0,1-.378-1.31A2.628,2.628,0,0,1,38.9-8.837a4.453,4.453,0,0,1,2.83-.848,4.934,4.934,0,0,1,3.023.853A2.666,2.666,0,0,1,45.9-6.592H42.926q0-1.143-1.2-1.143a1.194,1.194,0,0,0-.782.259.8.8,0,0,0-.316.646.737.737,0,0,0,.387.642,3.654,3.654,0,0,0,1.235.4,10.671,10.671,0,0,1,1.49.378A2.706,2.706,0,0,1,45.879-2.76,2.491,2.491,0,0,1,44.723-.642,5.068,5.068,0,0,1,41.73.176a5.172,5.172,0,0,1-2.18-.439,3.645,3.645,0,0,1-1.494-1.2,2.707,2.707,0,0,1-.536-1.591h2.769a1.145,1.145,0,0,0,.439.962,1.808,1.808,0,0,0,1.081.3,1.422,1.422,0,0,0,.91-.246A.787.787,0,0,0,43.022-2.672ZM62.569,0H59.5L54.967-7.963V0H51.882V-12.8h3.085l4.526,7.963V-12.8h3.076Zm1.441-4.843a5.613,5.613,0,0,1,.554-2.536,3.96,3.96,0,0,1,1.591-1.709,4.791,4.791,0,0,1,2.435-.6,4.373,4.373,0,0,1,3.366,1.323,5.076,5.076,0,0,1,1.23,3.6v.105a4.925,4.925,0,0,1-1.235,3.529A4.384,4.384,0,0,1,68.607.176a4.434,4.434,0,0,1-3.261-1.217,4.761,4.761,0,0,1-1.327-3.3Zm2.962.185a3.538,3.538,0,0,0,.413,1.934,1.376,1.376,0,0,0,1.222.615q1.582,0,1.617-2.435v-.3q0-2.558-1.635-2.558-1.485,0-1.608,2.206Zm20.074-.773H82.2v3.059h5.73V0H79.11V-12.8h8.833v2.382H82.2v2.7h4.852Zm6.979,2.76a.684.684,0,0,0-.4-.606,6.016,6.016,0,0,0-1.5-.475A6.853,6.853,0,0,1,90.3-4.4a3.062,3.062,0,0,1-1.1-.971,2.319,2.319,0,0,1-.378-1.31A2.628,2.628,0,0,1,89.9-8.837a4.453,4.453,0,0,1,2.83-.848,4.934,4.934,0,0,1,3.023.853A2.666,2.666,0,0,1,96.9-6.592H93.929q0-1.143-1.2-1.143a1.194,1.194,0,0,0-.782.259.8.8,0,0,0-.316.646.737.737,0,0,0,.387.642,3.654,3.654,0,0,0,1.235.4,10.671,10.671,0,0,1,1.49.378A2.706,2.706,0,0,1,96.882-2.76,2.491,2.491,0,0,1,95.726-.642a5.068,5.068,0,0,1-2.993.817,5.172,5.172,0,0,1-2.18-.439,3.645,3.645,0,0,1-1.494-1.2,2.707,2.707,0,0,1-.536-1.591h2.769a1.145,1.145,0,0,0,.439.962,1.808,1.808,0,0,0,1.081.3,1.422,1.422,0,0,0,.91-.246A.787.787,0,0,0,94.025-2.672Zm7.69-9.2V-9.51h1.564v2.057h-1.564V-3.1a1.111,1.111,0,0,0,.193.747,1.037,1.037,0,0,0,.765.211,4.345,4.345,0,0,0,.738-.053V-.079a5.466,5.466,0,0,1-1.67.255,3.1,3.1,0,0,1-2.259-.721,2.954,2.954,0,0,1-.729-2.188v-4.72H97.541V-9.51h1.213v-2.364ZM110.2-6.829l-.976-.07a1.752,1.752,0,0,0-1.793.879V0h-2.962V-9.51h2.777l.1,1.222a2.294,2.294,0,0,1,2.083-1.4,2.888,2.888,0,0,1,.826.105Zm6.732,5.8a3.054,3.054,0,0,1-2.54,1.2,3,3,0,0,1-2.369-.91,3.826,3.826,0,0,1-.8-2.615V-9.51h2.962v6.179a1.065,1.065,0,0,0,1.187,1.222,1.548,1.548,0,0,0,1.45-.729V-9.51h2.979V0h-2.777Zm8.508-1.081a1.317,1.317,0,0,0,.967-.338,1.241,1.241,0,0,0,.334-.945h2.777A3.288,3.288,0,0,1,128.4-.826a4.168,4.168,0,0,1-2.887,1,4.22,4.22,0,0,1-3.27-1.3,5.125,5.125,0,0,1-1.2-3.6v-.123a5.792,5.792,0,0,1,.532-2.544,3.872,3.872,0,0,1,1.534-1.7,4.573,4.573,0,0,1,2.373-.593,4.116,4.116,0,0,1,2.944,1.028,3.647,3.647,0,0,1,1.09,2.786h-2.777A1.626,1.626,0,0,0,126.378-7a1.244,1.244,0,0,0-.967-.4q-1.151,0-1.345,1.468A10.357,10.357,0,0,0,124-4.649a4.068,4.068,0,0,0,.343,1.986A1.187,1.187,0,0,0,125.438-2.109Zm8.78-9.765V-9.51h1.564v2.057h-1.564V-3.1a1.111,1.111,0,0,0,.193.747,1.037,1.037,0,0,0,.765.211,4.345,4.345,0,0,0,.738-.053V-.079a5.466,5.466,0,0,1-1.67.255,3.1,3.1,0,0,1-2.259-.721,2.954,2.954,0,0,1-.729-2.188v-4.72h-1.213V-9.51h1.213v-2.364Zm8.394,10.846a3.054,3.054,0,0,1-2.54,1.2,3,3,0,0,1-2.369-.91,3.826,3.826,0,0,1-.8-2.615V-9.51h2.962v6.179a1.065,1.065,0,0,0,1.187,1.222,1.548,1.548,0,0,0,1.45-.729V-9.51h2.979V0H142.7Zm10.239-5.8-.976-.07a1.752,1.752,0,0,0-1.793.879V0H147.12V-9.51H149.9l.1,1.222a2.294,2.294,0,0,1,2.083-1.4,2.888,2.888,0,0,1,.826.105ZM159.012,0a3.344,3.344,0,0,1-.281-.853A2.754,2.754,0,0,1,156.445.176a3.374,3.374,0,0,1-2.285-.813,2.588,2.588,0,0,1-.94-2.043,2.66,2.66,0,0,1,1.143-2.338,5.821,5.821,0,0,1,3.322-.791h.914v-.5q0-1.316-1.134-1.316a.927.927,0,0,0-1.055,1.042h-2.962a2.655,2.655,0,0,1,1.173-2.239,4.931,4.931,0,0,1,2.993-.86,4.323,4.323,0,0,1,2.874.888,3.086,3.086,0,0,1,1.081,2.435v4.21a4.311,4.311,0,0,0,.4,2V0Zm-1.854-1.934a1.652,1.652,0,0,0,.918-.237,1.487,1.487,0,0,0,.523-.536V-4.228h-.861q-1.547,0-1.547,1.389a.848.848,0,0,0,.272.655A.986.986,0,0,0,157.157-1.934Zm5.678-2.892a5.809,5.809,0,0,1,.976-3.56,3.211,3.211,0,0,1,2.725-1.3,2.731,2.731,0,0,1,2.145,1V-13.5h2.971V0h-2.663l-.149-1.02a2.8,2.8,0,0,1-2.32,1.2,3.205,3.205,0,0,1-2.689-1.3A5.993,5.993,0,0,1,162.835-4.825Zm2.962.185q0,2.531,1.477,2.531a1.458,1.458,0,0,0,1.406-.826V-6.557a1.419,1.419,0,0,0-1.389-.844q-1.371,0-1.485,2.215Zm7.163-.2a5.613,5.613,0,0,1,.554-2.536A3.96,3.96,0,0,1,175.1-9.088a4.791,4.791,0,0,1,2.435-.6,4.373,4.373,0,0,1,3.366,1.323,5.076,5.076,0,0,1,1.23,3.6v.105A4.925,4.925,0,0,1,180.9-1.129,4.384,4.384,0,0,1,177.557.176,4.434,4.434,0,0,1,174.3-1.042a4.761,4.761,0,0,1-1.327-3.3Zm2.962.185a3.538,3.538,0,0,0,.413,1.934,1.376,1.376,0,0,0,1.222.615q1.582,0,1.617-2.435v-.3q0-2.558-1.635-2.558-1.485,0-1.608,2.206Zm12.5,1.986a.684.684,0,0,0-.4-.606,6.016,6.016,0,0,0-1.5-.475,6.853,6.853,0,0,1-1.828-.646,3.062,3.062,0,0,1-1.1-.971,2.319,2.319,0,0,1-.378-1.31A2.628,2.628,0,0,1,184.3-8.837a4.453,4.453,0,0,1,2.83-.848,4.934,4.934,0,0,1,3.023.853,2.666,2.666,0,0,1,1.143,2.241h-2.971q0-1.143-1.2-1.143a1.194,1.194,0,0,0-.782.259.8.8,0,0,0-.316.646.737.737,0,0,0,.387.642,3.654,3.654,0,0,0,1.235.4,10.671,10.671,0,0,1,1.49.378,2.706,2.706,0,0,1,2.145,2.646,2.491,2.491,0,0,1-1.156,2.118,5.068,5.068,0,0,1-2.993.817,5.172,5.172,0,0,1-2.18-.439,3.645,3.645,0,0,1-1.494-1.2,2.707,2.707,0,0,1-.536-1.591h2.769a1.145,1.145,0,0,0,.439.962,1.808,1.808,0,0,0,1.081.3,1.422,1.422,0,0,0,.91-.246A.787.787,0,0,0,188.42-2.672Z" transform="translate(1072 6281.375)" fill="#12263f"/>
    <g id="Grupo_172762" data-name="Grupo 172762" transform="translate(714 5994)">
      <rect id="Rectángulo_44619" data-name="Rectángulo 44619" width="33.529" height="33.529" transform="translate(3.763)" fill="#d9000d"/>
      <path id="Rectángulo_44619_-_Contorno" data-name="Rectángulo 44619 - Contorno" d="M-.375-.375H33.9V33.9H-.375Zm33.529.75H.375V33.154H33.154Z" transform="translate(3.763)" fill="#b10009"/>
      <rect id="Rectángulo_44620" data-name="Rectángulo 44620" width="33.529" height="33.529" transform="translate(0 43.547)" fill="#de5d26"/>
      <path id="Rectángulo_44620_-_Contorno" data-name="Rectángulo 44620 - Contorno" d="M-.375-.375H33.9V33.9H-.375Zm33.529.75H.375V33.154H33.154Z" transform="translate(0 43.547)" fill="#b64f20"/>
      <rect id="Rectángulo_44621" data-name="Rectángulo 44621" width="33.529" height="33.529" transform="translate(95.705 90.935)" fill="#de5d26"/>
      <path id="Rectángulo_44621_-_Contorno" data-name="Rectángulo 44621 - Contorno" d="M-.375-.375H33.9V33.9H-.375Zm33.529.75H.375V33.154H33.154Z" transform="translate(95.705 90.935)" fill="#b64f20"/>
      <rect id="Rectángulo_44622" data-name="Rectángulo 44622" width="33.529" height="33.529" transform="translate(3.763 181.871)" fill="#d9000d"/>
      <path id="Rectángulo_44622_-_Contorno" data-name="Rectángulo 44622 - Contorno" d="M-.375-.375H33.9V33.9H-.375Zm33.529.75H.375V33.154H33.154Z" transform="translate(3.763 181.871)" fill="#b10009"/>
      <rect id="Rectángulo_44623" data-name="Rectángulo 44623" width="33.529" height="33.529" transform="translate(100.403 137.913)" fill="#d9000d"/>
      <path id="Rectángulo_44623_-_Contorno" data-name="Rectángulo 44623 - Contorno" d="M-.375-.375H33.9V33.9H-.375Zm33.529.75H.375V33.154H33.154Z" transform="translate(100.403 137.913)" fill="#b10009"/>
      <rect id="Rectángulo_44624" data-name="Rectángulo 44624" width="33.529" height="33.529" transform="translate(95.705)" fill="#4aa042"/>
      <path id="Rectángulo_44624_-_Contorno" data-name="Rectángulo 44624 - Contorno" d="M-.375-.375H33.9V33.9H-.375Zm33.529.75H.375V33.154H33.154Z" transform="translate(95.705)" fill="#3f8538"/>
      <rect id="Rectángulo_44625" data-name="Rectángulo 44625" width="33.529" height="33.529" transform="translate(140.328)" fill="#2f97a6"/>
      <path id="Rectángulo_44625_-_Contorno" data-name="Rectángulo 44625 - Contorno" d="M-.5-.5H34.029V34.029H-.5ZM33.029.5H.5V33.029H33.029Z" transform="translate(140.328)" fill="#297f8a"/>
      <rect id="Rectángulo_44626" data-name="Rectángulo 44626" width="33.529" height="33.529" transform="translate(49.734)" fill="#2f97a6"/>
      <path id="Rectángulo_44626_-_Contorno" data-name="Rectángulo 44626 - Contorno" d="M-.5-.5H34.029V34.029H-.5ZM33.029.5H.5V33.029H33.029Z" transform="translate(49.734)" fill="#297f8a"/>
      <rect id="Rectángulo_44627" data-name="Rectángulo 44627" width="33.529" height="33.529" transform="translate(49.734 45.832)" fill="#2f97a6"/>
      <path id="Rectángulo_44627_-_Contorno" data-name="Rectángulo 44627 - Contorno" d="M-.5-.5H34.029V34.029H-.5ZM33.029.5H.5V33.029H33.029Z" transform="translate(49.734 45.832)" fill="#297f8a"/>
      <rect id="Rectángulo_44628" data-name="Rectángulo 44628" width="33.529" height="33.529" transform="translate(49.734 90.935)" fill="#2f97a6"/>
      <path id="Rectángulo_44628_-_Contorno" data-name="Rectángulo 44628 - Contorno" d="M-.5-.5H34.029V34.029H-.5ZM33.029.5H.5V33.029H33.029Z" transform="translate(49.734 90.935)" fill="#297f8a"/>
      <rect id="Rectángulo_44629" data-name="Rectángulo 44629" width="33.529" height="33.529" transform="translate(49.734 136.039)" fill="#2f97a6"/>
      <path id="Rectángulo_44629_-_Contorno" data-name="Rectángulo 44629 - Contorno" d="M-.5-.5H34.029V34.029H-.5ZM33.029.5H.5V33.029H33.029Z" transform="translate(49.734 136.039)" fill="#297f8a"/>
      <rect id="Rectángulo_44630" data-name="Rectángulo 44630" width="33.529" height="33.529" transform="translate(49.734 181.142)" fill="#2f97a6"/>
      <path id="Rectángulo_44630_-_Contorno" data-name="Rectángulo 44630 - Contorno" d="M-.5-.5H34.029V34.029H-.5ZM33.029.5H.5V33.029H33.029Z" transform="translate(49.734 181.142)" fill="#297f8a"/>
      <rect id="Rectángulo_44631" data-name="Rectángulo 44631" width="33.529" height="33.529" transform="translate(9.984 136.039)" fill="#472478"/>
      <path id="Rectángulo_44631_-_Contorno" data-name="Rectángulo 44631 - Contorno" d="M-.5-.5H34.029V34.029H-.5ZM33.029.5H.5V33.029H33.029Z" transform="translate(9.984 136.039)" fill="#3c1e64"/>
      <rect id="Rectángulo_44632" data-name="Rectángulo 44632" width="33.529" height="33.529" transform="translate(89.821 44.643)" fill="#472478"/>
      <path id="Rectángulo_44632_-_Contorno" data-name="Rectángulo 44632 - Contorno" d="M-.5-.5H34.029V34.029H-.5ZM33.029.5H.5V33.029H33.029Z" transform="translate(89.821 44.643)" fill="#3c1e64"/>
      <rect id="Rectángulo_44633" data-name="Rectángulo 44633" width="33.529" height="33.529" transform="translate(95.705 181.871)" fill="#472478"/>
      <path id="Rectángulo_44633_-_Contorno" data-name="Rectángulo 44633 - Contorno" d="M-.5-.5H34.029V34.029H-.5ZM33.029.5H.5V33.029H33.029Z" transform="translate(95.705 181.871)" fill="#3c1e64"/>
      <rect id="Rectángulo_44634" data-name="Rectángulo 44634" width="33.529" height="33.529" transform="translate(140.328 45.832)" fill="#2f97a6"/>
      <path id="Rectángulo_44634_-_Contorno" data-name="Rectángulo 44634 - Contorno" d="M-.5-.5H34.029V34.029H-.5ZM33.029.5H.5V33.029H33.029Z" transform="translate(140.328 45.832)" fill="#297f8a"/>
      <rect id="Rectángulo_44635" data-name="Rectángulo 44635" width="33.529" height="33.529" transform="translate(140.328 91.664)" fill="#2f97a6"/>
      <path id="Rectángulo_44635_-_Contorno" data-name="Rectángulo 44635 - Contorno" d="M-.5-.5H34.029V34.029H-.5ZM33.029.5H.5V33.029H33.029Z" transform="translate(140.328 91.664)" fill="#297f8a"/>
      <rect id="Rectángulo_44636" data-name="Rectángulo 44636" width="33.529" height="33.529" transform="translate(140.328 137.496)" fill="#2f97a6"/>
      <path id="Rectángulo_44636_-_Contorno" data-name="Rectángulo 44636 - Contorno" d="M-.5-.5H34.029V34.029H-.5ZM33.029.5H.5V33.029H33.029Z" transform="translate(140.328 137.496)" fill="#297f8a"/>
      <rect id="Rectángulo_44637" data-name="Rectángulo 44637" width="33.529" height="33.529" transform="translate(140.328 183.328)" fill="#2f97a6"/>
      <path id="Rectángulo_44637_-_Contorno" data-name="Rectángulo 44637 - Contorno" d="M-.5-.5H34.029V34.029H-.5ZM33.029.5H.5V33.029H33.029Z" transform="translate(140.328 183.328)" fill="#297f8a"/>
      <rect id="Rectángulo_44638" data-name="Rectángulo 44638" width="33.529" height="33.529" transform="translate(5.336 90.935)" fill="#4aa042"/>
      <path id="Rectángulo_44638_-_Contorno" data-name="Rectángulo 44638 - Contorno" d="M-.375-.375H33.9V33.9H-.375Zm33.529.75H.375V33.154H33.154Z" transform="translate(5.336 90.935)" fill="#3f8538"/>
    </g>
    <g id="Grupo_172763" data-name="Grupo 172763" transform="translate(350 5996)">
      <rect id="Rectángulo_44639" data-name="Rectángulo 44639" width="33.529" height="33.529" fill="#f4fafe"/>
      <path id="Rectángulo_44639_-_Contorno" data-name="Rectángulo 44639 - Contorno" d="M-.375-.375H33.9V33.9H-.375Zm33.529.75H.375V33.154H33.154Z" fill="#5d7282"/>
      <rect id="Rectángulo_44640" data-name="Rectángulo 44640" width="33.529" height="33.529" transform="translate(43.828)" fill="#f4fafe"/>
      <path id="Rectángulo_44640_-_Contorno" data-name="Rectángulo 44640 - Contorno" d="M-.375-.375H33.9V33.9H-.375Zm33.529.75H.375V33.154H33.154Z" transform="translate(43.828)" fill="#5d7282"/>
      <rect id="Rectángulo_44641" data-name="Rectángulo 44641" width="33.529" height="33.529" transform="translate(87.656)" fill="#f4fafe"/>
      <path id="Rectángulo_44641_-_Contorno" data-name="Rectángulo 44641 - Contorno" d="M-.375-.375H33.9V33.9H-.375Zm33.529.75H.375V33.154H33.154Z" transform="translate(87.656)" fill="#5d7282"/>
      <rect id="Rectángulo_44642" data-name="Rectángulo 44642" width="33.529" height="33.529" transform="translate(131.484)" fill="#f4fafe"/>
      <path id="Rectángulo_44642_-_Contorno" data-name="Rectángulo 44642 - Contorno" d="M-.375-.375H33.9V33.9H-.375Zm33.529.75H.375V33.154H33.154Z" transform="translate(131.484)" fill="#5d7282"/>
      <rect id="Rectángulo_44643" data-name="Rectángulo 44643" width="33.529" height="33.529" transform="translate(0 44.674)" fill="#f4fafe"/>
      <path id="Rectángulo_44643_-_Contorno" data-name="Rectángulo 44643 - Contorno" d="M-.375-.375H33.9V33.9H-.375Zm33.529.75H.375V33.154H33.154Z" transform="translate(0 44.674)" fill="#5d7282"/>
      <rect id="Rectángulo_44644" data-name="Rectángulo 44644" width="33.529" height="33.529" transform="translate(43.828 44.674)" fill="#add5f3"/>
      <path id="Rectángulo_44644_-_Contorno" data-name="Rectángulo 44644 - Contorno" d="M-.375-.375H33.9V33.9H-.375Zm33.529.75H.375V33.154H33.154Z" transform="translate(43.828 44.674)" fill="#5d7282"/>
      <rect id="Rectángulo_44645" data-name="Rectángulo 44645" width="33.529" height="33.529" transform="translate(87.656 44.674)" fill="#add5f3"/>
      <path id="Rectángulo_44645_-_Contorno" data-name="Rectángulo 44645 - Contorno" d="M-.375-.375H33.9V33.9H-.375Zm33.529.75H.375V33.154H33.154Z" transform="translate(87.656 44.674)" fill="#5d7282"/>
      <rect id="Rectángulo_44646" data-name="Rectángulo 44646" width="33.529" height="33.529" transform="translate(131.484 44.674)" fill="#f4fafe"/>
      <path id="Rectángulo_44646_-_Contorno" data-name="Rectángulo 44646 - Contorno" d="M-.375-.375H33.9V33.9H-.375Zm33.529.75H.375V33.154H33.154Z" transform="translate(131.484 44.674)" fill="#5d7282"/>
      <rect id="Rectángulo_44647" data-name="Rectángulo 44647" width="33.529" height="33.529" transform="translate(0 89.347)" fill="#add5f3"/>
      <path id="Rectángulo_44647_-_Contorno" data-name="Rectángulo 44647 - Contorno" d="M-.375-.375H33.9V33.9H-.375Zm33.529.75H.375V33.154H33.154Z" transform="translate(0 89.347)" fill="#5d7282"/>
      <rect id="Rectángulo_44648" data-name="Rectángulo 44648" width="33.529" height="33.529" transform="translate(43.828 89.347)" fill="#add5f3"/>
      <path id="Rectángulo_44648_-_Contorno" data-name="Rectángulo 44648 - Contorno" d="M-.375-.375H33.9V33.9H-.375Zm33.529.75H.375V33.154H33.154Z" transform="translate(43.828 89.347)" fill="#5d7282"/>
      <rect id="Rectángulo_44649" data-name="Rectángulo 44649" width="33.529" height="33.529" transform="translate(87.656 89.347)" fill="#83a1b9"/>
      <path id="Rectángulo_44649_-_Contorno" data-name="Rectángulo 44649 - Contorno" d="M-.375-.375H33.9V33.9H-.375Zm33.529.75H.375V33.154H33.154Z" transform="translate(87.656 89.347)" fill="#5d7282"/>
      <rect id="Rectángulo_44650" data-name="Rectángulo 44650" width="33.529" height="33.529" transform="translate(131.484 89.347)" fill="#f4fafe"/>
      <path id="Rectángulo_44650_-_Contorno" data-name="Rectángulo 44650 - Contorno" d="M-.375-.375H33.9V33.9H-.375Zm33.529.75H.375V33.154H33.154Z" transform="translate(131.484 89.347)" fill="#5d7282"/>
      <rect id="Rectángulo_44651" data-name="Rectángulo 44651" width="33.529" height="33.529" transform="translate(0 134.021)" fill="#add5f3"/>
      <path id="Rectángulo_44651_-_Contorno" data-name="Rectángulo 44651 - Contorno" d="M-.375-.375H33.9V33.9H-.375Zm33.529.75H.375V33.154H33.154Z" transform="translate(0 134.021)" fill="#5d7282"/>
      <rect id="Rectángulo_44652" data-name="Rectángulo 44652" width="33.529" height="33.529" transform="translate(43.828 134.021)" fill="#add5f3"/>
      <path id="Rectángulo_44652_-_Contorno" data-name="Rectángulo 44652 - Contorno" d="M-.375-.375H33.9V33.9H-.375Zm33.529.75H.375V33.154H33.154Z" transform="translate(43.828 134.021)" fill="#5d7282"/>
      <rect id="Rectángulo_44653" data-name="Rectángulo 44653" width="33.529" height="33.529" transform="translate(87.656 134.021)" fill="#83a1b9"/>
      <path id="Rectángulo_44653_-_Contorno" data-name="Rectángulo 44653 - Contorno" d="M-.375-.375H33.9V33.9H-.375Zm33.529.75H.375V33.154H33.154Z" transform="translate(87.656 134.021)" fill="#5d7282"/>
      <rect id="Rectángulo_44654" data-name="Rectángulo 44654" width="33.529" height="33.529" transform="translate(131.484 134.021)" fill="#f4fafe"/>
      <path id="Rectángulo_44654_-_Contorno" data-name="Rectángulo 44654 - Contorno" d="M-.375-.375H33.9V33.9H-.375Zm33.529.75H.375V33.154H33.154Z" transform="translate(131.484 134.021)" fill="#5d7282"/>
      <rect id="Rectángulo_44655" data-name="Rectángulo 44655" width="33.529" height="33.529" transform="translate(0 178.694)" fill="#83a1b9"/>
      <path id="Rectángulo_44655_-_Contorno" data-name="Rectángulo 44655 - Contorno" d="M-.375-.375H33.9V33.9H-.375Zm33.529.75H.375V33.154H33.154Z" transform="translate(0 178.694)" fill="#5d7282"/>
      <rect id="Rectángulo_44656" data-name="Rectángulo 44656" width="33.529" height="33.529" transform="translate(43.828 178.694)" fill="#83a1b9"/>
      <path id="Rectángulo_44656_-_Contorno" data-name="Rectángulo 44656 - Contorno" d="M-.375-.375H33.9V33.9H-.375Zm33.529.75H.375V33.154H33.154Z" transform="translate(43.828 178.694)" fill="#5d7282"/>
      <rect id="Rectángulo_44657" data-name="Rectángulo 44657" width="33.529" height="33.529" transform="translate(87.656 178.694)" fill="#83a1b9"/>
      <path id="Rectángulo_44657_-_Contorno" data-name="Rectángulo 44657 - Contorno" d="M-.375-.375H33.9V33.9H-.375Zm33.529.75H.375V33.154H33.154Z" transform="translate(87.656 178.694)" fill="#5d7282"/>
      <rect id="Rectángulo_44658" data-name="Rectángulo 44658" width="33.529" height="33.529" transform="translate(131.484 178.694)" fill="#f4fafe"/>
      <path id="Rectángulo_44658_-_Contorno" data-name="Rectángulo 44658 - Contorno" d="M-.375-.375H33.9V33.9H-.375Zm33.529.75H.375V33.154H33.154Z" transform="translate(131.484 178.694)" fill="#5d7282"/>
    </g>
    <g id="Modo_de_aislamiento" data-name="Modo de aislamiento" transform="translate(1083 5984)">
      <g id="Grupo_148866" data-name="Grupo 148866">
        <rect id="Rectángulo_44659" data-name="Rectángulo 44659" width="33.529" height="33.529" transform="translate(51.066 137.837)" fill="#d9000d"/>
        <path id="Rectángulo_44659_-_Contorno" data-name="Rectángulo 44659 - Contorno" d="M-.375-.375H33.9V33.9H-.375Zm33.529.75H.375V33.154H33.154Z" transform="translate(51.066 137.837)" fill="#b10009"/>
        <rect id="Rectángulo_44660" data-name="Rectángulo 44660" width="33.529" height="33.529" transform="translate(2.03 22.813)" fill="#de5d26"/>
        <path id="Rectángulo_44660_-_Contorno" data-name="Rectángulo 44660 - Contorno" d="M-.375-.375H33.9V33.9H-.375Zm33.529.75H.375V33.154H33.154Z" transform="translate(2.03 22.813)" fill="#b64f20"/>
        <rect id="Rectángulo_44661" data-name="Rectángulo 44661" width="33.529" height="33.529" transform="translate(131.25 18.45)" fill="#eb706f"/>
        <path id="Rectángulo_44661_-_Contorno" data-name="Rectángulo 44661 - Contorno" d="M-.375-.375H33.9V33.9H-.375Zm33.529.75H.375V33.154H33.154Z" transform="translate(131.25 18.45)" fill="#bf5e5d"/>
        <rect id="Rectángulo_44662" data-name="Rectángulo 44662" width="33.529" height="33.529" transform="translate(128.524 62.421)" fill="#de5d26"/>
        <path id="Rectángulo_44662_-_Contorno" data-name="Rectángulo 44662 - Contorno" d="M-.375-.375H33.9V33.9H-.375Zm33.529.75H.375V33.154H33.154Z" transform="translate(128.524 62.421)" fill="#b64f20"/>
        <rect id="Rectángulo_44663" data-name="Rectángulo 44663" width="33.529" height="33.529" transform="translate(40.801 43.843)" fill="#d9000d"/>
        <path id="Rectángulo_44663_-_Contorno" data-name="Rectángulo 44663 - Contorno" d="M-.375-.375H33.9V33.9H-.375Zm33.529.75H.375V33.154H33.154Z" transform="translate(40.801 43.843)" fill="#b10009"/>
        <rect id="Rectángulo_44664" data-name="Rectángulo 44664" width="33.529" height="33.529" transform="translate(131.25 200.475)" fill="#d9000d"/>
        <path id="Rectángulo_44664_-_Contorno" data-name="Rectángulo 44664 - Contorno" d="M-.375-.375H33.9V33.9H-.375Zm33.529.75H.375V33.154H33.154Z" transform="translate(131.25 200.475)" fill="#b10009"/>
        <rect id="Rectángulo_44665" data-name="Rectángulo 44665" width="33.529" height="33.529" transform="translate(2.03 202.847)" fill="#4aa042"/>
        <path id="Rectángulo_44665_-_Contorno" data-name="Rectángulo 44665 - Contorno" d="M-.375-.375H33.9V33.9H-.375Zm33.529.75H.375V33.154H33.154Z" transform="translate(2.03 202.847)" fill="#3f8538"/>
        <rect id="Rectángulo_44666" data-name="Rectángulo 44666" width="33.529" height="33.529" transform="translate(131.25 108.511)" fill="#4aa042"/>
        <path id="Rectángulo_44666_-_Contorno" data-name="Rectángulo 44666 - Contorno" d="M-.375-.375H33.9V33.9H-.375Zm33.529.75H.375V33.154H33.154Z" transform="translate(131.25 108.511)" fill="#3f8538"/>
        <rect id="Rectángulo_44667" data-name="Rectángulo 44667" width="33.529" height="33.529" transform="translate(93.667 157.269)" fill="#4aa042"/>
        <path id="Rectángulo_44667_-_Contorno" data-name="Rectángulo 44667 - Contorno" d="M-.375-.375H33.9V33.9H-.375Zm33.529.75H.375V33.154H33.154Z" transform="translate(93.667 157.269)" fill="#3f8538"/>
        <rect id="Rectángulo_44668" data-name="Rectángulo 44668" width="33.529" height="33.529" transform="translate(86.831 65.537)" fill="#315e94"/>
        <path id="Rectángulo_44668_-_Contorno" data-name="Rectángulo 44668 - Contorno" d="M-.5-.5H34.029V34.029H-.5ZM33.029.5H.5V33.029H33.029Z" transform="translate(86.831 65.537)" fill="#2c507d"/>
        <rect id="Rectángulo_44669" data-name="Rectángulo 44669" width="33.529" height="33.529" transform="translate(91.075 20.214)" fill="#472478"/>
        <path id="Rectángulo_44669_-_Contorno" data-name="Rectángulo 44669 - Contorno" d="M-.5-.5H34.029V34.029H-.5ZM33.029.5H.5V33.029H33.029Z" transform="translate(91.075 20.214)" fill="#3c1e64"/>
        <rect id="Rectángulo_44670" data-name="Rectángulo 44670" width="33.529" height="33.529" transform="translate(136.268 154.601)" fill="#472478"/>
        <path id="Rectángulo_44670_-_Contorno" data-name="Rectángulo 44670 - Contorno" d="M-.5-.5H34.029V34.029H-.5ZM33.029.5H.5V33.029H33.029Z" transform="translate(136.268 154.601)" fill="#3c1e64"/>
        <rect id="Rectángulo_44671" data-name="Rectángulo 44671" width="33.529" height="33.529" transform="translate(2.03 112.091)" fill="#472478"/>
        <path id="Rectángulo_44671_-_Contorno" data-name="Rectángulo 44671 - Contorno" d="M-.5-.5H34.029V34.029H-.5ZM33.029.5H.5V33.029H33.029Z" transform="translate(2.03 112.091)" fill="#3c1e64"/>
        <rect id="Rectángulo_44672" data-name="Rectángulo 44672" width="33.529" height="33.529" transform="translate(0 67.452)" fill="#4aa042"/>
        <path id="Rectángulo_44672_-_Contorno" data-name="Rectángulo 44672 - Contorno" d="M-.375-.375H33.9V33.9H-.375Zm33.529.75H.375V33.154H33.154Z" transform="translate(0 67.452)" fill="#3f8538"/>
        <rect id="Rectángulo_44673" data-name="Rectángulo 44673" width="33.529" height="33.529" transform="translate(45.138 91.747)" fill="#add5f3"/>
        <path id="Rectángulo_44673_-_Contorno" data-name="Rectángulo 44673 - Contorno" d="M-.375-.375H33.9V33.9H-.375Zm33.529.75H.375V33.154H33.154Z" transform="translate(45.138 91.747)" fill="#5d7282"/>
        <rect id="Rectángulo_44674" data-name="Rectángulo 44674" width="33.529" height="33.529" transform="translate(46.553)" fill="#add5f3"/>
        <path id="Rectángulo_44674_-_Contorno" data-name="Rectángulo 44674 - Contorno" d="M-.375-.375H33.9V33.9H-.375Zm33.529.75H.375V33.154H33.154Z" transform="translate(46.553)" fill="#5d7282"/>
        <rect id="Rectángulo_44675" data-name="Rectángulo 44675" width="33.529" height="33.529" transform="translate(7.272 157.269)" fill="#eca686"/>
        <path id="Rectángulo_44675_-_Contorno" data-name="Rectángulo 44675 - Contorno" d="M-.375-.375H33.9V33.9H-.375Zm33.529.75H.375V33.154H33.154Z" transform="translate(7.272 157.269)" fill="#c18a70"/>
        <rect id="Rectángulo_44676" data-name="Rectángulo 44676" width="33.529" height="33.529" transform="translate(91.075 202.847)" fill="#eca686"/>
        <path id="Rectángulo_44676_-_Contorno" data-name="Rectángulo 44676 - Contorno" d="M-.375-.375H33.9V33.9H-.375Zm33.529.75H.375V33.154H33.154Z" transform="translate(91.075 202.847)" fill="#c18a70"/>
        <rect id="Rectángulo_44677" data-name="Rectángulo 44677" width="33.529" height="33.529" transform="translate(91.075 110.861)" fill="#add5f3"/>
        <path id="Rectángulo_44677_-_Contorno" data-name="Rectángulo 44677 - Contorno" d="M-.375-.375H33.9V33.9H-.375Zm33.529.75H.375V33.154H33.154Z" transform="translate(91.075 110.861)" fill="#5d7282"/>
        <rect id="Rectángulo_44678" data-name="Rectángulo 44678" width="33.529" height="33.529" transform="translate(45.138 181.9)" fill="#add5f3"/>
        <path id="Rectángulo_44678_-_Contorno" data-name="Rectángulo 44678 - Contorno" d="M-.375-.375H33.9V33.9H-.375Zm33.529.75H.375V33.154H33.154Z" transform="translate(45.138 181.9)" fill="#5d7282"/>
      </g>
    </g>
  </g>
</svg>
