<svg xmlns="http://www.w3.org/2000/svg" width="148" height="148" viewBox="0 0 148 148">
  <g id="Grupo_172841" data-name="Grupo 172841" transform="translate(-1077 -6428)">
    <g id="Elipse_4811" data-name="Elipse 4811" transform="translate(-5487.735 2448.587)">
      <circle id="Elipse_4814" data-name="Elipse 4814" cx="74" cy="74" r="74" transform="translate(6564.735 3979.413)" fill="#4dcedf"/>
      <circle id="Elipse_4815" data-name="Elipse 4815" cx="73.5" cy="73.5" r="73.5" transform="translate(6565.235 3979.913)" fill="#4dcedf"/>
    </g>
    <g id="Grupo_172767" data-name="Grupo 172767" transform="translate(397 111.624)">
      <rect id="Rectángulo_45016" data-name="Rectángulo 45016" width="15.332" height="15.332" transform="translate(715.721 6340.375)" fill="#0f2771"/>
      <rect id="Rectángulo_45017" data-name="Rectángulo 45017" width="15.332" height="15.332" transform="translate(714 6360.289)" fill="#0f2771"/>
      <rect id="Rectángulo_45018" data-name="Rectángulo 45018" width="15.332" height="15.332" transform="translate(757.763 6381.958)" fill="#0f2771"/>
      <rect id="Rectángulo_45019" data-name="Rectángulo 45019" width="15.332" height="15.332" transform="translate(715.721 6423.54)" fill="#0f2771"/>
      <rect id="Rectángulo_45020" data-name="Rectángulo 45020" width="15.332" height="15.332" transform="translate(759.912 6403.439)" fill="#0f2771"/>
      <rect id="Rectángulo_45021" data-name="Rectángulo 45021" width="15.332" height="15.332" transform="translate(757.763 6340.375)" fill="#0f2771"/>
      <rect id="Rectángulo_45022" data-name="Rectángulo 45022" width="15.332" height="15.332" transform="translate(778.168 6340.375)" fill="#0f2771"/>
      <rect id="Rectángulo_45023" data-name="Rectángulo 45023" width="15.332" height="15.332" transform="translate(736.742 6340.375)" fill="#0f2771"/>
      <rect id="Rectángulo_45024" data-name="Rectángulo 45024" width="15.332" height="15.332" transform="translate(736.742 6361.333)" fill="#0f2771"/>
      <rect id="Rectángulo_45025" data-name="Rectángulo 45025" width="15.332" height="15.332" transform="translate(736.742 6381.958)" fill="#0f2771"/>
      <rect id="Rectángulo_45026" data-name="Rectángulo 45026" width="15.332" height="15.332" transform="translate(736.742 6402.583)" fill="#0f2771"/>
      <rect id="Rectángulo_45027" data-name="Rectángulo 45027" width="15.332" height="15.332" transform="translate(736.742 6423.206)" fill="#0f2771"/>
      <rect id="Rectángulo_45028" data-name="Rectángulo 45028" width="15.332" height="15.332" transform="translate(718.566 6402.583)" fill="#0f2771"/>
      <rect id="Rectángulo_45029" data-name="Rectángulo 45029" width="15.332" height="15.332" transform="translate(755.073 6360.79)" fill="#0f2771"/>
      <rect id="Rectángulo_45030" data-name="Rectángulo 45030" width="15.332" height="15.332" transform="translate(757.763 6423.54)" fill="#0f2771"/>
      <rect id="Rectángulo_45031" data-name="Rectángulo 45031" width="15.332" height="15.332" transform="translate(778.168 6361.333)" fill="#0f2771"/>
      <rect id="Rectángulo_45032" data-name="Rectángulo 45032" width="15.332" height="15.332" transform="translate(778.168 6382.291)" fill="#0f2771"/>
      <rect id="Rectángulo_45033" data-name="Rectángulo 45033" width="15.332" height="15.332" transform="translate(778.168 6403.249)" fill="#0f2771"/>
      <rect id="Rectángulo_45034" data-name="Rectángulo 45034" width="15.332" height="15.332" transform="translate(778.168 6424.206)" fill="#0f2771"/>
      <rect id="Rectángulo_45035" data-name="Rectángulo 45035" width="15.332" height="15.332" transform="translate(716.44 6381.958)" fill="#0f2771"/>
    </g>
  </g>
</svg>
