<svg xmlns="http://www.w3.org/2000/svg" width="141.019" height="140.868" viewBox="0 0 141.019 140.868">
  <g id="Grupo_172729" data-name="Grupo 172729" transform="translate(4951 10119.868)">
    <g id="Grupo_172728" data-name="Grupo 172728" transform="translate(-4951 -10119.868)">
      <path id="Trazado_221960" data-name="Trazado 221960" d="M837.07,335.59c2.29-5.176,7.841-5.652,10.923-2.849a6.8,6.8,0,0,1-3.7,11.883,6.358,6.358,0,0,1-6.628-3.436,1.722,1.722,0,0,0-1.834-1.067c-1.846.059-3.7.025-5.543.017-4.337-.02-7.224-2.88-7.229-7.2q-.018-14.923,0-29.846v-1.584a24.21,24.21,0,0,1-4.548-.6v1.462q0,24.09,0,48.18c0,2.586.661,3.233,3.3,3.234,3.552,0,7.1,0,10.728,0a7.022,7.022,0,0,1,4.731-4.3A6.8,6.8,0,0,1,842,362.152a6.567,6.567,0,0,1-8.75-2.569,2.187,2.187,0,0,0-2.295-1.279c-3.315.078-6.633.045-9.95.024a6.8,6.8,0,0,1-7.048-7.092q-.018-25.441.012-50.881a2.161,2.161,0,0,0-1.058-2.045c-5.865-4.132-8.728-9.846-7.895-16.977.893-7.648,5.285-12.757,12.543-15.358.6-.214,1.073-.32,1.226-1.116,1.835-9.588,9.925-14.883,19.72-12.921,4.367-8.142,11.125-12.548,20.43-11.714,9.61.861,15.542,6.6,18.284,15.772h17.785q19.4,0,38.807,0c4.725,0,7.5,2.775,7.514,7.488,0,.426.03.855,0,1.279-.149,1.778.066,3.107,1.939,4.235,2.574,1.551,3.229,4.926,2.109,7.709a6.8,6.8,0,1,1-9.7-8.4c.326-.188.676-.335,1.1-.545,0-1.378,0-2.8,0-4.213-.007-2.239-.75-3-2.961-3q-9.1-.007-18.2,0H888.785a17.912,17.912,0,0,1,3,4.16c.325.659.912.373,1.377.374,7.487.019,14.973.011,22.46.014,4.725,0,7.5,2.776,7.514,7.487,0,.427.03.855,0,1.279-.148,1.778.064,3.108,1.939,4.235,2.571,1.545,3.229,4.928,2.109,7.709a6.8,6.8,0,1,1-9.7-8.407c.327-.188.678-.332,1.1-.537,0-1.62.039-3.276-.012-4.928a2.077,2.077,0,0,0-2.093-2.251c-5.808-.064-11.618-.028-17.721-.028a18.363,18.363,0,0,1,6.11,12.027,18.142,18.142,0,0,1-3.9,12.932h8.472V308.2h4.5V294.758H927.6v13.429c2.726.39,4.348,1.833,4.686,4.642H945.8v13.629H932.3v4.553h13.5v13.65H932.3v4.553h13.512v13.637H932.36c-.68,3.024-1.631,3.978-4.668,4.718v13.413H914.1V367.516h-4.554v13.471H895.892V367.511h-4.554v13.481H877.691V367.523c-2.753-.378-4.324-1.87-4.662-4.611H859.55V349.328h13.44v-4.553H859.545v-13.65H873v-4.553H859.54V312.92H873a5.375,5.375,0,0,1,1.589-3.427,4.952,4.952,0,0,1,3.007-1.226v-6.718H836.714c0,4.6-.041,9.177.026,13.756a2.068,2.068,0,0,0,2.126,2.069c.893.071,1.8.014,2.767.014a7.012,7.012,0,0,1,4.73-4.29,6.8,6.8,0,0,1,4.734,12.67,6.568,6.568,0,0,1-8.748-2.575,2.2,2.2,0,0,0-2.3-1.275c-5.3.06-7.9-2.59-7.9-7.926q0-6.04-.006-12.08a2.356,2.356,0,0,0-.067-.349h-4.345c-.27.352-.122.793-.122,1.2q-.015,14.852-.007,29.7c0,2.421.7,3.121,3.121,3.125C832.852,335.593,834.98,335.59,837.07,335.59Zm-14.024-66.262c-1.469.362-2.918.619-4.3,1.077-6.12,2.026-10.152,8.4-9.232,14.486,1.07,7.078,6.566,12,13.616,12.013q31.77.053,63.541.014a13.411,13.411,0,0,0,3.507-.462,13.647,13.647,0,0,0,10.191-13.132,13.509,13.509,0,0,0-10-13.11,2.505,2.505,0,0,1-1.984-1.822,11,11,0,0,0-8.856-7.668c-2.106-.421-4.125.15-6.257.407-.79-9.115-5.209-15.368-14.552-16.3s-14.9,4.379-17.473,13.083C832.02,252.511,822.107,259.284,823.046,269.328Zm104.527,93.507V312.97h-49.8v49.865ZM904.9,299.294h-4.426v8.918H904.9Zm13.733,8.906h4.4v-8.893h-4.4Zm-45.577,9.283h-8.973v4.378h8.973Zm68.168,4.411V317.5h-8.888v4.393Zm-68.17,13.779H864.08v4.383h8.973Zm68.228-.008h-8.974v4.4h8.974Zm-68.29,22.617v-4.4H864.1v4.4Zm59.292-.02h8.974v-4.41h-8.974Zm-50.056,18.176h4.429v-8.925h-4.429Zm18.257-8.961v8.946h4.353v-8.946Zm18.135,8.961h4.429v-8.925h-4.429Zm-22.836-68.18V299.05a25.822,25.822,0,0,1-4.4,1.863v7.345Zm-9.105-6.716h-4.426v6.7h4.426Zm52.428-29.623a2.272,2.272,0,1,0,2.217,2.289A2.291,2.291,0,0,0,939.107,271.919Zm-20.52,11.372a2.271,2.271,0,1,0,2.23-2.276A2.29,2.29,0,0,0,918.586,283.291Zm-68.243,36.383a2.271,2.271,0,1,0-2.238,2.269A2.29,2.29,0,0,0,850.343,319.674Zm-6.84,15.919a2.271,2.271,0,1,0,2.291,2.215A2.288,2.288,0,0,0,843.5,335.594Zm-2.258,20.451a2.271,2.271,0,1,0-2.223,2.284A2.29,2.29,0,0,0,841.246,356.044Z" transform="translate(-804.878 -240.124)"/>
      <path id="Trazado_221961" data-name="Trazado 221961" d="M830.431,276.873c-.94-10.044,8.973-16.817,18.205-11.412,2.573-8.7,8.117-14.015,17.473-13.083s13.762,7.183,14.552,16.3c2.132-.257,4.151-.828,6.257-.407a11,11,0,0,1,8.856,7.668,2.505,2.505,0,0,0,1.984,1.822,13.508,13.508,0,0,1,10,13.11A13.647,13.647,0,0,1,897.563,304a13.411,13.411,0,0,1-3.507.462q-31.771,0-63.541-.014c-7.05-.012-12.546-4.935-13.616-12.013-.92-6.09,3.112-12.46,9.232-14.486C827.513,277.492,828.961,277.235,830.431,276.873ZM844.02,300.5l2.419-9.6h8.939c.811,3.213,1.606,6.366,2.417,9.58a27.488,27.488,0,0,0,4.41-1.224l-7.22-28.859H846.83l-7.24,28.954Zm27.263-25.583v20.5h-4.392v4.46h13.5v-4.606H876V274.924h4.392v-4.486H866.9v4.48Z" transform="translate(-812.262 -247.669)" fill="#bddcf6"/>
      <path id="Trazado_221962" data-name="Trazado 221962" d="M1047.043,482.221h-49.8V432.356h49.8Zm-4.465-45.389h-40.844v40.836h40.844Z" transform="translate(-924.348 -359.511)" fill="#bddcf6"/>
      <path id="Trazado_221963" data-name="Trazado 221963" d="M1061.571,396.268v8.918h-4.426v-8.918Z" transform="translate(-961.549 -337.098)" fill="#feca2e"/>
      <path id="Trazado_221964" data-name="Trazado 221964" d="M1105.064,405.194V396.3h4.4v8.893Z" transform="translate(-991.31 -337.119)" fill="#feca2e"/>
      <path id="Trazado_221965" data-name="Trazado 221965" d="M970.086,444.267v4.378h-8.973v-4.378Z" transform="translate(-901.908 -366.908)" fill="#feca2e"/>
      <path id="Trazado_221966" data-name="Trazado 221966" d="M1150.113,448.706h-8.888v-4.393h8.888Z" transform="translate(-1013.768 -366.936)" fill="#feca2e"/>
      <path id="Trazado_221967" data-name="Trazado 221967" d="M970.079,492.268v4.383h-8.973v-4.383Z" transform="translate(-901.904 -396.719)" fill="#feca2e"/>
      <path id="Trazado_221968" data-name="Trazado 221968" d="M1150.125,492.248v4.4h-8.974v-4.4Z" transform="translate(-1013.722 -396.707)" fill="#feca2e"/>
      <path id="Trazado_221969" data-name="Trazado 221969" d="M970.045,544.721H961.15v-4.4h8.895Z" transform="translate(-901.931 -426.563)" fill="#feca2e"/>
      <path id="Trazado_221970" data-name="Trazado 221970" d="M1141.088,544.651v-4.41h8.974v4.41Z" transform="translate(-1013.683 -426.513)" fill="#feca2e"/>
      <path id="Trazado_221971" data-name="Trazado 221971" d="M1009,585.217v-8.925h4.429v8.925Z" transform="translate(-931.646 -448.903)" fill="#feca2e"/>
      <path id="Trazado_221972" data-name="Trazado 221972" d="M1057.175,576.2h4.353v8.946h-4.353Z" transform="translate(-961.568 -448.844)" fill="#feca2e"/>
      <path id="Trazado_221973" data-name="Trazado 221973" d="M1105.031,585.217v-8.925h4.429v8.925Z" transform="translate(-991.289 -448.903)" fill="#feca2e"/>
      <path id="Trazado_221975" data-name="Trazado 221975" d="M1013.487,402.2v6.7h-4.427v-6.7Z" transform="translate(-931.687 -340.782)" fill="#feca2e"/>
      <path id="Trazado_221976" data-name="Trazado 221976" d="M1155.284,324.026a2.272,2.272,0,1,1-2.324,2.182A2.291,2.291,0,0,1,1155.284,324.026Z" transform="translate(-1021.055 -292.231)" fill="#4dd0e1"/>
      <path id="Trazado_221977" data-name="Trazado 221977" d="M1104.944,350.307a2.271,2.271,0,1,1,2.24,2.266A2.289,2.289,0,0,1,1104.944,350.307Z" transform="translate(-991.235 -307.14)" fill="#4dd0e1"/>
      <path id="Trazado_221978" data-name="Trazado 221978" d="M917.413,446.322a2.271,2.271,0,1,1-2.233-2.273A2.293,2.293,0,0,1,917.413,446.322Z" transform="translate(-871.948 -366.772)" fill="#4dd0e1"/>
      <path id="Trazado_221979" data-name="Trazado 221979" d="M903.12,492.058a2.271,2.271,0,1,1-2.25,2.255A2.291,2.291,0,0,1,903.12,492.058Z" transform="translate(-864.494 -396.589)" fill="#4dd0e1"/>
      <path id="Trazado_221980" data-name="Trazado 221980" d="M893.406,542.325a2.271,2.271,0,1,1-2.248-2.258A2.294,2.294,0,0,1,893.406,542.325Z" transform="translate(-857.038 -426.405)" fill="#4dd0e1"/>
      <path id="Trazado_221981" data-name="Trazado 221981" d="M881.423,330.219l-4.43-1.144,7.24-28.954h8.155l7.22,28.859a27.489,27.489,0,0,1-4.41,1.224c-.811-3.214-1.606-6.367-2.417-9.58h-8.939Zm10.2-14.271c-.925-3.677-1.826-7.244-2.711-10.815-.08-.323-.194-.485-.549-.5-.4-.013-.562.14-.661.538-.878,3.571-1.783,7.136-2.7,10.772Z" transform="translate(-849.665 -277.386)" fill="#0f2771"/>
      <path id="Trazado_221982" data-name="Trazado 221982" d="M953.431,304.691h-4.388v-4.48h13.495V304.7h-4.392v20.349h4.388v4.606h-13.5v-4.46h4.392Z" transform="translate(-894.41 -277.441)" fill="#0f2771"/>
      <path id="Trazado_221983" data-name="Trazado 221983" d="M1049.938,444.17v40.836h-40.844V444.17Zm-4.617,36.288v-31.7h-31.659v31.7Z" transform="translate(-931.707 -366.848)" fill="#0f2771"/>
      <path id="Trazado_221984" data-name="Trazado 221984" d="M904.751,323.347h-6.618c.914-3.636,1.819-7.2,2.7-10.772.1-.4.257-.551.66-.539.354.011.469.172.549.5C902.924,316.1,903.826,319.669,904.751,323.347Z" transform="translate(-862.794 -284.785)" fill="#bddcf6"/>
      <path id="Trazado_221985" data-name="Trazado 221985" d="M1052.805,487.983h-31.659v-31.7h31.659Z" transform="translate(-939.192 -374.373)" fill="#feca2e"/>
    </g>
  </g>
</svg>
