<svg xmlns="http://www.w3.org/2000/svg" width="400" height="386" viewBox="0 0 400 386">
  <g id="Grupo_172856" data-name="Grupo 172856" transform="translate(-1020 -12061.5)">
    <g id="Grupo_136516" data-name="Grupo 136516" transform="translate(0 11240.5)">
      <g id="Grupo_130019" data-name="Grupo 130019" transform="translate(1020 821)">
        <g id="Grupo_130018" data-name="Grupo 130018">
          <rect id="Rectángulo_41096" data-name="Rectángulo 41096" width="190" height="386" transform="translate(210)" fill="#4dd0e1"/>
          <line id="Línea_250" data-name="Línea 250" x1="269" transform="translate(0 1)" fill="none" stroke="#4dd0e1" stroke-width="2" opacity="0.2"/>
          <line id="Línea_251" data-name="Línea 251" x1="266" transform="translate(0 385)" fill="none" stroke="#4dd0e1" stroke-width="2" opacity="0.2"/>
        </g>
      </g>
    </g>
    <path id="indian-software-engineer-working-on-his-laptop" d="M21,0H369a21,21,0,0,1,21,21V349a21,21,0,0,1-21,21H21A21,21,0,0,1,0,349V21A21,21,0,0,1,21,0Z" transform="translate(1020 12070)" fill="#fff"/>
    <g id="Grupo_149191" data-name="Grupo 149191" transform="translate(871.958 64.562)">
      <ellipse id="Elipse_4771" data-name="Elipse 4771" cx="163" cy="160.5" rx="163" ry="160.5" transform="translate(180.042 12034.438)" fill="#bddcf6" opacity="0.59"/>
      <ellipse id="Elipse_4772" data-name="Elipse 4772" cx="80.5" cy="78.5" rx="80.5" ry="78.5" transform="translate(203.042 12024.438)" fill="#4dd0e1" opacity="0.18"/>
      <ellipse id="Elipse_4773" data-name="Elipse 4773" cx="59" cy="58.5" rx="59" ry="58.5" transform="translate(208.042 12224.438)" fill="#4dd0e1" opacity="0.18"/>
      <g id="Grupo_149190" data-name="Grupo 149190" transform="translate(230.434 12063.601)">
        <g id="Grupo_149161" data-name="Grupo 149161" transform="translate(96.368 38.678)">
          <rect id="Rectángulo_44806" data-name="Rectángulo 44806" width="151.917" height="127.299" transform="translate(9.866 16.517)" fill="#caa027"/>
          <g id="Grupo_149154" data-name="Grupo 149154" transform="translate(0.468 0)">
            <path id="Trazado_206232" data-name="Trazado 206232" d="M1632.05,945.7l-162.556,1.023a3.861,3.861,0,0,0-4.024,3.6v24.254a3.685,3.685,0,0,0,3.839,3.47l162.743,1.024c2.413.015,4.447-1.621,4.447-3.655V949.359C1636.5,947.326,1634.464,945.689,1632.05,945.7Z" transform="translate(-1465.466 -945.704)" fill="#fdc831"/>
            <g id="Grupo_149153" data-name="Grupo 149153">
              <path id="Trazado_206233" data-name="Trazado 206233" d="M1631.939,945.7l-162.669,1.024a3.686,3.686,0,0,0-3.841,3.47l170.883-.839C1636.312,947.326,1634.353,945.689,1631.939,945.7Z" transform="translate(-1465.429 -945.704)" fill="#ffecb7"/>
              <path id="Trazado_206234" data-name="Trazado 206234" d="M1469.27,1249.522l162.669,1.024c2.413.015,4.373-1.621,4.373-3.656l-170.883-.839A3.687,3.687,0,0,0,1469.27,1249.522Z" transform="translate(-1465.429 -1217.172)" fill="#ffecb7"/>
            </g>
          </g>
          <g id="Grupo_149156" data-name="Grupo 149156" transform="translate(0 40.106)">
            <path id="Trazado_206235" data-name="Trazado 206235" d="M1627.829,1363.135l-162.682-.337a3.984,3.984,0,0,0-4.181,3.678l-.312,25.035a3.766,3.766,0,0,0,3.926,3.6l163.24,1.427c2.348.021,4.325-1.615,4.325-3.653v-26.064C1632.146,1364.789,1630.171,1363.14,1627.829,1363.135Z" transform="translate(-1460.645 -1362.798)" fill="#fdc831"/>
            <g id="Grupo_149155" data-name="Grupo 149155">
              <path id="Trazado_206236" data-name="Trazado 206236" d="M1630.527,1363.132l-162.8-.338a3.819,3.819,0,0,0-4.008,3.541l171.048.48A4,4,0,0,0,1630.527,1363.132Z" transform="translate(-1463.418 -1362.795)" fill="#ffecb7"/>
              <path id="Trazado_206237" data-name="Trazado 206237" d="M1464.488,1665l163.168,1.427a3.961,3.961,0,0,0,4.253-3.653l-171.352-1.373A3.77,3.77,0,0,0,1464.488,1665Z" transform="translate(-1460.558 -1632.687)" fill="#ffecb7"/>
            </g>
          </g>
          <g id="Grupo_149158" data-name="Grupo 149158" transform="translate(0.468 80.976)">
            <path id="Trazado_206238" data-name="Trazado 206238" d="M1632.251,1787.831H1469.722a4.07,4.07,0,0,0-4.252,3.845V1817.6a3.837,3.837,0,0,0,4.095,3.6h162.686c2.264,0,4.247-1.562,4.247-3.6v-26.064C1636.5,1789.5,1634.514,1787.831,1632.251,1787.831Z" transform="translate(-1465.466 -1787.831)" fill="#fdc831"/>
            <g id="Grupo_149157" data-name="Grupo 149157">
              <path id="Trazado_206239" data-name="Trazado 206239" d="M1632.214,1787.831H1469.528a3.876,3.876,0,0,0-4.1,3.563h170.883A3.875,3.875,0,0,0,1632.214,1787.831Z" transform="translate(-1465.429 -1787.831)" fill="#ffecb7"/>
              <path id="Trazado_206240" data-name="Trazado 206240" d="M1469.528,2101.31h162.686a3.876,3.876,0,0,0,4.1-3.563H1465.429A3.876,3.876,0,0,0,1469.528,2101.31Z" transform="translate(-1465.429 -2067.947)" fill="#ffecb7"/>
            </g>
          </g>
          <g id="Grupo_149160" data-name="Grupo 149160" transform="translate(0.468 121.527)">
            <path id="Trazado_206241" data-name="Trazado 206241" d="M1632.423,2210.193l-162.62-.637a4.084,4.084,0,0,0-4.333,3.81v25.922a3.95,3.95,0,0,0,4.17,3.683l162.693.063a3.848,3.848,0,0,0,4.036-3.614l.072-25.593A3.845,3.845,0,0,0,1632.423,2210.193Z" transform="translate(-1465.466 -2209.556)" fill="#fdc831"/>
            <g id="Grupo_149159" data-name="Grupo 149159">
              <path id="Trazado_206242" data-name="Trazado 206242" d="M1632.386,2210.188l-162.782-.637a3.934,3.934,0,0,0-4.175,3.668l170.976.6A3.845,3.845,0,0,0,1632.386,2210.188Z" transform="translate(-1465.429 -2209.551)" fill="#ffecb7"/>
              <path id="Trazado_206243" data-name="Trazado 206243" d="M1469.6,2522.439l162.694.062a3.848,3.848,0,0,0,4.037-3.613l-170.9-.132A3.952,3.952,0,0,0,1469.6,2522.439Z" transform="translate(-1465.429 -2489.024)" fill="#ffecb7"/>
            </g>
          </g>
        </g>
        <g id="Grupo_149172" data-name="Grupo 149172" transform="translate(137.951 0)">
          <g id="Grupo_149166" data-name="Grupo 149166" transform="translate(41.63)">
            <g id="Grupo_149162" data-name="Grupo 149162" opacity="0.3">
              <path id="Trazado_206244" data-name="Trazado 206244" d="M2326.86,585.5a1.1,1.1,0,0,1-.906-1.154c.083-1.237.22-2.489.409-3.721a1.1,1.1,0,0,1,1.251-.919l.021,0a1.1,1.1,0,0,1,.9,1.248c-.18,1.17-.31,2.359-.389,3.534a1.1,1.1,0,0,1-1.168,1.022A1.057,1.057,0,0,1,2326.86,585.5Zm1.7-9.41a1.138,1.138,0,0,1-.127-.03,1.1,1.1,0,0,1-.739-1.365c.355-1.193.764-2.384,1.217-3.537a1.1,1.1,0,1,1,2.043.8c-.43,1.1-.819,2.227-1.156,3.362A1.1,1.1,0,0,1,2328.559,576.086Zm3.728-8.8a1.1,1.1,0,0,1-.769-1.621c.61-1.082,1.275-2.152,1.977-3.178a1.1,1.1,0,1,1,1.812,1.238c-.666.975-1.3,1.99-1.877,3.018A1.1,1.1,0,0,1,2332.287,567.285Zm5.6-7.749a1.1,1.1,0,0,1-.623-1.821c.838-.919,1.725-1.813,2.637-2.657a1.1,1.1,0,0,1,1.491,1.612c-.866.8-1.709,1.65-2.505,2.524A1.1,1.1,0,0,1,2337.891,559.536Zm7.191-6.3a1.1,1.1,0,0,1-.44-1.982c1.018-.709,2.081-1.384,3.159-2.006a1.1,1.1,0,1,1,1.1,1.9c-1.025.591-2.035,1.233-3,1.906A1.094,1.094,0,0,1,2345.082,553.232Zm8.406-4.556a1.1,1.1,0,0,1-.227-2.1c1.151-.467,2.337-.89,3.524-1.257a1.1,1.1,0,1,1,.649,2.1c-1.128.349-2.255.751-3.348,1.195A1.091,1.091,0,0,1,2353.488,548.675Zm40.076,4.276a1.1,1.1,0,0,1-.43-.174c-.975-.664-1.991-1.294-3.022-1.872a1.1,1.1,0,1,1,1.074-1.914c1.085.609,2.157,1.273,3.183,1.971a1.1,1.1,0,0,1-.805,1.989Zm-30.876-6.855a1.1,1.1,0,0,1,.011-2.165c1.227-.2,2.477-.347,3.716-.44a1.1,1.1,0,1,1,.164,2.189c-1.176.088-2.363.229-3.528.418A1.1,1.1,0,0,1,2362.689,546.1Zm22.416,2.4a1.088,1.088,0,0,1-.213-.059c-1.1-.429-2.232-.816-3.365-1.15a1.1,1.1,0,1,1,.622-2.105c1.193.352,2.385.759,3.542,1.21a1.1,1.1,0,0,1-.585,2.1Zm-12.87-2.858a1.1,1.1,0,0,1,.259-2.177c1.239.081,2.49.216,3.72.4l.023,0a1.1,1.1,0,0,1-.351,2.166c-1.168-.177-2.357-.3-3.534-.381C2372.312,545.649,2372.273,545.645,2372.235,545.638Z" transform="translate(-2325.951 -543.459)" fill="#c7eaf1"/>
              <path id="Trazado_206245" data-name="Trazado 206245" d="M3070.493,661.262a1.091,1.091,0,0,1-.583-.3c-.4-.4-.821-.793-1.242-1.177a1.1,1.1,0,0,1,1.477-1.623c.443.4.882.819,1.306,1.237a1.1,1.1,0,0,1-.959,1.863Z" transform="translate(-2996.927 -646.874)" fill="#c7eaf1"/>
            </g>
            <g id="Grupo_149163" data-name="Grupo 149163" transform="translate(11.278 41.394)" opacity="0.3">
              <path id="Trazado_206246" data-name="Trazado 206246" d="M3214.891,977.876a1.1,1.1,0,0,1-.909-1.095c.007-.566,0-1.141-.014-1.71a1.1,1.1,0,1,1,2.194-.064c.017.6.022,1.205.015,1.8a1.1,1.1,0,0,1-1.286,1.068Z" transform="translate(-3139.856 -973.941)" fill="#c7eaf1"/>
              <path id="Trazado_206247" data-name="Trazado 206247" d="M2521.3,1090.66q-.747-.129-1.494-.284a1.1,1.1,0,0,1,.447-2.15c1.151.239,2.307.431,3.453.571a1.1,1.1,0,0,1-.268,2.179C2522.731,1090.889,2522.012,1090.783,2521.3,1090.66Zm-7.073-1.848a1.12,1.12,0,0,1-.181-.047c-1.154-.409-2.3-.871-3.417-1.375a1.1,1.1,0,1,1,.9-2c1.057.478,2.149.917,3.246,1.306a1.1,1.1,0,0,1-.552,2.116Zm14.979,2.469a1.1,1.1,0,0,1,.172-2.179c1.159-.017,2.334-.084,3.491-.2a1.1,1.1,0,1,1,.218,2.185c-1.219.122-2.456.192-3.677.211A1.088,1.088,0,0,1,2529.207,1091.28Zm-23.451-6.569a1.1,1.1,0,0,1-.4-.153c-1.035-.652-2.055-1.356-3.031-2.093a1.1,1.1,0,0,1,1.323-1.752c.926.7,1.895,1.368,2.878,1.987a1.1,1.1,0,0,1-.772,2.011Zm32.781,5.389a1.1,1.1,0,0,1-.071-2.149c1.126-.271,2.257-.6,3.361-.962a1.1,1.1,0,1,1,.692,2.083c-1.162.386-2.353.728-3.539,1.014A1.089,1.089,0,0,1,2538.537,1090.1Zm8.844-3.2a1.1,1.1,0,0,1-.3-2.067c1.043-.513,2.077-1.076,3.072-1.673a1.1,1.1,0,1,1,1.13,1.882c-1.048.629-2.136,1.221-3.234,1.761A1.09,1.09,0,0,1,2547.381,1086.9Zm7.937-5.051a1.1,1.1,0,0,1-.5-1.937c.908-.729,1.794-1.5,2.635-2.3a1.1,1.1,0,1,1,1.512,1.591c-.885.841-1.818,1.657-2.772,2.423A1.1,1.1,0,0,1,2555.318,1081.849Zm6.646-6.661a1.1,1.1,0,0,1-.669-1.766c.726-.909,1.421-1.859,2.066-2.824a1.1,1.1,0,1,1,1.824,1.22c-.679,1.016-1.411,2.017-2.175,2.973A1.1,1.1,0,0,1,2561.964,1075.188Zm5.023-7.961a1.1,1.1,0,0,1-.8-1.561c.506-1.044.974-2.123,1.392-3.208a1.1,1.1,0,1,1,2.049.788c-.439,1.142-.932,2.279-1.465,3.377A1.1,1.1,0,0,1,2566.987,1067.227Zm3.149-8.864-.066-.014a1.1,1.1,0,0,1-.815-1.32c.2-.833.37-1.681.516-2.523q.079-.457.147-.913a1.1,1.1,0,0,1,1.249-.922,1.085,1.085,0,0,1,.922,1.248q-.072.481-.155.961c-.153.885-.335,1.778-.543,2.654A1.1,1.1,0,0,1,2570.136,1058.363Z" transform="translate(-2496.251 -1045.089)" fill="#c7eaf1"/>
              <path id="Trazado_206248" data-name="Trazado 206248" d="M2445.363,1292.435a1.1,1.1,0,0,1-.587-.3c-.421-.42-.841-.856-1.248-1.3a1.1,1.1,0,0,1,1.612-1.49c.387.419.786.833,1.186,1.232a1.1,1.1,0,0,1-.963,1.859Z" transform="translate(-2443.237 -1258.698)" fill="#c7eaf1"/>
            </g>
            <g id="Grupo_149165" data-name="Grupo 149165" transform="translate(11.142 10.733)">
              <path id="Trazado_206249" data-name="Trazado 206249" d="M2447.711,707.188a.514.514,0,0,0,.54.253l6.141-1.125a27.2,27.2,0,0,0,6.933,5.438l.373,6.228a.513.513,0,0,0,.374.463l7.213,2.013a.513.513,0,0,0,.56-.2l3.545-5.135a27.2,27.2,0,0,0,8.747-1.063l4.671,4.143a.512.512,0,0,0,.592.063l6.525-3.677a.513.513,0,0,0,.252-.539l-1.125-6.141a27.194,27.194,0,0,0,5.438-6.933l6.229-.374a.512.512,0,0,0,.463-.374l2.013-7.214a.512.512,0,0,0-.2-.56l-5.135-3.545a27.194,27.194,0,0,0-1.063-8.747l4.143-4.671a.513.513,0,0,0,.063-.592l-3.677-6.524a.513.513,0,0,0-.539-.253l-6.141,1.125a27.183,27.183,0,0,0-6.933-5.439l-.374-6.228a.513.513,0,0,0-.374-.463l-7.213-2.013a.513.513,0,0,0-.56.2l-3.544,5.135a27.189,27.189,0,0,0-8.747,1.063l-4.671-4.143a.513.513,0,0,0-.592-.063l-6.524,3.677a.512.512,0,0,0-.253.539l1.125,6.141a27.193,27.193,0,0,0-5.438,6.933l-6.229.374a.513.513,0,0,0-.463.374l-2.013,7.213a.513.513,0,0,0,.2.56l5.135,3.545a27.2,27.2,0,0,0,1.063,8.747l-4.142,4.671a.513.513,0,0,0-.063.592Z" transform="translate(-2441.82 -655.083)" fill="#c7eaf1"/>
              <g id="Grupo_149164" data-name="Grupo 149164" transform="translate(25.17 25.17)">
                <path id="Trazado_206250" data-name="Trazado 206250" d="M2709.817,931.786a7.532,7.532,0,1,1,1.1.108A7.54,7.54,0,0,1,2709.817,931.786Zm2.283-13.1a5.843,5.843,0,0,0-.852-.084,5.753,5.753,0,1,0,.852.084Z" transform="translate(-2703.577 -916.841)" fill="#e7f6f9"/>
              </g>
              <path id="Trazado_206251" data-name="Trazado 206251" d="M2606.106,838.44a18.848,18.848,0,0,1-1.856-.418h0q-.291-.081-.579-.171a18.593,18.593,0,0,1-2.748-1.11l-.037-.018-.1-.052-.2-.1a.439.439,0,1,1,.409-.777,17.652,17.652,0,0,0,20.02-2.5,17.526,17.526,0,0,0,5.192-8.364,17.874,17.874,0,0,0,.4-1.77,17.633,17.633,0,0,0-34.365-7.708,17.64,17.64,0,0,0-.027,9.392.445.445,0,0,1,.009.191.439.439,0,0,1-.856.041,18.512,18.512,0,1,1,36.1-1.768,18.993,18.993,0,0,1-.419,1.858,18.514,18.514,0,0,1-20.948,13.272Z" transform="translate(-2576.397 -787.585)" fill="#e7f6f9"/>
            </g>
          </g>
          <g id="Grupo_149171" data-name="Grupo 149171" transform="translate(0 30.945)">
            <g id="Grupo_149167" data-name="Grupo 149167" opacity="0.3">
              <path id="Trazado_206252" data-name="Trazado 206252" d="M1893.711,1182.168a.678.678,0,0,1-.558-.591c-.066-.572-.115-1.154-.146-1.729a.678.678,0,0,1,1.354-.074c.03.548.077,1.1.139,1.648a.679.679,0,0,1-.6.751A.688.688,0,0,1,1893.711,1182.168Z" transform="translate(-1893.007 -1148.954)" fill="#c7eaf1"/>
              <path id="Trazado_206253" data-name="Trazado 206253" d="M1893.843,893.274a.678.678,0,0,1-.56-.715,29.551,29.551,0,0,1,.358-2.961q.054-.308.114-.617a.7.7,0,0,1,.795-.536.679.679,0,0,1,.536.795q-.057.3-.109.59a28.125,28.125,0,0,0-.342,2.824.678.678,0,0,1-.723.629C1893.889,893.28,1893.866,893.278,1893.843,893.274Zm1.346-6.909a.7.7,0,0,1-.095-.023.679.679,0,0,1-.436-.855,29.408,29.408,0,0,1,1.323-3.357.678.678,0,1,1,1.228.574,28.148,28.148,0,0,0-1.262,3.2A.678.678,0,0,1,1895.189,886.365Zm2.981-6.376a.678.678,0,0,1-.458-1.029,29.215,29.215,0,0,1,2.109-2.931.678.678,0,0,1,1.049.859,27.816,27.816,0,0,0-2.011,2.794A.679.679,0,0,1,1898.169,879.988Zm4.457-5.448a.677.677,0,0,1-.352-1.159,29.392,29.392,0,0,1,2.761-2.325.678.678,0,1,1,.807,1.089,27.917,27.917,0,0,0-2.633,2.217A.678.678,0,0,1,1902.627,874.54Zm5.653-4.195a.678.678,0,0,1-.219-1.258,29.677,29.677,0,0,1,3.241-1.583.678.678,0,1,1,.52,1.252,28.286,28.286,0,0,0-3.092,1.511A.675.675,0,0,1,1908.279,870.345Zm6.5-2.7a.678.678,0,0,1-.066-1.321,29.177,29.177,0,0,1,3.529-.745.678.678,0,0,1,.2,1.342,27.778,27.778,0,0,0-3.365.71A.674.674,0,0,1,1914.778,867.65Zm6.958-1.024a.678.678,0,0,1,.1-1.346,29.375,29.375,0,0,1,3.606.144.678.678,0,0,1-.137,1.349,27.861,27.861,0,0,0-3.439-.138A.686.686,0,0,1,1921.736,866.626Zm10.386,1.708a.673.673,0,0,1-.116-.031,28.1,28.1,0,0,0-2.866-.865c-.147-.037-.292-.071-.437-.1a.678.678,0,0,1,.3-1.323c.154.035.308.071.462.11a29.523,29.523,0,0,1,3,.907.678.678,0,0,1-.345,1.305Z" transform="translate(-1893.255 -865.273)" fill="#c7eaf1"/>
            </g>
            <g id="Grupo_149168" data-name="Grupo 149168" transform="translate(7.567 45.606)" opacity="0.3">
              <path id="Trazado_206254" data-name="Trazado 206254" d="M2025,1352.163a.678.678,0,0,1,.222-1.338,28.042,28.042,0,0,0,3.368.33.678.678,0,1,1-.05,1.355,29.554,29.554,0,0,1-3.531-.347Zm-3.386-.751c-.024,0-.047-.01-.072-.016a29.616,29.616,0,0,1-3.348-1.178.678.678,0,0,1,.526-1.25,28.331,28.331,0,0,0,3.2,1.124.678.678,0,0,1-.3,1.32Zm10.3,1.006a.678.678,0,0,1,.058-1.343,28.184,28.184,0,0,0,3.35-.494.678.678,0,1,1,.278,1.327,29.48,29.48,0,0,1-3.511.518A.689.689,0,0,1,2031.914,1352.418Zm-16.685-3.7a.685.685,0,0,1-.222-.08,29.026,29.026,0,0,1-2.967-1.953.678.678,0,0,1,.813-1.085,27.735,27.735,0,0,0,2.829,1.862.678.678,0,0,1-.453,1.256Zm23.458,2.272a.678.678,0,0,1-.1-1.31,27.9,27.9,0,0,0,3.132-1.284.678.678,0,0,1,.59,1.221,29.475,29.475,0,0,1-3.284,1.347A.676.676,0,0,1,2038.687,1350.994Zm6.234-3.008a.678.678,0,0,1-.251-1.239,28.279,28.279,0,0,0,2.735-2,.678.678,0,0,1,.864,1.044,29.561,29.561,0,0,1-2.867,2.094A.675.675,0,0,1,2044.921,1347.986Zm5.334-4.415a.678.678,0,0,1-.376-1.134,27.687,27.687,0,0,0,2.176-2.595.678.678,0,0,1,1.09.806,29.331,29.331,0,0,1-2.282,2.722A.678.678,0,0,1,2050.255,1343.571Z" transform="translate(-2007.917 -1339.568)" fill="#c7eaf1"/>
              <path id="Trazado_206255" data-name="Trazado 206255" d="M1973.453,1367.346a.674.674,0,0,1-.354-.179c-.418-.4-.826-.819-1.214-1.238a.678.678,0,0,1,1-.92c.369.4.759.8,1.157,1.181a.678.678,0,0,1-.586,1.156Z" transform="translate(-1971.706 -1362.366)" fill="#c7eaf1"/>
            </g>
            <g id="Grupo_149170" data-name="Grupo 149170" transform="translate(7.42 7.186)">
              <path id="Trazado_206256" data-name="Trazado 206256" d="M1974.112,974.877a.343.343,0,0,0,.361.169l4.11-.753a18.2,18.2,0,0,0,4.639,3.639l.25,4.168a.343.343,0,0,0,.25.31l4.827,1.347a.343.343,0,0,0,.375-.136l2.372-3.436a18.2,18.2,0,0,0,5.853-.711l3.126,2.772a.343.343,0,0,0,.4.042l4.366-2.46a.344.344,0,0,0,.169-.361l-.753-4.109a18.2,18.2,0,0,0,3.639-4.639l4.168-.25a.343.343,0,0,0,.31-.25l1.347-4.827a.343.343,0,0,0-.136-.375l-3.436-2.372a18.189,18.189,0,0,0-.711-5.853l2.772-3.126a.342.342,0,0,0,.042-.4l-2.461-4.366a.343.343,0,0,0-.361-.169l-4.109.753a18.2,18.2,0,0,0-4.639-3.639l-.25-4.168a.343.343,0,0,0-.25-.31l-4.827-1.347a.343.343,0,0,0-.375.135l-2.372,3.436a18.2,18.2,0,0,0-5.853.711l-3.126-2.772a.343.343,0,0,0-.4-.042l-4.366,2.461a.343.343,0,0,0-.169.361l.753,4.109a18.2,18.2,0,0,0-3.639,4.639l-4.168.25a.343.343,0,0,0-.31.25l-1.347,4.827a.343.343,0,0,0,.136.375l3.436,2.372a18.2,18.2,0,0,0,.711,5.853l-2.772,3.126a.343.343,0,0,0-.042.4Z" transform="translate(-1970.171 -940.01)" fill="#c7eaf1"/>
              <g id="Grupo_149169" data-name="Grupo 149169" transform="translate(16.752 16.752)">
                <path id="Trazado_206257" data-name="Trazado 206257" d="M2148.63,1124.4a5.141,5.141,0,1,1,.757.074A5.232,5.232,0,0,1,2148.63,1124.4Zm1.53-8.768a3.833,3.833,0,0,0-.552-.054,3.772,3.772,0,0,0-.187,7.542h0a3.772,3.772,0,0,0,.739-7.488Z" transform="translate(-2144.387 -1114.223)" fill="#e7f6f9"/>
              </g>
              <path id="Trazado_206258" data-name="Trazado 206258" d="M2076.414,1059.417q-.634-.11-1.267-.286a12.843,12.843,0,0,1-2.423-.949l-.1-.054a.678.678,0,0,1-.353-.715.691.691,0,0,1,.069-.2.679.679,0,0,1,.916-.284,11.442,11.442,0,0,0,2.259.9h0l.129.035a11.3,11.3,0,0,0,5.589.079,11.473,11.473,0,0,0,2.864-1.114l.022-.013.068-.038a11.414,11.414,0,1,0-16.6-13.012,11.5,11.5,0,0,0-.255,1.131,11.374,11.374,0,0,0,.238,4.949.668.668,0,0,1,.014.295.678.678,0,0,1-1.322.064,12.738,12.738,0,0,1-.266-5.537,12.873,12.873,0,0,1,.285-1.265,12.771,12.771,0,0,1,24.89,5.583,13.122,13.122,0,0,1-.289,1.281A12.789,12.789,0,0,1,2076.414,1059.417Z" transform="translate(-2056.611 -1025.012)" fill="#e7f6f9"/>
            </g>
          </g>
        </g>
        <g id="Grupo_149176" data-name="Grupo 149176" transform="translate(0.274 98.19)">
          <path id="Trazado_206259" data-name="Trazado 206259" d="M602.319,1688.733a3.661,3.661,0,0,0,3.652,3.649h197.5a3.661,3.661,0,0,0,3.652-3.649l1.643-113.5a6.36,6.36,0,0,0-6.7-5.63l-193.021-4.994a9.2,9.2,0,0,0-9.444,9.413Z" transform="translate(-586.297 -1564.607)" fill="#263266"/>
          <path id="Trazado_206260" data-name="Trazado 206260" d="M639.458,1725.915a3.465,3.465,0,0,0,3.455,3.455h189.33a3.465,3.465,0,0,0,3.455-3.455l1.551-103.035c-.183-6.2-5.619-8.429-8.914-8.3l-184.993-4.963a6.468,6.468,0,0,0-6.636,6.619Z" transform="translate(-619.83 -1605.289)" fill="#5ec1d5"/>
          <g id="Grupo_149173" data-name="Grupo 149173" transform="translate(147.155 9.672)">
            <path id="Trazado_206261" data-name="Trazado 206261" d="M2680.147,2221.962h-.007a.506.506,0,0,1-.5-.514l.123-8.356a.506.506,0,0,1,.506-.5h.006a.506.506,0,0,1,.5.514l-.123,8.356A.507.507,0,0,1,2680.147,2221.962Z" transform="translate(-2613.479 -2159.958)" fill="#4b9aaa"/>
            <path id="Trazado_206262" data-name="Trazado 206262" d="M2058.55,1706.726h-.007a.507.507,0,0,1-.5-.514l.47-32a6.013,6.013,0,0,0-1.715-4.5,8.46,8.46,0,0,0-5.6-1.91l-59.128-1.586a.506.506,0,0,1-.492-.519.484.484,0,0,1,.52-.492l59.093,1.586a9.3,9.3,0,0,1,6.3,2.19,6.991,6.991,0,0,1,2.027,5.237l-.47,32.014A.506.506,0,0,1,2058.55,1706.726Z" transform="translate(-1991.582 -1665.198)" fill="#4b9aaa"/>
          </g>
          <rect id="Rectángulo_44807" data-name="Rectángulo 44807" width="232.847" height="9.972" rx="4.986" transform="translate(232.847 137.197) rotate(180)" fill="#263266"/>
          <g id="Grupo_149174" data-name="Grupo 149174" transform="translate(34.988 11.893)">
            <rect id="Rectángulo_44808" data-name="Rectángulo 44808" width="4.188" height="61.138" transform="translate(0.29 32.177) rotate(-89.998)" fill="#4b9aaa"/>
            <rect id="Rectángulo_44809" data-name="Rectángulo 44809" width="4.188" height="61.138" transform="translate(0.002 4.188) rotate(-89.998)" fill="#4b9aaa"/>
            <rect id="Rectángulo_44810" data-name="Rectángulo 44810" width="4.188" height="44.085" transform="translate(17.239 11.353) rotate(-89.998)" fill="#4b9aaa"/>
            <rect id="Rectángulo_44811" data-name="Rectángulo 44811" width="4.188" height="6.345" transform="translate(7.907 11.019) rotate(-89.998)" fill="#4b9aaa"/>
            <rect id="Rectángulo_44812" data-name="Rectángulo 44812" width="4.188" height="44.085" transform="translate(17.194 18.353) rotate(-89.998)" fill="#4b9aaa"/>
            <rect id="Rectángulo_44813" data-name="Rectángulo 44813" width="4.188" height="6.345" transform="translate(7.876 18.019) rotate(-89.998)" fill="#4b9aaa"/>
            <rect id="Rectángulo_44814" data-name="Rectángulo 44814" width="4.188" height="44.085" transform="translate(17.033 25.342) rotate(-89.998)" fill="#4b9aaa"/>
            <rect id="Rectángulo_44815" data-name="Rectángulo 44815" width="4.188" height="6.345" transform="translate(7.499 25.007) rotate(-89.998)" fill="#4b9aaa"/>
            <rect id="Rectángulo_44816" data-name="Rectángulo 44816" width="4.188" height="61.138" transform="translate(0 61.318) rotate(-89.998)" fill="#4b9aaa"/>
            <rect id="Rectángulo_44817" data-name="Rectángulo 44817" width="4.188" height="44.085" transform="translate(16.949 40.494) rotate(-89.998)" fill="#4b9aaa"/>
            <rect id="Rectángulo_44818" data-name="Rectángulo 44818" width="4.188" height="6.345" transform="translate(7.618 40.16) rotate(-89.998)" fill="#4b9aaa"/>
            <rect id="Rectángulo_44819" data-name="Rectángulo 44819" width="4.188" height="44.085" transform="translate(16.905 47.494) rotate(-89.998)" fill="#4b9aaa"/>
            <rect id="Rectángulo_44820" data-name="Rectángulo 44820" width="4.188" height="6.345" transform="translate(7.586 47.16) rotate(-89.998)" fill="#4b9aaa"/>
            <rect id="Rectángulo_44821" data-name="Rectángulo 44821" width="4.188" height="44.085" transform="translate(16.743 54.483) rotate(-89.998)" fill="#4b9aaa"/>
            <rect id="Rectángulo_44822" data-name="Rectángulo 44822" width="4.188" height="6.345" transform="translate(7.209 54.148) rotate(-89.998)" fill="#4b9aaa"/>
            <rect id="Rectángulo_44823" data-name="Rectángulo 44823" width="4.188" height="61.138" transform="translate(0 90.421) rotate(-89.998)" fill="#4b9aaa"/>
            <rect id="Rectángulo_44824" data-name="Rectángulo 44824" width="4.188" height="44.085" transform="translate(16.949 69.598) rotate(-89.998)" fill="#4b9aaa"/>
            <rect id="Rectángulo_44825" data-name="Rectángulo 44825" width="4.188" height="6.345" transform="translate(7.618 69.263) rotate(-89.998)" fill="#4b9aaa"/>
            <rect id="Rectángulo_44826" data-name="Rectángulo 44826" width="4.188" height="44.085" transform="translate(16.905 76.598) rotate(-89.998)" fill="#4b9aaa"/>
            <rect id="Rectángulo_44827" data-name="Rectángulo 44827" width="4.188" height="6.345" transform="translate(7.586 76.263) rotate(-89.998)" fill="#4b9aaa"/>
            <rect id="Rectángulo_44828" data-name="Rectángulo 44828" width="4.188" height="44.085" transform="translate(16.743 83.586) rotate(-89.998)" fill="#4b9aaa"/>
            <rect id="Rectángulo_44829" data-name="Rectángulo 44829" width="4.188" height="6.345" transform="translate(7.209 83.252) rotate(-89.998)" fill="#4b9aaa"/>
            <rect id="Rectángulo_44830" data-name="Rectángulo 44830" width="4.188" height="44.085" transform="translate(17.239 98.013) rotate(-89.998)" fill="#4b9aaa"/>
            <rect id="Rectángulo_44831" data-name="Rectángulo 44831" width="4.188" height="6.345" transform="translate(7.907 97.679) rotate(-89.998)" fill="#4b9aaa"/>
            <rect id="Rectángulo_44832" data-name="Rectángulo 44832" width="4.188" height="44.085" transform="translate(16.89 105.013) rotate(-89.998)" fill="#4b9aaa"/>
            <rect id="Rectángulo_44833" data-name="Rectángulo 44833" width="4.188" height="6.345" transform="translate(7.571 104.679) rotate(-89.998)" fill="#4b9aaa"/>
          </g>
          <g id="Grupo_149175" data-name="Grupo 149175" transform="translate(107.78 13.989)">
            <rect id="Rectángulo_44834" data-name="Rectángulo 44834" width="4.245" height="44.007" transform="translate(35.096 82.264) rotate(-89.997)" fill="#4b9aaa"/>
            <rect id="Rectángulo_44835" data-name="Rectángulo 44835" width="4.245" height="71.399" transform="translate(17.194 75.171) rotate(-89.997)" fill="#4b9aaa"/>
            <rect id="Rectángulo_44836" data-name="Rectángulo 44836" width="4.245" height="57.233" transform="translate(40.028 68.085) rotate(-89.997)" fill="#4b9aaa"/>
            <rect id="Rectángulo_44837" data-name="Rectángulo 44837" width="4.245" height="32.636" transform="translate(40.028 60.995) rotate(-89.997)" fill="#4b9aaa"/>
            <rect id="Rectángulo_44838" data-name="Rectángulo 44838" width="4.245" height="57.162" transform="translate(40.787 53.894) rotate(-89.997)" fill="#4b9aaa"/>
            <rect id="Rectángulo_44839" data-name="Rectángulo 44839" width="4.245" height="48.303" transform="translate(35.671 46.809) rotate(-89.998)" fill="#4b9aaa"/>
            <rect id="Rectángulo_44840" data-name="Rectángulo 44840" width="4.245" height="51.573" transform="translate(17.195 39.705) rotate(-89.997)" fill="#4b9aaa"/>
            <rect id="Rectángulo_44841" data-name="Rectángulo 44841" width="4.245" height="58.84" transform="translate(40.217 32.616) rotate(-89.997)" fill="#4b9aaa"/>
            <rect id="Rectángulo_44842" data-name="Rectángulo 44842" width="4.245" height="59.569" transform="translate(40.217 25.523) rotate(-89.997)" fill="#4b9aaa"/>
            <rect id="Rectángulo_44843" data-name="Rectángulo 44843" width="4.245" height="58.684" transform="translate(40.787 18.431) rotate(-89.997)" fill="#4b9aaa"/>
            <rect id="Rectángulo_44844" data-name="Rectángulo 44844" width="4.245" height="48.075" transform="translate(30.164 11.338) rotate(-89.997)" fill="#4b9aaa"/>
            <rect id="Rectángulo_44845" data-name="Rectángulo 44845" width="4.245" height="12.466" transform="translate(0 32.438) rotate(-89.997)" fill="#4b9aaa"/>
            <rect id="Rectángulo_44846" data-name="Rectángulo 44846" width="4.245" height="12.466" transform="translate(0 39.734) rotate(-89.997)" fill="#4b9aaa"/>
            <rect id="Rectángulo_44847" data-name="Rectángulo 44847" width="4.245" height="12.466" transform="translate(0 46.731) rotate(-89.997)" fill="#4b9aaa"/>
            <rect id="Rectángulo_44848" data-name="Rectángulo 44848" width="4.245" height="12.466" transform="translate(0 53.849) rotate(-89.997)" fill="#4b9aaa"/>
            <rect id="Rectángulo_44849" data-name="Rectángulo 44849" width="4.245" height="12.466" transform="translate(0 61.144) rotate(-89.997)" fill="#4b9aaa"/>
            <rect id="Rectángulo_44850" data-name="Rectángulo 44850" width="4.245" height="12.466" transform="translate(0 68.142) rotate(-89.997)" fill="#4b9aaa"/>
            <rect id="Rectángulo_44851" data-name="Rectángulo 44851" width="4.245" height="12.466" transform="translate(0.632 75.117) rotate(-89.997)" fill="#4b9aaa"/>
            <rect id="Rectángulo_44852" data-name="Rectángulo 44852" width="4.245" height="12.466" transform="translate(0.632 82.412) rotate(-89.997)" fill="#4b9aaa"/>
            <rect id="Rectángulo_44853" data-name="Rectángulo 44853" width="4.245" height="12.466" transform="translate(0.632 89.41) rotate(-89.997)" fill="#4b9aaa"/>
            <rect id="Rectángulo_44854" data-name="Rectángulo 44854" width="4.245" height="12.466" transform="translate(0.632 96.547) rotate(-89.997)" fill="#4b9aaa"/>
            <rect id="Rectángulo_44855" data-name="Rectángulo 44855" width="4.245" height="12.466" transform="translate(0.632 103.843) rotate(-89.997)" fill="#4b9aaa"/>
            <rect id="Rectángulo_44856" data-name="Rectángulo 44856" width="4.245" height="12.466" transform="translate(0 25.522) rotate(-89.997)" fill="#4b9aaa"/>
            <rect id="Rectángulo_44857" data-name="Rectángulo 44857" width="4.245" height="12.466" transform="translate(0 18.435) rotate(-89.997)" fill="#4b9aaa"/>
            <rect id="Rectángulo_44858" data-name="Rectángulo 44858" width="4.245" height="12.466" transform="translate(0 11.338) rotate(-89.997)" fill="#4b9aaa"/>
            <rect id="Rectángulo_44859" data-name="Rectángulo 44859" width="4.245" height="12.466" transform="translate(0 4.246) rotate(-89.997)" fill="#4b9aaa"/>
            <path id="Trazado_206263" data-name="Trazado 206263" d="M1760.945,1710.091v4.245l59.781,0a4.274,4.274,0,0,0-4.3-4.245Z" transform="translate(-1743.747 -1710.091)" fill="#4b9aaa"/>
            <rect id="Rectángulo_44860" data-name="Rectángulo 44860" width="4.245" height="60.285" transform="translate(40.598 104.121) rotate(-89.997)" fill="#4b9aaa"/>
            <rect id="Rectángulo_44861" data-name="Rectángulo 44861" width="4.245" height="59.189" transform="translate(40.597 96.813) rotate(-89.997)" fill="#4b9aaa"/>
            <path id="Trazado_206264" data-name="Trazado 206264" d="M2004.3,2600.2v4.245h37.641c0-2.344-1.212-4.244-2.709-4.244Z" transform="translate(-1963.699 -2514.608)" fill="#4b9aaa"/>
          </g>
          <rect id="Rectángulo_44862" data-name="Rectángulo 44862" width="1.219" height="109.881" rx="0.609" transform="translate(101.488 11.081)" fill="#4b9aaa"/>
        </g>
        <g id="Grupo_149178" data-name="Grupo 149178" transform="translate(88.782 57.586)">
          <path id="Trazado_206265" data-name="Trazado 206265" d="M2372.255,2275.033l74.884,79.9a7.879,7.879,0,0,1-.823,11.538l-.589.471a7.325,7.325,0,0,1-10.325-1.176l-68.258-86.375Z" transform="translate(-2272.383 -2166.117)" fill="#263266"/>
          <ellipse id="Elipse_5142" data-name="Elipse 5142" cx="49.881" cy="50.798" rx="49.881" ry="50.798" transform="translate(0 89.001) rotate(-63.142)" fill="#fff" opacity="0.5"/>
          <path id="Trazado_206266" data-name="Trazado 206266" d="M1507.4,1294.456c-13.849,27.348-2.5,60.95,25.353,75.053s61.654,3.366,75.5-23.982,2.5-60.95-25.352-75.053S1521.252,1267.109,1507.4,1294.456Zm7.407,3.751c11.814-23.331,40.652-32.49,64.411-20.459s33.443,40.7,21.629,64.028-40.652,32.49-64.411,20.46S1503,1321.538,1514.811,1298.207Z" transform="translate(-1489.977 -1252.542)" fill="#263266"/>
          <g id="Grupo_149177" data-name="Grupo 149177" transform="translate(62.192 15.411)">
            <path id="Trazado_206267" data-name="Trazado 206267" d="M2077.678,1384.155a.145.145,0,0,1-.039-.2c.736-1.085,1.439-2.215,2.09-3.357a.145.145,0,1,1,.251.144c-.655,1.149-1.362,2.285-2.1,3.376a.144.144,0,0,1-.138.062A.138.138,0,0,1,2077.678,1384.155Zm6.705-14a.145.145,0,0,1-.1-.181,50.568,50.568,0,0,0,1.974-10.578,51.694,51.694,0,0,0-6.471-29.272,53.335,53.335,0,0,0-51.191-27.008.145.145,0,1,1-.026-.289,53.625,53.625,0,0,1,51.47,27.156,51.986,51.986,0,0,1,6.507,29.436,50.874,50.874,0,0,1-1.985,10.639.144.144,0,0,1-.157.1Z" transform="translate(-2028.439 -1302.607)" fill="#e7f6f9"/>
          </g>
          <path id="Trazado_206268" data-name="Trazado 206268" d="M3088.056,3038.987c3.224.417,5.457-.438,6.639-2.541a5.886,5.886,0,0,0-.867-6.794l-8.846-9.88a.145.145,0,0,0-.216.193l8.847,9.88a5.6,5.6,0,0,1,.829,6.459c-1.13,2.011-3.289,2.816-6.449,2.382h0a.145.145,0,0,0-.039.287Z" transform="translate(-2920.968 -2839.2)" fill="#e7f6f9"/>
          <path id="Trazado_206269" data-name="Trazado 206269" d="M3045.732,2976.315a.145.145,0,0,0,.126-.24l-1.146-1.281a.145.145,0,0,0-.216.193l1.146,1.28A.146.146,0,0,0,3045.732,2976.315Z" transform="translate(-2884.571 -2798.547)" fill="#e7f6f9"/>
        </g>
        <g id="Grupo_149179" data-name="Grupo 149179" transform="translate(4.399 17.32)">
          <path id="Trazado_206270" data-name="Trazado 206270" d="M595.93,753.571a.738.738,0,0,1-.716-.728c-.073-4.077-1.329-24.319-18.937-28.549-19.6-4.709-28.574,15.474-28.574,15.474s-24.255-9.419-28.906,15.81c-15.208,3.7-19.159,23.8-9.268,33.629a8.45,8.45,0,0,0,5.88,2.464l95.242.868a6.28,6.28,0,0,0,6.068-4.54C619.695,777.832,623.594,754.227,595.93,753.571Z" transform="translate(-504.104 -723.582)" fill="#c7eaf1"/>
          <path id="Trazado_206271" data-name="Trazado 206271" d="M619.918,776.71a.738.738,0,0,1-.715-.727c-.078-3.91-1.322-22.68-17.905-26.614-18.536-4.4-27.018,14.45-27.018,14.45s-22.934-8.8-27.333,14.764C532.7,782,528.9,800.453,537.918,809.72a8.455,8.455,0,0,0,5.985,2.569l89.658.807a6.281,6.281,0,0,0,6.072-4.557C642.429,798.885,645.747,777.336,619.918,776.71Z" transform="translate(-530.269 -746.288)" fill="#e7f6f9"/>
        </g>
        <g id="Grupo_149189" data-name="Grupo 149189" transform="translate(0 131.956)">
          <g id="Grupo_149180" data-name="Grupo 149180" transform="translate(0 81.008)">
            <path id="Trazado_206272" data-name="Trazado 206272" d="M466.444,2820.552c-.814,1.2-4.047,28.458-4.553,38.524a1.191,1.191,0,0,0,1.192,1.249h0a1.193,1.193,0,0,0,1.179-1.009l5.914-37.9Z" transform="translate(-461.551 -2814.559)" fill="#4b9aaa"/>
            <path id="Trazado_206273" data-name="Trazado 206273" d="M744.514,2820.552c.814,1.2,4.047,28.458,4.553,38.524a1.191,1.191,0,0,1-1.192,1.249h0a1.193,1.193,0,0,1-1.179-1.009l-5.914-37.9Z" transform="translate(-713.626 -2814.559)" fill="#4b9aaa"/>
            <path id="Trazado_206274" data-name="Trazado 206274" d="M458.362,2762.091l0,.3a4.051,4.051,0,0,0,4.129,3.931l27.334.465a4.086,4.086,0,0,0,4.278-3.709l.014-.271a4.036,4.036,0,0,0-4.12-4.087l-27.346-.49A4.072,4.072,0,0,0,458.362,2762.091Z" transform="translate(-458.359 -2758.225)" fill="#4b9aaa"/>
          </g>
          <g id="Grupo_149184" data-name="Grupo 149184" transform="translate(3.714 0)">
            <g id="Grupo_149181" data-name="Grupo 149181" transform="translate(41.446 119.57)">
              <path id="Trazado_206275" data-name="Trazado 206275" d="M936.491,3203.4c-4.859,0-7.009-.417-7.97-.8a1.843,1.843,0,0,0,1.8,1.428h17.19a.836.836,0,0,0,.806-1.056C946.353,3203.138,942.191,3203.4,936.491,3203.4Z" transform="translate(-928.472 -3198.44)" fill="#5ec1d5"/>
              <path id="Trazado_206276" data-name="Trazado 206276" d="M947.851,3163.8a.813.813,0,0,0-.141-.292c-1.309-1.672-3.94-4.3-7.518-4.247-5.242.074-7.069.642-11.143.032l-.961,3.185a1.83,1.83,0,0,0-.029.95c.961.38,3.111.8,7.97.8C941.73,3164.227,945.891,3163.959,947.851,3163.8Z" transform="translate(-928.01 -3159.262)" fill="#263266"/>
            </g>
            <path id="Trazado_206277" data-name="Trazado 206277" d="M940,3123.905l-1.18,4.012a6.935,6.935,0,0,0,4.911.235l.451-3.476Z" transform="translate(-896.333 -3007.735)" fill="#ffecb7"/>
            <g id="Grupo_149182" data-name="Grupo 149182" transform="translate(70.777 113.771)">
              <path id="Trazado_206278" data-name="Trazado 206278" d="M1258.534,3111.927c-3.788,3.043-5.724,4.066-6.71,4.374a1.841,1.841,0,0,0,2.29-.017l13.4-10.767a.833.833,0,0,0-.03-1.324C1266.055,3105.542,1262.977,3108.357,1258.534,3111.927Z" transform="translate(-1250.018 -3103.689)" fill="#5ec1d5"/>
              <path id="Trazado_206279" data-name="Trazado 206279" d="M1250.507,3099.457a.814.814,0,0,0-.292-.139c-2.063-.477-5.75-.866-8.508,1.414-4.04,3.341-5.11,4.926-8.666,7l1.236,3.074a1.808,1.808,0,0,0,.57.755c.986-.307,2.922-1.33,6.71-4.374C1246,3103.62,1249.078,3100.806,1250.507,3099.457Z" transform="translate(-1233.041 -3098.953)" fill="#263266"/>
            </g>
            <path id="Trazado_206280" data-name="Trazado 206280" d="M636.025,2648.568s29.091,2.375,35.059,5.184-4.87,42.184-4.87,42.184-1.625.782-5.24-.342c0,0,3.707-29.057.949-35.358l-31.5-5.152Z" transform="translate(-617.593 -2578.104)" fill="#263266"/>
            <path id="Trazado_206281" data-name="Trazado 206281" d="M1202.981,3116.641c.27.246,2.89,5.531,2.89,5.531s2.917-.631,3.512-2.477l-2.625-4.77Z" transform="translate(-1135.095 -2999.618)" fill="#ffecb7"/>
            <path id="Trazado_206282" data-name="Trazado 206282" d="M497.893,2646.04a14.729,14.729,0,0,0-.909,5.312,7.976,7.976,0,0,0,7.611,7.8l34.391,1.568a1.65,1.65,0,0,1,1.523,1.24c.808,3.126,4.758,12.725,24.067,31.88a1.557,1.557,0,0,0,1.926.209l2.749-1.736a.633.633,0,0,0,.208-.855l-20.024-34.194a7.748,7.748,0,0,0-4.709-3.492l-29.311-7.492Z" transform="translate(-496.982 -2575.819)" fill="#263266"/>
            <path id="Trazado_206283" data-name="Trazado 206283" d="M788.978,2090.55s-3.684,6.514-7.44,9.669l7.764,4.332s1.75-6.9,5.746-8.915Z" transform="translate(-754.176 -2073.743)" fill="#ffecb7"/>
            <path id="Trazado_206284" data-name="Trazado 206284" d="M499.954,2224.836s9.284,2.263,18.146,0c0,0,12.4-16.669,17.2-21.206,0,0,7.652,12.075,24.684,13.786l.95-2.123s-13.56-6.25-17.734-15.855-5.851-13.7-9.649-16.207c-2.365-1.561-3.781-2.626-4.513-3.209a1.214,1.214,0,0,0-1.391-.089C523.615,2182.391,504.651,2195.379,499.954,2224.836Z" transform="translate(-499.668 -2154.372)" fill="#fdc831"/>
            <path id="Trazado_206285" data-name="Trazado 206285" d="M814.562,2334.8a36.819,36.819,0,0,0,4.588,8.134Z" transform="translate(-784.025 -2294.507)" fill="#caa027"/>
            <path id="Trazado_206286" data-name="Trazado 206286" d="M1113.581,2519.669l1.917-.511,5.821-1.348a2.7,2.7,0,0,1,2.046.345l5.005,3.149-13.822-.023Z" transform="translate(-1054.291 -2459.857)" fill="#ffecb7"/>
            <g id="Grupo_149183" data-name="Grupo 149183" transform="translate(25.223)">
              <path id="Trazado_206287" data-name="Trazado 206287" d="M821.762,1988.971s3.581,5.952,4.2,9.241,1.619,5.345-2.125,6.518a8.216,8.216,0,0,1-9.407-3.382s-3.41-4.725-3.07-6.89S821.762,1988.971,821.762,1988.971Z" transform="translate(-806.334 -1981.932)" fill="#ffecb7"/>
              <path id="Trazado_206288" data-name="Trazado 206288" d="M768.394,1932.635l.484-.064s-2.535-3.831-.876-4.781,8.419-3.282,9.593-5.944a4.623,4.623,0,0,0-2.6-6.071.26.26,0,0,0-.312.164l-.12.323a.262.262,0,0,1-.487.014h0a.261.261,0,0,0-.476-.01c-.362.8-1.446,2.16-4.7,3.214-4.613,1.5-7.486,3.821-7.133,7.1a.263.263,0,0,1-.375.267c-.377-.167-.949-.193-1.613.533-1.154,1.262-.25,4.024,2.9,5.978a.261.261,0,0,1,.043.419c-.472.4-1.135,1.3,1,2.107,2.182.821,3.373.543,3.813.367a.263.263,0,0,0,.162-.3l-.561-2.872a.263.263,0,0,1,.223-.311Z" transform="translate(-759.299 -1915.765)" fill="#263266"/>
              <path id="Trazado_206289" data-name="Trazado 206289" d="M821.118,2070.867s-1.58-3.9-3.239-2.526,1.534,4.4,3.007,4.355Z" transform="translate(-811.825 -2053.406)" fill="#ffecb7"/>
            </g>
          </g>
          <g id="Grupo_149187" data-name="Grupo 149187" transform="translate(56.409 34.536)">
            <g id="Grupo_149185" data-name="Grupo 149185" transform="translate(0 26.956)">
              <path id="Trazado_206290" data-name="Trazado 206290" d="M1046.247,2557.933c.023,0,.045,0,.068,0l29.528-.03a1.319,1.319,0,1,0,0-2.638l-29.528.029a1.319,1.319,0,0,0-.065,2.637Z" transform="translate(-1044.992 -2555.267)" fill="#263266"/>
            </g>
            <g id="Grupo_149186" data-name="Grupo 149186" transform="translate(29.709)">
              <path id="Trazado_206291" data-name="Trazado 206291" d="M1366.532,2275.637c-.011.02-.021.041-.03.061l-12.424,26.787a1.319,1.319,0,1,0,2.393,1.109l12.424-26.786a1.319,1.319,0,0,0-2.363-1.171Z" transform="translate(-1353.954 -2274.932)" fill="#263266"/>
            </g>
          </g>
          <g id="Grupo_149188" data-name="Grupo 149188" transform="translate(49.697 63.387)">
            <path id="Trazado_206292" data-name="Trazado 206292" d="M1047.7,2606.077c-.129.534-12.449,46.743-15.573,58.457a2.118,2.118,0,0,0,2.027,2.676h0a2.1,2.1,0,0,0,2.037-1.61l13.677-55.452Z" transform="translate(-1026.589 -2603.086)" fill="#e7f6f9"/>
            <path id="Trazado_206293" data-name="Trazado 206293" d="M1244.573,2606.077c.129.534,12.45,46.743,15.573,58.457a2.118,2.118,0,0,1-2.027,2.676h0a2.1,2.1,0,0,1-2.036-1.61l-13.677-55.452Z" transform="translate(-1216.712 -2603.086)" fill="#e7f6f9"/>
            <path id="Trazado_206294" data-name="Trazado 206294" d="M1198.155,2590.364h-7.673v6.162a1.594,1.594,0,0,0,1.585,1.6h1.052v13.841a1.207,1.207,0,0,0,1.2,1.214h0a1.207,1.207,0,0,0,1.2-1.214V2598.13h.534a2.116,2.116,0,0,0,2.1-2.129Z" transform="translate(-1169.781 -2588.884)" fill="#e7f6f9"/>
            <path id="Trazado_206295" data-name="Trazado 206295" d="M977.029,2574.97h42.846a1.315,1.315,0,0,1,1.271,1l.6,2.346a1.325,1.325,0,0,1-1.279,1.661l-43.964-.256a1.325,1.325,0,0,1-1.266-1.654l.52-2.09A1.316,1.316,0,0,1,977.029,2574.97Z" transform="translate(-975.195 -2574.97)" fill="#e7f6f9"/>
          </g>
        </g>
      </g>
    </g>
  </g>
</svg>
