<svg xmlns="http://www.w3.org/2000/svg" width="190" height="115" viewBox="0 0 190 115">
  <g id="Grupo_172780" data-name="Grupo 172780" transform="translate(-180 -1101)">
    <rect id="Rectángulo_41430" data-name="Rectángulo 41430" width="85" height="28" rx="14" transform="translate(285 1113.5)" fill="#feca2e" opacity="0.2"/>
    <rect id="Rectángulo_41431" data-name="Rectángulo 41431" width="85" height="28" rx="14" transform="translate(180 1174.5)" fill="#4dd0e1" opacity="0.2"/>
    <rect id="Rectángulo_43996" data-name="Rectángulo 43996" width="190" height="115" transform="translate(180 1101)" fill="none"/>
    <g id="Grupo_172781" data-name="Grupo 172781" transform="translate(-337.077 791.463)">
      <path id="Trazado_206216" data-name="Trazado 206216" d="M668.181,416.514a6.208,6.208,0,0,1-4.137,4.228,7.953,7.953,0,0,1-2.161.214q-11.63.011-23.261,0c-4.078-.005-6.349-2.274-6.366-6.334-.01-2.4,0-4.795,0-7.178a2.961,2.961,0,0,0-1.345-.115q-33.417-.009-66.835-.007c-3.93,0-6.781-2.2-7.6-5.848a6.474,6.474,0,0,1-.118-1.406q-.009-30.8,0-61.593A7.134,7.134,0,0,1,563.1,331.3c.435-.03.873-.043,1.309-.043q40.516,0,81.032-.007a8.112,8.112,0,0,1,4.679,1.137,7.388,7.388,0,0,1,3.4,6.565q0,15.071,0,30.142v1.242a12.385,12.385,0,0,1,8.945,11.04c.114,1.245-.341,2.007-1.2,2.111s-1.408-.548-1.508-1.85a9.444,9.444,0,0,0-5.793-8.3,1.8,1.8,0,0,0-.377-.07v14.581c2.746,0,5.466-.007,8.186,0a8.431,8.431,0,0,1,2.271.2c2.2.614,3.37,2.218,4.144,4.221ZM559.006,351.19c-.015.332-.033.542-.033.751q0,24.076,0,48.153a3.9,3.9,0,0,0,.118.965c.617,2.4,2.363,3.642,5.118,3.642q33.466,0,66.933,0a1.9,1.9,0,0,0,1.071-.114,2.2,2.2,0,0,0,.111-1.17q.017-5.022.008-10.046a5.309,5.309,0,0,1,1.044-3.139,5.86,5.86,0,0,1,4.657-2.415c0-2.033-.015-3.995,0-5.957a12.247,12.247,0,0,1,9.858-11.686c.958-.177,1.933-.106,2.9-.256v-18.5C620.2,351.487,589.674,351.331,559.006,351.19Zm-.026-2.626c30.686.209,61.239.267,91.855.24,0-3.6.017-7.084-.016-10.568a3.9,3.9,0,0,0-.469-1.771,4.729,4.729,0,0,0-4.659-2.556q-40.782.031-81.564.015c-.291,0-.583,0-.873.015A4.469,4.469,0,0,0,559.007,338C558.906,341.489,558.98,344.979,558.98,348.565Zm91.4,41.941c-4.041,0-8.081-.007-12.122,0a2.977,2.977,0,0,0-3.31,3.285q-.024,10.592,0,21.186a2.966,2.966,0,0,0,3.289,3.3q12.012.019,24.025,0a3.039,3.039,0,0,0,3.294-3.338q.007-10.538,0-21.076a3.064,3.064,0,0,0-3.383-3.36C658.243,390.5,654.311,390.506,650.38,390.506Zm.442-17.842a9.454,9.454,0,0,0-8.181,3.6c-2.763,3.54-1.814,7.625-1.971,11.541h10.152Z" transform="translate(-0.187 -9.709)" fill="#0f2771"/>
      <path id="Trazado_206218" data-name="Trazado 206218" d="M641.287,386.96c-.037.125-.131.511-.266.882q-4.776,13.12-9.561,26.239c-.074.2-.138.411-.227.609-.34.753-.886,1.2-1.721.849a1.236,1.236,0,0,1-.7-1.776c.979-2.638,1.913-5.293,2.875-7.938q3.482-9.562,6.968-19.123c.31-.854.7-1.591,1.762-1.323C641.011,385.529,641.384,386,641.287,386.96Z" transform="translate(-30.304 -32.226)" fill="#0f2771"/>
      <path id="Trazado_206219" data-name="Trazado 206219" d="M668.5,403.164c-3.027-3.008-5.892-5.852-8.754-8.7a6.613,6.613,0,0,1-.663-.721A1.269,1.269,0,0,1,660.7,391.9a4.235,4.235,0,0,1,.839.685q4.561,4.549,9.109,9.112c1.227,1.231,1.235,1.686.037,2.886q-4.55,4.56-9.111,9.112c-.128.129-.252.264-.39.382a1.279,1.279,0,0,1-1.938.023,1.229,1.229,0,0,1,.144-1.912c1.809-1.794,3.6-3.606,5.409-5.4C665.989,405.61,667.189,404.449,668.5,403.164Z" transform="translate(-42.863 -34.893)" fill="#0f2771"/>
      <path id="Trazado_206220" data-name="Trazado 206220" d="M601.615,403.174l8.606,8.578a6.493,6.493,0,0,1,.606.628,1.228,1.228,0,0,1-.114,1.837,1.184,1.184,0,0,1-1.753-.035c-.485-.438-.934-.918-1.4-1.381q-4.171-4.17-8.338-8.341c-.976-.978-.984-1.611-.025-2.572q4.705-4.716,9.419-9.422c.848-.847,1.522-.927,2.153-.288s.54,1.3-.315,2.155C607.527,397.27,604.59,400.2,601.615,403.174Z" transform="translate(-17.734 -34.906)" fill="#0f2771"/>
      <path id="Trazado_206221" data-name="Trazado 206221" d="M667.15,341.488q7.474,0,14.948,0c1.569,0,1.9.33,1.908,1.925q.013,2.237,0,4.473c-.011,1.493-.4,1.9-1.854,1.9q-15.057,0-30.114,0c-1.348,0-1.763-.415-1.768-1.73q-.008-2.4,0-4.8c0-1.416.36-1.762,1.823-1.763Q659.622,341.485,667.15,341.488Zm-14.235,5.607h28.456a15.8,15.8,0,0,0,0-2.922H652.916Z" transform="translate(-39.295 -13.973)" fill="#0f2771"/>
      <path id="Trazado_206222" data-name="Trazado 206222" d="M609.84,345.662a4.077,4.077,0,1,1,8.152-.075,4.077,4.077,0,1,1-8.152.075Zm4.069-1.542a1.423,1.423,0,0,0-1.451,1.534,1.459,1.459,0,0,0,1.514,1.485,1.511,1.511,0,0,0-.064-3.018Z" transform="translate(-22.462 -13.977)" fill="#0f2771"/>
      <path id="Trazado_206223" data-name="Trazado 206223" d="M597.244,345.62a4.206,4.206,0,0,1-4.16,4.153,4.259,4.259,0,0,1-4.1-4.139,4.129,4.129,0,1,1,8.257-.015Zm-4.055-1.5a1.516,1.516,0,1,0,1.43,1.6A1.53,1.53,0,0,0,593.189,344.12Z" transform="translate(-13.778 -13.977)" fill="#0f2771"/>
      <path id="Trazado_206224" data-name="Trazado 206224" d="M568.322,345.625a4.125,4.125,0,1,1,8.25,0,4.259,4.259,0,0,1-4.2,4.146A4.2,4.2,0,0,1,568.322,345.625Zm4.165-1.5a1.51,1.51,0,1,0,1.464,1.579A1.549,1.549,0,0,0,572.487,344.12Z" transform="translate(-5.173 -13.977)" fill="#0f2771"/>
      <path id="Trazado_206225" data-name="Trazado 206225" d="M712.7,453.956a6.883,6.883,0,0,1-2-1.3,4.529,4.529,0,0,1,.318-6.585,4.584,4.584,0,0,1,6.7.889,4.435,4.435,0,0,1-1.5,6.463,1.493,1.493,0,0,0-.919,1.678,15.517,15.517,0,0,1,0,2.069,1.275,1.275,0,0,1-1.4,1.34,1.205,1.205,0,0,1-1.208-1.382C712.707,456.072,712.7,455.019,712.7,453.956Zm3.238-4.4a2.047,2.047,0,0,0-1.928-1.964,1.921,1.921,0,1,0-.056,3.841A1.969,1.969,0,0,0,715.936,449.555Z" transform="translate(-63.934 -57.075)" fill="#0f2771"/>
    </g>
  </g>
</svg>
