<svg xmlns="http://www.w3.org/2000/svg" width="189" height="189" viewBox="0 0 189 189">
  <g id="Grupo_172720" data-name="Grupo 172720" transform="translate(-694.999 -1337)">
    <g id="Grupo_172719" data-name="Grupo 172719" transform="translate(694.999 1337)">
      <path id="Trazado_221912" data-name="Trazado 221912" d="M813.968,171.793a8.856,8.856,0,0,1,2.785,2.577c2.4,3.267,4.88,6.48,7.3,9.734,1.59,2.138,1.437,4.385-.334,5.7-1.82,1.351-3.9.876-5.567-1.269-.4-.52-.81-1.037-1.429-1.828V344.689a4.6,4.6,0,0,0,2.183.174q39.583.017,79.167.01c.615,0,1.233-.026,1.845.024a3.626,3.626,0,0,1,3.345,3.144,3.7,3.7,0,0,1-2.4,3.928,7.388,7.388,0,0,1-2.732.289H816.6c0,1.481.036,2.819-.009,4.154a3.562,3.562,0,0,1-3.511,3.73,3.628,3.628,0,0,1-3.837-3.624c-.086-1.341-.016-2.691-.016-4.261-1.352,0-2.621.035-3.888-.007-2.514-.085-4.073-1.6-4.017-3.839.054-2.162,1.588-3.5,4.073-3.535,1.216-.017,2.432,0,3.73,0V187c-4.486,4.491-5.874,4.648-8.452,1.038V185.82c2.732-3.689,5.48-7.365,8.184-11.074a12.456,12.456,0,0,1,2.89-2.953Z" transform="translate(-800.679 -171.793)" fill="#030303"/>
      <path id="Trazado_221913" data-name="Trazado 221913" d="M1185.258,641.907c-3.365-2.425-3.382-4.864-.054-7.385.368-.279.731-.564,1.487-1.149h-2.39q-21.387,0-42.775,0a7.425,7.425,0,0,1-2.552-.245,3.57,3.57,0,0,1-2.5-4,3.529,3.529,0,0,1,3.331-3.113c.55-.043,1.106-.021,1.659-.021h45.308c-1.053-.811-1.7-1.3-2.338-1.8-1.874-1.5-2.236-3.6-.931-5.34a3.646,3.646,0,0,1,5.24-.616c3.763,2.759,7.46,5.607,11.2,8.4a8.793,8.793,0,0,1,1.552,2v2.215a10.9,10.9,0,0,1-1.511,1.742c-4.15,3.14-8.34,6.228-12.517,9.333Z" transform="translate(-1012.5 -452.906)" fill="#030303"/>
      <path id="Trazado_221915" data-name="Trazado 221915" d="M913.272,285.821c0-4.093-.007-8.016,0-11.938.008-3.335,1.354-4.667,4.731-4.671q12.551-.011,25.1,0h2.177c0-3.94,0-7.736,0-11.532,0-3.954,1.109-5.078,5.012-5.079q12.458,0,24.916,0H977.1V232.667c-2.1,0-4.119.033-6.134-.007-3.3-.065-5.009-2.938-3.316-5.759q12.46-20.765,25.02-41.47c1.677-2.766,4.883-2.746,6.572.039q12.51,20.627,24.937,41.305c1.764,2.935.105,5.824-3.3,5.886-1.963.036-3.928.006-5.884.006-.536.706-.284,1.468-.284,2.169q-.022,51.586-.013,103.172c0,4.1-1.144,5.233-5.274,5.233H886.692c-4.3,0-5.321-1.027-5.322-5.326q0-23.532,0-47.064c0-3.915,1.126-5.03,5.063-5.031C895.291,285.82,904.148,285.821,913.272,285.821Zm101.393-60.537L995.95,194.273l-18.707,31.008c4.782,0,9.2-.028,13.613.011,2.536.023,4.092,1.535,4.045,3.8-.044,2.167-1.578,3.539-4.05,3.571-2.014.027-4.029.005-6.153.005V335.721h22.619V230.974c0-.615-.016-1.231.009-1.845a3.7,3.7,0,0,1,3.842-3.838C1012.2,225.246,1013.232,225.284,1014.665,225.284ZM952.8,260.059v75.7h24.26v-75.7Zm-7.6,16.632H920.76v59.062h24.431Zm-32.075,59.066V293.33H888.851v42.427Z" transform="translate(-851.583 -179.095)" fill="#030303"/>
      <path id="Trazado_221916" data-name="Trazado 221916" d="M941.866,260.388c-.763.361-1.353.675-1.97.924a3.65,3.65,0,0,1-3.339-6.474c3.85-2.161,7.731-4.275,11.666-6.277a3.478,3.478,0,0,1,5.212,2.352c1.054,4.225,1.975,8.487,2.815,12.76a3.6,3.6,0,0,1-2.844,4.454c-1.886.432-3.579-.676-4.309-2.822-.112-.329-.221-.659-.4-1.189a67.419,67.419,0,0,1-12.836,17.173c-15.213,14.957-33.348,24.872-53.693,30.93-2.435.725-4.354-.267-4.964-2.422-.605-2.138.512-3.9,3-4.649a124.011,124.011,0,0,0,45.418-24.341,67.368,67.368,0,0,0,15.283-17.832A4.29,4.29,0,0,0,941.866,260.388Z" transform="translate(-848.854 -219.924)" fill="#030303"/>
      <path id="Trazado_221917" data-name="Trazado 221917" d="M1105.1,644.3a3.743,3.743,0,0,1-3.735,3.731,3.788,3.788,0,0,1-3.63-3.67,3.682,3.682,0,0,1,7.364-.061Z" transform="translate(-988.081 -467.597)" fill="#030303"/>
      <path id="Trazado_221918" data-name="Trazado 221918" d="M1178.512,243.922c-1.433,0-2.467-.039-3.5.008a3.7,3.7,0,0,0-3.842,3.838c-.025.614-.009,1.23-.009,1.845V354.358h-22.619V251.3c2.124,0,4.139.021,6.153-.005,2.472-.032,4.006-1.4,4.05-3.571.046-2.26-1.509-3.773-4.046-3.8-4.415-.039-8.831-.011-13.613-.011l18.707-31.008Z" transform="translate(-1015.43 -197.733)" fill="#0f2771"/>
      <path id="Trazado_221919" data-name="Trazado 221919" d="M1074.864,391.123h24.26v75.7h-24.26Z" transform="translate(-973.651 -310.159)" fill="#bddcf6"/>
      <path id="Trazado_221920" data-name="Trazado 221920" d="M1012.51,436.178V495.24H988.079V436.178Z" transform="translate(-918.902 -338.583)" fill="#feca2e"/>
      <path id="Trazado_221921" data-name="Trazado 221921" d="M925.9,523.682H901.637V481.255H925.9Z" transform="translate(-864.369 -367.02)" fill="#4dd0e1"/>
    </g>
  </g>
</svg>
