<svg xmlns="http://www.w3.org/2000/svg" width="148" height="148" viewBox="0 0 148 148">
  <g id="Grupo_172854" data-name="Grupo 172854" transform="translate(-1077 -10690)">
    <circle id="Elipse_4824" data-name="Elipse 4824" cx="74" cy="74" r="74" transform="translate(1077 10690)" fill="#4dcedf"/>
    <circle id="Elipse_4825" data-name="Elipse 4825" cx="73.5" cy="73.5" r="73.5" transform="translate(1078 10691)" fill="#4dcedf"/>
    <g id="Grupo_149147" data-name="Grupo 149147" transform="translate(416.742 -569.752)">
      <path id="Trazado_206206" data-name="Trazado 206206" d="M301.656,278.383c.312-.061.258-.367.33-.556a5.947,5.947,0,0,1,5.907-4.047q18.014-.006,36.029,0,15.313,0,30.625,0a2.588,2.588,0,0,1,1.8.43,2,2,0,0,1-.962,3.553,7.833,7.833,0,0,1-1.1.024H308.632c-2.32,0-2.973.65-2.973,2.96V330.09c0,2.3.653,2.946,2.986,2.946h88.572c2.239,0,2.919-.679,2.919-2.914V280.673c0-2.221-.683-2.891-2.941-2.891-1.868,0-3.736.008-5.6,0a2.013,2.013,0,1,1-.024-4c2.2-.011,4.4-.021,6.6,0a5.937,5.937,0,0,1,5.961,5.969q.021,25.625,0,51.25a5.938,5.938,0,0,1-6.1,6.034q-18.265.017-36.529,0h-.945v5.605c2.041,0,4.1.1,6.15-.021a6.157,6.157,0,0,1,6.614,6.664c-.072,1-.006,2-.012,3-.01,1.632-.742,2.365-2.384,2.366q-14.762.005-29.524,0c-2.2,0-4.4.006-6.6,0a2.051,2.051,0,0,1-2.317-2.333c-.008-1.234-.015-2.469,0-3.7a5.966,5.966,0,0,1,5.966-5.969c2.234-.023,4.468,0,6.772,0v-5.523c-.272-.207-.651-.076-1-.076q-17.915-.013-35.829-.007c-3.506,0-5.181-1.137-6.535-4.425-.031-.075-.133-.12-.2-.179Zm67.655,72.249c0-.319,0-.548,0-.776.011-2.651-.547-3.206-3.223-3.206h-21.7c-1.833,0-3.666-.015-5.5.005a2.087,2.087,0,0,0-2.366,1.923,16.567,16.567,0,0,0-.015,2.055Zm-12.856-8.021v-5.526H349.34v5.526Z" transform="translate(381.603 11019.983)" fill="#122654"/>
      <path id="Trazado_206207" data-name="Trazado 206207" d="M357.238,323.971H319.525a2.735,2.735,0,0,1-1.989-.457,2.114,2.114,0,0,1-.735-1.675c.008-6.3,0-12.607.009-18.91a2.029,2.029,0,0,1,2.165-2.2c.233-.009.467,0,.7,0H394.8c2.307,0,2.869.569,2.869,2.9q0,8.854,0,17.709c0,1.97-.65,2.63-2.62,2.63Q376.145,323.973,357.238,323.971Zm-36.4-4.074h53.55V304.8h-53.55Zm69.652.027c-.57-.531-.959-.878-1.33-1.242-.443-.434-.76-.844-1.588-.572a5.824,5.824,0,0,1-6.419-2.284,6.01,6.01,0,0,1,7.683-8.8,5.938,5.938,0,0,1,2.837,7.4c-.1.284-.417.594-.1.92.647.668,1.311,1.319,2.043,2.051V304.8h-15.1v15.12Zm-2.453-7.558a1.98,1.98,0,1,0-2.025,1.957A2.086,2.086,0,0,0,388.041,312.367Z" transform="translate(377.262 11012.259)" fill="#122654"/>
      <path id="Trazado_206208" data-name="Trazado 206208" d="M417.045,275.779a2,2,0,1,1-1.953-1.993A2,2,0,0,1,417.045,275.779Z" transform="translate(349.678 11019.979)" fill="#122654"/>
      <path id="Trazado_206213" data-name="Trazado 206213" d="M359.35,318.2c-4.7,0-9.4.009-14.1-.006a1.971,1.971,0,0,1-2.05-1.667,1.992,1.992,0,0,1,1.413-2.238,3.587,3.587,0,0,1,.987-.1q13.8-.006,27.6,0c1.565,0,2.449.721,2.464,1.987s-.86,2.023-2.414,2.025q-6.949.01-13.9,0Z" transform="translate(369.703 11008.398)" fill="#122654"/>
      <path id="Trazado_206214" data-name="Trazado 206214" d="M333.546,318.2a1.982,1.982,0,0,1-1.947-1.987,2.013,2.013,0,0,1,2.037-2.011,2.1,2.1,0,0,1,1.984,2A2.069,2.069,0,0,1,333.546,318.2Z" transform="translate(373.021 11008.396)" fill="#122654"/>
    </g>
  </g>
</svg>
