<svg xmlns="http://www.w3.org/2000/svg" width="180.33" height="189.4" viewBox="0 0 180.33 189.4">
  <g id="Grupo_172725" data-name="Grupo 172725" transform="translate(-898.327 -255.394)">
    <path id="Trazado_221922" data-name="Trazado 221922" d="M1140.931,365.923l1.594,3.342c5.4-2.087,7.768-1.2,10.948,4.188a7.83,7.83,0,0,1,4.645-1.225c3.084.272,6.188,2.853,6.2,6,.037,9.39.95,18.822-.713,28.162-.757,4.252-2.716,8.181-3.5,12.447a55.786,55.786,0,0,0-.612,11.13c.169.126.26.251.358.257,3.445.222,3.445.22,3.445,3.782,0,2.989-.011,5.978,0,8.966a1.529,1.529,0,0,1-.964,1.679,1.3,1.3,0,0,1-1.746-.733c-.338-.765-.968-.694-1.6-.694q-18.978,0-37.958-.007c-.741,0-1.335.059-1.7.862a1.236,1.236,0,0,1-1.645.573,1.427,1.427,0,0,1-.965-1.485q.008-5.629.006-11.256a1.494,1.494,0,0,1,1.533-1.6c.686-.068,1.384-.013,2.287-.013a33.8,33.8,0,0,0-2.794-12.4,50.739,50.739,0,0,0-6.639-10.64,13.164,13.164,0,0,1-2.786-8.687c.115-3.176.019-6.358.026-9.538.011-4.136,2.357-6.512,6.458-6.548.821-.007,1.642,0,2.435,0,.419-1.487.489-14.54.077-16.706-1.595,0-3.233,0-4.87,0-.185,0-.486.01-.537.113-1.08,2.16-3.075,1.38-4.73,1.393-8.518.07-17.037.063-25.555.055-5.586-.006-8.4-2.865-8.4-8.481q.008-47.6.022-95.2c0-5.343,2.89-8.267,8.217-8.269q34.429-.015,68.858,0c5.343,0,8.293,2.926,8.294,8.225q.012,47.7-.009,95.392a12.189,12.189,0,0,1-.314,2.828c-.6,2.481-1.548,2.589-4,3.282C1149.874,366.377,1145.446,365.261,1140.931,365.923Zm1.344-98.612c-.316-.023-.632-.066-.948-.066q-27.436-.006-54.872,0c-.425,0-.9-.122-1.331.345v19.893a15.637,15.637,0,0,0,.121,4.179h61.43V267.392A19.611,19.611,0,0,0,1142.275,267.31ZM1123.2,425.641c.152,1.49.3,2.981.447,4.4h32.817a51.676,51.676,0,0,1,1.076-13.6c1.037-4.186,2.944-8.146,3.452-12.459.984-8.359.4-16.758.383-25.138,0-2.513-1.89-3.771-4.6-3.548-2.017.287-2.889,1.628-3.194,3.482-.156.946-.494,1.841-1.612,1.761-1.226-.089-1.395-1.066-1.392-2.108a15.183,15.183,0,0,0-.272-4.362,3.858,3.858,0,0,0-2.989-2.9,3.772,3.772,0,0,0-3.887,1.467,4.164,4.164,0,0,0-.853,2.282c-.1.905-.547,1.6-1.579,1.553-1.16-.055-1.425-.864-1.417-1.861.011-1.208.023-2.417-.005-3.624-.059-2.542-1.584-4.313-3.8-4.443-2.093-.123-3.764,1.387-4.156,3.878-.166,1.057-.457,1.946-1.7,1.833s-1.389-1.1-1.367-2.129c.011-.508,0-1.017,0-1.526,0-6.1.022-12.207-.023-18.311a3.921,3.921,0,0,0-7.719-1.082,8.051,8.051,0,0,0-.257,2.641q0,20.79,0,41.581c0,.572.009,1.146-.028,1.715a1.386,1.386,0,0,1-1.315,1.4,1.425,1.425,0,0,1-1.582-1.332,13.756,13.756,0,0,1-.073-2.091c-.007-2.516,0-5.033,0-7.662-.948,0-1.578,0-2.209,0-3.2.018-4.022.855-4.026,4.1,0,3.052.079,6.106-.025,9.155a9.919,9.919,0,0,0,2.169,6.729C1118.2,411.447,1121.839,418,1123.2,425.641Zm14.715-91.461c0,1.4.079,2.724-.018,4.038-.149,2.015.984,4.354-1.387,5.865-.136.086-.106.478-.106.728-.006,3.988,0,7.976,0,12.023.919.1,1.776.55,2.327-.407.533-.928,1.356-.993,2.278-1.017a35.534,35.534,0,0,0,5.629-.156V334.18Zm-7.506,11.684c-.611-2.694,1.35-5.8-1.375-8.157-.239-.208-.091-.852-.139-1.292-.081-.733.2-1.507-.2-2.192h-8.428c-.455,1.678.7,3.7-1.492,4.68-.128.057-.132.47-.133.718-.01,2.177-.006,4.354-.006,6.757C1122.715,342.244,1126,342.177,1130.409,345.864Zm-17.631,1.565c-3.137,3.275-6.936.75-10.055,1.983v6.008c1.6,0,3.105-.03,4.606.008,1.683.044,3.571-.537,4.674,1.464.1.175.586.127.775-.117Zm33.878-44.139h-8.682a39.544,39.544,0,0,0,.016,6.147h8.666ZM1138,318.6a34.434,34.434,0,0,0,.059,6.1h8.567v-6.1Zm-44.172-15.318h-8.641v6.205h8.641Zm17.37,6.217v-6.164h-8.457V309.5Zm9.015-6.249v6.275h8.591v-6.275Zm-35.157,15.335c.117,2.173-.164,4.184.191,6.17h8.464v-6.17Zm26.2.025h-8.515v6.156h8.515Zm17.512,6.2v-6.237h-8.464v6.237Zm-43.593,30.484h8.548v-6.025h-8.548Zm17.543-15.275h8.569v-6.083h-8.569Zm-8.971-6.061h-8.514v6.073h8.514Z" transform="translate(-85.943 0)" fill="#0f2771"/>
    <path id="Trazado_221923" data-name="Trazado 221923" d="M901.292,441.014c7.229,0,14.152,0,21.076,0,6.4,0,9.121,2.754,9.13,9.2q.012,9.539.041,19.078c0,.558,0,1.117,0,1.6a4.091,4.091,0,0,0,2.223.273q36.528.015,73.056.008c4.466,0,5.832-1.348,5.833-5.778q.006-29.763.023-59.526c0-1.209-.553-3.094,1.491-3.06s1.422,1.919,1.423,3.129q.045,29.762.02,59.526c0,6.028-2.69,8.709-8.723,8.711q-38.149.008-76.3.027a2.749,2.749,0,0,1-2.156-.908q-14.463-14.538-29.006-29a3.163,3.163,0,0,1-1.095-2.462q.043-59.048.03-118.1c0-5.767,2.745-8.5,8.537-8.5q35.765,0,71.529,0a11.423,11.423,0,0,1,1.711.069,1.292,1.292,0,0,1,1.135,1.508,1.239,1.239,0,0,1-1.193,1.261,18.425,18.425,0,0,1-1.9.05q-35.383,0-70.766,0c-4.765,0-6.114,1.35-6.114,6.123q0,57.236,0,114.472Z" transform="translate(0 -29.408)" fill="#0f2771"/>
    <path id="Trazado_221924" data-name="Trazado 221924" d="M973.637,366.046q0-8.765,0-17.53c0-2.314.354-2.674,2.623-2.682,3.052-.011,6.1.009,9.155-.008,1.119-.007,2.187.216,2.18,1.531s-1.074,1.516-2.2,1.506c-2.848-.025-5.7-.009-8.753-.009v7.507c0,4.833.014,9.666-.012,14.5a4.884,4.884,0,0,0,.652,2.523c3.3,5.866,6.553,11.756,9.836,17.63.377.674.839,1.274.309,2.092-.5.773-1.217.755-2,.754q-28.419-.019-56.839-.007c-2.253,0-2.817-.971-1.7-2.979q3.751-6.739,7.5-13.48a4.2,4.2,0,0,0,.691-2.126c-.026-8.521-.016-17.043-.022-25.564a7.953,7.953,0,0,0-.107-.864H927.3c-.509,0-1.017.007-1.526-.008-.939-.028-1.667-.452-1.708-1.425-.045-1.085.691-1.578,1.728-1.582,3.433-.012,6.866,0,10.3-.009,1.656,0,1.963,1.03,1.959,2.406-.017,6.55-.008,13.1-.008,19.65v2.12c.77.045.771-.6.976-.971q8.078-14.466,16.111-28.957c.438-.79.783-1.712,1.822-1.732s1.388.894,1.829,1.692Q966,353.091,973.271,366.13Zm7.988,21.73a.729.729,0,0,0,.1.146c.015.014.069-.012.105-.02l-.23-.089c.3-.731-.292-1.189-.578-1.7q-10.747-19.4-21.543-38.781c-.224-.4-.278-1-.9-1.111-.054.116-.141.216-.141.315-.007,8.833.011,17.665-.032,26.5a2.169,2.169,0,0,0,1.342,2.066c2.363,1.365,4.7,2.785,7.068,4.132C971.768,382.043,976.533,385.194,981.625,387.776Zm-26.07-41.45-.37-.131L932.1,387.684c.26.042.414.121.5.073q11.093-6.488,22.18-12.987a1.584,1.584,0,0,0,.787-1.582Q955.543,359.757,955.555,346.326Zm24.99,44.421c-7.828-4.609-15.172-8.906-22.479-13.267a2.064,2.064,0,0,0-2.43.22q-8.032,4.757-16.081,9.489c-1.882,1.11-3.76,2.226-6.01,3.558Z" transform="translate(-12.649 -40.757)" fill="#0f2771"/>
    <path id="Trazado_221925" data-name="Trazado 221925" d="M923.956,519.318c0-2.414.035-4.83-.013-7.243-.031-1.527.624-2.208,2.156-2.2q7.336.04,14.673,0c1.413-.007,2.152.592,2.153,2.026q0,7.433,0,14.867a1.839,1.839,0,0,1-2.083,2.114q-7.432-.012-14.864,0c-1.429,0-2.06-.7-2.037-2.13C923.983,524.274,923.956,521.8,923.956,519.318Zm3.09,5.036c-.274,1.148.127,1.579,1.348,1.539,2.464-.08,4.933.018,7.4-.04,1.355-.031,2.749.288,4.046-.225V512.982H927.046Z" transform="translate(-12.587 -125.055)" fill="#0f2771"/>
    <path id="Trazado_221926" data-name="Trazado 221926" d="M933.405,481.757c-2.413,0-4.828-.038-7.24.014-1.5.032-2.233-.546-2.223-2.114q.049-7.337,0-14.673c-.013-1.545.665-2.2,2.171-2.191q7.335.027,14.671,0c1.539-.006,2.161.741,2.153,2.234q-.036,7.241,0,14.483c.009,1.6-.65,2.315-2.292,2.267C938.233,481.705,935.819,481.757,933.405,481.757Zm4.643-15.928-10.669,0c-.24-.05-.363.036-.338.292q0,5.529,0,11.058c-.23,1.08.02,1.645,1.311,1.591,2.149-.09,4.306.01,6.458-.035a23.086,23.086,0,0,0,5.018-.185V465.829Z" transform="translate(-12.586 -101.917)" fill="#0f2771"/>
    <path id="Trazado_221927" data-name="Trazado 221927" d="M992.058,520.953q-9.535,0-19.072,0a7.971,7.971,0,0,1-1.7-.119,1.312,1.312,0,0,1-1.081-1.556,1.281,1.281,0,0,1,1.224-1.241c.441-.043.888-.034,1.333-.034q19.358,0,38.716,0a10.975,10.975,0,0,1,1.333.044,1.3,1.3,0,0,1,1.179,1.291,1.267,1.267,0,0,1-.973,1.449,8.356,8.356,0,0,1-1.885.163Q1001.594,520.963,992.058,520.953Z" transform="translate(-35.314 -129.045)" fill="#0f2771"/>
    <path id="Trazado_221928" data-name="Trazado 221928" d="M992.1,470.843q9.728,0,19.456,0c1.12,0,2.392-.033,2.426,1.447.038,1.62-1.3,1.583-2.485,1.583q-19.361-.007-38.721,0c-.318,0-.637.014-.953-.011-.943-.075-1.6-.52-1.584-1.531s.7-1.457,1.642-1.468c2.1-.024,4.2-.012,6.294-.012Q985.136,470.842,992.1,470.843Z" transform="translate(-35.337 -105.872)" fill="#0f2771"/>
    <path id="Trazado_221929" data-name="Trazado 221929" d="M984.021,536.223c-3.878,0-7.755-.011-11.634.007-1.11.006-2.172-.13-2.146-1.515.025-1.367,1.107-1.494,2.2-1.493q11.729.011,23.457,0c1.127,0,2.184.242,2.165,1.551-.02,1.326-1.108,1.469-2.219,1.461C991.9,536.207,987.962,536.223,984.021,536.223Z" transform="translate(-35.339 -136.527)" fill="#0f2771"/>
    <path id="Trazado_221930" data-name="Trazado 221930" d="M984.079,486.322c3.935,0,7.87.011,11.805-.007,1.106-.006,2.21.146,2.188,1.486s-1.148,1.437-2.241,1.436q-11.71-.021-23.42,0c-1.084,0-2.184-.073-2.166-1.484s1.159-1.43,2.219-1.428Q978.271,486.328,984.079,486.322Z" transform="translate(-35.341 -113.477)" fill="#0f2771"/>
    <path id="Trazado_221931" data-name="Trazado 221931" d="M933.745,341.361c-2.6,0-5.193-.013-7.789.008-1.012.009-1.836-.306-1.885-1.4-.05-1.111.766-1.518,1.77-1.519q7.788-.011,15.577.006c.915,0,1.659.356,1.677,1.4.02,1.139-.727,1.507-1.753,1.505Q937.544,341.354,933.745,341.361Z" transform="translate(-12.65 -40.813)" fill="#0f2771"/>
    <path id="Trazado_221932" data-name="Trazado 221932" d="M1021.232,338.438c2.469,0,4.937.008,7.406,0,1.067-.005,2.013.311,1.992,1.505s-.984,1.431-2.048,1.427q-7.5-.032-15,0c-1.053,0-1.979-.194-1.963-1.479s1-1.442,2.018-1.443Q1017.434,338.434,1021.232,338.438Z" transform="translate(-55.672 -40.807)" fill="#0f2771"/>
    <path id="Trazado_221933" data-name="Trazado 221933" d="M1159.99,513.424c-1.361-7.645-5-14.195-9.729-20.217a9.921,9.921,0,0,1-2.169-6.729c.1-3.049.021-6.1.025-9.155,0-3.24.829-4.077,4.026-4.1.631,0,1.261,0,2.209,0,0,2.629,0,5.146,0,7.662a13.74,13.74,0,0,0,.073,2.091,1.426,1.426,0,0,0,1.582,1.333,1.386,1.386,0,0,0,1.315-1.4c.037-.57.028-1.143.028-1.715q0-20.79,0-41.581a8.048,8.048,0,0,1,.257-2.641,3.921,3.921,0,0,1,7.718,1.082c.045,6.1.021,12.207.023,18.311,0,.509.01,1.018,0,1.526-.023,1.024.125,2.015,1.367,2.129s1.529-.776,1.7-1.833c.392-2.491,2.063-4,4.156-3.878,2.211.13,3.737,1.9,3.8,4.443.028,1.207.016,2.416,0,3.624-.009,1,.256,1.806,1.417,1.861,1.032.049,1.479-.647,1.579-1.553a4.162,4.162,0,0,1,.853-2.282,3.772,3.772,0,0,1,3.887-1.467,3.858,3.858,0,0,1,2.989,2.9,15.183,15.183,0,0,1,.272,4.362c0,1.042.166,2.019,1.392,2.108,1.118.08,1.456-.815,1.612-1.761.306-1.855,1.178-3.195,3.195-3.482.016,4.941-.959,9.8-1.222,14.72a65.431,65.431,0,0,1-.878,7.7,32.871,32.871,0,0,1-7.293,15.863C1177.847,508.855,1169.891,513.091,1159.99,513.424Z" transform="translate(-122.733 -87.782)" fill="#f18076"/>
    <path id="Trazado_221934" data-name="Trazado 221934" d="M1096.627,298.923V279.03c.435-.467.906-.345,1.331-.345q27.436-.01,54.872,0c.316,0,.632.043.948.066-.124.811-.22,1.627-.376,2.431a21.44,21.44,0,0,1-20.929,17.69C1120.53,299.144,1108.576,298.927,1096.627,298.923Z" transform="translate(-97.446 -11.438)" fill="#e5f8fb"/>
    <path id="Trazado_221935" data-name="Trazado 221935" d="M1171.492,541.463c9.9-.333,17.857-4.568,24.185-12.066a32.871,32.871,0,0,0,7.293-15.863,65.38,65.38,0,0,0,.878-7.7c.263-4.921,1.237-9.779,1.222-14.72,2.708-.223,4.594,1.035,4.6,3.548.014,8.381.6,16.779-.383,25.138-.508,4.314-2.414,8.273-3.452,12.459a51.681,51.681,0,0,0-1.076,13.6h-32.817C1171.795,544.444,1171.644,542.953,1171.492,541.463Z" transform="translate(-134.235 -115.821)" fill="#da736b"/>
    <path id="Trazado_221936" data-name="Trazado 221936" d="M1096.549,298.918c11.949,0,23.9.222,35.846-.053a21.44,21.44,0,0,0,20.929-17.69c.157-.8.252-1.62.376-2.431a19.61,19.61,0,0,1,4.4.081V303.1h-61.43A15.632,15.632,0,0,1,1096.549,298.918Z" transform="translate(-97.368 -11.434)" fill="#c1eff5"/>
    <path id="Trazado_221937" data-name="Trazado 221937" d="M1198.96,410.3h8.718v21.074a35.533,35.533,0,0,1-5.629.156c-.922.024-1.745.089-2.279,1.017-.55.957-1.408.5-2.327.407,0-4.046,0-8.035,0-12.023,0-.25-.031-.642.106-.728,2.371-1.511,1.238-3.851,1.387-5.865C1199.039,413.029,1198.96,411.7,1198.96,410.3Z" transform="translate(-146.988 -76.125)" fill="#e5e5e5"/>
    <path id="Trazado_221938" data-name="Trazado 221938" d="M1174.293,422.031c-4.406-3.687-7.693-3.62-11.769.514,0-2.4,0-4.579.006-6.757,0-.248.005-.661.133-.718,2.2-.985,1.037-3,1.492-4.68h8.428c.4.685.115,1.459.2,2.191.049.439-.1,1.084.139,1.292C1175.644,416.232,1173.683,419.337,1174.293,422.031Z" transform="translate(-129.828 -76.167)" fill="#e5e5e5"/>
    <path id="Trazado_221939" data-name="Trazado 221939" d="M1141.283,436.356V445.7c-.189.244-.679.292-.775.117-1.1-2-2.992-1.42-4.674-1.464-1.5-.039-3-.008-4.606-.008v-6.007C1134.348,437.106,1138.146,439.631,1141.283,436.356Z" transform="translate(-114.449 -88.926)" fill="#e5e5e5"/>
    <path id="Trazado_221940" data-name="Trazado 221940" d="M1209.114,349.57v6.147h-8.666a39.544,39.544,0,0,1-.016-6.147Z" transform="translate(-148.402 -46.279)" fill="#e0a339"/>
    <path id="Trazado_221941" data-name="Trazado 221941" d="M1200.494,379.673h8.626v6.1h-8.567A34.434,34.434,0,0,1,1200.494,379.673Z" transform="translate(-148.435 -61.072)" fill="#e5e5e5"/>
    <path id="Trazado_221942" data-name="Trazado 221942" d="M1105.395,349.555v6.205h-8.641v-6.205Z" transform="translate(-97.509 -46.272)" fill="#e0a339"/>
    <path id="Trazado_221943" data-name="Trazado 221943" d="M1139.725,355.822h-8.457v-6.164h8.457Z" transform="translate(-114.469 -46.322)" fill="#e0a339"/>
    <path id="Trazado_221944" data-name="Trazado 221944" d="M1165.622,349.491h8.591v6.275h-8.591Z" transform="translate(-131.351 -46.24)" fill="#e0a339"/>
    <path id="Trazado_221945" data-name="Trazado 221945" d="M1096.5,379.642h8.655v6.17h-8.464C1096.333,383.826,1096.614,381.815,1096.5,379.642Z" transform="translate(-97.382 -61.057)" fill="#e5e5e5"/>
    <path id="Trazado_221946" data-name="Trazado 221946" d="M1139.792,379.692v6.156h-8.515v-6.156Z" transform="translate(-114.473 -61.081)" fill="#e5e5e5"/>
    <path id="Trazado_221947" data-name="Trazado 221947" d="M1174.272,385.853h-8.464v-6.237h8.464Z" transform="translate(-131.442 -61.044)" fill="#e5e5e5"/>
    <path id="Trazado_221948" data-name="Trazado 221948" d="M1096.737,446v-6.025h8.548V446Z" transform="translate(-97.5 -90.703)" fill="#e5e5e5"/>
    <path id="Trazado_221949" data-name="Trazado 221949" d="M1131.23,415.908v-6.083h8.569v6.083Z" transform="translate(-114.45 -75.889)" fill="#e5e5e5"/>
    <path id="Trazado_221950" data-name="Trazado 221950" d="M1105.366,409.867v6.073h-8.514v-6.073Z" transform="translate(-97.557 -75.91)" fill="#e5e5e5"/>
    <path id="Trazado_221951" data-name="Trazado 221951" d="M963.318,353.923q0,13.431.009,26.863a1.583,1.583,0,0,1-.787,1.582q-11.1,6.483-22.18,12.987c-.081.047-.235-.031-.5-.073l23.084-41.489Z" transform="translate(-20.412 -48.354)" fill="#feca2e"/>
    <path id="Trazado_221952" data-name="Trazado 221952" d="M1014.8,395.394c-5.093-2.582-9.858-5.733-14.815-8.548-2.373-1.348-4.7-2.768-7.068-4.132a2.169,2.169,0,0,1-1.342-2.066c.043-8.832.025-17.665.032-26.5,0-.1.086-.2.141-.315.626.112.68.708.9,1.111q10.794,19.378,21.543,38.781c.286.516.877.973.578,1.7Z" transform="translate(-45.821 -48.375)" fill="#cba225"/>
    <path id="Trazado_221953" data-name="Trazado 221953" d="M989.7,428.272h-47c2.25-1.333,4.129-2.448,6.01-3.558q8.041-4.743,16.081-9.489a2.064,2.064,0,0,1,2.43-.22C974.53,419.366,981.874,423.663,989.7,428.272Z" transform="translate(-21.806 -78.282)" fill="#cba225"/>
    <path id="Trazado_221954" data-name="Trazado 221954" d="M1037.184,435.586l.23.089c-.036.008-.091.034-.105.02a.74.74,0,0,1-.1-.146Z" transform="translate(-68.235 -88.53)" fill="#e0a339"/>
    <path id="Trazado_221955" data-name="Trazado 221955" d="M930.045,527.355V515.983h11.386Q939.607,525.545,930.045,527.355Z" transform="translate(-15.586 -128.056)" fill="#4dd0e1"/>
    <path id="Trazado_221956" data-name="Trazado 221956" d="M929.966,527.355q9.565-1.807,11.386-11.372h1.406v12.646c-1.3.513-2.692.193-4.046.225-2.465.058-4.934-.04-7.4.04C930.092,528.934,929.692,528.5,929.966,527.355Z" transform="translate(-15.507 -128.056)" fill="#3ea6b4"/>
    <path id="Trazado_221957" data-name="Trazado 221957" d="M930.036,480.109q0-5.529,0-11.058l.338-.292,10.669,0C941.078,474.337,935.914,479.66,930.036,480.109Z" transform="translate(-15.582 -104.849)" fill="#4dd0e1"/>
    <path id="Trazado_221958" data-name="Trazado 221958" d="M929.962,480.112c5.878-.449,11.042-5.772,11.008-11.348h1.779v12.719a23.09,23.09,0,0,1-5.018.185c-2.152.044-4.309-.055-6.458.035C929.982,481.756,929.732,481.191,929.962,480.112Z" transform="translate(-15.508 -104.852)" fill="#3ea6b4"/>
    <path id="Trazado_221959" data-name="Trazado 221959" d="M930.373,468.745l-.338.292C930.009,468.78,930.132,468.694,930.373,468.745Z" transform="translate(-15.58 -104.836)" fill="#da736b"/>
  </g>
</svg>
