<svg xmlns="http://www.w3.org/2000/svg" xmlns:xlink="http://www.w3.org/1999/xlink" width="505" height="402" viewBox="0 0 505 402">
  <defs>
    <clipPath id="clip-path">
      <path id="Trazado_202606" data-name="Trazado 202606" d="M194.109,242.5l-16.134,9.315-9.917,5.721a10.563,10.563,0,0,0-.934.541,13.145,13.145,0,0,0-6.3,11.31l-.009,46.362a13.12,13.12,0,0,1-5.319,10.639,13.43,13.43,0,0,1-8.024,2.7,13.209,13.209,0,0,1-6.631-1.8,39.952,39.952,0,0,1-19.973-34.594V244.591A39.944,39.944,0,0,0,100.894,210l73.241-42.287h0a39.983,39.983,0,0,1,19.982,34.611v20.949C194.117,229.26,194.109,242.5,194.109,242.5Z" transform="translate(-100.894 -167.71)" fill="none"/>
    </clipPath>
  </defs>
  <g id="Grupo_172834" data-name="Grupo 172834" transform="translate(5105 8565)">
    <rect id="Rectángulo_42499" data-name="Rectángulo 42499" width="460" height="2" transform="translate(-5060 -8565)" fill="#4dd0e1" opacity="0.2"/>
    <rect id="Rectángulo_42500" data-name="Rectángulo 42500" width="460" height="2" transform="translate(-5060 -8165)" fill="#4dd0e1" opacity="0.2"/>
    <rect id="Rectángulo_42501" data-name="Rectángulo 42501" width="190" height="402" transform="translate(-4790 -8565)" fill="#4dd0e1"/>
    <rect id="excel-certificacion" width="494" height="384" rx="15" transform="translate(-5105 -8556)" fill="#fff"/>
    <g id="Grupo_146550" data-name="Grupo 146550" transform="translate(-5055.244 -8560.715)">
      <g id="Floor" transform="translate(10.244 162.23)">
        <ellipse id="Floor-2" data-name="Floor" cx="186.658" cy="107.767" rx="186.658" ry="107.767" fill="#f0f0f0"/>
      </g>
      <g id="Shadows" transform="translate(32.702 215.059)">
        <ellipse id="Shadow" cx="33.936" cy="19.593" rx="33.936" ry="19.593" transform="translate(241.787 33.505)" fill="#e0e0e0"/>
        <path id="Shadow-2" data-name="Shadow" d="M115,346.375l151.8,87.643,69.574-40.168L184.543,306.188Z" transform="translate(-55.902 -279.388)" fill="#e0e0e0"/>
        <path id="Shadow-3" data-name="Shadow" d="M71.2,356.036,39.789,337.9a1.028,1.028,0,0,1,0-1.946l110.477-63.784a3.723,3.723,0,0,1,3.371,0l31.415,18.138a1.028,1.028,0,0,1,0,1.947L74.576,356.036A3.722,3.722,0,0,1,71.2,356.036Z" transform="translate(-39.091 -271.765)" fill="#e0e0e0"/>
      </g>
      <g id="Device" transform="translate(56.82 15.715)">
        <g id="Device-2" data-name="Device">
          <g id="Device-3" data-name="Device">
            <g id="Grupo_146435" data-name="Grupo 146435" transform="translate(10.677 6.503)">
              <path id="Trazado_202513" data-name="Trazado 202513" d="M180.416,24.532,87.17,78.36a7.522,7.522,0,0,0-3.387,5.876V294.522c0,2.16,1.52,3.041,3.387,1.956l93.246-53.828a7.521,7.521,0,0,0,3.387-5.876V26.488C183.8,24.327,182.283,23.447,180.416,24.532ZM178.922,217.4c0,1.849-1.3,3.028-2.906,3.953L91.233,270.3c-1.6.925-2.907.178-2.907-1.68V103.892a6.454,6.454,0,0,1,2.907-5.04l84.783-48.94c1.608-.933,2.906-.178,2.906,1.672Z" transform="translate(-83.783 -24.067)" fill="#37474f"/>
            </g>
            <g id="Grupo_146436" data-name="Grupo 146436" transform="translate(0 57.169)">
              <path id="Trazado_202514" data-name="Trazado 202514" d="M83.711,311.1a7.59,7.59,0,0,1-6.364-.21l-3.878-2.241a7.474,7.474,0,0,1-3.4-5.876V92.5a6.407,6.407,0,0,1,.587-2.535,8.147,8.147,0,0,1,.4-.814.008.008,0,0,0,.009-.009l10.67,6.162h.009a9.3,9.3,0,0,0-.588,1.243,6.171,6.171,0,0,0-.411,2.1V308.938C80.747,310.928,82.04,311.835,83.711,311.1Z" transform="translate(-70.069 -89.146)" fill="#263238"/>
            </g>
            <path id="Trazado_202515" data-name="Trazado 202515" d="M147.532,315.455c2.956-1.707,5.353-.323,5.353,3.091a11.835,11.835,0,0,1-5.353,9.272c-2.957,1.707-5.353.323-5.353-3.091A11.833,11.833,0,0,1,147.532,315.455Z" transform="translate(-86.039 -81.935)" fill="#4dd0e1"/>
            <g id="Grupo_146437" data-name="Grupo 146437" transform="translate(50.015 38.106)">
              <path id="Trazado_202516" data-name="Trazado 202516" d="M147.373,64.971c1.255-.725,2.273-.137,2.273,1.313a5.025,5.025,0,0,1-2.273,3.937c-1.256.726-2.273.138-2.273-1.312A5.023,5.023,0,0,1,147.373,64.971Z" transform="translate(-136.701 -64.66)"/>
              <path id="Trazado_202517" data-name="Trazado 202517" d="M136.209,79.859,153.76,69.725c1.047-.6,1.9-.175,1.9.959a4.066,4.066,0,0,1-1.9,3.149L136.208,83.967c-1.047.6-1.9.174-1.9-.959A4.068,4.068,0,0,1,136.209,79.859Z" transform="translate(-134.312 -65.721)"/>
            </g>
            <path id="Trazado_202518" data-name="Trazado 202518" d="M180.215,224.414c0,1.849-1.3,3.028-2.906,3.952L92.525,277.314c-1.6.924-2.907.177-2.907-1.68V110.908a6.455,6.455,0,0,1,2.907-5.041l84.783-48.939c1.608-.933,2.906-.178,2.906,1.672Z" transform="translate(-74.398 -24.753)" fill="#4dd0e1"/>
            <g id="Grupo_146438" data-name="Grupo 146438" transform="translate(0.999)">
              <path id="Trazado_202519" data-name="Trazado 202519" d="M181.017,24.1c-.244-1.763-1.654-2.4-3.349-1.419L84.414,76.51a6.906,6.906,0,0,0-2.392,2.536l-10.67-6.162a6.872,6.872,0,0,1,2.4-2.519l93.236-53.838a7.488,7.488,0,0,1,6.783,0l3.9,2.233A7.607,7.607,0,0,1,181.017,24.1Z" transform="translate(-71.352 -15.715)" fill="#455a64"/>
            </g>
          </g>
          <g id="Grupo_146439" data-name="Grupo 146439" transform="translate(34.327 84.018)">
            <path id="Trazado_202520" data-name="Trazado 202520" d="M120.326,154.735a5.709,5.709,0,0,1,2.66-.87,3.127,3.127,0,0,1,2.079.67,4.538,4.538,0,0,1,1.373,2.084,11.011,11.011,0,0,1,.558,3.334q.023.67.023,1.239v2.163c0,.368-.007.774-.023,1.215a18.724,18.724,0,0,1-.548,3.99,17.47,17.47,0,0,1-1.341,3.634,14.442,14.442,0,0,1-2.038,3.046,10.421,10.421,0,0,1-2.638,2.189l-5.7,3.292a.306.306,0,0,1-.4-.03.692.692,0,0,1-.169-.52v-21a1.656,1.656,0,0,1,.169-.715,1.062,1.062,0,0,1,.4-.491Zm2.765,7.342q-.127-3.666-2.872-2.08l-2.153,1.243v12.351l2.259-1.3q2.659-1.536,2.765-5.334c.013-.464.021-.9.021-1.3v-2.324C123.113,162.942,123.1,162.524,123.092,162.077Z" transform="translate(-114.161 -130.328)" fill="#fff"/>
            <path id="Trazado_202521" data-name="Trazado 202521" d="M140.737,142.688q.423-.243.644-.015a1.24,1.24,0,0,1,.307.539l4.6,17.821a1.623,1.623,0,0,1,.085.44,1.356,1.356,0,0,1-.137.582.863.863,0,0,1-.327.4l-2.66,1.536q-.423.244-.6.072a.737.737,0,0,1-.221-.409l-.591-2.357-5.616,3.243-.592,3.039a2.412,2.412,0,0,1-.222.665,1.426,1.426,0,0,1-.6.624l-2.659,1.535a.25.25,0,0,1-.328-.022.569.569,0,0,1-.136-.425,2.817,2.817,0,0,1,.084-.536l4.6-23.136a4.22,4.22,0,0,1,.306-.892,1.562,1.562,0,0,1,.644-.73Zm-3.42,16.18,3.42-1.974-1.71-6.815Z" transform="translate(-118.041 -127.826)" fill="#fff"/>
            <path id="Trazado_202522" data-name="Trazado 202522" d="M161.4,130.306a.307.307,0,0,1,.4.029.7.7,0,0,1,.169.519V134.3a1.668,1.668,0,0,1-.169.715,1.075,1.075,0,0,1-.4.492l-3.716,2.146v16.675a1.668,1.668,0,0,1-.169.715,1.087,1.087,0,0,1-.4.492l-2.766,1.6a.3.3,0,0,1-.4-.029.691.691,0,0,1-.168-.52V139.908l-3.717,2.146a.307.307,0,0,1-.4-.029.69.69,0,0,1-.169-.52v-3.446a1.65,1.65,0,0,1,.169-.715,1.071,1.071,0,0,1,.4-.491Z" transform="translate(-121.987 -125.098)" fill="#fff"/>
            <path id="Trazado_202523" data-name="Trazado 202523" d="M173.524,123.758c.282-.162.5-.167.645-.015a1.251,1.251,0,0,1,.306.539l4.6,17.821a1.587,1.587,0,0,1,.085.439,1.345,1.345,0,0,1-.137.582.869.869,0,0,1-.327.4l-2.66,1.535q-.423.244-.6.072a.734.734,0,0,1-.222-.408l-.591-2.357-5.616,3.243-.592,3.039a2.416,2.416,0,0,1-.222.664,1.424,1.424,0,0,1-.6.624l-2.66,1.536a.25.25,0,0,1-.328-.023.568.568,0,0,1-.136-.424,2.812,2.812,0,0,1,.084-.536l4.6-23.136a4.216,4.216,0,0,1,.306-.891,1.568,1.568,0,0,1,.644-.73Zm-3.42,16.18,3.42-1.974-1.71-6.815Z" transform="translate(-125.302 -123.633)" fill="#fff"/>
          </g>
        </g>
      </g>
      <g id="Character" transform="translate(269.133 65.644)">
        <g id="Character-2" data-name="Character">
          <g id="Grupo_146441" data-name="Grupo 146441" transform="translate(10.784 37.062)">
            <g id="Grupo_146440" data-name="Grupo 146440">
              <path id="Trazado_202524" data-name="Trazado 202524" d="M380.581,127.452c-4.945.232-6.64,1.175-9.229,4.224-2.526,2.976-14.724,25.578-14.724,25.578s2.289,6.415,7.3,5.869l9.364-15.1Z" transform="translate(-356.629 -127.452)" fill="#ffa8a7"/>
            </g>
          </g>
          <path id="Trazado_202525" data-name="Trazado 202525" d="M383.2,127.432a15.526,15.526,0,0,0-6.084.453c-2.533.916-3.8,2.75-5.544,5.414-1.351,2.061-6.079,10.619-6.079,10.619s2.3,6.406,8.854,6.406Z" transform="translate(-347.808 -90.359)" fill="#e0e0e0"/>
          <g id="Character-3" data-name="Character" transform="translate(14.028)">
            <g id="Grupo_146442" data-name="Grupo 146442" transform="translate(0 79.485)">
              <path id="Trazado_202526" data-name="Trazado 202526" d="M406.624,333.6v-1.072c-.422,1.257-2.382,6.668-5.356,9.38-2.364,2.157-5.588,4.646-6.408,7.05-.852,2.5,4.487,3.339,6.7,2.948a13.621,13.621,0,0,0,7.692-4.13c1.271-1.56,2.079-3.411,2.986-4.639s3-2.6,3.489-4.018a9.063,9.063,0,0,0-.429-3.934c-.347-1.324-.724-2.781-1.176-2.657,0,.162,0,.817,0,.817a5.929,5.929,0,0,1-3.746,1.266C409.275,334.654,406.615,334.437,406.624,333.6Z" transform="translate(-368.319 -215.291)" fill="#263238"/>
              <path id="Trazado_202527" data-name="Trazado 202527" d="M400.137,342.06c.733-.654,1.471-1.293,2.139-1.9,2.077-1.895,3.661-5.108,4.57-7.3a10.28,10.28,0,0,0,.786-3.943v-4.271h7.493v6.952h0v.186l-.038.019c-.36,1.557-3.8,5.7-5.753,8.4-1.309,1.811-3.8,4.114-6.771,4.511C399.746,345.086,398.306,344.2,400.137,342.06Z" transform="translate(-369.327 -213.546)" fill="#ffa8a7"/>
              <path id="Trazado_202528" data-name="Trazado 202528" d="M372.651,324.113v-1.072c-.423,1.257-2.383,6.668-5.356,9.381-2.363,2.156-5.588,4.646-6.407,7.049-.853,2.5,4.487,3.339,6.695,2.948a13.623,13.623,0,0,0,7.693-4.13c1.27-1.56,2.079-3.411,2.986-4.638s3-2.6,3.489-4.019a9.059,9.059,0,0,0-.429-3.933c-.348-1.325-.724-2.782-1.176-2.658,0,.162,0,.817,0,.817a5.921,5.921,0,0,1-3.746,1.267C375.3,325.166,372.641,324.949,372.651,324.113Z" transform="translate(-360.796 -213.19)" fill="#263238"/>
              <path id="Trazado_202529" data-name="Trazado 202529" d="M366.163,332.572c.733-.654,1.471-1.293,2.14-1.9,2.077-1.895,3.66-5.108,4.57-7.3a10.276,10.276,0,0,0,.786-3.943v-4.271h7.493v6.952h0v.187l-.037.019c-.361,1.557-3.8,5.7-5.753,8.4-1.309,1.811-3.8,4.115-6.772,4.511C365.772,335.6,364.332,334.709,366.163,332.572Z" transform="translate(-361.803 -211.445)" fill="#ffa8a7"/>
              <path id="Trazado_202530" data-name="Trazado 202530" d="M407.58,183.8c5.809,12.688-.209,57.383-.209,57.383.175,2.059,2.529,6.111,3.406,15.172,1.036,10.707-1.626,37.593-1.626,37.593a8.108,8.108,0,0,1-7.573.3s-7.141-40.492-8.484-51.137c-1.172-9.291-3.422-29.72-3.422-29.72l-3.615,29.67a55.211,55.211,0,0,1,2.025,9.17c.607,6.262-5.461,35.417-5.461,35.417s-2.586.949-7.493.226c0,0-2.146-38.69-2.712-46.234-.95-12.668-.364-52.2,1.96-59.7Z" transform="translate(-363.273 -181.943)" fill="#455a64"/>
              <path id="Trazado_202531" data-name="Trazado 202531" d="M390.868,217.547l-1.886-11.785s-7.978-1.653-11.6-5.054a20.639,20.639,0,0,0,9.435,6.269l2.118,9.073L387.5,245.239Z" transform="translate(-364.469 -186.099)" fill="#37474f"/>
            </g>
            <path id="Trazado_202532" data-name="Trazado 202532" d="M397.754,127.652h0c2.209.153,2.947.1,4.549.263,3.2.329,3.974,5.013,5.284,7.78a12.749,12.749,0,0,1,.353,9.6l-5.19,15.014s2.431,5.873,5.251,11.423c-13.024,7.269-29.287,3.448-33.2-1.857-.166-1.125.841-9.922,1.461-15.668-2.294-5.754-2.9-9.4-1.932-13.206,1.8-7.06,8.233-13.557,10.076-13.55Z" transform="translate(-363.694 -90.39)" fill="#f0f0f0"/>
            <g id="Grupo_146450" data-name="Grupo 146450" transform="translate(10.009)">
              <path id="Trazado_202533" data-name="Trazado 202533" d="M408.836,88.61l-2.7-.234a2.08,2.08,0,0,0,.8-.806,2.3,2.3,0,0,0-.864-3.062l-1.738,3.156a15.705,15.705,0,0,0-14.413-7.795l-1.39.074a15.719,15.719,0,0,0-14.861,16.533c.476,8.956,1,18.974,1,18.974l16.175-.861a16.634,16.634,0,0,0,15.726-17.5l-.12-2.364a15.688,15.688,0,0,0-.856-4.32,2.1,2.1,0,0,0,.783.229A2.3,2.3,0,0,0,408.836,88.61Z" transform="translate(-373.652 -79.847)" fill="#455a64"/>
              <g id="Grupo_146443" data-name="Grupo 146443" transform="translate(2.87 10.387)">
                <path id="Trazado_202534" data-name="Trazado 202534" d="M377.393,100.483a31.705,31.705,0,0,0,.133,5.151c.617,8.059,3.338,9.913,4.682,10.418s3.858.02,6.3-.521V120.3s-2.934,4.211-2.6,6.421,5.06,2.484,8.129.145a14.272,14.272,0,0,0,4.314-6.317l0-11.139a3.1,3.1,0,0,0,4.4.181c2.623-1.95,2.488-6.425.822-7.946s-5.11-.876-5.626,1.376c0,0-5.678-.476-6.4-9.828C386.269,100.068,377.728,95.106,377.393,100.483Z" transform="translate(-377.338 -93.188)" fill="#ffa8a7"/>
              </g>
              <path id="Trazado_202535" data-name="Trazado 202535" d="M402.943,104.146l.213,3.993h0a2.721,2.721,0,0,1-2.862-2.573l-.237-4.456Z" transform="translate(-379.5 -84.556)" fill="#455a64"/>
              <g id="Grupo_146444" data-name="Grupo 146444" transform="translate(13.023 19.015)">
                <path id="Trazado_202536" data-name="Trazado 202536" d="M390.379,105.333a1.017,1.017,0,1,0,1.013-1.062A1.033,1.033,0,0,0,390.379,105.333Z" transform="translate(-390.379 -104.271)" fill="#263238"/>
              </g>
              <g id="Grupo_146445" data-name="Grupo 146445" transform="translate(10.238 27.228)">
                <path id="Trazado_202537" data-name="Trazado 202537" d="M389.519,114.82l-2.717,1.028a1.426,1.426,0,0,0,1.85.9A1.521,1.521,0,0,0,389.519,114.82Z" transform="translate(-386.802 -114.82)" fill="#f28f8f"/>
              </g>
              <g id="Grupo_146446" data-name="Grupo 146446" transform="translate(14.134 14.658)">
                <path id="Trazado_202538" data-name="Trazado 202538" d="M391.806,99.537l2.38.768a1.2,1.2,0,0,0-.758-1.57A1.313,1.313,0,0,0,391.806,99.537Z" transform="translate(-391.806 -98.674)" fill="#455a64"/>
              </g>
              <g id="Grupo_146447" data-name="Grupo 146447" transform="translate(4.301 19.455)">
                <path id="Trazado_202539" data-name="Trazado 202539" d="M379.176,105.9a1.017,1.017,0,1,0,1.013-1.061A1.032,1.032,0,0,0,379.176,105.9Z" transform="translate(-379.176 -104.836)" fill="#263238"/>
              </g>
              <g id="Grupo_146448" data-name="Grupo 146448" transform="translate(7.124 19.655)">
                <path id="Trazado_202540" data-name="Trazado 202540" d="M385.907,105.093l.164,6.117-3.268-.825Z" transform="translate(-382.803 -105.093)" fill="#f28f8f"/>
              </g>
              <g id="Grupo_146449" data-name="Grupo 146449" transform="translate(14.039 28.277)">
                <path id="Trazado_202541" data-name="Trazado 202541" d="M391.684,120.62c2.578-.479,7.834-2.3,8.554-4.452a5.47,5.47,0,0,1-1.728,2.793c-1.522,1.452-6.825,3.274-6.825,3.274Z" transform="translate(-391.684 -116.168)" fill="#f28f8f"/>
              </g>
            </g>
            <path id="Trazado_202542" data-name="Trazado 202542" d="M396.212,175.717c4.278-1.013,5.091-2.624,3.961-6.873a3.218,3.218,0,0,0-.133-.41c-.838-2.014-4.18-.817-4.18-.817s1.368-1.7,2.9-3.878,2.222-5.767,2.427-8.288.617-7.571.617-7.571a4.782,4.782,0,0,0,2.03-5.635l5.138-3.158.967.673a13.059,13.059,0,0,1-.214,8.111l-5.19,15.014a84.974,84.974,0,0,1,5.251,11.423,33.668,33.668,0,0,1-27.829,1.844A37.97,37.97,0,0,0,396.212,175.717Z" transform="translate(-365.483 -92.967)" fill="#e6e6e6"/>
            <path id="Trazado_202543" data-name="Trazado 202543" d="M398.442,103.416l-5.883.314a3.288,3.288,0,0,0-3.347-2.435l-.507.027a3.287,3.287,0,0,0-2.922,2.192,2.822,2.822,0,0,0-1.958-.731,2.413,2.413,0,0,0-1.665.595,3.273,3.273,0,0,0-2.948-1.55l-.506.026a3.284,3.284,0,0,0,.349,6.559l.507-.026a3.288,3.288,0,0,0,3.1-3.454,3.245,3.245,0,0,0-.241-1.031,1.814,1.814,0,0,1,1.4-.565,2.168,2.168,0,0,1,1.78.79l.026-.018a3.324,3.324,0,0,0-.033.667,3.287,3.287,0,0,0,3.454,3.1l.507-.026a3.289,3.289,0,0,0,3.106-3.454c0-.041-.015-.079-.019-.12l5.261-.28A2.832,2.832,0,0,1,398.442,103.416Zm-18.911,4.417-.507.027a2.73,2.73,0,0,1-.29-5.453l.506-.027a2.73,2.73,0,1,1,.29,5.453Zm10-.533-.506.027a2.73,2.73,0,0,1-.29-5.453l.506-.027a2.73,2.73,0,1,1,.29,5.453Z" transform="translate(-364.073 -84.596)" fill="#263238"/>
          </g>
          <g id="Grupo_146458" data-name="Grupo 146458" transform="translate(0 61.692)">
            <g id="Grupo_146451" data-name="Grupo 146451" transform="translate(0 0.395)">
              <path id="Trazado_202544" data-name="Trazado 202544" d="M342.777,159.6l26.3,6.928,7.24,29.76-25.007-7.263Z" transform="translate(-342.777 -159.596)" fill="#4dd0e1"/>
              <path id="Trazado_202545" data-name="Trazado 202545" d="M342.777,159.6l26.3,6.928,7.24,29.76-25.007-7.263Z" transform="translate(-342.777 -159.596)" opacity="0.25"/>
              <path id="Trazado_202546" data-name="Trazado 202546" d="M365.542,191.168c.167,1.611,1.3,3.475,4.582,5.044s9.687.693,9.687.693l-.891-3.663Z" transform="translate(-347.819 -166.588)" opacity="0.2"/>
            </g>
            <g id="Grupo_146452" data-name="Grupo 146452" transform="translate(6.775 21.47)" opacity="0.2">
              <path id="Trazado_202547" data-name="Trazado 202547" d="M356.59,186.666a5.338,5.338,0,0,1-4.843,3.2l-.266-.918Z" transform="translate(-351.48 -186.666)"/>
            </g>
            <g id="Grupo_146453" data-name="Grupo 146453" transform="translate(7.7 3.687)" opacity="0.1">
              <path id="Trazado_202548" data-name="Trazado 202548" d="M352.891,165.26l-.217-1c-.12-.554,1.424-.578,3.448-.053L360,165.208c2.023.525,3.761,1.4,3.881,1.953l.217,1Z" transform="translate(-352.668 -163.825)"/>
            </g>
            <g id="Grupo_146454" data-name="Grupo 146454" transform="translate(5.897)">
              <path id="Trazado_202549" data-name="Trazado 202549" d="M350.358,160.44c-.076-.346.549-.437,1.4-.2l1.535.424s-.458-2.17,2.948-1.411a5.336,5.336,0,0,1,4.15,3.222l1.638.465c.905.257,1.725.745,1.833,1.09l.194.624-13.55-3.568S350.435,160.786,350.358,160.44Z" transform="translate(-350.352 -159.088)" fill="#37474f"/>
            </g>
            <g id="Grupo_146455" data-name="Grupo 146455" transform="translate(7.375 2.006)">
              <path id="Trazado_202550" data-name="Trazado 202550" d="M352.645,162.081c1.242.3,1.757.464,1.942,1.318.212.975.3,1.692.3,1.692l6,1.584s-.29-1.235-.382-1.717.111-.772,1.066-.519l.081-.382-9.4-2.392Z" transform="translate(-352.25 -161.665)" fill="#37474f"/>
            </g>
            <g id="Grupo_146456" data-name="Grupo 146456" transform="translate(7.339 3.782)">
              <path id="Trazado_202551" data-name="Trazado 202551" d="M352.428,165.381l-.217-1c-.12-.554,1.424-.578,3.448-.053l3.876,1.005c2.023.525,3.761,1.4,3.881,1.954l.217,1Z" transform="translate(-352.205 -163.946)" fill="#37474f"/>
            </g>
            <g id="Grupo_146457" data-name="Grupo 146457" transform="translate(0.819 9.362)">
              <path id="Trazado_202552" data-name="Trazado 202552" d="M345.782,171.7s.984,3.365,1.209,4.167,3.173,2.244,5.106,2.775,4.048,1.161,3.133,3.865c-.843,2.492-4.025,3.061-5.644,2.991s-3.838-1.619-4.712-4.115c-1.114-3.183-.514-6.583-.956-8.442S344.813,170.592,345.782,171.7Z" transform="translate(-343.83 -171.114)" fill="#ffa8a7"/>
            </g>
          </g>
          <g id="Grupo_146459" data-name="Grupo 146459" transform="translate(17.149 37.355)">
            <path id="Trazado_202553" data-name="Trazado 202553" d="M399.7,127.976c3.411.216,6.937,2.064,7.472,6.161s3.852,25.661,2.55,28.088c-3.011,5.613-22.864,16.289-24.837,17.2a22.244,22.244,0,0,1-9.16,2.456c-3.1.035-7.216-.067-9.3-2.866-1.848-2.484-2.893-7.068,1.283-6.28a45.241,45.241,0,0,0,9.57.42l-.486-2a9.517,9.517,0,0,1,3.187.52c2.083.619,3.977-1.171,7.655-3.443a127.475,127.475,0,0,0,11.964-9.128L396.653,141.1S396.555,133.318,399.7,127.976Z" transform="translate(-364.805 -127.861)" fill="#ffa8a7"/>
            <path id="Trazado_202554" data-name="Trazado 202554" d="M407.835,127.943a7.256,7.256,0,0,1,3.83.344c2,.764,3.784,1.779,4.616,5.816s2.479,18.8,2.479,18.8-4.368,3.159-11.481,1.658l-2.556-13.392S402.733,131.791,407.835,127.943Z" transform="translate(-373.561 -127.828)" fill="#e0e0e0"/>
          </g>
        </g>
      </g>
      <g id="Analysis" transform="translate(74.159 124.438)">
        <g id="Analysis-2" data-name="Analysis">
          <g id="Grupo_146462" data-name="Grupo 146462">
            <g id="Grupo_146460" data-name="Grupo 146460">
              <path id="Trazado_202555" data-name="Trazado 202555" d="M96.616,205.887l83.229-48.052v11.532L96.616,217.42Z" transform="translate(-93.287 -155.912)" fill="#455a64"/>
              <path id="Trazado_202556" data-name="Trazado 202556" d="M100.894,209.45v3.843l76.571-44.208v-3.844Z" transform="translate(-94.235 -157.552)" fill="#263238"/>
              <path id="Trazado_202557" data-name="Trazado 202557" d="M95.669,205.34l-3.329-1.922,83.23-48.052,3.328,1.923Z" transform="translate(-92.34 -155.365)" fill="#37474f"/>
              <path id="Trazado_202558" data-name="Trazado 202558" d="M92.34,217.087l3.329,1.922v11.533l-3.328-1.923Z" transform="translate(-92.34 -169.034)" fill="#263238"/>
            </g>
            <g id="Grupo_146461" data-name="Grupo 146461" transform="translate(6.659 9.611)">
              <path id="Trazado_202559" data-name="Trazado 202559" d="M383.671,411.623l-73.25,42.262v-1.877l73.241-42.262Z" transform="translate(-147.297 -221.313)" fill="#37474f"/>
              <path id="Trazado_202560" data-name="Trazado 202560" d="M194.109,242.5l-16.134,9.315-9.917,5.721a10.563,10.563,0,0,0-.934.541,13.145,13.145,0,0,0-6.3,11.31l-.009,46.362a13.12,13.12,0,0,1-5.319,10.639,13.43,13.43,0,0,1-8.024,2.7,13.209,13.209,0,0,1-6.631-1.8,39.952,39.952,0,0,1-19.973-34.594V244.591A39.944,39.944,0,0,0,100.894,210l73.241-42.287h0a39.983,39.983,0,0,1,19.982,34.611v20.949C194.117,229.26,194.109,242.5,194.109,242.5Z" transform="translate(-100.894 -167.71)" fill="#f5f5f5"/>
              <path id="Trazado_202561" data-name="Trazado 202561" d="M220.745,385.445a39.93,39.93,0,0,1-19.973-34.586l0-46.391a39.831,39.831,0,0,0-3.139-15.515,41,41,0,0,0-2.213-4.459A39.952,39.952,0,0,0,180.8,269.881h0a13.314,13.314,0,0,0-19.966,11.54l0,4.725-.01-4.733-.009,46.362,0-9.646v9.629a13.326,13.326,0,0,1-19.975,11.549,39.951,39.951,0,0,1-19.973-34.594V256.62a39.948,39.948,0,0,0-19.973-34.594v1.918a38.4,38.4,0,0,1,18.334,32.677v48.092a41.7,41.7,0,0,0,20.793,36.012,14.8,14.8,0,0,0,14.957,0c.286-.164.565-.336.844-.524l.025-.016a14.79,14.79,0,0,0,6.606-12.409l.008-46.362A11.675,11.675,0,0,1,179.975,271.3a38.385,38.385,0,0,1,19.154,33.169v10.764l0,35.627a41.71,41.71,0,0,0,20.793,36.012l44.092,25.443v-1.877Z" transform="translate(-100.894 -179.739)" fill="#455a64"/>
              <path id="Trazado_202562" data-name="Trazado 202562" d="M356.365,369.249l-73.242,42.262L239.851,386.52a39.93,39.93,0,0,1-19.973-34.586l0-46.391a39.845,39.845,0,0,0-3.139-15.515,41.009,41.009,0,0,0-2.213-4.459A39.952,39.952,0,0,0,199.9,270.957a13.161,13.161,0,0,0-12.737-.319l9.917-5.721,19.952-11.52,42.709-24.653.106-.065a13.176,13.176,0,0,1,13.294.008,39.946,39.946,0,0,1,19.973,34.6l0,46.382a39.952,39.952,0,0,0,19.973,34.594Z" transform="translate(-120 -180.815)" fill="#fafafa"/>
              <path id="Trazado_202563" data-name="Trazado 202563" d="M214.514,318.033a38.385,38.385,0,0,0-19.154-33.169,11.675,11.675,0,0,0-17.515,10.114l-.008,46.362a14.79,14.79,0,0,1-6.606,12.409l-.025.016c-.279.188-.557.36-.844.524L214.515,328.8Z" transform="translate(-116.279 -193.304)" fill="#e0e0e0"/>
              <path id="Trazado_202564" data-name="Trazado 202564" d="M214.514,318.033a38.385,38.385,0,0,0-19.154-33.169,11.675,11.675,0,0,0-17.515,10.114l-.008,46.362a14.79,14.79,0,0,1-6.606,12.409l-.025.016c-.279.188-.557.36-.844.524L214.515,328.8Z" transform="translate(-116.279 -193.304)" opacity="0.15"/>
            </g>
          </g>
          <g id="Grupo_146502" data-name="Grupo 146502" transform="translate(6.659 9.611)">
            <g id="Grupo_146501" data-name="Grupo 146501" clip-path="url(#clip-path)">
              <g id="Grupo_146500" data-name="Grupo 146500" transform="translate(12 7.212)">
                <path id="Trazado_202565" data-name="Trazado 202565" d="M117.316,212.279a5.7,5.7,0,0,0,6.219.469L175.8,182.573c1.96-1.132,2.423-3.249.889-4.571s-4.472-1.345-6.432-.213l-52.289,30.19C116.006,209.111,115.774,210.962,117.316,212.279Z" transform="translate(-116.307 -176.974)" fill="#4dd0e1"/>
                <g id="Grupo_146463" data-name="Grupo 146463" transform="translate(42.564 8.622)">
                  <path id="Trazado_202566" data-name="Trazado 202566" d="M171.561,203.318a.581.581,0,0,1-.292-1.084l24.437-14.109a.58.58,0,1,1,.581,1.005L171.851,203.24A.584.584,0,0,1,171.561,203.318Z" transform="translate(-170.979 -188.048)" opacity="0.4"/>
                </g>
                <g id="Grupo_146464" data-name="Grupo 146464" transform="translate(44.45 11.768)">
                  <path id="Trazado_202567" data-name="Trazado 202567" d="M173.984,207.359a.581.581,0,0,1-.291-1.084l24.436-14.109a.58.58,0,1,1,.581,1.005l-24.436,14.109A.577.577,0,0,1,173.984,207.359Z" transform="translate(-173.402 -192.09)" opacity="0.4"/>
                </g>
                <g id="Grupo_146465" data-name="Grupo 146465" transform="translate(46.035 15.045)">
                  <path id="Trazado_202568" data-name="Trazado 202568" d="M176.019,211.568a.581.581,0,0,1-.291-1.084l24.437-14.109a.58.58,0,0,1,.581,1.005L176.309,211.49A.579.579,0,0,1,176.019,211.568Z" transform="translate(-175.437 -196.298)" opacity="0.4"/>
                </g>
                <g id="Grupo_146466" data-name="Grupo 146466" transform="translate(47.308 18.453)">
                  <path id="Trazado_202569" data-name="Trazado 202569" d="M177.654,215.945a.581.581,0,0,1-.291-1.084L201.8,200.753a.581.581,0,1,1,.581,1.006l-24.435,14.108A.577.577,0,0,1,177.654,215.945Z" transform="translate(-177.072 -200.676)" opacity="0.4"/>
                </g>
                <g id="Grupo_146467" data-name="Grupo 146467" transform="translate(48.238 21.793)">
                  <path id="Trazado_202570" data-name="Trazado 202570" d="M178.848,220.235a.581.581,0,0,1-.292-1.084l24.436-14.109a.581.581,0,0,1,.581,1.006l-24.435,14.108A.577.577,0,0,1,178.848,220.235Z" transform="translate(-178.266 -204.965)" opacity="0.4"/>
                </g>
                <g id="Grupo_146468" data-name="Grupo 146468" transform="translate(48.866 25.382)">
                  <path id="Trazado_202571" data-name="Trazado 202571" d="M179.655,224.846a.581.581,0,0,1-.292-1.084L203.8,209.653a.581.581,0,0,1,.581,1.006l-24.435,14.109A.579.579,0,0,1,179.655,224.846Z" transform="translate(-179.073 -209.576)" opacity="0.4"/>
                </g>
                <g id="Grupo_146469" data-name="Grupo 146469" transform="translate(49.208 29.213)">
                  <path id="Trazado_202572" data-name="Trazado 202572" d="M180.094,229.766a.581.581,0,0,1-.292-1.084l24.437-14.109a.581.581,0,1,1,.581,1.006l-24.436,14.108A.577.577,0,0,1,180.094,229.766Z" transform="translate(-179.512 -214.496)" opacity="0.4"/>
                </g>
                <g id="Grupo_146470" data-name="Grupo 146470" transform="translate(14.539 36.745)">
                  <path id="Trazado_202573" data-name="Trazado 202573" d="M135.392,259.224a.41.41,0,0,1-.206-.765l59.292-34.232a.41.41,0,0,1,.41.709L135.6,259.169A.409.409,0,0,1,135.392,259.224Z" transform="translate(-134.982 -224.172)" opacity="0.4"/>
                  <path id="Trazado_202574" data-name="Trazado 202574" d="M135.392,263.925a.409.409,0,0,1-.206-.764l59.292-34.234a.41.41,0,1,1,.41.709L135.6,263.869A.4.4,0,0,1,135.392,263.925Z" transform="translate(-134.982 -225.212)" opacity="0.4"/>
                  <path id="Trazado_202575" data-name="Trazado 202575" d="M135.392,268.626a.41.41,0,0,1-.206-.765l59.292-34.233a.41.41,0,1,1,.41.709L135.6,268.57A.409.409,0,0,1,135.392,268.626Z" transform="translate(-134.982 -226.254)" opacity="0.4"/>
                  <path id="Trazado_202576" data-name="Trazado 202576" d="M135.392,273.327a.41.41,0,0,1-.206-.765l59.292-34.232a.409.409,0,1,1,.41.708L135.6,273.271A.409.409,0,0,1,135.392,273.327Z" transform="translate(-134.982 -227.295)" opacity="0.4"/>
                </g>
                <g id="Grupo_146475" data-name="Grupo 146475" transform="translate(5.898 34.111)">
                  <g id="Grupo_146472" data-name="Grupo 146472" transform="translate(8.641 13.422)">
                    <g id="Grupo_146471" data-name="Grupo 146471">
                      <path id="Trazado_202577" data-name="Trazado 202577" d="M135.392,256.972a.41.41,0,0,1-.206-.764l31.39-18.124a.41.41,0,0,1,.41.709L135.6,256.917A.409.409,0,0,1,135.392,256.972Z" transform="translate(-134.982 -238.028)" opacity="0.4"/>
                    </g>
                  </g>
                  <g id="Grupo_146473" data-name="Grupo 146473" transform="translate(8.052 8.799)">
                    <path id="Trazado_202578" data-name="Trazado 202578" d="M134.34,234.643a38.635,38.635,0,0,1,2.907,7.418,38.244,38.244,0,0,1,1.359,8.119.592.592,0,0,0,.962.509l1.745-1.007a1.786,1.786,0,0,0,.82-1.534,41.639,41.639,0,0,0-1.469-8.356,45.012,45.012,0,0,0-2.809-7.178.989.989,0,0,0-1.379-.386l-1.717.991A1.093,1.093,0,0,0,134.34,234.643Z" transform="translate(-134.226 -232.09)" fill="#4dd0e1"/>
                  </g>
                  <g id="Grupo_146474" data-name="Grupo 146474" transform="translate(13.181 1.657)">
                    <path id="Trazado_202579" data-name="Trazado 202579" d="M140.976,225.365a41.254,41.254,0,0,1,4.2,8.955,38.689,38.689,0,0,1,1.875,9.8.585.585,0,0,0,.951.511l1.745-1.007a1.8,1.8,0,0,0,.828-1.536,41.913,41.913,0,0,0-1.908-9.782,40.2,40.2,0,0,0-4.172-8.895,1.11,1.11,0,0,0-1.455-.36l-1.737.965A.932.932,0,0,0,140.976,225.365Z" transform="translate(-140.814 -222.915)" fill="#4dd0e1"/>
                  </g>
                  <path id="Trazado_202580" data-name="Trazado 202580" d="M155.377,232.391" transform="translate(-130.858 -223.357)" fill="#4dd0e1"/>
                  <path id="Trazado_202581" data-name="Trazado 202581" d="M158.055,230.425l-1.715.99a1.33,1.33,0,0,0-.571,1.486,39.97,39.97,0,0,1,1.558,8.826.585.585,0,0,0,.951.51l1.745-1.007a1.8,1.8,0,0,0,.828-1.536,41.677,41.677,0,0,0-1.608-8.8A.778.778,0,0,0,158.055,230.425Z" transform="translate(-130.933 -222.894)" fill="#4dd0e1"/>
                  <path id="Trazado_202582" data-name="Trazado 202582" d="M166.663,221.355a.877.877,0,0,0-1.281-.44l-1.728.983a1.2,1.2,0,0,0-.5,1.454q.469,1.175.9,2.441a38.688,38.688,0,0,1,1.875,9.8.585.585,0,0,0,.951.511l1.745-1.007a1.8,1.8,0,0,0,.827-1.536,41.875,41.875,0,0,0-1.908-9.781Q167.134,222.535,166.663,221.355Z" transform="translate(-132.562 -220.788)" fill="#4dd0e1"/>
                  <path id="Trazado_202583" data-name="Trazado 202583" d="M134.139,247.878a.288.288,0,0,0-.4-.106l-.73.421c-.16-1.007-.348-2-.577-2.986l.987-.57a.29.29,0,0,0-.29-.5l-.846.488c-.246-.988-.52-1.965-.837-2.923l.94-.542a.29.29,0,0,0-.29-.5l-.845.488c-.324-.933-.672-1.856-1.063-2.758l-.033-.075.932-.538a.29.29,0,1,0-.29-.5l-.88.508q-.608-1.37-1.347-2.722l.93-.537a.29.29,0,1,0-.29-.5l-.921.532c-.492-.87-1.027-1.732-1.6-2.587l1.046-.6a.29.29,0,1,0-.29-.5l-1.081.624c-.616-.9-1.269-1.782-1.968-2.656a.29.29,0,1,0-.453.363q1.021,1.276,1.918,2.584l-1,.575a.29.29,0,0,0,.145.542.3.3,0,0,0,.145-.039l1.032-.6q.858,1.281,1.6,2.586l-1.158.669a.29.29,0,1,0,.29.5l1.149-.663q.738,1.352,1.345,2.723l-1.2.692a.29.29,0,1,0,.29.5l1.145-.661,0,.01c.4.925.757,1.869,1.085,2.827l-1.225.707a.29.29,0,1,0,.29.5l1.132-.653c.314.96.584,1.939.826,2.929l-1.215.7a.29.29,0,0,0,.145.542.285.285,0,0,0,.145-.039l1.073-.619c.225.984.407,1.984.562,2.994l-1.315.759a.29.29,0,1,0,.29.5l1.123-.649q.255,1.838.353,3.727a.29.29,0,0,0,.29.276h.015a.29.29,0,0,0,.275-.305c-.071-1.355-.206-2.691-.395-4.007l.921-.532A.29.29,0,0,0,134.139,247.878Z" transform="translate(-123.883 -222.543)" opacity="0.4"/>
                </g>
                <g id="Grupo_146494" data-name="Grupo 146494" transform="translate(13.456 65.599)">
                  <g id="Grupo_146478" data-name="Grupo 146478" transform="translate(4.975 5.859)" opacity="0.15">
                    <g id="Grupo_146476" data-name="Grupo 146476" transform="translate(0.41 0.41)">
                      <path id="Trazado_202584" data-name="Trazado 202584" d="M140.794,313.764a47.207,47.207,0,0,1-.264-6.6c.238-.845,3.774-12.981,10.28-16.764a4.444,4.444,0,0,1,1.282-.536,2.4,2.4,0,0,1,.533-.063c1.724,0,2.5,2.4,3.246,4.72a23.49,23.49,0,0,0,1.027,2.79c.443.932,1.2,2.173,2.634,2.173a3.638,3.638,0,0,0,1.783-.55c3.127-1.782,4.027-6.607,4.98-11.717a57.787,57.787,0,0,1,1.535-6.767c.949-2.983,2.179-4.828,3.872-5.81a3,3,0,0,1,1.447-.473c1.812,0,2.5,3.229,3.162,6.351a26,26,0,0,0,1.317,4.784c.661,1.5,1.53,2.237,2.655,2.237a3.781,3.781,0,0,0,1.875-.589c3.838-2.216,5-5.972,6.122-9.6.954-3.084,1.854-6,4.386-7.469a3.791,3.791,0,0,1,1.882-.591,2.368,2.368,0,0,1,.828.146,16.193,16.193,0,0,1,.122,1.738l.042,7.353c.069,1.406.162,2.512.292,3.462Z" transform="translate(-140.508 -269.286)" fill="#4dd0e1"/>
                    </g>
                    <g id="Grupo_146477" data-name="Grupo 146477">
                      <path id="Trazado_202585" data-name="Trazado 202585" d="M196.163,282.085c-.164-1.1-.262-2.344-.328-3.68l-.041-7.352a16.825,16.825,0,0,0-.156-2.024,2.79,2.79,0,0,0-1.205-.27h0a4.166,4.166,0,0,0-2.09.647c-5.647,3.287-3.492,13.023-10.507,17.072a3.4,3.4,0,0,1-1.67.535c-1.046,0-1.752-.791-2.28-1.993-1.651-3.725-1.606-11.38-4.855-11.38a3.371,3.371,0,0,0-1.653.529c-2.008,1.163-3.212,3.384-4.056,6.04-2.09,6.557-1.967,15.768-6.328,18.252a3.251,3.251,0,0,1-1.58.5c-1.037,0-1.721-.8-2.263-1.94-1.349-2.828-1.823-7.744-4.642-7.744a2.822,2.822,0,0,0-.619.073,4.83,4.83,0,0,0-1.4.582C143.554,293.961,140,306.984,140,306.984a47.443,47.443,0,0,0,.338,7.329l.8-.463c-.041-.227-.081-.426-.126-.874a46.722,46.722,0,0,1-.2-5.866c.329-1.148,3.8-12.824,10.081-16.475a4.038,4.038,0,0,1,1.166-.489,2,2,0,0,1,.439-.053c1.425,0,2.153,2.255,2.856,4.436a23.811,23.811,0,0,0,1.046,2.84c.283.6,1.144,2.407,3,2.407a4.023,4.023,0,0,0,1.987-.6c3.292-1.875,4.208-6.792,5.178-12a57.651,57.651,0,0,1,1.524-6.719c.915-2.879,2.086-4.653,3.685-5.578a2.621,2.621,0,0,1,1.243-.419c1.482,0,2.161,3.2,2.761,6.027a26.331,26.331,0,0,0,1.343,4.863c.724,1.647,1.744,2.483,3.031,2.483a4.165,4.165,0,0,0,2.079-.644c3.978-2.3,5.217-6.3,6.31-9.838.93-3.005,1.807-5.843,4.2-7.237a3.4,3.4,0,0,1,1.676-.535h0a1.962,1.962,0,0,1,.452.051c.088.831.09,1.418.09,1.429l.042,7.387c.062,1.267.146,2.3.26,3.205a5.713,5.713,0,0,0,.158.854l.729-.42" transform="translate(-139.981 -268.759)"/>
                    </g>
                  </g>
                  <g id="Grupo_146479" data-name="Grupo 146479" transform="translate(4.979 0.315)" opacity="0.4">
                    <path id="Trazado_202586" data-name="Trazado 202586" d="M140.009,301.7v3.71a46.874,46.874,0,0,0,.335,7.328L196.16,280.51c-.161-1.1-.262-2.345-.329-3.685l-.04-7.347s0-10.98-6.976-6.952c-7.331,4.233-5.258,17.675-10.463,20.68-5.251,3.032-3.488-8.966-10.464-4.938s-3.488,12.993-10.463,17.02S153.939,279,146.963,283.03,139.988,297.059,140.009,301.7Z" transform="translate(-139.986 -261.638)" fill="#4dd0e1"/>
                  </g>
                  <g id="Grupo_146480" data-name="Grupo 146480" transform="translate(2.156 22.502)">
                    <path id="Trazado_202587" data-name="Trazado 202587" d="M136.65,324.711a.29.29,0,0,1-.144-.543l59.37-33.994a.29.29,0,0,1,.288.5l-59.37,33.995A.291.291,0,0,1,136.65,324.711Z" transform="translate(-136.36 -290.136)" opacity="0.4"/>
                  </g>
                  <g id="Grupo_146484" data-name="Grupo 146484" transform="translate(11.659 22.501)">
                    <g id="Grupo_146481" data-name="Grupo 146481" transform="translate(0.005)">
                      <path id="Trazado_202588" data-name="Trazado 202588" d="M148.864,291.3a.291.291,0,0,1-.29-.29v-.581a.291.291,0,1,1,.582,0l0,.581A.29.29,0,0,1,148.864,291.3Z" transform="translate(-148.574 -290.135)" fill="#fff"/>
                    </g>
                    <g id="Grupo_146482" data-name="Grupo 146482" transform="translate(0 1.701)">
                      <path id="Trazado_202589" data-name="Trazado 202589" d="M149.03,314.111a.291.291,0,0,1-.289-.265c-.034-.371-.063-.745-.086-1.12a.29.29,0,0,1,.272-.308.269.269,0,0,1,.308.272q.035.556.085,1.1a.289.289,0,0,1-.262.315Zm-.136-2.227a.291.291,0,0,1-.29-.286c0-.322-.009-.7-.012-1.12a.291.291,0,0,1,.288-.293.267.267,0,0,1,.293.288c0,.421.007.794.012,1.116a.29.29,0,0,1-.286.3Zm-.019-2.234a.291.291,0,0,1-.29-.289l-.006-1.118a.29.29,0,0,1,.29-.291h0a.291.291,0,0,1,.29.29l.005,1.116a.291.291,0,0,1-.289.292Zm-.011-2.234a.291.291,0,0,1-.29-.29l0-1.116a.291.291,0,0,1,.29-.291h0a.29.29,0,0,1,.29.29l0,1.116a.292.292,0,0,1-.29.291Zm0-2.234a.291.291,0,0,1-.29-.29v-1.117a.29.29,0,1,1,.581,0v1.117A.291.291,0,0,1,148.86,305.183Zm0-2.234a.291.291,0,0,1-.29-.29v-1.116a.29.29,0,1,1,.581,0v1.116A.29.29,0,0,1,148.857,302.949Zm0-2.233a.291.291,0,0,1-.29-.29v-1.116a.29.29,0,1,1,.581,0v1.116A.29.29,0,0,1,148.857,300.716Zm0-2.234h0a.291.291,0,0,1-.29-.291v-1.116a.29.29,0,1,1,.581,0v1.117A.291.291,0,0,1,148.857,298.482Zm0-2.233h0a.291.291,0,0,1-.29-.291v-1.117a.29.29,0,1,1,.581,0v1.119A.291.291,0,0,1,148.859,296.249Zm0-2.234a.291.291,0,0,1-.29-.29l0-1.113a.293.293,0,0,1,.29-.292h0a.289.289,0,0,1,.29.289l0,1.116A.29.29,0,0,1,148.861,294.016Z" transform="translate(-148.567 -292.32)" fill="#fff"/>
                    </g>
                    <g id="Grupo_146483" data-name="Grupo 146483" transform="translate(0.289 24.019)">
                      <path id="Trazado_202590" data-name="Trazado 202590" d="M149.3,322.142a.292.292,0,0,1-.288-.252c-.026-.193-.051-.387-.073-.581a.29.29,0,0,1,.576-.067c.023.191.048.381.073.571a.29.29,0,0,1-.25.326A.212.212,0,0,1,149.3,322.142Z" transform="translate(-148.938 -320.986)" fill="#fff"/>
                    </g>
                  </g>
                  <g id="Grupo_146488" data-name="Grupo 146488" transform="translate(53.52 0.912)">
                    <g id="Grupo_146485" data-name="Grupo 146485" transform="translate(0.005)">
                      <path id="Trazado_202591" data-name="Trazado 202591" d="M202.632,263.567a.292.292,0,0,1-.29-.291v-.582a.291.291,0,0,1,.29-.289h0a.29.29,0,0,1,.29.291v.58A.291.291,0,0,1,202.632,263.567Z" transform="translate(-202.342 -262.405)" fill="#fff"/>
                    </g>
                    <g id="Grupo_146486" data-name="Grupo 146486" transform="translate(0 1.698)">
                      <path id="Trazado_202592" data-name="Trazado 202592" d="M202.8,286.38a.29.29,0,0,1-.289-.264c-.034-.371-.063-.745-.086-1.12a.29.29,0,0,1,.271-.308.28.28,0,0,1,.308.271q.035.556.085,1.1a.288.288,0,0,1-.262.315Zm-.136-2.227a.291.291,0,0,1-.29-.286c0-.322-.009-.7-.012-1.119a.29.29,0,0,1,.288-.293h0a.291.291,0,0,1,.29.288c0,.42.007.793.012,1.116a.29.29,0,0,1-.287.294Zm-.019-2.234a.292.292,0,0,1-.291-.289l-.005-1.119a.291.291,0,0,1,.29-.291h0a.291.291,0,0,1,.291.29l.005,1.117a.291.291,0,0,1-.289.292Zm-.01-2.234a.291.291,0,0,1-.29-.29l0-1.116a.291.291,0,0,1,.29-.291h0a.291.291,0,0,1,.29.29l0,1.116a.292.292,0,0,1-.29.292Zm0-2.234a.291.291,0,0,1-.29-.29v-1.116a.29.29,0,0,1,.581,0v1.116A.29.29,0,0,1,202.628,277.451Zm0-2.234a.291.291,0,0,1-.29-.29v-1.116a.29.29,0,1,1,.581,0v1.116A.291.291,0,0,1,202.625,275.218Zm0-2.232a.291.291,0,0,1-.29-.29v-1.117a.29.29,0,1,1,.581,0V272.7A.291.291,0,0,1,202.625,272.986Zm0-2.235h0a.29.29,0,0,1-.29-.291v-1.116a.29.29,0,0,1,.581,0v1.117A.29.29,0,0,1,202.625,270.75Zm0-2.233h0a.29.29,0,0,1-.29-.291V267.11a.29.29,0,1,1,.581,0v1.118A.29.29,0,0,1,202.626,268.518Zm0-2.233h0a.291.291,0,0,1-.29-.291v-1.116a.29.29,0,1,1,.581,0V266A.291.291,0,0,1,202.629,266.285Z" transform="translate(-202.335 -264.586)" fill="#fff"/>
                    </g>
                    <g id="Grupo_146487" data-name="Grupo 146487" transform="translate(0.288 24.017)">
                      <path id="Trazado_202593" data-name="Trazado 202593" d="M203.069,294.411a.292.292,0,0,1-.288-.252c-.026-.191-.051-.385-.074-.578a.29.29,0,0,1,.253-.323.282.282,0,0,1,.323.253q.035.286.074.572a.292.292,0,0,1-.25.326Z" transform="translate(-202.705 -293.254)" fill="#fff"/>
                    </g>
                  </g>
                  <g id="Grupo_146492" data-name="Grupo 146492" transform="translate(32.589 17.661)">
                    <g id="Grupo_146489" data-name="Grupo 146489" transform="translate(0.003)">
                      <path id="Trazado_202594" data-name="Trazado 202594" d="M175.745,285.08a.291.291,0,0,1-.291-.29v-.581a.291.291,0,0,1,.582,0v.581A.291.291,0,0,1,175.745,285.08Z" transform="translate(-175.454 -283.918)" fill="#fff"/>
                    </g>
                    <g id="Grupo_146490" data-name="Grupo 146490" transform="translate(0 1.669)">
                      <path id="Trazado_202595" data-name="Trazado 202595" d="M175.912,300.8a.29.29,0,0,1-.289-.263c-.034-.364-.062-.728-.086-1.1a.291.291,0,0,1,.272-.308.275.275,0,0,1,.308.272q.035.542.084,1.077a.291.291,0,0,1-.262.316Zm-.137-2.175a.291.291,0,0,1-.29-.288l-.013-1.089a.29.29,0,0,1,.287-.294h0a.29.29,0,0,1,.29.287l.013,1.089a.292.292,0,0,1-.287.294Zm-.022-2.177a.291.291,0,0,1-.29-.289l-.005-1.09a.29.29,0,0,1,.289-.292h0a.291.291,0,0,1,.29.289l.005,1.09a.29.29,0,0,1-.289.292Zm-.009-2.179a.292.292,0,0,1-.291-.29l0-1.089a.292.292,0,0,1,.29-.292h0a.291.291,0,0,1,.29.29l0,1.09a.291.291,0,0,1-.29.291Zm0-2.178a.292.292,0,0,1-.291-.291v-1.09a.291.291,0,0,1,.582,0v1.09A.292.292,0,0,1,175.741,292.09Zm0-2.179h0a.291.291,0,0,1-.29-.291v-1.088a.291.291,0,0,1,.582,0v1.09A.291.291,0,0,1,175.741,289.911Zm0-2.178h0a.292.292,0,0,1-.29-.291v-1.089a.291.291,0,0,1,.582,0v1.091A.291.291,0,0,1,175.743,287.733Z" transform="translate(-175.45 -286.062)" fill="#fff"/>
                    </g>
                    <g id="Grupo_146491" data-name="Grupo 146491" transform="translate(0.285 16.906)">
                      <path id="Trazado_202596" data-name="Trazado 202596" d="M176.18,306.791a.292.292,0,0,1-.288-.252c-.026-.192-.051-.386-.074-.58a.291.291,0,1,1,.577-.069c.023.191.048.382.073.572a.292.292,0,0,1-.25.327Z" transform="translate(-175.816 -305.633)" fill="#fff"/>
                    </g>
                  </g>
                  <g id="Grupo_146493" data-name="Grupo 146493" transform="translate(10.946 20.409)">
                    <path id="Trazado_202597" data-name="Trazado 202597" d="M148.655,287.6c.554-.32,1-.107,1,.474a2.122,2.122,0,0,1-1,1.633c-.554.32-1,.108-1-.474A2.12,2.12,0,0,1,148.655,287.6Z" transform="translate(-147.651 -287.448)" opacity="0.4"/>
                  </g>
                  <path id="Trazado_202598" data-name="Trazado 202598" d="M175.542,281.376c.554-.32,1-.107,1,.474a2.123,2.123,0,0,1-1,1.633c-.554.32-1,.108-1-.473A2.125,2.125,0,0,1,175.542,281.376Z" transform="translate(-142.659 -265.661)" opacity="0.4"/>
                  <path id="Trazado_202599" data-name="Trazado 202599" d="M202.421,261.383c.554-.32,1-.108,1,.473a2.123,2.123,0,0,1-1,1.633c-.554.32-1,.107-1-.474A2.122,2.122,0,0,1,202.421,261.383Z" transform="translate(-148.612 -261.233)" opacity="0.4"/>
                  <path id="Trazado_202600" data-name="Trazado 202600" d="M136.423,294.279a.29.29,0,1,0-.29-.5l-.758.438v-3l1.049-.606a.29.29,0,0,0-.29-.5l-.759.438V287.39a.291.291,0,0,0-.582,0v3.492l-1.051.607a.29.29,0,1,0,.29.5l.761-.44v3l-1.052.607a.29.29,0,0,0,.145.542.3.3,0,0,0,.145-.039l.762-.441v3l-1.053.608a.29.29,0,1,0,.29.5l.763-.441v3l-1.053.609a.29.29,0,1,0,.29.5l.764-.441v3l-1.055.609a.29.29,0,1,0,.29.5l.765-.441v3l-1.056.61a.29.29,0,1,0,.29.5l.765-.442v3l-1.056.61a.29.29,0,1,0,.29.5l.761-.439c-.017,1-.009,1.989.035,2.977l-1.087.627a.291.291,0,0,0,.145.542.285.285,0,0,0,.145-.039l.832-.48c.063,1.09.156,2.174.292,3.242a.29.29,0,0,0,.288.253l.037,0a.29.29,0,0,0,.251-.325c-.146-1.149-.247-2.315-.307-3.492l1-.577a.29.29,0,1,0-.29-.5l-.734.423c-.037-.99-.047-1.986-.022-2.985l1.046-.6a.29.29,0,1,0-.29-.5l-.754.436v-3l1.045-.6a.29.29,0,1,0-.29-.5l-.755.436v-3l1.046-.6a.29.29,0,0,0-.29-.5l-.756.437v-3l1.047-.6a.29.29,0,1,0-.29-.5l-.757.437v-3l1.047-.6a.29.29,0,0,0-.29-.5l-.758.438v-3Z" transform="translate(-133.591 -266.962)" opacity="0.4"/>
                </g>
                <path id="Trazado_202601" data-name="Trazado 202601" d="M212.815,317.743l-55.763,32.2c-1.96,1.131-4.8,1-6.206-.448s-.83-3.647,1.13-4.779l55.747-32.187a5.09,5.09,0,0,1,5.975.677C215.108,314.644,214.775,316.611,212.815,317.743Z" transform="translate(-123.784 -206.846)" fill="#4dd0e1"/>
                <g id="Grupo_146499" data-name="Grupo 146499" transform="translate(16.524 89.474)">
                  <g id="Grupo_146495" data-name="Grupo 146495">
                    <path id="Trazado_202602" data-name="Trazado 202602" d="M137.941,328.984a.41.41,0,0,1-.2-.764l62.81-36.264a.409.409,0,1,1,.41.709l-62.81,36.264A.4.4,0,0,1,137.941,328.984Z" transform="translate(-137.532 -291.899)" opacity="0.4"/>
                  </g>
                  <g id="Grupo_146496" data-name="Grupo 146496" transform="translate(1.284 3.39)">
                    <path id="Trazado_202603" data-name="Trazado 202603" d="M139.59,333.344a.41.41,0,0,1-.2-.765l62.819-36.27a.41.41,0,1,1,.41.709l-62.82,36.27A.4.4,0,0,1,139.59,333.344Z" transform="translate(-139.181 -296.253)" opacity="0.4"/>
                  </g>
                  <g id="Grupo_146497" data-name="Grupo 146497" transform="translate(2.868 6.642)">
                    <path id="Trazado_202604" data-name="Trazado 202604" d="M141.626,337.525a.41.41,0,0,1-.2-.765l62.827-36.274a.41.41,0,0,1,.41.709L141.831,337.47A.4.4,0,0,1,141.626,337.525Z" transform="translate(-141.216 -300.43)" opacity="0.4"/>
                  </g>
                  <g id="Grupo_146498" data-name="Grupo 146498" transform="translate(4.74 9.736)">
                    <path id="Trazado_202605" data-name="Trazado 202605" d="M144.029,341.5a.41.41,0,0,1-.2-.765l62.836-36.28a.41.41,0,1,1,.41.709l-62.837,36.28A.407.407,0,0,1,144.029,341.5Z" transform="translate(-143.62 -304.404)" opacity="0.4"/>
                  </g>
                </g>
              </g>
            </g>
          </g>
          <g id="Grupo_146549" data-name="Grupo 146549" transform="translate(93.525 61.839)">
            <path id="Trazado_202607" data-name="Trazado 202607" d="M214.114,266.017,265.8,236.181c1.96-1.132,5.082-1.8,6.839-1.095s1.421,2.547-.54,3.678l-52.287,30.183a7.194,7.194,0,0,1-6.31.407C211.94,268.512,212.154,267.148,214.114,266.017Z" transform="translate(-212.469 -234.795)" fill="#4dd0e1"/>
            <path id="Trazado_202608" data-name="Trazado 202608" d="M222.163,275.419a.41.41,0,0,1-.2-.765l59.574-34.389a.409.409,0,0,1,.41.709l-59.574,34.389A.4.4,0,0,1,222.163,275.419Z" transform="translate(-214.525 -235.994)" opacity="0.4"/>
            <path id="Trazado_202609" data-name="Trazado 202609" d="M225.332,278.826a.409.409,0,0,1-.2-.764l59.666-34.441a.41.41,0,1,1,.41.709l-59.666,34.441A.411.411,0,0,1,225.332,278.826Z" transform="translate(-215.227 -236.737)" opacity="0.4"/>
            <g id="Grupo_146503" data-name="Grupo 146503" transform="translate(12.076 44.211)">
              <path id="Trazado_202610" data-name="Trazado 202610" d="M235.889,319.919h0a.292.292,0,0,1-.29-.291l.012-3.161c.009-2.38.009-2.38-.059-3.989l-.012-.266a38.587,38.587,0,0,0-2.122-10.773,30.056,30.056,0,0,0-5.37-9.383.29.29,0,1,1,.452-.365,30.576,30.576,0,0,1,5.467,9.559,39.146,39.146,0,0,1,2.155,10.932l.012.271c.07,1.622.07,1.622.059,4.016l-.01,3.16A.291.291,0,0,1,235.889,319.919Z" transform="translate(-227.981 -291.583)" opacity="0.4"/>
            </g>
            <path id="Trazado_202611" data-name="Trazado 202611" d="M237.077,291.488c-.265-.466-.551-.923-.856-1.373a.922.922,0,0,1,.3-1.349l22.764-13.141a1.085,1.085,0,0,1,1.45.343c.274.448.533.919.787,1.413a1.1,1.1,0,0,1-.433,1.43L238.447,291.88A.994.994,0,0,1,237.077,291.488Z" transform="translate(-217.69 -243.805)" fill="#4dd0e1"/>
            <path id="Trazado_202612" data-name="Trazado 202612" d="M240.2,293.449q.256.785.469,1.552a.742.742,0,0,0,1.145.48l54.01-31.176a1.409,1.409,0,0,0,.628-1.5q-.223-.812-.461-1.559a.8.8,0,0,0-1.213-.459l-54.019,31.182A1.307,1.307,0,0,0,240.2,293.449Z" transform="translate(-218.598 -240.523)" fill="#4dd0e1"/>
            <path id="Trazado_202613" data-name="Trazado 202613" d="M240.2,293.449q.256.785.469,1.552a.742.742,0,0,0,1.145.48l54.01-31.176a1.409,1.409,0,0,0,.628-1.5q-.223-.812-.461-1.559a.8.8,0,0,0-1.213-.459l-54.019,31.182A1.307,1.307,0,0,0,240.2,293.449Z" transform="translate(-218.598 -240.523)" fill="#fff" opacity="0.7"/>
            <path id="Trazado_202614" data-name="Trazado 202614" d="M242.233,305.535c.069.575.128,1.135.173,1.678a.586.586,0,0,0,.952.51L279.947,286.6a1.779,1.779,0,0,0,.818-1.535q-.069-.841-.173-1.672a.638.638,0,0,0-1.026-.5l-36.578,21.114A1.667,1.667,0,0,0,242.233,305.535Z" transform="translate(-219.059 -245.42)" fill="#4dd0e1"/>
            <path id="Trazado_202615" data-name="Trazado 202615" d="M242.233,305.535c.069.575.128,1.135.173,1.678a.586.586,0,0,0,.952.51L279.947,286.6a1.779,1.779,0,0,0,.818-1.535q-.069-.841-.173-1.672a.638.638,0,0,0-1.026-.5l-36.578,21.114A1.667,1.667,0,0,0,242.233,305.535Z" transform="translate(-219.059 -245.42)" opacity="0.15"/>
            <path id="Trazado_202616" data-name="Trazado 202616" d="M242.618,318.548v1.646c0,.565.4.795.888.512l15.664-9.043a1.961,1.961,0,0,0,.887-1.537v-1.645c0-.566-.4-.8-.887-.513l-15.664,9.043A1.961,1.961,0,0,0,242.618,318.548Z" transform="translate(-219.146 -250.974)" fill="#4dd0e1"/>
            <path id="Trazado_202617" data-name="Trazado 202617" d="M242.618,318.548v1.646c0,.565.4.795.888.512l15.664-9.043a1.961,1.961,0,0,0,.887-1.537v-1.645c0-.566-.4-.8-.887-.513l-15.664,9.043A1.961,1.961,0,0,0,242.618,318.548Z" transform="translate(-219.146 -250.974)" fill="#fff" opacity="0.5"/>
            <path id="Trazado_202618" data-name="Trazado 202618" d="M298.259,288.184a.291.291,0,0,0-.29.29v1.409l-4.174,2.41v-1.054a.29.29,0,0,0-.581,0v1.39l-4.175,2.41V294a.29.29,0,1,0-.581,0v1.371l-4.174,2.41v-1.017a.291.291,0,0,0-.582,0v1.352l-4.175,2.41v-1a.29.29,0,0,0-.581,0v1.333l-4.175,2.41v-.979a.29.29,0,1,0-.581,0v1.314l-4.174,2.41v-.96a.291.291,0,1,0-.582,0v1.3l-4.175,2.41v-.942a.29.29,0,0,0-.581,0V309.1l-4.175,2.41v-.923a.29.29,0,1,0-.581,0v1.258l-4.174,2.41v-.9a.291.291,0,0,0-.582,0v1.239L250.991,317v-.885a.29.29,0,0,0-.581,0v1.22l-4.176,2.41v-.866a.29.29,0,1,0-.581,0v1.2l-3.623,2.091a.29.29,0,0,0,.145.542.285.285,0,0,0,.145-.039l3.334-1.925v1.18a.29.29,0,0,0,.581,0v-1.514L250.41,318v1.161a.29.29,0,1,0,.581,0v-1.5l4.175-2.41V316.4a.291.291,0,0,0,.582,0v-1.478l4.174-2.41v1.123a.29.29,0,1,0,.581,0v-1.459l4.175-2.41v1.1a.29.29,0,1,0,.581,0v-1.44l4.175-2.41v1.085a.291.291,0,1,0,.582,0v-1.421l4.174-2.41v1.067a.29.29,0,1,0,.581,0v-1.4l4.175-2.41v1.048a.29.29,0,0,0,.581,0V301.2l4.175-2.41v1.029a.291.291,0,0,0,.582,0v-1.365l4.174-2.41v1.011a.29.29,0,1,0,.581,0v-1.346l4.175-2.41v.992a.29.29,0,0,0,.581,0v-1.327l4.174-2.41v.972a.291.291,0,1,0,.582,0v-3.051A.292.292,0,0,0,298.259,288.184Z" transform="translate(-218.983 -246.619)" opacity="0.4"/>
            <g id="Grupo_146507" data-name="Grupo 146507" transform="translate(19.998 79.708)">
              <g id="Grupo_146504" data-name="Grupo 146504">
                <path id="Trazado_202619" data-name="Trazado 202619" d="M251.655,337.375a10.257,10.257,0,0,0-3.041,1.229c-5.778,3.393-10.458,11.884-10.458,18.965,0,.188,0,.369.009.549l10.442-4.778Z" transform="translate(-238.156 -337.221)" fill="#4dd0e1"/>
                <path id="Trazado_202620" data-name="Trazado 202620" d="M254.628,337.331,251.579,353.3l10.351-6.008a17.245,17.245,0,0,0,.114-1.934C262.045,339.527,258.922,336.43,254.628,337.331Z" transform="translate(-241.129 -337.177)" fill="#4dd0e1"/>
                <path id="Trazado_202621" data-name="Trazado 202621" d="M260.619,355.55a22.276,22.276,0,0,0,1.312-5.385l-10.351,6.008Z" transform="translate(-241.129 -340.053)" fill="#4dd0e1"/>
                <path id="Trazado_202622" data-name="Trazado 202622" d="M238.167,362.483c.237,6.7,4.828,9.491,10.45,6.245,3.861-2.229,7.229-6.753,9.032-11.646l-9.04.623Z" transform="translate(-238.158 -341.585)" fill="#4dd0e1"/>
              </g>
              <g id="Grupo_146505" data-name="Grupo 146505" transform="translate(0.009)">
                <path id="Trazado_202623" data-name="Trazado 202623" d="M254.628,337.331,251.579,353.3l10.351-6.008a17.245,17.245,0,0,0,.114-1.934C262.045,339.527,258.922,336.43,254.628,337.331Z" transform="translate(-241.137 -337.177)" fill="#fff" opacity="0.7"/>
                <path id="Trazado_202624" data-name="Trazado 202624" d="M260.619,355.55a22.276,22.276,0,0,0,1.312-5.385l-10.351,6.008Z" transform="translate(-241.137 -340.053)" opacity="0.15"/>
                <path id="Trazado_202625" data-name="Trazado 202625" d="M238.167,362.483c.237,6.7,4.828,9.491,10.45,6.245,3.861-2.229,7.229-6.753,9.032-11.646l-9.04.623Z" transform="translate(-238.167 -341.585)" fill="#fff" opacity="0.5"/>
              </g>
              <g id="Grupo_146506" data-name="Grupo 146506">
                <path id="Trazado_202626" data-name="Trazado 202626" d="M251.655,337.375a10.257,10.257,0,0,0-3.041,1.229c-5.778,3.393-10.458,11.884-10.458,18.965,0,.188,0,.369.009.549l10.442-4.778Z" transform="translate(-238.156 -337.221)" fill="none" stroke="#fff" stroke-linecap="round" stroke-linejoin="round" stroke-width="1.053"/>
                <path id="Trazado_202627" data-name="Trazado 202627" d="M254.628,337.331,251.579,353.3l10.351-6.008a17.245,17.245,0,0,0,.114-1.934C262.045,339.527,258.922,336.43,254.628,337.331Z" transform="translate(-241.129 -337.177)" fill="none" stroke="#fff" stroke-linecap="round" stroke-linejoin="round" stroke-width="1.053"/>
                <path id="Trazado_202628" data-name="Trazado 202628" d="M260.619,355.55a22.276,22.276,0,0,0,1.312-5.385l-10.351,6.008Z" transform="translate(-241.129 -340.053)" fill="none" stroke="#fff" stroke-linecap="round" stroke-linejoin="round" stroke-width="1.053"/>
                <path id="Trazado_202629" data-name="Trazado 202629" d="M238.167,362.483c.237,6.7,4.828,9.491,10.45,6.245,3.861-2.229,7.229-6.753,9.032-11.646l-9.04.623Z" transform="translate(-238.158 -341.585)" fill="none" stroke="#fff" stroke-linecap="round" stroke-linejoin="round" stroke-width="1.053"/>
              </g>
            </g>
            <g id="Grupo_146508" data-name="Grupo 146508" transform="translate(58.355 57.481)">
              <path id="Trazado_202630" data-name="Trazado 202630" d="M293.152,315.678a24.721,24.721,0,0,0-5.728,14.851,10.665,10.665,0,0,0,1.32,5.54l9.138-11.589Z" transform="translate(-287.424 -310.189)" fill="#4dd0e1"/>
              <path id="Trazado_202631" data-name="Trazado 202631" d="M304.232,308.634a8.725,8.725,0,0,0-4.721,1.344,17.838,17.838,0,0,0-4.729,4.139l4.729,8.8Z" transform="translate(-289.054 -308.627)" fill="#4dd0e1"/>
              <path id="Trazado_202632" data-name="Trazado 202632" d="M310.347,311.98a5.463,5.463,0,0,0-4.77-3.344l-4.721,14.285Z" transform="translate(-290.399 -308.629)" fill="#4dd0e1"/>
              <path id="Trazado_202633" data-name="Trazado 202633" d="M307.748,312.931l-9.491,10.942-9.138,11.589c1.795,2.918,5.212,3.623,9.138,1.352,5.778-3.336,10.467-11.835,10.467-18.989A11.3,11.3,0,0,0,307.748,312.931Z" transform="translate(-287.799 -309.581)" fill="#4dd0e1"/>
            </g>
            <g id="Grupo_146509" data-name="Grupo 146509" transform="translate(59.675 57.481)">
              <path id="Trazado_202634" data-name="Trazado 202634" d="M304.232,308.634a8.725,8.725,0,0,0-4.721,1.344,17.838,17.838,0,0,0-4.729,4.139l4.729,8.8Z" transform="translate(-290.373 -308.627)" fill="#fff" opacity="0.7"/>
              <path id="Trazado_202635" data-name="Trazado 202635" d="M310.347,311.98a5.463,5.463,0,0,0-4.77-3.344l-4.721,14.285Z" transform="translate(-291.718 -308.629)" opacity="0.15"/>
              <path id="Trazado_202636" data-name="Trazado 202636" d="M307.748,312.931l-9.491,10.942-9.138,11.589c1.795,2.918,5.212,3.623,9.138,1.352,5.778-3.336,10.467-11.835,10.467-18.989A11.3,11.3,0,0,0,307.748,312.931Z" transform="translate(-289.119 -309.581)" fill="#fff" opacity="0.5"/>
            </g>
            <g id="Grupo_146510" data-name="Grupo 146510" transform="translate(58.355 57.481)">
              <path id="Trazado_202637" data-name="Trazado 202637" d="M293.152,315.678a24.721,24.721,0,0,0-5.728,14.851,10.665,10.665,0,0,0,1.32,5.54l9.138-11.589Z" transform="translate(-287.424 -310.189)" fill="none" stroke="#fff" stroke-linecap="round" stroke-linejoin="round" stroke-width="1.053"/>
              <path id="Trazado_202638" data-name="Trazado 202638" d="M304.232,308.634a8.725,8.725,0,0,0-4.721,1.344,17.838,17.838,0,0,0-4.729,4.139l4.729,8.8Z" transform="translate(-289.054 -308.627)" fill="none" stroke="#fff" stroke-linecap="round" stroke-linejoin="round" stroke-width="1.053"/>
              <path id="Trazado_202639" data-name="Trazado 202639" d="M310.347,311.98a5.463,5.463,0,0,0-4.77-3.344l-4.721,14.285Z" transform="translate(-290.399 -308.629)" fill="none" stroke="#fff" stroke-linecap="round" stroke-linejoin="round" stroke-width="1.053"/>
              <path id="Trazado_202640" data-name="Trazado 202640" d="M307.748,312.931l-9.491,10.942-9.138,11.589c1.795,2.918,5.212,3.623,9.138,1.352,5.778-3.336,10.467-11.835,10.467-18.989A11.3,11.3,0,0,0,307.748,312.931Z" transform="translate(-287.799 -309.581)" fill="none" stroke="#fff" stroke-linecap="round" stroke-linejoin="round" stroke-width="1.053"/>
            </g>
            <g id="Grupo_146515" data-name="Grupo 146515" transform="translate(44.401 71.332)">
              <g id="Grupo_146511" data-name="Grupo 146511">
                <path id="Trazado_202641" data-name="Trazado 202641" d="M270.389,327.528l1.713-.989c.49-.283.888-.053.888.512V328.7a1.959,1.959,0,0,1-.887,1.536l-1.714.99c-.49.283-.887.053-.887-.513v-1.645A1.963,1.963,0,0,1,270.389,327.528Z" transform="translate(-269.501 -326.419)" fill="#4dd0e1"/>
              </g>
              <g id="Grupo_146512" data-name="Grupo 146512" transform="translate(0 7.383)">
                <path id="Trazado_202642" data-name="Trazado 202642" d="M270.389,337.012l1.713-.99c.49-.283.888-.053.888.513v1.645a1.961,1.961,0,0,1-.887,1.537l-1.714.989c-.49.283-.887.053-.887-.512v-1.646A1.96,1.96,0,0,1,270.389,337.012Z" transform="translate(-269.501 -335.902)" fill="#4dd0e1"/>
                <path id="Trazado_202643" data-name="Trazado 202643" d="M270.389,337.012l1.713-.99c.49-.283.888-.053.888.513v1.645a1.961,1.961,0,0,1-.887,1.537l-1.714.989c-.49.283-.887.053-.887-.512v-1.646A1.96,1.96,0,0,1,270.389,337.012Z" transform="translate(-269.501 -335.902)" fill="#fff" opacity="0.7"/>
              </g>
              <g id="Grupo_146513" data-name="Grupo 146513" transform="translate(0 14.766)">
                <path id="Trazado_202644" data-name="Trazado 202644" d="M270.389,346.5l1.713-.989c.49-.283.888-.054.888.512v1.645a1.961,1.961,0,0,1-.887,1.537l-1.714.989c-.49.283-.887.054-.887-.512v-1.646A1.962,1.962,0,0,1,270.389,346.5Z" transform="translate(-269.501 -345.385)" fill="#4dd0e1"/>
                <path id="Trazado_202645" data-name="Trazado 202645" d="M270.389,346.5l1.713-.989c.49-.283.888-.054.888.512v1.645a1.961,1.961,0,0,1-.887,1.537l-1.714.989c-.49.283-.887.054-.887-.512v-1.646A1.962,1.962,0,0,1,270.389,346.5Z" transform="translate(-269.501 -345.385)" opacity="0.15"/>
              </g>
              <g id="Grupo_146514" data-name="Grupo 146514" transform="translate(0 22.149)">
                <path id="Trazado_202646" data-name="Trazado 202646" d="M270.389,355.978l1.713-.989c.49-.283.888-.054.888.512v1.646a1.961,1.961,0,0,1-.887,1.536l-1.714.989c-.49.283-.887.054-.887-.512v-1.645A1.962,1.962,0,0,1,270.389,355.978Z" transform="translate(-269.501 -354.868)" fill="#4dd0e1"/>
                <path id="Trazado_202647" data-name="Trazado 202647" d="M270.389,355.978l1.713-.989c.49-.283.888-.054.888.512v1.646a1.961,1.961,0,0,1-.887,1.536l-1.714.989c-.49.283-.887.054-.887-.512v-1.645A1.962,1.962,0,0,1,270.389,355.978Z" transform="translate(-269.501 -354.868)" fill="#fff" opacity="0.5"/>
              </g>
            </g>
            <g id="Grupo_146516" data-name="Grupo 146516" transform="translate(49.068 68.101)">
              <path id="Trazado_202648" data-name="Trazado 202648" d="M276.077,326.44a.581.581,0,0,1-.291-1.084L281,322.347a.58.58,0,1,1,.581,1.005l-5.214,3.009A.575.575,0,0,1,276.077,326.44Z" transform="translate(-275.495 -322.269)" opacity="0.4"/>
            </g>
            <g id="Grupo_146517" data-name="Grupo 146517" transform="translate(48.988 75.559)">
              <path id="Trazado_202649" data-name="Trazado 202649" d="M275.974,336.018a.581.581,0,0,1-.291-1.084l5.214-3.01a.58.58,0,1,1,.581,1.005l-5.213,3.01A.579.579,0,0,1,275.974,336.018Z" transform="translate(-275.392 -331.847)" opacity="0.4"/>
            </g>
            <g id="Grupo_146518" data-name="Grupo 146518" transform="translate(48.908 83.016)">
              <path id="Trazado_202650" data-name="Trazado 202650" d="M275.871,345.6a.581.581,0,0,1-.292-1.084l5.214-3.01a.581.581,0,0,1,.581,1.006l-5.213,3.009A.579.579,0,0,1,275.871,345.6Z" transform="translate(-275.289 -341.426)" opacity="0.4"/>
            </g>
            <g id="Grupo_146519" data-name="Grupo 146519" transform="translate(48.827 90.473)">
              <path id="Trazado_202651" data-name="Trazado 202651" d="M275.767,355.174a.581.581,0,0,1-.292-1.085l5.214-3.008a.581.581,0,1,1,.582,1.007l-5.214,3.009A.593.593,0,0,1,275.767,355.174Z" transform="translate(-275.185 -351.004)" opacity="0.4"/>
            </g>
            <g id="Grupo_146523" data-name="Grupo 146523" transform="translate(20.067 105.626)">
              <g id="Grupo_146520" data-name="Grupo 146520">
                <path id="Trazado_202652" data-name="Trazado 202652" d="M238.827,385.719a.581.581,0,0,1-.291-1.084l24.413-14.09a.581.581,0,1,1,.582,1.006l-24.414,14.091A.586.586,0,0,1,238.827,385.719Z" transform="translate(-238.245 -370.467)" opacity="0.4"/>
              </g>
              <g id="Grupo_146521" data-name="Grupo 146521" transform="translate(0.786 3.614)">
                <path id="Trazado_202653" data-name="Trazado 202653" d="M239.837,390.361a.581.581,0,0,1-.292-1.085l24.414-14.09a.581.581,0,0,1,.581,1.007l-24.413,14.091A.6.6,0,0,1,239.837,390.361Z" transform="translate(-239.255 -375.11)" opacity="0.4"/>
              </g>
              <g id="Grupo_146522" data-name="Grupo 146522" transform="translate(1.911 7.11)">
                <path id="Trazado_202654" data-name="Trazado 202654" d="M241.282,394.852a.581.581,0,0,1-.291-1.085l24.413-14.09a.581.581,0,1,1,.582,1.006l-24.414,14.091A.586.586,0,0,1,241.282,394.852Z" transform="translate(-240.7 -379.6)" opacity="0.4"/>
              </g>
            </g>
            <g id="Grupo_146527" data-name="Grupo 146527" transform="translate(58.388 83.51)">
              <g id="Grupo_146524" data-name="Grupo 146524">
                <path id="Trazado_202655" data-name="Trazado 202655" d="M288.048,357.313a.581.581,0,0,1-.291-1.084l24.413-14.091a.581.581,0,0,1,.581,1.007l-24.413,14.09A.579.579,0,0,1,288.048,357.313Z" transform="translate(-287.467 -342.061)" opacity="0.4"/>
              </g>
              <g id="Grupo_146525" data-name="Grupo 146525" transform="translate(0.786 3.613)">
                <path id="Trazado_202656" data-name="Trazado 202656" d="M289.058,361.954a.581.581,0,0,1-.291-1.085l24.414-14.09a.581.581,0,0,1,.581,1.007l-24.414,14.091A.591.591,0,0,1,289.058,361.954Z" transform="translate(-288.476 -346.702)" opacity="0.4"/>
              </g>
              <g id="Grupo_146526" data-name="Grupo 146526" transform="translate(1.911 7.11)">
                <path id="Trazado_202657" data-name="Trazado 202657" d="M290.5,366.445a.581.581,0,0,1-.291-1.085l24.413-14.09a.581.581,0,1,1,.581,1.006l-24.413,14.091A.586.586,0,0,1,290.5,366.445Z" transform="translate(-289.922 -351.193)" opacity="0.4"/>
              </g>
            </g>
            <path id="Trazado_202658" data-name="Trazado 202658" d="M249.455,394.969l55.659-32.122a4.281,4.281,0,0,1,5.576,1,3.272,3.272,0,0,1-1.254,4.9l-55.678,32.132c-1.96,1.131-4.656.835-5.847-.8S247.495,396.1,249.455,394.969Z" transform="translate(-220.193 -263.019)" fill="#4dd0e1"/>
            <g id="Grupo_146531" data-name="Grupo 146531" transform="translate(34.809 130.288)">
              <g id="Grupo_146528" data-name="Grupo 146528" transform="translate(3.054 2.154)">
                <path id="Trazado_202659" data-name="Trazado 202659" d="M261.685,420.16a.581.581,0,0,1-.292-1.084l24.412-14.088a.581.581,0,1,1,.581,1.007l-24.411,14.088A.6.6,0,0,1,261.685,420.16Z" transform="translate(-261.103 -404.911)" opacity="0.4"/>
              </g>
              <g id="Grupo_146529" data-name="Grupo 146529">
                <path id="Trazado_202660" data-name="Trazado 202660" d="M257.762,417.393a.581.581,0,0,1-.291-1.085l24.412-14.088a.581.581,0,1,1,.581,1.007l-24.411,14.088A.587.587,0,0,1,257.762,417.393Z" transform="translate(-257.18 -402.145)" opacity="0.4"/>
              </g>
              <g id="Grupo_146530" data-name="Grupo 146530" transform="translate(6.264 4.053)">
                <path id="Trazado_202661" data-name="Trazado 202661" d="M265.808,422.6a.581.581,0,0,1-.291-1.085l24.412-14.088a.581.581,0,1,1,.582,1.007L266.1,422.522A.584.584,0,0,1,265.808,422.6Z" transform="translate(-265.227 -407.351)" opacity="0.4"/>
              </g>
            </g>
            <g id="Grupo_146535" data-name="Grupo 146535" transform="translate(69.664 110.174)">
              <g id="Grupo_146532" data-name="Grupo 146532" transform="translate(3.054 2.154)">
                <path id="Trazado_202662" data-name="Trazado 202662" d="M306.454,394.324a.581.581,0,0,1-.291-1.084l24.412-14.088a.581.581,0,1,1,.582,1.007l-24.413,14.088A.593.593,0,0,1,306.454,394.324Z" transform="translate(-305.873 -379.075)" opacity="0.4"/>
              </g>
              <g id="Grupo_146533" data-name="Grupo 146533">
                <path id="Trazado_202663" data-name="Trazado 202663" d="M302.531,391.557a.581.581,0,0,1-.291-1.084l24.411-14.088a.581.581,0,0,1,.582,1.007L302.821,391.48A.586.586,0,0,1,302.531,391.557Z" transform="translate(-301.95 -376.309)" opacity="0.4"/>
              </g>
              <g id="Grupo_146534" data-name="Grupo 146534" transform="translate(6.264 4.053)">
                <path id="Trazado_202664" data-name="Trazado 202664" d="M310.578,396.764a.581.581,0,0,1-.292-1.084L334.7,381.591a.581.581,0,1,1,.581,1.007l-24.412,14.088A.588.588,0,0,1,310.578,396.764Z" transform="translate(-309.996 -381.515)" opacity="0.4"/>
              </g>
            </g>
            <g id="Grupo_146539" data-name="Grupo 146539" transform="translate(52.217 134.88)">
              <g id="Grupo_146536" data-name="Grupo 146536" transform="translate(0 10.002)">
                <path id="Trazado_202665" data-name="Trazado 202665" d="M304.2,423.049c-5.3-3.061-14.281-2.839-20.06.5s-6.166,8.52-.866,11.58,14.281,2.84,20.061-.494S309.5,426.11,304.2,423.049Zm-3.608,10c-4.127,2.382-10.542,2.54-14.328.353s-3.51-5.89.618-8.272,10.542-2.54,14.328-.353S304.72,430.664,300.592,433.046Z" transform="translate(-279.539 -420.891)" fill="#4dd0e1"/>
                <path id="Trazado_202666" data-name="Trazado 202666" d="M291.932,428.044a9.524,9.524,0,0,1,8.6-.212c2.271,1.312,2.105,3.534-.371,4.963a9.522,9.522,0,0,1-8.6.212C289.29,431.695,289.456,429.473,291.932,428.044Z" transform="translate(-281.847 -422.223)" fill="#4dd0e1"/>
              </g>
              <path id="Trazado_202667" data-name="Trazado 202667" d="M291.932,428.044a9.524,9.524,0,0,1,8.6-.212c2.271,1.312,2.105,3.534-.371,4.963a9.522,9.522,0,0,1-8.6.212C289.29,431.695,289.456,429.473,291.932,428.044Z" transform="translate(-281.847 -412.221)" opacity="0.5"/>
              <path id="Trazado_202668" data-name="Trazado 202668" d="M304.2,423.049c-5.3-3.061-14.281-2.839-20.06.5s-6.166,8.52-.866,11.58,14.281,2.84,20.061-.494S309.5,426.11,304.2,423.049Zm-3.608,10c-4.127,2.382-10.542,2.54-14.328.353s-3.51-5.89.618-8.272,10.542-2.54,14.328-.353S304.72,430.664,300.592,433.046Z" transform="translate(-279.539 -410.889)" opacity="0.15"/>
              <g id="Grupo_146537" data-name="Grupo 146537" transform="translate(9.949 10.009)">
                <path id="Trazado_202669" data-name="Trazado 202669" d="M292.318,421.515l1.211,2.165a17.231,17.231,0,0,1,7.1-.133l1.634-2.216A24.13,24.13,0,0,0,292.318,421.515Z" transform="translate(-292.318 -420.899)" fill="#4dd0e1"/>
                <path id="Trazado_202670" data-name="Trazado 202670" d="M292.318,421.515l1.211,2.165a17.231,17.231,0,0,1,7.1-.133l1.634-2.216A24.13,24.13,0,0,0,292.318,421.515Z" transform="translate(-292.318 -420.899)" fill="#fff" opacity="0.7"/>
              </g>
              <g id="Grupo_146538" data-name="Grupo 146538" transform="translate(14.343)">
                <path id="Trazado_202671" data-name="Trazado 202671" d="M298.544,417.6l-.035,0a.58.58,0,0,1-.545-.613l.157-2.666,10.733-6.195a.581.581,0,0,1,.582,1.007l-10.192,5.881-.121,2.042A.579.579,0,0,1,298.544,417.6Z" transform="translate(-297.963 -408.043)" opacity="0.4"/>
              </g>
            </g>
            <g id="Grupo_146544" data-name="Grupo 146544" transform="translate(83.596 116.721)">
              <g id="Grupo_146543" data-name="Grupo 146543">
                <g id="Grupo_146540" data-name="Grupo 146540" transform="translate(0 10.06)">
                  <path id="Trazado_202672" data-name="Trazado 202672" d="M344.506,399.8c-5.3-3.061-14.282-2.84-20.061.494s-6.165,8.52-.865,11.581,14.281,2.839,20.06-.5S349.806,402.86,344.506,399.8Zm-3.608,10c-4.127,2.382-10.543,2.54-14.328.353s-3.51-5.89.617-8.271,10.543-2.54,14.329-.354S345.026,407.414,340.9,409.8Z" transform="translate(-319.845 -397.64)" fill="#4dd0e1"/>
                  <path id="Trazado_202673" data-name="Trazado 202673" d="M332.238,404.793a9.52,9.52,0,0,1,8.6-.213c2.272,1.312,2.106,3.534-.371,4.963a9.521,9.521,0,0,1-8.6.213C329.6,408.444,329.762,406.222,332.238,404.793Z" transform="translate(-322.153 -398.973)" fill="#4dd0e1"/>
                </g>
                <path id="Trazado_202674" data-name="Trazado 202674" d="M332.238,404.793a9.52,9.52,0,0,1,8.6-.213c2.272,1.312,2.106,3.534-.371,4.963a9.521,9.521,0,0,1-8.6.213C329.6,408.444,329.762,406.222,332.238,404.793Z" transform="translate(-322.153 -388.913)" opacity="0.5"/>
                <path id="Trazado_202675" data-name="Trazado 202675" d="M344.506,399.8c-5.3-3.061-14.282-2.84-20.061.494s-6.165,8.52-.865,11.581,14.281,2.839,20.06-.5S349.806,402.86,344.506,399.8Zm-3.608,10c-4.127,2.382-10.543,2.54-14.328.353s-3.51-5.89.617-8.271,10.543-2.54,14.329-.354S345.026,407.414,340.9,409.8Z" transform="translate(-319.845 -387.58)" opacity="0.15"/>
                <g id="Grupo_146541" data-name="Grupo 146541" transform="translate(7.499 10.065)">
                  <path id="Trazado_202676" data-name="Trazado 202676" d="M346.639,399.8c-4.479-2.587-11.579-2.821-17.161-.822l1.915,1.96c3.987-1.427,9.057-1.26,12.257.587a6.724,6.724,0,0,1,1.453,1.116l3.573-1.277A9.388,9.388,0,0,0,346.639,399.8Z" transform="translate(-329.478 -397.647)" fill="#4dd0e1"/>
                  <path id="Trazado_202677" data-name="Trazado 202677" d="M346.639,399.8c-4.479-2.587-11.579-2.821-17.161-.822l1.915,1.96c3.987-1.427,9.057-1.26,12.257.587a6.724,6.724,0,0,1,1.453,1.116l3.573-1.277A9.388,9.388,0,0,0,346.639,399.8Z" transform="translate(-329.478 -397.647)" fill="#fff" opacity="0.7"/>
                </g>
                <g id="Grupo_146542" data-name="Grupo 146542" transform="translate(14.432)">
                  <path id="Trazado_202678" data-name="Trazado 202678" d="M338.964,394.272l-.035,0a.58.58,0,0,1-.545-.614l.158-2.666,10.733-6.194a.581.581,0,1,1,.582,1.007l-10.192,5.88-.122,2.043A.581.581,0,0,1,338.964,394.272Z" transform="translate(-338.383 -384.719)" opacity="0.4"/>
                </g>
              </g>
            </g>
            <g id="Grupo_146548" data-name="Grupo 146548" transform="translate(69.865 130.844)">
              <g id="Grupo_146545" data-name="Grupo 146545">
                <path id="Trazado_202679" data-name="Trazado 202679" d="M302.79,438.233a.581.581,0,0,1-.291-1.085l59.289-34.212a.581.581,0,1,1,.582,1.007L303.08,438.156A.592.592,0,0,1,302.79,438.233Z" transform="translate(-302.209 -402.859)" opacity="0.4"/>
              </g>
              <g id="Grupo_146546" data-name="Grupo 146546" transform="translate(3.206 1.843)">
                <path id="Trazado_202680" data-name="Trazado 202680" d="M306.909,440.6a.581.581,0,0,1-.291-1.084L365.907,405.3a.581.581,0,1,1,.581,1.007L307.2,440.523A.589.589,0,0,1,306.909,440.6Z" transform="translate(-306.327 -405.227)" opacity="0.4"/>
              </g>
              <g id="Grupo_146547" data-name="Grupo 146547" transform="translate(6.406 3.69)">
                <path id="Trazado_202681" data-name="Trazado 202681" d="M311.019,442.973a.581.581,0,0,1-.291-1.085l59.289-34.213a.581.581,0,1,1,.581,1.007L311.309,442.9A.589.589,0,0,1,311.019,442.973Z" transform="translate(-310.437 -407.599)" opacity="0.4"/>
              </g>
            </g>
          </g>
        </g>
      </g>
    </g>
  </g>
</svg>
